<svg id="Layer_1" data-name="Layer 1" xmlns="http://www.w3.org/2000/svg" viewBox="0 0 131 63"><defs><style>.cls-1{fill:#0067ac;}.cls-2{fill:#0091d0;}.cls-3{fill:#fff;}</style></defs><g id="Kind-Illustration1_" data-name="Kind-Illustration1 "><path id="Path_24999" data-name="Path 24999" class="cls-1" d="M3.91,31.64A25.55,25.55,0,1,1,29.46,57.2,25.55,25.55,0,0,1,3.91,31.64Z"/><path id="Path_25000" data-name="Path 25000" class="cls-2" d="M4.1,28.51c1.31,2.62,2.76,5.16,4.11,7.77.76,1.45,2.57,4.13,2.19,5.88-.2.9-1.5,1.31-1.42,2.28s1.62,1.8,2.26,2.28c1.15.87,2.23,1.83,3.29,2.79a7.74,7.74,0,0,1,2.39,4.39,25.53,25.53,0,0,0,6.39,2.54,30.71,30.71,0,0,1,4.77-4.34,7.56,7.56,0,0,0,2.68-2.5c.74-1.46-.09-2.36-.52-3.62a3.43,3.43,0,0,0-2-2.25c-2.07-1.19-4.52-1.58-6.8-2.21-2.06-.57-4.16-1.1-6.25-1.58-1.21-.27-2.89-.39-3.75-1.37a17,17,0,0,1-2.7-5.92c-.23-.85-1.12-4,0-4.67.55-.35,1.91.26,2.27,0s.18-1.05.18-1.46c0-2.57,1.72-4,3.91-5.16a40.56,40.56,0,0,1,5.75-2.15,7.59,7.59,0,0,0,2.55-1c1.32-1.23.45-4.86.44-6.62C23.82,9,21,9.18,19,8.34A25.58,25.58,0,0,0,4.1,28.51Z"/><path id="Path_25001" data-name="Path 25001" class="cls-2" d="M39.29,12c2,1.43,5.76,4.56,3.82,7.27-.55.79-1.71,2-1.47,3.05.48,2.16,3,1.11,4.1.57a5.3,5.3,0,0,1,2.76-.58c.49.06,2,.42,2.29.91.54,1.08-2,2.15-2.63,2.57a11.91,11.91,0,0,0-4.06,4.37c-.51,1-2.05,3.92-1.4,5.17.39.73,2.12.87,2.79,1.08,1.18.37,2.41.79,3.55,1.26.86.35,3.3,1.08,3.76,2,.66,1.28-2.12,2.37-2.86,3.06-1.3,1.21-3.62,5-2.62,7.18A25.54,25.54,0,0,0,36.23,7,7,7,0,0,0,39.29,12Z"/><path id="Path_25002" data-name="Path 25002" class="cls-3" d="M24.64,51.52V20.65l-3.72,0,0-5,4.81-4.28h8.85V51.52Z"/><path id="Path_25003" data-name="Path 25003" class="cls-3" d="M47.22,24.73H49.3L40.36,37H38.28Z"/><path id="Path_25004" data-name="Path 25004" class="cls-3" d="M37.11,27.66A2.88,2.88,0,1,0,40,24.79h0A2.87,2.87,0,0,0,37.11,27.66Zm1.6,0a1.27,1.27,0,1,0,0,2.53,1.27,1.27,0,0,0,0-2.53Z"/><path id="Path_25005" data-name="Path 25005" class="cls-3" d="M44.6,34.09a2.88,2.88,0,1,0,2.88-2.87h0A2.87,2.87,0,0,0,44.6,34.09Zm1.61,0a1.27,1.27,0,1,0,1.27,1.26,1.27,1.27,0,0,0-1.27-1.26Z"/><path id="Path_25006" data-name="Path 25006" class="cls-2" d="M59.84,20.15h8.39V22.7H62.75v1.78h5v2.41h-5v3.74H59.84Z"/><path id="Path_25007" data-name="Path 25007" class="cls-2" d="M69.25,25.42v0a5.65,5.65,0,0,1,11.29,0v0a5.65,5.65,0,0,1-11.29,0Zm8.33,0v0A2.72,2.72,0,0,0,75,22.57h-.08a2.69,2.69,0,0,0-2.65,2.71v.12a2.73,2.73,0,0,0,2.62,2.83h.06a2.66,2.66,0,0,0,2.67-2.66v-.14Z"/><path id="Path_25008" data-name="Path 25008" class="cls-2" d="M82.13,20.14h5a4.53,4.53,0,0,1,3.41,1.14,3.2,3.2,0,0,1,.93,2.43v0A3.31,3.31,0,0,1,89.27,27l2.5,3.65H88.4l-2.11-3.15H85v3.15H82.11Zm4.82,5c1,0,1.55-.48,1.55-1.24v0c0-.82-.6-1.24-1.58-1.24H85v2.51Z"/><path id="Path_25009" data-name="Path 25009" class="cls-2" d="M98.32,22.7H95.18V20.15h9.19V22.7h-3.14v7.93H98.32Z"/><path id="Path_25010" data-name="Path 25010" class="cls-2" d="M105.71,20.15h2.91v3.92h3.72V20.15h2.91V30.63h-2.91v-4h-3.72v4h-2.91Z"/><path id="Path_25011" data-name="Path 25011" class="cls-2" d="M117.18,20.15h8.42v2.48h-5.55v1.58h5V26.5h-5v1.66h5.63v2.47h-8.5Z"/><path id="Path_25012" data-name="Path 25012" class="cls-1" d="M59.77,32.73H64.6c2.85,0,4.69,1.46,4.69,3.94v0c0,2.66-2.05,4.06-4.85,4.06H62.9V44H59.77Zm4.61,5.6c1.11,0,1.78-.58,1.78-1.46v0c0-1-.67-1.48-1.8-1.48H62.89v3Z"/><path id="Path_25013" data-name="Path 25013" class="cls-1" d="M70.61,32.73h3.13v8.54H79.2V44H70.61Z"/><path id="Path_25014" data-name="Path 25014" class="cls-1" d="M84.43,32.65h3L92.25,44H88.89l-.82-2H83.74l-.81,2H79.65Zm2.74,6.91-1.25-3.21-1.28,3.21Z"/><path id="Path_25015" data-name="Path 25015" class="cls-1" d="M93.34,32.73h2.92l4.64,6v-6H104V44h-2.73l-4.82-6.18V44h-3.1Z"/><path id="Path_25016" data-name="Path 25016" class="cls-1" d="M106,32.73h9.07v2.65h-6V37.1h5.41v2.46h-5.41v1.78h6.06V44H106Z"/><path id="Path_25017" data-name="Path 25017" class="cls-1" d="M119.49,35.47h-3.38V32.73H126v2.74h-3.38V44h-3.13Z"/><path id="Path_25018" data-name="Path 25018" class="cls-1" d="M123.41,43h0a1,1,0,0,1,1-1,1,1,0,0,1,1,.95V43h0a1,1,0,0,1-1,1,1,1,0,0,1-1-1A.08.08,0,0,1,123.41,43Zm1.8,0h0a.83.83,0,0,0-.79-.85.82.82,0,0,0-.85.8v0h0a.82.82,0,0,0,1.64.06ZM124,42.5h.47c.23,0,.39.1.39.33a.31.31,0,0,1-.2.31l.24.34h-.32l-.2-.29h-.09v.29H124Zm.45.47c.09,0,.15,0,.15-.12s-.06-.12-.15-.12h-.16V43Z"/></g></svg>