<svg xmlns="http://www.w3.org/2000/svg" width="105.79" height="44.27" viewBox="0 0 105.79 44.27" fill="currentColor">
  <g id="_1fortheplanet-member" data-name="1fortheplanet-member" transform="translate(-20.7 -7.2)">
    <g id="Group_1570" data-name="Group 1570" transform="translate(20.7 7.2)">
      <path id="Path_8421" data-name="Path 8421" d="M111.186,59.793a1.093,1.093,0,1,0-1.093,1.093A1.079,1.079,0,0,0,111.186,59.793Z" transform="translate(-78.838 -41.108)"/>
      <path id="Path_8422" data-name="Path 8422" d="M42.835,7.2A22.135,22.135,0,1,0,64.97,29.335,22.13,22.13,0,0,0,42.835,7.2ZM47.31,46.551H38.668V19.8l-3.211-.034.034-4.338,4.167-3.723H47.31Zm2.152-20.666a2.494,2.494,0,1,1,2.494,2.494A2.508,2.508,0,0,1,49.462,25.885Zm1.025,8.062,7.754-10.589h1.81L52.3,33.946Zm7.959,0a2.494,2.494,0,1,1,2.494-2.494A2.508,2.508,0,0,1,58.446,33.946Z" transform="translate(-20.7 -7.2)"/>
      <path id="Path_8423" data-name="Path 8423" d="M129.093,75a1.093,1.093,0,1,0,1.093,1.093A1.079,1.079,0,0,0,129.093,75Z" transform="translate(-91.347 -51.84)"/>
    </g>
    <g id="Group_1571" data-name="Group 1571" transform="translate(69.103 18.575)">
      <path id="Path_8424" data-name="Path 8424" d="M162.6,41h7.242v2.22h-4.748v1.537h4.3v2.084h-4.3v3.245H162.6Z" transform="translate(-162.532 -40.829)"/>
      <path id="Path_8425" data-name="Path 8425" d="M186.4,45.248h0a4.769,4.769,0,0,1,4.885-4.748,4.714,4.714,0,0,1,4.885,4.68v.034a4.763,4.763,0,0,1-4.885,4.714A4.714,4.714,0,0,1,186.4,45.248Zm7.242,0h0a2.387,2.387,0,0,0-2.323-2.494,2.32,2.32,0,0,0-2.289,2.425v.034a2.378,2.378,0,0,0,2.323,2.459A2.32,2.32,0,0,0,193.642,45.248Z" transform="translate(-178.202 -40.5)"/>
      <path id="Path_8426" data-name="Path 8426" d="M218.968,41h4.3a4.026,4.026,0,0,1,2.972.991,2.779,2.779,0,0,1,.82,2.118v.034a2.885,2.885,0,0,1-1.879,2.8l2.152,3.177H224.4l-1.845-2.733h-1.127V50.12H218.9V41Zm4.167,4.372c.854,0,1.332-.41,1.332-1.093v-.034c0-.717-.512-1.093-1.366-1.093h-1.64v2.186h1.674Z" transform="translate(-199.6 -40.829)"/>
      <path id="Path_8427" data-name="Path 8427" d="M254.933,43.22H252.2V41h7.959v2.22h-2.733v6.866h-2.494Z" transform="translate(-221.525 -40.829)"/>
      <path id="Path_8428" data-name="Path 8428" d="M278.9,41h2.528v3.416h3.211V41h2.528v9.086h-2.528v-3.45h-3.211v3.45H278.9Z" transform="translate(-239.105 -40.829)"/>
      
      <path id="Path_8429" data-name="Path 8429" d="M308,41h7.31v2.152h-4.816v1.366h4.338V46.5h-4.338v1.435h4.885v2.152H308Z" transform="translate(-258.265 -40.829)"/>
      <path id="Path_8430" data-name="Path 8430" d="M162.4,72.9h4.2c2.459,0,4.065,1.264,4.065,3.45v.034c0,2.289-1.776,3.518-4.2,3.518h-1.332v2.8h-2.7V72.9Zm4,4.885c.956,0,1.537-.512,1.537-1.264v-.034c0-.854-.581-1.3-1.571-1.3H165.1v2.6Z" transform="translate(-162.4 -61.832)"/>
      <path id="Path_8431" data-name="Path 8431" d="M189.9,72.9h2.7v7.412h4.748v2.357H189.9Z" transform="translate(-180.506 -61.832)"/>
      <path id="Path_8432" data-name="Path 8432" d="M216.933,72.7h2.6l4.167,9.838h-2.9l-.717-1.742h-3.757l-.683,1.742H212.8Zm2.391,6.012-1.093-2.767-1.093,2.767Z" transform="translate(-195.584 -61.701)"/>
      <path id="Path_8433" data-name="Path 8433" d="M247.5,72.9h2.528l4.031,5.158V72.9h2.7v9.769h-2.391L250.2,77.306v5.363h-2.7Z" transform="translate(-218.431 -61.832)"/>
      <path id="Path_8434" data-name="Path 8434" d="M279.6,72.9h7.857v2.323H282.3v1.469h4.68v2.152H282.3v1.537h5.226v2.289H279.6Z" transform="translate(-239.566 -61.832)"/>
      <path id="Path_8435" data-name="Path 8435" d="M308.238,75.291H305.3V72.9h8.574v2.391h-2.938v7.378h-2.7Z" transform="translate(-256.487 -61.832)"/>
    </g>
    <g id="Group_1572" data-name="Group 1572" transform="translate(84.646 41.974)">
      <path id="Path_8436" data-name="Path 8436" d="M207.9,112.7h3.245v.581H207.9Z" transform="translate(-207.9 -111.436)"/>
      <path id="Path_8437" data-name="Path 8437" d="M221.7,109h.683l.752,1.2.751-1.2h.683v2.835h-.615v-1.845l-.82,1.2h0l-.786-1.2v1.845h-.615V109Z" transform="translate(-216.986 -109)"/>
      <path id="Path_8438" data-name="Path 8438" d="M232,109h2.152v.547h-1.537v.581h1.332v.547h-1.332v.581h1.537v.547H232Z" transform="translate(-223.768 -109)"/>
      <path id="Path_8439" data-name="Path 8439" d="M240,109h.683l.751,1.2.751-1.2h.683v2.835h-.615v-1.845l-.82,1.2h0l-.786-1.2v1.845H240Z" transform="translate(-229.035 -109)"/>
      <path id="Path_8440" data-name="Path 8440" d="M250.4,109h1.332a1.159,1.159,0,0,1,.751.239.62.62,0,0,1,.2.478h0a.665.665,0,0,1-.376.615c.342.137.547.307.547.683h0c0,.512-.41.786-1.059.786h-1.366V109Zm1.2,1.127c.273,0,.444-.1.444-.307h0c0-.171-.137-.307-.41-.307h-.615v.615Zm.171,1.161c.273,0,.444-.1.444-.307h0c0-.2-.137-.307-.478-.307h-.717v.615Z" transform="translate(-235.882 -109)"/>
      <path id="Path_8441" data-name="Path 8441" d="M259,109h2.152v.547h-1.537v.581h1.332v.547h-1.332v.581h1.537v.547H259Z" transform="translate(-241.545 -109)"/>
      <path id="Path_8442" data-name="Path 8442" d="M267,109h1.3a1.125,1.125,0,0,1,.82.273.851.851,0,0,1,.239.649h0a.894.894,0,0,1-.615.888l.683,1.025h-.752l-.615-.922h-.478v.922H267Zm1.264,1.366c.307,0,.478-.171.478-.41h0c0-.273-.171-.41-.478-.41h-.615v.82Z" transform="translate(-246.812 -109)"/>
      <path id="Path_8443" data-name="Path 8443" d="M277.6,112.7h3.245v.581H277.6Z" transform="translate(-253.791 -111.436)"/>
    </g>
    <g id="Group_1573" data-name="Group 1573" transform="translate(124.236 37.704)">
      <path id="Path_8444" data-name="Path 8444" d="M323.8,97.354h0a.854.854,0,1,1,1.708,0h0a.854.854,0,1,1-1.708,0Zm1.571,0h0a.7.7,0,0,0-.717-.717.722.722,0,0,0-.717.717h0a.722.722,0,0,0,.717.717A.7.7,0,0,0,325.371,97.354Zm-1.059-.444h.41c.205,0,.342.1.342.273a.27.27,0,0,1-.171.273l.205.307h-.273l-.171-.239h-.1v.239h-.239Zm.376.41c.068,0,.137-.034.137-.1s-.034-.1-.137-.1h-.137v.2Z" transform="translate(-323.8 -96.5)"/>
    </g>
  </g>
</svg>
