<svg fill="none" xmlns="http://www.w3.org/2000/svg" viewBox="0 0 492 122"><g clip-path="url(#clip0_3465_13607)" fill="currentColor"><path d="M242.007 30.242c-2.778 2.062-5.208 4.468-6.25 7.56V27.494h-19.444v54.299c0 6.873 5.556 12.371 12.5 12.371h7.291v-34.71c0-5.498 1.389-9.278 4.514-11.34 3.125-2.062 7.639-3.437 14.236-3.437 2.43 0 4.861-2.062 4.861-4.468V26.806c-.695-.344-2.083-.688-3.819-.688-4.514 0-9.375 1.719-13.542 4.468M99.303 93.82h7.291c6.944 0 12.5-5.499 12.5-12.372V0H99.303v93.82ZM386.795 26.118c-8.681 0-19.791 4.124-24.305 11.685v-10.31h-19.444v54.299c0 6.873 5.555 12.371 12.5 12.371h7.291V58.08c0-7.56 6.25-13.403 13.888-13.403 7.639 0 13.195 5.842 13.195 13.403v36.428h19.791V48.8c0-6.873-2.084-12.372-5.903-16.496-3.819-4.124-9.722-6.186-17.361-6.186M166.662 75.95c-9.028 0-15.972-7.218-15.972-15.81 0-8.59 7.292-15.808 15.972-15.808s15.972 7.217 15.972 15.809c0 8.591-7.292 15.808-15.972 15.808Zm24.305-48.8h-7.292v10.31c-5.555-6.187-13.541-10.31-22.221-10.31-17.014 0-30.555 14.777-30.555 32.99 0 18.215 13.541 32.992 30.555 32.992 17.013 0 16.666-4.124 22.221-10.31v8.248c0 4.812-1.388 8.248-4.166 10.654-2.431 2.062-6.25 3.78-11.805 4.124h-1.042c-3.472 0-8.68-1.031-11.111-2.062-1.389-.687-3.472-1.375-4.861-2.406-5.555 1.719-10.069 5.843-11.805 11.685 1.389 1.031 2.778 2.062 4.514 2.749 6.25 3.437 14.583 5.842 23.957 5.842h5.903c8.68-.687 15.972-3.436 21.18-7.904 6.597-5.498 9.722-13.059 9.722-22.682V39.521c0-6.873-5.555-12.372-12.5-12.372M456.932 77.668c-9.375 0-17.014-7.561-17.014-16.84s7.639-16.84 17.014-16.84c9.374 0 17.013 7.561 17.013 16.84s-7.639 16.84-17.013 16.84Zm0-51.206c-19.444 0-35.069 15.465-35.069 34.71s15.625 34.71 35.069 34.71c19.443 0 35.068-15.465 35.068-34.71s-15.625-34.71-35.068-34.71ZM309.019 69.763c0 3.093-1.389 5.499-4.514 7.905-2.777 2.062-6.597 3.436-10.763 3.436-4.167 0-4.861-.687-6.25-1.718-1.736-1.031-2.431-2.75-2.431-4.811 0-2.062.695-4.468 2.431-5.843 1.736-1.374 5.208-2.405 7.986-2.749 10.069-1.375 13.541-2.75 13.541-2.75v6.874-.344Zm20.486 17.183c0-2.061-.348-4.467-.348-6.53V50.863c0-7.904-2.43-14.09-7.638-18.558-5.556-4.811-13.194-6.186-20.486-6.53-9.027 0-17.708 1.375-25.346 5.843-2.778 1.375-5.208 3.436-7.639 5.155 2.083 4.811 6.25 8.248 11.805 9.622 3.472-2.405 7.639-4.124 11.805-5.155 2.084-.343 4.167-.687 6.25-.687 1.736 0 3.472 0 4.861.687 3.472 1.031 6.25 3.437 6.25 7.217 0 2.062-1.389 3.78-3.472 3.78l-13.194 1.719c-8.333 1.03-14.93 3.437-19.791 7.217-4.861 3.78-6.944 8.935-6.944 15.12 0 6.187 2.083 9.967 5.902 13.404 3.819 3.436 9.375 5.155 15.972 5.155 6.597 0 10.764-1.375 14.583-3.78 3.125-2.063 5.555-4.812 7.639-8.592v4.811c0 2.062 1.041 4.468 2.777 6.186h19.791c-1.736-1.718-3.125-4.811-3.125-7.217M44.443 55.33c-4.86 0-9.027 1.03-13.194 3.093l13.194-41.584L57.29 58.423c-3.82-2.062-8.333-3.093-12.847-3.093ZM60.763 0H29.165L0 93.82h29.86c-1.389-1.719-2.083-3.78-2.777-6.186-2.084-9.28 3.819-18.558 13.194-20.964 9.374-2.062 18.75 3.78 21.18 13.06 1.736 7.904 8.333 13.746 16.666 13.746h10.416L60.762 0Z"/></g><defs><clipPath id="clip0_3465_13607"><path fill="#fff" d="M0 0h492v122H0z"/></clipPath></defs></svg>