<svg xmlns="http://www.w3.org/2000/svg" width="53.611" height="18.764" viewBox="0 0 53.611 18.764" fill="currentColor">
  <path d="M53.023-215.793a52.424,52.424,0,0,1-6.857-6.863c-1.085-1.265-2.732.566-1.749,1.844a38.573,38.573,0,0,0,5.682,5.85,1.445,1.445,0,0,0-.26-.051c-8.581-.829-17.4-.507-26.015-.56q-6.367-.039-12.734.031c-2.214.028-4.432.058-6.643.178a10.793,10.793,0,0,0-4.078.57.782.782,0,0,0-.363.668.749.749,0,0,0,.354.79.33.33,0,0,0,.405.055l.084-.061c7.5,1.047,15.432.321,22.974.382,8.349.068,16.781.7,25.128.484-1.014,1.14-2.068,2.241-3.171,3.29-1.022.972-3.484,2.3-3.3,3.987a.872.872,0,0,0,1.288.779l.1-.048a.744.744,0,0,0,.347-.638c0-.039,0-.078.007-.117a.448.448,0,0,0-.022-.158,1.855,1.855,0,0,0,1.513-.692q.482-.39.955-.792c.725-.618,1.435-1.258,2.123-1.921a51.473,51.473,0,0,0,4.478-4.989,1.355,1.355,0,0,0-.247-2.015h0" transform="translate(0 223.082)" fill="#011c25"/>
</svg>
