<svg xmlns="http://www.w3.org/2000/svg" width="11.521" height="14.993"><path d="M7.046 14.632a32.189 32.189 0 0 1 4.214-4.21c.777-.666-.348-1.678-1.132-1.074a23.683 23.683 0 0 0-3.592 3.489.888.888 0 0 0 .031-.16c.509-5.268.311-.334.344-5.622.016-2.606.014.361-.019-2.245a56.51 56.51 0 0 0-.109-3.079 2.509 2.509 0 0 0-.35-1.5.48.48 0 0 0-.41-.223.46.46 0 0 0-.485.218.2.2 0 0 0-.034.249l.038.052c-.643 4.6-.2 1.9-.235 6.533-.042 5.126-.428-.048-.3 5.077-.7-.623-1.376-1.27-2.02-1.947-.6-.628-1.414-2.139-2.448-2.029a.535.535 0 0 0-.478.791l.03.063a.457.457 0 0 0 .392.213h.072a.275.275 0 0 0 .1-.013 1.139 1.139 0 0 0 .425.929q.24.3.487.586c.38.445.773.881 1.18 1.3a31.6 31.6 0 0 0 3.063 2.75.832.832 0 0 0 1.237-.152" fill="currentColor"/></svg>