<svg xmlns="http://www.w3.org/2000/svg" width="80.416" height="18.764" viewBox="0 0 80.416 18.764" fill="currentColor">
  <path d="M79.871-216.054a50.692,50.692,0,0,1-6.355-6.863c-1.006-1.265-2.533.566-1.621,1.844a37.42,37.42,0,0,0,5.267,5.85,1.251,1.251,0,0,0-.241-.051c-7.953-.829-46.855-.158-54.838-.211-3.934-.026-7.868-.023-11.8.031-2.052.028-4.108.058-6.157.178a9.33,9.33,0,0,0-3.78.57.8.8,0,0,0-.337.668.772.772,0,0,0,.329.79.29.29,0,0,0,.375.055l.078-.061c6.949,1.047,14.3.321,21.294.382,7.738.068,46.279.348,54.016.135-.94,1.14-1.917,2.241-2.939,3.29-.947.972-3.229,2.3-3.062,3.987.071.718.611,1.073,1.194.779l.1-.048a.759.759,0,0,0,.322-.638c0-.039,0-.078.006-.117a.481.481,0,0,0-.02-.158,1.669,1.669,0,0,0,1.4-.692q.446-.39.885-.792c.672-.618,1.33-1.258,1.968-1.921a50.368,50.368,0,0,0,4.151-4.989,1.424,1.424,0,0,0-.229-2.015h0" transform="translate(0 223.343)"/>
</svg>
