<svg xmlns="http://www.w3.org/2000/svg" width="44.168" height="74.469" viewBox="0 0 44.168 74.469" fill="currentColor">
  <g transform="translate(0 0)">
    <path d="M67.707-155.244H76.1c2.889,0,4.723-1.761,4.723-4.51,0-3.278-2.643-4.194-5.464-4.194H67.707Zm0-11.523h6.7c3.8,0,5.357-1.374,5.357-4.018,0-3.489-2.466-3.982-5.357-3.982h-6.7ZM64.36-177.586h9.127c2.221,0,5.146,0,6.662.916a5.971,5.971,0,0,1,2.959,5.251,5.809,5.809,0,0,1-3.735,5.638v.071a5.765,5.765,0,0,1,4.793,6.062c0,3.7-2.644,7.224-7.648,7.224H64.36v-25.162" transform="translate(-51.467 199.058)"/>
    <path d="M48.984-205.216a22.047,22.047,0,0,0-22.045,22.047,22.047,22.047,0,0,0,22.045,22.046,22.048,22.048,0,0,0,22.05-22.046A22.048,22.048,0,0,0,48.984-205.216Zm19.142,22.057a19.14,19.14,0,0,1-19.142,19.141,19.14,19.14,0,0,1-19.138-19.141A19.138,19.138,0,0,1,48.984-202.3a19.138,19.138,0,0,1,19.142,19.138" transform="translate(-26.865 217.222)"/>
    <path d="M71.075-60.043h-44v-2.892h44v2.892" transform="translate(-26.953 123.685)"/>
    <path d="M147.814-75.02a1.374,1.374,0,0,1,.285-.413,1.332,1.332,0,0,1,.423-.275,1.294,1.294,0,0,1,.508-.1,1.319,1.319,0,0,1,.515.1,1.309,1.309,0,0,1,.413.275,1.319,1.319,0,0,1,.285.413,1.244,1.244,0,0,1,.106.521,1.23,1.23,0,0,1-.106.52,1.276,1.276,0,0,1-.285.418,1.259,1.259,0,0,1-.413.278,1.367,1.367,0,0,1-.515.1,1.342,1.342,0,0,1-.508-.1,1.28,1.28,0,0,1-.423-.278,1.327,1.327,0,0,1-.285-.418,1.222,1.222,0,0,1-.1-.52,1.235,1.235,0,0,1,.1-.521m.218.964a1,1,0,0,0,.226.36,1.049,1.049,0,0,0,.345.237,1.071,1.071,0,0,0,.427.083,1.052,1.052,0,0,0,.427-.083,1.116,1.116,0,0,0,.345-.237,1.109,1.109,0,0,0,.226-.36,1.143,1.143,0,0,0,.085-.443,1.127,1.127,0,0,0-.085-.441,1.109,1.109,0,0,0-.226-.355,1.136,1.136,0,0,0-.345-.234,1.074,1.074,0,0,0-.427-.086,1.1,1.1,0,0,0-.427.086,1.067,1.067,0,0,0-.345.234,1,1,0,0,0-.226.355,1.125,1.125,0,0,0-.083.441,1.141,1.141,0,0,0,.083.443m1.082-1.208a.637.637,0,0,1,.405.107.407.407,0,0,1,.134.331.388.388,0,0,1-.116.306.556.556,0,0,1-.291.115l.439.675h-.254l-.42-.661h-.252v.661h-.242v-1.534Zm-.105.682c.054,0,.105,0,.154-.006a.361.361,0,0,0,.127-.029.222.222,0,0,0,.091-.076.261.261,0,0,0,.032-.143.205.205,0,0,0-.03-.121.172.172,0,0,0-.077-.07.319.319,0,0,0-.108-.037c-.041,0-.08-.006-.121-.006h-.316v.488h.249" transform="translate(-106.263 132.147)"/>
    <path d="M32.179-237.949a1.771,1.771,0,0,0-.39-.44,1.813,1.813,0,0,0-.529-.3,1.836,1.836,0,0,0-.619-.106,2.045,2.045,0,0,0-1,.228,1.9,1.9,0,0,0-.669.613,2.684,2.684,0,0,0-.373.875,4.316,4.316,0,0,0-.117,1.014,4.015,4.015,0,0,0,.117.975,2.632,2.632,0,0,0,.373.853,1.919,1.919,0,0,0,.669.608,2.045,2.045,0,0,0,1,.228,1.618,1.618,0,0,0,1.254-.49,2.263,2.263,0,0,0,.551-1.292H34.14a4.043,4.043,0,0,1-.345,1.348,3.225,3.225,0,0,1-.735,1.025,3.118,3.118,0,0,1-1.07.647,3.921,3.921,0,0,1-1.349.223A4.077,4.077,0,0,1,29-232.254a3.512,3.512,0,0,1-1.231-.875A3.872,3.872,0,0,1,27-234.438a4.79,4.79,0,0,1-.268-1.622A4.958,4.958,0,0,1,27-237.715a3.975,3.975,0,0,1,.769-1.332A3.512,3.512,0,0,1,29-239.938a4.024,4.024,0,0,1,1.644-.323,4.031,4.031,0,0,1,1.243.189,3.365,3.365,0,0,1,1.047.552,2.977,2.977,0,0,1,.763.9,3.2,3.2,0,0,1,.379,1.226H32.38a1.443,1.443,0,0,0-.2-.551" transform="translate(-26.728 240.261)"/>
    <path d="M53.025-232.25a1.113,1.113,0,0,0-.864-.312,1.38,1.38,0,0,0-.629.128,1.2,1.2,0,0,0-.4.317,1.169,1.169,0,0,0-.212.4,1.81,1.81,0,0,0-.072.379H53.42A1.829,1.829,0,0,0,53.025-232.25Zm-1.789,3.032a1.415,1.415,0,0,0,1.025.345,1.412,1.412,0,0,0,.825-.239,1,1,0,0,0,.424-.507H54.9a2.648,2.648,0,0,1-1.025,1.483,3.021,3.021,0,0,1-1.672.445,3.292,3.292,0,0,1-1.226-.217,2.545,2.545,0,0,1-.925-.619,2.783,2.783,0,0,1-.585-.958,3.512,3.512,0,0,1-.206-1.226,3.365,3.365,0,0,1,.212-1.2,2.828,2.828,0,0,1,.6-.964,2.836,2.836,0,0,1,.931-.64,2.976,2.976,0,0,1,1.2-.234,2.743,2.743,0,0,1,1.281.284,2.555,2.555,0,0,1,.9.764,3.134,3.134,0,0,1,.507,1.092A4.084,4.084,0,0,1,55-230.333H50.846a1.6,1.6,0,0,0,.39,1.115" transform="translate(-41.542 235.983)"/>
    <path d="M69.6-233.6v1.07h.022a1.947,1.947,0,0,1,.3-.5,1.966,1.966,0,0,1,.434-.391,2.147,2.147,0,0,1,.524-.251,1.889,1.889,0,0,1,.58-.089,1.244,1.244,0,0,1,.346.055v1.471c-.075-.015-.164-.027-.268-.039a2.862,2.862,0,0,0-.3-.016,1.688,1.688,0,0,0-.736.145,1.272,1.272,0,0,0-.485.4,1.589,1.589,0,0,0-.262.585,3.2,3.2,0,0,0-.078.724v2.6H68.1V-233.6h1.5" transform="translate(-53.924 235.983)"/>
    <path d="M84.193-236.615v1.058h-1.16v2.853a.772.772,0,0,0,.134.535.771.771,0,0,0,.534.134q.134,0,.257-.011a2.29,2.29,0,0,0,.235-.033v1.226a3.736,3.736,0,0,1-.446.045c-.163.007-.323.011-.479.011a4.635,4.635,0,0,1-.7-.05,1.635,1.635,0,0,1-.579-.2,1.033,1.033,0,0,1-.4-.412,1.47,1.47,0,0,1-.144-.7v-3.4h-.959v-1.058h.959v-1.728h1.582v1.728h1.16" transform="translate(-62.073 238.999)"/>
    <path d="M95.567-237.513v5.761H93.984v-5.761Zm-1.583-.892v-1.3h1.583v1.3H93.984" transform="translate(-70.942 239.898)"/>
    <path d="M100.435-236.455v-1.058h.947v-.446a1.722,1.722,0,0,1,.48-1.258,1.941,1.941,0,0,1,1.449-.491c.14,0,.282.006.424.017s.278.021.411.028v1.182a4.746,4.746,0,0,0-.579-.034.607.607,0,0,0-.462.15.741.741,0,0,0-.139.508v.345h1.092v1.058h-1.092v4.7h-1.583v-4.7h-.947" transform="translate(-75.183 239.898)"/>
    <path d="M115.72-237.513v5.761h-1.583v-5.761Zm-1.583-.892v-1.3h1.583v1.3h-1.583" transform="translate(-84.191 239.898)"/>
    <path d="M124.046-232.25a1.112,1.112,0,0,0-.864-.312,1.381,1.381,0,0,0-.629.128,1.2,1.2,0,0,0-.4.317,1.175,1.175,0,0,0-.212.4,1.815,1.815,0,0,0-.072.379h2.574A1.811,1.811,0,0,0,124.046-232.25Zm-1.789,3.032a1.419,1.419,0,0,0,1.025.345,1.414,1.414,0,0,0,.825-.239.993.993,0,0,0,.423-.507h1.393a2.644,2.644,0,0,1-1.025,1.483,3.024,3.024,0,0,1-1.672.445,3.288,3.288,0,0,1-1.226-.217,2.537,2.537,0,0,1-.925-.619,2.791,2.791,0,0,1-.585-.958,3.524,3.524,0,0,1-.206-1.226,3.373,3.373,0,0,1,.212-1.2,2.812,2.812,0,0,1,.6-.964,2.827,2.827,0,0,1,.93-.64,2.982,2.982,0,0,1,1.2-.234,2.746,2.746,0,0,1,1.282.284,2.559,2.559,0,0,1,.9.764,3.125,3.125,0,0,1,.506,1.092,4.049,4.049,0,0,1,.112,1.281h-4.156a1.6,1.6,0,0,0,.389,1.115" transform="translate(-88.233 235.983)"/>
    <path d="M142.674-235.335a1.66,1.66,0,0,0-.228-.579,1.29,1.29,0,0,0-.418-.407,1.223,1.223,0,0,0-.646-.156,1.285,1.285,0,0,0-.657.156,1.24,1.24,0,0,0-.43.412,1.826,1.826,0,0,0-.233.585,3.114,3.114,0,0,0-.072.686,2.954,2.954,0,0,0,.077.668,1.84,1.84,0,0,0,.251.6,1.382,1.382,0,0,0,.435.423,1.171,1.171,0,0,0,.629.162,1.251,1.251,0,0,0,.652-.156,1.185,1.185,0,0,0,.418-.418,1.861,1.861,0,0,0,.222-.6,3.466,3.466,0,0,0,.068-.691,3.394,3.394,0,0,0-.068-.686Zm.068,2.848a1.629,1.629,0,0,1-.73.674,2.422,2.422,0,0,1-1.019.206,2.458,2.458,0,0,1-1.136-.25,2.281,2.281,0,0,1-.809-.68,3.071,3.071,0,0,1-.48-.987,4.151,4.151,0,0,1-.161-1.159,3.9,3.9,0,0,1,.161-1.12,2.908,2.908,0,0,1,.48-.953,2.4,2.4,0,0,1,.8-.663,2.371,2.371,0,0,1,1.115-.25,2.25,2.25,0,0,1,.974.217,1.7,1.7,0,0,1,.731.641h.022v-2.9h1.582v7.957h-1.5v-.735h-.022" transform="translate(-100.146 239.898)"/>
    <path d="M30.7-41.788a1.213,1.213,0,0,0-1.225-.981c-1.106,0-1.522.942-1.522,1.924,0,.933.417,1.875,1.522,1.875a1.261,1.261,0,0,0,1.271-1.256h1.195a2.368,2.368,0,0,1-2.466,2.292,2.7,2.7,0,0,1-2.754-2.911,2.718,2.718,0,0,1,2.754-2.96A2.275,2.275,0,0,1,31.9-41.788H30.7" transform="translate(-26.725 111.109)"/>
    <path d="M45.448-35.783c.761,0,.988-.652.988-1.295s-.227-1.3-.988-1.3-.982.651-.982,1.3S44.695-35.783,45.448-35.783Zm0-3.436a1.991,1.991,0,0,1,2.1,2.142,1.99,1.99,0,0,1-2.1,2.135,1.987,1.987,0,0,1-2.1-2.135,1.989,1.989,0,0,1,2.1-2.142" transform="translate(-37.656 108.094)"/>
    <path d="M57.614-39.132h1.058v.753h.017a1.434,1.434,0,0,1,1.3-.862.837.837,0,0,1,.244.038v1.036a2.072,2.072,0,0,0-.4-.038c-.817,0-1.1.589-1.1,1.3v1.829H57.614v-4.058" transform="translate(-47.032 108.108)"/>
    <path d="M69.527-37.07c0-.645-.259-1.311-.973-1.311-.73,0-.965.651-.965,1.311s.251,1.286.973,1.286S69.527-36.412,69.527-37.07Zm-3.013-2.041h1.06v.518h.015A1.348,1.348,0,0,1,68.8-39.22c1.273,0,1.844,1.027,1.844,2.18a1.872,1.872,0,0,1-1.781,2.1,1.439,1.439,0,0,1-1.216-.613h-.016v1.931H66.514v-5.486" transform="translate(-52.883 108.094)"/>
    <path d="M81.68-35.783c.762,0,.989-.652.989-1.295s-.228-1.3-.989-1.3-.98.651-.98,1.3S80.928-35.783,81.68-35.783Zm0-3.436a1.992,1.992,0,0,1,2.105,2.142,1.991,1.991,0,0,1-2.105,2.135,1.987,1.987,0,0,1-2.094-2.135A1.989,1.989,0,0,1,81.68-39.22" transform="translate(-61.476 108.094)"/>
    <path d="M93.85-39.132H94.91v.753h.017a1.432,1.432,0,0,1,1.294-.862.828.828,0,0,1,.244.038v1.036a2.055,2.055,0,0,0-.4-.038c-.816,0-1.1.589-1.1,1.3v1.829H93.85v-4.058" transform="translate(-70.854 108.108)"/>
    <path d="M104.77-37.04a2.224,2.224,0,0,1-.927.236c-.345.069-.66.189-.66.6s.322.517.684.517a.828.828,0,0,0,.9-.933Zm-2.576-.823c.064-1.044,1-1.357,1.907-1.357.808,0,1.782.179,1.782,1.152v2.112a2.049,2.049,0,0,0,.142.9h-1.132a1.772,1.772,0,0,1-.079-.394,1.851,1.851,0,0,1-1.364.5c-.769,0-1.381-.385-1.381-1.217,0-.917.692-1.136,1.381-1.231s1.319-.079,1.319-.534c0-.478-.332-.549-.723-.549-.424,0-.7.172-.738.612h-1.115" transform="translate(-76.258 108.094)"/>
    <path d="M116.339-41.236h.817v.746h-.817v2.008c0,.378.095.472.471.472a1.77,1.77,0,0,0,.346-.031v.871a4.278,4.278,0,0,1-.653.039c-.681,0-1.278-.158-1.278-.966v-2.393h-.676v-.746h.676v-1.217h1.113v1.217" transform="translate(-84.462 110.22)"/>
    <path d="M124.609-41.869h1.115v4.058h-1.115Zm1.115-.628h-1.115v-.919h1.115v.919" transform="translate(-91.075 110.853)"/>
    <path d="M132.143-35.783c.763,0,.989-.652.989-1.295s-.227-1.3-.989-1.3-.981.651-.981,1.3S131.39-35.783,132.143-35.783Zm0-3.436a1.992,1.992,0,0,1,2.105,2.142,1.991,1.991,0,0,1-2.105,2.135,1.987,1.987,0,0,1-2.093-2.135,1.988,1.988,0,0,1,2.093-2.142" transform="translate(-94.651 108.094)"/>
    <path d="M144.406-39.111h1.06v.565h.023a1.446,1.446,0,0,1,1.241-.674c1.184,0,1.482.666,1.482,1.671v2.5H147.1v-2.292c0-.667-.2-1-.713-1-.605,0-.864.338-.864,1.163v2.127h-1.114v-4.058" transform="translate(-104.09 108.094)"/>
  </g>
</svg>
