<svg width="26" height="26" fill="none" xmlns="http://www.w3.org/2000/svg"><path d="M6.954 4.493c2.528 1.95 5.248 5.904 6.246 8.026v5.605c0-.12-.045.015-.141.306-.521 1.572-2.556 7.71-7.21 2.803-2.449-2.583-1.315-5.166 3.145-5.946-2.551.446-5.42-.291-6.207-3.181-.226-.832-.612-5.953-.612-6.644 0-3.465 2.956-2.376 4.78-.97zm12.491 0c-2.528 1.95-5.247 5.904-6.245 8.026v5.605c0-.12.045.015.141.306.521 1.572 2.556 7.71 7.209 2.803 2.45-2.583 1.316-5.166-3.144-5.946 2.551.446 5.42-.291 6.206-3.181.227-.832.613-5.953.613-6.644 0-3.465-2.956-2.376-4.78-.97z" fill="currentColor"/></svg>