<svg xmlns="http://www.w3.org/2000/svg" viewBox="0 0 392.975 89.086" fill="currentColor">
  <g transform="translate(0)">
    <path d="M12.655,0,0,12.418V76.667L12.655,89.085h25.5L50.814,76.669V58.489H32.961V71.537H17.853V17.547H32.961V30.6H50.814V12.418L38.155,0Z" transform="translate(0 0)"/>
    <path d="M115.036,0V35.841H99.927V0H82.075V89.085H99.927v-35.7h15.109v35.7h17.854V0Z" transform="translate(-22.099 0)"/>
    <path d="M189.739,29.211h1.926l4.86,28.149.2,1.128h-12.04ZM178.355,0,161.561,89.081h17.734l2.22-12.981H199.9l2.145,12.985h17.8L203.046,0Z" transform="translate(-47.241)"/>
    <path d="M268.126,17.548h15.111V35.839H268.126ZM250.271,0V89.085h17.855v-35.7l20.308-.006,12.659-12.412V12.418L288.434,0Z" transform="translate(-73.058)"/>
    <path d="M326.444,0V17.548H344.73V89.086h17.785V17.548H380.8V0Z" transform="translate(-95.369 0)"/>
    <path d="M410.571,0V89.085h44.24l0-17.547H428.423V53.386h26.385V35.841H428.423V17.548l26.388-.006V0Z" transform="translate(-121.498 0)"/>
    <path d="M501.067,17.548H516.18V35.839H501.067ZM483.214,0V89.085h17.853v-35.7H516.18l0,35.7h17.856l0-35.046-9.62-9.5,9.625-9.5V12.418L521.376,0Z" transform="translate(-141.058)"/>
  </g>
</svg>
