<svg xmlns="http://www.w3.org/2000/svg" width="31.566" height="18.512" viewBox="0 0 31.566 18.512" fill="currentColor">
  <g transform="translate(31.566) rotate(90)">
    <path d="M48.943-210.559a130,130,0,0,1-14.19-13.076c-1.778-1.965-4.476.879-2.865,2.865,2.754,3.392,13.172,12.579,13.172,12.579s-6.174,6.265-7.981,7.894c-1.674,1.51-5.707,3.579-5.412,6.194a1.428,1.428,0,0,0,2.111,1.211l.169-.075a20.659,20.659,0,0,0,3.023-2.494q.789-.606,1.564-1.231c1.188-.96,2.351-1.955,3.477-2.985a81.584,81.584,0,0,0,7.336-7.752,2.039,2.039,0,0,0-.4-3.131h0" transform="translate(-31.395 224.297)"/>
  </g>
</svg>
