<svg xmlns="http://www.w3.org/2000/svg" xml:space="preserve" style="fill-rule:evenodd;clip-rule:evenodd;stroke-linejoin:round;stroke-miterlimit:2" viewBox="0 0 780 200"><path d="M.537-.08a.1.1 0 0 1-.007.037.06.06 0 0 1-.023.026A.1.1 0 0 1 .462 0a1 1 0 0 1-.074.005H.314q-.126 0-.19-.067Q.06-.13.06-.262v-.127a2 2 0 0 1 .013-.193q.008-.061.035-.082a.1.1 0 0 1 .07-.021h.358v.046q0 .072-.093.072H.208l-.004.04-.003.043-.002.041v.036h.263v.049q0 .034-.02.048a.1.1 0 0 1-.063.015h-.18v.04q0 .045.007.073a.1.1 0 0 0 .025.043q.018.015.045.021a.4.4 0 0 0 .068.005h.044l.075-.003.075-.012z" style="fill:currentColor;fill-rule:nonzero" transform="translate(292.166 158.453)scale(48.01103)"/><path d="M.486-.642a.1.1 0 0 1-.005.025.1.1 0 0 1-.013.023.1.1 0 0 1-.025.017.1.1 0 0 1-.035.006H.197v.17h.247v.041q0 .033-.022.05a.07.07 0 0 1-.044.018H.202V0H.145a.08.08 0 0 1-.059-.02Q.065-.04.065-.08v-.499q0-.032.007-.052a.1.1 0 0 1 .02-.033.1.1 0 0 1 .035-.016.2.2 0 0 1 .052-.005h.307z" style="fill:currentColor;fill-rule:nonzero" transform="translate(319.031 158.453)scale(48.01103)"/><path d="M.867-.347.84-.266a2 2 0 0 1-.075.175Q.742-.045.713.006H.68L.667.005Q.659.004.65 0L.632-.013.614-.037a1.173 1.173 0 0 1-.075-.168Q.521-.255.505-.308a1 1 0 0 1-.028-.109 2 2 0 0 1-.065.223 1 1 0 0 1-.095.2H.285L.271.005Q.263.004.254 0a.096.096 0 0 1-.038-.037 1.936 1.936 0 0 1-.207-.648h.079q.018 0 .032.007a.1.1 0 0 1 .024.019.1.1 0 0 1 .017.025.1.1 0 0 1 .009.027q.014.088.039.185.026.096.074.212.024-.055.044-.119a2 2 0 0 0 .068-.239q.012-.054.019-.091h.045q.017 0 .034.004a.1.1 0 0 1 .031.015q.015.01.026.027a.1.1 0 0 1 .016.045 1.6 1.6 0 0 0 .113.358 2 2 0 0 0 .128-.474h.071q.024 0 .042.017.018.016.018.047a.3.3 0 0 1-.008.048l-.019.075a3 3 0 0 1-.044.15" style="fill:currentColor;fill-rule:nonzero" transform="translate(345.232 158.453)scale(48.01103)"/><path d="M.414-.284.392-.358a1 1 0 0 0-.056-.145L.308-.559a1 1 0 0 0-.059.129 1 1 0 0 0-.047.146zM.556 0Q.512 0 .49-.021a.08.08 0 0 1-.027-.045 1 1 0 0 0-.019-.109H.171l-.019.088L.136 0H.083Q.049 0 .034-.017T.02-.066q0-.026.01-.072.009-.047.027-.107.016-.059.04-.124a2 2 0 0 1 .102-.236.4.4 0 0 1 .053-.08h.057q.042 0 .069.019a.13.13 0 0 1 .041.044 2.335 2.335 0 0 1 .16.449Q.602-.081.611 0z" style="fill:currentColor;fill-rule:nonzero" transform="translate(389.769 158.453)scale(48.01103)"/><path d="M.414-.284.392-.358a1 1 0 0 0-.056-.145L.308-.559a1 1 0 0 0-.059.129 1 1 0 0 0-.047.146zM.556 0Q.512 0 .49-.021a.08.08 0 0 1-.027-.045 1 1 0 0 0-.019-.109H.171l-.019.088L.136 0H.083Q.049 0 .034-.017T.02-.066q0-.026.01-.072.009-.047.027-.107.016-.059.04-.124a2 2 0 0 1 .102-.236.4.4 0 0 1 .053-.08h.057q.042 0 .069.019a.13.13 0 0 1 .041.044 2.335 2.335 0 0 1 .16.449Q.602-.081.611 0z" style="fill:currentColor;fill-rule:nonzero" transform="translate(432.468 158.453)scale(48.01103)"/><path d="M.581-.502a.14.14 0 0 0-.039-.035.3.3 0 0 0-.149-.039.22.22 0 0 0-.153.061.2.2 0 0 0-.044.07.305.305 0 0 0 0 .195.2.2 0 0 0 .044.076q.03.031.07.046a.25.25 0 0 0 .139.01.3.3 0 0 0 .095-.034.1.1 0 0 0 .035-.027h.005v.051a.1.1 0 0 1-.019.061.14.14 0 0 1-.048.042.2.2 0 0 1-.065.024.342.342 0 0 1-.309-.086.33.33 0 0 1-.101-.248q0-.08.025-.145A.314.314 0 0 1 .25-.668a.36.36 0 0 1 .219-.019.2.2 0 0 1 .062.026.14.14 0 0 1 .041.045.13.13 0 0 1 .014.061v.053z" style="fill:currentColor;fill-rule:nonzero" transform="translate(462.311 158.453)scale(48.01103)"/><path d="M.581-.502a.14.14 0 0 0-.039-.035.3.3 0 0 0-.149-.039.22.22 0 0 0-.153.061.2.2 0 0 0-.044.07.305.305 0 0 0 0 .195.2.2 0 0 0 .044.076q.03.031.07.046a.25.25 0 0 0 .139.01.3.3 0 0 0 .095-.034.1.1 0 0 0 .035-.027h.005v.051a.1.1 0 0 1-.019.061.14.14 0 0 1-.048.042.2.2 0 0 1-.065.024.342.342 0 0 1-.309-.086.33.33 0 0 1-.101-.248q0-.08.025-.145A.314.314 0 0 1 .25-.668a.36.36 0 0 1 .219-.019.2.2 0 0 1 .062.026.14.14 0 0 1 .041.045.13.13 0 0 1 .014.061v.053z" style="fill:currentColor;fill-rule:nonzero" transform="translate(491.005 158.453)scale(48.01103)"/><path d="M.263-.573H.25l-.017.002-.017.003-.014.002v.181l.047.006H.3a.12.12 0 0 0 .072-.023q.031-.024.031-.07a.2.2 0 0 0-.007-.05.07.07 0 0 0-.054-.047.2.2 0 0 0-.041-.004zm.32.556A.05.05 0 0 1 .558 0a.1.1 0 0 1-.041.005.1.1 0 0 1-.059-.014.1.1 0 0 1-.041-.047L.366-.18a.3.3 0 0 0-.023-.044.1.1 0 0 0-.023-.025.122.122 0 0 0-.05-.017.4.4 0 0 0-.068-.009V0H.158q-.046 0-.07-.025a.1.1 0 0 1-.023-.067v-.574q.01-.004.033-.009l.047-.008a1 1 0 0 1 .096-.008h.076q.051 0 .093.014a.2.2 0 0 1 .116.104q.016.036.016.079a.2.2 0 0 1-.011.066.2.2 0 0 1-.03.055.2.2 0 0 1-.044.041.14.14 0 0 1-.056.02.1.1 0 0 1 .05.039.2.2 0 0 1 .035.057l.055.128q.013.03.025.046z" style="fill:currentColor;fill-rule:nonzero" transform="translate(519.7 158.453)scale(48.01103)"/><path d="M.537-.08a.1.1 0 0 1-.007.037.06.06 0 0 1-.023.026A.1.1 0 0 1 .462 0a1 1 0 0 1-.074.005H.314q-.126 0-.19-.067Q.06-.13.06-.262v-.127a2 2 0 0 1 .013-.193q.008-.061.035-.082a.1.1 0 0 1 .07-.021h.358v.046q0 .072-.093.072H.208l-.004.04-.003.043-.002.041v.036h.263v.049q0 .034-.02.048a.1.1 0 0 1-.063.015h-.18v.04q0 .045.007.073a.1.1 0 0 0 .025.043q.018.015.045.021a.4.4 0 0 0 .068.005h.044l.075-.003.075-.012z" style="fill:currentColor;fill-rule:nonzero" transform="translate(548.628 158.453)scale(48.01103)"/><path d="M.487-.334a.3.3 0 0 0-.015-.102A.2.2 0 0 0 .43-.51a.195.195 0 0 0-.146-.062h-.03l-.015.001-.017.003-.02.003v.393q0 .03.016.044.015.014.053.014h.023a.2.2 0 0 0 .078-.017.2.2 0 0 0 .061-.046.249.249 0 0 0 .054-.157m.14-.019q0 .078-.024.144a.317.317 0 0 1-.166.188.3.3 0 0 1-.125.027H.255A.24.24 0 0 1 .116-.03Q.065-.066.065-.146v-.515L.098-.67.19-.685l.044-.002h.071q.059 0 .116.02a.3.3 0 0 1 .178.165.4.4 0 0 1 .028.149" style="fill:currentColor;fill-rule:nonzero" transform="translate(575.494 158.453)scale(48.01103)"/><path d="M.151 0a.1.1 0 0 1-.03-.006.1.1 0 0 1-.027-.017.1.1 0 0 1-.019-.028.1.1 0 0 1-.007-.04v-.594H.13a.1.1 0 0 1 .026.005q.013.005.023.015a.1.1 0 0 1 .018.024.1.1 0 0 1 .006.029V0z" style="fill:currentColor;fill-rule:nonzero" transform="translate(607.4 158.453)scale(48.01103)"/><path d="M.548-.642a.1.1 0 0 1-.006.026.1.1 0 0 1-.018.025.1.1 0 0 1-.026.018.1.1 0 0 1-.032.008H.34V0H.285a.08.08 0 0 1-.059-.023Q.202-.045.202-.092v-.473H.005V-.61a.07.07 0 0 1 .021-.05.09.09 0 0 1 .062-.025h.46z" style="fill:currentColor;fill-rule:nonzero" transform="translate(620.457 158.453)scale(48.01103)"/><path d="M.414-.284.392-.358a1 1 0 0 0-.056-.145L.308-.559a1 1 0 0 0-.059.129 1 1 0 0 0-.047.146zM.556 0Q.512 0 .49-.021a.08.08 0 0 1-.027-.045 1 1 0 0 0-.019-.109H.171l-.019.088L.136 0H.083Q.049 0 .034-.017T.02-.066q0-.026.01-.072.009-.047.027-.107.016-.059.04-.124a2 2 0 0 1 .102-.236.4.4 0 0 1 .053-.08h.057q.042 0 .069.019a.13.13 0 0 1 .041.044 2.335 2.335 0 0 1 .16.449Q.602-.081.611 0z" style="fill:currentColor;fill-rule:nonzero" transform="translate(645.888 158.453)scale(48.01103)"/><path d="M.548-.642a.1.1 0 0 1-.006.026.1.1 0 0 1-.018.025.1.1 0 0 1-.026.018.1.1 0 0 1-.032.008H.34V0H.285a.08.08 0 0 1-.059-.023Q.202-.045.202-.092v-.473H.005V-.61a.07.07 0 0 1 .021-.05.09.09 0 0 1 .062-.025h.46z" style="fill:currentColor;fill-rule:nonzero" transform="translate(674.53 158.453)scale(48.01103)"/><path d="M.151 0a.1.1 0 0 1-.03-.006.1.1 0 0 1-.027-.017.1.1 0 0 1-.019-.028.1.1 0 0 1-.007-.04v-.594H.13a.1.1 0 0 1 .026.005q.013.005.023.015a.1.1 0 0 1 .018.024.1.1 0 0 1 .006.029V0z" style="fill:currentColor;fill-rule:nonzero" transform="translate(701.161 158.453)scale(48.01103)"/><path d="M.542-.334q0-.121-.049-.182a.16.16 0 0 0-.136-.06.155.155 0 0 0-.125.059.2.2 0 0 0-.036.071.3.3 0 0 0-.013.093q0 .246.185.246a.16.16 0 0 0 .127-.057q.047-.056.047-.17m.141-.019q0 .078-.022.145a.3.3 0 0 1-.064.115.3.3 0 0 1-.103.077.33.33 0 0 1-.361-.067.35.35 0 0 1-.091-.249q0-.08.022-.147a.3.3 0 0 1 .064-.115.3.3 0 0 1 .103-.076.34.34 0 0 1 .258-.004.311.311 0 0 1 .168.176.4.4 0 0 1 .026.145" style="fill:currentColor;fill-rule:nonzero" transform="translate(714.22 158.453)scale(48.01103)"/><path d="M.569 0a.2.2 0 0 1-.041-.005.1.1 0 0 1-.045-.023.3.3 0 0 1-.051-.055 1 1 0 0 1-.059-.098L.248-.424a1 1 0 0 0-.046-.08V0H.148a.1.1 0 0 1-.03-.006.1.1 0 0 1-.026-.017.1.1 0 0 1-.019-.028.1.1 0 0 1-.008-.039v-.595h.068a.18.18 0 0 1 .114.036q.045.035.08.104l.12.24q.011.021.022.048l.018.044v-.472h.061q.014 0 .026.006a.1.1 0 0 1 .024.017.1.1 0 0 1 .018.026.1.1 0 0 1 .007.03V0z" style="fill:currentColor;fill-rule:nonzero" transform="translate(749.008 158.453)scale(48.01103)"/><path d="M.507-.316q-.03.075-.069.157a1.3 1.3 0 0 1-.089.164H.337a.1.1 0 0 1-.056-.013.1.1 0 0 1-.043-.042 1.89 1.89 0 0 1-.229-.635h.079a.08.08 0 0 1 .06.022.1.1 0 0 1 .027.053q.008.047.02.095a1 1 0 0 0 .065.208q.024.057.053.121a2 2 0 0 0 .153-.499h.076a.06.06 0 0 1 .042.015q.017.015.017.044a.3.3 0 0 1-.008.049l-.022.079-.03.093z" style="fill:currentColor;fill-rule:nonzero" transform="translate(292.166 198.041)scale(37.58816)"/><path d="M.356-.235H.309a.4.4 0 0 0-.064.005.1.1 0 0 0-.04.012.04.04 0 0 0-.021.022.1.1 0 0 0-.006.029.06.06 0 0 0 .024.05.12.12 0 0 0 .069.017q.085 0 .085-.083zm.131.051a.185.185 0 0 1-.057.14.2.2 0 0 1-.064.039.2.2 0 0 1-.082.014H.256a.3.3 0 0 1-.088-.013A.2.2 0 0 1 .1-.04a.15.15 0 0 1-.059-.122q0-.036.013-.067A.14.14 0 0 1 .1-.282a.2.2 0 0 1 .083-.036.5.5 0 0 1 .126-.013h.046v-.007q0-.057-.028-.078T.24-.437a.3.3 0 0 0-.065.006.2.2 0 0 0-.107.056H.063v-.043q0-.023.011-.045a.1.1 0 0 1 .034-.043.2.2 0 0 1 .061-.032.3.3 0 0 1 .09-.012.3.3 0 0 1 .087.012.2.2 0 0 1 .072.039.2.2 0 0 1 .051.074.3.3 0 0 1 .018.117z" style="fill:currentColor;fill-rule:nonzero" transform="translate(315.383 198.041)scale(37.58816)"/><path d="M.331-.076q0 .044-.022.062-.023.02-.068.019-.084 0-.127-.043Q.07-.081.07-.163V-.72h.038q.051 0 .074.026a.1.1 0 0 1 .022.064v.454q0 .041.022.056t.069.015h.036z" style="fill:currentColor;fill-rule:nonzero" transform="translate(335.26 198.041)scale(37.58816)"/><path d="M.323-.076q0 .044-.018.062-.019.02-.062.019-.078 0-.119-.043Q.082-.081.082-.163v-.365H.12q.045 0 .07.025.026.024.026.075v.252q0 .041.018.056.02.015.064.015h.025zM.227-.657q0 .032-.023.055a.08.08 0 0 1-.056.024.07.07 0 0 1-.055-.024.08.08 0 0 1-.023-.055q0-.032.023-.055a.08.08 0 0 1 .055-.023.08.08 0 0 1 .056.023.08.08 0 0 1 .023.055" style="fill:currentColor;fill-rule:nonzero" transform="translate(347.502 198.041)scale(37.58816)"/><path d="M.415-.255a.3.3 0 0 0-.011-.086.2.2 0 0 0-.028-.056.118.118 0 0 0-.092-.042.103.103 0 0 0-.082.043.2.2 0 0 0-.023.049.258.258 0 0 0 .003.137.2.2 0 0 0 .028.059.14.14 0 0 0 .043.037.1.1 0 0 0 .054.013q.056 0 .082-.04a.2.2 0 0 0 .026-.114m.134.006a.4.4 0 0 1-.014.107.203.203 0 0 1-.126.136.4.4 0 0 1-.118.018.24.24 0 0 1-.179-.08A.284.284 0 0 1 .04-.26q0-.066.015-.12a.3.3 0 0 1 .047-.093.2.2 0 0 1 .076-.058.25.25 0 0 1 .105-.021q.02 0 .04.007a.2.2 0 0 1 .039.017.2.2 0 0 1 .032.028q.015.015.023.033V-.72h.041q.047 0 .069.025a.1.1 0 0 1 .022.066z" style="fill:currentColor;fill-rule:nonzero" transform="translate(360 198.041)scale(37.58816)"/><path d="M.612-.309a.36.36 0 0 1-.071.236Q.471.012.323.012a.3.3 0 0 1-.112-.02.2.2 0 0 1-.086-.06.3.3 0 0 1-.056-.098.4.4 0 0 1-.019-.131v-.388h.053q.016 0 .032.007.015.006.027.021a.1.1 0 0 1 .019.038.2.2 0 0 1 .007.06v.253q0 .097.034.143.035.047.115.047.074 0 .105-.047a.25.25 0 0 0 .032-.138v-.384h.052q.04 0 .062.029.024.03.024.093z" style="fill:currentColor;fill-rule:nonzero" transform="translate(392.046 198.041)scale(37.58816)"/><path d="M.504 0a.1.1 0 0 1-.072-.025.08.08 0 0 1-.026-.063v-.214q0-.069-.029-.1Q.35-.433.297-.433a.09.09 0 0 0-.071.031.13.13 0 0 0-.027.09V0h-.04a.1.1 0 0 1-.068-.025.08.08 0 0 1-.026-.063v-.233a.24.24 0 0 1 .059-.158.2.2 0 0 1 .075-.053.28.28 0 0 1 .199-.004q.042.015.073.046.032.03.05.074.02.045.019.102V0z" style="fill:currentColor;fill-rule:nonzero" transform="translate(416.952 198.041)scale(37.58816)"/><path d="m.07-.518.002-.034a.1.1 0 0 1 .019-.049l.018-.024a.1.1 0 0 1 .03-.027.06.06 0 0 1 .033-.01h.031v.122H.39v.055q0 .02-.019.043-.02.021-.061.021H.203v.211q0 .053.022.075t.063.022a.2.2 0 0 0 .097-.019H.39v.048q0 .042-.029.066T.272.006q-.104 0-.153-.053A.2.2 0 0 1 .07-.194z" style="fill:currentColor;fill-rule:nonzero" transform="translate(439.692 198.041)scale(37.58816)"/><path d="M.323-.076q0 .044-.018.062-.019.02-.062.019-.078 0-.119-.043Q.082-.081.082-.163v-.365H.12q.045 0 .07.025.026.024.026.075v.252q0 .041.018.056.02.015.064.015h.025zM.227-.657q0 .032-.023.055a.08.08 0 0 1-.056.024.07.07 0 0 1-.055-.024.08.08 0 0 1-.023-.055q0-.032.023-.055a.08.08 0 0 1 .055-.023.08.08 0 0 1 .056.023.08.08 0 0 1 .023.055" style="fill:currentColor;fill-rule:nonzero" transform="translate(454.907 198.041)scale(37.58816)"/><path d="M.331-.076q0 .044-.022.062-.023.02-.068.019-.084 0-.127-.043Q.07-.081.07-.163V-.72h.038q.051 0 .074.026a.1.1 0 0 1 .022.064v.454q0 .041.022.056t.069.015h.036z" style="fill:currentColor;fill-rule:nonzero" transform="translate(467.406 198.041)scale(37.58816)"/><path d="M.532-.067a.06.06 0 0 1-.025.049A.1.1 0 0 1 .439 0H.123a.07.07 0 0 1-.049-.02.06.06 0 0 1-.02-.048.13.13 0 0 1 .024-.076.7.7 0 0 1 .105-.107l.159-.133A.1.1 0 0 0 .38-.43a.1.1 0 0 0 .01-.046.1.1 0 0 0-.031-.074.13.13 0 0 0-.088-.027.3.3 0 0 0-.122.021.2.2 0 0 0-.081.068H.063v-.049q0-.03.012-.058a.12.12 0 0 1 .04-.051.2.2 0 0 1 .072-.037.4.4 0 0 1 .108-.014.25.25 0 0 1 .165.061q.03.027.048.064a.2.2 0 0 1 .016.078.195.195 0 0 1-.032.122.3.3 0 0 1-.044.051l-.067.056-.106.083a.5.5 0 0 0-.065.065h.322z" style="fill:currentColor;fill-rule:nonzero" transform="translate(488.586 198.041)scale(37.58816)"/><path d="M.17-.358q0 .071.009.118a.2.2 0 0 0 .026.078.1.1 0 0 0 .042.042.13.13 0 0 0 .058.012q.048 0 .08-.052a.3.3 0 0 0 .032-.166A1 1 0 0 0 .41-.445a.3.3 0 0 0-.023-.077.1.1 0 0 0-.039-.042.1.1 0 0 0-.055-.013.1.1 0 0 0-.047.012.1.1 0 0 0-.039.038.2.2 0 0 0-.027.069.5.5 0 0 0-.01.1m.383.001a.6.6 0 0 1-.02.165.4.4 0 0 1-.054.116.22.22 0 0 1-.186.088.24.24 0 0 1-.104-.022.24.24 0 0 1-.081-.065.3.3 0 0 1-.053-.107.5.5 0 0 1-.019-.148.6.6 0 0 1 .019-.162.3.3 0 0 1 .054-.114.2.2 0 0 1 .084-.068.27.27 0 0 1 .216.001.2.2 0 0 1 .079.069.3.3 0 0 1 .048.106.6.6 0 0 1 .017.141" style="fill:currentColor;fill-rule:nonzero" transform="translate(510.757 198.041)scale(37.58816)"/><path d="M.532-.067a.06.06 0 0 1-.025.049A.1.1 0 0 1 .439 0H.123a.07.07 0 0 1-.049-.02.06.06 0 0 1-.02-.048.13.13 0 0 1 .024-.076.7.7 0 0 1 .105-.107l.159-.133A.1.1 0 0 0 .38-.43a.1.1 0 0 0 .01-.046.1.1 0 0 0-.031-.074.13.13 0 0 0-.088-.027.3.3 0 0 0-.122.021.2.2 0 0 0-.081.068H.063v-.049q0-.03.012-.058a.12.12 0 0 1 .04-.051.2.2 0 0 1 .072-.037.4.4 0 0 1 .108-.014.25.25 0 0 1 .165.061q.03.027.048.064a.2.2 0 0 1 .016.078.195.195 0 0 1-.032.122.3.3 0 0 1-.044.051l-.067.056-.106.083a.5.5 0 0 0-.065.065h.322z" style="fill:currentColor;fill-rule:nonzero" transform="translate(532.928 198.041)scale(37.58816)"/><path d="M.453-.602a.2.2 0 0 1-.014.061l-.035.085-.093.203a.854.854 0 0 0-.038.14L.27-.07v.055H.215A.1.1 0 0 1 .191-.02a.1.1 0 0 1-.023-.015.1.1 0 0 1-.016-.028.1.1 0 0 1-.007-.04.3.3 0 0 1 .013-.082.5.5 0 0 1 .038-.097l.073-.144.029-.06a1 1 0 0 0 .027-.077H.027v-.03A.08.08 0 0 1 .046-.65q.019-.02.053-.02h.274a.1.1 0 0 1 .06.018q.02.019.02.05" style="fill:currentColor;fill-rule:nonzero" transform="translate(555.1 198.041)scale(37.58816)"/><path d="M.581-.502a.14.14 0 0 0-.039-.035.3.3 0 0 0-.149-.039.22.22 0 0 0-.153.061.2.2 0 0 0-.044.07.305.305 0 0 0 0 .195.2.2 0 0 0 .044.076q.03.031.07.046a.25.25 0 0 0 .139.01.3.3 0 0 0 .095-.034.1.1 0 0 0 .035-.027h.005v.051a.1.1 0 0 1-.019.061.14.14 0 0 1-.048.042.2.2 0 0 1-.065.024.342.342 0 0 1-.309-.086.33.33 0 0 1-.101-.248q0-.08.025-.145A.314.314 0 0 1 .25-.668a.36.36 0 0 1 .219-.019.2.2 0 0 1 .062.026.14.14 0 0 1 .041.045.13.13 0 0 1 .014.061v.053z" style="fill:currentColor;fill-rule:nonzero" transform="translate(291.993 42.563)scale(57.23868)"/><path d="M.356-.235H.309a.4.4 0 0 0-.064.005.1.1 0 0 0-.04.012.04.04 0 0 0-.021.022.1.1 0 0 0-.006.029.06.06 0 0 0 .024.05.12.12 0 0 0 .069.017q.085 0 .085-.083zm.131.051a.185.185 0 0 1-.057.14.2.2 0 0 1-.064.039.2.2 0 0 1-.082.014H.256a.3.3 0 0 1-.088-.013A.2.2 0 0 1 .1-.04a.15.15 0 0 1-.059-.122q0-.036.013-.067A.14.14 0 0 1 .1-.282a.2.2 0 0 1 .083-.036.5.5 0 0 1 .126-.013h.046v-.007q0-.057-.028-.078T.24-.437a.3.3 0 0 0-.065.006.2.2 0 0 0-.107.056H.063v-.043q0-.023.011-.045a.1.1 0 0 1 .034-.043.2.2 0 0 1 .061-.032.3.3 0 0 1 .09-.012.3.3 0 0 1 .087.012.2.2 0 0 1 .072.039.2.2 0 0 1 .051.074.3.3 0 0 1 .018.117z" style="fill:currentColor;fill-rule:nonzero" transform="translate(326.202 42.563)scale(57.23868)"/><path d="M.371-.409a.2.2 0 0 0-.078-.016q-.045 0-.069.027Q.2-.372.2-.31V0H.163a.1.1 0 0 1-.071-.022.08.08 0 0 1-.027-.064v-.248q0-.04.011-.079a.18.18 0 0 1 .097-.114.2.2 0 0 1 .143-.01.1.1 0 0 1 .035.021.1.1 0 0 1 .019.028.1.1 0 0 1 .006.031v.048z" style="fill:currentColor;fill-rule:nonzero" transform="translate(356.47 42.563)scale(57.23868)"/><path d="M.45-.258a.4.4 0 0 0-.008-.083.2.2 0 0 0-.025-.054.1.1 0 0 0-.041-.029.2.2 0 0 0-.055-.009.1.1 0 0 0-.048.012.1.1 0 0 0-.037.032.2.2 0 0 0-.025.048.2.2 0 0 0-.009.059q0 .093.037.134a.12.12 0 0 0 .142.03.1.1 0 0 0 .036-.032.14.14 0 0 0 .025-.048.2.2 0 0 0 .008-.06m.139-.023a.33.33 0 0 1-.073.208.25.25 0 0 1-.195.085.2.2 0 0 1-.098-.02.24.24 0 0 1-.081-.056.3.3 0 0 1-.075-.199V-.72h.046q.039 0 .064.022.024.024.024.071v.157L.225-.5a.162.162 0 0 1 .072-.044.2.2 0 0 1 .05-.008.23.23 0 0 1 .172.076.294.294 0 0 1 .07.195" style="fill:currentColor;fill-rule:nonzero" transform="translate(378.55 42.563)scale(57.23868)"/><path d="M.422-.26a.2.2 0 0 0-.031-.126Q.361-.432.294-.432q-.057 0-.086.043a.2.2 0 0 0-.029.11q0 .081.03.126.031.045.098.045.058 0 .087-.043A.2.2 0 0 0 .422-.26m-.382 0q0-.06.017-.114a.25.25 0 0 1 .25-.178.25.25 0 0 1 .188.083.298.298 0 0 1 .067.19.4.4 0 0 1-.018.114.3.3 0 0 1-.051.092.23.23 0 0 1-.084.063.3.3 0 0 1-.115.022.25.25 0 0 1-.108-.022.26.26 0 0 1-.129-.147A.3.3 0 0 1 .04-.26" style="fill:currentColor;fill-rule:nonzero" transform="translate(414.66 42.563)scale(57.23868)"/><path d="M.504 0a.1.1 0 0 1-.072-.025.08.08 0 0 1-.026-.063v-.214q0-.069-.029-.1Q.35-.433.297-.433a.09.09 0 0 0-.071.031.13.13 0 0 0-.027.09V0h-.04a.1.1 0 0 1-.068-.025.08.08 0 0 1-.026-.063v-.233a.24.24 0 0 1 .059-.158.2.2 0 0 1 .075-.053.28.28 0 0 1 .199-.004q.042.015.073.046.032.03.05.074.02.045.019.102V0z" style="fill:currentColor;fill-rule:nonzero" transform="translate(449.092 42.563)scale(57.23868)"/><path d="M.333-.301a.05.05 0 0 1-.018.041.07.07 0 0 1-.047.014h-.23v-.051q0-.024.016-.041Q.07-.354.1-.354h.233z" style="fill:currentColor;fill-rule:nonzero" transform="translate(483.72 42.563)scale(57.23868)"/><path d="M.581-.502a.14.14 0 0 0-.039-.035.3.3 0 0 0-.149-.039.22.22 0 0 0-.153.061.2.2 0 0 0-.044.07.305.305 0 0 0 0 .195.2.2 0 0 0 .044.076q.03.031.07.046a.25.25 0 0 0 .139.01.3.3 0 0 0 .095-.034.1.1 0 0 0 .035-.027h.005v.051a.1.1 0 0 1-.019.061.14.14 0 0 1-.048.042.2.2 0 0 1-.065.024.342.342 0 0 1-.309-.086.33.33 0 0 1-.101-.248q0-.08.025-.145A.314.314 0 0 1 .25-.668a.36.36 0 0 1 .219-.019.2.2 0 0 1 .062.026.14.14 0 0 1 .041.045.13.13 0 0 1 .014.061v.053z" style="fill:currentColor;fill-rule:nonzero" transform="translate(504.989 42.563)scale(57.23868)"/><path d="M.422-.26a.2.2 0 0 0-.031-.126Q.361-.432.294-.432q-.057 0-.086.043a.2.2 0 0 0-.029.11q0 .081.03.126.031.045.098.045.058 0 .087-.043A.2.2 0 0 0 .422-.26m-.382 0q0-.06.017-.114a.25.25 0 0 1 .25-.178.25.25 0 0 1 .188.083.298.298 0 0 1 .067.19.4.4 0 0 1-.018.114.3.3 0 0 1-.051.092.23.23 0 0 1-.084.063.3.3 0 0 1-.115.022.25.25 0 0 1-.108-.022.26.26 0 0 1-.129-.147A.3.3 0 0 1 .04-.26" style="fill:currentColor;fill-rule:nonzero" transform="translate(539.198 42.563)scale(57.23868)"/><path d="M.504 0a.1.1 0 0 1-.072-.025.08.08 0 0 1-.026-.063v-.214q0-.069-.029-.1Q.35-.433.297-.433a.09.09 0 0 0-.071.031.13.13 0 0 0-.027.09V0h-.04a.1.1 0 0 1-.068-.025.08.08 0 0 1-.026-.063v-.233a.24.24 0 0 1 .059-.158.2.2 0 0 1 .075-.053.28.28 0 0 1 .199-.004q.042.015.073.046.032.03.05.074.02.045.019.102V0z" style="fill:currentColor;fill-rule:nonzero" transform="translate(573.63 42.563)scale(57.23868)"/><path d="M.453-.17q0 .086-.058.134a.26.26 0 0 1-.167.048.3.3 0 0 1-.069-.009.2.2 0 0 1-.055-.024.1.1 0 0 1-.036-.033.07.07 0 0 1-.013-.04v-.061H.06a.1.1 0 0 0 .028.02.4.4 0 0 0 .086.027.3.3 0 0 0 .048.004q.097 0 .097-.059a.04.04 0 0 0-.004-.02.04.04 0 0 0-.016-.016.446.446 0 0 0-.091-.023.25.25 0 0 1-.128-.047.12.12 0 0 1-.041-.096q0-.037.016-.072a.2.2 0 0 1 .046-.06.2.2 0 0 1 .072-.04.3.3 0 0 1 .173-.004.2.2 0 0 1 .053.027.1.1 0 0 1 .031.037.1.1 0 0 1 .009.04v.051H.435a.2.2 0 0 0-.064-.036.3.3 0 0 0-.091-.014q-.061 0-.084.017a.05.05 0 0 0-.024.043q0 .01.005.017.003.008.015.014a.1.1 0 0 0 .033.011l.055.011q.086.014.129.051a.13.13 0 0 1 .044.102" style="fill:currentColor;fill-rule:nonzero" transform="translate(608.259 42.563)scale(57.23868)"/><path d="M.473-.366a.1.1 0 0 0-.052-.04.3.3 0 0 0-.094-.016.147.147 0 0 0-.147.143.18.18 0 0 0 .039.12.14.14 0 0 0 .11.045.24.24 0 0 0 .093-.015.13.13 0 0 0 .049-.035h.005v.062a.1.1 0 0 1-.044.08.2.2 0 0 1-.117.032.3.3 0 0 1-.106-.02.28.28 0 0 1-.147-.142.3.3 0 0 1-.022-.107.3.3 0 0 1 .019-.11.26.26 0 0 1 .149-.153.3.3 0 0 1 .123-.023.2.2 0 0 1 .058.009.136.136 0 0 1 .078.062.1.1 0 0 1 .011.045v.063z" style="fill:currentColor;fill-rule:nonzero" transform="translate(636.403 42.563)scale(57.23868)"/><path d="M.323-.076q0 .044-.018.062-.019.02-.062.019-.078 0-.119-.043Q.082-.081.082-.163v-.365H.12q.045 0 .07.025.026.024.026.075v.252q0 .041.018.056.02.015.064.015h.025zM.227-.657q0 .032-.023.055a.08.08 0 0 1-.056.024.07.07 0 0 1-.055-.024.08.08 0 0 1-.023-.055q0-.032.023-.055a.08.08 0 0 1 .055-.023.08.08 0 0 1 .056.023.08.08 0 0 1 .023.055" style="fill:currentColor;fill-rule:nonzero" transform="translate(665.582 42.563)scale(57.23868)"/><path d="M.422-.26a.2.2 0 0 0-.031-.126Q.361-.432.294-.432q-.057 0-.086.043a.2.2 0 0 0-.029.11q0 .081.03.126.031.045.098.045.058 0 .087-.043A.2.2 0 0 0 .422-.26m-.382 0q0-.06.017-.114a.25.25 0 0 1 .25-.178.25.25 0 0 1 .188.083.298.298 0 0 1 .067.19.4.4 0 0 1-.018.114.3.3 0 0 1-.051.092.23.23 0 0 1-.084.063.3.3 0 0 1-.115.022.25.25 0 0 1-.108-.022.26.26 0 0 1-.129-.147A.3.3 0 0 1 .04-.26" style="fill:currentColor;fill-rule:nonzero" transform="translate(684.614 42.563)scale(57.23868)"/><path d="M.539-.242q0 .254-.236.254a.3.3 0 0 1-.094-.016.22.22 0 0 1-.126-.124.3.3 0 0 1-.018-.105V-.54H.09q.058 0 .085.024.026.024.026.072v.198q0 .074.032.107a.1.1 0 0 0 .077.032q.042 0 .068-.03.026-.031.026-.1V-.54h.024q.059 0 .085.024t.026.072z" style="fill:currentColor;fill-rule:nonzero" transform="translate(719.047 42.563)scale(57.23868)"/><path d="M.453-.17q0 .086-.058.134a.26.26 0 0 1-.167.048.3.3 0 0 1-.069-.009.2.2 0 0 1-.055-.024.1.1 0 0 1-.036-.033.07.07 0 0 1-.013-.04v-.061H.06a.1.1 0 0 0 .028.02.4.4 0 0 0 .086.027.3.3 0 0 0 .048.004q.097 0 .097-.059a.04.04 0 0 0-.004-.02.04.04 0 0 0-.016-.016.446.446 0 0 0-.091-.023.25.25 0 0 1-.128-.047.12.12 0 0 1-.041-.096q0-.037.016-.072a.2.2 0 0 1 .046-.06.2.2 0 0 1 .072-.04.3.3 0 0 1 .173-.004.2.2 0 0 1 .053.027.1.1 0 0 1 .031.037.1.1 0 0 1 .009.04v.051H.435a.2.2 0 0 0-.064-.036.3.3 0 0 0-.091-.014q-.061 0-.084.017a.05.05 0 0 0-.024.043q0 .01.005.017.003.008.015.014a.1.1 0 0 0 .033.011l.055.011q.086.014.129.051a.13.13 0 0 1 .044.102" style="fill:currentColor;fill-rule:nonzero" transform="translate(753.592 42.563)scale(57.23868)"/><path d="M.867-.347.84-.266a2 2 0 0 1-.075.175Q.742-.045.713.006H.68L.667.005Q.659.004.65 0L.632-.013.614-.037a1.173 1.173 0 0 1-.075-.168Q.521-.255.505-.308a1 1 0 0 1-.028-.109 2 2 0 0 1-.065.223 1 1 0 0 1-.095.2H.285L.271.005Q.263.004.254 0a.096.096 0 0 1-.038-.037 1.936 1.936 0 0 1-.207-.648h.079q.018 0 .032.007a.1.1 0 0 1 .024.019.1.1 0 0 1 .017.025.1.1 0 0 1 .009.027q.014.088.039.185.026.096.074.212.024-.055.044-.119a2 2 0 0 0 .068-.239q.012-.054.019-.091h.045q.017 0 .034.004a.1.1 0 0 1 .031.015q.015.01.026.027a.1.1 0 0 1 .016.045 1.6 1.6 0 0 0 .113.358 2 2 0 0 0 .128-.474h.071q.024 0 .042.017.018.016.018.047a.3.3 0 0 1-.008.048l-.019.075a3 3 0 0 1-.044.15" style="fill:currentColor;fill-rule:nonzero" transform="translate(291.993 95.688)scale(57.23868)"/><path d="M.394-.359Q.394-.4.366-.42a.13.13 0 0 0-.074-.02.126.126 0 0 0-.081.034.13.13 0 0 0-.032.081l-.001.018h.059L.316-.31a.2.2 0 0 0 .047-.009.05.05 0 0 0 .024-.016.1.1 0 0 0 .007-.024m.126.016q0 .073-.061.103a.5.5 0 0 1-.192.028H.179a.12.12 0 0 0 .049.081.17.17 0 0 0 .102.03.4.4 0 0 0 .087-.011.2.2 0 0 0 .078-.04H.5v.042a.1.1 0 0 1-.01.048.1.1 0 0 1-.032.039.2.2 0 0 1-.061.026.4.4 0 0 1-.092.009.3.3 0 0 1-.098-.019.3.3 0 0 1-.085-.055.26.26 0 0 1-.082-.197q0-.067.019-.122a.26.26 0 0 1 .138-.15.27.27 0 0 1 .188-.006.21.21 0 0 1 .135.194" style="fill:currentColor;fill-rule:nonzero" transform="translate(346.52 95.688)scale(57.23868)"/><path d="M.45-.258a.4.4 0 0 0-.008-.083.2.2 0 0 0-.025-.054.1.1 0 0 0-.041-.029.2.2 0 0 0-.055-.009.1.1 0 0 0-.048.012.1.1 0 0 0-.037.032.2.2 0 0 0-.025.048.2.2 0 0 0-.009.059q0 .093.037.134a.12.12 0 0 0 .142.03.1.1 0 0 0 .036-.032.14.14 0 0 0 .025-.048.2.2 0 0 0 .008-.06m.139-.023a.33.33 0 0 1-.073.208.25.25 0 0 1-.195.085.2.2 0 0 1-.098-.02.24.24 0 0 1-.081-.056.3.3 0 0 1-.075-.199V-.72h.046q.039 0 .064.022.024.024.024.071v.157L.225-.5a.162.162 0 0 1 .072-.044.2.2 0 0 1 .05-.008.23.23 0 0 1 .172.076.294.294 0 0 1 .07.195" style="fill:currentColor;fill-rule:nonzero" transform="translate(378.438 95.688)scale(57.23868)"/><path d="M.453-.17q0 .086-.058.134a.26.26 0 0 1-.167.048.3.3 0 0 1-.069-.009.2.2 0 0 1-.055-.024.1.1 0 0 1-.036-.033.07.07 0 0 1-.013-.04v-.061H.06a.1.1 0 0 0 .028.02.4.4 0 0 0 .086.027.3.3 0 0 0 .048.004q.097 0 .097-.059a.04.04 0 0 0-.004-.02.04.04 0 0 0-.016-.016.446.446 0 0 0-.091-.023.25.25 0 0 1-.128-.047.12.12 0 0 1-.041-.096q0-.037.016-.072a.2.2 0 0 1 .046-.06.2.2 0 0 1 .072-.04.3.3 0 0 1 .173-.004.2.2 0 0 1 .053.027.1.1 0 0 1 .031.037.1.1 0 0 1 .009.04v.051H.435a.2.2 0 0 0-.064-.036.3.3 0 0 0-.091-.014q-.061 0-.084.017a.05.05 0 0 0-.024.043q0 .01.005.017.003.008.015.014a.1.1 0 0 0 .033.011l.055.011q.086.014.129.051a.13.13 0 0 1 .044.102" style="fill:currentColor;fill-rule:nonzero" transform="translate(414.547 95.688)scale(57.23868)"/><path d="M.323-.076q0 .044-.018.062-.019.02-.062.019-.078 0-.119-.043Q.082-.081.082-.163v-.365H.12q.045 0 .07.025.026.024.026.075v.252q0 .041.018.056.02.015.064.015h.025zM.227-.657q0 .032-.023.055a.08.08 0 0 1-.056.024.07.07 0 0 1-.055-.024.08.08 0 0 1-.023-.055q0-.032.023-.055a.08.08 0 0 1 .055-.023.08.08 0 0 1 .056.023.08.08 0 0 1 .023.055" style="fill:currentColor;fill-rule:nonzero" transform="translate(442.692 95.688)scale(57.23868)"/><path d="m.07-.518.002-.034a.1.1 0 0 1 .019-.049l.018-.024a.1.1 0 0 1 .03-.027.06.06 0 0 1 .033-.01h.031v.122H.39v.055q0 .02-.019.043-.02.021-.061.021H.203v.211q0 .053.022.075t.063.022a.2.2 0 0 0 .097-.019H.39v.048q0 .042-.029.066T.272.006q-.104 0-.153-.053A.2.2 0 0 1 .07-.194z" style="fill:currentColor;fill-rule:nonzero" transform="translate(461.725 95.688)scale(57.23868)"/><path d="M.394-.359Q.394-.4.366-.42a.13.13 0 0 0-.074-.02.126.126 0 0 0-.081.034.13.13 0 0 0-.032.081l-.001.018h.059L.316-.31a.2.2 0 0 0 .047-.009.05.05 0 0 0 .024-.016.1.1 0 0 0 .007-.024m.126.016q0 .073-.061.103a.5.5 0 0 1-.192.028H.179a.12.12 0 0 0 .049.081.17.17 0 0 0 .102.03.4.4 0 0 0 .087-.011.2.2 0 0 0 .078-.04H.5v.042a.1.1 0 0 1-.01.048.1.1 0 0 1-.032.039.2.2 0 0 1-.061.026.4.4 0 0 1-.092.009.3.3 0 0 1-.098-.019.3.3 0 0 1-.085-.055.26.26 0 0 1-.082-.197q0-.067.019-.122a.26.26 0 0 1 .138-.15.27.27 0 0 1 .188-.006.21.21 0 0 1 .135.194" style="fill:currentColor;fill-rule:nonzero" transform="translate(484.894 95.688)scale(57.23868)"/><path d="m0 10.295 3.345-2.43 3.345 2.43-1.278-3.932 3.346-2.431H4.623L3.345 0 2.067 3.932h-4.135l3.346 2.431z" style="fill:currentColor" transform="translate(537.353 52.5)scale(4.37105)"/><path d="M492.634 0H493v398.608h-.366z" style="fill:currentColor" transform="matrix(6.83522 0 0 .50175 -3121.855 0)"/><path d="M446.07 520.344c.615-6.7.93-13.485.93-20.344 0-43.751-12.799-84.537-34.854-118.814 22.342-30.184 52.972-53.87 88.516-67.682C523.1 304.784 547.496 300 573 300h.104c.044.075-75.768 131.493-127.034 220.344" style="fill:currentColor" transform="matrix(.5 0 0 .50047 -100 -100.285)"/><path d="M573.104 300h.104C590.245 329.425 600 363.582 600 400c0 79.12-46.043 147.571-112.773 179.999a198.6 198.6 0 0 1-63.544 18.611 218.487 218.487 0 0 0 22.387-78.266C497.336 431.493 573.148 300.075 573.104 300" style="fill:currentColor;fill-opacity:.7" transform="matrix(.5 0 0 .50047 -100 -100.285)"/><path d="M400 364.143c-24.104-30.641-56.168-54.733-93.062-69.146 19.358-41.123 52.316-74.6 93.062-94.618-.426.209-.547 163.069 0 163.764" style="fill:currentColor" transform="matrix(.5 0 0 .50047 -100 -100.285)"/><path d="M400 364.143c-.547-.695-.426-163.555 0-163.764 40.746 20.018 73.704 53.495 93.062 94.618-36.894 14.413-68.958 38.505-93.062 69.146" style="fill:currentColor;fill-opacity:.7" transform="matrix(.5 0 0 .50047 -100 -100.285)"/><path d="M399.792 600a202 202 0 0 1-23.475-1.39 198.6 198.6 0 0 1-63.544-18.611C246.043 547.571 200 479.12 200 400c0-36.418 9.755-70.575 26.792-100-.066.113 172.997 300 173 300" style="fill:currentColor" transform="matrix(.5 0 0 .50047 -100 -100.285)"/><path d="M399.792 600c-.003 0-173.066-299.887-173-300H227c25.504 0 49.9 4.784 72.338 13.504 35.544 13.812 66.174 37.498 88.516 67.682A201 201 0 0 1 400 399.641c17.166 29.506 27 63.793 27 100.359 0 16.351-1.966 32.247-5.676 47.463a199 199 0 0 1-5.662 19.033A199 199 0 0 1 400.208 600h-.416" style="fill:currentColor;fill-opacity:.7" transform="matrix(.5 0 0 .50047 -100 -100.285)"/></svg>