<svg version="1.1" id="Layer_1" xmlns="http://www.w3.org/2000/svg" x="0" y="0" viewBox="0 0 200 60" width="200" height="60"><path fill="currentColor" class="st1" d="M91.2 21.3h-.9c-.3 2.1-.9 4.3-1.6 6.1-.7-1.6-1.2-3.1-1.4-4.6-.2-.9-.8-1.2-1.4-1.2h-.6c-.2 1.3-.9 3.9-1.7 5.7-.8-2-1.2-3.6-1.4-5.1-.1-.5-.4-1-1-1h-1c.4 2.8 1.4 6 2.6 8.3.3.5.7.6.9.6h.4c.9-1.5 1.6-3.5 2-5.4.4 1.9 1.1 3.7 1.8 4.9.3.5.7.6.8.6h.4c1-1.7 1.5-3.1 2-4.5.3-.9.9-3 .9-3.5 0-.6-.4-.9-.8-.9zM96 30.2c1.9 0 2.5-.7 2.5-1.6v-.5h-.1c-.5.5-1.4.7-2.1.7-1 0-1.8-.5-1.9-1.4h1.1c2.3 0 3.2-.4 3.2-1.7 0-1.6-1.3-2.7-2.8-2.7-2 0-3.4 1.4-3.4 3.7.1 2.2 1.7 3.5 3.5 3.5zm-1.7-4.3c0-.8.6-1.5 1.4-1.5.8 0 1.3.3 1.3 1 0 .5-.4.7-2 .7h-.8l.1-.2zM100.6 20.9h-.6v5.8c0 2.1 1.5 3.5 3.2 3.5 2.1 0 3.4-1.7 3.4-3.7s-1.3-3.5-3.1-3.5c-.9 0-1.5.6-1.9 1v-2c.1-.7-.3-1.1-1-1.1zm2.7 3.6c1 0 1.6.6 1.6 2.2 0 1.1-.6 1.9-1.5 1.9-1 0-1.7-.7-1.7-2.2.1-1 .7-1.9 1.6-1.9zM110.8 26c-1.2-.2-1.4-.3-1.4-.7 0-.4.3-.8 1.4-.8.8 0 1.6.3 2 .6h.1v-.7c0-.7-.6-1.5-2.2-1.5-1.8 0-2.9 1.1-2.9 2.4 0 1 .7 1.6 2.2 1.8 1.2.2 1.4.4 1.4.8 0 .5-.4.8-1.3.8-.8 0-1.7-.3-2.1-.7h-.1v.8c0 .7.9 1.4 2.2 1.4 1.9 0 2.9-.9 2.9-2.3 0-1.1-.7-1.7-2.2-1.9zM115.4 22.7c.6 0 1-.5 1-1 0-.6-.5-1-1-1-.6 0-1 .4-1 1 0 .5.5 1 1 1zM115 23.3h-.5V28c0 1.4.7 2.1 2.1 2.1.7 0 1-.3 1-1v-.4h-.3c-.8 0-1-.2-1-.9v-3.2c0-.9-.5-1.3-1.3-1.3zM119.2 22.1c-.4.4-.5.7-.5 1.4v4.1c0 1.6.8 2.6 2.6 2.6 1 0 1.5-.4 1.5-1.1v-.6h-.1c-.3.2-.7.2-1.2.2-.7 0-1.1-.3-1.1-1.2v-2.7h1.4c.7 0 1-.5 1-.8v-.7h-2.4v-1.6h-.4c-.3-.1-.6.1-.8.4zM123.4 26.8c0 2.1 1.7 3.5 3.4 3.5 1.9 0 2.5-.7 2.5-1.6v-.5h-.1c-.6.5-1.4.7-2.1.7-1 0-1.8-.5-1.9-1.4h1.1c2.3 0 3.2-.4 3.2-1.7 0-1.6-1.3-2.7-2.8-2.7-1.8-.1-3.3 1.4-3.3 3.7zm1.8-.9c0-.8.6-1.5 1.4-1.5.8 0 1.3.3 1.3 1 0 .5-.4.7-2 .7h-.8l.1-.2zM84.5 46.6h-.4c-.2 1.5-.9 3.6-1.6 4.8-.7-1.2-1.3-3.2-1.5-4.3-.1-.3-.3-.5-.6-.5h-.3c.3 1.7 1 3.8 1.9 5.4.2.3.4.4.5.4h.2c.6-1 1.7-3.6 2-5.2V47c.2-.3 0-.4-.2-.4zM87 47.7c-1 0-1.5.5-1.5.9v.4c.3-.4.8-.6 1.4-.6.7 0 1.1.3 1.1.9v.2h-.6c-1.3 0-2.1.5-2.1 1.5 0 .8.8 1.3 1.7 1.3 1.3 0 1.7-.7 1.7-1.6v-1.4c.1-1-.5-1.6-1.7-1.6zm1 3.1c0 .6-.3.9-1 .9-.6 0-1-.3-1-.7 0-.5.4-.8 1.3-.8h.7v.6zM90.8 50.9v-4.1c0-.4-.2-.6-.5-.6H90V51c0 .9.5 1.3 1.4 1.3.4 0 .6-.1.6-.5v-.3h-.5c-.4.1-.7 0-.7-.6zM93.2 47.2c.3 0 .5-.2.5-.5s-.2-.5-.5-.5-.5.2-.5.5.2.5.5.5zM93.5 50.9v-2.5c0-.4-.3-.6-.5-.6h-.2V51c0 .9.5 1.3 1.3 1.3.3 0 .4-.2.4-.5v-.3h-.3c-.4.1-.7 0-.7-.6zM98.7 46.3h-.2v2.3c-.3-.6-.8-.9-1.4-.9-1.2 0-2 .9-2 2.4 0 1.3.9 2.3 2.1 2.3 1.4 0 2-.7 2-2.5v-3.1c0-.3-.2-.5-.5-.5zm-1.4 5.4c-.8 0-1.4-.7-1.4-1.6 0-1 .4-1.6 1.2-1.6 1.1 0 1.3.9 1.3 1.7.1 1-.3 1.5-1.1 1.5zM106.4 46.6h-.3v3.1c0 1.4-.4 1.9-1.5 1.9s-1.5-.6-1.5-2v-2.5c0-.5-.1-.6-.5-.6h-.3v3.1c0 1.7.7 2.7 2.3 2.7 1.5 0 2.3-1 2.3-2.7v-2.5c-.1-.3-.2-.5-.5-.5zM109.9 47.7c-1.2 0-1.9.7-1.9 2v2.1c0 .4.2.5.5.5h.3v-2.6c0-.9.4-1.3 1.1-1.3.8 0 1.1.4 1.1 1.3v2.1c0 .3.2.5.5.5h.3v-2.6c-.1-1.3-.7-2-1.9-2zM113.8 46.9c-.2 0-.5.2-.6.3-.1.2-.2.4-.2.7v2.9c0 1 .4 1.6 1.4 1.6.5 0 .8-.2.8-.6v-.3c-.2.1-.4.1-.7.1-.5 0-.7-.3-.7-.9v-2.2h.9c.4 0 .6-.2.6-.5v-.3h-1.5v-.8zM117 50.9v-2.5c0-.4-.3-.6-.5-.6h-.2V51c0 .9.5 1.3 1.3 1.3.3 0 .4-.2.4-.5v-.3h-.3c-.4.1-.7 0-.7-.6zM116.6 47.2c.3 0 .5-.2.5-.5s-.2-.5-.5-.5-.5.2-.5.5.3.5.5.5zM119.6 50.9v-4.1c0-.4-.2-.6-.5-.6h-.2V51c0 .9.5 1.3 1.4 1.3.4 0 .6-.1.6-.5v-.3h-.5c-.5.1-.8 0-.8-.6zM124.6 51.1l1.2-1c.7-.6 1.1-1 1.1-1.9 0-.9-.8-1.7-1.8-1.7-1.2 0-1.7.6-1.7 1.2v.4c.2-.4.7-.9 1.5-.9s1.2.4 1.2 1.1c0 .4-.2.8-.7 1.3l-1.2 1.1c-.8.7-.9.9-.9 1.3 0 .2.1.3.4.3h2.9c.4 0 .5-.3.5-.4v-.3h-2.9c0-.1.2-.3.4-.5zM129.9 46.5c-1.4 0-2.1 1.1-2.1 3 0 1.8.9 2.8 2 2.8 1.3 0 2.1-1 2.1-3.1 0-1.9-.9-2.7-2-2.7zm0 5.2c-.7 0-1.3-.6-1.3-2.3 0-1.5.5-2.1 1.2-2.1.8 0 1.3.5 1.3 2.3.1 1.6-.5 2.1-1.2 2.1zM134.2 51.1l1.2-1c.7-.6 1.1-1 1.1-1.9 0-.9-.8-1.7-1.8-1.7-1.2 0-1.7.6-1.7 1.2v.4c.2-.4.7-.9 1.5-.9s1.2.4 1.2 1.1c0 .4-.2.8-.7 1.3l-1.2 1.1c-.8.7-.9.9-.9 1.3 0 .2.1.3.4.3h2.9c.4 0 .5-.3.5-.4v-.3h-2.9c0-.1.2-.3.4-.5zM140.8 47.2c0-.5-.3-.6-.5-.6h-.3c-.6.6-2 2.4-2.5 3.6v.3c0 .2.2.4.6.4h2v.9c0 .4.2.5.5.5h.3v-1.4h.5c.2 0 .4-.1.4-.4v-.3h-.9v-3zm-.8 3h-1.9c.4-.9 1.5-2.4 1.9-2.9v2.9zM85.2 35.7c.6 0 .7-.3.7-.5v-.4h-4c-.5 0-.8.3-1 1.1-.1.5-.3 1.4-.3 2.1v1.4c0 2.1.9 3.2 2.8 3.2h.9c1.2 0 1.4-.3 1.4-.9v-.3c-.4.1-.9.2-1.4.2h-.6c-1.5 0-2.1-.5-2.1-2.1v-.6h2.6c.5 0 .7-.2.7-.5V38h-3.3c0-.8.1-1.7.3-2.3h3.3zM91.1 35.7c.4 0 .6-.3.6-.5v-.4h-3.4c-.8 0-1.1.3-1.1.9v6.1c0 .4.2.6.6.6h.4v-3.6h2.3c.4 0 .7-.2.7-.6v-.3h-3v-2.2h2.9zM101.8 34.7h-.5c-.2 1.9-.9 4.4-1.7 6.2-.7-1.6-1.3-3.7-1.6-5.1-.1-.7-.3-.9-.8-.9h-.3l-.1.6c-.2.9-.9 3.5-1.6 5.4-.8-1.8-1.3-3.8-1.6-5.5-.1-.3-.3-.7-.6-.7h-.5c.4 2.7 1.1 5.1 2.2 7.3.1.1.3.4.6.4h.2c.5-.9 1.4-3.4 1.9-5.6.3 2.2 1.1 4.2 1.6 5.2.1.2.3.4.5.4h.3c1.1-2.1 1.9-4.5 2.3-6.6 0-.2.1-.4.1-.6 0-.3-.2-.5-.4-.5zM108.6 42.3c-.4-2.5-1.6-5.6-2.3-6.8-.3-.6-.6-.9-1-.9h-.3c-1.2 1.4-2.7 6.1-2.7 7.1 0 .3.1.5.5.5h.4c.1-.6.3-1.5.5-2h3.6c.1.4.3 1 .4 1.5.1.3.3.5.7.5h.2zm-4.8-2.8c.4-1.4.8-2.6 1.5-3.9.7 1.2 1.1 2.4 1.5 3.9h-3zM119.8 42.3h.4c-.4-2.5-1.6-5.6-2.3-6.8-.3-.6-.6-.9-1-.9h-.3c-1.2 1.4-2.7 6.1-2.7 7.1 0 .3.1.5.5.5h.4c.1-.6.3-1.5.5-2h3.6c.1.4.3 1 .4 1.5-.1.4.1.6.5.6zm-4.4-2.8c.4-1.4.8-2.6 1.5-3.9.7 1.2 1.1 2.4 1.5 3.9h-3zM126.7 41.1v-.3h-.1c-.4.5-1 .8-1.8.8-1.6 0-2.8-1.1-2.8-3.2 0-1.6 1.1-2.8 2.7-2.8.7 0 1.4.2 1.9.9h.1V36c0-.6-.7-1.4-2-1.4-2.4 0-3.8 1.9-3.8 3.9 0 2.3 1.6 3.9 3.6 3.9 1.4 0 2.2-.6 2.2-1.3zM131.2 42.4c1.3 0 2.1-.7 2.1-1.4v-.3h-.1c-.4.5-1 .8-1.8.8-1.6 0-2.8-1.1-2.8-3.2 0-1.6 1.1-2.8 2.7-2.8.7 0 1.4.2 1.9.9h.1V36c0-.6-.7-1.4-2-1.4-2.4 0-3.8 1.9-3.8 3.9.1 2.3 1.7 3.9 3.7 3.9zM138.1 40.4l.6 1.4c.2.4.4.6.8.6.1 0 .5 0 .6-.1v-.1c-.1-.1-.3-.4-.4-.6L139 40c-.2-.5-.5-1.1-1.2-1.3 1-.1 1.8-.8 1.8-2 0-1.3-1-2.1-2.5-2.1h-.7c-.6 0-1.5.2-1.9.3v6.7c0 .4.2.7.6.7h.4V39c.3.1.8.1 1.3.2.5 0 .8.1 1.3 1.2zm-2.6-2.3v-2.4c.3-.1.7-.1.9-.1h.6c.8 0 1.5.3 1.5 1.3s-.9 1.3-1.7 1.3c-.3 0-.8 0-1.3-.1zM141.3 35.8c-.1.5-.3 1.4-.3 2.1v1.4c0 2.1.9 3.2 2.8 3.2h.9c1.2 0 1.4-.3 1.4-.9v-.3c-.4.1-.9.2-1.4.2h-.6c-1.5 0-2.1-.5-2.1-2.1v-.6h2.6c.5 0 .7-.2.7-.5V38H142c0-.8.1-1.7.3-2.3h3.2c.6 0 .7-.3.7-.5v-.4h-4c-.4-.1-.7.2-.9 1zM150.1 34.7h-1c-.5 0-1.3.1-1.7.2v5.9c0 1 .7 1.6 2 1.6h.7c2 0 3.4-1.6 3.4-3.9 0-2.4-1.6-3.8-3.4-3.8zm-.1 6.8h-.4c-.7 0-1.1-.3-1.1-1v-4.8c.3-.1.7-.1.9-.1h.4c1.6 0 2.6 1 2.6 3 .1 1.7-.9 2.9-2.4 2.9zM155.6 34.7h-.5v6.9c0 .5.3.8.7.8h.4v-7.1c-.1-.4-.4-.6-.6-.6zM157.1 35.3v.4h2.3v6c0 .5.2.7.7.7h.4v-6.7h1.8c.3 0 .6-.3.6-.5v-.4h-5.1c-.5-.1-.7.2-.7.5zM165.9 34.7h-.3c-1.2 1.4-2.7 6.1-2.7 7.1 0 .3.1.5.5.5h.4c.1-.6.3-1.5.5-2h3.6c.1.4.3 1 .4 1.5.1.3.3.5.7.5h.4c-.4-2.5-1.6-5.6-2.3-6.8-.5-.5-.7-.8-1.2-.8zm-1.4 4.8c.4-1.4.8-2.6 1.5-3.9.7 1.2 1.1 2.4 1.5 3.9h-3zM169.2 35.3v.4h2.3v6c0 .5.2.7.7.7h.4v-6.7h1.8c.3 0 .6-.3.6-.5v-.4h-5.1c-.5-.1-.7.2-.7.5zM176.5 34.7h-.5v6.9c0 .5.3.8.7.8h.4v-7.1c-.1-.4-.4-.6-.6-.6zM182.1 34.6c-2.2 0-3.5 1.7-3.5 4 0 2.4 1.5 3.8 3.4 3.8 2.2 0 3.5-1.7 3.5-4 0-2.2-1.3-3.8-3.4-3.8zm0 6.9c-1.6 0-2.5-1.1-2.5-3.1 0-1.9.9-2.9 2.4-2.9 1.7 0 2.5 1 2.5 3.1 0 1.8-.9 2.9-2.4 2.9zM192.4 34.7h-.4v6.4c-.3-.4-.6-1-.9-1.6l-1.6-3.3c-.5-.9-1.1-1.5-2-1.5h-.5v6.9c0 .4.2.7.6.7h.4v-6.5c.3.3.5.6.8 1.3l1.6 3.3c.8 1.6 1.4 2 2.1 2h.3v-7.1c.1-.4-.2-.6-.4-.6zM71.8 3.3h.8v53.5h-.8zM84.9 17.2c1.2 0 2.6-.5 2.6-1.7v-.7h-.1c-.5.5-1.4.8-2.3.8-1.6 0-2.8-1-2.8-3.1 0-1.7 1.2-2.8 2.7-2.8.8 0 1.9.2 2.4.9h.1V10c0-1.2-1-1.8-2.5-1.8-2.7 0-4.5 1.9-4.5 4.6 0 2.6 2 4.4 4.4 4.4zM90.7 17.2c.8 0 1.1-.3 1.1-1v-.4h-.5c-.8 0-1.2-.2-1.2-.9V9.1c0-.7-.4-1.1-1.2-1.1h-.5v7c.1 1.4.9 2.2 2.3 2.2zM93.7 9.7c.5 0 1-.5 1-1 0-.6-.5-1-1-1-.6 0-1 .4-1 1s.5 1 1 1zM94.6 11.6c0-.9-.5-1.3-1.2-1.3h-.5V15c0 1.4.7 2.1 2.1 2.1.7 0 1-.3 1-1v-.4h-.3c-.8 0-1-.2-1-.9v-3.2zM98.1 17.1h.5V13c0-.9.5-1.5 1.2-1.5.8 0 1.3.5 1.3 1.6v2.7c0 .8.5 1.3 1.3 1.3h.5V13c0-.9.5-1.4 1.2-1.4.8 0 1.3.5 1.3 1.6v2.7c0 .8.4 1.3 1.3 1.3h.4V13c0-2-1.3-2.9-2.9-2.9-.8 0-1.6.4-2 1.1-.5-.7-1.2-1.1-2.1-1.1-2.1 0-3.1 1.3-3.1 3.1v2.7c-.1.7.4 1.2 1.1 1.2zM111.7 12.9c-2.5 0-3.4.9-3.4 2.2 0 1.3 1.1 2.2 2.8 2.2h.3c1.5 0 2.6-1 2.6-2.5v-1.6c0-2.4-1.4-3.1-2.9-3.1-1.8 0-2.5.9-2.5 1.7v.6h.1c.3-.3.9-.8 2.2-.8 1 0 1.5.3 1.5 1.3v.1h-.7zm.6 1.2v.7c0 .7-.4 1.1-1.1 1.1-.8 0-1.2-.3-1.2-.9 0-.6.4-.9 1.7-.9h.6zM118 17.2c1 0 1.5-.4 1.5-1.1v-.6h-.1c-.3.2-.7.2-1.2.2-.7 0-1.1-.3-1.1-1.2v-2.7h1.4c.7 0 1-.5 1-.8v-.7h-2.4V8.6h-.4c-.3 0-.6.2-.8.5-.4.4-.5.7-.5 1.4v4.1c0 1.6.8 2.6 2.6 2.6zM123.5 17.3c1.9 0 2.5-.7 2.5-1.6v-.5c-.5.5-1.4.7-2.1.7-1 0-1.8-.5-1.9-1.4h1.1c2.3 0 3.2-.4 3.2-1.7 0-1.6-1.3-2.7-2.8-2.7-2 0-3.4 1.4-3.4 3.7.1 2.1 1.7 3.5 3.4 3.5zm-1.6-4.4c0-.8.6-1.5 1.4-1.5.8 0 1.3.3 1.3 1 0 .5-.4.7-2 .7h-.8l.1-.2zM131 13.3v-.7h-3c-.5 0-.8.3-.8.7v.7h2.9c.6 0 .9-.3.9-.7zM133.4 17.1h.7v-3.4c.4.2.9.3 1.5.3 1.7 0 3-1.1 3-3 0-1.8-1.2-2.7-2.9-2.7h-1c-.6 0-1.8.2-2.3.4v7.2c0 .9.5 1.2 1 1.2zm.7-7.2c.2 0 .5-.1.7-.1h.6c.9 0 1.3.4 1.3 1.4 0 .8-.5 1.4-1.4 1.4-.4 0-.9-.1-1.2-.2V9.9zM142.4 17.3c2.2 0 3.4-1.6 3.4-3.7 0-1.8-1.2-3.5-3.3-3.5-2.2 0-3.4 1.7-3.4 3.7 0 1.8 1.2 3.5 3.3 3.5zm0-5.7c1.1 0 1.6.8 1.6 2.2 0 1.1-.5 1.9-1.5 1.9-1.1 0-1.6-.8-1.6-2.2 0-1.1.5-1.9 1.5-1.9zM152.1 14.9c0-1.1-.8-1.7-2.2-2-1.2-.2-1.4-.3-1.4-.7 0-.4.3-.8 1.4-.8.8 0 1.6.3 2 .6h.1v-.7c0-.7-.6-1.5-2.2-1.5-1.8 0-2.9 1.1-2.9 2.4 0 1 .7 1.6 2.2 1.8 1.2.2 1.4.4 1.4.8 0 .5-.4.8-1.3.8-.8 0-1.7-.3-2.1-.7h-.1v.8c0 .7.9 1.4 2.2 1.4 1.8.2 2.9-.7 2.9-2.2zM155.3 14.9v-3.2c0-.9-.5-1.3-1.2-1.3h-.5V15c0 1.4.7 2.1 2.1 2.1.7 0 1-.3 1-1v-.4h-.3c-.8.1-1.1-.2-1.1-.8zM154.4 9.7c.5 0 1-.5 1-1 0-.6-.5-1-1-1-.6 0-1 .4-1 1s.5 1 1 1zM160.3 17.2c1 0 1.5-.4 1.5-1.1v-.6h-.1c-.3.2-.7.2-1.2.2-.7 0-1.1-.3-1.1-1.2v-2.7h1.4c.7 0 1-.5 1-.8v-.7h-2.4V8.6h-.4c-.3 0-.6.2-.8.5-.4.4-.5.7-.5 1.4v4.1c0 1.6.8 2.6 2.6 2.6zM164.7 11.6c0-.9-.5-1.3-1.2-1.3h-.5V15c0 1.4.7 2.1 2.1 2.1.7 0 1-.3 1-1v-.4h-.3c-.8 0-1-.2-1-.9v-3.2zM163.9 9.7c.6 0 1-.5 1-1 0-.6-.5-1-1-1-.6 0-1 .4-1 1s.4 1 1 1zM169.7 17.2h.3c.8-1 1.5-2.7 2-4 .4-1.2.6-2 .6-2.2 0-.6-.2-.8-.8-.8h-.7c-.3 1.7-.9 3.6-1.5 4.8-.7-1.4-1.1-2.7-1.3-4-.1-.4-.4-.8-1-.8h-.9c.2 1.9 1.3 4.9 2.3 6.3.2.5.5.7 1 .7zM176.7 17.3c1.9 0 2.5-.7 2.5-1.6v-.5h-.1c-.6.5-1.4.7-2.1.7-1 0-1.8-.5-1.9-1.4h1.1c2.3 0 3.2-.4 3.2-1.7 0-1.6-1.3-2.7-2.8-2.7-2 0-3.4 1.4-3.4 3.7.1 2.1 1.8 3.5 3.5 3.5zm-1.6-4.4c0-.8.6-1.5 1.4-1.5.8 0 1.3.3 1.3 1 0 .5-.4.7-2 .7h-.8l.1-.2zM134 30.5l3.4-2.4 3.3 2.4-1.3-3.9 3.4-2.4h-4.2l-1.2-3.9-1.3 3.9H132l3.3 2.4zM55.9 12.3c-7.6 2-14.5 6.9-18.8 14.2 4.9 9.1 5.1 19.8.7 29.2 9.4-1 18.2-6.3 23.3-15 5.4-9.3 5.4-20.3 1-29.3-2.1 0-4.2.4-6.2.9z"/><path class="st1" d="M35.4 26.6C30 17.2 20.5 11.7 10.5 11c-4.6 9-4.7 20 .7 29.3 5.3 9.4 14.9 14.9 24.9 15.5 4.5-8.9 4.6-19.9-.7-29.2zM36.2 25c2.6-4.1 5.9-7.5 9.9-10-3.8-6.6-9.4-10.4-9.8-10.7-4.8 3-8.4 8.1-10 10.5 4 2.7 7.4 6.1 9.9 10.2z" fill="currentColor" /></svg>