<svg width="48" height="48" viewBox="0 0 48 48" fill="currentColor" xmlns="http://www.w3.org/2000/svg">
<path d="M43.9829 10.8287C43.9794 10.4968 43.918 10.1682 43.8014 9.85712C43.3673 8.73223 42.283 7.99269 41.077 8.00005H6.9229C5.71726 7.99301 4.6326 8.73226 4.19884 9.85712C4.08224 10.1684 4.02085 10.4977 4.01733 10.8299C4.01703 10.8602 4 10.8857 4 10.9157V36.5713C4 38.1493 5.2791 39.4284 6.85714 39.4284H41.1429C42.7209 39.4284 44 38.1493 44 36.5713V10.9142C44 10.8842 43.9841 10.8584 43.983 10.8284L43.9829 10.8287ZM41.1428 36.5716H6.85712V14.7813L22.021 28.6603C23.1444 29.6762 24.8547 29.6762 25.9781 28.6603L41.142 14.7813L41.1428 36.5716ZM41.1243 10.9219L23.9499 26.5535L6.92283 10.858L41.1424 10.9024C41.1424 10.9024 41.1424 10.9094 41.1239 10.9223L41.1243 10.9219Z" />
</svg>
