<svg xmlns="http://www.w3.org/2000/svg" width="99.74" height="72.04"><g id="client-logo-eti" fill="currentColor" transform="translate(-102.11 -11.49)"><path id="Shape-2" d="m156.69 83.45-5.48-12.29a5.391 5.391 0 0 0 .56-.08ZM146.51 60.6l-7-15.66c-.75-1.82-.62-2.22 1-3l54.84-25.78-47 23.78-1.18.58-.35.17c-6 2.92-6 2.92-3.4 9.43.23.57.5 1.26.79 2l3.13 7.88a5.89 5.89 0 0 0-.84.6Zm-35.75-5.68 23.15-11.73c1.16-.6 1.64-1 1.62-1.27s-.68-.52-1.59-.8l-.54-.12-31.29-10.22 32.53 9.78.45.13a5.22 5.22 0 0 0 1.23.28.38.38 0 0 0 .34-.14c.15-.22 0-.74-.36-1.73l-8.23-20.68c0 .1 5.9 13.5 8.83 19.75.11.23.22.47.31.68.25.56.44 1 .66 1s.44-.42.74-1.36l8.89-27-8.45 29-.06.17c-.41 1.08-.53 1.41-2.37 2.3-.62.38-24.83 11.49-25.86 11.96Z"/><path id="Shape-3" d="M196.75 83.46a2.62 2.62 0 0 1-1.9-.79 2.83 2.83 0 0 1-.75-2 2.61 2.61 0 0 1 2.47-2.67h.11a2.34 2.34 0 0 1 1.81.77 2.8 2.8 0 0 1 .65 1.84v.33h-4.27a1.91 1.91 0 0 0 3.53 1l.55.47a2.67 2.67 0 0 1-2.2 1.05Zm-.06-4.82a1.82 1.82 0 0 0-1.8 1.67h3.46a1.68 1.68 0 0 0-.46-1.22 1.61 1.61 0 0 0-1.2-.45Zm-4 4.82c-.47 0-1.27-.19-1.27-1.4v-3.29h-1.12v-.67h1.08v-1.47h.72v1.47h1.48v.67h-1.48v3.08c0 .78.3.94.75.94a1.7 1.7 0 0 0 .74-.2v.68a2.52 2.52 0 0 1-.94.19Zm-5.5 0a1.766 1.766 0 0 1-1.93-2V78.1h.74V81c0 1.28.4 1.8 1.39 1.8a1.54 1.54 0 0 0 .83-.29 2 2 0 0 0 .72-1.72V78.1h.73v5.27h-.74a5.909 5.909 0 0 1 0-.84 2.07 2.07 0 0 1-1.72 1Zm-3.87 0c-.47 0-1.27-.19-1.27-1.4v-3.29h-1.09v-.67H182v-1.47h.72v1.47h1.48v.67h-1.48v3.08c0 .78.3.94.74.94a1.78 1.78 0 0 0 .75-.2v.68a2.5 2.5 0 0 1-.93.19Zm-6.58 0c-.47 0-1.27-.19-1.27-1.4v-3.29h-1.08v-.67h1.08v-1.47h.72v1.47h1.48v.67h-1.48v3.08c0 .78.3.94.75.94a1.74 1.74 0 0 0 .74-.2v.68a2.47 2.47 0 0 1-1 .19Zm-4.87 0a2.23 2.23 0 0 1-2-1l.62-.43a1.56 1.56 0 0 0 1.35.78c.6 0 1.2-.27 1.2-.87s-.48-.72-1-.84l-.7-.17c-.6-.15-1.31-.51-1.31-1.37a1.7 1.7 0 0 1 1.9-1.57 1.76 1.76 0 0 1 1.7.93l-.64.44a1.18 1.18 0 0 0-1.11-.7c-.53 0-1.06.24-1.06.78s.35.67 1 .82l.73.18a1.49 1.49 0 0 1 1.25 1.43c0 1.19-1.08 1.61-2 1.61Zm7.93-.14h-.8V78.1h.73v5.22Zm-10.84 0h-.73v-2.89c0-1.27-.4-1.8-1.39-1.8-.06 0-1.55 0-1.55 2v2.68h-.72v-4.06a9.175 9.175 0 0 0-.05-1v-.15h.74a7.87 7.87 0 0 1 0 .84A2 2 0 0 1 167 78a1.755 1.755 0 0 1 1.92 2v3.31Zm-6.74 0V78.1h.72v5.22Zm17.22-6.69a.54.54 0 0 1-.54-.53.52.52 0 0 1 .52-.54.53.53 0 0 1 .55.52.54.54 0 0 1-.53.54Zm-16.86 0a.53.53 0 0 1-.54-.53.52.52 0 0 1 .52-.54.54.54 0 0 1 .55.52.54.54 0 0 1-.54.54Zm11.22-2.95c-1.3 0-2.92-.21-3.57-.82l1.41-2.17a3.17 3.17 0 0 0 2.11.69 2.39 2.39 0 0 0 1.73-.59 2.06 2.06 0 0 0 .52-1.49v-.82a2.92 2.92 0 0 1-2.34 1.12 3.92 3.92 0 0 1-3-1.23 4.55 4.55 0 0 1-1.12-3.15 5 5 0 0 1 1-3.06 3.9 3.9 0 0 1 5.5-.43l.14.13V61h2.36v7.77a5.1 5.1 0 0 1-1.2 3.65 4.78 4.78 0 0 1-3.58 1.26Zm.4-10.58a2.1 2.1 0 1 0 2 2.15 2.12 2.12 0 0 0-.58-1.46 2 2 0 0 0-1.46-.64Zm21.46 6.53a4.62 4.62 0 0 1-3.24-1.14l1.55-1.74a2.16 2.16 0 0 0 1.8.91c.27 0 1.15 0 1.15-.6s-.65-.67-1.47-.85c-1.26-.27-2.83-.61-2.83-2.55a2.56 2.56 0 0 1 1.09-2.15 4.65 4.65 0 0 1 5.43.43l-1.56 1.57a1.81 1.81 0 0 0-1.47-.71c-.47 0-.94.21-.94.69s.62.61 1.41.79a5.66 5.66 0 0 1 1.9.66 2.13 2.13 0 0 1 1 1.93 2.39 2.39 0 0 1-1.25 2.18 5.4 5.4 0 0 1-2.56.58Zm-7.48 0a4.78 4.78 0 0 1-3.25-1.2 4.49 4.49 0 0 1 0-6.4 4.68 4.68 0 0 1 3.25-1.2A3.6 3.6 0 0 1 191 62a4.75 4.75 0 0 1 1 3.2v.8h-5.9a1.91 1.91 0 0 0 1.9 1.66 2.15 2.15 0 0 0 1.81-1l1.81 1.34a4.48 4.48 0 0 1-3.48 1.66Zm-.24-6.94a1.7 1.7 0 0 0-1.8 1.59h3.36a1.54 1.54 0 0 0-1.5-1.59Zm-23.66 6.94a4.77 4.77 0 0 1-3.24-1.2 4.49 4.49 0 0 1 0-6.4 5 5 0 0 1 6.49 0 4.49 4.49 0 0 1 0 6.4 4.78 4.78 0 0 1-3.29 1.2Zm0-6.52a1.94 1.94 0 0 0-2 1.85 2.444 2.444 0 0 0 0 .27 1.94 1.94 0 0 0 1.72 2.11h.28a2 2 0 0 0 1.48-.58 2.17 2.17 0 0 0 .55-1.54 2 2 0 0 0-1.77-2.12Zm-13.68 6.52h-.07a4.74 4.74 0 0 1-3.2-1.22 4.18 4.18 0 0 1-1.33-3.18 4.28 4.28 0 0 1 1.18-3.06 4.491 4.491 0 0 1 .77-.61 4.88 4.88 0 0 1 2.63-.73 4.77 4.77 0 0 1 3.24 1.2 4.22 4.22 0 0 1 1.34 3.2 4.28 4.28 0 0 1-1.15 3 4.63 4.63 0 0 1-2.86 1.35 5.438 5.438 0 0 1-.55.05Zm0-6.52a1.92 1.92 0 0 0-1.68.82 2.24 2.24 0 0 0-.36 1.28 2.08 2.08 0 0 0 .79 1.75 2 2 0 0 0 .92.35 1.841 1.841 0 0 0 .33 0 2 2 0 0 0 2-1.85v-.28a2 2 0 0 0-1.77-2.12Zm-26.25 6.52a4.81 4.81 0 0 1-3.25-1.2 4.51 4.51 0 0 1 0-6.4 4.81 4.81 0 0 1 3.25-1.2 4.16 4.16 0 0 1 2.94 1.17l-1.68 1.8a1.59 1.59 0 0 0-1.26-.64 2 2 0 0 0-2 1.86 1.131 1.131 0 0 0 0 .26 2 2 0 0 0 1.77 2.12 1.22 1.22 0 0 0 .27 0 1.59 1.59 0 0 0 1.26-.64l1.68 1.8a4.21 4.21 0 0 1-2.98 1.07Zm-9.14 0a4.78 4.78 0 0 1-3.25-1.2 4.49 4.49 0 0 1 0-6.4 4.78 4.78 0 0 1 3.25-1.2A3.61 3.61 0 0 1 118 62a4.75 4.75 0 0 1 1 3.2v.8h-5.91a1.9 1.9 0 0 0 1.92 1.62 2.18 2.18 0 0 0 1.82-1l1.86 1.38a4.48 4.48 0 0 1-3.48 1.66Zm-.21-6.94a1.71 1.71 0 0 0-1.8 1.59h3.36a1.54 1.54 0 0 0-1.56-1.59Zm-6.66 6.94c-1.93 0-3-.9-3-2.54v-4h-1.63V61h1.63v-2.45h2.55V61h2.24v2.08h-2.24v2.8c0 .88.09 1.55 1.2 1.55a1.85 1.85 0 0 0 1-.24v2.15a4.87 4.87 0 0 1-1.78.29Zm27.6-.21h-2.53v-4.1c0-.94 0-2.21-1.32-2.21s-1.53 1.08-1.53 2.14v4.17H128V57.2h2.55v4.73c.24-.68 1.14-1.1 2.33-1.1 2.69 0 3.06 1.91 3.06 4v4.62Zm46.59 0H180V61h2.55v8.38Zm-23.78 0h-2.54V57.2h2.55v12.22Zm-18.93 0h-2.58V61h2.48v.74a2.76 2.76 0 0 1 2.48-1 2.59 2.59 0 0 1 2.8 1.8 6.92 6.92 0 0 1 .28 2.21v4.66h-2.58v-4.14c0-.94 0-2.22-1.34-2.22s-1.56 1.09-1.56 2.15v4.2Zm41.38-9.12a1.28 1.28 0 1 1 1.26-1.3 1.28 1.28 0 0 1-1.25 1.28Zm13.41-2.3a6.21 6.21 0 0 1-1.91-.31l.34-2.14a2.91 2.91 0 0 0 1.2.26c1.15 0 1.34-.5 1.7-1.4l.18-.48-3.63-8.52h2.77L197.4 51l1.83-5.58h2.62l-3.75 9.81a5.74 5.74 0 0 1-1.1 2.07 3.27 3.27 0 0 1-2.42.73Zm-7.49-.1c-1.29 0-2.9-.22-3.55-.82l1.43-2.15a3.1 3.1 0 0 0 2.09.67 2.31 2.31 0 0 0 1.72-.58 2 2 0 0 0 .56-1.48v-.82a2.87 2.87 0 0 1-2.37 1.11 3.88 3.88 0 0 1-3-1.22 4.57 4.57 0 0 1-1.11-3.14 5 5 0 0 1 1-3 3.87 3.87 0 0 1 5.51-.47l.15.14v-.85h2.34V53a5 5 0 0 1-1.18 3.63 4.82 4.82 0 0 1-3.58 1.25Zm.39-10.53a2.09 2.09 0 0 0 0 4.17 2 2 0 0 0 1.45-.63 2.09 2.09 0 0 0 0-2.9 2 2 0 0 0-1.45-.64ZM153.28 54a4.78 4.78 0 0 1-3.29-1.2 4.5 4.5 0 0 1 0-6.45 4.84 4.84 0 0 1 3.29-1.21 3.72 3.72 0 0 1 2.87 1.2 4.79 4.79 0 0 1 1.06 3.23v.82h-6a1.91 1.91 0 0 0 1.94 1.63A2.17 2.17 0 0 0 155 51l1.81 1.34a4.5 4.5 0 0 1-3.53 1.66Zm-.24-7a1.73 1.73 0 0 0-1.83 1.6h3.41a1.58 1.58 0 0 0-.44-1.13 1.53 1.53 0 0 0-1.14-.47Zm18.79 7a4.82 4.82 0 0 1-3.3-1.2 4.28 4.28 0 0 1-1.35-3.23 4.23 4.23 0 0 1 1.36-3.22 4.84 4.84 0 0 1 3.29-1.21 3.69 3.69 0 0 1 2.86 1.2 4.74 4.74 0 0 1 1.06 3.23v.82h-6a1.93 1.93 0 0 0 2 1.63 2.2 2.2 0 0 0 1.84-1l1.81 1.34a4.55 4.55 0 0 1-3.57 1.64Zm-.24-7a1.72 1.72 0 0 0-1.83 1.6h3.41a1.55 1.55 0 0 0-1.58-1.6Zm7.79 6.77h-2.58v-8.38h2.58v1.36a2.55 2.55 0 0 1 2.4-1.57 4.12 4.12 0 0 1 .86.09v2.38a3.65 3.65 0 0 0-1.09-.17 1.93 1.93 0 0 0-1.84.78 4.14 4.14 0 0 0-.37 2.05v3.52Zm-13.06 0h-2.59V49.7c0-.94 0-2.22-1.34-2.22s-1.55 1.09-1.55 2.15v4.2h-2.59v-8.44h2.48v.74a2.76 2.76 0 0 1 2.48-1c2.73 0 3.1 1.92 3.1 4v4.65Z"/></g></svg>