<svg xmlns="http://www.w3.org/2000/svg" xmlns:xlink="http://www.w3.org/1999/xlink" width="108" height="108" viewBox="0 0 108 108">
  <defs>
    <clipPath id="clip-external">
      <rect width="108" height="108"/>
    </clipPath>
  </defs>
  <g id="external" clip-path="url(#clip-external)">
    <g id="icon-External" transform="translate(-6.001 -6.632)">
      <path id="Path_8614" data-name="Path 8614" d="M107.046,77.527a6.785,6.785,0,0,0-6.812,6.67v16.178H19.341V19.483H35.52a6.814,6.814,0,0,0,6.812-6.812A6.575,6.575,0,0,0,35.661,6H12.812A6.814,6.814,0,0,0,6,12.812v94.375A6.814,6.814,0,0,0,12.812,114h94.375A6.814,6.814,0,0,0,114,107.187V84.2a6.91,6.91,0,0,0-6.953-6.67Z" fill="#084059"/>
      <path id="Path_8615" data-name="Path 8615" d="M76.243,6H46.867a6.814,6.814,0,0,0-6.812,6.812,6.725,6.725,0,0,0,6.812,6.812H59.213l-36.189,36.9a6.815,6.815,0,0,0,4.825,11.5,7.01,7.01,0,0,0,4.825-1.987l36.9-37.608V42.189A6.814,6.814,0,0,0,76.384,49,6.725,6.725,0,0,0,83.2,42.189V12.812A6.935,6.935,0,0,0,76.243,6Z" transform="translate(30.803 0)" fill="#084059"/>
    </g>
  </g>
</svg>
