<svg xmlns="http://www.w3.org/2000/svg" width="108" height="108"><defs><clipPath id="a"><path d="M0 0h108v108H0z"/></clipPath></defs><g fill="currentColor" clip-path="url(#a)"><path data-name="Path 8614" d="M101.045 70.895a6.785 6.785 0 0 0-6.812 6.67v16.178H13.34V12.851h16.179a6.814 6.814 0 0 0 6.812-6.812A6.575 6.575 0 0 0 29.66-.632H6.811A6.814 6.814 0 0 0-.001 6.18v94.375a6.814 6.814 0 0 0 6.812 6.813h94.375a6.814 6.814 0 0 0 6.813-6.813V77.568a6.91 6.91 0 0 0-6.953-6.67Z"/><path data-name="Path 8615" d="M101.045-.632H71.669a6.814 6.814 0 0 0-6.812 6.812 6.725 6.725 0 0 0 6.812 6.812h12.346l-36.189 36.9a6.815 6.815 0 0 0 4.825 11.5 7.01 7.01 0 0 0 4.825-1.987l36.9-37.608v13.76a6.814 6.814 0 0 0 6.81 6.811 6.725 6.725 0 0 0 6.816-6.811V6.18a6.935 6.935 0 0 0-6.957-6.812Z"/></g></svg>