<svg xmlns="http://www.w3.org/2000/svg" viewBox="0 0 28 28" fill="currentColor">
  <path d="M27,14.0789648 C27,6.89925781 21.179707,1.07896484 14,1.07896484 C6.82029297,1.07896484 1,6.89925781 1,14.0789648 C1,20.5676406 5.75391211,25.9457813 11.96875,26.9210352 L11.96875,17.8367773 L8.66796875,17.8367773 L8.66796875,14.0789648 L11.96875,14.0789648 L11.96875,11.2149023 C11.96875,7.95677734 13.9095586,6.15708984 16.879043,6.15708984 C18.3013496,6.15708984 19.7890625,6.41099609 19.7890625,6.41099609 L19.7890625,9.61021484 L18.149793,9.61021484 C16.534873,9.61021484 16.03125,10.6123066 16.03125,11.640373 L16.03125,14.0789648 L19.6367188,14.0789648 L19.0603516,17.8367773 L16.03125,17.8367773 L16.03125,26.9210352 C22.2460879,25.9457813 27,20.5676406 27,14.0789648"></path>
</svg>
