<svg id="Crick-Logo-Black-01" xmlns="http://www.w3.org/2000/svg" width="67.303" height="69.547"><path id="Rectangle_65" fill="currentColor" d="M0 0h67.302v69.547H0z"/><path id="Path_645" d="M902.7 1260.3v7.679h1.472v-4.713l2.984 4.713h1.317v-7.679H907v4.7l-2.984-4.7Z" transform="translate(-876.853 -1224.214)" fill="#fff"/><path id="Rectangle_66" transform="translate(39.562 36.086)" fill="#fff" d="M0 0h1.475v7.679H0z"/><path id="Path_646" d="M1463.5 1264.895a3.509 3.509 0 0 0 2.754 1.014c1.572 0 2.792-.839 2.792-2.331a2.152 2.152 0 0 0-.584-1.626 2.43 2.43 0 0 0-1.435-.593l-.891-.129a1.277 1.277 0 0 1-.7-.3.733.733 0 0 1-.223-.55c0-.53.378-.971 1.162-.971a2.077 2.077 0 0 1 1.546.53l.928-.939a3.191 3.191 0 0 0-2.434-.9 2.337 2.337 0 0 0-2.623 2.331 2.057 2.057 0 0 0 .541 1.512 2.523 2.523 0 0 0 1.458.636l.911.129a1.108 1.108 0 0 1 .667.269.87.87 0 0 1 .232.647c0 .616-.467.951-1.331.951a2.445 2.445 0 0 1-1.821-.647Z" transform="translate(-1421.595 -1222.077)" fill="#fff"/><path id="Path_647" d="M1146.4 1261.692c0 1.329-.023 2.291.742 3.067a2.747 2.747 0 0 0 2.03.839 2.679 2.679 0 0 0 2.775-2.428h-1.492a1.255 1.255 0 0 1-1.268 1.091 1.2 1.2 0 0 1-.939-.4c-.286-.321-.372-.69-.372-2.17s.086-1.841.372-2.167a1.2 1.2 0 0 1 .939-.4 1.251 1.251 0 0 1 1.268 1.091h1.492a2.67 2.67 0 0 0-2.775-2.428 2.739 2.739 0 0 0-2.03.842c-.767.778-.742 1.74-.742 3.063Z" transform="translate(-1113.572 -1221.769)" fill="#fff"/><path id="Path_648" d="M208.9 1260.2v7.679h1.475v-3.118h2.975v-1.34h-2.975v-1.887h3.49v-1.334H208.9Z" transform="translate(-202.919 -1224.116)" fill="#fff"/><path id="Path_649" d="M424.323 1264.57a2.062 2.062 0 0 0 1.374-2.019 2.3 2.3 0 0 0-2.445-2.351H420.3v7.679h1.472v-3.064h1.054l1.475 3.064H426Zm-1.317-1h-1.386v-2.03h1.386a1.016 1.016 0 1 1 0 2.03Z" transform="translate(-408.265 -1224.116)" fill="#fff"/><path id="Path_650" d="M641.391 1260.3h-1.154l-2.737 7.679h1.532l.455-1.357h2.674l.441 1.357h1.535Zm-1.495 5.059.954-2.795.919 2.795Z" transform="translate(-619.246 -1224.214)" fill="#fff"/><path id="Path_651" d="M5.874 49.73c0 1.329-.02 2.288.744 3.064a2.75 2.75 0 0 0 2.03.842 2.674 2.674 0 0 0 2.772-2.428H9.928a1.253 1.253 0 0 1-1.268 1.091 1.209 1.209 0 0 1-.942-.4c-.286-.326-.369-.693-.369-2.17s.086-1.844.369-2.167a1.209 1.209 0 0 1 .942-.4 1.253 1.253 0 0 1 1.268 1.088h1.492a2.669 2.669 0 0 0-2.772-2.428 2.755 2.755 0 0 0-2.03.842c-.763.777-.744 1.738-.744 3.066Z" fill="#fff" stroke="#fff" stroke-linecap="round" stroke-linejoin="round" stroke-width=".44"/><path id="Path_652" d="M16.636 50.259a2.061 2.061 0 0 0 1.377-2.019 2.3 2.3 0 0 0-2.442-2.354h-2.952v7.685h1.469v-3.064h1.059l1.469 3.064h1.7Zm-1.163-1h-1.386v-2.03h1.389a1.016 1.016 0 1 1 0 2.03Z" fill="#fff" stroke="#fff" stroke-linecap="round" stroke-linejoin="round" stroke-width=".44"/><path id="Rectangle_67" fill="#fff" stroke="#fff" stroke-linecap="round" stroke-linejoin="round" stroke-width=".44" d="M19.548 45.888h1.466v7.685h-1.466z"/><path id="Path_653" d="M22.304 49.73c0 1.329-.02 2.288.742 3.064a2.751 2.751 0 0 0 2.03.842 2.681 2.681 0 0 0 2.775-2.428h-1.497a1.254 1.254 0 0 1-1.271 1.091 1.222 1.222 0 0 1-.942-.4c-.286-.326-.369-.693-.369-2.17s.083-1.844.369-2.167a1.218 1.218 0 0 1 .942-.4 1.256 1.256 0 0 1 1.271 1.088h1.495a2.677 2.677 0 0 0-2.775-2.428 2.751 2.751 0 0 0-2.03.842c-.759.777-.74 1.738-.74 3.066Z" fill="#fff" stroke="#fff" stroke-linecap="round" stroke-linejoin="round" stroke-width=".44"/><path id="Path_654" d="M29.234 45.888v7.685H30.7v-2.311l.976-1.185 1.936 3.5h1.718l-2.677-4.63 2.5-3.055h-1.79l-2.66 3.347v-3.351Z" fill="#fff" stroke="#fff" stroke-linecap="round" stroke-linejoin="round" stroke-width=".44"/><path id="Path_655" d="M185.4 914.494h2.182v6.921h1.068v-6.921h2.179v-.994H185.4Z" transform="translate(-180.091 -887.344)" fill="#fff"/><path id="Path_656" d="M423.184 917.024h-3.316V913.6H418.8v7.911h1.068v-3.493h3.316v3.493h1.065V913.6h-1.065Z" transform="translate(-406.808 -887.441)" fill="#fff"/><path id="Path_657" d="M666.533 914.591v-.991H661.6v7.911h4.933v-.994h-3.868v-2.5h3.3v-.991h-3.3v-2.437Z" transform="translate(-642.656 -887.441)" fill="#fff"/><path id="Path_658" d="M210.034 1957.668H209V1950h1.034Z" transform="translate(-203.016 -1894.165)" fill="#fff"/><path id="Path_659" d="M304.644 1957.668h-.931l-3.682-5.644v5.644H299V1950h.933l3.682 5.629V1950h1.031v7.668Z" transform="translate(-290.439 -1894.165)" fill="#fff"/><path id="Path_660" d="M538.383 1955.594a3.294 3.294 0 0 1-2.594-1.016l-.089-.089.713-.722.089.092a2.363 2.363 0 0 0 1.9.773c1 0 1.595-.467 1.595-1.248a1.105 1.105 0 0 0-.3-.833 1.479 1.479 0 0 0-.888-.321l-.853-.137a2.753 2.753 0 0 1-1.406-.593 1.9 1.9 0 0 1-.6-1.483 2.2 2.2 0 0 1 2.465-2.216 3.033 3.033 0 0 1 2.259.845l.1.089-.681.687-.089-.083a2.165 2.165 0 0 0-1.615-.6c-.885 0-1.412.467-1.412 1.248a.965.965 0 0 0 .281.759 1.971 1.971 0 0 0 .925.375l.8.126a2.448 2.448 0 0 1 1.394.55 1.981 1.981 0 0 1 .661 1.563c0 1.36-1.039 2.236-2.649 2.236Z" transform="translate(-520.361 -1892.028)" fill="#fff"/><path id="Path_661" d="M747.544 1957.668h-1.031v-6.7H744.4V1950h5.257v.962h-2.113v6.706Z" transform="translate(-723.086 -1894.165)" fill="#fff"/><path id="Path_662" d="M966.831 1957.668H965.8V1950h1.031Z" transform="translate(-938.146 -1894.165)" fill="#fff"/><path id="Path_663" d="M1042.847 1957.668h-1.034v-6.7h-2.113V1950h5.26v.962h-2.113v6.706Z" transform="translate(-1009.93 -1894.165)" fill="#fff"/><path id="Path_664" d="M1256.071 1957.731a2.566 2.566 0 0 1-2.672-2.637V1950h1.034v5.031a1.645 1.645 0 1 0 3.284 0V1950h1.031v5.094a2.568 2.568 0 0 1-2.677 2.637Z" transform="translate(-1217.511 -1894.165)" fill="#fff"/><path id="Path_665" d="M1474.044 1957.668h-1.031v-6.7h-2.113V1950h5.26v.962h-2.116v6.706Z" transform="translate(-1428.783 -1894.165)" fill="#fff"/><path id="Path_666" d="M1689.287 1957.668h-4.787V1950h4.787v.962h-3.754v2.359h3.2v.959h-3.2v2.422h3.754v.965Z" transform="translate(-1636.267 -1894.165)" fill="#fff"/></svg>