<svg xmlns="http://www.w3.org/2000/svg" width="98.329" height="48.07" fill="currentColor"><defs><clipPath id="a"><path data-name="Rectangle 812" d="M0 0h98.329v48.071H0z"/></clipPath></defs><g data-name="Group 1102" clip-path="url(#a)"><path data-name="Path 8339" d="m50.952 40.38-.122-.861a.382.382 0 0 0-.042-.14c-.063-.109-.052-.274-.1-.36a.445.445 0 0 0-.022-.071 2.88 2.88 0 0 1-.137-.332 1.839 1.839 0 0 0-.1-.238c-.047-.133-.152-.271-.212-.4l-.04-.109a.956.956 0 0 0-.147-.24 2.772 2.772 0 0 0-.27-.319 5.11 5.11 0 0 0-1.888-1.2l-.413-.1a5.091 5.091 0 0 0-.348-.072 3.078 3.078 0 0 1-.465-.111 1.44 1.44 0 0 0-.6-.092 1.921 1.921 0 0 1-.325-.02 3.9 3.9 0 0 1-.389-.107 1.989 1.989 0 0 0-.848-.135 1.6 1.6 0 0 1-.581-.077 1.984 1.984 0 0 0-.8-.084.731.731 0 0 1-.2-.023 8.987 8.987 0 0 0-.861-.155c-.147-.022-.28-.043-.369-.059a1.636 1.636 0 0 1-.706-.327.48.48 0 0 1-.042-.371l.005-.018a1.06 1.06 0 0 1 1.2-.632 7.328 7.328 0 0 0 4.555-.157 3.974 3.974 0 0 0 2.006-1.392l.014-.013.009-.017a4.186 4.186 0 0 0 .731-3.045l-.005-.016a1.158 1.158 0 0 1-.045-.411 1.745 1.745 0 0 0-.3-.9 3.682 3.682 0 0 0-.42-.788c-.135-.2-.431-.533-.431-.533a4.242 4.242 0 0 0-.199-.164 2.318 2.318 0 0 1-.221-.137 2.049 2.049 0 0 0-.444-.28 1.241 1.241 0 0 1 .82-.455 1.042 1.042 0 0 1 .571-.007 2.62 2.62 0 0 1 .513.522 1.8 1.8 0 0 0 .467.386 1.053 1.053 0 0 0 .233.1c.054.039.109.076.163.11a1.178 1.178 0 0 0 1.16.01 1.377 1.377 0 0 0 .6-1.24 1.675 1.675 0 0 0-1.023-1.111 1.594 1.594 0 0 0-.829-.3.868.868 0 0 1-.275-.034 4.816 4.816 0 0 0-1.568.22 4.3 4.3 0 0 0-1.267.667 3.271 3.271 0 0 0-.761.6l-.046.013-.087-.022a7.707 7.707 0 0 0-1.5-.274 8.808 8.808 0 0 0-1.706.106 1.2 1.2 0 0 0-.429.059 5.818 5.818 0 0 0-2.75 1.907 4.434 4.434 0 0 0-.93 1.866 3.413 3.413 0 0 0 .309 2.374l.138.231a4.039 4.039 0 0 0 .875 1.133 1.634 1.634 0 0 0 .184.116 1.623 1.623 0 0 1 .349.245c-.113.057-.255.137-.383.209-.106.059-.2.113-.265.145a2.865 2.865 0 0 0-1.082.917c-.152.221-.251.357-.31.458-.163.108-.248.751-.19 1.234a2.57 2.57 0 0 1 .124.248.616.616 0 0 0 .057.136.98.98 0 0 0 .167.2l.017.016v.023a1 1 0 0 0 .6.8 2.868 2.868 0 0 0 1.277.567 1.167 1.167 0 0 1 .412.095 1.963 1.963 0 0 0 .3.091l.3.066a7.6 7.6 0 0 0 1.223.2 7.217 7.217 0 0 1 1.548.326c.28.082.57.167.87.228.078.016.173.042.271.069s.213.058.3.076a9.694 9.694 0 0 1 .99.2c.026.008.064.016.105.024a1.213 1.213 0 0 1 .253.072c1.03.232 1.538.507 1.81.979l.008.014.016.027a2.874 2.874 0 0 1 .094 1.781 5.242 5.242 0 0 1-3.174 3.843 5.035 5.035 0 0 1-1.943.416 3.176 3.176 0 0 1-.6-.051h-.068a4.713 4.713 0 0 1-2.2-.725 3.95 3.95 0 0 1-1.64-1.84 2.144 2.144 0 0 1-.227-.75c-.039-.462.057-.618.151-.666a.684.684 0 0 1 .236-.129l.064-.009.03.056a.214.214 0 0 1 .01.068 1.654 1.654 0 0 0 .124.509l.045.128a4.5 4.5 0 0 0 3.4 2.206 3.667 3.667 0 0 0 .565.043c.193 0 .382-.05.571-.042a2.372 2.372 0 0 0 .786-.191 5.117 5.117 0 0 0 1.829-1.1 3.735 3.735 0 0 0 1-2.6 1 1 0 0 0-.189-.747.525.525 0 0 0-.4-.154 1.363 1.363 0 0 0-.46.095c-.155.057-.3.106-.437.145a2.523 2.523 0 0 1-.7.107 4 4 0 0 1-2.27-.982 3.124 3.124 0 0 0-1.438-.587 1.539 1.539 0 0 0-.395.003c-.128.007-.251.008-.369.022a2.876 2.876 0 0 0-1.3.472 1.131 1.131 0 0 0-.435.567.288.288 0 0 0 .051 0 .827.827 0 0 0 .172-.022 3.518 3.518 0 0 1 .753-.1 1.983 1.983 0 0 1 .629.1 4.883 4.883 0 0 1 2.142 1.394 3.128 3.128 0 0 0 1.327.9l.068.019a2.758 2.758 0 0 0 .429.1l.248.026-.223.111a1.332 1.332 0 0 1-.555.1h-.044a2.915 2.915 0 0 1-1.724-.554l-.378-.251a1.271 1.271 0 0 1-.209-.114 11.274 11.274 0 0 0-1.17-.707 3.062 3.062 0 0 0-.726-.252l-.031-.007-.039-.006-.031-.006-.039-.006h-.017a1.906 1.906 0 0 0-.243-.017h-.16a2.345 2.345 0 0 0-.58.055c-.118.042-.23.088-.344.14a1.121 1.121 0 0 0-.413.366 2.646 2.646 0 0 0-.456 2.061l.011.041a.707.707 0 0 0 .065.3 1.06 1.06 0 0 0 .1.234.609.609 0 0 1 .089.144 4.488 4.488 0 0 0 .302.584 2.147 2.147 0 0 0 .491.72 3.555 3.555 0 0 1 .283.32 13.892 13.892 0 0 0 1.065.944 6.809 6.809 0 0 0 2.96 1.038h.072c.141.006.273 0 .3.005a1.945 1.945 0 0 0 .481-.007 12.094 12.094 0 0 0 1.274-.137h.027l.086-.039a2.732 2.732 0 0 0 .367-.063 5.732 5.732 0 0 0 .848-.311 3.928 3.928 0 0 0 .668-.354 7.622 7.622 0 0 0 1.154-.877c.038-.038.069-.086.109-.119a1.048 1.048 0 0 0 .25-.245c.285-.366.519-.694.715-1a4.179 4.179 0 0 0 .548-1c.149-.5.334-.924.434-1.417a8.043 8.043 0 0 0 .165-1.239c.011-.212.008-.415.008-.415 0-.17-.01-.32-.02-.445m-8.359-12.828a3.3 3.3 0 0 0 .148-.385 1.023 1.023 0 0 1 .4-.613 1.214 1.214 0 0 1 1.362-.075 3.076 3.076 0 0 1 .862 1.171 7.45 7.45 0 0 1 .526 2.627c0 .022 0 .047-.005.073a.578.578 0 0 0 .007.22 2.393 2.393 0 0 1-.627 1.886 1.087 1.087 0 0 1-.921.242 1.294 1.294 0 0 1-1.12-.691l-.013-.018a3.566 3.566 0 0 1-.722-1.657 5.246 5.246 0 0 1 .1-2.781"/><path data-name="Path 8340" d="M27.763 21.888a3.707 3.707 0 0 0 .507-.026c.324.013.644.019.953.026.334.007.649.014.968.027a1.472 1.472 0 0 0 .328-.025 2.448 2.448 0 0 0 .381.006c.1 0 .215-.007.376-.007.118.025.249 0 .333.023h.858a.823.823 0 0 0 .149-.017.48.48 0 0 1 .065-.009h.023c.254-.051.254-.37.254-.554a.382.382 0 0 0-.327-.365 1.4 1.4 0 0 1-.192-.076l-.021-.01h-.023a1.423 1.423 0 0 1-.96-.437 1.371 1.371 0 0 1-.327-.724l-.024-.1a1.129 1.129 0 0 0-.016-.157.663.663 0 0 1-.011-.1v-.016a6.655 6.655 0 0 1 .1-1.91.869.869 0 0 0-.028-.408.8.8 0 0 1-.029-.464 1.988 1.988 0 0 0 .026-1.016 11.106 11.106 0 0 1-.02-.133 7.826 7.826 0 0 1-.026-1.593 1.191 1.191 0 0 1 .013-.146 1.392 1.392 0 0 0 .014-.175 2.256 2.256 0 0 1 .051-.432v-.023a3.372 3.372 0 0 1 .205-1.053 2.7 2.7 0 0 1 .432-.688c.448-.476.629-.607.889-.507a1.157 1.157 0 0 1 .435.337c.043.045.089.094.141.146.133.133.277.252.417.366l.179.149.011.008a1.923 1.923 0 0 0 .975.341 2.4 2.4 0 0 0 1.073-.256l.009-.006a2.053 2.053 0 0 0 .719-2.013 2.246 2.246 0 0 0-.07-.3 2.031 2.031 0 0 1-.064-.268 1.01 1.01 0 0 0-.165-.381l-.042-.068a2.379 2.379 0 0 0-1.154-.847 3.237 3.237 0 0 0-1.518.105 6.611 6.611 0 0 0-.786.3 1.3 1.3 0 0 0-.427.315 2.086 2.086 0 0 1-.267.233 3.4 3.4 0 0 0-1.021 1.372c0-.188-.007-.378-.013-.577a24.84 24.84 0 0 1-.014-.726V8.86a2.707 2.707 0 0 0-.034-.666l-.008-.02c-.129-.258-.633-.189-.93-.08l-.558.266c-.326.141-.58.267-.825.39a11.792 11.792 0 0 1-2 .809 4.183 4.183 0 0 0-.543.163 1.031 1.031 0 0 0-.328.151.367.367 0 0 0-.18.424c0 .164 0 .317.24.4h.012a2.435 2.435 0 0 1 .691.229l.013.006a.861.861 0 0 1 .489.622c.012.191.04.372.066.547a4.48 4.48 0 0 1 .068.668 5.306 5.306 0 0 0 0 .93l.01.106h.017v.188a3.431 3.431 0 0 1-.106 1.131.566.566 0 0 0 .027.344 1.814 1.814 0 0 1 0 1.026 1.7 1.7 0 0 0-.028.674 1.973 1.973 0 0 1 0 .945 1.532 1.532 0 0 0 .025.511v.071c0 .275-.017.477-.037.733l-.015.186-.025.106a1.38 1.38 0 0 1-.33.728 1.229 1.229 0 0 1-.72.439l-.013.005a1.41 1.41 0 0 1-.192.076.386.386 0 0 0-.328.376c0 .172 0 .492.254.542h.023a.483.483 0 0 1 .065.009.821.821 0 0 0 .149.017H26.641c.084-.021.215 0 .333-.023.161 0 .279 0 .376.007a2.357 2.357 0 0 0 .395-.007"/><path data-name="Path 8341" d="M14.19 11.041v.012a1.776 1.776 0 0 0 .144.966 1.318 1.318 0 0 0 .746.632 1.725 1.725 0 0 0 1.331-.035 1.454 1.454 0 0 0 .612-.44 1.9 1.9 0 0 0 .4-1.134l.006-.1a2.109 2.109 0 0 1 .247-1.052 1.518 1.518 0 0 1 .485-.461 2.342 2.342 0 0 1 .647-.172h.105a1.087 1.087 0 0 1 .157-.013 1.264 1.264 0 0 1 1.068 1.066 4.364 4.364 0 0 1 .052 1.3 1.916 1.916 0 0 0 0 .49 2.923 2.923 0 0 1 0 .74c-.006.05-.011.137-.017.246a3.436 3.436 0 0 1-.2 1.2l-.017.027a2.118 2.118 0 0 1-1.29 1.019.832.832 0 0 1-.087.025l-.026.005c-1.295.42-2.242.745-2.821.968a4.358 4.358 0 0 0-2.012 1.661 12.48 12.48 0 0 1-.111.216 1.65 1.65 0 0 0-.248.978 2.253 2.253 0 0 0 .06.671c.016.082.033.169.048.266v.012a2.406 2.406 0 0 0 1.432 1.6 5.089 5.089 0 0 0 1.979.441 4.257 4.257 0 0 0 .514-.031 3.176 3.176 0 0 0 2.136-.868 1.05 1.05 0 0 0 .32-.962.474.474 0 0 0-.251-.309.208.208 0 0 0-.2.03 1.169 1.169 0 0 1-.858.271 1.7 1.7 0 0 1-1.023-.368l-.021-.016a1.084 1.084 0 0 1-.405-.6 1.857 1.857 0 0 1 .1-1.6 3.1 3.1 0 0 1 1.439-1.1 4.381 4.381 0 0 0 1.476-.881.945.945 0 0 1 .023.1 10.4 10.4 0 0 1-.025 1.077v.013c-.022.426.011 1 .038 1.468l.016.282a3.672 3.672 0 0 0 .551 1.929 2.382 2.382 0 0 0 1.155 1.093 4.461 4.461 0 0 0 2.82.191.486.486 0 0 0 .372-.427l.02-.077a.365.365 0 0 0-.044-.274.253.253 0 0 0-.163-.122 1.716 1.716 0 0 1-.92-1.341l-.009-.078a6.952 6.952 0 0 1-.066-1.585c.011-.117.006-.764.021-.945a1.989 1.989 0 0 0 0-.465 1.878 1.878 0 0 0-.018-.217.892.892 0 0 1 .014-.411 1.343 1.343 0 0 0 .016-.465 3.107 3.107 0 0 1-.012-.236c0-.348.01-.706.02-1.085a16.113 16.113 0 0 0-.1-3 3.8 3.8 0 0 0-.716-1.868 4.062 4.062 0 0 0-1.866-1.118c-.285-.057-.752-.112-1.164-.161-.083-.01-.23-.041-.376-.049a2.9 2.9 0 0 0-.357.009 5.715 5.715 0 0 0-.858.094 2.757 2.757 0 0 1-.437.055 5.444 5.444 0 0 0-.245.022h-.014c-.064.016-.126.03-.186.043a3.1 3.1 0 0 0-.448.124c-.118.052-.239.1-.356.145s-.24.093-.36.147a3.543 3.543 0 0 0-1.3.8c-.048.048-.1.094-.148.139a1.647 1.647 0 0 0-.468.6c-.037.1-.081.2-.124.3a2.588 2.588 0 0 0-.2.577"/><path data-name="Path 8342" d="M36.586 17.845a5.866 5.866 0 0 0 3.26 3.77l.051.016a.787.787 0 0 1 .188.076 2.916 2.916 0 0 0 1.708.479h.19a3.212 3.212 0 0 1 .467-.006c.087 0 .177.006.27.006a2.907 2.907 0 0 0 1.362-.332 3.889 3.889 0 0 0 1.631-1.281.7.7 0 0 1 .09-.071l.038-.028c.052.169.118.354.181.535.082.233.16.454.2.6a.625.625 0 0 0 .583.492h.013a1.236 1.236 0 0 0 .444-.113 1.931 1.931 0 0 1 .233-.08 11.71 11.71 0 0 0 1.69-.689c.335-.159.682-.324 1.1-.49a4.586 4.586 0 0 0 .76-.325.462.462 0 0 0 .282-.47.541.541 0 0 0-.112-.408.6.6 0 0 0-.422-.2l-.081-.007a1.506 1.506 0 0 1-.677-.167 1.4 1.4 0 0 1-.5-1.06c-.026-.262-.026-.557-.026-.818 0-1.206-.017-2.051-.031-2.73a14.44 14.44 0 0 1 .084-2.584 3.687 3.687 0 0 0-.026-.628c-.013-.146-.026-.284-.026-.376v-.955c0-1.384.009-2.95-.056-3.364a4.093 4.093 0 0 1 .051-.6 2.492 2.492 0 0 0 .029-.688 20.775 20.775 0 0 1-.035-2.945c.018-.454.036-.923.036-1.406a1.4 1.4 0 0 0-.184-.766.474.474 0 0 0-.394-.232 1.644 1.644 0 0 0-.678.2l-.067.03c-.263.123-.523.25-.784.376a16.275 16.275 0 0 1-3.192 1.278.523.523 0 0 0-.346.439v.019a.275.275 0 0 1-.009.049.6.6 0 0 0-.018.138c0 .42.106.458.472.524l.113.02a2.437 2.437 0 0 1 .758.226l.011.006a1.282 1.282 0 0 1 .626 1.184V4.5a3.329 3.329 0 0 1 .025.514l-.054 3.4a2.934 2.934 0 0 1-.052.436v.019a.1.1 0 0 1-.064.08.062.062 0 0 1-.068-.007 2.767 2.767 0 0 0-1.56-.642 1.787 1.787 0 0 1-.656-.176l-.024-.009a.792.792 0 0 1-.082-.026.362.362 0 0 0-.242-.027 2.674 2.674 0 0 1-.751.041 2.668 2.668 0 0 0-.893.069c-.139.05-.274.1-.409.156-.231.091-.45.177-.687.245a2.964 2.964 0 0 0-1.084.612c-.438.389-.887.829-1.37 1.343a2.6 2.6 0 0 0-.534.9c-.159.4-.348.776-.533 1.146a5.011 5.011 0 0 0-.519 1.89 9.586 9.586 0 0 0 .3 3.386m3.573-3.328a5.393 5.393 0 0 1 .05-.587c.042-.166.079-.333.117-.5a7.907 7.907 0 0 1 .41-1.4 1.468 1.468 0 0 0 .141-.364 3.763 3.763 0 0 1 .9-1.286 4.851 4.851 0 0 1 1.416-.752l.1-.039.007-.007a4.9 4.9 0 0 0 .525.1 2.574 2.574 0 0 1 .852.234 1.967 1.967 0 0 1 .911.781 1.919 1.919 0 0 1 .164.572c.011.064.022.125.035.182a4.275 4.275 0 0 0 0 .536c0 .079.006.156.006.226-.023.372-.022.748-.021 1.111a12.51 12.51 0 0 1-.059 1.531 1.4 1.4 0 0 0 .038.423 1.768 1.768 0 0 1 .041.318c.024.715.053 1.6.054 2.454a2.03 2.03 0 0 1-.886 1.621 1.717 1.717 0 0 1-1.482.252 3.6 3.6 0 0 1-1.483-.753 6.607 6.607 0 0 1-1.5-2.114 1.173 1.173 0 0 1-.135-.451c-.011-.069-.022-.139-.039-.211 0 0-.131-.592-.167-.887a6.664 6.664 0 0 1 .009-.986"/><path data-name="Path 8343" d="m63.083 17.078-.026-.014a.438.438 0 0 0-.571.085l-.013.021a3.032 3.032 0 0 1-.386.538l-.01.013a4.2 4.2 0 0 1-1.071.962 3.058 3.058 0 0 1-2.212.673l-.136-.021a2.847 2.847 0 0 1-1.285-.412 2 2 0 0 0-.432-.231 2.609 2.609 0 0 1-1.463-1.419 7.653 7.653 0 0 1-.605-1.687 3.609 3.609 0 0 1-.078-1.478c.044-.273.06-.52.075-.758a5.192 5.192 0 0 1 .349-1.739 3.915 3.915 0 0 1 1.2-1.824 1.439 1.439 0 0 1 1.093-.323l.034.005a1.2 1.2 0 0 1 1 .743 3.1 3.1 0 0 1 .441 1.482l.016.144c.036.322.061.554 0 .618-.028.031-.1.046-.225.046h-.016a3.756 3.756 0 0 1-.518 0c-.082 0-.157-.007-.225 0l-.146.013a1.8 1.8 0 0 1-.575-.012h-.024l-.023.006a1.4 1.4 0 0 1-.409.027h-.5c-.326 0-.491.21-.491.625a.5.5 0 0 0 .128.4.319.319 0 0 0 .263.066 8.205 8.205 0 0 1 .837.01c.179.008.366.016.559.016a6.886 6.886 0 0 1 1.953 0h.017c.073 0 .144-.007.212-.014s.128-.013.189-.013c.267 0 .514-.015.754-.029a8.154 8.154 0 0 1 1.361 0c.111 0 .221-.007.328-.014s.211-.013.314-.013h.023a.378.378 0 0 0 .308-.382 2.707 2.707 0 0 0-.057-.671 12.328 12.328 0 0 0-.491-1.63l-.115-.236a3.174 3.174 0 0 0-.9-1.272 1.817 1.817 0 0 1-.132-.157 1.915 1.915 0 0 0-.153-.18 1.768 1.768 0 0 0-.67-.4 3.823 3.823 0 0 1-.352-.16 3.465 3.465 0 0 0-1.172-.317c-.094-.014-.188-.027-.279-.042a3.787 3.787 0 0 0-.894-.046 4.848 4.848 0 0 1-.642-.009.92.92 0 0 0-.486.1 2.171 2.171 0 0 1-.233.088 1.186 1.186 0 0 1-.181.008 1.247 1.247 0 0 0-.26.016 5.268 5.268 0 0 0-2.6 1.258c-.244.216-.49.463-.728.7a6.11 6.11 0 0 0-1.281 2.117c-.091.214-.185.436-.291.664l-.01.032a.919.919 0 0 1-.06.224.269.269 0 0 0-.021.075l-.063.4a5.464 5.464 0 0 0-.1 1.606c.017.184.023.377.029.563a4.755 4.755 0 0 0 .135 1.171 7.986 7.986 0 0 0 .293.8 6.522 6.522 0 0 1 .321.91l.013.032a7.688 7.688 0 0 0 .923 1.276 5.15 5.15 0 0 0 2.077 1.423 6.706 6.706 0 0 0 1.014.307c.188.046.383.094.573.151a3.04 3.04 0 0 0 .721.139 5.057 5.057 0 0 0 .505.025 8.315 8.315 0 0 0 2.73-.539l.015-.006a5.759 5.759 0 0 0 1.911-1.476 7.643 7.643 0 0 0 .784-1.27 2.914 2.914 0 0 0 .443-1.216c.068-.34-.153-.466-.331-.567"/><path data-name="Path 8344" d="M63.676 21.886h.023a.481.481 0 0 1 .065.009.822.822 0 0 0 .149.017H64.503c.084-.021.215 0 .333-.023.161 0 .279 0 .376.008a2.358 2.358 0 0 0 .395-.008h.127c.339 0 .682-.007 1.013-.014s.647-.013.962-.013a5.932 5.932 0 0 0 .642.027 2.356 2.356 0 0 0 .394.008c.1 0 .215-.007.376-.008.118.025.249 0 .333.023h.59a.825.825 0 0 0 .149-.017.478.478 0 0 1 .065-.009h.023c.254-.051.254-.37.254-.554a.382.382 0 0 0-.327-.365 1.4 1.4 0 0 1-.192-.076l-.013-.005a1.231 1.231 0 0 1-.723-.443 1.371 1.371 0 0 1-.327-.724l-.024-.1a1.5 1.5 0 0 0-.014-.161 1.217 1.217 0 0 1-.013-.151 6.737 6.737 0 0 1 .1-1.921.73.73 0 0 0-.054-.434c0-.019-.007-.039-.011-.059a.68.68 0 0 1 0-.4v-.012a2.51 2.51 0 0 0 0-1.118 10.122 10.122 0 0 1 .13-2.658 5.175 5.175 0 0 1 .347-.7c.09-.16.183-.325.264-.5a3.513 3.513 0 0 1 1.719-1.631 1.433 1.433 0 0 1 .936-.163 1.039 1.039 0 0 1 .752.47 2.222 2.222 0 0 1 .3 1.252c0 .476.019.957.04 1.466a23.369 23.369 0 0 1-.039 3.421v.012c0 .259.011.492.022.717a6.236 6.236 0 0 1-.047 1.432v.019a.426.426 0 0 0 .017.108.259.259 0 0 1 .01.052v.027c0 .274-.016.476-.037.731l-.015.188-.025.106a1.379 1.379 0 0 1-.33.729 1.229 1.229 0 0 1-.72.439l-.013.005a1.4 1.4 0 0 1-.192.076.386.386 0 0 0-.328.376c0 .172 0 .492.254.542h.023a.477.477 0 0 1 .065.009.826.826 0 0 0 .149.017H72.809c.084-.021.215 0 .333-.023.161 0 .279 0 .376.008a2.359 2.359 0 0 0 .395-.008 5.5 5.5 0 0 0 .615-.027h1.486a5.938 5.938 0 0 0 .642.027 2.355 2.355 0 0 0 .394.008c.1 0 .215-.007.376-.008.118.025.249 0 .333.023h.59a.823.823 0 0 0 .149-.017.478.478 0 0 1 .065-.009h.023c.254-.051.254-.37.254-.542v-.012a.382.382 0 0 0-.327-.365 1.4 1.4 0 0 1-.192-.076l-.013-.005a1.234 1.234 0 0 1-.726-.447 1.124 1.124 0 0 1-.3-.674l-.019-.1a4.815 4.815 0 0 1-.053-1.054v-.455c0-.339.02-.672.04-.994a10.321 10.321 0 0 0 .013-1.585c-.052-.66-.024-1.627 0-2.48.013-.461.026-.9.026-1.258a3.994 3.994 0 0 0-.714-2.685 3 3 0 0 0-2.167-1.124h-.019c-.183 0-.371-.012-.553-.023a4.784 4.784 0 0 0-1.176.025 4.852 4.852 0 0 0-2.609 1.184c-.107.107-.226.21-.341.309a2.965 2.965 0 0 0-.7.765.2.2 0 0 1-.048.058c0-.193-.007-.387-.013-.592a24.84 24.84 0 0 1-.014-.726v-.169a2.7 2.7 0 0 0-.034-.666l-.008-.02c-.129-.258-.633-.188-.93-.08l-.558.266c-.325.141-.579.267-.825.39a11.782 11.782 0 0 1-2 .809 4.189 4.189 0 0 0-.543.163 1.034 1.034 0 0 0-.328.151.367.367 0 0 0-.18.424c0 .164 0 .317.24.4h.012a2.435 2.435 0 0 1 .692.229l.013.006a.86.86 0 0 1 .489.622c.012.191.039.372.066.547a4.465 4.465 0 0 1 .068.668 10.022 10.022 0 0 1-.023 1.555.57.57 0 0 0 .028.346 5.205 5.205 0 0 1-.056 1.747 1.848 1.848 0 0 0-.029.685v.014a11.519 11.519 0 0 1 .023 1.578c0 .275-.077 1.025-.077 1.025a1.38 1.38 0 0 1-.33.728 1.229 1.229 0 0 1-.72.439l-.013.005a1.4 1.4 0 0 1-.192.076.386.386 0 0 0-.328.376c0 .172 0 .492.254.542"/><path data-name="Path 8345" d="M62.681 37.84a1.716 1.716 0 0 1-.92-1.341l-.009-.078a5.171 5.171 0 0 1-.04-1.78.606.606 0 0 0-.005-.221 2.233 2.233 0 0 1 0-.529 1.991 1.991 0 0 0 0-.465 1.887 1.887 0 0 0-.018-.217.891.891 0 0 1 .014-.411 1.339 1.339 0 0 0 .016-.465 3.107 3.107 0 0 1-.012-.236c0-.348.01-.706.02-1.085a16.122 16.122 0 0 0-.1-3 3.8 3.8 0 0 0-.716-1.868 4.061 4.061 0 0 0-1.866-1.118c-.285-.057-.752-.112-1.164-.161-.172-.02-.329-.039-.45-.055h-.024l-.26.016a5.726 5.726 0 0 0-.858.094 2.757 2.757 0 0 1-.437.055 5.444 5.444 0 0 0-.245.022h-.014c-.064.016-.126.03-.186.043a3.085 3.085 0 0 0-.448.124c-.118.052-.239.1-.356.145s-.24.093-.36.147a3.543 3.543 0 0 0-1.3.8c-.049.048-.1.094-.148.139a1.645 1.645 0 0 0-.468.6c-.037.1-.081.2-.124.3a2.582 2.582 0 0 0-.2.577v.012a1.776 1.776 0 0 0 .144.966 1.317 1.317 0 0 0 .746.631 1.724 1.724 0 0 0 1.331-.035 1.454 1.454 0 0 0 .612-.44 1.9 1.9 0 0 0 .4-1.134l.006-.1a2.109 2.109 0 0 1 .247-1.052 1.518 1.518 0 0 1 .485-.461 1.934 1.934 0 0 1 .752-.176h.019a1.2 1.2 0 0 1 1.205 1.059 4.364 4.364 0 0 1 .052 1.3 1.916 1.916 0 0 0 0 .49 2.921 2.921 0 0 1 0 .74c-.006.05-.011.137-.017.247a3.437 3.437 0 0 1-.2 1.2l-.017.027a1.939 1.939 0 0 1-1.377 1.045l-.026.005c-1.295.42-2.242.745-2.821.968a4.358 4.358 0 0 0-2.012 1.661 7.765 7.765 0 0 1-.112.216 1.65 1.65 0 0 0-.248.978 2.253 2.253 0 0 0 .06.671c.016.082.033.169.048.266v.012a2.406 2.406 0 0 0 1.432 1.6 5.09 5.09 0 0 0 1.979.441 4.263 4.263 0 0 0 .514-.031 3.176 3.176 0 0 0 2.136-.868 1.051 1.051 0 0 0 .32-.962.474.474 0 0 0-.251-.309.208.208 0 0 0-.2.03 1.168 1.168 0 0 1-.858.271 1.7 1.7 0 0 1-1.023-.368l-.021-.016a1.084 1.084 0 0 1-.405-.6 1.856 1.856 0 0 1 .1-1.6 3.1 3.1 0 0 1 1.439-1.1 4.38 4.38 0 0 0 1.477-.881.977.977 0 0 1 .023.1 10.427 10.427 0 0 1-.025 1.077v.013c-.023.426.011 1 .038 1.468l.016.282a3.673 3.673 0 0 0 .551 1.929 2.382 2.382 0 0 0 1.155 1.093 4.461 4.461 0 0 0 2.82.191.486.486 0 0 0 .372-.427l.02-.077a.364.364 0 0 0-.044-.274.253.253 0 0 0-.163-.122"/><path data-name="Path 8346" d="M38.195 26.7a2.258 2.258 0 0 0-.07-.3 2.04 2.04 0 0 1-.064-.268 1.009 1.009 0 0 0-.165-.381l-.042-.068a2.379 2.379 0 0 0-1.154-.847 3.236 3.236 0 0 0-1.518.105 6.617 6.617 0 0 0-.786.3 1.3 1.3 0 0 0-.427.315 2.094 2.094 0 0 1-.267.233 3.405 3.405 0 0 0-1.021 1.372c0-.188-.007-.378-.013-.577a24.84 24.84 0 0 1-.014-.726v-.169a2.711 2.711 0 0 0-.034-.666l-.008-.02c-.129-.258-.633-.189-.93-.08l-.558.266c-.326.141-.58.267-.825.39a11.794 11.794 0 0 1-2 .809 4.177 4.177 0 0 0-.543.163 1.032 1.032 0 0 0-.328.151.367.367 0 0 0-.18.424c0 .164 0 .317.24.4h.012a2.435 2.435 0 0 1 .691.229l.013.006a.861.861 0 0 1 .489.622c.012.191.039.372.066.547a4.473 4.473 0 0 1 .068.668 5.294 5.294 0 0 0 0 .93l.01.106h.017v.189a3.426 3.426 0 0 1-.105 1.131.566.566 0 0 0 .028.344 1.79 1.79 0 0 1 0 1.026 1.7 1.7 0 0 0-.028.674 1.974 1.974 0 0 1 0 .945 1.532 1.532 0 0 0 .025.511v.071c0 .275-.017.477-.037.733l-.015.186-.025.106a1.379 1.379 0 0 1-.33.728 1.229 1.229 0 0 1-.72.439l-.013.005a1.4 1.4 0 0 1-.192.076.386.386 0 0 0-.327.376c0 .172 0 .492.254.542h.023a.488.488 0 0 1 .065.009.815.815 0 0 0 .149.017H28.196c.084-.021.215 0 .333-.023.161 0 .279 0 .376.008a2.353 2.353 0 0 0 .394-.008 3.7 3.7 0 0 0 .507-.026c.324.013.644.019.953.026.334.007.649.014.968.027a1.471 1.471 0 0 0 .328-.025 2.438 2.438 0 0 0 .381.006c.1 0 .215-.007.376-.008.118.025.249 0 .333.023h.858a.815.815 0 0 0 .149-.017.486.486 0 0 1 .065-.009h.023c.254-.051.254-.37.254-.554a.382.382 0 0 0-.327-.365 1.4 1.4 0 0 1-.192-.076l-.021-.01h-.023a1.423 1.423 0 0 1-.96-.437 1.371 1.371 0 0 1-.327-.724l-.024-.1a1.111 1.111 0 0 0-.016-.157.654.654 0 0 1-.01-.1v-.016a6.658 6.658 0 0 1 .1-1.91.87.87 0 0 0-.028-.408.8.8 0 0 1-.029-.464 1.989 1.989 0 0 0 .026-1.016 11.106 11.106 0 0 1-.02-.133 7.832 7.832 0 0 1-.026-1.593 1.2 1.2 0 0 1 .013-.146 1.4 1.4 0 0 0 .014-.175 2.258 2.258 0 0 1 .051-.432v-.023a3.374 3.374 0 0 1 .205-1.053 2.692 2.692 0 0 1 .433-.688c.447-.475.628-.607.889-.507a1.158 1.158 0 0 1 .435.337c.043.045.089.094.141.146.133.133.277.252.417.366l.179.149.011.008a1.925 1.925 0 0 0 .975.341 2.4 2.4 0 0 0 1.073-.256l.009-.006a2.053 2.053 0 0 0 .719-2.013"/><path data-name="Path 8347" d="M78.571 37.798a1.409 1.409 0 0 1-.192-.076l-.013-.005a1.233 1.233 0 0 1-.726-.447 1.123 1.123 0 0 1-.3-.674l-.019-.1a4.813 4.813 0 0 1-.052-1.054v-.455c0-.339.02-.672.04-.994a10.29 10.29 0 0 0 .013-1.585c-.052-.66-.024-1.627 0-2.48.014-.461.026-.9.026-1.258a3.994 3.994 0 0 0-.714-2.685 3 3 0 0 0-2.167-1.124h-.019c-.183 0-.371-.012-.553-.023a4.781 4.781 0 0 0-1.176.024 4.852 4.852 0 0 0-2.609 1.184c-.107.107-.226.21-.341.309a2.963 2.963 0 0 0-.7.765.2.2 0 0 1-.048.059c0-.193-.007-.388-.013-.592a24.84 24.84 0 0 1-.014-.726v-.169a2.711 2.711 0 0 0-.034-.666l-.008-.02c-.129-.258-.633-.189-.93-.08l-.558.266c-.326.141-.58.267-.825.39a11.783 11.783 0 0 1-2 .809 4.175 4.175 0 0 0-.543.163 1.03 1.03 0 0 0-.328.151.367.367 0 0 0-.18.424c0 .164 0 .317.24.4h.012a2.434 2.434 0 0 1 .691.229l.013.006a.861.861 0 0 1 .489.622c.012.191.039.372.066.547a4.466 4.466 0 0 1 .068.668 9.455 9.455 0 0 0 .027 1.036v.091c0 .414-.005 2.181-.078 2.522a1.843 1.843 0 0 0-.029.685v.014a1.957 1.957 0 0 1 0 .93.948.948 0 0 0 .007.47l.015.08v.1c0 .275-.017.477-.037.733l-.015.186-.025.106a1.379 1.379 0 0 1-.33.728c-.163.233-.338.3-.72.439l-.013.005a1.4 1.4 0 0 1-.192.076.386.386 0 0 0-.328.376c0 .172 0 .492.254.542h.023a.48.48 0 0 1 .065.009.823.823 0 0 0 .149.017H64.53c.084-.021.215 0 .333-.023.161 0 .279 0 .376.008a2.366 2.366 0 0 0 .394-.008h.127c.339 0 .682-.007 1.013-.014s.647-.013.961-.013a5.934 5.934 0 0 0 .642.027 2.368 2.368 0 0 0 .395.008c.1 0 .215-.007.376-.008.118.025.249 0 .333.023h.59a.826.826 0 0 0 .149-.017.477.477 0 0 1 .065-.009h.023c.254-.051.254-.37.254-.554a.382.382 0 0 0-.327-.365 1.392 1.392 0 0 1-.192-.076l-.013-.005a1.231 1.231 0 0 1-.723-.443 1.371 1.371 0 0 1-.327-.724l-.024-.1a1.5 1.5 0 0 0-.014-.161 1.193 1.193 0 0 1-.013-.151 9.69 9.69 0 0 1 .021-1.777 2.574 2.574 0 0 0 .029-.578l-.011-.059c-.025-.133.023-.686.009-1.061s.055-.793 0-1.118a5.8 5.8 0 0 1 .13-2.008 5.161 5.161 0 0 1 .347-.7c.09-.16.183-.325.264-.5a3.513 3.513 0 0 1 1.719-1.631 1.433 1.433 0 0 1 .936-.163 1.04 1.04 0 0 1 .752.471 2.222 2.222 0 0 1 .3 1.252c0 .476.019.957.04 1.466a23.371 23.371 0 0 1-.039 3.421v.012c0 .259.011.492.022.717.023.482-.006 1.272 0 1.3a2.971 2.971 0 0 1-.02.334c0 .195-.017.476-.037.731a1.63 1.63 0 0 1-.015.187l-.025.106a1.379 1.379 0 0 1-.33.729 1.23 1.23 0 0 1-.72.439l-.013.005a1.4 1.4 0 0 1-.192.076.386.386 0 0 0-.328.376c0 .172 0 .492.254.542h.023a.475.475 0 0 1 .065.009.826.826 0 0 0 .149.017H72.848c.084-.021.215 0 .333-.023.161 0 .279 0 .376.008a2.366 2.366 0 0 0 .394-.008 5.5 5.5 0 0 0 .615-.027h1.486a5.937 5.937 0 0 0 .642.027 2.366 2.366 0 0 0 .394.008c.1 0 .215-.007.376-.008.118.025.249 0 .333.023h.59a.825.825 0 0 0 .149-.017.474.474 0 0 1 .065-.009h.023c.254-.051.254-.37.254-.542v-.002a.382.382 0 0 0-.327-.365"/><path data-name="Path 8348" d="M86.119 37.801a1.414 1.414 0 0 1-.192-.076l-.013-.005a1.231 1.231 0 0 1-.723-.443 1.371 1.371 0 0 1-.327-.724l-.024-.1a1.725 1.725 0 0 0-.017-.2.93.93 0 0 1-.01-.106v-.964c0-.1 0-.212.008-.321a3.545 3.545 0 0 0-.041-.891 1.379 1.379 0 0 1-.014-.572 1.45 1.45 0 0 0-.029-.658 1.507 1.507 0 0 0-.028-.626 1.361 1.361 0 0 1-.032-.524 5.3 5.3 0 0 0 .082-.922c.027-.366.027-.722.027-1.1s0-.739.027-1.123v-.028a5.272 5.272 0 0 1 0-1.1v-.035c0-.226-.006-.453-.013-.692s-.014-.484-.014-.726v-.169a2.71 2.71 0 0 0-.034-.666l-.008-.02c-.129-.258-.633-.189-.93-.08l-.558.266c-.326.141-.579.267-.825.39a11.789 11.789 0 0 1-2 .809 4.159 4.159 0 0 0-.543.163 1.029 1.029 0 0 0-.328.151.367.367 0 0 0-.18.424c0 .164 0 .317.24.4h.012a2.439 2.439 0 0 1 .692.229l.013.006a.86.86 0 0 1 .489.625 8.3 8.3 0 0 0 .059.459c.019.128.036.249.048.36v.29c-.027.647 0 1.3.028 1.948a9.821 9.821 0 0 1 .04 1.638c-.007.238-.015.485-.015.728 0 .209 0 .429-.006.654-.006.467-.012.95.005 1.4-.014.1-.02.192-.027.292s-.013.184-.025.282l-.025.109a1.379 1.379 0 0 1-.33.728 1.229 1.229 0 0 1-.72.439l-.013.005a1.408 1.408 0 0 1-.192.076.386.386 0 0 0-.327.376c0 .172 0 .492.254.542h.023a.485.485 0 0 1 .065.009.823.823 0 0 0 .149.017H80.407c.084-.021.215 0 .333-.023.161 0 .279 0 .376.007a2.368 2.368 0 0 0 .394-.007h.139a1 1 0 0 0 .242.038.5.5 0 0 0 .107-.011c.172 0 .339-.007.5-.014s.332-.013.5-.013a3.183 3.183 0 0 0 .482-.048.284.284 0 0 0 .127.021 5.936 5.936 0 0 0 .642.027 2.368 2.368 0 0 0 .394.007c.1 0 .215-.007.376-.007.118.025.249 0 .333.023h.59a.826.826 0 0 0 .149-.017.477.477 0 0 1 .065-.009h.023c.254-.051.254-.37.254-.542v-.012a.382.382 0 0 0-.327-.365"/><path data-name="Path 8349" d="M98.177 34.636a.427.427 0 0 0-.31-.219.389.389 0 0 0-.33.115 1.911 1.911 0 0 0-.359.439l-.045.043a3.236 3.236 0 0 1-1.522 1.013 5.483 5.483 0 0 1-.637.133.689.689 0 0 1-.371 0 3.477 3.477 0 0 0-.846-.125l-.193-.013a3.7 3.7 0 0 1-1.428-.468 3.224 3.224 0 0 1-.7-.516 8.478 8.478 0 0 1-.739-.9l-.012-.016-.016-.011c-.04-.026-.059-.065-.086-.172l-.005-.016c-.187-.454-.349-.914-.508-1.364a4.683 4.683 0 0 1-.233-.852 1.243 1.243 0 0 1 .019-.293 1.064 1.064 0 0 0-.015-.511c.017-.132.033-.27.05-.413a5.054 5.054 0 0 1 .491-2l.01-.02a4.229 4.229 0 0 1 1.17-1.746c.061-.049.121-.1.181-.155a1.118 1.118 0 0 1 .612-.355h.028l.023-.014a1.312 1.312 0 0 1 1.19.026l.025.012a.859.859 0 0 1 .213.094l.014.008a1.855 1.855 0 0 1 .951 1.486 2.721 2.721 0 0 0 .251.813 1.678 1.678 0 0 0 1.31.975 1.266 1.266 0 0 0 1.361-.835 1.819 1.819 0 0 0-.016-1.393 2.213 2.213 0 0 0-.757-1.156l-.027-.019a.693.693 0 0 1-.175-.153 2.01 2.01 0 0 0-.063-.066l-.012-.011a6.049 6.049 0 0 0-1.818-.924 3.405 3.405 0 0 0-1.34-.187c-.146 0-.3 0-.458-.009a4.454 4.454 0 0 0-1.451.161 3.743 3.743 0 0 0-.89.239 4.6 4.6 0 0 1-.613.19 2.816 2.816 0 0 0-1.216.715 5.085 5.085 0 0 1-.2.163l-.1.077a1.061 1.061 0 0 1-.169.122 1.06 1.06 0 0 0-.476.432 1.1 1.1 0 0 1-.245.277l-.032.023-.012.038a2.131 2.131 0 0 1-.364.625 3.121 3.121 0 0 0-.3.453 5.611 5.611 0 0 0-.348.871c-.045.133-.09.267-.14.4-.038.1-.076.231-.112.355s-.082.281-.122.377a.544.544 0 0 0-.091.434l.006.018a.554.554 0 0 1-.009.349c-.01.042-.019.082-.027.129a6.962 6.962 0 0 0 1.572 5.644 1.031 1.031 0 0 0 .229.244c.036.031.073.061.111.1a7.4 7.4 0 0 0 1.921 1.13c.214.1.436.2.647.306a.622.622 0 0 0 .23.065 14.981 14.981 0 0 0 2.176.214h.069a5.414 5.414 0 0 0 4.1-2.165c.1-.146.218-.282.329-.413a3.252 3.252 0 0 0 .614-.933.653.653 0 0 0 .026-.866"/><path data-name="Path 8350" d="M82.087 23.819a2.492 2.492 0 0 0 1.368-.25 1.956 1.956 0 0 0 1.026-1.184 2.413 2.413 0 0 0-.25-1.815 2.274 2.274 0 0 0-1.527-1.05 2.309 2.309 0 0 0-.526-.037 2.443 2.443 0 0 0-.544.087 1.867 1.867 0 0 0-1.274 1.262 3.2 3.2 0 0 0-.139.942c0 .136-.005.311-.005.5a2.121 2.121 0 0 0 .29.645 2.8 2.8 0 0 0 1.582.9"/><path data-name="Path 8351" d="M26.473 29.001a10.191 10.191 0 0 0-1.487-2.478 4.582 4.582 0 0 1-.578-.44 3.409 3.409 0 0 0-1.955-1.046 5.383 5.383 0 0 0-2.258-.413c-.468 0-.881.028-1.349.055a6.5 6.5 0 0 0-2.671.771l-.661.385a4.115 4.115 0 0 0-1.046.771 9.7 9.7 0 0 0-1.872 3.221.39.39 0 0 0-.055.165c.027.771-.3 1.487-.193 2.092a6.17 6.17 0 0 0 .523 2.808 5.58 5.58 0 0 0 1.927 2.368 7.8 7.8 0 0 0 3.029 1.487 7.336 7.336 0 0 0 1.487.193 2.532 2.532 0 0 0 1.019.028c.386-.083.688-.083 1.1-.138a5.062 5.062 0 0 0 2.671-1.211 6.454 6.454 0 0 0 1.79-1.982 6.333 6.333 0 0 0 .743-1.872 9.616 9.616 0 0 0 .055-3.965 6.749 6.749 0 0 0-.22-.8m-3.717 5.562a8.107 8.107 0 0 1-.716 2.23c-.468.688-1.432 1.212-2.093.881a3.2 3.2 0 0 1-2.258-1.625 8.687 8.687 0 0 1-1.211-4.68v-.358a5.692 5.692 0 0 1 .137-2.118 4.076 4.076 0 0 1 .881-2.2 2.249 2.249 0 0 1 3.414-.413 4.467 4.467 0 0 1 1.157 2.038 11.045 11.045 0 0 1 .633 2.258 9.725 9.725 0 0 1 .055 3.992"/><path data-name="Path 8352" d="M13.13 23.508a2.081 2.081 0 0 1 .137-.537l.009-.019v-.021a3.757 3.757 0 0 0-.142-1.3 3.35 3.35 0 0 1-.073-.325 2.282 2.282 0 0 0-.589-1.109 4.046 4.046 0 0 0-2.109-1.142l-.415-.1a5.236 5.236 0 0 0-.349-.072 3.1 3.1 0 0 1-.467-.111 1.443 1.443 0 0 0-.6-.093 1.94 1.94 0 0 1-.326-.02 3.9 3.9 0 0 1-.39-.107 2 2 0 0 0-.851-.135 1.6 1.6 0 0 1-.582-.077c-.235-.06-.6-.026-1.006-.107-.2-.056-.554-.109-.863-.156a14.389 14.389 0 0 1-.37-.059 1.64 1.64 0 0 1-.708-.328.482.482 0 0 1-.042-.372L3.4 17.3a1.063 1.063 0 0 1 1.2-.634 8.332 8.332 0 0 0 2.871.243 9.921 9.921 0 0 0 1.7-.4l.588-.176a1.011 1.011 0 0 0 .432-.266c.22-.226.615-.606.842-.822a1.523 1.523 0 0 0 .292-.385 3.908 3.908 0 0 0 .614-2.833l-.005-.016a1.162 1.162 0 0 1-.045-.412 1.611 1.611 0 0 0-.242-.8c-.021-.037-.1-.2-.118-.247a4.775 4.775 0 0 0-.624-1c-.041-.052-.175-.183-.175-.183l-.069-.057a3.65 3.65 0 0 0-.131-.107 3.855 3.855 0 0 0-.344-.251 3.448 3.448 0 0 0-.236-.129 1.217 1.217 0 0 1 .752-.377.784.784 0 0 1 .205-.039c.486-.08.986.382 1.275.768a1.8 1.8 0 0 0 .468.387 1.178 1.178 0 0 0 1.16.01 1.377 1.377 0 0 0 .6-1.24 1.194 1.194 0 0 0-.533-.825 1.5 1.5 0 0 0-.921-.377.87.87 0 0 1-.276-.034 4.83 4.83 0 0 0-1.573.221 4.312 4.312 0 0 0-1.271.67 2.875 2.875 0 0 0-.644.487 2.791 2.791 0 0 0-.574-.2l-.088-.022a7.74 7.74 0 0 0-1.5-.275 8.85 8.85 0 0 0-1.712.106 1.2 1.2 0 0 0-.43.06 5.836 5.836 0 0 0-2.758 1.913 4.448 4.448 0 0 0-.932 1.872 3.424 3.424 0 0 0 .31 2.382l.139.232a4.049 4.049 0 0 0 .868 1.133 1.625 1.625 0 0 0 .184.117 1.637 1.637 0 0 1 .35.246c-.114.057-.255.137-.384.209-.106.06-.2.114-.266.145a2.876 2.876 0 0 0-1.085.92A2.643 2.643 0 0 0 .84 19.65a1.593 1.593 0 0 0 .773 1.093 2.93 2.93 0 0 0 1.322.582 1.1 1.1 0 0 1 .389.091 2.068 2.068 0 0 0 .31.094l.3.066a7.685 7.685 0 0 0 1.237.2 17.638 17.638 0 0 1 2.428.378l.509.1a5.144 5.144 0 0 1 1.081.318 1.2 1.2 0 0 1 .687.612A1.382 1.382 0 0 1 10 24.253l-.006.036a.269.269 0 0 1-.034.1.414.414 0 0 0-.046.147c-.123.472-.506.694-.99.974l-.022.013a4.683 4.683 0 0 1-3.081.441 4.957 4.957 0 0 1-2.505-1.063l-.012-.011a1.768 1.768 0 0 1-.5-2.269l.007-.02a.534.534 0 0 1 .059-.118.753.753 0 0 0 .1-.235v-.023c0-.026 0-.105-.148-.221-.037-.029-.227-.17-.366-.134l-.063.012a3.658 3.658 0 0 0-.764.209 2.455 2.455 0 0 0-1.425 1.21 2.077 2.077 0 0 0 .937 2.775 9.386 9.386 0 0 0 1.437.57 7.134 7.134 0 0 0 .823.179 9.165 9.165 0 0 1 .919.2h.05a4.44 4.44 0 0 1 .79.053 7.311 7.311 0 0 0 1.342.123 13.478 13.478 0 0 0 2.744-.364 5.585 5.585 0 0 0 2.627-1.261 3.71 3.71 0 0 0 1.183-1.713 3.5 3.5 0 0 0 .071-.356m-8.052-13.03a3.312 3.312 0 0 0 .148-.386 1.027 1.027 0 0 1 .405-.615A1.217 1.217 0 0 1 6.994 9.4a3.087 3.087 0 0 1 .864 1.175 7.475 7.475 0 0 1 .528 2.635c0 .022 0 .047-.005.073a.582.582 0 0 0 .008.22 2.4 2.4 0 0 1-.629 1.892 1.09 1.09 0 0 1-.924.243 1.3 1.3 0 0 1-1.124-.693l-.013-.018a3.576 3.576 0 0 1-.724-1.662 5.264 5.264 0 0 1 .1-2.79"/></g></svg>