<svg xmlns="http://www.w3.org/2000/svg" width="91.6" height="40"><defs><clipPath id="clip-path"><path id="Path_8678" data-name="Path 8678" d="M0 0h91.6v40H0Z" fill="currentColor"/></clipPath></defs><g id="henley" clip-path="url(#clip-path)"><g id="Page-1" transform="translate(.135)"><path id="Path_8677" data-name="Path 8677" d="M15.329 16.4h-2.2c-2.933.067-7.533.133-7.533.133l-.067 3.733v.134a8.245 8.245 0 0 0 1.8 4.2l.2.2a17.544 17.544 0 0 0 2.333 2.133c.733.533 2.133 1.533 2.867 2l.4.267c1.267.733 2.067 1.133 2.267 1.267.2-.133 1.067-.467 2.333-1.267a3.465 3.465 0 0 0 .333-.2c.533-.4 1.733-1.2 2.8-2a12.668 12.668 0 0 0 2.4-2.133.92.92 0 0 0 .2-.267 8.154 8.154 0 0 0 1.738-4.268v-.067l.067-3.733s-4.6-.067-7.533-.133Zm9.867-.333V5.6a.461.461 0 0 0-.4-.4S22.662 5 15.462 5h-.133C8.8 5 6.529 5.132 6 5.266c-.2 0-.333.2-.4.4 0 0 0 6.267-.067 10.467C6.462 16.066 9.2 16 15.462 16c6.138-.068 8.8.066 9.738.066Z" transform="translate(-4.927 -4.332)" fill="none"/><path id="Shape" d="M24.729 19.932a.619.619 0 0 1-1.2 0 .619.619 0 0 1-1.2 0 .619.619 0 0 1-1.2 0 .619.619 0 0 1-1.2 0 .619.619 0 0 1-1.2 0 .64.64 0 0 1-.6.467.6.6 0 0 1-.6-.6A.64.64 0 0 1 18 19.2a.619.619 0 0 1 0-1.2.619.619 0 0 1 0-1.2c-.133-.067-.333-.133-.4-.267v-.067h-4.471c-2.933 0-7.533.067-7.533.067l-.067 3.733v.134a8.245 8.245 0 0 0 1.8 4.2l.2.2a17.544 17.544 0 0 0 2.333 2.133c.733.533 2.133 1.533 2.867 2l.4.267c1.267.733 2.067 1.133 2.267 1.267.2-.133 1.067-.467 2.333-1.267a3.464 3.464 0 0 0 .333-.2c.533-.4 1.733-1.2 2.8-2a12.668 12.668 0 0 0 2.4-2.133.92.92 0 0 0 .2-.267 8.154 8.154 0 0 0 1.738-4.268.572.572 0 0 1-.467-.4Zm.467-3.867V5.6a.461.461 0 0 0-.4-.4S22.662 5 15.462 5h-.133C8.8 5 6.529 5.132 6 5.266c-.2 0-.333.2-.4.4 0 0 0 6.267-.067 10.467C6.462 16.066 9.2 16 15.462 16c6.138-.068 8.8.066 9.738.066Z" transform="translate(-4.927 -4.332)" fill="none"/><path id="Shape-2" data-name="Shape" d="M17.6 16.466h-4.4v.067a.45.45 0 0 1-.4.267.619.619 0 0 1 0 1.2.619.619 0 0 1 0 1.2.64.64 0 0 1 .467.6.6.6 0 0 1-.6.6.64.64 0 0 1-.6-.467.619.619 0 0 1-1.2 0 .619.619 0 0 1-1.2 0 .619.619 0 0 1-1.2 0 .619.619 0 0 1-1.2 0 .619.619 0 0 1-1.2 0 .805.805 0 0 1-.467.467 8.857 8.857 0 0 0 1.733 4.2.68.68 0 0 1 .533-.333.64.64 0 0 1 .6.467.619.619 0 0 1 1.2 0 .619.619 0 0 1 1.2 0 .619.619 0 0 1 1.2 0 .64.64 0 0 1 .6-.467.6.6 0 0 1 .6.6.64.64 0 0 1-.467.6.619.619 0 0 1 0 1.2.619.619 0 0 1 0 1.2.64.64 0 0 1 .467.6.675.675 0 0 1-.4.6 1.972 1.972 0 0 1 .267.2C14.4 30 15.2 30.4 15.4 30.532c.2-.133 1.067-.467 2.333-1.267a.73.73 0 0 1 .267-.133.583.583 0 0 1-.4-.6.64.64 0 0 1 .467-.6.619.619 0 0 1 0-1.2.619.619 0 0 1 0-1.2.64.64 0 0 1-.467-.6.6.6 0 0 1 .6-.6.64.64 0 0 1 .6.467.619.619 0 0 1 1.2 0 .619.619 0 0 1 1.2 0 .619.619 0 0 1 1.2 0 .64.64 0 0 1 .6-.467.68.68 0 0 1 .533.333 7.994 7.994 0 0 0 1.733-4.2V20.4l.067-3.733s-4.6-.067-7.533-.133a.516.516 0 0 0-.2-.067ZM25.2 5.6a.461.461 0 0 0-.4-.4S22.662 5 15.462 5h-.133C8.8 5 6.529 5.132 6 5.266c-.2 0-.333.2-.4.4 0 0 0 6.267-.067 10.467C6.462 16.066 9.2 16 15.462 16c6.067 0 8.8.067 9.733.133Z" transform="translate(-4.927 -4.332)" fill="none"/><path id="Shape-3" data-name="Shape" d="M7.862 20.4a.64.64 0 0 0 .6-.467.619.619 0 0 0 1.2 0 .619.619 0 0 0 1.2 0 .619.619 0 0 0 1.2 0 .64.64 0 0 0 .6.467.6.6 0 0 0 .6-.6.64.64 0 0 0-.467-.6.619.619 0 0 0 0-1.2.619.619 0 0 0 0-1.2.612.612 0 0 0 .4-.267v-.067h-.067c-2.933 0-7.533.067-7.533.067l-.067 3.733v.067A.659.659 0 0 0 6 19.866a.619.619 0 0 0 1.2 0 .7.7 0 0 0 .662.534Zm15.067 3.867a.64.64 0 0 0-.6.467.619.619 0 0 0-1.2 0 .619.619 0 0 0-1.2 0 .619.619 0 0 0-1.2 0 .64.64 0 0 0-.6-.467.6.6 0 0 0-.6.6.64.64 0 0 0 .467.6.619.619 0 0 0 0 1.2.619.619 0 0 0 0 1.2.633.633 0 0 0-.067 1.2L18 29c.533-.4 1.733-1.2 2.8-2a12.669 12.669 0 0 0 2.4-2.133.92.92 0 0 0 .2-.267.065.065 0 0 1 .067-.067.6.6 0 0 0-.538-.267Zm-9.667.6a.6.6 0 0 0-.6-.6.64.64 0 0 0-.6.467.619.619 0 0 0-1.2 0 .619.619 0 0 0-1.2 0 .619.619 0 0 0-1.2 0 .712.712 0 0 0-.6-.467.68.68 0 0 0-.533.333.065.065 0 0 0 .067.067l.2.2A17.544 17.544 0 0 0 9.929 27c.733.533 2.133 1.533 2.867 2 .067 0 .067.067.133.067a.583.583 0 0 0 .4-.6.64.64 0 0 0-.467-.6.619.619 0 0 0 0-1.2.619.619 0 0 0 0-1.2.675.675 0 0 0 .4-.601Zm11.933-8.8V5.6a.461.461 0 0 0-.4-.4S22.662 5 15.462 5h-.133C8.8 5 6.529 5.132 6 5.266c-.2 0-.333.2-.4.4 0 0 0 6.267-.067 10.467C6.462 16.066 9.2 16 15.462 16c6.138-.068 8.8.066 9.738.066Zm-7.6.4c.133.2.267.333.4.333A.619.619 0 0 0 18 18a.619.619 0 0 0 0 1.2.64.64 0 0 0-.467.6.6.6 0 0 0 .6.6.64.64 0 0 0 .6-.467.619.619 0 0 0 1.2 0 .619.619 0 0 0 1.2 0 .619.619 0 0 0 1.2 0 .619.619 0 0 0 1.2 0 .619.619 0 0 0 1.2 0 .566.566 0 0 0 .467.467v-.067l.067-3.733s-4.6-.067-7.533-.133Z" transform="translate(-4.927 -4.332)" fill="none"/><path id="Shape-4" data-name="Shape" d="M7.862 20.4a.64.64 0 0 0 .6-.467.619.619 0 0 0 1.2 0 .619.619 0 0 0 1.2 0 .619.619 0 0 0 1.2 0 .64.64 0 0 0 .6.467.6.6 0 0 0 .6-.6.64.64 0 0 0-.467-.6.619.619 0 0 0 0-1.2.619.619 0 0 0 0-1.2.612.612 0 0 0 .4-.267v-.067h-.067c-2.933 0-7.533.067-7.533.067l-.067 3.733v.067A.659.659 0 0 0 6 19.866a.619.619 0 0 0 1.2 0 .7.7 0 0 0 .662.534Zm4.333.333c0 .067.667.4.8.8a.8.8 0 0 1 .333-.333c.067 0 .133-.067.2-.067-.067-.067-.067-.133-.133-.133a.5.5 0 0 1-.067-.333v-.133a2.072 2.072 0 0 1-1.128.198Zm5.067.467c.067 0 .133.067.2.067a.8.8 0 0 1 .333.333c.133-.4.8-.8.8-.8 0-.067-.733.067-1.133-.2v.133a.6.6 0 0 1-.067.333Zm7.938-5.134V5.6a.461.461 0 0 0-.4-.4S22.662 5 15.462 5h-.133C8.8 5 6.529 5.132 6 5.266c-.2 0-.333.2-.4.4 0 0 0 6.267-.067 10.467C6.462 16.066 9.2 16 15.462 16c6.138-.068 8.8.066 9.738.066Zm-11.933 8.8a.6.6 0 0 0-.6-.6.64.64 0 0 0-.6.467.619.619 0 0 0-1.2 0 .619.619 0 0 0-1.2 0 .619.619 0 0 0-1.2 0 .712.712 0 0 0-.6-.467.68.68 0 0 0-.533.333.065.065 0 0 0 .067.067l.2.2A17.544 17.544 0 0 0 9.929 27c.733.533 2.133 1.533 2.867 2 .067 0 .067.067.133.067a.583.583 0 0 0 .4-.6.64.64 0 0 0-.467-.6.619.619 0 0 0 0-1.2.619.619 0 0 0 0-1.2.675.675 0 0 0 .4-.601Zm2.133-6.4c-.067 0-.2.733-.533 1a.576.576 0 0 1 .4.2l.133.133c.067-.067.067-.133.133-.133a.576.576 0 0 1 .4-.2c-.333-.266-.471-1-.533-1Zm7.533 5.8a.64.64 0 0 0-.6.467.619.619 0 0 0-1.2 0 .619.619 0 0 0-1.2 0 .619.619 0 0 0-1.2 0 .64.64 0 0 0-.6-.467.6.6 0 0 0-.6.6.64.64 0 0 0 .467.6.619.619 0 0 0 0 1.2.619.619 0 0 0 0 1.2.633.633 0 0 0-.067 1.2L18 29c.533-.4 1.733-1.2 2.8-2a12.669 12.669 0 0 0 2.4-2.133.92.92 0 0 0 .2-.267.065.065 0 0 1 .067-.067.6.6 0 0 0-.538-.267ZM17.2 23.4a.548.548 0 0 1-.467.067.245.245 0 0 1-.2-.067v.2c0 .133-.133.267-.2.4.4 0 1 .533 1 .533.067-.067-.271-.733-.133-1.133Zm.4-6.933c.133.2.267.333.4.333a.619.619 0 0 0 0 1.2.619.619 0 0 0 0 1.2.64.64 0 0 0-.467.6.6.6 0 0 0 .6.6.64.64 0 0 0 .6-.467.619.619 0 0 0 1.2 0 .619.619 0 0 0 1.2 0 .619.619 0 0 0 1.2 0 .619.619 0 0 0 1.2 0 .619.619 0 0 0 1.2 0 .566.566 0 0 0 .467.467v-.067l.067-3.733s-4.6-.067-7.533-.133Zm-3.4 7V23.4c-.067 0-.133.067-.2.067a1.135 1.135 0 0 1-.467-.067c.133.4-.2 1.133-.133 1.133a4.185 4.185 0 0 1 1-.533.576.576 0 0 1-.2-.4Z" transform="translate(-4.927 -4.332)" fill="none"/><path id="Shape-5" data-name="Shape" d="m21.948 15.9-.067-14.268A1 1 0 0 0 21.014.7c-.067 0-2.2-.2-9.467-.2h-.133c-6.6 0-9 .133-9.467.2a1.216 1.216 0 0 0-.933.933V15.9a6.213 6.213 0 0 0 .333 2.2 9.583 9.583 0 0 0 3.6 5 33.088 33.088 0 0 0 6.467 4.133.233.233 0 0 1 .133.067.207.207 0 0 0 .133-.067 37.62 37.62 0 0 0 6.468-4.133 9.583 9.583 0 0 0 3.6-5 8.494 8.494 0 0 0 .2-2.2ZM1.681 1.766a.43.43 0 0 1 .4-.4c.533-.133 2.8-.267 9.333-.267h.133c7.2 0 9.267.2 9.333.2.333.067.4.267.4.4l.067 10.467c-.933-.067-3.667-.133-9.733-.133-6.2 0-9 .067-9.933.133ZM13.548 16.7c.333.2 1.133.133 1.133.2s-.667.4-.8.8a.8.8 0 0 0-.333-.333c-.067 0-.133-.067-.2-.067.067-.067.067-.133.133-.133a.6.6 0 0 0 .067-.333Zm-1.533-1.133a.475.475 0 0 0-.4.2l-.133.133c-.067-.067-.067-.133-.133-.133a.576.576 0 0 0-.4-.2c.333-.267.467-1 .533-1s.199.733.532.999Zm-2.533 1.6a.143.143 0 0 0 .133.133c-.067 0-.133.067-.2.067a.8.8 0 0 0-.333.333c-.133-.4-.8-.8-.8-.8 0-.067.8.067 1.133-.2v.133a.6.6 0 0 0 .066.333ZM2.748 16.5a.64.64 0 0 1-.6-.467.805.805 0 0 1-.467.467v-.067l.067-3.733s4.6-.067 7.533-.133h.067v.067a.45.45 0 0 1-.4.267.619.619 0 0 1 0 1.2.619.619 0 0 1 0 1.2.64.64 0 0 1 .467.6.6.6 0 0 1-.6.6.64.64 0 0 1-.6-.467.619.619 0 0 1-1.2 0 .619.619 0 0 1-1.2 0 .619.619 0 0 1-1.2 0 .619.619 0 0 1-1.2 0 .8.8 0 0 1-.667.466Zm6.6 5.667a.64.64 0 0 1-.467.6.619.619 0 0 1 0 1.2.64.64 0 0 1 .467.6.675.675 0 0 1-.4.6.233.233 0 0 0-.133-.067c-.667-.467-2.133-1.467-2.867-2a17.544 17.544 0 0 1-2.333-2.133l-.2-.2a.065.065 0 0 0-.067-.067.68.68 0 0 1 .533-.333.64.64 0 0 1 .6.467.619.619 0 0 1 1.2 0 .619.619 0 0 1 1.2 0 .619.619 0 0 1 1.2 0 .64.64 0 0 1 .6-.467.6.6 0 0 1 .6.6.64.64 0 0 1-.467.6.632.632 0 0 1 .533.6Zm.133-1.533c-.067 0 .267-.733.133-1.133a.548.548 0 0 0 .467.067.245.245 0 0 0 .2-.067v.2c0 .133.133.267.2.4-.4-.001-.933.531-1 .531Zm2-.4c-.4 0-.867-.2-.933-.533 0-.133 0-.333.067-.4l.133-.2.133-.133.067-.067c.067-.067.2-.2.133-.267a.065.065 0 0 0-.067-.067.092.092 0 0 0-.133 0 .3.3 0 0 0-.2.267l-.067.067-.133.2-.133.2a1.457 1.457 0 0 1-.333.2c-.333.067-.667-.333-.8-.733a.9.9 0 0 1 .266-1.068.991.991 0 0 1 .4-.067l.2.067.2.067h.067c.133.067.267.133.333.067a.065.065 0 0 0 .067-.067v-.133a.509.509 0 0 0-.333-.133h-.067l-.133-.133-.2-.067c-.067 0-.2-.2-.267-.267-.133-.333.133-.733.467-1a.927.927 0 0 1 1.067-.133.888.888 0 0 1 .2.333v.533a.5.5 0 0 0 .067.333s0 .067.133.067a.233.233 0 0 0 .133-.067.5.5 0 0 0 .067-.333v-.533a.455.455 0 0 1 .2-.333c.267-.267.733-.133 1.067.133s.6.667.4 1c-.067.133-.2.267-.267.267l-.2.067-.2.067h-.067a.509.509 0 0 0-.333.133v.132a.065.065 0 0 0 .067.067c.067.067.2 0 .333-.067h.067l.2-.067.2-.067a.991.991 0 0 1 .4.067c.333.2.333.667.267 1.067-.133.4-.467.8-.8.733a.567.567 0 0 1-.333-.2l-.133-.2-.133-.2-.067-.067c-.067-.067-.133-.2-.2-.267h-.133l-.067.067a.505.505 0 0 0 .133.267l.067.067.133.133.133.2c.067.067.067.267.067.4a1.614 1.614 0 0 1-1.2.6Zm.933-.133a.576.576 0 0 0 .2-.4v-.2c.067 0 .133.067.2.067a1.135 1.135 0 0 0 .467-.067c-.133.4.2 1.133.133 1.133 0-.002-.6-.534-1-.534Zm7.133.6a.92.92 0 0 0-.2.267 12.668 12.668 0 0 1-2.4 2.133c-1.067.8-2.267 1.6-2.8 2a.065.065 0 0 0-.067.067.583.583 0 0 1-.4-.6.64.64 0 0 1 .467-.6.619.619 0 0 1 0-1.2.619.619 0 0 1 0-1.2.64.64 0 0 1-.467-.6.6.6 0 0 1 .6-.6.64.64 0 0 1 .6.467.619.619 0 0 1 1.2 0 .619.619 0 0 1 1.2 0 .619.619 0 0 1 1.2 0 .64.64 0 0 1 .6-.467.5.5 0 0 1 .468.332Zm1.733-4.333v.067a.659.659 0 0 1-.467-.467.619.619 0 0 1-1.2 0 .619.619 0 0 1-1.2 0 .619.619 0 0 1-1.2 0 .619.619 0 0 1-1.2 0 .619.619 0 0 1-1.2 0 .64.64 0 0 1-.6.467.6.6 0 0 1-.6-.6.64.64 0 0 1 .467-.6.619.619 0 0 1 0-1.2.619.619 0 0 1 0-1.2c-.133-.067-.333-.133-.4-.267V12.5h.067c3 .067 7.533.133 7.533.133Z" transform="translate(-1.011 -.432)" fill="currentColor"/><path id="Shape-6" data-name="Shape" d="M13.032 5.132c0-.067.333-.867.333-.867v-.133h-1.133l.533.733s.267.201.267.267Zm1 1.467c0-.2-.267-.4-.4-.533-.133-.067-.2-.2-.267-.267l-.065-.067a13.868 13.868 0 0 1-1.533-2.067c-.067-.133-.133-.133-.2-.133s-.133 0-.2.133a13.868 13.868 0 0 1-1.535 2.067l-.067.068-.265.266c-.267.2-.4.333-.4.533v.067a.245.245 0 0 0 .067.2c0 .067.067.067.067.133l.067.067a6.678 6.678 0 0 1 1.067-.933A8.869 8.869 0 0 1 9.432 7.4a2.622 2.622 0 0 0 .133.4c.067.133.2.2.2.267a11.533 11.533 0 0 1 .935-1.335c0 .133-.4.867-.667 1.533v.067a2.538 2.538 0 0 0 .4.333c.133.067.2.067.333.133a13.168 13.168 0 0 1 .534-1.732v.067a10.375 10.375 0 0 1-.2 1.733h.067l.133.067h.067c.067 0 .133.067.2.067a.245.245 0 0 0 .2-.067h.067l.133-.067h.067c0-.067-.2-1.333-.2-1.733v-.067a10.649 10.649 0 0 1 .531 1.734 1.126 1.126 0 0 0 .333-.133 2.538 2.538 0 0 0 .4-.333v-.068a9.257 9.257 0 0 1-.667-1.533 9.527 9.527 0 0 1 .933 1.333 1.244 1.244 0 0 0 .2-.267 1.382 1.382 0 0 0 .133-.4 8.869 8.869 0 0 1-.933-1.267c.067 0 .933.867 1.067.933L13.9 7a.233.233 0 0 1 .067-.133c.065-.067.065-.135.065-.267ZM9.965 5.132l.2-.267.533-.733H9.565v.133c.067.001.335.801.4.867ZM19.1 5.2c0-.067.333-.867.333-.867V4.2H18.3l.533.733Zm1 1.467c0-.2-.267-.4-.4-.533-.133-.067-.2-.2-.267-.267l-.068-.067a13.868 13.868 0 0 1-1.533-2.067c-.067-.133-.133-.133-.2-.133s-.133 0-.2.133A13.868 13.868 0 0 1 15.9 5.8l-.067.067a1.454 1.454 0 0 0-.333.267c-.267.2-.4.333-.4.533v.067a.245.245 0 0 0 .067.2c0 .067.067.067.067.133l.067.067a6.678 6.678 0 0 1 1.064-.934 8.869 8.869 0 0 1-.933 1.267 2.622 2.622 0 0 0 .133.4c.067.133.2.2.2.267A11.533 11.533 0 0 1 16.7 6.8c0 .133-.4.867-.667 1.533V8.4a2.538 2.538 0 0 0 .4.333c.133.067.2.067.333.133a13.168 13.168 0 0 1 .534-1.734V7.2a10.375 10.375 0 0 1-.2 1.733h.067L17.3 9h.067c.067 0 .133.067.2.067a.245.245 0 0 0 .2-.067h.067l.133-.067h.067c0-.067-.2-1.333-.2-1.733v-.068a10.649 10.649 0 0 1 .533 1.733 1.126 1.126 0 0 0 .333-.133 2.538 2.538 0 0 0 .4-.333v-.067a9.257 9.257 0 0 1-.668-1.532 9.527 9.527 0 0 1 .933 1.333 1.244 1.244 0 0 0 .2-.267 1.382 1.382 0 0 0 .133-.4 8.869 8.869 0 0 1-.933-1.266c.067 0 .933.867 1.067.933l.067-.067a.233.233 0 0 1 .067-.133c.134-.067.134-.133.134-.267ZM16.032 5.2l.2-.267.533-.733h-1.133v.133c.068-.001.333.799.4.867Zm-9.067 0c0-.067.333-.867.333-.867V4.2H6.165l.533.733ZM7.9 6.666c0-.2-.267-.4-.4-.533l-.267-.267h-.068c-.2-.2-1.333-1.733-1.533-2.067-.067-.133-.133-.133-.2-.133s-.133 0-.2.133c-.267.333-1.4 1.867-1.6 2.067a1.454 1.454 0 0 1-.333.267c-.267.2-.4.333-.4.533v.267c0 .067.067.067.067.133l.067.067A6.678 6.678 0 0 1 4.1 6.2a8.869 8.869 0 0 1-.933 1.267 2.622 2.622 0 0 0 .133.4 1.244 1.244 0 0 1 .267.2A11.533 11.533 0 0 1 4.5 6.732c0 .133-.4.867-.667 1.533v.067a2.538 2.538 0 0 0 .4.333c.133.067.2.067.333.133A13.168 13.168 0 0 1 5.1 7.066v.067c0 .333-.2 1.6-.2 1.667h.067l.133.067h.067c.067 0 .133.067.2.067a.245.245 0 0 0 .2-.067h.067l.2-.067H5.9c0-.067-.2-1.333-.2-1.733V7a10.649 10.649 0 0 1 .533 1.733 1.126 1.126 0 0 0 .332-.133c.067-.067.4-.333.4-.333V8.2A9.257 9.257 0 0 1 6.3 6.666 9.527 9.527 0 0 1 7.232 8a1.244 1.244 0 0 0 .2-.267 1.382 1.382 0 0 0 .133-.4 8.869 8.869 0 0 1-.933-1.267c.067 0 .933.867 1.067.933l.067-.067a.233.233 0 0 1 .066-.132c.068.066.068 0 .068-.134ZM3.832 5.2l.2-.267.533-.733H3.432v.133a3.447 3.447 0 0 1 .4.867Zm7.133 12.267a.533.533 0 1 0 .533-.533.533.533 0 0 0-.533.533M30.9 26.6a5.766 5.766 0 0 1-2 .2 11.3 11.3 0 0 1-1.467-.067v-6.267c.067 0 .733-.067 1.467-.067a6.23 6.23 0 0 1 1.6.133 1.388 1.388 0 0 1 1.267 1.4c0 1.2-1.2 1.467-1.467 1.533.133 0 1.667.067 1.667 1.533A1.675 1.675 0 0 1 30.9 26.6Zm-1.8-5.533h-.4v2.067h.533a1.135 1.135 0 0 0 .467-.067.915.915 0 0 0 .733-1c-.001-.801-.601-1.001-1.333-1.001Zm.133 2.8H28.7v2.2h.533a1.784 1.784 0 0 0 .733-.133 1.068 1.068 0 0 0 .6-1.067c.066-.801-.534-1.001-1.334-1.001Zm6.533 2.867v-.467a1.736 1.736 0 0 1-1.467.6 1.424 1.424 0 0 1-1.533-1 5.069 5.069 0 0 1-.067-.933V22.2h1.333v2.667a1.48 1.48 0 0 0 .067.6c.067.4.4.6.933.6a2.2 2.2 0 0 0 .733-.133V22.2H37.1v4.6h-1.335Zm3.6.067a4.047 4.047 0 0 1-1.667-.267l.267-.733a2.738 2.738 0 0 0 1.267.267c.533 0 .8-.2.8-.533 0-.267-.133-.333-.467-.533l-.733-.4c-.667-.333-1-.667-1-1.333 0-.867.667-1.333 1.8-1.333a3.7 3.7 0 0 1 1.533.267l-.267.733a2.37 2.37 0 0 0-1.067-.267c-.4 0-.733.067-.733.467 0 .267.2.4.6.533l.733.333a1.338 1.338 0 0 1 .933 1.267c-.133 1.197-1 1.531-2 1.531Zm3.267-5.267c-.467 0-.8-.267-.8-.667s.333-.667.8-.667.8.267.8.667-.268.665-.801.665Zm-.6 5.2V22.2h1.333v4.6h-1.334Zm5.333 0v-2.6a2.268 2.268 0 0 0-.067-.667c-.067-.4-.4-.6-.933-.6a2.2 2.2 0 0 0-.733.133v3.733H44.3v-4.6h1.333v.467a1.818 1.818 0 0 1 1.467-.533c1 0 1.467.533 1.533 1a4.425 4.425 0 0 1 .067.867v2.733h-1.335Zm3.333-2.2v.066a1.439 1.439 0 0 0 1.6 1.467 2.575 2.575 0 0 0 1.067-.2l.267.667a4.047 4.047 0 0 1-1.667.267c-1.333 0-2.533-.533-2.533-2.333a2.179 2.179 0 0 1 2.333-2.4 1.945 1.945 0 0 1 1.8.8 3.121 3.121 0 0 1 .267 1.533v.067H50.7Zm1.733-.8c0-.667-.267-1-.867-1a.747.747 0 0 0-.8.667 1.877 1.877 0 0 0-.067.533h1.733Zm3.533 3.066a4.047 4.047 0 0 1-1.667-.267l.267-.733a2.738 2.738 0 0 0 1.267.267c.533 0 .8-.2.8-.533 0-.267-.133-.333-.467-.533l-.733-.4c-.667-.333-1-.667-1-1.333 0-.867.667-1.333 1.8-1.333a3.7 3.7 0 0 1 1.533.267l-.267.733a2.37 2.37 0 0 0-1.067-.267c-.4 0-.733.067-.733.467 0 .267.2.4.6.533l.6.467a1.338 1.338 0 0 1 .933 1.267c.001 1.064-.866 1.398-1.866 1.398Zm3.867 0a4.047 4.047 0 0 1-1.667-.267l.267-.733a2.738 2.738 0 0 0 1.267.267c.533 0 .8-.2.8-.533 0-.267-.133-.333-.467-.533l-.733-.4c-.667-.333-1-.667-1-1.333 0-.867.667-1.333 1.8-1.333a3.7 3.7 0 0 1 1.533.267l-.267.733a2.37 2.37 0 0 0-1.067-.267c-.4 0-.733.067-.733.467 0 .267.2.4.6.533L60.9 24a1.338 1.338 0 0 1 .933 1.267c-.133 1.199-1.001 1.533-2.001 1.533Zm6.533 0a5.682 5.682 0 0 1-1.933-.267l.333-.8a3.382 3.382 0 0 0 1.4.267c.8 0 1.333-.2 1.333-.867 0-.4-.2-.6-.667-.867l-1-.533c-.6-.333-1.2-.733-1.2-1.6 0-1.133.8-1.8 2.2-1.8a4.231 4.231 0 0 1 1.733.267l-.267.8a2.738 2.738 0 0 0-1.267-.267c-.4 0-1.133.067-1.133.733 0 .4.267.6.867.867l.867.467a1.754 1.754 0 0 1 1.2 1.667c-.066 1.265-.931 1.933-2.466 1.933Zm6.467-3.733a1.81 1.81 0 0 0-.867-.2c-1 0-1.4.533-1.4 1.6 0 .733.267 1.6 1.4 1.6a2.8 2.8 0 0 0 .933-.2l.267.667a3.342 3.342 0 0 1-1.533.267 2.141 2.141 0 0 1-2.4-2.267 2.688 2.688 0 0 1 .4-1.467 2.417 2.417 0 0 1 2.2-1 3.235 3.235 0 0 1 1.333.267Zm4 3.667v-2.6a2.268 2.268 0 0 0-.067-.667c-.067-.4-.4-.6-.933-.6A2.2 2.2 0 0 0 75.1 23v3.733h-1.335V19.8H75.1v2.8a1.818 1.818 0 0 1 1.467-.533 1.417 1.417 0 0 1 1.533 1 4.425 4.425 0 0 1 .067.867v2.733h-1.335Zm12.8 0V19.8h1.333v6.933ZM36.1 15.8V9.332h-5.8V15.8h-2.935V1.4H30.3v6h5.8v-6h2.867v14.4Zm8.267-5.067v.2A3.064 3.064 0 0 0 47.7 14.2a4.676 4.676 0 0 0 2.2-.467l.533 1.6a8.338 8.338 0 0 1-3.6.6c-2.867 0-5.4-1.2-5.4-5.333 0-1.933.733-5.467 5-5.467 2.067 0 3.133.733 3.8 1.867a7.09 7.09 0 0 1 .6 3.533v.133h-6.468Zm3.667-1.867c0-1.533-.6-2.333-1.8-2.333A1.683 1.683 0 0 0 44.5 8.066a5.158 5.158 0 0 0-.133 1.2h3.667ZM59.7 15.8v-6a9.86 9.86 0 0 0-.067-1.467c-.2-1-.867-1.4-1.933-1.4a3.906 3.906 0 0 0-1.6.333v8.467h-2.868V5.332h2.8V6.4a3.75 3.75 0 0 1 3.133-1.267c2.2 0 3.067 1.267 3.267 2.333a12.235 12.235 0 0 1 .133 2.067v6.333H59.7Zm6.133 0V0H68.7v15.8Zm8-5.067v.2a3.064 3.064 0 0 0 3.332 3.267 4.676 4.676 0 0 0 2.2-.467l.533 1.6a8.338 8.338 0 0 1-3.6.6c-2.867 0-5.4-1.2-5.4-5.333 0-1.933.733-5.467 5-5.467 2.067 0 3.133.733 3.8 1.867a7.13 7.13 0 0 1 .667 3.533v.133h-6.533Zm3.733-1.867c0-1.533-.6-2.333-1.8-2.333a1.683 1.683 0 0 0-1.733 1.533 5.158 5.158 0 0 0-.133 1.2h3.667Zm10.067 8.8C86.9 19.732 85.9 20.4 84.165 20.4a5.274 5.274 0 0 1-1.8-.267l.4-1.667a2.27 2.27 0 0 0 1 .267c.867 0 1.333-.467 1.667-1.467l.333-.933-4.2-10.933H84.7l2.2 6.733a7.7 7.7 0 0 1 .333 1.333c0-.067.2-.667.333-1.267L89.5 5.4h2.533Zm4.4 13.667h-91V30.8h91Zm-87.533 4V37.8a10.293 10.293 0 0 1-.067 1.133C4.3 39.4 3.965 40 2.765 40a1.562 1.562 0 0 1-1.6-.8 3.91 3.91 0 0 1-.133-1.333V35.4H1.7v2.933a1.655 1.655 0 0 0 .067.6.9.9 0 0 0 1 .667c.6 0 .933-.2 1.067-.733 0-.133.067-.4.067-.6v-2.935Zm4.933 4.6-2.267-3.2a.8.8 0 0 1-.2-.4v3.6H6.5v-4.6h.533l2.2 3.067c.2.267.2.4.267.4v-3.534h.533v4.6h-.6Zm2.6 0v-4.6h.667v4.6Zm4.533 0h-.6l-1.667-4.6h.733l1.133 3.333a1.6 1.6 0 0 1 .133.533 4.9 4.9 0 0 0 .133-.533l1.133-3.333h.667Zm3.133 0v-4.6h2.267v.467h-1.534v1.533h1.4v.467h-1.4v1.667H22.1v.467Zm6.6 0L24.832 38h-.4v1.933h-.667V35.4a4.873 4.873 0 0 1 .867-.067 4.1 4.1 0 0 1 .933.067 1.146 1.146 0 0 1 .933 1.133 1.364 1.364 0 0 1-.933 1.333l1.667 2.067ZM24.432 37.6h.733c.2 0 .667-.133.667-1s-.533-.933-1-.933H24.5V37.6Zm6.4-1.667a1.521 1.521 0 0 0-.867-.2c-.133 0-.867 0-.867.667 0 .333.2.467.6.733l.667.4c.467.333.733.6.733 1.133A1.357 1.357 0 0 1 29.565 40a2.9 2.9 0 0 1-1.2-.2l.2-.467a1.573 1.573 0 0 0 .933.267c.533 0 1-.2 1-.733 0-.333-.133-.467-.4-.667l-.8-.533a1.251 1.251 0 0 1-.733-1.133c0-.8.533-1.2 1.4-1.2a2.226 2.226 0 0 1 1.067.2Zm2.133 4v-4.6h.667v4.6Zm4.267-4.133v4.133h-.667V35.8h-1.333v-.467h3.333v.467Zm4.6 2.267v1.867h-.667v-1.8l-1.533-2.8h.8l1.2 2.267 1.133-2.267h.667ZM49.7 40a2 2 0 0 1-2.133-2.267c0-1.533.8-2.467 2.067-2.467a2 2 0 0 1 2.133 2.267C51.832 39.132 51.032 40 49.7 40Zm0-4.267c-.867 0-1.333.667-1.333 1.933s.467 1.867 1.4 1.867c.867 0 1.333-.667 1.333-1.933 0-1.2-.468-1.868-1.4-1.868Zm4.133.067v1.533h1.4v.467h-1.4v2.133h-.667v-4.6h2.267v.467Zm9.4 4.133L61.765 38h-.4v1.933H60.7V35.4a4.873 4.873 0 0 1 .867-.067 3.259 3.259 0 0 1 .867.067 1.146 1.146 0 0 1 .933 1.133 1.364 1.364 0 0 1-.933 1.333l1.666 2.066ZM61.365 37.6h.735c.2 0 .667-.133.667-1s-.533-.933-1-.933h-.333V37.6Zm4.2 2.333v-4.6h2.267v.467h-1.6v1.533h1.4v.467h-1.4v1.667H67.9v.467Zm6.8 0-.533-1.533H70.3l-.533 1.533h-.6l1.733-4.6h.6l1.667 4.6Zm-1.133-3.4A1.6 1.6 0 0 1 71.1 36a2.18 2.18 0 0 0-.133.533l-.467 1.4h1.267ZM74.7 35.4c.067 0 .533-.067 1.067-.067a2.948 2.948 0 0 1 1.733.333 2.24 2.24 0 0 1 .933 1.933 2.2 2.2 0 0 1-1.133 2.133 3.513 3.513 0 0 1-1.535.268 9.484 9.484 0 0 1-1-.067V35.4Zm.667 4.133h.533a2.04 2.04 0 0 0 1-.2 1.847 1.847 0 0 0 .8-1.733 1.947 1.947 0 0 0-.733-1.733 2.156 2.156 0 0 0-1.067-.2h-.467v3.867Zm4.933.4v-4.6h.667v4.6Zm5.8 0-2.267-3.2a.8.8 0 0 1-.2-.4v3.6H83.1v-4.6h.533l2.2 3.067c.2.267.2.4.267.4v-3.534h.533v4.6H86.1Zm5.933-2.067v1.867a4.15 4.15 0 0 1-1.333.2 2 2 0 0 1-2.2-2.2 2.658 2.658 0 0 1 .467-1.6 2.117 2.117 0 0 1 2-.867 2.051 2.051 0 0 1 1.133.2l-.2.467a1.939 1.939 0 0 0-.933-.2c-1.267 0-1.733.8-1.733 1.933 0 1.267.533 1.933 1.667 1.933a1.845 1.845 0 0 0 .533-.067v-1.6h.6Zm-10.867-11a2.159 2.159 0 0 1-2.4-2.333 2.269 2.269 0 0 1 2.467-2.467 2.159 2.159 0 0 1 2.4 2.333 2.269 2.269 0 0 1-2.468 2.467Zm.067-4.067c-.733 0-1 .533-1 1.667 0 1.067.267 1.667 1.067 1.667.733 0 1-.533 1-1.667-.068-1.066-.268-1.666-1.068-1.666Zm5.333 4.067a2.159 2.159 0 0 1-2.4-2.333 2.269 2.269 0 0 1 2.467-2.467 2.159 2.159 0 0 1 2.4 2.333 2.269 2.269 0 0 1-2.468 2.467Zm.067-4.067c-.733 0-1 .533-1 1.667 0 1.067.267 1.667 1.067 1.667.733 0 1-.533 1-1.667-.068-1.066-.335-1.666-1.068-1.666Z" transform="translate(-1.029 .001)" fill="currentColor"/></g></g></svg>