<svg xmlns="http://www.w3.org/2000/svg" viewBox="0 0 40.119 40.113" fill="currentColor">
  <g transform="translate(0.5 0.5)">
    <path d="M11.5,39a14.2,14.2,0,0,1-4.747-.912,9.649,9.649,0,0,1-3.469-2.254,9.622,9.622,0,0,1-2.253-3.462,14.35,14.35,0,0,1-.906-4.746C.023,25.536,0,24.869,0,19.553s.023-5.978.122-8.063a14.359,14.359,0,0,1,.906-4.747A9.621,9.621,0,0,1,3.281,3.282,9.564,9.564,0,0,1,6.75,1.028,14.2,14.2,0,0,1,11.5.115C13.582.023,14.251,0,19.561,0s5.977.023,8.062.115a14.244,14.244,0,0,1,4.753.913,9.535,9.535,0,0,1,3.463,2.254A9.592,9.592,0,0,1,38.09,6.744,14.441,14.441,0,0,1,39,11.49c.093,2.085.116,2.753.116,8.063S39.1,25.536,39,27.623a14.432,14.432,0,0,1-.913,4.746,9.978,9.978,0,0,1-5.715,5.717A14.247,14.247,0,0,1,27.622,39c-2.085.093-2.752.117-8.062.117S13.582,39.089,11.5,39Zm.162-35.361a10.82,10.82,0,0,0-3.631.674A6.037,6.037,0,0,0,5.773,5.774,6.1,6.1,0,0,0,4.317,8.022a10.621,10.621,0,0,0-.675,3.63c-.1,2.063-.117,2.678-.117,7.9s.018,5.844.117,7.906a10.655,10.655,0,0,0,.675,3.631,6.1,6.1,0,0,0,1.456,2.248A6.037,6.037,0,0,0,8.028,34.8a10.824,10.824,0,0,0,3.631.674c2.062.093,2.678.117,7.9.117s5.843-.023,7.905-.117A10.866,10.866,0,0,0,31.1,34.8a6.484,6.484,0,0,0,3.711-3.712,10.856,10.856,0,0,0,.675-3.631c.093-2.062.11-2.684.11-7.906s-.018-5.838-.11-7.9a10.82,10.82,0,0,0-.675-3.63,6.075,6.075,0,0,0-1.463-2.248A6.074,6.074,0,0,0,31.1,4.31a10.863,10.863,0,0,0-3.632-.674c-2.062-.092-2.684-.116-7.905-.116S13.721,3.543,11.659,3.636ZM9.516,19.559A10.044,10.044,0,1,1,19.561,29.6,10.043,10.043,0,0,1,9.516,19.559Zm3.525,0a6.519,6.519,0,1,0,6.52-6.523A6.52,6.52,0,0,0,13.041,19.559ZM27.652,9.114A2.346,2.346,0,1,1,30,11.461,2.348,2.348,0,0,1,27.652,9.114Z" stroke="currentColor" stroke-miterlimit="10" stroke-width="1"/>
  </g>
</svg>
