<svg id="instagram" xmlns="http://www.w3.org/2000/svg" width="36.522" height="36.707" viewBox="0 0 36.522 36.707">
  <path id="Fill" d="M27.757,11.84a2.191,2.191,0,1,1,2.191-2.191,2.221,2.221,0,0,1-2.191,2.191Zm-9.5,12.784a5.844,5.844,0,1,0-5.843-5.844,5.884,5.884,0,0,0,5.843,5.844Zm0-15.158a9.5,9.5,0,1,1-9.5,9.5,9.431,9.431,0,0,1,9.5-9.5Zm14.609,16.8a7.131,7.131,0,0,1-7.122,7.122H10.957a7.131,7.131,0,0,1-7.122-7.122V11.475a6.909,6.909,0,0,1,7.122-7.122H25.565a7.131,7.131,0,0,1,7.122,7.122V26.267ZM25.565.7H10.957A10.989,10.989,0,0,0,0,11.657V26.45A10.989,10.989,0,0,0,10.957,37.407H25.565A10.989,10.989,0,0,0,36.522,26.45V11.475A10.834,10.834,0,0,0,25.565.7Z" transform="translate(0 -0.7)"/>
</svg>
