<svg xmlns="http://www.w3.org/2000/svg" width="104.391" height="13.414" fill="currentColor"><g data-name="Group 2214"><path data-name="Path 8581" d="M5.414 1.133v7.8a8.223 8.223 0 0 1-.2 2.086 3.134 3.134 0 0 1-.664 1.32 3.027 3.027 0 0 1-2.417 1.075 4.082 4.082 0 0 1-2.136-.594l.894-1.555a2.264 2.264 0 0 0 1.242.445 1.148 1.148 0 0 0 1.125-.615 5 5 0 0 0 .328-2.156v-7.8Zm8.164 4.453h1.766v7.609h-1.766v-.8a3.371 3.371 0 0 1-2.336 1.019 3.365 3.365 0 0 1-2.609-1.141A4.242 4.242 0 0 1 7.61 9.367a4.111 4.111 0 0 1 1.023-2.852 3.3 3.3 0 0 1 2.564-1.14 3.236 3.236 0 0 1 2.383 1.094ZM9.406 9.367a2.65 2.65 0 0 0 .591 1.781 1.919 1.919 0 0 0 1.516.7 2.017 2.017 0 0 0 1.578-.672 2.6 2.6 0 0 0 .6-1.766 2.6 2.6 0 0 0-.6-1.766 1.989 1.989 0 0 0-1.562-.68 1.943 1.943 0 0 0-1.516.688 2.534 2.534 0 0 0-.607 1.715Zm14.079-3.453V8.25a4.283 4.283 0 0 0-1.078-1.008 2.1 2.1 0 0 0-1.1-.281 2.171 2.171 0 0 0-1.648.7 2.439 2.439 0 0 0-.662 1.734 2.494 2.494 0 0 0 .633 1.758 2.134 2.134 0 0 0 1.633.688 2.233 2.233 0 0 0 1.117-.273 4.43 4.43 0 0 0 1.1-1.031v2.32a4.616 4.616 0 0 1-2.141.555 4.1 4.1 0 0 1-2.948-1.139 3.807 3.807 0 0 1-1.187-2.852 3.858 3.858 0 0 1 1.2-2.875 4.07 4.07 0 0 1 2.956-1.171 4.413 4.413 0 0 1 2.125.539ZM27.36-.005v8.047l2.477-2.461h2.36l-3.3 3.2 3.541 4.414h-2.282l-2.515-3.211-.281.281v2.93h-1.763v-13.2Zm10.637 6.888-1.453.773q-.344-.7-.852-.7a.586.586 0 0 0-.414.16.536.536 0 0 0-.172.41q0 .437 1.016.867a6.055 6.055 0 0 1 1.875 1.102 1.9 1.9 0 0 1 .484 1.367 2.4 2.4 0 0 1-.812 1.844 2.765 2.765 0 0 1-1.906.7 2.766 2.766 0 0 1-2.711-1.867l1.5-.7a3.263 3.263 0 0 0 .477.7 1.087 1.087 0 0 0 .766.3q.891 0 .891-.812 0-.469-.687-.875-.266-.133-.531-.258t-.539-.258a3.3 3.3 0 0 1-1.078-.75 1.848 1.848 0 0 1-.4-1.227 2.171 2.171 0 0 1 .68-1.641 2.384 2.384 0 0 1 1.688-.648 2.3 2.3 0 0 1 2.178 1.513Zm1.711 2.453a3.781 3.781 0 0 1 1.18-2.8 3.953 3.953 0 0 1 2.87-1.161 3.975 3.975 0 0 1 2.891 1.164 3.874 3.874 0 0 1 1.171 2.856 3.854 3.854 0 0 1-1.179 2.87 4.032 4.032 0 0 1-2.914 1.149 3.867 3.867 0 0 1-2.867-1.172 3.941 3.941 0 0 1-1.157-2.906Zm1.8.031a2.566 2.566 0 0 0 .609 1.8 2.145 2.145 0 0 0 1.648.672 2.143 2.143 0 0 0 1.648-.664 2.5 2.5 0 0 0 .617-1.773 2.5 2.5 0 0 0-.617-1.773 2.145 2.145 0 0 0-1.648-.672 2.127 2.127 0 0 0-1.633.672 2.445 2.445 0 0 0-.635 1.738Zm8.18-3.781h1.766v.7a2.881 2.881 0 0 1 2.078-.914 2.625 2.625 0 0 1 2.07.836 3.423 3.423 0 0 1 .641 2.32v4.667h-1.774v-4.25a2.787 2.787 0 0 0-.313-1.55 1.261 1.261 0 0 0-1.109-.437 1.357 1.357 0 0 0-1.242.578 3.978 3.978 0 0 0-.359 1.992v3.667H49.68Zm7.664 2.977h3.484v1.532h-3.492Zm13.844-6.781v2.156a5.048 5.048 0 0 0-3.266-1.32 4.158 4.158 0 0 0-3.133 1.336 4.5 4.5 0 0 0-1.281 3.25 4.4 4.4 0 0 0 1.281 3.2 4.232 4.232 0 0 0 3.141 1.3 3.853 3.853 0 0 0 1.625-.309 4.709 4.709 0 0 0 .777-.422 9.188 9.188 0 0 0 .848-.641v2.2a6.575 6.575 0 0 1-3.281.883 6.054 6.054 0 0 1-4.414-1.8 5.983 5.983 0 0 1-1.82-4.391 6.194 6.194 0 0 1 1.524-4.115 6.066 6.066 0 0 1 4.85-2.214 6.158 6.158 0 0 1 3.141.886Zm1.961 3.8h1.758v.68a3.357 3.357 0 0 1 .859-.7 1.971 1.971 0 0 1 .906-.2 2.839 2.839 0 0 1 1.453.453l-.8 1.609a1.678 1.678 0 0 0-.977-.359q-1.438 0-1.437 2.172v3.958h-1.77Zm11.484 0h1.756v7.613h-1.764v-.8a3.371 3.371 0 0 1-2.336 1.019 3.365 3.365 0 0 1-2.609-1.141 4.242 4.242 0 0 1-1.023-2.906 4.111 4.111 0 0 1 1.023-2.852 3.3 3.3 0 0 1 2.562-1.14 3.236 3.236 0 0 1 2.383 1.094Zm-4.18 3.785a2.65 2.65 0 0 0 .586 1.781 1.919 1.919 0 0 0 1.516.7 2.017 2.017 0 0 0 1.578-.672 2.6 2.6 0 0 0 .6-1.766 2.6 2.6 0 0 0-.6-1.766 1.989 1.989 0 0 0-1.562-.68 1.943 1.943 0 0 0-1.516.688 2.534 2.534 0 0 0-.602 1.715Zm8.156-3.781h1.766v.7a2.881 2.881 0 0 1 2.078-.914 2.625 2.625 0 0 1 2.07.836 3.423 3.423 0 0 1 .641 2.32v4.667h-1.766v-4.25a2.787 2.787 0 0 0-.309-1.55 1.261 1.261 0 0 0-1.109-.437 1.357 1.357 0 0 0-1.242.578 3.978 3.978 0 0 0-.359 1.992v3.667h-1.77Zm15.7 4.219h-5.45a2.311 2.311 0 0 0 .61 1.49 1.858 1.858 0 0 0 1.383.547 1.8 1.8 0 0 0 1.086-.312 4.447 4.447 0 0 0 .961-1.156l1.484.828a5.9 5.9 0 0 1-.727 1 3.863 3.863 0 0 1-.82.688 3.29 3.29 0 0 1-.945.395 4.6 4.6 0 0 1-1.1.125 3.582 3.582 0 0 1-2.736-1.09 4.1 4.1 0 0 1-1.032-2.925 4.216 4.216 0 0 1 1-2.922 3.448 3.448 0 0 1 2.672-1.1 3.417 3.417 0 0 1 2.656 1.07 4.21 4.21 0 0 1 .969 2.945Zm-1.8-1.437a1.684 1.684 0 0 0-1.773-1.406 1.821 1.821 0 0 0-.6.1 1.721 1.721 0 0 0-.512.281 1.783 1.783 0 0 0-.395.441 2.051 2.051 0 0 0-.25.586Z"/></g></svg>