<svg id="linkedin" xmlns="http://www.w3.org/2000/svg" width="36.522" height="35.794" viewBox="0 0 36.522 35.794">
  <path id="Fill" d="M36.522,19.693h0V35.946a.823.823,0,0,1-.548.548H29.765a.823.823,0,0,1-.548-.548V22.432a4.608,4.608,0,0,0-1.1-3.1,4.405,4.405,0,0,0-3.1-1.278A4.141,4.141,0,0,0,21,22.432V35.946a.823.823,0,0,1-.548.548h-7.3a.583.583,0,0,1-.548-.548V12.57a.583.583,0,0,1,.548-.548h6.209a.823.823,0,0,1,.548.548v2.557l.548-.548a7.452,7.452,0,0,1,6.209-3.1h1.278a7.961,7.961,0,0,1,8.583,8.218M6.939,36.494H1.826A1.248,1.248,0,0,1,.548,35.216V13.3a1.248,1.248,0,0,1,1.278-1.278H6.939A1.248,1.248,0,0,1,8.217,13.3V35.4a1.567,1.567,0,0,1-1.278,1.1M4.383.7A4.444,4.444,0,0,1,8.765,5.083,4.441,4.441,0,0,1,4.383,9.466,4.444,4.444,0,0,1,0,5.083,4.326,4.326,0,0,1,4.383.7" transform="translate(0 -0.7)"/>
</svg>
