<svg id="Layer_1" data-name="Layer 1" xmlns="http://www.w3.org/2000/svg" viewBox="0 0 77 63"><defs><style>.cls-1{fill:#f6cf31;}.cls-2{fill:#43b5de;}.cls-3{fill:#429d36;}.cls-4{fill:#eb8c39;}.cls-5{fill:#e57724;}.cls-6{fill:#386e35;}.cls-7{fill:#365f30;}.cls-8{fill:#fff;}</style></defs><g id="Kind-IllustrationLiving-Wage"><path id="Path_24968" data-name="Path 24968" class="cls-1" d="M57.45,20.46a14.12,14.12,0,0,0-1.59.09,26.37,26.37,0,0,1-.29,20.59,8,8,0,0,1,3.59,8,14.41,14.41,0,0,0-1.7-28.72"/><path id="Path_24969" data-name="Path 24969" class="cls-2" d="M31.52,4.2A26.3,26.3,0,1,0,45.1,53a8,8,0,0,1,.17-10.46,14.4,14.4,0,0,1,10.6-22A26.32,26.32,0,0,0,31.52,4.2"/><path id="Path_24970" data-name="Path 24970" class="cls-3" d="M55.86,20.54a14.42,14.42,0,0,0-10.6,22,8,8,0,0,1,6-2.68,8.55,8.55,0,0,1,1.34.11,8.09,8.09,0,0,1,3,1.15,26.37,26.37,0,0,0,.29-20.59"/><path id="Path_24971" data-name="Path 24971" class="cls-4" d="M51.25,47.87A26.41,26.41,0,0,1,45.1,53a8,8,0,0,0,4.81,2.76,7.68,7.68,0,0,0,1.35.11,8,8,0,0,0,7.88-6.67v0a14.44,14.44,0,0,1-7.9-1.3"/><path id="Path_24972" data-name="Path 24972" class="cls-5" d="M55.57,41.14a26.2,26.2,0,0,1-4.32,6.73,14.19,14.19,0,0,0,6.2,1.4,14,14,0,0,0,1.71-.1,8,8,0,0,0-3.59-8"/><path id="Path_24973" data-name="Path 24973" class="cls-6" d="M45.26,42.55A8,8,0,0,0,45.1,53a26.37,26.37,0,0,0,6.15-5.14,14.31,14.31,0,0,1-6-5.32"/><path id="Path_24974" data-name="Path 24974" class="cls-7" d="M51.24,39.87a8,8,0,0,0-6,2.68,14.39,14.39,0,0,0,6,5.32,26.47,26.47,0,0,0,4.32-6.73,8,8,0,0,0-4.33-1.27"/><path id="Path_24975" data-name="Path 24975" class="cls-8" d="M11.85,27H13l1.74-7.53H13.44l.28-1.24h4l-.29,1.24H16.12L14.35,27h3.12l.35-1.47h1.32l-.62,2.69h-7Z"/><path id="Path_24976" data-name="Path 24976" class="cls-8" d="M19.63,27a3.59,3.59,0,0,1,.11-.72l.91-3.49H19.42l.29-1.12h2.56l-1.21,4.63A2.19,2.19,0,0,0,21,27c0,.29.15.46.4.46s.58-.23.9-1.07l.59.21c-.4,1.31-1,1.75-1.84,1.75a1.24,1.24,0,0,1-1.36-1.11,1.48,1.48,0,0,1,0-.21m1.29-7.33a.87.87,0,0,1,1.73,0,.87.87,0,0,1-1.73,0"/><path id="Path_24977" data-name="Path 24977" class="cls-8" d="M23.87,22.81H22.73L23,21.69h2l.76,5.21a9.38,9.38,0,0,0,2.28-3.56.9.9,0,0,1,.26-1.77h0a1,1,0,0,1,1,1.05v.11c0,1.39-1.43,3.58-3.56,5.69h-.87Z"/><path id="Path_24978" data-name="Path 24978" class="cls-8" d="M30.12,27a2.84,2.84,0,0,1,.11-.71l.91-3.5H29.9l.29-1.12h2.57l-1.22,4.63a3.12,3.12,0,0,0-.11.67c0,.29.16.46.4.46s.58-.23.9-1.07l.59.21c-.4,1.31-1,1.75-1.84,1.75a1.24,1.24,0,0,1-1.36-1.11,1.48,1.48,0,0,1,0-.21m1.28-7.33a.9.9,0,1,1,.92.89h0a.87.87,0,0,1-.88-.88"/><path id="Path_24979" data-name="Path 24979" class="cls-8" d="M37.84,27a3.09,3.09,0,0,1,.11-.75l.56-2a2.13,2.13,0,0,0,.1-.67.91.91,0,0,0-.87-1h-.11c-.81,0-1.57.69-1.9,2l-.89,3.56H33.51l1.36-5.42H33.66L34,21.69h2.34l-.35,1.53a2.87,2.87,0,0,1,2.26-1.64A1.74,1.74,0,0,1,40,23.24a1.21,1.21,0,0,1,0,.19,3.8,3.8,0,0,1-.17,1.07l-.56,1.93a2.54,2.54,0,0,0-.09.54c0,.3.15.48.41.48s.55-.23.85-1.07l.6.22c-.35,1.18-1,1.75-1.78,1.75a1.28,1.28,0,0,1-1.4-1.12V27"/><path id="Path_24980" data-name="Path 24980" class="cls-8" d="M40.94,30.52a1.1,1.1,0,0,1-.38-.86.85.85,0,0,1,.78-.9h.06a.79.79,0,0,1,.8.79v0a.9.9,0,0,1-.09.4,2.18,2.18,0,0,0,1.09.25,1.9,1.9,0,0,0,1.45-.55,3.15,3.15,0,0,0,.73-1.58l.29-1.23a2.81,2.81,0,0,1-2.25,1.29,2.35,2.35,0,0,1-2.4-2.3,1.83,1.83,0,0,1,0-.33,3.73,3.73,0,0,1,3.46-4,2.08,2.08,0,0,1,2,1.49l.41-1.4h1.23L46.6,28.4a4,4,0,0,1-1,2,3.21,3.21,0,0,1-2.4.83,3.62,3.62,0,0,1-2.3-.76m5.3-6.21a1.46,1.46,0,0,0-1.37-1.57h-.21a2.5,2.5,0,0,0-2.25,2.71A1.49,1.49,0,0,0,43.77,27H44a2.56,2.56,0,0,0,2.28-2.72"/><path id="Path_24981" data-name="Path 24981" class="cls-8" d="M20.24,30.89H19.16l.29-1.23h3.67l-.27,1.23H21.59l.31,6.29,3.7-6.43h.65l1.11,6.46,3.07-6.32H29.22l.27-1.23h3.69l-.29,1.23h-.95l-4.55,8.88h-.74l-1.2-6.37L21.6,39.77h-.73Z"/><path id="Path_24982" data-name="Path 24982" class="cls-8" d="M30.48,37.17C30.48,34.94,32,33,33.93,33a2.06,2.06,0,0,1,2,1.55l.43-1.46h1.25l-1.16,4.67a2.48,2.48,0,0,0-.12.67c0,.28.13.45.4.45s.54-.23.85-1.06l.59.21c-.4,1.31-1.08,1.75-1.8,1.75a1.21,1.21,0,0,1-1.27-1.16v-.24a3,3,0,0,1-2.34,1.42c-1.3,0-2.23-1-2.23-2.62m5.11-1.4a1.41,1.41,0,0,0-1.49-1.61c-1.28,0-2.24,1.38-2.24,2.86,0,1,.47,1.62,1.39,1.62,1.33,0,2.34-1.44,2.34-2.87"/><path id="Path_24983" data-name="Path 24983" class="cls-8" d="M38.28,41.94a1.06,1.06,0,0,1-.38-.85.84.84,0,0,1,.78-.9h.06a.8.8,0,0,1,.8.8v0a.79.79,0,0,1-.1.4,2.21,2.21,0,0,0,1.1.24A1.83,1.83,0,0,0,42,41.1a3.07,3.07,0,0,0,.73-1.58L43,38.29a2.77,2.77,0,0,1-2.25,1.29,2.34,2.34,0,0,1-2.4-2.3,1.69,1.69,0,0,1,0-.32,3.74,3.74,0,0,1,3.47-4,2.07,2.07,0,0,1,2,1.49l.41-1.4H45.5l-1.57,6.75a4,4,0,0,1-1,2,3.21,3.21,0,0,1-2.4.84,3.68,3.68,0,0,1-2.3-.76m5.3-6.22a1.46,1.46,0,0,0-1.37-1.56H42a2.49,2.49,0,0,0-2.25,2.7,1.48,1.48,0,0,0,1.37,1.58,1.08,1.08,0,0,0,.18,0,2.55,2.55,0,0,0,2.28-2.72"/><path id="Path_24984" data-name="Path 24984" class="cls-8" d="M46.79,36.81V37c0,1,.79,1.64,2,1.64a4.37,4.37,0,0,0,2.15-.59l-.25,1.24a4.47,4.47,0,0,1-2.18.46,2.81,2.81,0,0,1-3-2.59c0-.06,0-.13,0-.19a3.84,3.84,0,0,1,3.59-4,2.37,2.37,0,0,1,2.63,2.08,2.17,2.17,0,0,1,0,.36,4.26,4.26,0,0,1-.25,1.37Zm.18-1h3.4a2.28,2.28,0,0,0,.1-.57c0-.68-.46-1.18-1.4-1.18A2.31,2.31,0,0,0,47,35.85"/><path id="Path_24985" data-name="Path 24985" class="cls-8" d="M27.9,48.52h.61l1-4.14h-.69l.09-.37h3.5l-.26,1.1H31.7l.17-.74h-2l-.42,1.84h1.62l-.08.37H29.39l-.45,1.93h2l.17-.73h.41l-.26,1.11H27.81Z"/><path id="Path_24986" data-name="Path 24986" class="cls-8" d="M32.76,46.11h-.6l.09-.34h1l-.2.75a1.44,1.44,0,0,1,1.12-.81.76.76,0,0,1,.81.69v.09a1.46,1.46,0,0,1,1.12-.78.79.79,0,0,1,.82.75v.06a2,2,0,0,1-.09.49l-.32,1.09a1,1,0,0,0,0,.3.23.23,0,0,0,.21.25h0c.16,0,.29-.15.43-.49l.23.07c-.15.44-.37.7-.72.7a.51.51,0,0,1-.56-.46v-.06a2.14,2.14,0,0,1,.06-.35l.32-1.1a1.55,1.55,0,0,0,.07-.43.47.47,0,0,0-.43-.49h0c-.45,0-1,.48-1.24,1.37l-.38,1.48H34l.5-1.93a1.55,1.55,0,0,0,.07-.43.47.47,0,0,0-.45-.49h0c-.44,0-1,.49-1.24,1.36l-.38,1.48h-.38Z"/><path id="Path_24987" data-name="Path 24987" class="cls-8" d="M36.84,50h.48l.93-3.89h-.59l.08-.34h1l-.14.6a1.4,1.4,0,0,1,1.11-.66,1.21,1.21,0,0,1,1.2,1.22V47A1.83,1.83,0,0,1,39.21,49a1.07,1.07,0,0,1-1.08-.75L37.71,50h.68l-.08.34H36.76Zm3.62-2.93c0-.61-.32-1-.86-1-.74,0-1.33.88-1.33,1.6a.88.88,0,0,0,.82.94h.11a1.43,1.43,0,0,0,1.25-1.53"/><path id="Path_24988" data-name="Path 24988" class="cls-8" d="M41.33,48.41a2.87,2.87,0,0,1,.05-.31l1-4.3H41.8l.09-.34h1l-1.09,4.63c0,.11,0,.21-.05.32a.22.22,0,0,0,.21.24h0c.17,0,.29-.15.43-.49l.22.08c-.14.44-.37.7-.71.7a.52.52,0,0,1-.56-.47v-.06"/><path id="Path_24989" data-name="Path 24989" class="cls-8" d="M42.93,47.61a1.85,1.85,0,0,1,1.76-1.9A1.28,1.28,0,0,1,46,46.93v.12A1.86,1.86,0,0,1,44.23,49a1.26,1.26,0,0,1-1.3-1.23v-.11M45.61,47a.93.93,0,0,0-.85-1h-.09a1.49,1.49,0,0,0-1.35,1.56.92.92,0,0,0,.85,1h.09A1.48,1.48,0,0,0,45.61,47"/><path id="Path_24990" data-name="Path 24990" class="cls-8" d="M45.39,50a.32.32,0,0,1,.3-.33h0A.31.31,0,0,1,46,50h0c.18,0,.58-.28,1.27-1.13l-.55-2.76h-.58l.08-.35h.85l.5,2.74A7.34,7.34,0,0,0,48.9,46.4a.38.38,0,0,1-.3-.37.32.32,0,0,1,.33-.32c.2,0,.36.15.36.44,0,.54-.45,1.27-1.59,2.72-.94,1.2-1.43,1.5-1.86,1.5a.42.42,0,0,1-.45-.37"/><path id="Path_24991" data-name="Path 24991" class="cls-8" d="M49.83,47.44a1.27,1.27,0,0,0,0,.2,1,1,0,0,0,1,1h.06a2,2,0,0,0,1-.29l-.09.4a2,2,0,0,1-1,.23,1.29,1.29,0,0,1-1.37-1.21v-.1a1.89,1.89,0,0,1,1.74-1.93,1,1,0,0,1,1.13,1,.76.76,0,0,1,0,.15,1.8,1.8,0,0,1-.13.61Zm.07-.33h2a1.13,1.13,0,0,0,.06-.36.7.7,0,0,0-.8-.69,1.41,1.41,0,0,0-1.25,1"/><path id="Path_24992" data-name="Path 24992" class="cls-8" d="M53.36,46.11h-.59l.08-.34h1l-.21.85c.41-.57.76-.9,1-.9A.33.33,0,0,1,55,46v0a.36.36,0,0,1-.35.36.31.31,0,0,1-.32-.25,2.35,2.35,0,0,0-1,1.37l-.34,1.37h-.38Z"/><path id="Path_24993" data-name="Path 24993" class="cls-8" d="M19.31,12.29h-.52l.09-.38h1.5l-.09.38h-.61l.1,3.82,2-3.57H22l.41,3.58,2-3.83h-.6l.09-.38H25.4l-.09.38h-.49l-2.44,4.6h-.24l-.43-3.47-2,3.47h-.24Z"/><path id="Path_24994" data-name="Path 24994" class="cls-8" d="M24.75,15.35a1.27,1.27,0,0,0,0,.2,1,1,0,0,0,1,1h.07a2,2,0,0,0,1-.29l-.09.4a2,2,0,0,1-1,.23,1.3,1.3,0,0,1-1.37-1.21v-.1a1.88,1.88,0,0,1,1.74-1.93,1.05,1.05,0,0,1,1.14,1v.15a1.59,1.59,0,0,1-.13.61Zm.08-.33h2a1.13,1.13,0,0,0,.06-.36c0-.35-.23-.69-.8-.69a1.41,1.41,0,0,0-1.24,1"/><path id="Path_24995" data-name="Path 24995" class="cls-8" d="M28.84,15.57a1.85,1.85,0,0,1,1.67-2,1,1,0,0,1,1,.81l.19-.78h.39L31.53,16a1.59,1.59,0,0,0-.06.3.23.23,0,0,0,.21.25h0c.16,0,.28-.15.42-.49l.23.07c-.15.44-.37.7-.71.7a.5.5,0,0,1-.55-.44v-.18a1.46,1.46,0,0,1-1.11.64,1.15,1.15,0,0,1-1.16-1.15.76.76,0,0,1,0-.15m2.55-.66a.83.83,0,0,0-.72-.93h-.14a1.48,1.48,0,0,0-1.27,1.59c0,.58.28,1,.81,1,.81,0,1.32-.9,1.32-1.6"/><path id="Path_24996" data-name="Path 24996" class="cls-8" d="M33.36,14h-.6l.09-.34h1l-.2.85c.41-.57.76-.9,1-.9s.38.14.38.32a.37.37,0,0,1-.35.37.33.33,0,0,1-.33-.26,2.43,2.43,0,0,0-1,1.38l-.34,1.36h-.39Z"/><path id="Path_24997" data-name="Path 24997" class="cls-8" d="M35.28,15.35a1.27,1.27,0,0,0,0,.2,1,1,0,0,0,1,1h.07a2,2,0,0,0,1-.29l-.09.4a2,2,0,0,1-1,.23,1.3,1.3,0,0,1-1.37-1.21v-.1a1.88,1.88,0,0,1,1.74-1.93,1,1,0,0,1,1.13,1,.76.76,0,0,1,0,.15,1.8,1.8,0,0,1-.13.61Zm.07-.33h2a1.13,1.13,0,0,0,.06-.36.7.7,0,0,0-.8-.69,1.43,1.43,0,0,0-1.25,1"/><path id="Path_24998" data-name="Path 24998" class="cls-8" d="M39.37,15.57a1.85,1.85,0,0,1,1.67-2,1,1,0,0,1,1,.81l.19-.78h.38L42.05,16c0,.1,0,.2,0,.3a.23.23,0,0,0,.21.25h0c.17,0,.29-.15.43-.49l.23.07c-.15.44-.37.7-.71.7a.5.5,0,0,1-.55-.46v-.16a1.46,1.46,0,0,1-1.11.64,1.15,1.15,0,0,1-1.16-1.15.76.76,0,0,1,0-.15m2.54-.66A.83.83,0,0,0,41.2,14h-.15a1.47,1.47,0,0,0-1.27,1.59c0,.58.29,1,.82,1,.81,0,1.31-.9,1.31-1.6"/></g></svg>