<svg width="242" height="43" fill="none" xmlns="http://www.w3.org/2000/svg"><g clip-path="url(#clip0_2993_18008)" fill="currentColor"><path d="M59.827 32.338c4.206 0 6.924-4.349 6.924-8.137v-.81h-1.282c-3.74 0-10.51.255-10.51 4.853 0 2.072 1.644 4.094 4.873 4.094m5.74-12.633H66.7v-.453c0-4.196-2.413-5.606-5.689-5.606-3.999 0-7.228 2.475-7.228 2.475l-2.051-3.585S55.47 9.5 61.417 9.5c6.562 0 10.251 3.539 10.251 10.006v16.166h-4.614v-2.424c0-1.16.104-2.021.104-2.021h-.104s-2.103 5.05-8.308 5.05c-4.459 0-8.82-2.677-8.82-7.78 0-8.436 11.28-8.793 15.635-8.793M76.521 10.107h4.82v4.445c0 1.06-.102 1.92-.102 1.92h.103c1.178-3.738 4.206-6.67 8.205-6.67.666 0 1.281.101 1.281.101v4.848s-.666-.153-1.436-.153c-3.178 0-6.102 2.225-7.28 6.013-.46 1.467-.615 3.03-.615 4.598v10.459h-4.97v-25.56h-.006zM96.827 14.4h-3.384v-3.941h3.539V3.08h4.821v7.378h6.251v3.94h-6.251v11.37c0 5.102 3.637 5.76 5.538 5.76.719 0 1.178-.103 1.178-.103v4.349s-.718.102-1.741.102c-3.332 0-9.946-1.009-9.946-9.548V14.4h-.005zM112.865 29.054s2.924 2.978 7.435 2.978c2.154 0 4.304-1.11 4.304-3.182 0-4.7-13.331-3.737-13.331-12.078 0-4.648 4.206-7.276 9.383-7.276 5.689 0 8.36 2.831 8.36 2.831l-1.999 3.687s-2.31-2.271-6.407-2.271c-2.155 0-4.258.906-4.258 3.131 0 4.598 13.331 3.59 13.331 11.976 0 4.246-3.689 7.429-9.383 7.429-6.361 0-9.843-3.738-9.843-3.738l2.413-3.487h-.005zM130.949 10.107h5.28l5.384 17.938c.414 1.314.615 2.73.667 2.73h.103s.258-1.416.667-2.73l5.637-17.887h4.562l5.59 17.888c.414 1.313.719 2.729.719 2.729h.103s.207-1.416.615-2.73l5.435-17.938h5.229l-8.355 25.566h-5.487l-5.384-16.421c-.413-1.314-.718-2.78-.718-2.78h-.103s-.31 1.466-.718 2.78l-5.333 16.42h-5.538l-8.36-25.565h.005zM185.227 32.032c4.924 0 8.923-3.839 8.923-9.195 0-5.357-3.999-9.094-8.923-9.094-4.924 0-8.924 3.788-8.924 9.094 0 5.305 4.051 9.195 8.924 9.195zm0-22.536c7.74 0 13.997 5.606 13.997 13.34 0 7.735-6.257 13.438-13.997 13.438s-13.997-5.657-13.997-13.437c0-7.78 6.257-13.34 13.997-13.34zM202.536 10.107h4.82v4.445c0 1.06-.103 1.92-.103 1.92h.103c1.178-3.738 4.206-6.67 8.205-6.67.667 0 1.282.101 1.282.101v4.848s-.667-.153-1.437-.153c-3.177 0-6.102 2.225-7.28 6.013-.46 1.467-.615 3.03-.615 4.598v10.459h-4.97v-25.56h-.005zM219.695 0h4.975v19.502h3.638l7.078-9.395h5.637L232.41 21.37v.102l9.59 14.2h-5.797l-7.792-12.026h-3.741v12.027h-4.975V0zM38.007 23.845c2.186-.077 2.501 4.155-.31 4.002-2.81-.153-1.875-3.926.31-4.002zM5.043 10.917c4.107.6 2.03 6.695-1.406 5.774-3.198-.86-2.263-6.314 1.406-5.774zM29.73 8.834c1.948-.784 2.888 2.312.858 2.77-2.03.464-2.579-2.077-.858-2.77zM13.48 33.702c1.803-1.374 3.984 1.538 2.424 2.852-1.56 1.308-4.14-1.538-2.424-2.852zM7.311 30.851c1.225-2.042 5.157.387 3.906 2.312-1.333 2.052-5.704.692-3.906-2.312zM38.793 34.319c2.81-.153 2.346 4.002.155 3.925-2.03-.071-2.186-3.813-.155-3.925z"/><path d="M29.73 8.834c1.948-.784 2.888 2.312.858 2.77-2.03.464-2.579-2.077-.858-2.77zM13.48 33.702c1.803-1.374 3.984 1.538 2.424 2.852-1.56 1.308-4.14-1.538-2.424-2.852zM7.311 30.851c1.225-2.042 5.157.387 3.906 2.312-1.333 2.052-5.704.692-3.906-2.312zM38.793 34.319c2.81-.153 2.346 4.002.155 3.925-2.03-.071-2.186-3.813-.155-3.925zM20.983 36.162c1.72 0 2.81 1.461 2.655 2.617-.14 1.018-.95 2.113-3.203 1.772-2.03-.306-2.186-1.696-2.03-2.465.154-.768.702-1.924 2.578-1.924zM32.07 33.702c3.984.464 1.876 5.698-1.25 5.158s-1.875-5.52 1.25-5.158zM17.78 5.295c3.57-1.003 6.251 3.926 1.952 5.774-3.425 1.472-5.781-4.694-1.953-5.774zM12.855 9.374c2.568 1.085.811 6.34-2.346 4.929-2.578-1.156-.392-6.08 2.346-4.93z"/><path d="M20.983 36.162c1.72 0 2.81 1.461 2.655 2.617-.14 1.018-.95 2.113-3.203 1.772-2.03-.306-2.186-1.696-2.03-2.465.154-.768.702-1.924 2.578-1.924zM32.07 33.702c3.984.464 1.876 5.698-1.25 5.158s-1.875-5.52 1.25-5.158zM17.78 5.295c3.57-1.003 6.251 3.926 1.952 5.774-3.425 1.472-5.781-4.694-1.953-5.774zM35.977 37.857c1.958.077 2.03 3.386 0 3.234-2.03-.153-1.953-3.31 0-3.234z"/><path d="M35.977 28.774c3.508.32 3.126 5.31-.31 5.234-3.436-.076-3.049-5.54.31-5.234zM37.537 16.772c4.092-.448 4.532 5.21.755 5.683-3.09.387-4.46-5.275-.755-5.683zM42.699 15.224c1.948-.101 2.186 2.694.155 2.77-2.03.077-1.638-2.693-.155-2.77zM24.103 6.757c2.346-.387 3.514 3.08 1.013 3.539-2.5.463-2.532-3.295-1.013-3.54zM9.497 15.148c2.325.407 1.483 3.85-.548 3.773-2.03-.076-1.643-4.155.548-3.773zM5.203 19.227c3.524-1.044 5.864 4.068 1.72 5.463-2.97.998-4.84-4.542-1.72-5.463zM1.684 17.612c2.418-.101 2.031 3.31-.232 3.081-2.263-.23-1.638-3.004.232-3.08zM15.749 37.547c3.286.748 1.529 6.853-2.346 5.158-2.811-1.233-.703-5.85 2.346-5.158zM2.387 28.31c2.733-.921 4.294 3.08 1.405 3.926-2.888.845-3.627-3.177-1.405-3.926zM6.686 25.846c2.656-1.232 4.144 2.311 2.03 3.386-2.423 1.232-3.864-2.536-2.03-3.386zM42.616 21.69c2.744-.386 3.751 3.927.703 4.314-3.049.382-2.888-4.003-.703-4.313zM25.354 37.705c1.323-1.233 3.725 1.064 2.263 2.311-1.72 1.462-3.751-.921-2.263-2.311z"/><path d="M9.497 15.148c2.325.407 1.483 3.85-.548 3.773-2.03-.076-1.643-4.155.548-3.773zM6.686 25.846c2.656-1.232 4.144 2.311 2.03 3.386-2.423 1.232-3.864-2.536-2.03-3.386zM42.616 21.69c2.744-.386 3.751 3.927.703 4.314-3.049.382-2.888-4.003-.703-4.313zM12.69 3.187c2.743-.387 3.75 3.926.703 4.313-3.049.382-2.889-4.002-.703-4.313zM25.354 37.705c1.323-1.233 3.725 1.064 2.263 2.311-1.72 1.462-3.751-.921-2.263-2.311zM33.516 7.353c1.323-1.233 3.726 1.064 2.264 2.311-1.721 1.462-3.752-.921-2.264-2.311zM34.81 11.146c3.182-.341 3.513 4.847.392 4.847s-3.281-4.542-.393-4.847zM29.906 5.932c-1.958 2.021-5.74-1.227-3.917-3.188 2.243-2.408 5.994 1.044 3.917 3.188zM20.3 12.317c3.715-.774 7.074.443 9.28 1.828 2.207 1.39 3.819 4.374 4.206 7.378.351 2.719-.413 5.687-2.196 8.391-1.87 2.841-4.815 4.257-8.608 4.38-3.224.1-5.611-.55-7.574-2.363-2.827-2.618-4.227-5.846-3.86-9.39.279-2.719 1.504-4.49 2.883-6.242 1.622-2.067 3.534-3.503 5.87-3.992"/><path d="M34.81 11.146c3.182-.341 3.513 4.847.392 4.847s-3.281-4.542-.393-4.847z"/></g><defs><clipPath id="clip0_2993_18008"><path fill="currentColor" d="M0 0h242v43H0z"/></clipPath></defs></svg>