<?xml version="1.0" encoding="UTF-8"?>
<svg xmlns="http://www.w3.org/2000/svg" width="300" height="300">
  <defs>
    <clipPath id="a">
      <path d="M0 0h300v300H0z"></path>
    </clipPath>
  </defs>
  <g clip-path="url(#a)">
    <path data-name="Path 42467" d="M0 65.946h69.16v4.688h-7.38s-9.334.651-5.53 14.062 32.659 98.053 32.659 98.053l40.535-102.356s3.151-9.413-6.609-9.413h-7.684v-5.495h37.692v4.995h-8.952s-5.494-.461-10.067 11.527c-5.187 13.755-61.475 154.878-61.475 154.878L17.905 78.203a9.644 9.644 0 00-9.725-7.224H0z" stroke="#f1ebe8" stroke-width=".25" fill="currentColor"></path>
    <path data-name="Path 42468" d="M201.87 226.858l-11.949-18.212a58.21 58.21 0 0014.293-32.505 11.8 11.8 0 014.726-7.877h6.532v-3.842h-28.24v3.462l5.187 1.345c6.263 0 6.263 8.376 6.263 8.376-3.343 21.363-11.527 27.2-11.527 27.2l-29.317-46.607a166.749 166.749 0 0020.94-14.639c15.907-12.987-2.574-26.9-2.574-26.9-26.05-16.175-44.877 2.617-44.877 2.617-16.752 12.141 2.92 45.684 2.92 45.684a91.75 91.75 0 00-15.06 7.684s-27.858 16.714-15.14 42.956c21.094 43.379 69.967 9.644 69.967 9.644 30.738 28.893 41.957-2.382 41.957-2.382-10.489 10.682-14.101 3.996-14.101 3.996zm-46.99-110.656c7.223 0 12.257 7.684 12.257 19.211s-12.871 20.4-12.871 20.4c-1.269-.305-13.218-22.282-13.526-27.929s6.916-11.682 14.14-11.682zm.307 111.425c-15.715 1.575-26.9-10.374-32.044-29.239s13.832-28.894 13.832-28.894l33.619 51.524s.307 5.149-15.407 6.724z" fill="currentColor"></path>
    <path data-name="Path 42469" d="M201.87 226.858l-11.949-18.212a58.21 58.21 0 0014.293-32.505 11.8 11.8 0 014.726-7.877h6.532v-3.842h-28.24v3.462l5.187 1.345c6.263 0 6.263 8.376 6.263 8.376-3.343 21.363-11.527 27.2-11.527 27.2l-29.317-46.607a166.749 166.749 0 0020.94-14.639c15.907-12.987-2.574-26.9-2.574-26.9-26.05-16.175-44.877 2.617-44.877 2.617-16.752 12.141 2.92 45.684 2.92 45.684a91.75 91.75 0 00-15.06 7.684s-27.858 16.714-15.14 42.956c21.094 43.379 69.967 9.644 69.967 9.644 30.738 28.893 41.957-2.382 41.957-2.382-10.489 10.682-14.101 3.996-14.101 3.996zm-46.99-110.656c7.223 0 12.257 7.684 12.257 19.211s-12.871 20.4-12.871 20.4c-1.269-.305-13.218-22.282-13.526-27.929s6.916-11.682 14.14-11.682zm.307 111.425c-15.715 1.575-26.9-10.374-32.044-29.239s13.832-28.894 13.832-28.894l33.619 51.524s.307 5.149-15.407 6.724z" fill="none" stroke="#f1ebe8" stroke-width=".25" fill="currentColor"></path>
    <path data-name="Path 42470" d="M217.622 62.258l59.9 154.572s4.611 14.255 14.793 14.255h7.687v5.648h-71.083v-5.648h7.683s7.953-1.691 3.842-11.719-40.342-106.621-40.342-106.621z" stroke="#f1ebe8" stroke-width=".25" fill="currentColor"></path>
  </g>
</svg>
