<svg xmlns="http://www.w3.org/2000/svg" width="198.933" height="64.052"><g fill="currentColor"><path data-name="Subtraction 1" d="M55.871 64.052a3.02 3.02 0 0 1-1.746-.552L31.034 42.187a2.093 2.093 0 0 0-2.855 0L4.779 63.5A3.044 3.044 0 0 1 0 61V5.187A5.158 5.158 0 0 1 5.152 0h48.6a5.156 5.156 0 0 1 5.152 5.188v55.813a3.033 3.033 0 0 1-3.033 3.052ZM29.595 6.362a13.323 13.323 0 0 0-8.124 2.733 15.18 15.18 0 0 0-5.337 8.211 12.433 12.433 0 0 0 3.976 12.251l8.441 8.5a1.529 1.529 0 0 0 2.11 0l8.193-8.25a14.356 14.356 0 0 0 4.1-8.8 13.214 13.214 0 0 0-2.606-9.266A13.4 13.4 0 0 0 29.6 6.359Z"/><path data-name="Subtraction 2" d="M29.48 29.875h-.248a.059.059 0 0 0-.017-.045.063.063 0 0 0-.045-.018l-7.076-4.25a.447.447 0 0 1-.186-.375V13.25a.517.517 0 0 1 .248-.375.524.524 0 0 1 .435 0L29.419 17l6.828-4.125a.524.524 0 0 1 .435 0 .473.473 0 0 1 .246.437v11.939a.446.446 0 0 1-.185.375l-7.2 4.187a.061.061 0 0 1-.062.062Zm5.02-7.377a.481.481 0 0 0-.239.064l-3.041 1.815a.49.49 0 0 0-.124.625.441.441 0 0 0 .359.186h.014c.123 0 .185 0 .247-.063l3.041-1.813a.49.49 0 0 0 .124-.625.474.474 0 0 0-.38-.189Zm-10.1-.005a.446.446 0 0 0-.254.819l3.042 1.814a.467.467 0 0 0 .233.062h.025a.441.441 0 0 0 .362-.188.489.489 0 0 0-.124-.625l-3.041-1.814a.464.464 0 0 0-.245-.071Zm10.1-2.744a.48.48 0 0 0-.24.064l-3.041 1.812a.49.49 0 0 0-.124.625.379.379 0 0 0 .328.192h.045c.121 0 .185 0 .247-.063l3.041-1.814a.489.489 0 0 0 .124-.625.475.475 0 0 0-.379-.191Zm-10.1-.006a.446.446 0 0 0-.253.819l3.042 1.814a.467.467 0 0 0 .233.062h.025a.443.443 0 0 0 .362-.188.49.49 0 0 0-.124-.625l-3.041-1.813a.465.465 0 0 0-.246-.069Zm0-2.687a.467.467 0 0 0-.378.194.411.411 0 0 0 .124.562l3.042 1.877a.467.467 0 0 0 .233.062h.025a.441.441 0 0 0 .362-.188.47.47 0 0 0-.124-.625l-3.041-1.814a.464.464 0 0 0-.245-.068Zm10.1-.058a.479.479 0 0 0-.239.064l-3.042 1.814a.489.489 0 0 0-.124.625.412.412 0 0 0 .315.25c.122 0 .186 0 .248-.063l3.1-1.875a.443.443 0 0 0-.258-.815Z"/><path data-name="Path 36" d="M82.489 29.312a3.16 3.16 0 0 0-.124-.75 5.519 5.519 0 0 0-.372-.625 1.287 1.287 0 0 0-.621-.375 1.565 1.565 0 0 0-.745-.125h-3.414v3.813h3.414a3.124 3.124 0 0 0 .807-.125 1.419 1.419 0 0 0 .621-.437 2.244 2.244 0 0 0 .434-.626 3.031 3.031 0 0 1 0-.75Zm.683 6.5a2.073 2.073 0 0 0-.993-1.75 2.214 2.214 0 0 0-.683-.25c-.124 0-.31-.062-.435-.062h-3.972v4.312h3.972a1.049 1.049 0 0 0 .435-.062 3.013 3.013 0 0 0 .683-.25 4.025 4.025 0 0 0 .559-.5 5.5 5.5 0 0 0 .372-.625c0-.313.062-.563.062-.813Zm-9.062-10.5a.458.458 0 0 1 .5-.5h6.579a4.14 4.14 0 0 1 1.738.375 4.42 4.42 0 0 1 1.366.938 5.349 5.349 0 0 1 .931 1.375 4.172 4.172 0 0 1 .31 1.75 4.723 4.723 0 0 1-.31 1.625 3.726 3.726 0 0 1-.869 1.313 3.047 3.047 0 0 1 .807.75 4.435 4.435 0 0 1 .621.875 2.774 2.774 0 0 1 .372 1 6.931 6.931 0 0 1 .124 1.125 4.51 4.51 0 0 1-.372 1.813 6.093 6.093 0 0 1-.931 1.5 3.936 3.936 0 0 1-1.428 1 4.141 4.141 0 0 1-1.738.375h-7.2a.473.473 0 0 1-.31-.125.479.479 0 0 1-.124-.312Z"/><path data-name="Path 37" d="M91.303 33.875a4.73 4.73 0 0 0 .31 1.625 4.678 4.678 0 0 0 .807 1.313 3.466 3.466 0 0 0 1.242.875 3.291 3.291 0 0 0 1.551.313 4.3 4.3 0 0 0 1.552-.312 3.454 3.454 0 0 0 1.241-.875 3.563 3.563 0 0 0 .807-1.312 4.7 4.7 0 0 0 .311-1.625 5 5 0 0 0-.311-1.625 3.563 3.563 0 0 0-.807-1.312 4.638 4.638 0 0 0-1.241-.937 3.348 3.348 0 0 0-1.552-.375 4.039 4.039 0 0 0-1.551.313 4.658 4.658 0 0 0-1.242.938 3.589 3.589 0 0 0-.807 1.313 4.067 4.067 0 0 0-.31 1.683Zm-2.979 0A6.494 6.494 0 0 1 88.572 32a6.6 6.6 0 0 1 1.738-3.062 6.089 6.089 0 0 1 1.427-1.062 5.26 5.26 0 0 1 1.614-.687 5.848 5.848 0 0 1 1.862-.25 5.7 5.7 0 0 1 1.8.25 7.37 7.37 0 0 1 1.614.688 7.975 7.975 0 0 1 1.366 1.063 5.425 5.425 0 0 1 1.055 1.375 5.1 5.1 0 0 1 .683 1.688 6.226 6.226 0 0 1 .248 1.875 6.5 6.5 0 0 1-.248 1.875 7.552 7.552 0 0 1-.683 1.625 8.06 8.06 0 0 1-1.055 1.375 5.4 5.4 0 0 1-1.366 1.063 7.37 7.37 0 0 1-1.614.688 6.605 6.605 0 0 1-3.6 0 7.383 7.383 0 0 1-1.613-.687 7.952 7.952 0 0 1-1.366-1.067 5.421 5.421 0 0 1-1.055-1.375 5.072 5.072 0 0 1-.683-1.687 3.664 3.664 0 0 1-.372-1.813Z"/><path data-name="Path 38" d="M107.441 33.875a4.728 4.728 0 0 0 .31 1.625 4.655 4.655 0 0 0 .807 1.313 3.466 3.466 0 0 0 1.242.875 3.291 3.291 0 0 0 1.551.313 4.3 4.3 0 0 0 1.552-.312 3.454 3.454 0 0 0 1.241-.875 3.563 3.563 0 0 0 .807-1.312 4.729 4.729 0 0 0 .311-1.625 5.028 5.028 0 0 0-.311-1.625 3.563 3.563 0 0 0-.807-1.312 4.638 4.638 0 0 0-1.241-.937 3.348 3.348 0 0 0-1.552-.375 4.039 4.039 0 0 0-1.551.313 4.658 4.658 0 0 0-1.242.938 3.576 3.576 0 0 0-.807 1.313 4.253 4.253 0 0 0-.31 1.683Zm-2.979 0A6.5 6.5 0 0 1 104.71 32a6.6 6.6 0 0 1 1.738-3.062 6.085 6.085 0 0 1 1.427-1.062 5.26 5.26 0 0 1 1.614-.687 5.844 5.844 0 0 1 1.862-.25 5.7 5.7 0 0 1 1.8.25 7.391 7.391 0 0 1 1.614.688 7.975 7.975 0 0 1 1.366 1.063 5.448 5.448 0 0 1 1.055 1.375 5.075 5.075 0 0 1 .682 1.688 6.2 6.2 0 0 1 .249 1.875 6.467 6.467 0 0 1-.249 1.875 7.5 7.5 0 0 1-.682 1.625 8.06 8.06 0 0 1-1.055 1.375 5.4 5.4 0 0 1-1.366 1.063 7.391 7.391 0 0 1-1.614.688 6.605 6.605 0 0 1-3.6 0 7.411 7.411 0 0 1-1.614-.687 7.967 7.967 0 0 1-1.365-1.062 5.4 5.4 0 0 1-1.055-1.375 5.056 5.056 0 0 1-.683-1.687 3.668 3.668 0 0 1-.372-1.818Z"/><path data-name="Path 39" d="M121.096 23.812a.909.909 0 0 1 .124-.437c.062-.125.249-.187.559-.187h1.8a.481.481 0 0 1 .434.188.893.893 0 0 1 .124.375v8.75l4.656-5c.062-.062.186-.187.248-.187a.555.555 0 0 1 .31-.062h2.421a.876.876 0 0 1 .372.125.326.326 0 0 1 .125.25.228.228 0 0 1-.063.188c0 .063-.062.125-.124.188l-4.717 4.938 5.586 6.938c.062.063.124.188.186.25a.373.373 0 0 1 .063.25.326.326 0 0 1-.125.25.462.462 0 0 1-.31.063h-2.669c-.186 0-.372-.125-.559-.437l-4.034-5.312-1.241 1.313v3.806a.231.231 0 0 1-.062.188c0 .063-.063.125-.125.188l-.186.188a.462.462 0 0 1-.31.063h-1.862c-.124 0-.186 0-.248-.062l-.187-.187c-.062-.062-.062-.125-.124-.187 0-.062-.062-.125-.062-.187Z"/><path data-name="Path 40" d="M135.744 27.312a1.911 1.911 0 0 1 .683-.125h1.055a.483.483 0 0 1 .435.188.678.678 0 0 1 .186.438l.124 1a6.632 6.632 0 0 1 .559-.687 1.691 1.691 0 0 1 .745-.562 4.764 4.764 0 0 1 .993-.437 4.621 4.621 0 0 1 1.365-.125 7.7 7.7 0 0 1 1.3.125 5.373 5.373 0 0 1 1.055.438 4.728 4.728 0 0 1 .869.688 3.665 3.665 0 0 1 .683.938 4.477 4.477 0 0 1 .682-.937 5.661 5.661 0 0 1 .993-.687 7.278 7.278 0 0 1 1.242-.437 5.252 5.252 0 0 1 1.427-.187 4.831 4.831 0 0 1 2.173.438 4.775 4.775 0 0 1 2.483 3.125 8.569 8.569 0 0 1 .31 2.25v7.056a.768.768 0 0 1-.186.563.7.7 0 0 1-.5.188h-1.614q-.465 0-.558-.187c-.124-.125-.124-.312-.124-.562v-7.127a2.94 2.94 0 0 0-.187-1.062 2.26 2.26 0 0 0-.5-.937 2.564 2.564 0 0 0-.8-.626 2.348 2.348 0 0 0-1.179-.25 2.886 2.886 0 0 0-1.056.188 2.612 2.612 0 0 0-.869.563 2.357 2.357 0 0 0-.558.938 3.666 3.666 0 0 0-.186 1.188v7.063c0 .5-.249.75-.683.75h-1.614c-.248 0-.5-.062-.559-.187a1.256 1.256 0 0 1-.124-.562v-7.066a5.546 5.546 0 0 0-.124-1.062 2.26 2.26 0 0 0-.5-.937 4.316 4.316 0 0 0-.807-.687 2.352 2.352 0 0 0-1.18-.25 3.072 3.072 0 0 0-.993.188 2.612 2.612 0 0 0-.869.563 2.242 2.242 0 0 0-.62.875 2.293 2.293 0 0 0-.249 1.125v7.375a.57.57 0 0 1-.186.438.561.561 0 0 1-.434.188h-1.738a.609.609 0 0 1-.5-.187.618.618 0 0 1-.186-.5V27.625a1.4 1.4 0 0 1 .328-.313Z"/><path data-name="Path 41" d="M160.82 33.937a4.705 4.705 0 0 0 .314 1.625 4.652 4.652 0 0 0 .806 1.313 3.466 3.466 0 0 0 1.242.875 3.292 3.292 0 0 0 1.552.312 4.63 4.63 0 0 0 1.613-.312 4.786 4.786 0 0 0 1.3-.875 4.845 4.845 0 0 0 .869-1.312 4.727 4.727 0 0 0 .31-1.625 4.383 4.383 0 0 0-.31-1.562 3.728 3.728 0 0 0-.868-1.314 4.977 4.977 0 0 0-1.3-.937 3.391 3.391 0 0 0-1.613-.312 4.293 4.293 0 0 0-1.552.313 3.64 3.64 0 0 0-1.249.936 3.573 3.573 0 0 0-.806 1.313 4.361 4.361 0 0 0-.308 1.562Zm10.924 6.125a.471.471 0 0 1-.062.313l-.186.188c-.062.063-.186.063-.31.125h-1.614a.611.611 0 0 1-.5-.187 3.058 3.058 0 0 1-.186-.437l-.062-.875a4.253 4.253 0 0 1-.807.688c-.31.188-.621.375-.993.563a5.871 5.871 0 0 1-1.117.375 7.564 7.564 0 0 1-1.179.125 5.7 5.7 0 0 1-1.8-.25 7.37 7.37 0 0 1-1.614-.687 7.975 7.975 0 0 1-1.366-1.062 6.125 6.125 0 0 1-1.055-1.437 6.889 6.889 0 0 1-.683-1.687 5.967 5.967 0 0 1-.248-1.875 6.5 6.5 0 0 1 .251-1.88 9.707 9.707 0 0 1 .683-1.687A8.011 8.011 0 0 1 159.951 29a6.762 6.762 0 0 1 2.98-1.75 5.7 5.7 0 0 1 1.8-.25 9.206 9.206 0 0 1 1.3.125 11.667 11.667 0 0 1 1.117.375 5.325 5.325 0 0 1 .993.625 4.943 4.943 0 0 1 .807.813l.124-1.125c.062-.125.062-.25.124-.312s.063-.125.125-.187.124-.062.186-.125.186 0 .248 0h1.055a.465.465 0 0 1 .311.063c.124 0 .186.063.31.125.062.063.186.125.186.188a.471.471 0 0 1 .062.313Z"/><path data-name="Path 42" d="M174.91 27.875a.488.488 0 0 1 .186-.437.667.667 0 0 1 .435-.187h1.365a.377.377 0 0 1 .373.188c.062.125.186.25.186.375.062.125.062.313.124.5 0 .188.062.375.062.5.186-.187.31-.437.5-.625a6.726 6.726 0 0 1 .683-.562 1.924 1.924 0 0 1 .807-.375 2.884 2.884 0 0 1 1.055-.125 4.078 4.078 0 0 1 .931.063c.311.063.559.125.807.188l.745.375a4.778 4.778 0 0 1 .807.563 1.355 1.355 0 0 1 .31.25.674.674 0 0 1 .124.375.231.231 0 0 1-.062.188c0 .063-.062.125-.062.188l-.869 1.375c-.062.063-.124.125-.186.125s-.124.063-.186.063a.462.462 0 0 1-.31-.062 5.377 5.377 0 0 1-.621-.375c-.186-.125-.373-.187-.559-.312l-.558-.187a2.1 2.1 0 0 0-.621-.062 1.964 1.964 0 0 0-1.552.625 2.754 2.754 0 0 0-.869 1.688v8c0 .438-.248.625-.682.625h-1.739c-.435 0-.683-.187-.683-.625Z"/><path data-name="Path 43" d="M186.827 23.937a.909.909 0 0 1 .124-.437c.062-.125.249-.187.559-.187h1.8a.481.481 0 0 1 .434.188.881.881 0 0 1 .125.375v8.75l4.655-5c.062-.062.186-.187.248-.187a.555.555 0 0 1 .31-.062h2.421a.876.876 0 0 1 .372.125.323.323 0 0 1 .125.25.231.231 0 0 1-.062.188c0 .063-.063.125-.125.188l-4.717 4.934L198.682 40c.062.063.125.188.187.25a.378.378 0 0 1 .062.25.326.326 0 0 1-.124.25.466.466 0 0 1-.311.063h-2.669c-.186 0-.372-.125-.558-.437l-4.035-5.314-1.241 1.313v3.813a.231.231 0 0 1-.062.188c0 .063-.062.125-.124.188l-.187.188a.462.462 0 0 1-.31.063h-1.862c-.124 0-.186 0-.248-.062l-.187-.187c-.062-.062-.062-.125-.124-.187v-.187Z"/></g></svg>