<?xml version="1.0" encoding="utf-8"?>
<svg version="1.1" id="Layer_1" x="0px" y="0px" viewBox="0 0 617.26 139" style="enable-background:new 0 0 617.26 194.27;" xmlns="http://www.w3.org/2000/svg">
  <style type="text/css">
	.st0{fill:none;}
	.st1{fill:#ffffff;}
	.st2{fill:#ffffff;}
</style>
  <g style="" transform="matrix(1.160441, 0, 0, 1.160441, -49.516613, -46.584343)">
    <path class="st1" d="M120.73,100.54c0,0,6.33,0.5,13.92-3.46c1.85,2.42,4.34,4.39,7.35,5.64c3.84,1.59,7.92,1.75,11.63,0.72 c-1.89-3.36-4.88-6.14-8.73-7.72c-1.88-0.78-3.82-1.21-5.75-1.33c2.34-0.61,4.66-1.68,6.81-3.24c3.28-2.38,5.63-5.52,6.88-8.83 c-3.54,0.16-7.24,1.42-10.53,3.81c-2.74,1.99-4.82,4.5-6.17,7.2c-8.55,4.46-14.28,3.83-14.28,3.83c-5.02-0.13-8.88-3.51-8.9-8.38 c0-1.25,0.63-3.14,1.25-4.32c1.04-1.99,2.22-4.06,2.85-6.02c0.02-0.06,4.49,4.48,10.9,4.3c5.2-0.15,9.61-4.17,10.4-9.19 c1.37,1.66,3.15,3.02,5.27,3.9c2.9,1.21,5.98,1.32,8.79,0.54c-1.43-2.54-3.7-4.63-6.6-5.84c-2.38-0.99-4.89-1.24-7.27-0.87 c1.22-2.09,1.92-4.46,1.92-6.98c0-3.51-1.35-6.73-3.6-9.3c-2.25,2.56-3.6,5.79-3.6,9.3c0,2.65,0.76,5.14,2.11,7.31 c-0.15,4.29-3.49,7.73-7.6,7.73c-3.85,0-8.64-3.15-9.25-7.06c-0.62-3.95-0.84-11.25,1.55-15.09c1.7,0.05,3.42-0.25,5.06-0.93 c2.91-1.2,5.13-3.43,6.49-6.19c-2.91-0.99-6.05-1-8.97,0.21c-2.53,1.04-4.53,2.85-5.9,5.11c-2.78-4.68-7.09-8.68-12.61-11.19 c-5.63-2.57-11.61-3.17-17.07-2.1c2.78,4.81,7.16,8.93,12.79,11.49c4.09,1.87,8.38,2.7,12.5,2.6c0.63,1.15,2.87,6.75,2.2,14.26 c-0.27,1.39-0.56,7.33-5.84,14.48c-3.94,4.87-7.91,7.58-9.68,8.66c4.1-6.33,8.2-16.74-0.75-27.07c1.67,0.72,3.57,1.12,5.57,1.12 c2.87,0,5.51-0.83,7.61-2.21c-2.09-1.38-4.74-2.2-7.61-2.2c-2.61,0-5.03,0.68-7.03,1.85c-2.32-1.82-5.22-3.16-8.47-3.76 c-3.91-0.72-7.7-0.25-10.9,1.1c2.51,2.4,5.89,4.18,9.8,4.89c2.31,0.42,4.58,0.43,6.72,0.09c8.07,7.85,4.71,17.79,0.47,24.17 c-1.53,2.47-3.52,4.73-6.68,6.82c-4.68,3.18-7.51,5.35-7.51,5.35s-8.16,6.09-10.2,14.32c-1.76-8.75,2.9-24.21,11.7-31.45 c2.15-0.36,4.25-1.23,6.13-2.65c2.52-1.9,4.22-4.47,5.01-7.24c-2.88,0.01-5.82,0.92-8.34,2.83c-1.88,1.41-3.3,3.2-4.23,5.16 c-1.53-2.12-3.7-3.88-6.36-4.99c-2.99-1.23-6.11-1.44-8.95-0.78c1.54,2.46,3.9,4.53,6.89,5.77c1.69,0.7,3.42,1.07,5.12,1.14 c-3.27,2.75-7.17,8.85-7.17,8.85c-11.49,3.18-17.8-4.8-17.8-11.4c0-5.8,3.96-10.54,9.13-11.03c1.13,0.28,2.32,0.44,3.56,0.44 c2.88,0,5.53-0.83,7.63-2.21c-2.1-1.39-4.75-2.21-7.63-2.21c-1.85,0-3.6,0.34-5.17,0.95c1.38-1.31,2.51-2.93,3.29-4.81 c1.25-3,1.37-6.2,0.56-9.12c-2.63,1.48-4.8,3.83-6.05,6.85c-1.1,2.65-1.33,5.43-0.81,8.04C51.48,72.69,48,77.64,48,83.71 c0,8.59,7.66,17.01,19.6,15.95c0.11-0.01-2.82,6.07-3.29,13.78c0,0-3-5.73-9.07-8.71c-0.43-1.83-1.27-3.59-2.54-5.14 c-1.87-2.3-4.38-3.77-7.05-4.36c0.06,2.74,1,5.49,2.87,7.78c1.53,1.87,3.49,3.19,5.61,3.94c-1.43,1-2.61,2.41-3.33,4.15 c-0.84,2.04-0.93,4.21-0.37,6.19c1.79-1.01,3.26-2.6,4.11-4.64c0.61-1.47,0.82-3.01,0.68-4.5c0.82,0.58,3.91,3.48,5.79,10.64 c1.33,5.04,2.67,11.82,8.55,18.58c10.53,12.11,30.27,11.67,30,11.6c-25.49-6.25-24.57-26.26-24.57-26.26s-0.1-5.86,4.65-8.56 c3.54-1.77,8.62-0.05,12.38,4.47c2.09,2.5,3.24,4.77,5.78,9.81c-0.32,3.24,0.04,6.79,1.17,10.34c1.41,4.46,3.81,8.19,6.69,10.85 c0.81-3.84,0.62-8.27-0.8-12.72c-0.79-2.5-1.9-4.77-3.22-6.76c3.55,2.67,7.89,4.98,12.77,6.62c6.54,2.2,13.02,2.87,18.57,2.22 c-4.02-3.88-9.58-7.27-16.12-9.47c-5.45-1.84-10.87-2.61-15.73-2.43c-2.28-5.79-4.78-9.47-4.78-9.47 c-2.97-4.4-6.76-7.73-13.26-9.01c2.2-2.36,6.84-4.62,6.84-4.62c11.91,17.3,33.7,15.63,41.76,12.61c-0.49,2.68-0.32,5.51,0.62,8.26 c1.25,3.68,3.69,6.64,6.76,8.6c1.23-3.42,1.36-7.25,0.1-10.94c-0.9-2.63-2.41-4.9-4.31-6.69c2.32,0.35,4.77,0.3,7.24-0.23 c4.21-0.89,7.81-3.01,10.42-5.83c-3.54-1.52-7.69-1.99-11.9-1.09c-3.7,0.78-6.93,2.51-9.43,4.83c-5.41,1.61-9.59,1.98-14.53,1.45 c-0.06-0.2-0.14-0.66-0.08-1.07c0.11-0.04,0.23-0.05,0.35-0.04c0.14,0.01,0.25,0.04,0.37,0.09l0.1-0.23 c-0.14-0.07-0.3-0.11-0.47-0.13c-0.13-0.01-0.26,0-0.38,0.03l-0.67-1.37c1.33-0.04,1.94-0.87,2.2-1.58c1.93,0.3,2.41-0.8,3.82-1.52 c0,0-0.96-0.03-2.23-0.13c0.77-0.38,1.66-0.8,2.02-0.98c0.69-0.35,0.64-1.53,0.64-1.53s-4.34,1.64-6.3,1.44 c-1.97-0.2-2.61-1.16-2.77-1.39c-0.17-0.23-0.69-0.95-1.42-1.44c-0.72-0.5-1.72-0.39-1.89-0.13c-0.05,0.08-0.05,0.24-0.01,0.43 l-0.64,0.28c-0.07,0,0.7,0.47,0.89,0.59c0.25,0.19,0.61,1.86,1.02,2.58c0.33,0.58,1.07,2.4,3.08,3.1l0.57,1.5 c0,0-0.25,0.14-0.41,0.42c-0.16,0.28-0.19,0.7-0.19,0.7c-1.21-0.33-12.72-2.03-19.41-13.06c0,0,6.64-3.12,13.75-8.96 C110.15,96.96,115.88,100.39,120.73,100.54z M115.98,114.84c0.04-0.33,0.13-0.66,0.28-0.81c-0.02,0.29,0.02,0.65,0.07,0.85 C116.21,114.87,116.09,114.85,115.98,114.84z M114.62,112.03c0.23,0.06,0.87,0.15,0.93,0.15l0.72,1.48c0,0-0.26,0.14-0.4,0.42 c-0.14,0.27-0.18,0.71-0.18,0.71c-0.17-0.02-0.33-0.05-0.49-0.07c-0.06-0.17-0.15-0.63-0.07-1.1c0.08-0.02,0.18-0.04,0.28-0.04 c0.17,0,0.32,0.04,0.44,0.09l0.11-0.24c-0.16-0.08-0.35-0.12-0.55-0.13c-0.1-0.01-0.2,0.01-0.29,0.03L114.62,112.03z M114.83,113.79c-0.03,0.33,0,0.67,0.05,0.87c-0.12-0.02-0.37-0.07-0.37-0.07C114.55,114.24,114.67,113.95,114.83,113.79z"/>
    <path class="st1" d="M68,51.04c0,0,0.16,1.33,1,1.59c0,0,1.63,0.57,3.71,1.04c0.17,0.03,1.1,3.04,3.66,2.6c0,0,2.7-0.26,3.96-3.04 c1.6-0.33,3.65-2.01,4.53-5.17c-1.33,0.94-2.55,1.64-3.63,2.15c0.1-0.66,0.2-1.33,0.36-1.67c0.2-0.17,0.98-0.84,0.91-0.83 l-0.77-0.19c0-0.22-0.02-0.4-0.09-0.49c-0.24-0.25-1.38-0.19-2.1,0.49c-0.73,0.7-1.18,1.6-1.33,1.89c-0.1,0.21-0.43,0.92-1.48,1.52 c-0.58,0-3.93-0.13-8.74-3.54c0,0.09,0.66,2.48,2.39,4.02C69.04,51.24,68,51.04,68,51.04z"/>
    <polygon class="st1" points="174.44,53.56 179.25,53.56 179.25,82.4 174.44,82.4 174.44,90.64 194.84,90.64 194.84,82.4 &#10;&#9;&#9;190.04,82.4 190.04,53.56 194.84,53.56 194.84,45.32 174.44,45.32 &#9;"/>
    <path class="st1" d="M234.66,69.46c0-9.2-4.63-12.23-10.47-12.23c-7.82,0-10.54,6.27-10.54,6.27h-0.13c0,0,0.06-0.45,0.06-0.75 v-1.08c0-2.23-1.45-3.68-4.27-3.68h-9.88v7.93h2.89c0.84,0,1.33,0.5,1.33,1.38l0.01,23.33h14.32v-7.92h-3.91v-5.89 c0-4.57,2.03-9.63,6.67-9.63c2.35,0,3.49,1.26,3.49,4.3v19.15h14.33v-7.92h-3.92V69.46z"/>
    <path class="st1" d="M427.93,69.46c0-9.2-4.62-12.23-10.48-12.23c-7.82,0-10.53,6.27-10.53,6.27h-0.13c0,0,0.07-0.45,0.07-0.75 v-1.08c0-2.22-1.44-3.68-4.28-3.68h-9.88v7.93h2.9c0.83,0,1.33,0.5,1.33,1.38v23.33h14.33v-7.92h-3.91v-5.89 c0-4.57,2.04-9.63,6.68-9.63c2.35,0,3.48,1.26,3.48,4.3v19.15h14.34v-7.92h-3.92V69.46z"/>
    <path class="st1" d="M545.22,69.46c0-9.2-4.63-12.23-10.48-12.23c-7.82,0-10.54,6.27-10.54,6.27h-0.11l0.05-1.83 c0-2.22-1.44-3.68-4.26-3.68h-9.89v7.93h2.9c0.85,0,1.33,0.5,1.33,1.38l0,23.33h14.32v-7.92h-3.91v-5.89 c0-4.57,2.04-9.63,6.68-9.63c2.34,0,3.48,1.26,3.48,4.3v19.15h14.33v-7.92h-3.91V69.46z"/>
    <path class="st1" d="M274.96,81.32v-36h-10.41v15.15c0,0-2.06-3.23-8.02-3.23c-8.55,0-14.32,6.72-14.32,17.12 c0,10.08,5.41,17.04,13.67,17.04c7.22,0,9.57-5.38,9.57-5.38h0.11l-0.11,1.2c0,1.59,1.14,3.42,4.16,3.42h8.96v-7.92h-2.29 C275.44,82.71,274.96,82.21,274.96,81.32z M258.69,82.34c-3.55,0-6.02-3.24-6.02-7.99c0-5.07,2.77-7.86,6.2-7.86 c3.98,0,5.96,3.8,5.96,8.12C264.83,79.87,261.83,82.34,258.69,82.34z"/>
    <path class="st1" d="M468.23,81.32v-36h-10.39l0.03,15.15h-0.11c0,0-1.98-3.23-7.95-3.23c-8.55,0-14.33,6.72-14.33,17.12 c0,10.08,5.43,17.04,13.68,17.04c7.22,0,9.57-5.38,9.57-5.38h0.12l-0.12,1.2c0,1.59,1.14,3.42,4.15,3.42h8.97v-7.92h-2.28 C468.71,82.71,468.23,82.21,468.23,81.32z M451.97,82.34c-3.56,0-6.03-3.24-6.03-7.99c0-5.07,2.77-7.86,6.2-7.86 c3.98,0,5.96,3.8,5.96,8.12C458.11,79.87,455.1,82.34,451.97,82.34z"/>
    <path class="st1" d="M312.83,73.01c0-9.06-5.17-15.78-14.44-15.78c-10,0-16.14,7.48-16.14,17.05c0,8.68,5.96,17.11,17.04,17.11 c8.37,0,13.37-4.55,13.37-4.55l-3.8-7.61c0,0-4.16,3.11-8.73,3.11c-3.32,0-6.45-1.84-7.23-6.02h19.69 C312.6,76.32,312.83,74.09,312.83,73.01z M293.16,70.29c0.54-2.54,1.98-4.82,5-4.82c2.28,0,3.91,2.22,3.91,4.82H293.16z"/>
    <path class="st1" d="M339.66,57.23c-6.57,0-9.4,4.5-9.4,4.5h-0.11l0.05-1.02c0-1.2-0.96-2.72-3.96-2.72h-9.59v7.93h2.9 c0.83,0,1.32,0.5,1.32,1.38v36.01h10.43V91.09c0-1.66-0.13-2.8-0.13-2.8h0.11c0,0,2.83,3.1,7.88,3.1c8.25,0,14.46-6.71,14.46-17.04 C353.61,64.2,348.08,57.23,339.66,57.23z M337.06,82.34c-4.09,0-6.08-3.88-6.08-7.8c0-5.65,2.95-8.05,6.08-8.05 c3.6,0,6.07,3.16,6.07,8.05C343.13,79.54,340.31,82.34,337.06,82.34z"/>
    <path class="st1" d="M389.01,73.01c0-9.06-5.18-15.78-14.45-15.78c-10,0-16.14,7.48-16.14,17.05c0,8.68,5.96,17.11,17.04,17.11 c8.37,0,13.37-4.55,13.37-4.55l-3.79-7.61c0,0-4.16,3.11-8.73,3.11c-3.32,0-6.45-1.84-7.23-6.02h19.69 C388.77,76.32,389.01,74.09,389.01,73.01z M369.31,70.29c0.55-2.54,1.98-4.82,5-4.82c2.29,0,3.93,2.22,3.93,4.82H369.31z"/>
    <path class="st1" d="M505.93,73.01c0-9.06-5.18-15.78-14.45-15.78c-9.99,0-16.13,7.48-16.13,17.05c0,8.68,5.96,17.11,17.03,17.11 c8.37,0,13.37-4.55,13.37-4.55l-3.79-7.61c0,0-4.16,3.11-8.73,3.11c-3.31,0-6.44-1.84-7.23-6.02h19.7 C505.69,76.32,505.93,74.09,505.93,73.01z M486.24,70.29c0.54-2.54,1.98-4.82,5-4.82c2.28,0,3.92,2.22,3.92,4.82H486.24z"/>
    <path class="st1" d="M571.01,81.95c-1.98,0-5.53-0.56-5.53-4.49V65.92h6.5v-7.93h-6.5v-8.81h-10.12v8.81h-4.51v7.93h4.21v12.66 c0,10.97,9.58,12.38,14.52,12.38c1.68,0,2.83-0.2,2.83-0.2v-8.88C572.4,81.89,571.85,81.95,571.01,81.95z"/>
  </g>
  <g style="" transform="matrix(1.160441, 0, 0, 1.160441, -49.516613, -46.584343)">
    <path class="st2" d="M66.87,62.21c-1.23,0-2.23,1-2.23,2.23c0,1.23,1,2.23,2.23,2.23c1.23,0,2.23-1,2.23-2.23 C69.1,63.21,68.1,62.21,66.87,62.21z"/>
    <path class="st2" d="M79.88,74.83c-1.41,0-2.55,1.14-2.55,2.55c0,1.41,1.14,2.55,2.55,2.55c1.41,0,2.55-1.14,2.55-2.55 C82.43,75.98,81.29,74.83,79.88,74.83z"/>
    <path class="st2" d="M48.48,106.03c-1.11,0-2.01,0.9-2.01,2.01c0,1.11,0.9,2.01,2.01,2.01c1.11,0,2.01-0.9,2.01-2.01 C50.49,106.93,49.59,106.03,48.48,106.03z"/>
    <path class="st2" d="M97.09,56.96c-1.51,0-2.74,1.22-2.74,2.73c0,1.51,1.22,2.74,2.74,2.74c1.51,0,2.73-1.23,2.73-2.74 C99.82,58.18,98.6,56.96,97.09,56.96z"/>
    <circle class="st2" cx="116.59" cy="46.12" r="3.16"/>
    <path class="st2" d="M144.25,65.2c-1.27,0-2.29,1.03-2.29,2.29c0,1.26,1.03,2.29,2.29,2.29c1.26,0,2.29-1.02,2.29-2.29 C146.54,66.23,145.51,65.2,144.25,65.2z"/>
    <path class="st2" d="M149.93,91.02c-1.38,0-2.49,1.11-2.49,2.49c0,1.38,1.12,2.49,2.49,2.49c1.38,0,2.49-1.12,2.49-2.49 C152.42,92.14,151.3,91.02,149.93,91.02z"/>
    <path class="st2" d="M110.84,138.24c-1.64,0-2.98,1.33-2.98,2.97s1.33,2.98,2.98,2.98c1.64,0,2.97-1.33,2.97-2.98 S112.48,138.24,110.84,138.24z"/>
    <path class="st2" d="M143.35,117.31c-1.44,0-2.61,1.17-2.61,2.61s1.17,2.61,2.61,2.61s2.61-1.17,2.61-2.61 S144.79,117.31,143.35,117.31z"/>
    <path class="st2" d="M198.48,105.08h-12.04l-14.21,40.12h16.87v-7.29h-3.66l1.59-5.34h10.86l1.59,5.34h-3.66v7.29h17.64v-7.29 h-3.47L198.48,105.08z M189.28,124.94l2.24-7.41c0.7-2.46,0.82-4.2,0.82-4.2h0.24c0,0,0.12,1.74,0.82,4.2l2.19,7.41H189.28z"/>
    <path class="st2" d="M238,115.83c0,0.29,0.06,0.81,0.06,0.81h-0.12c-1.71-2.99-5.71-4.17-8.84-4.17c-9.21,0-13.63,7.57-13.63,15.72 c0,8.19,4.54,16.08,13.68,16.08c3.54,0,5.85-1.12,7.61-3.35h0.12c0,0-0.06,0.81-0.06,1.18v1.05c0,4.97-3.36,6.45-7.01,6.45 c-4.79,0-8.56-2.04-8.56-2.04l-2.88,7.83c2.94,1.61,7.43,2.86,11.48,2.86c8.33,0,17.18-4.29,17.18-15.97v-20.12 c0-0.73,0.53-1.18,1.3-1.18h2.3v-7.76h-9.2C239.12,113.22,238,114.58,238,115.83z M231.57,135.33c-4.06,0-5.84-3.54-5.84-7.51 c0-3.66,1.83-6.39,5.43-6.39c3.07,0,5.89,1.23,5.89,6.88C237.05,133.9,234.23,135.33,231.57,135.33z"/>
    <path class="st2" d="M271.44,137.07c-3.23,0-6.31-1.8-7.07-5.9h19.29c0,0,0.23-2.17,0.23-3.22c0-8.89-5.07-15.47-14.15-15.47 c-9.8,0-15.81,7.33-15.81,16.7c0,8.51,5.83,16.77,16.69,16.77c8.2,0,13.09-4.46,13.09-4.46l-3.71-7.47 C280.01,134.02,275.93,137.07,271.44,137.07z M269.5,120.55c2.24,0,3.85,2.18,3.85,4.73h-8.75 C265.14,122.79,266.56,120.55,269.5,120.55z"/>
  </g>
</svg>