<svg viewBox="0 0 78 131" xmlns="http://www.w3.org/2000/svg"><path d="M69.123 38.444l-.936-1.17-1.072-1.13C59.688 28.308 49.688 24 38.928 24c-10.76 0-20.76 4.308-28.187 12.144l-1.033 1.092-.975 1.208C3.158 45.326.078 54 .078 62.85s3.08 17.524 8.635 24.405l.078.117v36.453l12.067-26.609.37.195c4.815 2.476 9.98 3.899 15.36 4.21.274.02.566.04.839.04a38.04 38.04 0 0 0 2.982 0c.273-.02.566-.02.839-.04 5.38-.311 10.545-1.734 15.36-4.21l.37-.195 12.047 26.59V87.352l.078-.098c5.575-6.88 8.655-15.555 8.655-24.405 0-8.85-3.06-17.524-8.635-24.406zM8.81 42.87v39.942l-.721-1.17c-3.47-5.653-5.283-12.163-5.283-18.81A36.165 36.165 0 0 1 8.09 44.018l.72-1.15zm57.505 2.944v38.616H48.81l17.505-38.616zM64.99 87.8a36.255 36.255 0 0 1-6.394 5.302 31.793 31.793 0 0 1-3.08 1.794 36.12 36.12 0 0 1-12.553 3.84l-.682.078 5.282-11.657h18.051l-.624.643zm1.326 2.573v20.819l-6.96-15.341.293-.176a38.123 38.123 0 0 0 6.004-4.678l.663-.624zm-54.113.624c1.813 1.735 3.84 3.294 6.004 4.678l.292.176-6.959 15.341V90.374l.663.624zm23.353 7.817l-.683-.078a35.314 35.314 0 0 1-12.553-3.84 42.532 42.532 0 0 1-3.08-1.794 36.973 36.973 0 0 1-6.394-5.302l-.624-.663h18.05l5.284 11.677zm9.025-11.657L39.24 98.95h-.624l-5.36-11.793H44.58zm-15.536-2.73H11.54V45.814l17.505 38.616zM11.579 39.284l.156-.195c6.881-7.856 16.784-12.359 27.193-12.359 10.41 0 20.312 4.503 27.193 12.359l.156.195-20.449 45.146h-13.8l-20.45-45.146zm63.47 23.567a36.003 36.003 0 0 1-5.302 18.81l-.722 1.17V42.87l.722 1.169a35.952 35.952 0 0 1 5.302 18.81z" fill-rule="nonzero" fill="currentColor"/></svg>