<svg width="386" height="194" viewBox="0 0 386 194" fill="none" xmlns="http://www.w3.org/2000/svg"><path d="M125.358 166.459c.191-.324.377-.649.556-.962a.43.43 0 0 0-.4-.644l-.533.035c-.33.011-.655.029-.98.029l-.979-.012c-1.305-.052-2.603-.162-3.884-.4a26.885 26.885 0 0 1-3.757-.986 27.267 27.267 0 0 1-3.547-1.565 25.997 25.997 0 0 1-3.287-2.076 31.794 31.794 0 0 1-2.997-2.494 41.661 41.661 0 0 1-5.142-5.938c-3.078-4.28-5.484-9.07-7.443-14.016a89.507 89.507 0 0 1-2.615-7.556 87.826 87.826 0 0 1-1.513-5.794l-.208-.968c-.018-.081-.04-.191-.064-.313a.796.796 0 0 0-1.014-.609l-2.43.725a.876.876 0 0 0-.602 1.032l.011.064.25 1.026c.168.679.347 1.357.533 2.03a93.637 93.637 0 0 0 1.206 4.001 91.633 91.633 0 0 0 2.921 7.817c2.203 5.115 4.881 10.067 8.307 14.544a42.899 42.899 0 0 0 5.757 6.217 33.612 33.612 0 0 0 3.379 2.609 29.233 29.233 0 0 0 7.687 3.74c1.368.418 2.765.731 4.179.94 1.409.214 2.835.284 4.255.284l1.061-.023h.099c.498-.023.95-.302 1.2-.731" fill="currentColor"/><path d="M79.186 184.349a.68.68 0 0 0-.551.841c.191.824.411 1.612.65 2.418.237.801.504 1.595.788 2.389.133.36.272.719.417 1.079.203.505.609.91 1.125 1.09.672.238 1.35.453 2.04.656a.366.366 0 0 0 .394-.575c-.707-.927-1.35-1.971-1.948-3.044a39.154 39.154 0 0 1-1.09-2.146 40.65 40.65 0 0 1-.968-2.197v-.018a.82.82 0 0 0-.736-.499.42.42 0 0 0-.121.012m73.423-20.07l-.017.011a40.75 40.75 0 0 1-2.319 1.16c-.783.366-1.577.708-2.377 1.021-.916.354-1.843.672-2.759.916-.58.157-.904.771-.713 1.34l.284.84c.191.563.823.836 1.368.598a32.56 32.56 0 0 0 2.887-1.496 48.416 48.416 0 0 0 2.301-1.45 50.003 50.003 0 0 0 2.168-1.548c.336-.256.464-.737.238-1.096a.804.804 0 0 0-1.067-.285m-48.149 6.93c.093.835.574 2.847 2.916 4.181a38.363 38.363 0 0 0 3.472 1.537c1.861.707 3.844 1.27 5.919 1.571l.168.018a2.4 2.4 0 0 0 2.255-1.032l.997-1.456c.464-.702.922-1.403 1.374-2.122a1 1 0 0 0-.91-1.531l-3.078.197c-8.649.313-10.864-2.615-11.35-3.555l-.122-.278c-.748-1.775-1.322-3.909-1.594-4.808l-.516-.168.475 7.458-.006-.012zm-28.41-7.736c-.377.18-.557.621-.458 1.027.782 3.195 1.646 6.39 2.753 9.551 1.113 3.166 2.487 6.303 4.319 9.243 1.809 2.952 4.133 5.637 6.73 7.968.615.551 1.24 1.079 1.884 1.595.586.464 1.34.655 2.081.562 1.85-.243 3.983-.643 5.426-.933.545-.111.638-.841.14-1.091-2.279-1.13-4.441-2.395-6.487-3.873-2.493-1.81-4.76-3.92-6.655-6.391-1.913-2.459-3.502-5.225-4.876-8.13-1.38-2.911-2.556-5.95-3.657-9.029a.871.871 0 0 0-.818-.58.892.892 0 0 0-.377.087m80.235-10.687l-.011.011c-.441.458-.87.916-1.316 1.357-.475.412-.91.853-1.403 1.23-.487.376-.962.765-1.478 1.084-.493.348-1.026.632-1.542.922-1.055.539-2.139.963-3.229 1.229-.273.064-.545.128-.812.169a7.939 7.939 0 0 1-.8.104c-.26.029-.527.035-.771.035-.121 0-.249 0-.353-.012l-.226-.029s-.012 0 .011-.011h-.052l-.527-.07a1.122 1.122 0 0 0-1.253 1.27c.134.939.308 1.96.534 2.894a1.426 1.426 0 0 0 1.6 1.061c.127-.012.22-.035.33-.052.22-.035.418-.082.615-.122a11.4 11.4 0 0 0 1.147-.325 12.55 12.55 0 0 0 1.079-.4c.353-.139.695-.302 1.026-.47 1.339-.667 2.55-1.502 3.646-2.418.533-.475 1.067-.945 1.542-1.467.498-.493.933-1.044 1.374-1.577.44-.534.811-1.114 1.211-1.665.366-.574.713-1.159 1.061-1.734a.875.875 0 0 0-.22-1.154.842.842 0 0 0-.499-.162.967.967 0 0 0-.689.296m4.272-9.638l-.052.035c-.679.475-1.31.986-1.994 1.415-.702.406-1.357.864-2.087 1.183l-1.061.516-1.096.423a8.93 8.93 0 0 1-1.101.365c-.371.099-.725.238-1.102.308-1.472.371-2.973.51-4.423.504-.724 0-1.443-.063-2.133-.15h-.011a1.122 1.122 0 0 0-1.276.765l-1.304 4.071c-.278.876.417 1.774 1.327 1.693h.006c.51-.035.997-.116 1.484-.185a23.41 23.41 0 0 0 2.812-.667c1.814-.563 3.542-1.299 5.113-2.25.405-.215.771-.499 1.153-.743.377-.249.754-.498 1.102-.788l1.055-.835c.336-.296.655-.609.979-.911.667-.58 1.218-1.275 1.803-1.913.562-.661 1.055-1.375 1.577-2.053a.563.563 0 0 0-.441-.899.543.543 0 0 0-.319.104m-77.156-7.208a.663.663 0 0 0-.534.777c1.073 5.84 2.58 11.639 4.812 17.252 1.124 2.801 2.435 5.561 4.046 8.2 1.542 2.511 3.362 4.923 5.635 7.04v.012a.5.5 0 0 0 .029.017c.104.093.203.191.307.29.058.052.127.11.191.156.076.053.145.111.238.186a9.929 9.929 0 0 1 3.293 6.356l.469 4.331s0 .053.006.076l.388 3.879a3.868 3.868 0 0 0 2.835 3.317c.835.227 2.249.517 3.061.673.4.081.805-.041 1.101-.313.261-.244.574-.528.777-.719.133-.128.261-.255.394-.377.284-.278.574-.557.858-.835l.435-.435c.301-.302.597-.609.893-.916.046-.052.092-.099.144-.151.609-.638.221-1.699-.66-1.798l-1.954-.208c-1.745-.227-3.467-.563-5.13-1.056-1.612-.487-2.052-1.763-2.168-2.424l-.047-.412-.823-7.602c-.498-4.61-2.864-6.825-2.864-6.825-1.49-1.317-2.863-2.854-4.115-4.5-1.699-2.239-3.189-4.692-4.522-7.249-2.66-5.121-4.707-10.63-6.336-16.26a.669.669 0 0 0-.638-.488c-.04 0-.08 0-.121.012m79.806-3.595l-.018.011c-.475.424-.939.853-1.408 1.259-.505.377-.968.782-1.49 1.119-.516.342-1.015.69-1.554.968-.516.313-1.066.551-1.606.806-1.089.458-2.202.806-3.31.986-.278.047-.55.093-.823.105-.272.034-.539.04-.805.046-2.597.209-4.128 2.36-4.893 3.879-.342.679.18 1.479.939 1.45 1.699-.064 2.881-.296 2.881-.296.22-.017.417-.046.62-.075a11.78 11.78 0 0 0 1.166-.238c.376-.093.747-.197 1.107-.319.365-.11.713-.249 1.061-.394 1.385-.568 2.649-1.311 3.814-2.14.568-.435 1.136-.864 1.646-1.345.534-.458 1.009-.969 1.49-1.467.481-.499.893-1.056 1.333-1.572.412-.545.795-1.107 1.189-1.653a.876.876 0 0 0-.139-1.171.824.824 0 0 0-.551-.203.988.988 0 0 0-.644.244m-82.71-8.229a42.78 42.78 0 0 0-.075 1.919c-.012.638 0 1.282.017 1.926.047 1.287.151 2.592.453 3.931a.86.86 0 0 0 .052.174c.214.58.77.824 1.24.545.47-.272.678-.968.464-1.548-.371-.997-.632-2.157-.829-3.334a29.934 29.934 0 0 1-.243-1.798 39.184 39.184 0 0 1-.163-1.815v-.012c-.017-.272-.191-.498-.423-.516h-.029c-.238 0-.44.232-.464.528zm32.509-8.333v9.209s0 2.325 1.519 4.018a29.562 29.562 0 0 0 9.919 6.333c3.252 1.258 6.689 1.908 10.115 2.093h.139l2.545.122a1.352 1.352 0 0 0 1.391-1.079c.209-1.014.389-2.018.539-3.009a1.005 1.005 0 0 0-.997-1.154h-2.034-.018c-3.42.034-6.811-.447-9.97-1.583a24.812 24.812 0 0 1-8.545-5.22 26.651 26.651 0 0 1-2.475-2.65c-.864-1.148-1.386-6.013-1.693-7.144a.213.213 0 0 0-.214-.168.222.222 0 0 0-.227.226m-49.586-23.99a38.52 38.52 0 0 1-.678.348.734.734 0 0 0-.087 1.27c.127.087.255.174.377.26a18.31 18.31 0 0 1 3.257 3.097c.963 1.16 1.774 2.453 2.476 3.81.173.342.347.679.504 1.032.162.348.319.696.458 1.056.313.713.527 1.397.76 2.134.84 2.946 1.298 6.118 1.692 9.29.388 3.183.678 6.402.98 9.626.597 6.454 1.205 12.955 2.22 19.45 1.02 6.483 2.394 12.995 4.719 19.31 1.165 3.155 2.573 6.257 4.336 9.209a45.909 45.909 0 0 0 2.921 4.286 37.934 37.934 0 0 0 3.525 3.891 32.56 32.56 0 0 0 7.339 5.265.633.633 0 0 0 .927-.626l-.423-3.915a3.894 3.894 0 0 0-1.646-2.76 28.769 28.769 0 0 1-2.481-1.971c-4.43-3.955-7.612-9.36-9.936-15.13-2.33-5.799-3.855-11.998-5.026-18.278-1.171-6.292-1.971-12.688-2.754-19.125-.4-3.219-.788-6.449-1.28-9.69-.505-3.242-1.056-6.501-2.094-9.766-.272-.806-.58-1.658-.939-2.418a20.876 20.876 0 0 0-.545-1.154c-.185-.383-.388-.76-.597-1.137-.829-1.496-1.895-2.853-2.939-4.239-.933-1.235-2.307-2.343-3.211-3.004a1.719 1.719 0 0 0-1.838-.122m6.11-4.72c-.22.232-.44.453-.66.667a1.565 1.565 0 0 0-.343 1.769c.337.748.678 1.49 1.032 2.238.371.783.76 1.56 1.16 2.331.417.8.88 1.595 1.408 2.366a16.406 16.406 0 0 0 1.797 2.193 17.211 17.211 0 0 0 2.157 1.832c.742.533 1.46.992 2.04 1.444.586.452 1.026.893 1.386 1.426.724 1.067 1.124 2.5 1.414 4.094.319 1.676.644 3.358.991 5.04.371 1.797.765 3.589 1.183 5.381a1.1 1.1 0 0 0 1.362.812l1.716-.464c.585-.156.933-.759.777-1.345a194.88 194.88 0 0 1-1.299-5.208 267.15 267.15 0 0 1-1.113-4.952c-.37-1.722-.887-3.659-2.127-5.399-.615-.864-1.42-1.606-2.203-2.169-.782-.568-1.519-.997-2.162-1.444a12.54 12.54 0 0 1-3.252-3.125 20.608 20.608 0 0 1-1.258-1.983c-.4-.725-.789-1.462-1.171-2.21a139.171 139.171 0 0 1-1.519-3.09.791.791 0 0 0-.725-.453.813.813 0 0 0-.585.25m-50.868-2.645a.697.697 0 0 0-.18.997c.308.412.592.714.91 1.033.314.313.65.597.992.875.69.551 1.426 1.038 2.203 1.467a19.336 19.336 0 0 0 4.944 1.88c3.455.805 8.58.794 12.035.318.863-.127 1.733-.272 2.539-.406.823-.127 1.646-.25 2.47-.336a44.35 44.35 0 0 1 4.944-.296c2.006 0 4 .163 5.93.545.789-.006 2.052-.122 3.623-.603.197-.07.545-.237.545-.556 0-.267-.116-.418-.33-.482-3.2-.98-6.545-1.299-9.803-1.206a47.28 47.28 0 0 0-5.211.458c-.858.116-1.716.267-2.562.424l-2.476.47c-3.24.538-8.11.637-11.292-.012a17.455 17.455 0 0 1-4.545-1.578 14.287 14.287 0 0 1-2.011-1.258c-.313-.238-.62-.487-.899-.748a7.355 7.355 0 0 1-.76-.8l-.034-.041a.758.758 0 0 0-.597-.284c-.15 0-.301.04-.435.133m56.016-4.18c-.174.283-.342.562-.516.828a1.237 1.237 0 0 0 .208 1.584 17.61 17.61 0 0 0 2.4 1.832c1.618 1.061 3.42 1.775 4.812 2.522 1.403.749 2.266 1.63 2.892 2.999.313.666.563 1.415.76 2.203.203.795.382 1.659.562 2.511.348 1.717.673 3.462 1.009 5.208.666 3.496 1.362 7.005 2.162 10.502 1.606 6.987 3.588 13.952 6.434 20.673 1.427 3.357 3.079 6.651 5.067 9.789a49.617 49.617 0 0 0 2.168 3.137v.017s1.449 1.664 1.861 5.411l.162 1.49c.018.18.099.348.226.481l.128.134c.307.319.84.069.794-.372l-.562-5.161c-.099-.927-.267-2.464-.505-4.656-.301-2.784-.887-4.135-1.2-4.68-.058-.087-.116-.174-.168-.267-.023-.034-.04-.052-.04-.052a66.21 66.21 0 0 1-3.745-7.109c-2.858-6.292-4.968-12.984-6.713-19.781-.875-3.404-1.646-6.842-2.4-10.304-.377-1.734-.748-3.468-1.153-5.225-.21-.882-.412-1.752-.673-2.668a15.266 15.266 0 0 0-1.055-2.795c-.458-.922-1.078-1.844-1.872-2.615-.789-.783-1.71-1.363-2.586-1.81-1.756-.875-3.298-1.432-4.678-2.29a15.37 15.37 0 0 1-2.365-1.763.913.913 0 0 0-.614-.238.94.94 0 0 0-.806.458M9.658 76.21c-.22.302-.11.702.237.893 1.728.928 3.461 1.537 5.287 2.059 1.815.522 3.67.881 5.542 1.16 3.75.51 10.95.637 14.73.405.95-.029 1.884-.15 2.823-.237.95-.087 1.86-.197 2.77-.267a45.215 45.215 0 0 1 5.456-.15c1.803.075 3.588.29 5.28.707 1.688.417 3.276 1.043 4.627 1.896.04.029.087.052.133.075.701.348 1.594.14 1.994-.464.4-.603.162-1.374-.54-1.722-1.79-.887-3.715-1.461-5.645-1.81-1.936-.364-3.884-.463-5.809-.457a46.6 46.6 0 0 0-5.71.37c-.945.111-1.878.262-2.776.354-.91.1-1.82.238-2.736.285-3.658.295-10.742.272-14.365-.22-1.803-.262-3.606-.58-5.328-1.097a33.442 33.442 0 0 1-2.539-.852c-.811-.32-1.646-.696-2.324-1.09l-.052-.03-.023-.01a.863.863 0 0 0-.395-.1c-.249 0-.492.11-.637.302zm63.87-3.456a.65.65 0 0 0 .052.916 47.74 47.74 0 0 0 2.597 2.151 42.866 42.866 0 0 0 2.748 1.972c.95.62 1.924 1.224 2.974 1.734 1.049.516 2.15.986 3.397 1.276a1.413 1.413 0 0 0 1.722-1.218 1.414 1.414 0 0 0-1.253-1.56c-.927-.104-1.919-.383-2.893-.73-.98-.349-1.953-.8-2.91-1.282a41.257 41.257 0 0 1-2.834-1.577 45.87 45.87 0 0 1-2.73-1.775h-.012a.604.604 0 0 0-.377-.127c-.18 0-.36.075-.487.214m6.104-2.975c-.122.33-.25.661-.37.986-.221.568.11 1.195.7 1.357.296.081.586.157.882.226 1.803.453 3.576.812 5.037 1.444 1.473.626 2.528 1.554 3.252 2.905.36.662.65 1.421.864 2.198.215.789.388 1.67.55 2.546.32 1.763.598 3.572.882 5.381.562 3.625 1.142 7.272 1.826 10.908 1.362 7.272 3.101 14.538 5.739 21.59 1.322 3.52 2.892 6.982 4.811 10.299.47.8.963 1.589 1.478 2.366v.017s.018.023.053.058c.191.29.376.58.574.87.011.017.028.029.046.046.498.87 1.119 2.308 1.31 4.309l.603 6.414v.011l.127 1.346.029.04c.279 2.128.661 3.572.963 4.465.092.325.22.638.371.94a2.69 2.69 0 0 0 .133.261 5.29 5.29 0 0 0 1.49 1.641 30.092 30.092 0 0 0 6.284 3.502c3.008 1.236 6.231 1.937 9.454 2.163l.163.012c.591.041 1.188.07 1.779.075H128.807l.974.035a1.812 1.812 0 0 0 1.704-1.032c.516-1.09 1.015-2.186 1.49-3.276a.995.995 0 0 0-.916-1.386h-3.374-.017c-3.235.034-6.429-.47-9.414-1.601-2.991-1.125-5.757-2.87-8.209-5.051-.179-.156-.347-.324-.521-.487-1.519-1.571-1.792-3.526-1.792-3.526l-1.043-11.023c-.342-3.468-.916-5.202-1.275-6.002a24.569 24.569 0 0 1-.331-.592c-1.136-2.064-2.463-4.668-3.003-6.483-2.04-6.855-4.562-13.639-6.08-20.743-.76-3.555-1.427-7.139-2.082-10.745-.33-1.804-.655-3.613-1.037-5.452-.197-.922-.4-1.838-.69-2.812-.302-.986-.684-1.943-1.223-2.876a9.485 9.485 0 0 0-2.099-2.529c-.852-.719-1.826-1.258-2.788-1.64-1.936-.766-3.797-1.062-5.553-1.468-.302-.064-.592-.133-.887-.203a.85.85 0 0 0-.997.528M4.116 67.778c-.226.296-.128.69.22.882 7.055 3.89 16.313 4.581 24.254 3.021 3.867-.65 10.272-1.983 14.162-1.896 3.872.098 7.739.672 11.136 2.024 1.698.672 3.264 1.548 4.608 2.603a15.056 15.056 0 0 1 1.861 1.723c.551.603 1.084 1.299 1.6 2 1.287 1.746 2.406 3.578 3.461 5.469.423.76 1.617.904 2.278.278.157-.15.313-.302.47-.458.36-.354.423-.858.174-1.27-1.12-1.861-2.33-3.711-3.716-5.48-.574-.73-1.154-1.45-1.855-2.175a18.14 18.14 0 0 0-2.267-1.983c-1.629-1.212-3.49-2.186-5.449-2.905-3.93-1.444-8.15-1.949-12.266-1.954-4.133 0-10.678 1.455-14.643 2.215a85.022 85.022 0 0 1-3.281.522c-.957.145-1.919.249-2.887.319-1.936.139-3.884.121-5.82-.053-1.93-.18-3.85-.51-5.698-1.014a28.07 28.07 0 0 1-2.72-.882c-.874-.33-1.773-.725-2.52-1.142l-.059-.035a.846.846 0 0 0-.406-.104.807.807 0 0 0-.631.29m75.411-5.55c-.104.418-.214.83-.324 1.235-.11.412.127.83.55.969 1.096.36 3.253 1.003 5.63 1.345 1.883.272 3.692.673 5.153 1.305.724.313 1.345.707 1.849 1.194.25.244.475.516.672.806.099.145.192.302.284.458l.273.528c.695 1.462 1.206 3.12 1.675 4.796.922 3.37 1.681 6.86 2.528 10.334 1.663 6.958 3.611 13.911 6.069 20.719a162.419 162.419 0 0 0 1.93 5.08c.331.847.684 1.682 1.032 2.517.099.238.215.476.325.713v.018s.011.017.029.052c.284.615.579 1.229.898 1.827.024.04.047.075.064.116.765 1.838 1.699 4.876 1.699 8.837v8.704c.011.714.173 4.089 2.394 6.344.319.279.637.551.968.818.197.139.365.267.493.383 2.15 1.664 4.533 3.073 7.101 4.088 3.42 1.369 7.095 2.018 10.73 2.088l.69.006h2.04c.736 0 1.397-.464 1.635-1.16.336-.986.649-1.966.945-2.94a1.08 1.08 0 0 0-1.032-1.398h-2.991a3.813 3.813 0 0 0-.354-.017h-.012c-3.35.122-6.678-.319-9.767-1.467-3.096-1.131-5.936-2.958-8.423-5.266-.348-.325-.684-.667-1.02-1.009a3.386 3.386 0 0 0-.4-.406c-.221-.232-.429-.475-.638-.713-1.038-1.502-1.322-3.955-1.322-3.955v-9.029c0-8.64-1.571-12.16-1.571-12.16v-.012a182.078 182.078 0 0 1-1.374-3.392c-2.573-6.594-4.649-13.35-6.475-20.21-.927-3.433-1.768-6.889-2.817-10.374-.54-1.746-1.113-3.503-2.006-5.271l-.365-.662a8.638 8.638 0 0 0-1.56-1.948c-.834-.783-1.849-1.368-2.863-1.774-2.046-.818-4.029-1.073-5.901-1.398-1.873-.307-3.664-.632-5.368-1.154a1.311 1.311 0 0 1-.14-.046.842.842 0 0 0-.237-.035c-.325 0-.62.203-.701.516m57.824-3.248a.422.422 0 0 0-.395.366 7.7 7.7 0 0 0-.086 1.189c0 .394 0 .794.04 1.188.029.395.081.79.139 1.183.064.395.145.783.238 1.178a15.695 15.695 0 0 0 1.872 4.482 16.372 16.372 0 0 0 3.218 3.77c.736.62 1.524 1.084 2.313 1.467.788.377 1.588.667 2.388.904 3.194.922 6.376 1.148 9.53 1.102a43.032 43.032 0 0 0 4.962-.417 1.15 1.15 0 0 0 .98-1.23l-.203-2.61a1.148 1.148 0 0 0-1.316-1.043c-1.53.238-3.078.412-4.626.504a41.08 41.08 0 0 1-4.22.082 24.48 24.48 0 0 1-4.075-.441c-1.293-.261-2.545-.661-3.444-1.258a16.488 16.488 0 0 1-3.002-2.657 17.07 17.07 0 0 1-2.337-3.415 20.497 20.497 0 0 1-.887-1.943c-.127-.336-.255-.672-.365-1.02-.11-.343-.214-.702-.295-1.032v-.03a.43.43 0 0 0-.412-.319h-.012M1.472 57.897c-.18.313.342.696.679.864 1.79.881 3.6 1.525 5.478 2.088 1.872.55 3.79.98 5.733 1.275 1.942.296 4.504.464 6.48.493a46.16 46.16 0 0 0 2.969-.063l5.02-.482c3.855-.26 10.278-.87 14.057-1.032 1.89-.075 3.757-.058 5.571.162 1.815.21 3.583.661 5.293 1.27 3.327 1.218 6.255 3.433 8.88 5.869 2.632 2.459 4.98 5.207 7.258 8.037l1.705 2.14v.006c.272.348.846.33 1.084-.04.284-.436.562-.876.834-1.323a1.18 1.18 0 0 0-.116-1.38l-.985-1.172c-2.394-2.818-4.904-5.613-7.762-8.147-1.432-1.264-2.945-2.47-4.597-3.543-1.652-1.061-3.432-2.012-5.391-2.662-1.901-.632-3.896-1.084-5.913-1.27-2.017-.197-4.023-.162-5.988-.035-3.919.267-10.284.957-14.11 1.31l-4.985.552c-.933.075-1.872.116-2.817.127-1.884.018-4.36-.098-6.232-.336a42.666 42.666 0 0 1-5.536-1.096c-1.803-.487-4.017-1.096-5.646-1.856l-.035-.017a.727.727 0 0 0-.313-.07.71.71 0 0 0-.615.337m75.975-5.19l-.105.075-.174.145-.139.174-.07.11c-.034.058-.04.093-.023.099l.07.075.133.15c.093.1.18.198.279.29.185.192.376.378.568.563.388.366.794.714 1.211 1.056.835.672 1.74 1.275 2.696 1.803.48.255.974.487 1.478.708l.771.295c.267.093.545.186.812.256.544.139 1.084.255 1.617.342.527.08 1.05.15 1.553.22 1.015.128 1.971.25 2.864.458.893.209 1.71.505 2.452.951 1.49.876 2.638 2.43 3.635 4.187a.54.54 0 0 0 1.003-.354 10.42 10.42 0 0 0-1.044-3.12 8.247 8.247 0 0 0-2.22-2.684c-.94-.748-2.058-1.241-3.148-1.56-1.095-.313-2.185-.464-3.211-.592-.516-.058-1.02-.11-1.507-.174a20.92 20.92 0 0 1-2.099-.336l-.696-.18-.695-.197c-.232-.064-.458-.15-.696-.22a21.284 21.284 0 0 1-2.736-1.108 19.116 19.116 0 0 1-1.953-1.102l-.313-.209-.151-.104-.075-.052s0-.006-.012-.006c-.018 0-.04.012-.081.04m-28.973-2.916c-1.026.104-2.07.354-2.968.545-.464.104-.934.197-1.403.278-.47.087-.94.18-1.409.25-3.773.626-12.573.904-16.428.985-3.855.082-9.153-.063-13.008-.37-3.85-.314-7.716-.772-11.496-1.45H1.74a.528.528 0 0 0-.614.376.495.495 0 0 0 .4.592c3.843.789 7.698 1.34 11.588 1.751 3.304.342 8.637.644 13.153.661 3.924.006 12.81-.18 16.724-.73.492-.058.974-.145 1.466-.22.487-.076.974-.163 1.461-.256 1.003-.185 1.855-.365 2.771-.44 1.803-.163 3.606.034 5.275.597 1.664.585 3.2 1.507 4.568 2.661 1.38 1.143 2.609 2.488 3.786 3.897 1.182 1.41 2.301 2.9 3.53 4.378a30.026 30.026 0 0 0 1.983 2.187c.707.696 1.478 1.34 2.26 1.977 1.136.928 3.078 1.972 4.33 2.598.638.32 1.427.052 1.688-.58.075-.185.15-.37.225-.562.203-.51-.046-1.079-.568-1.31-1.031-.465-2.707-1.288-3.9-2.245-.697-.557-1.41-1.102-2.065-1.716-.643-.598-1.252-1.259-1.86-1.949-1.206-1.38-2.377-2.859-3.647-4.297-1.263-1.438-2.626-2.859-4.202-4.106-1.56-1.252-3.386-2.308-5.392-2.951a14.861 14.861 0 0 0-4.446-.667c-.603 0-1.2.035-1.79.104m9.355-7.133h-.69l-56.6.343a.532.532 0 0 0-.528.522c0 .295.232.533.522.539l56.606.69.69.011c.238 0 .458.006.661.018a4.4 4.4 0 0 1 .62.046c.209.018.412.047.615.087a9.36 9.36 0 0 1 2.36.73c1.506.697 2.851 1.781 4.08 3.034 2.452 2.522 4.487 5.602 6.794 8.536.562.725 1.194 1.508 1.873 2.203a20.87 20.87 0 0 0 2.185 1.984c.052.04.104.08.156.122.615.47 1.513.156 1.722-.592.058-.203.11-.4.162-.603.11-.406-.04-.841-.382-1.096a18.34 18.34 0 0 1-1.942-1.682c-.62-.609-1.165-1.252-1.745-1.966-2.313-2.795-4.423-5.862-7.17-8.576-1.38-1.34-2.969-2.587-4.835-3.393-.934-.4-1.92-.684-2.928-.829-.249-.04-.504-.07-.753-.087a8.287 8.287 0 0 0-.754-.035h-.719m-9.744-7.393l-10.609.15-32.352.308a.522.522 0 0 0 .006 1.044H37.47l10.609-.012h.939c.574 0 1.147 0 1.698.006.858.023 1.699.087 2.516.232 1.617.29 3.194.945 3.965 2.157a.821.821 0 1 0 1.374-.893c-.586-.893-1.444-1.543-2.33-1.972-.893-.435-1.826-.684-2.748-.84-.928-.152-1.85-.21-2.76-.221h-.237c-.823 0-1.618.023-2.43.029m3.931-7.463l-10.753.168-29.025.336a.589.589 0 0 0-.586.592.6.6 0 0 0 .592.603l29.019.168 10.753.087c.91 0 1.716.029 2.55.15a9.598 9.598 0 0 1 2.349.627c1.49.603 2.765 1.647 3.89 2.905 1.124 1.264 2.12 2.703 3.072 4.187a135.896 135.896 0 0 1 2.753 4.564c.957 1.653 2.25 3.207 3.791 4.413.771.615 1.606 1.12 2.464 1.583.864.44 1.757.812 2.66 1.125 3.635 1.218 7.345 1.502 10.887 1.867 1.768.18 3.513.371 5.148.731 1.64.348 3.142.905 4.296 1.786.573.44 1.072.963 1.5 1.583.43.62.807 1.328 1.143 2.076.66 1.514 1.194 3.166 1.681 4.854.968 3.386 1.826 6.883 2.742 10.357a388.5 388.5 0 0 0 7.692 25.904 28.248 28.248 0 0 0 1.038 2.714c.4.893.852 1.763 1.351 2.598.185.313.377.62.574.922.539.968 1.281 2.598 1.385 4.407v1.357c.041 1.119.313 5.01 2.052 7.788a15.44 15.44 0 0 0 1.716 2.163 18.954 18.954 0 0 0 3.246 2.691 24.23 24.23 0 0 0 3.67 1.948c2.533 1.073 5.171 1.775 7.814 2.204a51.28 51.28 0 0 0 5.124.574 1.208 1.208 0 0 0 1.27-1.166c.023-.638.035-1.264.035-1.879 0-.319 0-.632.006-.945.011-.638-.499-1.171-1.137-1.16a46.464 46.464 0 0 1-4.684-.15c-2.382-.198-4.712-.638-6.921-1.369a20.661 20.661 0 0 1-3.159-1.368 15.419 15.419 0 0 1-2.76-1.937c-2.916-2.187-4.133-4.071-4.643-5.283h-.017c-.012-.047-.029-.093-.041-.145-.319-.812-.307-1.288-.307-1.288a15.478 15.478 0 0 1-.209-1.415v-4.221c0-4.373-.446-6.234-.696-6.93-.052-.122-.11-.238-.162-.36-.156-.376-.29-.736-.44-1.17a390.578 390.578 0 0 1-8.215-25.463c-.997-3.44-1.924-6.89-3.008-10.376-.551-1.74-1.148-3.496-1.965-5.253-.424-.876-.905-1.752-1.519-2.593a10.27 10.27 0 0 0-2.238-2.244c-1.745-1.258-3.727-1.873-5.588-2.227-1.878-.365-3.71-.516-5.507-.66-3.582-.279-7.095-.488-10.307-1.49a18.612 18.612 0 0 1-2.313-.911c-.73-.371-1.438-.777-2.087-1.27-1.304-.974-2.382-2.198-3.258-3.625-.944-1.53-1.895-3.067-2.91-4.58-1.02-1.509-2.098-3.01-3.397-4.397-1.28-1.38-2.875-2.644-4.742-3.346-1.605-.632-3.339-.811-4.944-.811-.244 0-.481 0-.713.011m1.756-6.454l-1.31.017-2.614.035-5.235.064-27.593.255a.52.52 0 0 0 0 1.044l27.582.255 5.228.064 2.615.035 1.304.017h.655c.122.012.33.04.51.07 1.53.29 3.055 1.014 4.423 1.92 1.374.91 2.626 2.029 3.75 3.264 1.131 1.235 2.14 2.592 3.05 4.019.232.353.446.719.667 1.078.214.36.48.795.742 1.172.539.777 1.153 1.496 1.826 2.157 1.344 1.322 2.933 2.377 4.597 3.184 1.663.811 3.408 1.391 5.159 1.838 3.507.893 7.049 1.252 10.492 1.664 1.716.209 3.42.423 5.009.789.394.093.782.197 1.153.313.186.058.365.122.54.185.173.07.336.134.538.22.766.337 1.479.68 2.105 1.085 2.469 1.543 3.884 4.668 5.171 7.788 1.258 3.155 2.318 6.455 3.344 9.76 2.035 6.628 3.89 13.35 5.745 20.064l1.386 5.057.347 1.27c.157.574.348 1.02.54 1.479.382.899.823 1.751 1.298 2.575.18.313.377.614.568.916v.017s.012.017.035.04c.122.186.243.372.371.557.417.749 1.026 2.25 1.206 4.872v4.998l-.018.018c-.011 1.449.174 5.358 2.4 7.185 3.055 2.11 6.493 3.601 10.011 4.546 2.586.707 5.212 1.108 7.844 1.311a1.375 1.375 0 0 0 1.449-1.056c.203-.899.44-1.757.719-2.586a1.114 1.114 0 0 0-1.015-1.473c-2.632-.093-5.24-.394-7.744-1.021-3.235-.783-6.319-2.064-9.02-3.914a24.936 24.936 0 0 1-1.537-1.154c-1.484-1.461-1.878-3.201-1.97-4.187v-7.66c0-4.013-.505-5.364-.632-5.643a.225.225 0 0 1-.029-.058c-.151-.342-.313-.701-.383-.968l-.371-1.247-1.501-5.004c-2.023-6.687-4.047-13.373-6.273-20.03-1.124-3.329-2.278-6.651-3.686-9.945-.713-1.647-1.496-3.288-2.493-4.889-.516-.794-1.09-1.583-1.774-2.308a11.003 11.003 0 0 0-2.336-1.902c-.852-.522-1.728-.91-2.568-1.252-.203-.082-.44-.18-.678-.262-.238-.08-.47-.156-.702-.226a18.335 18.335 0 0 0-1.38-.336c-1.82-.371-3.588-.545-5.338-.719-3.484-.33-6.91-.609-10.191-1.363-3.264-.742-6.412-1.995-8.754-4.198a12.592 12.592 0 0 1-1.588-1.792c-.243-.337-.44-.644-.678-1.02-.244-.378-.475-.76-.736-1.131-1.003-1.49-2.116-2.917-3.374-4.222-1.252-1.31-2.65-2.505-4.209-3.48-1.56-.974-3.263-1.757-5.17-2.076-.25-.034-.476-.07-.789-.07h-.655l-.035-.005zm-1.02-5.654h-.429l-.858.017-3.432.041-6.857.081-19.913.157a.585.585 0 0 0 0 1.171l19.913.157 6.863.08 3.432.041.858.012h.429l.191.006.191.012c.528.034 1.067.104 1.6.197a18.094 18.094 0 0 1 6.075 2.261 16.56 16.56 0 0 1 2.603 1.92 17.707 17.707 0 0 1 1.67 1.751l.527.65c1.438 1.815 2.963 3.572 4.638 5.23.846.824 1.722 1.624 2.695 2.36.493.366.992.72 1.56 1.038.278.163.58.308.898.447.163.064.33.133.522.185.087.03.191.053.307.076.058.011.105.023.186.035.023 0 .046 0 .063.005 1.16.29 2.273.47 3.38.638 1.142.169 2.278.32 3.409.47 2.26.296 4.51.58 6.736.928 2.226.342 4.434.736 6.585 1.258 2.133.528 4.266 1.166 6.034 2.146.887.493 1.554 1.032 2.255 1.82.684.755 1.311 1.619 1.896 2.523 1.165 1.81 2.162 3.793 3.084 5.81 1.82 4.06 3.316 8.31 4.661 12.608 1.345 4.303 2.533 8.664 3.611 13.048l.789 3.293.376 1.653c.116.54.279 1.166.429 1.751a28.167 28.167 0 0 0 1.235 3.503c.197.446.412.887.638 1.322v.006c.145.284.307.562.469.84.336.68.742 1.665.806 2.593v6.28l-.029.03c-.035 1.455.052 5.038 1.606 6.471a33.463 33.463 0 0 0 9.826 4.993c.44.15.886.29 1.333.406.446.121.893.249 1.345.359.904.203 1.803.423 2.718.568.992.186 1.983.325 2.974.435a1.822 1.822 0 0 0 1.751-.84c.064-.099.122-.192.168-.267l.226-.348c.186-.29.371-.574.568-.858.087-.122.174-.244.255-.366.07-.104.279-.382.522-.719a.963.963 0 0 0-.719-1.531c-1.646-.093-3.298-.203-4.916-.469-.817-.105-1.611-.285-2.417-.441-.4-.087-.788-.192-1.188-.29-.4-.093-.789-.203-1.177-.325a28.59 28.59 0 0 1-8.678-4.146c-.562-.4-1.293-1.027-1.971-1.641-1.049-1.143-1.223-2.326-1.252-2.685V87.72a4.335 4.335 0 0 1-.012-.632c0-.14.006-.267.012-.406v-1.125s.017-.035.023-.052c.035-3.88-.336-5.875-.475-6.466a5.601 5.601 0 0 1-.052-.197l-.424-1.67-.875-3.329a225.78 225.78 0 0 0-3.988-13.193c-1.484-4.355-3.107-8.68-5.119-12.885-1.014-2.1-2.116-4.175-3.461-6.164-.678-.992-1.408-1.966-2.278-2.877a12.076 12.076 0 0 0-1.432-1.31l-.405-.307-.418-.267c-.278-.186-.556-.33-.84-.487-2.261-1.172-4.557-1.763-6.84-2.285-2.29-.499-4.574-.852-6.853-1.148-2.278-.296-4.556-.534-6.817-.777-1.13-.122-2.255-.244-3.368-.383-1.107-.14-2.22-.302-3.234-.534l-.342-.034h.075-.023c-.03 0-.058-.012-.11-.024-.082-.017-.186-.058-.284-.092a5.73 5.73 0 0 1-.644-.302c-.44-.226-.881-.528-1.316-.83-.87-.625-1.698-1.35-2.51-2.104-1.611-1.525-3.13-3.195-4.574-4.935l-.573-.667a19.131 19.131 0 0 0-1.925-1.925 18.773 18.773 0 0 0-2.962-2.082A19.89 19.89 0 0 0 55 15.889a16.752 16.752 0 0 0-1.809-.18h-.237l-.238-.005.029-.012zm.927-5.445l-1.93.023-3.866.046-21.16.186a.595.595 0 0 0 0 1.189l21.194.185 3.878.047 1.937.023c.632-.018 1.217 0 1.837.064 2.435.237 4.846.98 6.748 2.383.475.354.91.736 1.316 1.166l.313.342.348.365.684.708 2.724 2.771 2.742 2.743 1.374 1.369.371.36c.133.127.278.249.417.365.29.232.586.452.893.643 1.235.79 2.568 1.27 3.884 1.636 1.322.354 2.643.585 3.954.765l7.703.934c2.551.313 5.09.65 7.594 1.084 1.253.215 2.499.464 3.728.743.614.133 1.229.29 1.837.44l.911.238.84.255c2.215.748 4.249 2.036 6.006 3.654 1.768 1.618 3.269 3.56 4.556 5.648 2.574 4.198 4.307 8.953 5.554 13.813.318 1.218.585 2.447.846 3.682.296 1.369.614 2.58.922 3.845l.927 3.752.446 1.861c.14.603.29 1.253.377 1.763l.012.058.023.087c.365 1.502.73 2.946 1.2 4.477.058.191.122.389.191.592.07.197.163.452.226.614.116.29.232.58.354.864.377 1.05.916 2.993.916 5.498v6.14c-.006.157-.232 4.86 1.524 6.356 1.954 1.468 4.093 2.633 6.302 3.52 3.855 1.555 7.854 2.372 11.831 2.854l3.015.394a1.678 1.678 0 0 0 1.513-.597c.736-.9 1.472-1.81 2.202-2.743a.915.915 0 0 0-.649-1.473l-3.49-.279s-.034-.005-.058-.005c-4.376-.302-8.718-.975-12.666-2.465-1.971-.736-3.82-1.705-5.466-2.905a20.6 20.6 0 0 1-1.113-.9c-1.826-1.658-1.89-4.343-1.89-4.343V72.754s.388-3.636-.603-7.295l-.203-.76-1.026-3.746c-.336-1.23-.701-2.511-.974-3.665a74.291 74.291 0 0 0-.985-3.845c-1.449-5.085-3.397-10.113-6.342-14.665-1.478-2.268-3.212-4.407-5.298-6.234-2.082-1.821-4.539-3.306-7.241-4.146-.336-.099-.684-.192-1.014-.285l-.962-.232c-.644-.145-1.287-.29-1.937-.411a74.498 74.498 0 0 0-3.884-.673c-2.59-.389-5.182-.667-7.762-.916l-7.686-.742c-1.252-.14-2.481-.325-3.664-.615-1.177-.29-2.301-.684-3.264-1.264-.243-.14-.463-.302-.684-.464-.11-.081-.214-.174-.319-.267l-.33-.307-1.403-1.328-2.8-2.668-2.77-2.685-.679-.672-.33-.331-.348-.365a12.038 12.038 0 0 0-1.612-1.357c-2.313-1.618-5.049-2.355-7.733-2.552a16.205 16.205 0 0 0-2.034-.017m1.884-5.144l-21.101.209a.65.65 0 0 0-.644.644c0 .36.285.655.644.66 0 0 24.208.233 25.506.279 1.42.058 2.84.186 4.14.528.631.156 1.176.4 1.756.76a9.96 9.96 0 0 1 1.6 1.188c.997.893 1.826 1.995 2.556 3.178.725 1.183 1.35 2.482 1.93 3.775.702 1.583 1.867 2.818 3.16 3.781 2.62 1.914 5.86 2.731 8.95 2.749 2.864.11 5.82.26 8.719.423 2.91.168 5.826.36 8.707.62.718.064 1.432.14 2.145.227l1.026.139 1.008.191a21.26 21.26 0 0 1 3.896 1.235c2.51 1.067 4.805 2.627 6.794 4.518 1.988 1.896 3.669 4.117 5.055 6.53 1.385 2.412 2.452 5.01 3.275 7.689.406 1.357.73 2.679 1.043 4.111l.997 4.303 2.012 8.554 1.02 4.297.052.191c.238 1.253.464 2.813.539 4.489v8.373s0 .012-.005.018c.017 1.565.214 5.138 1.646 6.686.284.255.568.499.869.736 2.626 2.134 5.745 3.526 8.841 4.402 2.359.667 4.73 1.073 7.084 1.34h.023c.742.08 1.484.156 2.22.214H151.218l3.727.342a2.194 2.194 0 0 0 2.093-1.096c.458-.8.887-1.612 1.287-2.43a1.015 1.015 0 0 0-.835-1.455l-6.023-.43c-.029 0-.064-.011-.093-.011h-.005c-.331-.017-.667-.04-.998-.064l-.127-.011c-2.498-.186-4.951-.51-7.275-1.108-2.678-.684-5.165-1.751-7.24-3.358-1.357-1.026-2.528-2.29-3.548-3.711-.893-1.52-.91-2.94-.91-2.987v-9.423c.029-.487.092-1.177.255-2.099.191-.83.371-1.664.539-2.494 0-.017.006-.034.011-.052.047-.18.07-.33.087-.464.053-.272.111-.55.163-.823a4.363 4.363 0 0 0-.07-1.879l-1.733-6.686-1.084-4.228c-.342-1.42-.742-2.934-1.217-4.372-.963-2.894-2.197-5.712-3.786-8.35-1.588-2.633-3.524-5.08-5.826-7.174-2.295-2.093-4.956-3.81-7.86-4.97a24.27 24.27 0 0 0-4.487-1.31l-1.154-.192-1.153-.133a96.473 96.473 0 0 0-2.226-.186c-2.95-.203-5.884-.324-8.817-.429a487.657 487.657 0 0 0-8.823-.232 14.514 14.514 0 0 1-4.023-.475 11.53 11.53 0 0 1-3.6-1.635c-1.067-.748-1.983-1.711-2.493-2.807-.65-1.363-1.327-2.69-2.156-3.99-1.647-2.563-3.971-4.999-7.235-5.868-1.547-.36-3.06-.453-4.562-.482h-1.038c-1.13 0-2.243.018-3.414.035m.4-5.045L42.642.22a.674.674 0 0 0 0 1.352l13.327.162 6.643.087c2.076.058 4.099.661 5.89 1.705 1.785 1.044 3.356 2.493 4.614 4.158.313.411.609.846.858 1.27v.005l.719 1.427c.516 1.003 1.055 2.024 1.722 3.01.666.985 1.484 1.965 2.573 2.72 1.079.765 2.406 1.194 3.67 1.322.319.029.632.046.945.052l.835.011 1.663.018 3.328.04 13.309.163a27.265 27.265 0 0 1 12.18 2.928c3.75 1.885 7.026 4.657 9.692 7.922 2.29 2.795 4.122 5.973 5.536 9.319.406.956.725 1.942.968 2.951l1.96 8.014c.22 1.143.446 2.86.446 5.074l.029-.063.081 13.43s-.064 1.589-.354 2.952c-.011.046-.029.098-.04.15a52.84 52.84 0 0 1-.319 1.038 1.067 1.067 0 0 0-.075.244c0 .012 0 .017-.006.03a3.39 3.39 0 0 0 .301 2.678v.012c.812 1.397 1.786 2.754 2.98 3.955a16.593 16.593 0 0 0 4.069 3.015c1.49.783 3.055 1.34 4.597 1.74 1.832.464 3.647.754 5.438.957.011 0 .023 0 .035.005 1.455.21 5.35.464 8.817.662a1.447 1.447 0 0 0 1.443-.946c.348-.968.655-1.925.939-2.864a.899.899 0 0 0-.823-1.16c-3.246-.14-6.655-.284-7.206-.308-2.597-.139-5.147-.365-7.507-.91-2.585-.603-4.869-1.653-6.631-3.387-1.09-1.043-2-2.325-2.783-3.74a7.607 7.607 0 0 0-.162-.301 28.654 28.654 0 0 1-.927-1.955c-.685-1.879-.876-3.711-.876-3.711l-.075-12.66c0-.457 0-.91-.006-1.35l-.012-1.554-.017-.024c-.151-6.523-.788-10.763-1.177-12.792-.023-.186-.04-.371-.063-.551a10.576 10.576 0 0 0-.505-2.024l-.011-.058h-.012c-.174-.47-.371-.928-.614-1.368-1.328-2.413-2.882-4.703-4.69-6.803-3.032-3.537-6.759-6.547-11.008-8.553a30.475 30.475 0 0 0-13.577-2.934l-13.344.162-3.334.04-1.669.018-.829.011c-.243 0-.481 0-.719-.023-.945-.075-1.803-.336-2.556-.84-.76-.493-1.42-1.224-2.017-2.06-.598-.834-1.13-1.774-1.647-2.73l-.388-.725-.197-.377-.099-.192-.07-.127-.063-.105a15.3 15.3 0 0 0-1.038-1.46c-1.466-1.84-3.258-3.428-5.339-4.576A14.978 14.978 0 0 0 66.16.47 14.525 14.525 0 0 0 62.636 0l-6.684.07.017-.012z" fill="currentColor"/><mask id="a" style="mask-type:luminance" maskUnits="userSpaceOnUse" x="0" y="0" width="165" height="194"><path d="M79.186 184.349a.68.68 0 0 0-.551.841c.191.824.411 1.612.65 2.418.237.801.504 1.595.788 2.389.133.36.272.719.417 1.079.203.505.609.91 1.125 1.09.672.238 1.35.453 2.04.656a.366.366 0 0 0 .394-.575c-.707-.927-1.35-1.971-1.948-3.044a39.154 39.154 0 0 1-1.09-2.146 40.65 40.65 0 0 1-.968-2.197v-.018a.82.82 0 0 0-.736-.499.42.42 0 0 0-.121.012m73.423-20.07l-.017.011a40.75 40.75 0 0 1-2.319 1.16c-.783.366-1.577.708-2.377 1.021-.916.354-1.843.672-2.759.916-.58.157-.904.771-.713 1.34l.284.84c.191.563.823.836 1.368.598a32.56 32.56 0 0 0 2.887-1.496 48.416 48.416 0 0 0 2.301-1.45 50.003 50.003 0 0 0 2.168-1.548c.336-.256.464-.737.238-1.096a.804.804 0 0 0-1.067-.285m-48.149 6.93c.093.835.574 2.847 2.916 4.181a38.363 38.363 0 0 0 3.472 1.537c1.861.707 3.844 1.27 5.919 1.571l.168.018a2.4 2.4 0 0 0 2.255-1.032l.997-1.456c.464-.702.922-1.403 1.374-2.122a1 1 0 0 0-.91-1.531l-3.078.197c-8.649.313-10.864-2.615-11.35-3.555l-.122-.278c-.748-1.775-1.322-3.909-1.594-4.808l-.516-.168.475 7.458-.006-.012zm-28.41-7.736c-.377.18-.557.621-.458 1.027.782 3.195 1.646 6.39 2.753 9.551 1.113 3.166 2.487 6.303 4.319 9.243 1.809 2.952 4.133 5.637 6.73 7.968.615.551 1.24 1.079 1.884 1.595.586.464 1.34.655 2.081.562 1.85-.243 3.983-.643 5.426-.933.545-.111.638-.841.14-1.091-2.279-1.13-4.441-2.395-6.487-3.873-2.493-1.81-4.76-3.92-6.655-6.391-1.913-2.459-3.502-5.225-4.876-8.13-1.38-2.911-2.556-5.95-3.657-9.029a.871.871 0 0 0-.818-.58.892.892 0 0 0-.377.087m80.235-10.687l-.011.011c-.441.458-.87.916-1.316 1.357-.475.412-.91.853-1.403 1.23-.487.376-.962.765-1.478 1.084-.493.348-1.026.632-1.542.922-1.055.539-2.139.963-3.229 1.229-.273.064-.545.128-.812.169a7.939 7.939 0 0 1-.8.104c-.26.029-.527.035-.771.035-.121 0-.249 0-.353-.012l-.226-.029s-.012 0 .011-.011h-.052l-.527-.07a1.122 1.122 0 0 0-1.253 1.27c.134.939.308 1.96.534 2.894a1.426 1.426 0 0 0 1.6 1.061c.127-.012.22-.035.33-.052.22-.035.418-.082.615-.122a11.4 11.4 0 0 0 1.147-.325 12.55 12.55 0 0 0 1.079-.4c.353-.139.695-.302 1.026-.47 1.339-.667 2.55-1.502 3.646-2.418.533-.475 1.067-.945 1.542-1.467.498-.493.933-1.044 1.374-1.577.44-.534.811-1.114 1.211-1.665.366-.574.713-1.159 1.061-1.734a.875.875 0 0 0-.22-1.154.842.842 0 0 0-.499-.162.967.967 0 0 0-.689.296m4.272-9.638l-.052.035c-.679.475-1.31.986-1.994 1.415-.702.406-1.357.864-2.087 1.183l-1.061.516-1.096.423a8.93 8.93 0 0 1-1.101.365c-.371.099-.725.238-1.102.308-1.472.371-2.973.51-4.423.504-.724 0-1.443-.063-2.133-.15h-.011a1.122 1.122 0 0 0-1.276.765l-1.304 4.071c-.278.876.417 1.774 1.327 1.693h.006c.51-.035.997-.116 1.484-.185a23.41 23.41 0 0 0 2.812-.667c1.814-.563 3.542-1.299 5.113-2.25.405-.215.771-.499 1.153-.743.377-.249.754-.498 1.102-.788l1.055-.835c.336-.296.655-.609.979-.911.667-.58 1.218-1.275 1.803-1.913.562-.661 1.055-1.375 1.577-2.053a.563.563 0 0 0-.441-.899.543.543 0 0 0-.319.104m-77.156-7.208a.663.663 0 0 0-.534.777c1.073 5.84 2.58 11.639 4.812 17.252 1.124 2.801 2.435 5.561 4.046 8.2 1.542 2.511 3.362 4.923 5.635 7.04v.012a.5.5 0 0 0 .029.017c.104.093.203.191.307.29.058.052.127.11.191.156.076.053.145.111.238.186a9.929 9.929 0 0 1 3.293 6.356l.469 4.331s0 .053.006.076l.388 3.879a3.868 3.868 0 0 0 2.835 3.317c.835.227 2.249.517 3.061.673.4.081.805-.041 1.101-.313.261-.244.574-.528.777-.719.133-.128.261-.255.394-.377.284-.278.574-.557.858-.835l.435-.435c.301-.302.597-.609.893-.916.046-.052.092-.099.144-.151.609-.638.221-1.699-.66-1.798l-1.954-.208c-1.745-.227-3.467-.563-5.13-1.056-1.612-.487-2.052-1.763-2.168-2.424l-.047-.412-.823-7.602c-.498-4.61-2.864-6.825-2.864-6.825-1.49-1.317-2.863-2.854-4.115-4.5-1.699-2.239-3.189-4.692-4.522-7.249-2.66-5.121-4.707-10.63-6.336-16.26a.669.669 0 0 0-.638-.488c-.04 0-.08 0-.121.012m79.806-3.595l-.018.011c-.475.424-.939.853-1.408 1.259-.505.377-.968.782-1.49 1.119-.516.342-1.015.69-1.554.968-.516.313-1.066.551-1.606.806-1.089.458-2.202.806-3.31.986-.278.047-.55.093-.823.105-.272.034-.539.04-.805.046-2.597.209-4.128 2.36-4.893 3.879-.342.679.18 1.479.939 1.45 1.699-.064 2.881-.296 2.881-.296.22-.017.417-.046.62-.075a11.78 11.78 0 0 0 1.166-.238c.376-.093.747-.197 1.107-.319.365-.11.713-.249 1.061-.394 1.385-.568 2.649-1.311 3.814-2.14.568-.435 1.136-.864 1.646-1.345.534-.458 1.009-.969 1.49-1.467.481-.499.893-1.056 1.333-1.572.412-.545.795-1.107 1.189-1.653a.876.876 0 0 0-.139-1.171.824.824 0 0 0-.551-.203.988.988 0 0 0-.644.244m-82.71-8.229a42.78 42.78 0 0 0-.075 1.919c-.012.638 0 1.282.017 1.926.047 1.287.151 2.592.453 3.931a.86.86 0 0 0 .052.174c.214.58.77.824 1.24.545.47-.272.678-.968.464-1.548-.371-.997-.632-2.157-.829-3.334a29.934 29.934 0 0 1-.243-1.798 39.184 39.184 0 0 1-.163-1.815v-.012c-.017-.272-.191-.498-.423-.516h-.029c-.238 0-.44.232-.464.528zm32.509-8.333v9.209s0 2.325 1.519 4.018a29.562 29.562 0 0 0 9.919 6.333c3.252 1.258 6.689 1.908 10.115 2.093h.139l2.545.122a1.352 1.352 0 0 0 1.391-1.079c.209-1.014.389-2.018.539-3.009a1.005 1.005 0 0 0-.997-1.154h-2.034-.018c-3.42.034-6.811-.447-9.97-1.583a24.812 24.812 0 0 1-8.545-5.22 26.651 26.651 0 0 1-2.475-2.65c-.864-1.148-1.386-6.013-1.693-7.144a.213.213 0 0 0-.214-.168.222.222 0 0 0-.227.226m-49.586-23.99a38.52 38.52 0 0 1-.678.348.734.734 0 0 0-.087 1.27c.127.087.255.174.377.26a18.31 18.31 0 0 1 3.257 3.097c.963 1.16 1.774 2.453 2.476 3.81.173.342.347.679.504 1.032.162.348.319.696.458 1.056.313.713.527 1.397.76 2.134.84 2.946 1.298 6.118 1.692 9.29.388 3.183.678 6.402.98 9.626.597 6.454 1.205 12.955 2.22 19.45 1.02 6.483 2.394 12.995 4.719 19.31 1.165 3.155 2.573 6.257 4.336 9.209a45.909 45.909 0 0 0 2.921 4.286 37.934 37.934 0 0 0 3.525 3.891 32.56 32.56 0 0 0 7.339 5.265.633.633 0 0 0 .927-.626l-.423-3.915a3.894 3.894 0 0 0-1.646-2.76 28.769 28.769 0 0 1-2.481-1.971c-4.43-3.955-7.612-9.36-9.936-15.13-2.33-5.799-3.855-11.998-5.026-18.278-1.171-6.292-1.971-12.688-2.754-19.125-.4-3.219-.788-6.449-1.28-9.69-.505-3.242-1.056-6.501-2.094-9.766-.272-.806-.58-1.658-.939-2.418a20.876 20.876 0 0 0-.545-1.154c-.185-.383-.388-.76-.597-1.137-.829-1.496-1.895-2.853-2.939-4.239-.933-1.235-2.307-2.343-3.211-3.004a1.719 1.719 0 0 0-1.838-.122m6.11-4.72c-.22.232-.44.453-.66.667a1.565 1.565 0 0 0-.343 1.769c.337.748.678 1.49 1.032 2.238.371.783.76 1.56 1.16 2.331.417.8.88 1.595 1.408 2.366a16.406 16.406 0 0 0 1.797 2.193 17.211 17.211 0 0 0 2.157 1.832c.742.533 1.46.992 2.04 1.444.586.452 1.026.893 1.386 1.426.724 1.067 1.124 2.5 1.414 4.094.319 1.676.644 3.358.991 5.04.371 1.797.765 3.589 1.183 5.381a1.1 1.1 0 0 0 1.362.812l1.716-.464c.585-.156.933-.759.777-1.345a194.88 194.88 0 0 1-1.299-5.208 267.15 267.15 0 0 1-1.113-4.952c-.37-1.722-.887-3.659-2.127-5.399-.615-.864-1.42-1.606-2.203-2.169-.782-.568-1.519-.997-2.162-1.444a12.54 12.54 0 0 1-3.252-3.125 20.608 20.608 0 0 1-1.258-1.983c-.4-.725-.789-1.462-1.171-2.21a139.171 139.171 0 0 1-1.519-3.09.791.791 0 0 0-.725-.453.813.813 0 0 0-.585.25m-50.868-2.645a.697.697 0 0 0-.18.997c.308.412.592.714.91 1.033.314.313.65.597.992.875.69.551 1.426 1.038 2.203 1.467a19.336 19.336 0 0 0 4.944 1.88c3.455.805 8.58.794 12.035.318.863-.127 1.733-.272 2.539-.406.823-.127 1.646-.25 2.47-.336a44.35 44.35 0 0 1 4.944-.296c2.006 0 4 .163 5.93.545.789-.006 2.052-.122 3.623-.603.197-.07.545-.237.545-.556 0-.267-.116-.418-.33-.482-3.2-.98-6.545-1.299-9.803-1.206a47.28 47.28 0 0 0-5.211.458c-.858.116-1.716.267-2.562.424l-2.476.47c-3.24.538-8.11.637-11.292-.012a17.455 17.455 0 0 1-4.545-1.578 14.287 14.287 0 0 1-2.011-1.258c-.313-.238-.62-.487-.899-.748a7.355 7.355 0 0 1-.76-.8l-.034-.041a.758.758 0 0 0-.597-.284c-.15 0-.301.04-.435.133m56.016-4.18c-.174.283-.342.562-.516.828a1.237 1.237 0 0 0 .208 1.584 17.61 17.61 0 0 0 2.4 1.832c1.618 1.061 3.42 1.775 4.812 2.522 1.403.749 2.266 1.63 2.892 2.999.313.666.563 1.415.76 2.203.203.795.382 1.659.562 2.511.348 1.717.673 3.462 1.009 5.208.666 3.496 1.362 7.005 2.162 10.502 1.606 6.987 3.588 13.952 6.434 20.673 1.427 3.357 3.079 6.651 5.067 9.789a49.617 49.617 0 0 0 2.168 3.137v.017s1.449 1.664 1.861 5.411l.162 1.49c.018.18.099.348.226.481l.128.134c.307.319.84.069.794-.372l-.562-5.161c-.099-.927-.267-2.464-.505-4.656-.301-2.784-.887-4.135-1.2-4.68-.058-.087-.116-.174-.168-.267-.023-.034-.04-.052-.04-.052a66.21 66.21 0 0 1-3.745-7.109c-2.858-6.292-4.968-12.984-6.713-19.781-.875-3.404-1.646-6.842-2.4-10.304-.377-1.734-.748-3.468-1.153-5.225-.21-.882-.412-1.752-.673-2.668a15.266 15.266 0 0 0-1.055-2.795c-.458-.922-1.078-1.844-1.872-2.615-.789-.783-1.71-1.363-2.586-1.81-1.756-.875-3.298-1.432-4.678-2.29a15.37 15.37 0 0 1-2.365-1.763.913.913 0 0 0-.614-.238.94.94 0 0 0-.806.458M9.658 76.21c-.22.302-.11.702.237.893 1.728.928 3.461 1.537 5.287 2.059 1.815.522 3.67.881 5.542 1.16 3.75.51 10.95.637 14.73.405.95-.029 1.884-.15 2.823-.237.95-.087 1.86-.197 2.77-.267a45.215 45.215 0 0 1 5.456-.15c1.803.075 3.588.29 5.28.707 1.688.417 3.276 1.043 4.627 1.896.04.029.087.052.133.075.701.348 1.594.14 1.994-.464.4-.603.162-1.374-.54-1.722-1.79-.887-3.715-1.461-5.645-1.81-1.936-.364-3.884-.463-5.809-.457a46.6 46.6 0 0 0-5.71.37c-.945.111-1.878.262-2.776.354-.91.1-1.82.238-2.736.285-3.658.295-10.742.272-14.365-.22-1.803-.262-3.606-.58-5.328-1.097a33.442 33.442 0 0 1-2.539-.852c-.811-.32-1.646-.696-2.324-1.09l-.052-.03-.023-.01a.863.863 0 0 0-.395-.1c-.249 0-.492.11-.637.302zm63.87-3.456a.65.65 0 0 0 .052.916 47.74 47.74 0 0 0 2.597 2.151 42.866 42.866 0 0 0 2.748 1.972c.95.62 1.924 1.224 2.974 1.734 1.049.516 2.15.986 3.397 1.276a1.413 1.413 0 0 0 1.722-1.218 1.414 1.414 0 0 0-1.253-1.56c-.927-.104-1.919-.383-2.893-.73-.98-.349-1.953-.8-2.91-1.282a41.257 41.257 0 0 1-2.834-1.577 45.87 45.87 0 0 1-2.73-1.775h-.012a.604.604 0 0 0-.377-.127c-.18 0-.36.075-.487.214m6.104-2.975c-.122.33-.25.661-.37.986-.221.568.11 1.195.7 1.357.296.081.586.157.882.226 1.803.453 3.576.812 5.037 1.444 1.473.626 2.528 1.554 3.252 2.905.36.662.65 1.421.864 2.198.215.789.388 1.67.55 2.546.32 1.763.598 3.572.882 5.381.562 3.625 1.142 7.272 1.826 10.908 1.362 7.272 3.101 14.538 5.739 21.59 1.322 3.52 2.892 6.982 4.811 10.299.47.8.963 1.589 1.478 2.366v.017s.018.023.053.058c.191.29.376.58.574.87.011.017.028.029.046.046.498.87 1.119 2.308 1.31 4.309l.603 6.414v.011l.127 1.346.029.04c.279 2.128.661 3.572.963 4.465.092.325.22.638.371.94a2.69 2.69 0 0 0 .133.261 5.29 5.29 0 0 0 1.49 1.641 30.092 30.092 0 0 0 6.284 3.502c3.008 1.236 6.231 1.937 9.454 2.163l.163.012c.591.041 1.188.07 1.779.075H128.807l.974.035a1.812 1.812 0 0 0 1.704-1.032c.516-1.09 1.015-2.186 1.49-3.276a.995.995 0 0 0-.916-1.386h-3.374-.017c-3.235.034-6.429-.47-9.414-1.601-2.991-1.125-5.757-2.87-8.209-5.051-.179-.156-.347-.324-.521-.487-1.519-1.571-1.792-3.526-1.792-3.526l-1.043-11.023c-.342-3.468-.916-5.202-1.275-6.002a24.569 24.569 0 0 1-.331-.592c-1.136-2.064-2.463-4.668-3.003-6.483-2.04-6.855-4.562-13.639-6.08-20.743-.76-3.555-1.427-7.139-2.082-10.745-.33-1.804-.655-3.613-1.037-5.452-.197-.922-.4-1.838-.69-2.812-.302-.986-.684-1.943-1.223-2.876a9.485 9.485 0 0 0-2.099-2.529c-.852-.719-1.826-1.258-2.788-1.64-1.936-.766-3.797-1.062-5.553-1.468-.302-.064-.592-.133-.887-.203a.85.85 0 0 0-.997.528M4.116 67.778c-.226.296-.128.69.22.882 7.055 3.89 16.313 4.581 24.254 3.021 3.867-.65 10.272-1.983 14.162-1.896 3.872.098 7.739.672 11.136 2.024 1.698.672 3.264 1.548 4.608 2.603a15.056 15.056 0 0 1 1.861 1.723c.551.603 1.084 1.299 1.6 2 1.287 1.746 2.406 3.578 3.461 5.469.423.76 1.617.904 2.278.278.157-.15.313-.302.47-.458.36-.354.423-.858.174-1.27-1.12-1.861-2.33-3.711-3.716-5.48-.574-.73-1.154-1.45-1.855-2.175a18.14 18.14 0 0 0-2.267-1.983c-1.629-1.212-3.49-2.186-5.449-2.905-3.93-1.444-8.15-1.949-12.266-1.954-4.133 0-10.678 1.455-14.643 2.215a85.022 85.022 0 0 1-3.281.522c-.957.145-1.919.249-2.887.319-1.936.139-3.884.121-5.82-.053-1.93-.18-3.85-.51-5.698-1.014a28.07 28.07 0 0 1-2.72-.882c-.874-.33-1.773-.725-2.52-1.142l-.059-.035a.846.846 0 0 0-.406-.104.807.807 0 0 0-.631.29m75.411-5.55c-.104.418-.214.83-.324 1.235-.11.412.127.83.55.969 1.096.36 3.253 1.003 5.63 1.345 1.883.272 3.692.673 5.153 1.305.724.313 1.345.707 1.849 1.194.25.244.475.516.672.806.099.145.192.302.284.458l.273.528c.695 1.462 1.206 3.12 1.675 4.796.922 3.37 1.681 6.86 2.528 10.334 1.663 6.958 3.611 13.911 6.069 20.719a162.419 162.419 0 0 0 1.93 5.08c.331.847.684 1.682 1.032 2.517.099.238.215.476.325.713v.018s.011.017.029.052c.284.615.579 1.229.898 1.827.024.04.047.075.064.116.765 1.838 1.699 4.876 1.699 8.837v8.704c.011.714.173 4.089 2.394 6.344.319.279.637.551.968.818.197.139.365.267.493.383 2.15 1.664 4.533 3.073 7.101 4.088 3.42 1.369 7.095 2.018 10.73 2.088l.69.006h2.04c.736 0 1.397-.464 1.635-1.16.336-.986.649-1.966.945-2.94a1.08 1.08 0 0 0-1.032-1.398h-2.991a3.813 3.813 0 0 0-.354-.017h-.012c-3.35.122-6.678-.319-9.767-1.467-3.096-1.131-5.936-2.958-8.423-5.266-.348-.325-.684-.667-1.02-1.009a3.386 3.386 0 0 0-.4-.406c-.221-.232-.429-.475-.638-.713-1.038-1.502-1.322-3.955-1.322-3.955v-9.029c0-8.64-1.571-12.16-1.571-12.16v-.012a182.078 182.078 0 0 1-1.374-3.392c-2.573-6.594-4.649-13.35-6.475-20.21-.927-3.433-1.768-6.889-2.817-10.374-.54-1.746-1.113-3.503-2.006-5.271l-.365-.662a8.638 8.638 0 0 0-1.56-1.948c-.834-.783-1.849-1.368-2.863-1.774-2.046-.818-4.029-1.073-5.901-1.398-1.873-.307-3.664-.632-5.368-1.154a1.311 1.311 0 0 1-.14-.046.842.842 0 0 0-.237-.035c-.325 0-.62.203-.701.516m57.824-3.248a.422.422 0 0 0-.395.366 7.7 7.7 0 0 0-.086 1.189c0 .394 0 .794.04 1.188.029.395.081.79.139 1.183.064.395.145.783.238 1.178a15.695 15.695 0 0 0 1.872 4.482 16.372 16.372 0 0 0 3.218 3.77c.736.62 1.524 1.084 2.313 1.467.788.377 1.588.667 2.388.904 3.194.922 6.376 1.148 9.53 1.102a43.032 43.032 0 0 0 4.962-.417 1.15 1.15 0 0 0 .98-1.23l-.203-2.61a1.148 1.148 0 0 0-1.316-1.043c-1.53.238-3.078.412-4.626.504a41.08 41.08 0 0 1-4.22.082 24.48 24.48 0 0 1-4.075-.441c-1.293-.261-2.545-.661-3.444-1.258a16.488 16.488 0 0 1-3.002-2.657 17.07 17.07 0 0 1-2.337-3.415 20.497 20.497 0 0 1-.887-1.943c-.127-.336-.255-.672-.365-1.02-.11-.343-.214-.702-.295-1.032v-.03a.43.43 0 0 0-.412-.319h-.012M1.472 57.897c-.18.313.342.696.679.864 1.79.881 3.6 1.525 5.478 2.088 1.872.55 3.79.98 5.733 1.275 1.942.296 4.504.464 6.48.493a46.16 46.16 0 0 0 2.969-.063l5.02-.482c3.855-.26 10.278-.87 14.057-1.032 1.89-.075 3.757-.058 5.571.162 1.815.21 3.583.661 5.293 1.27 3.327 1.218 6.255 3.433 8.88 5.869 2.632 2.459 4.98 5.207 7.258 8.037l1.705 2.14v.006c.272.348.846.33 1.084-.04.284-.436.562-.876.834-1.323a1.18 1.18 0 0 0-.116-1.38l-.985-1.172c-2.394-2.818-4.904-5.613-7.762-8.147-1.432-1.264-2.945-2.47-4.597-3.543-1.652-1.061-3.432-2.012-5.391-2.662-1.901-.632-3.896-1.084-5.913-1.27-2.017-.197-4.023-.162-5.988-.035-3.919.267-10.284.957-14.11 1.31l-4.985.552c-.933.075-1.872.116-2.817.127-1.884.018-4.36-.098-6.232-.336a42.666 42.666 0 0 1-5.536-1.096c-1.803-.487-4.017-1.096-5.646-1.856l-.035-.017a.727.727 0 0 0-.313-.07.71.71 0 0 0-.615.337m75.975-5.19l-.105.075-.174.145-.139.174-.07.11c-.034.058-.04.093-.023.099l.07.075.133.15c.093.1.18.198.279.29.185.192.376.378.568.563.388.366.794.714 1.211 1.056.835.672 1.74 1.275 2.696 1.803.48.255.974.487 1.478.708l.771.295c.267.093.545.186.812.256.544.139 1.084.255 1.617.342.527.08 1.05.15 1.553.22 1.015.128 1.971.25 2.864.458.893.209 1.71.505 2.452.951 1.49.876 2.638 2.43 3.635 4.187a.54.54 0 0 0 1.003-.354 10.42 10.42 0 0 0-1.044-3.12 8.247 8.247 0 0 0-2.22-2.684c-.94-.748-2.058-1.241-3.148-1.56-1.095-.313-2.185-.464-3.211-.592-.516-.058-1.02-.11-1.507-.174a20.92 20.92 0 0 1-2.099-.336l-.696-.18-.695-.197c-.232-.064-.458-.15-.696-.22a21.284 21.284 0 0 1-2.736-1.108 19.116 19.116 0 0 1-1.953-1.102l-.313-.209-.151-.104-.075-.052s0-.006-.012-.006c-.018 0-.04.012-.081.04m-28.973-2.916c-1.026.104-2.07.354-2.968.545-.464.104-.934.197-1.403.278-.47.087-.94.18-1.409.25-3.773.626-12.573.904-16.428.985-3.855.082-9.153-.063-13.008-.37-3.85-.314-7.716-.772-11.496-1.45H1.74a.528.528 0 0 0-.614.376.495.495 0 0 0 .4.592c3.843.789 7.698 1.34 11.588 1.751 3.304.342 8.637.644 13.153.661 3.924.006 12.81-.18 16.724-.73.492-.058.974-.145 1.466-.22.487-.076.974-.163 1.461-.256 1.003-.185 1.855-.365 2.771-.44 1.803-.163 3.606.034 5.275.597 1.664.585 3.2 1.507 4.568 2.661 1.38 1.143 2.609 2.488 3.786 3.897 1.182 1.41 2.301 2.9 3.53 4.378a30.026 30.026 0 0 0 1.983 2.187c.707.696 1.478 1.34 2.26 1.977 1.136.928 3.078 1.972 4.33 2.598.638.32 1.427.052 1.688-.58.075-.185.15-.37.225-.562.203-.51-.046-1.079-.568-1.31-1.031-.465-2.707-1.288-3.9-2.245-.697-.557-1.41-1.102-2.065-1.716-.643-.598-1.252-1.259-1.86-1.949-1.206-1.38-2.377-2.859-3.647-4.297-1.263-1.438-2.626-2.859-4.202-4.106-1.56-1.252-3.386-2.308-5.392-2.951a14.861 14.861 0 0 0-4.446-.667c-.603 0-1.2.035-1.79.104m9.355-7.133h-.69l-56.6.343a.532.532 0 0 0-.528.522c0 .295.232.533.522.539l56.606.69.69.011c.238 0 .458.006.661.018a4.4 4.4 0 0 1 .62.046c.209.018.412.047.615.087a9.36 9.36 0 0 1 2.36.73c1.506.697 2.851 1.781 4.08 3.034 2.452 2.522 4.487 5.602 6.794 8.536.562.725 1.194 1.508 1.873 2.203a20.87 20.87 0 0 0 2.185 1.984c.052.04.104.08.156.122.615.47 1.513.156 1.722-.592.058-.203.11-.4.162-.603.11-.406-.04-.841-.382-1.096a18.34 18.34 0 0 1-1.942-1.682c-.62-.609-1.165-1.252-1.745-1.966-2.313-2.795-4.423-5.862-7.17-8.576-1.38-1.34-2.969-2.587-4.835-3.393-.934-.4-1.92-.684-2.928-.829-.249-.04-.504-.07-.753-.087a8.287 8.287 0 0 0-.754-.035h-.719m-9.744-7.393l-10.609.15-32.352.308a.522.522 0 0 0 .006 1.044H37.47l10.609-.012h.939c.574 0 1.147 0 1.698.006.858.023 1.699.087 2.516.232 1.617.29 3.194.945 3.965 2.157a.821.821 0 1 0 1.374-.893c-.586-.893-1.444-1.543-2.33-1.972-.893-.435-1.826-.684-2.748-.84-.928-.152-1.85-.21-2.76-.221h-.237c-.823 0-1.618.023-2.43.029m3.931-7.463l-10.753.168-29.025.336a.589.589 0 0 0-.586.592.6.6 0 0 0 .592.603l29.019.168 10.753.087c.91 0 1.716.029 2.55.15a9.598 9.598 0 0 1 2.349.627c1.49.603 2.765 1.647 3.89 2.905 1.124 1.264 2.12 2.703 3.072 4.187a135.896 135.896 0 0 1 2.753 4.564c.957 1.653 2.25 3.207 3.791 4.413.771.615 1.606 1.12 2.464 1.583.864.44 1.757.812 2.66 1.125 3.635 1.218 7.345 1.502 10.887 1.867 1.768.18 3.513.371 5.148.731 1.64.348 3.142.905 4.296 1.786.573.44 1.072.963 1.5 1.583.43.62.807 1.328 1.143 2.076.66 1.514 1.194 3.166 1.681 4.854.968 3.386 1.826 6.883 2.742 10.357a388.5 388.5 0 0 0 7.692 25.904 28.248 28.248 0 0 0 1.038 2.714c.4.893.852 1.763 1.351 2.598.185.313.377.62.574.922.539.968 1.281 2.598 1.385 4.407v1.357c.041 1.119.313 5.01 2.052 7.788a15.44 15.44 0 0 0 1.716 2.163 18.954 18.954 0 0 0 3.246 2.691 24.23 24.23 0 0 0 3.67 1.948c2.533 1.073 5.171 1.775 7.814 2.204a51.28 51.28 0 0 0 5.124.574 1.208 1.208 0 0 0 1.27-1.166c.023-.638.035-1.264.035-1.879 0-.319 0-.632.006-.945.011-.638-.499-1.171-1.137-1.16a46.464 46.464 0 0 1-4.684-.15c-2.382-.198-4.712-.638-6.921-1.369a20.661 20.661 0 0 1-3.159-1.368 15.419 15.419 0 0 1-2.76-1.937c-2.916-2.187-4.133-4.071-4.643-5.283h-.017c-.012-.047-.029-.093-.041-.145-.319-.812-.307-1.288-.307-1.288a15.478 15.478 0 0 1-.209-1.415v-4.221c0-4.373-.446-6.234-.696-6.93-.052-.122-.11-.238-.162-.36-.156-.376-.29-.736-.44-1.17a390.578 390.578 0 0 1-8.215-25.463c-.997-3.44-1.924-6.89-3.008-10.376-.551-1.74-1.148-3.496-1.965-5.253-.424-.876-.905-1.752-1.519-2.593a10.27 10.27 0 0 0-2.238-2.244c-1.745-1.258-3.727-1.873-5.588-2.227-1.878-.365-3.71-.516-5.507-.66-3.582-.279-7.095-.488-10.307-1.49a18.612 18.612 0 0 1-2.313-.911c-.73-.371-1.438-.777-2.087-1.27-1.304-.974-2.382-2.198-3.258-3.625-.944-1.53-1.895-3.067-2.91-4.58-1.02-1.509-2.098-3.01-3.397-4.397-1.28-1.38-2.875-2.644-4.742-3.346-1.605-.632-3.339-.811-4.944-.811-.244 0-.481 0-.713.011m1.756-6.454l-1.31.017-2.614.035-5.235.064-27.593.255a.52.52 0 0 0 0 1.044l27.582.255 5.228.064 2.615.035 1.304.017h.655c.122.012.33.04.51.07 1.53.29 3.055 1.014 4.423 1.92 1.374.91 2.626 2.029 3.75 3.264 1.131 1.235 2.14 2.592 3.05 4.019.232.353.446.719.667 1.078.214.36.48.795.742 1.172.539.777 1.153 1.496 1.826 2.157 1.344 1.322 2.933 2.377 4.597 3.184 1.663.811 3.408 1.391 5.159 1.838 3.507.893 7.049 1.252 10.492 1.664 1.716.209 3.42.423 5.009.789.394.093.782.197 1.153.313.186.058.365.122.54.185.173.07.336.134.538.22.766.337 1.479.68 2.105 1.085 2.469 1.543 3.884 4.668 5.171 7.788 1.258 3.155 2.318 6.455 3.344 9.76 2.035 6.628 3.89 13.35 5.745 20.064l1.386 5.057.347 1.27c.157.574.348 1.02.54 1.479.382.899.823 1.751 1.298 2.575.18.313.377.614.568.916v.017s.012.017.035.04c.122.186.243.372.371.557.417.749 1.026 2.25 1.206 4.872v4.998l-.018.018c-.011 1.449.174 5.358 2.4 7.185 3.055 2.11 6.493 3.601 10.011 4.546 2.586.707 5.212 1.108 7.844 1.311a1.375 1.375 0 0 0 1.449-1.056c.203-.899.44-1.757.719-2.586a1.114 1.114 0 0 0-1.015-1.473c-2.632-.093-5.24-.394-7.744-1.021-3.235-.783-6.319-2.064-9.02-3.914a24.936 24.936 0 0 1-1.537-1.154c-1.484-1.461-1.878-3.201-1.97-4.187v-7.66c0-4.013-.505-5.364-.632-5.643a.225.225 0 0 1-.029-.058c-.151-.342-.313-.701-.383-.968l-.371-1.247-1.501-5.004c-2.023-6.687-4.047-13.373-6.273-20.03-1.124-3.329-2.278-6.651-3.686-9.945-.713-1.647-1.496-3.288-2.493-4.889-.516-.794-1.09-1.583-1.774-2.308a11.003 11.003 0 0 0-2.336-1.902c-.852-.522-1.728-.91-2.568-1.252-.203-.082-.44-.18-.678-.262-.238-.08-.47-.156-.702-.226a18.335 18.335 0 0 0-1.38-.336c-1.82-.371-3.588-.545-5.338-.719-3.484-.33-6.91-.609-10.191-1.363-3.264-.742-6.412-1.995-8.754-4.198a12.592 12.592 0 0 1-1.588-1.792c-.243-.337-.44-.644-.678-1.02-.244-.378-.475-.76-.736-1.131-1.003-1.49-2.116-2.917-3.374-4.222-1.252-1.31-2.65-2.505-4.209-3.48-1.56-.974-3.263-1.757-5.17-2.076-.25-.034-.476-.07-.789-.07h-.655l-.035-.005zm-1.02-5.654h-.429l-.858.017-3.432.041-6.857.081-19.913.157a.585.585 0 0 0 0 1.171l19.913.157 6.863.08 3.432.041.858.012h.429l.191.006.191.012c.528.034 1.067.104 1.6.197a18.094 18.094 0 0 1 6.075 2.261 16.56 16.56 0 0 1 2.603 1.92 17.707 17.707 0 0 1 1.67 1.751l.527.65c1.438 1.815 2.963 3.572 4.638 5.23.846.824 1.722 1.624 2.695 2.36.493.366.992.72 1.56 1.038.278.163.58.308.898.447.163.064.33.133.522.185.087.03.191.053.307.076.058.011.105.023.186.035.023 0 .046 0 .063.005 1.16.29 2.273.47 3.38.638 1.142.169 2.278.32 3.409.47 2.26.296 4.51.58 6.736.928 2.226.342 4.434.736 6.585 1.258 2.133.528 4.266 1.166 6.034 2.146.887.493 1.554 1.032 2.255 1.82.684.755 1.311 1.619 1.896 2.523 1.165 1.81 2.162 3.793 3.084 5.81 1.82 4.06 3.316 8.31 4.661 12.608 1.345 4.303 2.533 8.664 3.611 13.048l.789 3.293.376 1.653c.116.54.279 1.166.429 1.751a28.167 28.167 0 0 0 1.235 3.503c.197.446.412.887.638 1.322v.006c.145.284.307.562.469.84.336.68.742 1.665.806 2.593v6.28l-.029.03c-.035 1.455.052 5.038 1.606 6.471a33.463 33.463 0 0 0 9.826 4.993c.44.15.886.29 1.333.406.446.121.893.249 1.345.359.904.203 1.803.423 2.718.568.992.186 1.983.325 2.974.435a1.822 1.822 0 0 0 1.751-.84c.064-.099.122-.192.168-.267l.226-.348c.186-.29.371-.574.568-.858.087-.122.174-.244.255-.366.07-.104.279-.382.522-.719a.963.963 0 0 0-.719-1.531c-1.646-.093-3.298-.203-4.916-.469-.817-.105-1.611-.285-2.417-.441-.4-.087-.788-.192-1.188-.29-.4-.093-.789-.203-1.177-.325a28.59 28.59 0 0 1-8.678-4.146c-.562-.4-1.293-1.027-1.971-1.641-1.049-1.143-1.223-2.326-1.252-2.685V87.72a4.335 4.335 0 0 1-.012-.632c0-.14.006-.267.012-.406v-1.125s.017-.035.023-.052c.035-3.88-.336-5.875-.475-6.466a5.601 5.601 0 0 1-.052-.197l-.424-1.67-.875-3.329a225.78 225.78 0 0 0-3.988-13.193c-1.484-4.355-3.107-8.68-5.119-12.885-1.014-2.1-2.116-4.175-3.461-6.164-.678-.992-1.408-1.966-2.278-2.877a12.076 12.076 0 0 0-1.432-1.31l-.405-.307-.418-.267c-.278-.186-.556-.33-.84-.487-2.261-1.172-4.557-1.763-6.84-2.285-2.29-.499-4.574-.852-6.853-1.148-2.278-.296-4.556-.534-6.817-.777-1.13-.122-2.255-.244-3.368-.383-1.107-.14-2.22-.302-3.234-.534l-.342-.034h.075-.023c-.03 0-.058-.012-.11-.024-.082-.017-.186-.058-.284-.092a5.73 5.73 0 0 1-.644-.302c-.44-.226-.881-.528-1.316-.83-.87-.625-1.698-1.35-2.51-2.104-1.611-1.525-3.13-3.195-4.574-4.935l-.573-.667a19.131 19.131 0 0 0-1.925-1.925 18.773 18.773 0 0 0-2.962-2.082A19.89 19.89 0 0 0 55 15.889a16.752 16.752 0 0 0-1.809-.18h-.237l-.238-.005.029-.012zm.927-5.445l-1.93.023-3.866.046-21.16.186a.595.595 0 0 0 0 1.189l21.194.185 3.878.047 1.937.023c.632-.018 1.217 0 1.837.064 2.435.237 4.846.98 6.748 2.383.475.354.91.736 1.316 1.166l.313.342.348.365.684.708 2.724 2.771 2.742 2.743 1.374 1.369.371.36c.133.127.278.249.417.365.29.232.586.452.893.643 1.235.79 2.568 1.27 3.884 1.636 1.322.354 2.643.585 3.954.765l7.703.934c2.551.313 5.09.65 7.594 1.084 1.253.215 2.499.464 3.728.743.614.133 1.229.29 1.837.44l.911.238.84.255c2.215.748 4.249 2.036 6.006 3.654 1.768 1.618 3.269 3.56 4.556 5.648 2.574 4.198 4.307 8.953 5.554 13.813.318 1.218.585 2.447.846 3.682.296 1.369.614 2.58.922 3.845l.927 3.752.446 1.861c.14.603.29 1.253.377 1.763l.012.058.023.087c.365 1.502.73 2.946 1.2 4.477.058.191.122.389.191.592.07.197.163.452.226.614.116.29.232.58.354.864.377 1.05.916 2.993.916 5.498v6.14c-.006.157-.232 4.86 1.524 6.356 1.954 1.468 4.093 2.633 6.302 3.52 3.855 1.555 7.854 2.372 11.831 2.854l3.015.394a1.678 1.678 0 0 0 1.513-.597c.736-.9 1.472-1.81 2.202-2.743a.915.915 0 0 0-.649-1.473l-3.49-.279s-.034-.005-.058-.005c-4.376-.302-8.718-.975-12.666-2.465-1.971-.736-3.82-1.705-5.466-2.905a20.6 20.6 0 0 1-1.113-.9c-1.826-1.658-1.89-4.343-1.89-4.343V72.754s.388-3.636-.603-7.295l-.203-.76-1.026-3.746c-.336-1.23-.701-2.511-.974-3.665a74.291 74.291 0 0 0-.985-3.845c-1.449-5.085-3.397-10.113-6.342-14.665-1.478-2.268-3.212-4.407-5.298-6.234-2.082-1.821-4.539-3.306-7.241-4.146-.336-.099-.684-.192-1.014-.285l-.962-.232c-.644-.145-1.287-.29-1.937-.411a74.498 74.498 0 0 0-3.884-.673c-2.59-.389-5.182-.667-7.762-.916l-7.686-.742c-1.252-.14-2.481-.325-3.664-.615-1.177-.29-2.301-.684-3.264-1.264-.243-.14-.463-.302-.684-.464-.11-.081-.214-.174-.319-.267l-.33-.307-1.403-1.328-2.8-2.668-2.77-2.685-.679-.672-.33-.331-.348-.365a12.038 12.038 0 0 0-1.612-1.357c-2.313-1.618-5.049-2.355-7.733-2.552a16.205 16.205 0 0 0-2.034-.017m1.884-5.144l-21.101.209a.65.65 0 0 0-.644.644c0 .36.285.655.644.66 0 0 24.208.233 25.506.279 1.42.058 2.84.186 4.14.528.631.156 1.176.4 1.756.76a9.96 9.96 0 0 1 1.6 1.188c.997.893 1.826 1.995 2.556 3.178.725 1.183 1.35 2.482 1.93 3.775.702 1.583 1.867 2.818 3.16 3.781 2.62 1.914 5.86 2.731 8.95 2.749 2.864.11 5.82.26 8.719.423 2.91.168 5.826.36 8.707.62.718.064 1.432.14 2.145.227l1.026.139 1.008.191a21.26 21.26 0 0 1 3.896 1.235c2.51 1.067 4.805 2.627 6.794 4.518 1.988 1.896 3.669 4.117 5.055 6.53 1.385 2.412 2.452 5.01 3.275 7.689.406 1.357.73 2.679 1.043 4.111l.997 4.303 2.012 8.554 1.02 4.297.052.191c.238 1.253.464 2.813.539 4.489v8.373s0 .012-.005.018c.017 1.565.214 5.138 1.646 6.686.284.255.568.499.869.736 2.626 2.134 5.745 3.526 8.841 4.402 2.359.667 4.73 1.073 7.084 1.34h.023c.742.08 1.484.156 2.22.214H151.218l3.727.342a2.194 2.194 0 0 0 2.093-1.096c.458-.8.887-1.612 1.287-2.43a1.015 1.015 0 0 0-.835-1.455l-6.023-.43c-.029 0-.064-.011-.093-.011h-.005c-.331-.017-.667-.04-.998-.064l-.127-.011c-2.498-.186-4.951-.51-7.275-1.108-2.678-.684-5.165-1.751-7.24-3.358-1.357-1.026-2.528-2.29-3.548-3.711-.893-1.52-.91-2.94-.91-2.987v-9.423c.029-.487.092-1.177.255-2.099.191-.83.371-1.664.539-2.494 0-.017.006-.034.011-.052.047-.18.07-.33.087-.464.053-.272.111-.55.163-.823a4.363 4.363 0 0 0-.07-1.879l-1.733-6.686-1.084-4.228c-.342-1.42-.742-2.934-1.217-4.372-.963-2.894-2.197-5.712-3.786-8.35-1.588-2.633-3.524-5.08-5.826-7.174-2.295-2.093-4.956-3.81-7.86-4.97a24.27 24.27 0 0 0-4.487-1.31l-1.154-.192-1.153-.133a96.473 96.473 0 0 0-2.226-.186c-2.95-.203-5.884-.324-8.817-.429a487.657 487.657 0 0 0-8.823-.232 14.514 14.514 0 0 1-4.023-.475 11.53 11.53 0 0 1-3.6-1.635c-1.067-.748-1.983-1.711-2.493-2.807-.65-1.363-1.327-2.69-2.156-3.99-1.647-2.563-3.971-4.999-7.235-5.868-1.547-.36-3.06-.453-4.562-.482h-1.038c-1.13 0-2.243.018-3.414.035m.4-5.045L42.642.22a.674.674 0 0 0 0 1.352l13.327.162 6.643.087c2.076.058 4.099.661 5.89 1.705 1.785 1.044 3.356 2.493 4.614 4.158.313.411.609.846.858 1.27v.005l.719 1.427c.516 1.003 1.055 2.024 1.722 3.01.666.985 1.484 1.965 2.573 2.72 1.079.765 2.406 1.194 3.67 1.322.319.029.632.046.945.052l.835.011 1.663.018 3.328.04 13.309.163a27.265 27.265 0 0 1 12.18 2.928c3.75 1.885 7.026 4.657 9.692 7.922 2.29 2.795 4.122 5.973 5.536 9.319.406.956.725 1.942.968 2.951l1.96 8.014c.22 1.143.446 2.86.446 5.074l.029-.063.081 13.43s-.064 1.589-.354 2.952c-.011.046-.029.098-.04.15a52.84 52.84 0 0 1-.319 1.038 1.067 1.067 0 0 0-.075.244c0 .012 0 .017-.006.03a3.39 3.39 0 0 0 .301 2.678v.012c.812 1.397 1.786 2.754 2.98 3.955a16.593 16.593 0 0 0 4.069 3.015c1.49.783 3.055 1.34 4.597 1.74 1.832.464 3.647.754 5.438.957.011 0 .023 0 .035.005 1.455.21 5.35.464 8.817.662a1.447 1.447 0 0 0 1.443-.946c.348-.968.655-1.925.939-2.864a.899.899 0 0 0-.823-1.16c-3.246-.14-6.655-.284-7.206-.308-2.597-.139-5.147-.365-7.507-.91-2.585-.603-4.869-1.653-6.631-3.387-1.09-1.043-2-2.325-2.783-3.74a7.607 7.607 0 0 0-.162-.301 28.654 28.654 0 0 1-.927-1.955c-.685-1.879-.876-3.711-.876-3.711l-.075-12.66c0-.457 0-.91-.006-1.35l-.012-1.554-.017-.024c-.151-6.523-.788-10.763-1.177-12.792-.023-.186-.04-.371-.063-.551a10.576 10.576 0 0 0-.505-2.024l-.011-.058h-.012c-.174-.47-.371-.928-.614-1.368-1.328-2.413-2.882-4.703-4.69-6.803-3.032-3.537-6.759-6.547-11.008-8.553a30.475 30.475 0 0 0-13.577-2.934l-13.344.162-3.334.04-1.669.018-.829.011c-.243 0-.481 0-.719-.023-.945-.075-1.803-.336-2.556-.84-.76-.493-1.42-1.224-2.017-2.06-.598-.834-1.13-1.774-1.647-2.73l-.388-.725-.197-.377-.099-.192-.07-.127-.063-.105a15.3 15.3 0 0 0-1.038-1.46c-1.466-1.84-3.258-3.428-5.339-4.576A14.978 14.978 0 0 0 66.16.47 14.525 14.525 0 0 0 62.636 0l-6.684.07.017-.012z" fill="#fff"/></mask><g mask="url(#a)"><path d="M68.078-81.209L-95.285 113.55 96.698 274.7 260.062 79.942 68.078-81.208z" fill="currentColor"/></g><path d="M188.411 105.141c-.313 0-.522-.209-.522-.522v-30.88c0-.208-.104-.312-.313-.312h-5.872c-.313 0-.522-.21-.522-.522v-2.882c0-.313.209-.522.522-.522h16.614c.313 0 .521.209.521.522v2.882c0 .313-.208.522-.521.522h-5.873c-.208 0-.313.104-.313.313v30.879c0 .313-.208.522-.521.522h-3.2z" fill="currentColor"/><path d="M202.822 70.017c0-.313.209-.522.522-.522h3.199c.313 0 .522.209.522.522V84.59c0 .208.105.313.313.313h7.652c.209 0 .313-.105.313-.313V70.017c0-.313.209-.522.522-.522h3.2c.313 0 .521.209.521.522v34.602c0 .313-.208.522-.521.522h-3.2c-.313 0-.522-.209-.522-.522V89.153c0-.208-.104-.313-.313-.313h-7.652c-.208 0-.313.105-.313.313v15.466c0 .313-.209.522-.522.522h-3.199c-.313 0-.522-.209-.522-.522V70.017z" fill="currentColor"/><path d="M225.882 70.017c0-.313.209-.522.522-.522h13.472c.313 0 .521.209.521.522v2.882c0 .313-.208.522-.521.522h-9.432c-.209 0-.313.104-.313.313V84.85c0 .208.104.313.313.313h8.174c.313 0 .521.208.521.522v2.882c0 .313-.208.522-.521.522h-8.174c-.209 0-.313.104-.313.313v11.482c0 .208.104.313.313.313h9.432c.313 0 .521.209.521.522v2.882c0 .313-.208.522-.521.522h-13.472c-.313 0-.522-.209-.522-.522V69.999v.018z" fill="currentColor"/><path d="M200.202 148.349c-.313 0-.47-.209-.522-.522l-4.139-25.376h-.104l-4.296 25.376c-.052.313-.209.522-.522.522h-2.776c-.313 0-.47-.209-.522-.522l-5.658-34.602c-.052-.313.052-.522.418-.522h3.199c.313 0 .522.156.574.522l3.461 25.585h.104l4.348-25.585c.052-.366.209-.522.522-.522h2.307c.313 0 .469.156.522.522l4.347 25.585h.105l3.565-25.585c.052-.366.261-.522.574-.522h3.089c.366 0 .47.209.418.522l-5.658 34.602c-.052.313-.209.522-.522.522h-2.834z" fill="currentColor"/><path d="M213.674 113.219c0-.313.208-.522.521-.522h3.2c.313 0 .522.209.522.522v34.603c0 .313-.209.522-.522.522h-3.2c-.313 0-.521-.209-.521-.522v-34.603z" fill="currentColor"/><path d="M224.207 113.219c0-.313.208-.522.521-.522h3.2c.313 0 .522.209.522.522v30.88c0 .208.104.313.313.313h9.327c.313 0 .522.209.522.522v2.882c0 .313-.209.522-.522.522h-13.362c-.313 0-.521-.209-.521-.522v-34.603.006z" fill="currentColor"/><path d="M242.971 113.219c0-.313.209-.522.522-.522h7.391c4.51 0 7.078 1.885 8.226 5.556.626 1.942.84 4.297.84 12.27 0 7.974-.208 10.328-.84 12.271-1.154 3.671-3.722 5.555-8.226 5.555h-7.391c-.313 0-.522-.208-.522-.522v-34.608zm4.562 31.193h2.934c2.411 0 3.773-.945 4.51-3.039.469-1.467.684-3.41.684-10.85 0-7.44-.209-9.382-.684-10.85-.737-2.099-2.099-3.038-4.51-3.038h-2.934c-.208 0-.313.104-.313.313v27.156c0 .209.105.314.313.314v-.006z" fill="currentColor"/><path d="M265.666 113.219c0-.313.209-.522.522-.522h13.472c.313 0 .521.209.521.522v2.882c0 .313-.208.522-.521.522h-9.432c-.209 0-.313.105-.313.313v11.117c0 .209.104.313.313.313h8.174c.313 0 .521.209.521.522v2.882c0 .313-.208.522-.521.522h-8.174c-.209 0-.313.104-.313.313v11.482c0 .209.104.313.313.313h9.432c.313 0 .521.209.521.522v2.882c0 .313-.208.522-.521.522h-13.472c-.313 0-.522-.209-.522-.522v-34.602.017z" fill="currentColor"/><path d="M298.105 148.349c-.313 0-.469-.104-.573-.365l-4.452-14.892c-.47.052-.998.052-1.467.052h-2.151c-.208 0-.313.105-.313.314v14.364c0 .313-.208.522-.521.522h-3.2c-.313 0-.522-.209-.522-.522v-34.603c0-.313.209-.522.522-.522h6.237c6.29 0 9.646 2.726 9.646 10.276 0 4.773-1.571 7.655-4.348 9.07l4.98 15.779c.104.261 0 .522-.261.522h-3.565l-.012.005zm-1.049-25.376c0-4.825-1.571-6.344-5.345-6.344h-2.254c-.209 0-.314.104-.314.313v12.056c0 .209.105.313.314.313h2.254c3.67 0 5.345-1.467 5.345-6.344v.006z" fill="currentColor"/><path d="M306.963 113.219c0-.313.209-.522.522-.522h3.93c.417 0 .684.157.788.522l7.965 26.739h.209v-26.739c0-.313.209-.522.522-.522h2.776c.313 0 .522.209.522.522v34.603c0 .313-.209.522-.522.522h-3.721c-.418 0-.684-.157-.789-.522l-8.121-26.739h-.261v26.739c0 .313-.209.522-.522.522h-2.776c-.313 0-.522-.209-.522-.522v-34.603z" fill="currentColor"/><path d="M330.493 113.219c0-.313.208-.522.521-.522h13.472c.313 0 .522.209.522.522v2.882c0 .313-.209.522-.522.522h-9.431c-.209 0-.313.105-.313.313v11.117c0 .209.104.313.313.313h8.173c.313 0 .522.209.522.522v2.882c0 .313-.209.522-.522.522h-8.173c-.209 0-.313.104-.313.313v11.482c0 .209.104.313.313.313h9.431c.313 0 .522.209.522.522v2.882c0 .313-.209.522-.522.522h-13.472c-.313 0-.521-.209-.521-.522v-34.602.017z" fill="currentColor"/><path d="M356.857 148.819c-5.397 0-8.122-3.039-8.388-9.174 0-.313.104-.522.417-.574l3.09-.574c.365-.052.574.156.574.47.209 4.401 1.623 5.978 4.348 5.978 2.724 0 3.982-1.31 3.982-6.135 0-4.088-.788-5.608-3.617-6.709l-2.151-.841c-4.875-1.885-6.237-4.297-6.237-9.806 0-6.083 2.62-9.226 7.965-9.226 5.344 0 7.808 2.934 8.069 8.495 0 .313-.157.522-.47.574l-2.933.47c-.313.104-.574-.105-.574-.418-.104-3.514-1.258-5.242-3.982-5.242-2.725 0-3.878 1.572-3.878 5.19 0 3.619.84 4.929 3.721 6.031l2.151.841c4.562 1.832 6.185 4.193 6.185 10.119 0 7.185-2.255 10.537-8.278 10.537l.006-.006z" fill="currentColor"/><path d="M377.401 148.819c-5.397 0-8.121-3.039-8.388-9.174 0-.313.104-.522.417-.574l3.09-.574c.365-.052.574.156.574.47.209 4.401 1.623 5.978 4.348 5.978 2.724 0 3.982-1.31 3.982-6.135 0-4.088-.788-5.608-3.617-6.709l-2.151-.841c-4.875-1.885-6.237-4.297-6.237-9.806 0-6.083 2.62-9.226 7.965-9.226 5.344 0 7.808 2.934 8.069 8.495 0 .313-.156.522-.47.574l-2.933.47c-.313.104-.574-.105-.574-.418-.104-3.514-1.258-5.242-3.982-5.242-2.725 0-3.878 1.572-3.878 5.19 0 3.619.84 4.929 3.721 6.031l2.151.841c4.562 1.832 6.185 4.193 6.185 10.119 0 7.185-2.255 10.537-8.278 10.537l.006-.006z" fill="currentColor"/><path d="M184.011 191.552c-.313 0-.522-.209-.522-.522v-34.603c0-.313.209-.522.522-.522h6.237c6.29 0 9.646 2.83 9.646 10.694 0 7.863-3.408 10.693-9.646 10.693h-2.202c-.209 0-.313.104-.313.313v13.419c0 .313-.209.522-.522.522h-3.2v.006zm11.634-24.953c0-5.034-1.518-6.762-5.397-6.762h-2.202c-.209 0-.313.104-.313.313v12.897c0 .209.104.313.313.313h2.202c3.879 0 5.397-1.676 5.397-6.761z" fill="currentColor"/><path d="M218.021 191.551c-.313 0-.469-.104-.574-.365l-4.452-14.892c-.469.053-.997.053-1.466.053h-2.151c-.209 0-.313.104-.313.313v14.364c0 .313-.209.522-.522.522h-3.2c-.313 0-.521-.209-.521-.522v-34.603c0-.313.208-.522.521-.522h6.238c6.29 0 9.646 2.726 9.646 10.276 0 4.773-1.571 7.655-4.348 9.07l4.98 15.779c.104.261 0 .522-.261.522h-3.565l-.012.005zm-1.049-25.376c0-4.825-1.571-6.344-5.345-6.344h-2.255c-.208 0-.313.105-.313.313V172.2c0 .209.105.313.313.313h2.255c3.67 0 5.345-1.467 5.345-6.344v.006z" fill="currentColor"/><path d="M226.983 186.727c-.521-1.572-.684-2.882-.684-13.001 0-10.12.157-11.43.684-13.002 1.102-3.409 3.774-5.294 7.809-5.294 4.034 0 6.759 1.885 7.808 5.294.522 1.572.684 2.882.684 13.002 0 10.119-.156 11.429-.684 13.001-1.049 3.41-3.774 5.294-7.808 5.294-4.035 0-6.707-1.884-7.809-5.294zm11.583-1.206c.313-1.05.417-1.833.417-11.795 0-9.963-.104-10.746-.417-11.795-.522-1.624-1.884-2.517-3.774-2.517-1.89 0-3.194.893-3.722 2.517-.365 1.049-.469 1.832-.469 11.795 0 9.962.104 10.745.469 11.795.522 1.623 1.832 2.517 3.722 2.517s3.252-.894 3.774-2.517z" fill="currentColor"/><path d="M246.38 189.139l2.098-2.047c.209-.209.522-.261.841 0 .684.574 1.518.945 2.463.945 2.412 0 3.826-1.31 3.826-4.616v-27c0-.313.209-.522.522-.522h3.194c.313 0 .522.209.522.522v26.687c0 6.135-3.246 8.913-8.122 8.913-2.255 0-4.243-.788-5.396-2.151-.209-.261-.209-.522.052-.737v.006z" fill="currentColor"/><path d="M266.083 156.427c0-.313.209-.522.522-.522h13.472c.313 0 .522.209.522.522v2.882c0 .313-.209.522-.522.522h-9.432c-.208 0-.313.105-.313.313v11.117c0 .209.105.313.313.313h8.174c.313 0 .522.209.522.522v2.882c0 .313-.209.522-.522.522h-8.174c-.208 0-.313.104-.313.313v11.482c0 .209.105.313.313.313h9.432c.313 0 .522.209.522.522v2.882c0 .313-.209.522-.522.522h-13.472c-.313 0-.522-.209-.522-.522V156.41v.017z" fill="currentColor"/><path d="M284.744 173.726c0-10.12.156-11.587.631-13.054 1.102-3.357 3.618-5.242 7.652-5.242 4.667 0 7.496 2.517 7.965 7.968.052.365-.104.574-.417.632l-2.985.574c-.314.052-.574-.104-.574-.418-.261-3.195-1.467-4.772-3.931-4.772-1.884 0-3.037.788-3.565 2.464-.313.998-.469 1.995-.469 11.848 0 9.852.156 10.85.469 11.847.522 1.676 1.676 2.465 3.565 2.465 2.464 0 3.67-1.572 3.931-4.773 0-.313.26-.47.574-.418l2.985.575c.313.052.469.261.417.626-.469 5.451-3.304 7.968-7.965 7.968-4.034 0-6.55-1.885-7.652-5.243-.469-1.467-.631-2.934-.631-13.053v.006z" fill="currentColor"/><path d="M310.841 191.552c-.313 0-.521-.209-.521-.522v-30.88c0-.209-.105-.313-.314-.313h-5.872c-.313 0-.521-.209-.521-.522v-2.882c0-.313.208-.522.521-.522h16.614c.313 0 .522.209.522.522v2.882c0 .313-.209.522-.522.522h-5.872c-.209 0-.313.104-.313.313v30.88c0 .313-.209.522-.522.522h-3.2z" fill="currentColor"/></svg>