<svg width="225" height="225" fill="none" xmlns="http://www.w3.org/2000/svg"><g clip-path="url(#clip0_7464_1754)"><path d="M162.584 193.553c.222-.378.439-.756.648-1.121a.5.5 0 0 0-.466-.75l-.621.041c-.385.013-.763.034-1.141.034l-1.141-.014c-1.519-.061-3.032-.189-4.524-.466a31.411 31.411 0 0 1-4.375-1.148 31.692 31.692 0 0 1-4.132-1.824 30.018 30.018 0 0 1-3.828-2.418 36.755 36.755 0 0 1-3.491-2.904 48.496 48.496 0 0 1-5.989-6.916c-3.585-4.985-6.387-10.564-8.669-16.325a103.946 103.946 0 0 1-3.045-8.801 101.985 101.985 0 0 1-1.762-6.747l-.243-1.128a12.802 12.802 0 0 1-.075-.365.927.927 0 0 0-1.181-.709l-2.829.844a1.02 1.02 0 0 0-.702 1.202l.013.075.29 1.195c.196.79.405 1.581.622 2.364.432 1.567.904 3.121 1.404 4.661a106.855 106.855 0 0 0 3.403 9.104c2.565 5.957 5.685 11.725 9.675 16.94 1.985 2.607 4.22 5.052 6.705 7.24a39.04 39.04 0 0 0 3.936 3.039 33.79 33.79 0 0 0 4.314 2.506 33.817 33.817 0 0 0 4.639 1.851c1.593.486 3.22.851 4.868 1.094 1.64.25 3.301.331 4.955.331l1.236-.027h.115a1.712 1.712 0 0 0 1.397-.851" fill="#000"/><path d="M108.806 214.39a.792.792 0 0 0-.641.979c.222.959.479 1.878.756 2.817.277.932.587 1.857.918 2.782.155.419.317.838.486 1.257.236.587.709 1.06 1.31 1.269.783.277 1.573.527 2.377.764a.427.427 0 0 0 .459-.669c-.824-1.081-1.573-2.297-2.269-3.546a45.707 45.707 0 0 1-1.269-2.499 46.74 46.74 0 0 1-1.128-2.56v-.02a.955.955 0 0 0-.857-.581c-.047 0-.095 0-.142.013m85.518-23.376l-.021.014a48.19 48.19 0 0 1-2.7 1.351c-.912.425-1.837.824-2.768 1.188a31.579 31.579 0 0 1-3.214 1.068 1.214 1.214 0 0 0-.831 1.56l.331.979a1.18 1.18 0 0 0 1.593.696 37.368 37.368 0 0 0 3.363-1.743 55.984 55.984 0 0 0 2.68-1.688 57.182 57.182 0 0 0 2.525-1.804c.392-.297.541-.857.277-1.276a.936.936 0 0 0-1.242-.331m-56.08 8.071c.108.973.668 3.316 3.396 4.87a44.947 44.947 0 0 0 4.044 1.79c2.168.824 4.477 1.479 6.894 1.83l.196.02a2.793 2.793 0 0 0 2.626-1.202c.561-.817 1.161-1.695 1.161-1.695a127.81 127.81 0 0 0 1.601-2.472 1.164 1.164 0 0 0-1.06-1.783l-3.586.229c-10.073.365-12.652-3.046-13.22-4.14l-.141-.324c-.871-2.067-1.54-4.553-1.857-5.599l-.601-.196.554 8.686-.007-.014zm-33.09-9.01c-.439.209-.649.723-.534 1.195.912 3.722 1.918 7.444 3.207 11.125 1.297 3.687 2.897 7.341 5.03 10.766 2.107 3.438 4.814 6.565 7.839 9.28a52.353 52.353 0 0 0 2.194 1.857c.682.541 1.56.764 2.424.656 2.154-.284 4.639-.75 6.32-1.088.635-.128.743-.979.162-1.27-2.653-1.317-5.172-2.789-7.555-4.511-2.904-2.108-5.543-4.566-7.751-7.444-2.228-2.863-4.078-6.085-5.678-9.469-1.607-3.391-2.978-6.93-4.261-10.516a1.014 1.014 0 0 0-.952-.676c-.142 0-.297.034-.439.102m93.451-12.448l-.013.013c-.513.534-1.013 1.067-1.533 1.581-.553.479-1.06.993-1.634 1.432-.567.439-1.121.891-1.721 1.263-.574.405-1.196.736-1.796 1.074-1.229.628-2.492 1.121-3.761 1.432-.317.074-.635.148-.945.195a9.237 9.237 0 0 1-.932.122 8.164 8.164 0 0 1-.898.041 4.14 4.14 0 0 1-.412-.014l-.263-.034s-.014 0 .013-.013h-.061l-.614-.081a1.306 1.306 0 0 0-1.458 1.479c.155 1.094.358 2.283.621 3.37a1.66 1.66 0 0 0 1.863 1.236c.149-.013.257-.04.385-.061.257-.04.486-.094.716-.141.466-.109.905-.23 1.337-.379.432-.142.85-.29 1.256-.466.411-.162.81-.351 1.195-.547 1.559-.777 2.97-1.749 4.246-2.816.622-.554 1.243-1.101 1.796-1.709.581-.574 1.087-1.216 1.601-1.837.513-.622.945-1.297 1.411-1.939.425-.668.83-1.351 1.235-2.019a1.018 1.018 0 0 0-.256-1.344.974.974 0 0 0-.581-.189c-.29 0-.587.121-.803.344m4.976-11.225l-.061.04c-.79.554-1.526 1.148-2.323 1.648-.817.473-1.58 1.007-2.43 1.378l-1.236.601-1.276.493c-.412.176-.851.304-1.283.426-.432.115-.844.277-1.283.358-1.715.432-3.463.594-5.151.587-.844 0-1.681-.074-2.485-.175h-.013a1.306 1.306 0 0 0-1.486.891l-1.519 4.742c-.324 1.02.486 2.066 1.546 1.972h.007c.594-.041 1.161-.135 1.728-.216 1.121-.203 2.215-.446 3.275-.777 2.113-.655 4.125-1.513 5.955-2.621.473-.249.898-.58 1.344-.864.438-.291.877-.581 1.282-.919l1.229-.972c.392-.345.763-.709 1.141-1.061.777-.675 1.418-1.486 2.1-2.229.655-.77 1.229-1.6 1.837-2.391a.65.65 0 0 0 .013-.77.657.657 0 0 0-.527-.276.626.626 0 0 0-.371.121m-89.866-8.395a.772.772 0 0 0-.621.905c1.249 6.801 3.005 13.555 5.604 20.093 1.31 3.263 2.836 6.478 4.713 9.551 1.796 2.924 3.916 5.734 6.563 8.199v.014l.033.02c.122.108.237.223.358.338.068.061.149.128.223.182.088.061.169.129.277.216 1.242 1.108 3.389 3.485 3.835 7.403l.547 5.045s0 .061.006.088l.453 4.519a4.506 4.506 0 0 0 3.301 3.863c.973.263 2.62.601 3.565.783a1.46 1.46 0 0 0 1.283-.364c.304-.284.669-.615.905-.838.155-.148.304-.297.459-.439.331-.324.668-.648.999-.972l.507-.507c.351-.351.695-.709 1.039-1.067a3.93 3.93 0 0 1 .169-.176c.709-.743.257-1.979-.77-2.094l-2.275-.243c-2.032-.263-4.037-.655-5.975-1.229-1.877-.567-2.39-2.053-2.525-2.823l-.054-.48-.959-8.854c-.581-5.37-3.335-7.95-3.335-7.95-1.736-1.533-3.336-3.323-4.794-5.241-1.978-2.607-3.714-5.464-5.267-8.443-3.099-5.964-5.482-12.38-7.379-18.939a.779.779 0 0 0-.743-.567c-.047 0-.094 0-.142.013m92.952-4.187l-.021.013c-.553.493-1.093.993-1.64 1.466-.588.439-1.128.912-1.735 1.304-.601.398-1.182.803-1.81 1.128-.601.364-1.242.641-1.87.938-1.269.534-2.566.939-3.855 1.149-.325.054-.642.108-.959.121-.318.041-.628.047-.939.054-3.024.243-4.807 2.749-5.698 4.519-.399.79.209 1.722 1.094 1.688 1.978-.074 3.355-.344 3.355-.344.257-.02.486-.054.723-.088.472-.074.918-.162 1.357-.277.439-.108.871-.23 1.289-.371.426-.129.831-.291 1.236-.46 1.614-.662 3.086-1.526 4.443-2.492.661-.507 1.323-1.006 1.917-1.567.621-.534 1.175-1.128 1.735-1.709.561-.581 1.04-1.229 1.553-1.83.48-.635.925-1.29 1.384-1.925.297-.412.25-1-.162-1.364a.952.952 0 0 0-.641-.237c-.27 0-.54.102-.75.284m-96.334-9.584a49.487 49.487 0 0 0-.087 2.235c-.014.743 0 1.493.02 2.243.054 1.499.175 3.019.527 4.579a.972.972 0 0 0 .06.203c.25.675.898.959 1.445.635.547-.318.79-1.128.54-1.804-.432-1.162-.736-2.512-.965-3.883a34.371 34.371 0 0 1-.284-2.094 45.298 45.298 0 0 1-.189-2.114v-.014c-.02-.317-.223-.581-.493-.601h-.033c-.277 0-.514.27-.541.615zm37.864-9.706v10.726s0 2.708 1.769 4.68a34.437 34.437 0 0 0 11.552 7.376c3.788 1.465 7.792 2.222 11.782 2.438h.162l2.964.142a1.577 1.577 0 0 0 1.621-1.256c.243-1.182.452-2.351.628-3.506a1.172 1.172 0 0 0-1.162-1.344h-2.37-.02c-3.983.041-7.933-.52-11.613-1.844a28.89 28.89 0 0 1-9.952-6.079 31.193 31.193 0 0 1-2.883-3.086c-1.006-1.338-1.614-7.004-1.971-8.321a.25.25 0 0 0-.25-.196.26.26 0 0 0-.264.263m-57.754-27.942c-.27.142-.533.277-.79.405a.856.856 0 0 0-.101 1.48c.148.101.297.202.439.304a21.298 21.298 0 0 1 3.794 3.606c1.12 1.351 2.066 2.857 2.883 4.438.203.398.405.79.587 1.202.19.405.372.811.534 1.229.365.831.614 1.628.884 2.486.98 3.431 1.513 7.125 1.972 10.82.452 3.708.79 7.457 1.141 11.212.695 7.517 1.404 15.089 2.586 22.653 1.188 7.552 2.788 15.136 5.496 22.492 1.357 3.674 2.998 7.288 5.05 10.725a53.273 53.273 0 0 0 3.403 4.992 44.13 44.13 0 0 0 4.105 4.532 37.954 37.954 0 0 0 8.548 6.133.738.738 0 0 0 1.08-.73l-.493-4.559a4.537 4.537 0 0 0-1.917-3.215c-1-.709-1.965-1.472-2.89-2.296-5.158-4.607-8.865-10.902-11.573-17.622-2.714-6.754-4.489-13.974-5.853-21.289-1.364-7.328-2.296-14.778-3.207-22.275-.466-3.749-.919-7.511-1.493-11.287-.587-3.775-1.228-7.571-2.437-11.374-.317-.938-.675-1.931-1.094-2.816a24.968 24.968 0 0 0-.634-1.344 27.644 27.644 0 0 0-.696-1.324c-.965-1.743-2.208-3.323-3.423-4.937-1.087-1.439-2.687-2.729-3.74-3.499a2.003 2.003 0 0 0-2.14-.142m7.116-5.498c-.257.271-.513.527-.77.777a1.823 1.823 0 0 0-.398 2.06c.391.871.79 1.736 1.201 2.607a83.98 83.98 0 0 0 1.35 2.715 26.957 26.957 0 0 0 1.641 2.756 19.14 19.14 0 0 0 2.093 2.553c.784.79 1.648 1.513 2.512 2.134.864.622 1.702 1.155 2.377 1.682.682.527 1.195 1.04 1.613 1.662.844 1.243 1.31 2.911 1.648 4.768.371 1.952.749 3.911 1.154 5.87.432 2.093.892 4.18 1.378 6.267a1.28 1.28 0 0 0 1.586.946l1.999-.54a1.281 1.281 0 0 0 .905-1.567 226.684 226.684 0 0 1-1.513-6.066 308.393 308.393 0 0 1-1.296-5.768c-.432-2.006-1.033-4.261-2.478-6.288-.716-1.006-1.654-1.871-2.566-2.526-.911-.662-1.769-1.161-2.518-1.682-1.506-1.013-2.728-2.174-3.788-3.64a24.065 24.065 0 0 1-1.465-2.31 93.251 93.251 0 0 1-1.364-2.573 163.646 163.646 0 0 1-1.769-3.6.92.92 0 0 0-.844-.527.946.946 0 0 0-.682.29m-59.246-3.08a.812.812 0 0 0-.21 1.162c.358.48.69.831 1.06 1.202.365.365.757.696 1.155 1.02.803.642 1.66 1.209 2.566 1.709a22.515 22.515 0 0 0 5.759 2.188c4.024.939 9.992.926 14.017.372 1.005-.149 2.018-.318 2.957-.473.959-.148 1.917-.29 2.876-.392a51.692 51.692 0 0 1 5.76-.344c2.335 0 4.658.189 6.906.635.919-.007 2.39-.142 4.22-.703.23-.081.635-.277.635-.648 0-.311-.135-.486-.385-.561-3.727-1.141-7.623-1.513-11.417-1.404-2.04.06-4.065.249-6.07.533-1 .135-1.999.311-2.984.493l-2.883.547c-3.775.628-9.446.743-13.153-.013a20.35 20.35 0 0 1-5.293-1.837 16.702 16.702 0 0 1-2.343-1.466 13.294 13.294 0 0 1-1.047-.871 8.578 8.578 0 0 1-.884-.932l-.04-.048a.883.883 0 0 0-.696-.33.876.876 0 0 0-.506.155m65.242-4.87c-.203.33-.398.655-.601.966a1.441 1.441 0 0 0 .243 1.844 20.528 20.528 0 0 0 2.795 2.134c1.884 1.236 3.984 2.067 5.604 2.938 1.634.871 2.64 1.898 3.369 3.492.365.777.655 1.648.885 2.567.236.925.445 1.931.655 2.924.405 1.999.783 4.032 1.175 6.065.776 4.073 1.586 8.159 2.518 12.232 1.87 8.139 4.179 16.251 7.494 24.079 1.661 3.91 3.586 7.747 5.901 11.401a57.411 57.411 0 0 0 2.526 3.654v.02s1.688 1.938 2.167 6.302l.189 1.735c.02.21.115.406.263.561l.149.155a.539.539 0 0 0 .925-.432l-.655-6.011c-.115-1.081-.311-2.871-.588-5.424-.351-3.242-1.033-4.815-1.397-5.45a4.94 4.94 0 0 1-.196-.311c-.027-.04-.047-.061-.047-.061a77.237 77.237 0 0 1-4.362-8.28c-3.328-7.329-5.786-15.123-7.818-23.039-1.02-3.964-1.918-7.97-2.796-12.002-.438-2.019-.871-4.039-1.343-6.085-.243-1.027-.48-2.04-.783-3.107a17.795 17.795 0 0 0-1.229-3.256c-.534-1.074-1.256-2.148-2.181-3.046-.918-.912-1.992-1.587-3.011-2.107-2.046-1.02-3.842-1.669-5.449-2.668a17.943 17.943 0 0 1-2.755-2.053 1.062 1.062 0 0 0-.715-.277c-.372 0-.73.189-.939.533m-75.754-4.694c-.257.351-.129.817.276 1.04 2.012 1.08 4.031 1.79 6.158 2.398 2.113.608 4.274 1.026 6.455 1.35 4.368.595 12.754.744 17.156.474 1.107-.034 2.194-.176 3.288-.277 1.107-.102 2.167-.23 3.227-.311a52.66 52.66 0 0 1 6.354-.176c2.1.088 4.179.338 6.15.824 1.965.487 3.815 1.216 5.388 2.209.048.034.102.06.156.088.817.405 1.856.162 2.322-.54.466-.703.19-1.601-.628-2.007-2.086-1.033-4.328-1.702-6.576-2.107-2.255-.425-4.524-.54-6.765-.534-2.242 0-4.463.163-6.65.433-1.101.128-2.188.304-3.235.412-1.06.115-2.12.277-3.187.33-4.26.345-12.51.318-16.73-.256-2.1-.304-4.2-.675-6.205-1.276a38.944 38.944 0 0 1-2.957-.993c-.946-.372-1.918-.81-2.708-1.27l-.06-.034-.028-.013a1.005 1.005 0 0 0-.459-.115.935.935 0 0 0-.742.351zm74.39-4.025c-.277.31-.25.79.061 1.067a55.657 55.657 0 0 0 3.025 2.505 49.977 49.977 0 0 0 3.2 2.297c1.107.723 2.242 1.425 3.464 2.02 1.222.6 2.505 1.148 3.956 1.485a1.647 1.647 0 0 0 2.006-1.418 1.647 1.647 0 0 0-1.459-1.817c-1.08-.122-2.235-.446-3.369-.85-1.141-.406-2.275-.933-3.389-1.494a48.04 48.04 0 0 1-3.302-1.837 53.712 53.712 0 0 1-3.18-2.066h-.013a.706.706 0 0 0-.439-.15.77.77 0 0 0-.567.25m7.109-3.464c-.142.385-.29.77-.432 1.148-.257.662.128 1.392.817 1.58.344.095.682.183 1.026.264 2.1.527 4.166.946 5.868 1.682 1.714.73 2.943 1.81 3.787 3.384.419.77.756 1.654 1.006 2.56.25.918.453 1.945.642 2.965.371 2.053.695 4.16 1.026 6.267.655 4.222 1.33 8.47 2.127 12.705 1.586 8.47 3.612 16.933 6.684 25.146 1.539 4.1 3.369 8.132 5.604 11.995a58.582 58.582 0 0 0 1.722 2.756v.02s.02.027.06.068c.223.337.439.675.669 1.013.013.02.034.034.054.054.58 1.013 1.303 2.688 1.526 5.018l.702 7.47v.014l.148 1.567.034.047c.324 2.479.77 4.161 1.121 5.201.108.378.257.743.432 1.094a3.14 3.14 0 0 0 .155.304 6.17 6.17 0 0 0 1.736 1.911 35.08 35.08 0 0 0 7.319 4.08c3.504 1.438 7.258 2.256 11.012 2.519l.189.014c.688.047 1.384.081 2.072.087h.176l1.134.041a2.11 2.11 0 0 0 1.985-1.202c.601-1.27 1.182-2.547 1.736-3.816a1.16 1.16 0 0 0-1.067-1.615h-3.93-.02c-3.768.041-7.488-.547-10.965-1.864-3.484-1.31-6.704-3.343-9.56-5.883-.21-.182-.405-.378-.608-.567-1.769-1.83-2.086-4.107-2.086-4.107l-1.216-12.839c-.398-4.039-1.066-6.059-1.485-6.991a30.404 30.404 0 0 1-.385-.689c-1.323-2.404-2.869-5.437-3.497-7.551-2.377-7.983-5.314-15.886-7.083-24.16-.884-4.14-1.661-8.314-2.424-12.515-.385-2.1-.763-4.208-1.208-6.349-.23-1.074-.466-2.141-.804-3.276-.351-1.148-.796-2.262-1.424-3.35a11.055 11.055 0 0 0-2.445-2.945c-.992-.837-2.126-1.465-3.247-1.911-2.255-.891-4.423-1.236-6.468-1.709-.351-.074-.689-.155-1.033-.236a.99.99 0 0 0-1.162.615m-87.968-2.337c-.263.344-.149.803.256 1.026 8.217 4.532 19 5.336 28.25 3.519 4.503-.756 11.964-2.31 16.494-2.209 4.51.115 9.014.784 12.97 2.358 1.979.783 3.802 1.803 5.368 3.032.783.622 1.52 1.284 2.167 2.006.642.703 1.263 1.513 1.864 2.33 1.499 2.033 2.802 4.168 4.03 6.37.493.884 1.884 1.053 2.654.324.182-.176.365-.351.547-.534.418-.412.493-1 .203-1.479-1.304-2.168-2.715-4.323-4.328-6.383-.669-.85-1.344-1.688-2.161-2.532-.797-.838-1.695-1.601-2.64-2.31-1.897-1.412-4.064-2.547-6.347-3.384-4.577-1.682-9.492-2.27-14.286-2.276-4.814 0-12.437 1.695-17.055 2.58-1.182.223-2.7.445-3.822.608-1.114.168-2.234.29-3.362.371a42.073 42.073 0 0 1-6.779-.06 39.015 39.015 0 0 1-6.637-1.183c-1.08-.29-2.14-.635-3.166-1.026-1.02-.385-2.066-.845-2.937-1.33l-.068-.041a.986.986 0 0 0-.473-.122.94.94 0 0 0-.735.338m87.833-6.464c-.121.486-.25.966-.378 1.439-.128.48.149.966.641 1.128 1.277.418 3.788 1.168 6.556 1.567 2.195.317 4.301.783 6.003 1.52.844.364 1.566.823 2.154 1.39.29.284.553.602.783.94.114.168.223.35.331.533l.317.615c.81 1.702 1.404 3.633 1.951 5.585 1.074 3.924 1.958 7.99 2.944 12.036 1.938 8.105 4.206 16.203 7.069 24.133a191.52 191.52 0 0 0 2.248 5.917c.385.986.797 1.958 1.202 2.931.115.277.25.554.378.831v.02s.014.02.034.061c.331.716.675 1.432 1.046 2.127.028.047.055.088.075.135.891 2.141 1.978 5.681 1.978 10.294v10.138c.014.83.203 4.761 2.789 7.389.371.324.742.641 1.127.952.23.162.425.311.574.446 2.505 1.938 5.28 3.58 8.271 4.762 3.983 1.593 8.264 2.35 12.497 2.431l.804.007h2.376c.858 0 1.628-.541 1.904-1.351.392-1.148.757-2.29 1.101-3.424a1.258 1.258 0 0 0-1.202-1.628H171.3a4.058 4.058 0 0 0-.412-.02h-.013c-3.903.141-7.778-.372-11.377-1.709-3.605-1.317-6.914-3.445-9.81-6.133a38.678 38.678 0 0 1-1.188-1.175 3.831 3.831 0 0 0-.466-.473c-.257-.27-.5-.554-.743-.831-1.209-1.749-1.539-4.606-1.539-4.606v-10.516c0-10.064-1.83-14.164-1.83-14.164v-.013a202.627 202.627 0 0 1-1.6-3.952c-2.998-7.679-5.415-15.548-7.542-23.538-1.08-3.998-2.059-8.024-3.281-12.083-.628-2.033-1.297-4.08-2.336-6.14l-.426-.77a10.07 10.07 0 0 0-.52-.796 9.82 9.82 0 0 0-1.296-1.473c-.972-.912-2.154-1.594-3.335-2.067-2.384-.952-4.693-1.25-6.874-1.627-2.181-.359-4.267-.737-6.252-1.345a1.508 1.508 0 0 1-.162-.054.978.978 0 0 0-.277-.04c-.378 0-.722.236-.817.601m67.349-3.782a.49.49 0 0 0-.459.425c-.074.48-.101.925-.101 1.385 0 .46 0 .925.047 1.384.034.46.094.919.162 1.378.074.46.169.912.277 1.371a18.26 18.26 0 0 0 2.181 5.221 19.063 19.063 0 0 0 3.747 4.39c.857.723 1.776 1.264 2.694 1.71.918.438 1.85.776 2.782 1.053 3.72 1.074 7.426 1.337 11.099 1.283a50.178 50.178 0 0 0 5.78-.486 1.338 1.338 0 0 0 1.141-1.432l-.236-3.04a1.337 1.337 0 0 0-1.533-1.215 57.57 57.57 0 0 1-5.388.588 47.87 47.87 0 0 1-4.915.094c-1.627-.047-3.228-.21-4.747-.513-1.505-.304-2.964-.77-4.01-1.466a19.231 19.231 0 0 1-3.498-3.093 19.927 19.927 0 0 1-2.721-3.978 23.73 23.73 0 0 1-1.033-2.263c-.148-.392-.297-.784-.425-1.189-.128-.398-.25-.817-.344-1.202v-.034a.5.5 0 0 0-.48-.371h-.013M18.292 67.108c-.21.365.398.81.79 1.007 2.086 1.026 4.193 1.776 6.38 2.431a50.766 50.766 0 0 0 6.678 1.486c2.262.345 5.246.54 7.548.574a53.767 53.767 0 0 0 3.457-.074l5.847-.56c4.49-.304 11.971-1.014 16.373-1.203 2.201-.088 4.375-.067 6.489.19 2.113.242 4.172.77 6.164 1.478 3.876 1.419 7.285 3.999 10.344 6.836 3.065 2.863 5.8 6.065 8.453 9.36l1.985 2.493v.007c.317.405.986.385 1.262-.047.331-.507.655-1.02.973-1.54.31-.514.25-1.149-.135-1.608l-1.148-1.364c-2.789-3.283-5.712-6.538-9.04-9.49-1.668-1.472-3.43-2.877-5.355-4.127-1.924-1.235-3.997-2.343-6.279-3.1-2.215-.736-4.537-1.263-6.887-1.479-2.35-.23-4.686-.189-6.974-.04-4.564.31-11.978 1.114-16.434 1.526l-5.807.642a48.07 48.07 0 0 1-3.28.148c-2.195.02-5.078-.114-7.26-.391a49.717 49.717 0 0 1-6.447-1.277c-2.1-.567-4.679-1.276-6.576-2.161l-.04-.02a.845.845 0 0 0-.365-.082.826.826 0 0 0-.716.392m88.488-6.045l-.121.088-.203.169-.162.203-.081.128c-.04.067-.047.108-.027.115l.081.087.156.176c.108.115.209.23.324.338.216.223.439.439.661.655.453.425.925.83 1.412 1.23a21.72 21.72 0 0 0 3.139 2.1c.56.297 1.134.567 1.722.824l.898.344c.31.108.634.216.945.297.635.162 1.263.297 1.884.399.614.094 1.222.175 1.809.257 1.182.148 2.296.29 3.336.533 1.039.243 1.991.588 2.856 1.108 1.735 1.02 3.072 2.83 4.233 4.876a.629.629 0 0 0 1.168-.412 12.17 12.17 0 0 0-1.215-3.634 9.617 9.617 0 0 0-2.586-3.127c-1.094-.87-2.397-1.445-3.666-1.817-1.277-.364-2.546-.54-3.741-.689-.601-.067-1.188-.128-1.755-.202a24.348 24.348 0 0 1-2.445-.392l-.81-.21-.81-.229c-.27-.074-.533-.175-.81-.257a24.817 24.817 0 0 1-3.187-1.29 22.377 22.377 0 0 1-2.275-1.283l-.365-.243-.175-.122-.088-.06s0-.007-.014-.007c-.02 0-.047.013-.094.047m-33.746-3.397c-1.195.121-2.41.412-3.456.635-.54.121-1.088.23-1.634.324-.547.101-1.094.21-1.641.29-4.395.73-14.645 1.054-19.134 1.149-4.49.094-10.661-.075-15.151-.433-4.484-.364-8.987-.898-13.39-1.688h-.02c-.323-.061-.64.135-.715.439-.074.31.135.621.466.689 4.476.918 8.966 1.56 13.496 2.04 3.849.398 10.06.75 15.32.77 4.571.006 14.922-.21 19.48-.852.573-.067 1.133-.169 1.707-.256.567-.088 1.135-.19 1.702-.297 1.168-.217 2.16-.426 3.227-.514 2.1-.189 4.2.04 6.144.696 1.938.682 3.727 1.756 5.32 3.1 1.607 1.33 3.039 2.898 4.41 4.539 1.377 1.641 2.68 3.377 4.111 5.1.716.857 1.472 1.722 2.31 2.546.823.81 1.721 1.56 2.633 2.303 1.323 1.08 3.585 2.296 5.043 3.026.743.371 1.661.06 1.965-.676.088-.216.175-.432.263-.655.236-.594-.054-1.256-.662-1.526-1.201-.54-3.153-1.5-4.543-2.614-.81-.649-1.641-1.284-2.404-2-.75-.695-1.459-1.465-2.167-2.269-1.405-1.607-2.769-3.33-4.247-5.005-1.472-1.675-3.059-3.33-4.895-4.782-1.817-1.459-3.943-2.688-6.28-3.438a17.31 17.31 0 0 0-5.178-.776c-.702 0-1.398.04-2.086.121m10.897-8.307h-.803l-65.924.398a.62.62 0 0 0-.615.608c0 .345.27.621.608.628l65.93.804.804.014c.277 0 .533.006.77.02.243 0 .486.02.722.054.243.02.48.054.716.101.952.162 1.87.446 2.748.851 1.755.81 3.322 2.074 4.753 3.532 2.856 2.939 5.226 6.525 7.913 9.943.655.844 1.391 1.756 2.181 2.566.79.824 1.641 1.601 2.545 2.31l.183.142c.715.547 1.762.182 2.005-.689.067-.236.128-.466.189-.702a1.201 1.201 0 0 0-.446-1.277 21.362 21.362 0 0 1-2.261-1.959c-.723-.709-1.358-1.459-2.033-2.29-2.694-3.255-5.151-6.828-8.352-9.989-1.607-1.56-3.457-3.012-5.63-3.95a13.569 13.569 0 0 0-3.41-.967 9.67 9.67 0 0 0-.878-.101 9.658 9.658 0 0 0-.878-.04h-.837m-11.35-8.612l-12.355.175-37.682.359a.608.608 0 0 0 .007 1.215H60.22l12.356-.013h1.094c.668 0 1.337 0 1.978.007 1 .026 1.978.1 2.93.27 1.884.337 3.72 1.1 4.619 2.512 0 0 0 .014.006.014.29.439.885.56 1.324.27a.951.951 0 0 0 .27-1.324c-.682-1.04-1.681-1.797-2.714-2.296-1.04-.507-2.127-.797-3.2-.98a21.687 21.687 0 0 0-3.215-.256h-.276c-.96 0-1.884.027-2.83.033m4.578-8.692l-12.524.196-33.806.391a.686.686 0 0 0-.682.69c0 .384.304.695.689.702l33.799.196 12.524.1c1.06 0 1.999.035 2.971.176a11.18 11.18 0 0 1 2.734.73c1.736.702 3.221 1.918 4.53 3.384 1.31 1.472 2.472 3.147 3.58 4.876 1.1 1.73 2.16 3.52 3.207 5.316 1.113 1.925 2.62 3.735 4.415 5.14.898.716 1.87 1.303 2.87 1.844 1.006.513 2.045.945 3.099 1.31 4.233 1.418 8.554 1.75 12.679 2.175 2.06.21 4.092.432 5.996.85 1.911.406 3.659 1.055 5.003 2.081a8.143 8.143 0 0 1 1.749 1.844c.499.723.938 1.547 1.33 2.418.77 1.763 1.391 3.688 1.958 5.653 1.127 3.945 2.127 8.017 3.193 12.063a453.547 453.547 0 0 0 8.96 30.171 31.261 31.261 0 0 0 1.209 3.161c.465 1.04.992 2.053 1.573 3.026.216.365.439.723.668 1.074.628 1.128 1.492 3.026 1.614 5.133v1.58c.047 1.304.364 5.836 2.39 9.071a18.013 18.013 0 0 0 1.998 2.52 22.036 22.036 0 0 0 3.781 3.133 28.17 28.17 0 0 0 4.274 2.27c2.951 1.249 6.023 2.067 9.102 2.566 1.985.331 3.983.541 5.968.669a1.406 1.406 0 0 0 1.479-1.357c.027-.743.04-1.473.04-2.189 0-.371 0-.736.007-1.101.014-.743-.581-1.364-1.323-1.351a54.38 54.38 0 0 1-5.456-.175c-2.775-.23-5.489-.743-8.061-1.594a24.106 24.106 0 0 1-3.68-1.594 18.008 18.008 0 0 1-3.214-2.256c-3.396-2.546-4.814-4.741-5.408-6.153h-.02c-.014-.054-.034-.108-.047-.169-.372-.946-.358-1.499-.358-1.499-.135-.703-.21-1.29-.243-1.648v-4.917c0-5.093-.52-7.261-.811-8.072-.06-.141-.128-.277-.189-.418a23.977 23.977 0 0 1-.513-1.365 454.786 454.786 0 0 1-9.567-29.657c-1.161-4.005-2.242-8.024-3.504-12.084-.642-2.026-1.337-4.072-2.289-6.119-.493-1.02-1.053-2.04-1.769-3.019a11.957 11.957 0 0 0-2.606-2.614c-2.032-1.465-4.341-2.181-6.509-2.593-2.187-.426-4.321-.602-6.414-.77-4.173-.325-8.264-.568-12.005-1.736a21.717 21.717 0 0 1-2.694-1.06c-.85-.433-1.674-.906-2.43-1.48-1.52-1.134-2.775-2.56-3.795-4.221-1.1-1.783-2.207-3.573-3.389-5.336-1.188-1.756-2.444-3.505-3.957-5.12-1.492-1.607-3.348-3.08-5.523-3.897-1.87-.736-3.888-.945-5.759-.945-.283 0-.56 0-.83.013m2.046-7.517l-1.526.02-3.045.04-6.097.075-32.138.297c-.331 0-.595.27-.601.601a.61.61 0 0 0 .6.615l32.125.297 6.09.074 3.045.04 1.52.021h.763c.141.014.384.047.594.081 1.782.338 3.558 1.182 5.151 2.236 1.6 1.06 3.059 2.364 4.369 3.802 1.316 1.44 2.491 3.02 3.551 4.681.27.412.52.838.776 1.256.25.42.56.926.865 1.365a17.595 17.595 0 0 0 2.126 2.512c1.567 1.54 3.417 2.77 5.355 3.708 1.937.946 3.97 1.621 6.009 2.141 4.085 1.04 8.21 1.46 12.22 1.939 1.999.243 3.984.493 5.834.918.459.108.911.23 1.344.365.216.068.425.142.627.216.203.081.392.156.628.257.892.392 1.722.79 2.451 1.263 2.876 1.797 4.524 5.437 6.023 9.07 1.465 3.675 2.7 7.518 3.896 11.368 2.369 7.72 4.53 15.548 6.691 23.37l1.613 5.889.405 1.479c.183.669.405 1.189.628 1.723a27.743 27.743 0 0 0 1.513 2.998c.209.365.438.716.661 1.068v.02s.014.02.041.047c.142.216.283.432.432.648.486.872 1.195 2.621 1.404 5.674v5.822l-.02.02c-.013 1.689.203 6.241 2.795 8.369 3.558 2.458 7.562 4.194 11.661 5.295 3.011.824 6.069 1.29 9.135 1.526a1.6 1.6 0 0 0 1.688-1.229 30.61 30.61 0 0 1 .837-3.012 1.298 1.298 0 0 0-1.182-1.716c-3.065-.108-6.103-.459-9.02-1.188-3.768-.912-7.36-2.405-10.506-4.56a28.688 28.688 0 0 1-1.789-1.344c-1.728-1.702-2.188-3.728-2.296-4.876v-8.922c0-4.674-.587-6.248-.736-6.572a.284.284 0 0 1-.033-.068c-.176-.398-.365-.817-.446-1.128l-.432-1.452-1.749-5.829c-2.356-7.787-4.712-15.575-7.305-23.328-1.31-3.877-2.654-7.748-4.294-11.584-.831-1.918-1.742-3.83-2.904-5.694-.6-.925-1.269-1.844-2.066-2.688a12.804 12.804 0 0 0-2.721-2.215c-.992-.608-2.012-1.06-2.991-1.46-.236-.094-.513-.209-.789-.303a22.751 22.751 0 0 0-.817-.263 21.514 21.514 0 0 0-1.607-.392c-2.12-.433-4.18-.635-6.219-.838-4.058-.385-8.048-.709-11.869-1.587-3.802-.864-7.468-2.323-10.196-4.89a14.668 14.668 0 0 1-1.85-2.087c-.283-.392-.513-.75-.79-1.189-.283-.439-.553-.885-.857-1.317-1.168-1.736-2.464-3.397-3.93-4.917-1.458-1.526-3.085-2.918-4.901-4.052-1.816-1.135-3.801-2.047-6.023-2.418-.29-.04-.553-.081-.918-.081h-.763l-.04-.007zm-1.189-6.585h-.5l-.999.02-3.997.047-7.987.095-23.192.182a.682.682 0 0 0-.675.675.68.68 0 0 0 .675.69l23.192.182 7.994.094 3.997.048 1 .013h.499l.223.007.223.013c.614.04 1.242.122 1.863.23a21.076 21.076 0 0 1 7.076 2.634c1.08.648 2.1 1.391 3.031 2.236.46.425.912.864 1.33 1.33.21.23.42.466.615.71l.614.756c1.675 2.114 3.45 4.16 5.402 6.092.986.96 2.005 1.891 3.139 2.75.574.425 1.155.837 1.817 1.208.324.19.675.358 1.046.52.189.075.385.156.608.216.101.034.223.061.358.088.067.014.121.027.216.04.027 0 .054 0 .074.008 1.35.337 2.647.547 3.936.742 1.33.196 2.654.372 3.97.547 2.633.345 5.253.676 7.846 1.081 2.592.399 5.165.858 7.67 1.466 2.484.614 4.969 1.357 7.028 2.499 1.033.574 1.81 1.202 2.627 2.12.796.879 1.526 1.885 2.208 2.939 1.357 2.107 2.518 4.417 3.592 6.767 2.12 4.728 3.862 9.68 5.428 14.684 1.566 5.012 2.95 10.09 4.206 15.197l.919 3.836.438 1.925c.135.628.324 1.358.5 2.04a32.561 32.561 0 0 0 1.438 4.08c.23.52.48 1.033.743 1.539v.007c.169.331.358.655.547.979.391.791.864 1.939.938 3.02v7.314l-.034.034c-.04 1.695.061 5.869 1.871 7.538 3.47 2.573 7.379 4.532 11.444 5.815a21.3 21.3 0 0 0 1.553.473c.52.142 1.04.29 1.566.419 1.053.236 2.1.493 3.167.662 1.154.216 2.309.378 3.463.506a2.123 2.123 0 0 0 2.039-.979c.075-.115.142-.223.196-.311l.264-.405c.216-.338.432-.669.661-1 .102-.142.203-.283.297-.425.081-.122.324-.446.608-.838.527-.716.047-1.729-.837-1.783-1.918-.108-3.842-.236-5.726-.547-.952-.122-1.877-.331-2.815-.513-.466-.102-.918-.223-1.384-.338a18.478 18.478 0 0 1-1.371-.378 33.318 33.318 0 0 1-10.107-4.829c-.655-.467-1.506-1.196-2.296-1.912-1.222-1.33-1.424-2.708-1.458-3.127v-7.835a4.855 4.855 0 0 1-.014-.736c0-.162.007-.311.014-.473v-1.31s.02-.04.027-.061c.04-4.519-.392-6.842-.554-7.53l-.061-.23-.493-1.946-1.019-3.877a262.835 262.835 0 0 0-4.645-15.365c-1.729-5.073-3.619-10.111-5.962-15.008-1.182-2.445-2.464-4.863-4.031-7.18-.79-1.155-1.641-2.29-2.653-3.35a14.073 14.073 0 0 0-1.668-1.526l-.473-.358-.486-.311c-.324-.216-.648-.385-.979-.567-2.633-1.365-5.307-2.054-7.967-2.662-2.667-.58-5.327-.992-7.98-1.337-2.654-.344-5.307-.621-7.94-.905a230.525 230.525 0 0 1-3.923-.446c-1.29-.162-2.586-.35-3.768-.621l-.398-.04h.088-.027c-.034 0-.068-.014-.129-.028-.094-.02-.216-.067-.33-.108a6.67 6.67 0 0 1-.75-.35c-.513-.264-1.026-.616-1.532-.967-1.013-.73-1.979-1.573-2.924-2.451-1.877-1.777-3.646-3.722-5.327-5.748l-.668-.777c-.223-.27-.466-.527-.71-.784-.486-.513-.999-.992-1.532-1.458a21.871 21.871 0 0 0-3.45-2.425 23.167 23.167 0 0 0-7.886-2.729 19.538 19.538 0 0 0-2.107-.21h-.277l-.276-.006.033-.013zm1.08-6.343l-2.248.027-4.503.055-24.644.216a.693.693 0 0 0 0 1.385l24.684.215 4.517.054 2.255.027c.736-.02 1.418 0 2.14.075 2.836.277 5.645 1.141 7.86 2.776.553.412 1.06.857 1.532 1.357l.365.399.405.425.797.824 3.173 3.229 3.194 3.195 1.6 1.593.432.42c.155.148.324.29.486.425.338.27.682.526 1.04.75 1.438.918 2.991 1.479 4.523 1.904 1.54.412 3.079.682 4.605.892l8.973 1.087c2.971.365 5.928.757 8.845 1.263 1.458.25 2.91.54 4.341.865.716.155 1.432.337 2.141.513l1.06.277.979.297c2.579.871 4.949 2.37 6.995 4.255 2.059 1.885 3.808 4.147 5.306 6.579 2.998 4.89 5.017 10.428 6.469 16.088.371 1.419.682 2.85.985 4.29.345 1.593.716 3.005 1.074 4.477l1.08 4.37.52 2.168c.162.703.338 1.459.439 2.053l.013.068.027.101c.426 1.75.851 3.431 1.398 5.214.068.223.142.453.223.69.081.229.189.526.263.715.135.338.27.676.412 1.007.439 1.222 1.067 3.485 1.067 6.403v7.152c-.007.183-.27 5.66 1.776 7.403 2.275 1.709 4.766 3.066 7.339 4.1 4.49 1.81 9.148 2.762 13.78 3.323l3.511.459a1.95 1.95 0 0 0 1.762-.696 183.4 183.4 0 0 0 2.566-3.194 1.066 1.066 0 0 0-.756-1.716l-4.065-.324s-.04-.007-.067-.007c-5.098-.351-10.155-1.135-14.753-2.87-2.296-.858-4.449-1.986-6.367-3.384a23.979 23.979 0 0 1-1.296-1.047c-2.127-1.932-2.201-5.06-2.201-5.06V84.414s.452-4.235-.703-8.497l-.236-.885-1.195-4.363c-.392-1.432-.817-2.925-1.134-4.269a87.083 87.083 0 0 0-1.148-4.478c-1.688-5.923-3.957-11.78-7.386-17.081-1.722-2.641-3.741-5.133-6.172-7.26-2.423-2.122-5.286-3.85-8.432-4.83-.392-.115-.797-.223-1.182-.331l-1.121-.27a63.584 63.584 0 0 0-2.255-.48 86.759 86.759 0 0 0-4.524-.783c-3.018-.453-6.036-.777-9.04-1.067l-8.953-.865c-1.458-.162-2.89-.378-4.267-.716-1.371-.337-2.681-.797-3.801-1.472-.284-.162-.54-.351-.797-.54a5.234 5.234 0 0 1-.371-.311l-.385-.358-1.634-1.547-3.261-3.107-3.228-3.127-.79-.784-.384-.384-.406-.426a14.015 14.015 0 0 0-1.876-1.58c-2.695-1.885-5.881-2.743-9.007-2.972a18.862 18.862 0 0 0-2.37-.02m2.194-5.992l-24.576.244a.757.757 0 0 0-.75.75c0 .418.331.763.75.77 0 0 28.195.27 29.707.324 1.655.067 3.309.216 4.821.614.736.182 1.37.466 2.046.885.662.398 1.29.858 1.864 1.384 1.16 1.04 2.126 2.324 2.977 3.702.844 1.378 1.573 2.89 2.248 4.397.817 1.844 2.174 3.282 3.68 4.404 3.052 2.228 6.826 3.18 10.425 3.201 3.335.128 6.778.304 10.154.493 3.39.196 6.786.419 10.141.723.838.074 1.668.162 2.499.263l1.195.162 1.175.223c1.552.331 3.078.817 4.537 1.439 2.923 1.242 5.597 3.06 7.913 5.261 2.316 2.209 4.274 4.796 5.887 7.605 1.614 2.81 2.856 5.836 3.815 8.956.473 1.58.851 3.12 1.215 4.79l1.162 5.01 2.342 9.963 1.189 5.005.061.223c.276 1.459.54 3.276.627 5.228v9.753s0 .013-.006.02c.02 1.824.25 5.984 1.917 7.787.331.298.662.581 1.013.858 3.059 2.486 6.691 4.107 10.296 5.127 2.748.776 5.51 1.249 8.251 1.56h.027c.864.094 1.729.182 2.586.25h.236l4.342.398a2.555 2.555 0 0 0 2.437-1.276 49.87 49.87 0 0 0 1.499-2.83 1.182 1.182 0 0 0-.972-1.696l-7.015-.499c-.034 0-.075-.014-.108-.014h-.007c-.385-.02-.777-.047-1.161-.074l-.149-.014c-2.91-.216-5.766-.594-8.473-1.29-3.12-.797-6.016-2.04-8.433-3.91-1.58-1.196-2.944-2.668-4.132-4.323-1.04-1.77-1.061-3.424-1.061-3.478V77.01a21.31 21.31 0 0 1 .298-2.445 115.914 115.914 0 0 0 .641-2.965c.054-.21.081-.385.101-.54.061-.318.129-.642.189-.96a5.082 5.082 0 0 0-.081-2.188l-2.018-7.787-1.263-4.924c-.398-1.655-.864-3.418-1.418-5.093-1.121-3.37-2.559-6.653-4.409-9.726-1.85-3.066-4.105-5.916-6.785-8.355-2.674-2.438-5.773-4.437-9.156-5.788a28.232 28.232 0 0 0-5.226-1.527L139 24.49l-1.344-.156c-.864-.08-1.728-.155-2.592-.216-3.437-.236-6.853-.378-10.27-.5-3.43-.114-6.799-.216-10.276-.27a16.905 16.905 0 0 1-4.686-.554c-1.505-.398-2.943-1.04-4.193-1.904-1.242-.872-2.309-1.993-2.903-3.27-.756-1.587-1.546-3.133-2.511-4.646-1.918-2.986-4.625-5.822-8.427-6.835-1.802-.42-3.565-.527-5.313-.561h-1.209c-1.316 0-2.613.02-3.977.04m.466-5.876l-15.522.19a.786.786 0 0 0-.776.776c0 .432.344.79.776.797l15.522.19 7.738.1c2.417.068 4.773.77 6.86 1.986 2.08 1.216 3.909 2.905 5.374 4.843.365.48.709.986.999 1.48v.006l.837 1.662c.601 1.168 1.229 2.357 2.006 3.505.776 1.148 1.728 2.29 2.997 3.168 1.256.891 2.802 1.391 4.274 1.54.372.033.736.054 1.101.06l.972.014 1.938.02 3.875.047 15.502.19a31.757 31.757 0 0 1 14.186 3.41c4.368 2.196 8.183 5.424 11.289 9.227 2.667 3.255 4.8 6.956 6.448 10.853a22.017 22.017 0 0 1 1.127 3.438l2.282 9.335c.257 1.33.52 3.33.52 5.91l.034-.075.094 15.643s-.074 1.85-.411 3.438c-.014.054-.034.115-.048.175-.121.406-.243.81-.371 1.21a1.356 1.356 0 0 0-.088.283c0 .014 0 .02-.007.034a3.94 3.94 0 0 0 .352 3.12v.014c.945 1.627 2.079 3.208 3.47 4.606a19.303 19.303 0 0 0 4.74 3.512c1.735.912 3.558 1.56 5.354 2.026 2.133.54 4.247.879 6.333 1.115.013 0 .027 0 .04.007 1.695.243 6.232.54 10.27.77a1.685 1.685 0 0 0 1.681-1.101 68.706 68.706 0 0 0 1.094-3.337 1.046 1.046 0 0 0-.959-1.35c-3.781-.163-7.751-.332-8.392-.359-3.025-.162-5.996-.425-8.744-1.06-3.011-.703-5.671-1.925-7.724-3.944-1.269-1.216-2.329-2.709-3.241-4.357a9.002 9.002 0 0 0-.189-.351 33.735 33.735 0 0 1-1.08-2.276c-.797-2.189-1.02-4.323-1.02-4.323l-.087-14.744c0-.534 0-1.06-.007-1.574l-.014-1.81-.02-.027c-.175-7.599-.918-12.536-1.37-14.9-.027-.216-.048-.432-.075-.642a12.237 12.237 0 0 0-.587-2.357l-.014-.067h-.013a11.617 11.617 0 0 0-.716-1.594c-1.546-2.81-3.355-5.478-5.462-7.923-3.531-4.12-7.872-7.625-12.822-9.962-4.922-2.344-10.444-3.526-15.812-3.418l-15.543.19-3.882.047-1.944.02-.966.013c-.283 0-.56 0-.837-.027-1.101-.087-2.1-.391-2.978-.979-.884-.574-1.654-1.425-2.349-2.398-.696-.972-1.317-2.066-1.918-3.181l-.452-.844-.23-.44-.114-.222-.081-.149-.075-.121a17.867 17.867 0 0 0-1.208-1.702c-1.709-2.141-3.795-3.992-6.219-5.33-1.215-.655-2.505-1.195-3.848-1.546a16.917 16.917 0 0 0-4.105-.547l-7.785.08.02-.013z" fill="#000"/><mask id="a" style="mask-type:luminance" maskUnits="userSpaceOnUse" x="16" y="-1" width="193" height="226"><path d="M108.806 214.39a.792.792 0 0 0-.641.979c.222.959.479 1.878.756 2.817.277.932.587 1.857.918 2.782.155.419.317.838.486 1.257.236.587.709 1.06 1.31 1.269.783.277 1.573.527 2.377.764a.427.427 0 0 0 .459-.669c-.824-1.081-1.573-2.297-2.269-3.546a45.707 45.707 0 0 1-1.269-2.499 46.74 46.74 0 0 1-1.128-2.56v-.02a.955.955 0 0 0-.857-.581c-.047 0-.095 0-.142.013m85.518-23.376l-.021.014a48.19 48.19 0 0 1-2.7 1.351c-.912.425-1.837.824-2.768 1.188a31.579 31.579 0 0 1-3.214 1.068 1.214 1.214 0 0 0-.831 1.56l.331.979a1.18 1.18 0 0 0 1.593.696 37.368 37.368 0 0 0 3.363-1.743 55.984 55.984 0 0 0 2.68-1.688 57.182 57.182 0 0 0 2.525-1.804c.392-.297.541-.857.277-1.276a.936.936 0 0 0-1.242-.331m-56.08 8.071c.108.973.668 3.316 3.396 4.87a44.947 44.947 0 0 0 4.044 1.79c2.168.824 4.477 1.479 6.894 1.83l.196.02a2.793 2.793 0 0 0 2.626-1.202c.561-.817 1.161-1.695 1.161-1.695a127.81 127.81 0 0 0 1.601-2.472 1.164 1.164 0 0 0-1.06-1.783l-3.586.229c-10.073.365-12.652-3.046-13.22-4.14l-.141-.324c-.871-2.067-1.54-4.553-1.857-5.599l-.601-.196.554 8.686-.007-.014zm-33.09-9.01c-.439.209-.649.723-.534 1.195.912 3.722 1.918 7.444 3.207 11.125 1.297 3.687 2.897 7.341 5.03 10.766 2.107 3.438 4.814 6.565 7.839 9.28a52.353 52.353 0 0 0 2.194 1.857c.682.541 1.56.764 2.424.656 2.154-.284 4.639-.75 6.32-1.088.635-.128.743-.979.162-1.27-2.653-1.317-5.172-2.789-7.555-4.511-2.904-2.108-5.543-4.566-7.751-7.444-2.228-2.863-4.078-6.085-5.678-9.469-1.607-3.391-2.978-6.93-4.261-10.516a1.014 1.014 0 0 0-.952-.676c-.142 0-.297.034-.439.102m93.451-12.448l-.013.013c-.513.534-1.013 1.067-1.533 1.581-.553.479-1.06.993-1.634 1.432-.567.439-1.121.891-1.721 1.263-.574.405-1.196.736-1.796 1.074-1.229.628-2.492 1.121-3.761 1.432-.317.074-.635.148-.945.195a9.237 9.237 0 0 1-.932.122 8.164 8.164 0 0 1-.898.041 4.14 4.14 0 0 1-.412-.014l-.263-.034s-.014 0 .013-.013h-.061l-.614-.081a1.306 1.306 0 0 0-1.458 1.479c.155 1.094.358 2.283.621 3.37a1.66 1.66 0 0 0 1.863 1.236c.149-.013.257-.04.385-.061.257-.04.486-.094.716-.141.466-.109.905-.23 1.337-.379.432-.142.85-.29 1.256-.466.411-.162.81-.351 1.195-.547 1.559-.777 2.97-1.749 4.246-2.816.622-.554 1.243-1.101 1.796-1.709.581-.574 1.087-1.216 1.601-1.837.513-.622.945-1.297 1.411-1.939.425-.668.83-1.351 1.235-2.019a1.018 1.018 0 0 0-.256-1.344.974.974 0 0 0-.581-.189c-.29 0-.587.121-.803.344m4.976-11.225l-.061.04c-.79.554-1.526 1.148-2.323 1.648-.817.473-1.58 1.007-2.43 1.378l-1.236.601-1.276.493c-.412.176-.851.304-1.283.426-.432.115-.844.277-1.283.358-1.715.432-3.463.594-5.151.587-.844 0-1.681-.074-2.485-.175h-.013a1.306 1.306 0 0 0-1.486.891l-1.519 4.742c-.324 1.02.486 2.066 1.546 1.972h.007c.594-.041 1.161-.135 1.728-.216 1.121-.203 2.215-.446 3.275-.777 2.113-.655 4.125-1.513 5.955-2.621.473-.249.898-.58 1.344-.864.438-.291.877-.581 1.282-.919l1.229-.972c.392-.345.763-.709 1.141-1.061.777-.675 1.418-1.486 2.1-2.229.655-.77 1.229-1.6 1.837-2.391a.65.65 0 0 0 .013-.77.657.657 0 0 0-.527-.276.626.626 0 0 0-.371.121m-89.866-8.395a.772.772 0 0 0-.621.905c1.249 6.801 3.005 13.555 5.604 20.093 1.31 3.263 2.836 6.478 4.713 9.551 1.796 2.924 3.916 5.734 6.563 8.199v.014l.033.02c.122.108.237.223.358.338.068.061.149.128.223.182.088.061.169.129.277.216 1.242 1.108 3.389 3.485 3.835 7.403l.547 5.045s0 .061.006.088l.453 4.519a4.506 4.506 0 0 0 3.301 3.863c.973.263 2.62.601 3.565.783a1.46 1.46 0 0 0 1.283-.364c.304-.284.669-.615.905-.838.155-.148.304-.297.459-.439.331-.324.668-.648.999-.972l.507-.507c.351-.351.695-.709 1.039-1.067a3.93 3.93 0 0 1 .169-.176c.709-.743.257-1.979-.77-2.094l-2.275-.243c-2.032-.263-4.037-.655-5.975-1.229-1.877-.567-2.39-2.053-2.525-2.823l-.054-.48-.959-8.854c-.581-5.37-3.335-7.95-3.335-7.95-1.736-1.533-3.336-3.323-4.794-5.241-1.978-2.607-3.714-5.464-5.267-8.443-3.099-5.964-5.482-12.38-7.379-18.939a.779.779 0 0 0-.743-.567c-.047 0-.094 0-.142.013m92.952-4.187l-.021.013c-.553.493-1.093.993-1.64 1.466-.588.439-1.128.912-1.735 1.304-.601.398-1.182.803-1.81 1.128-.601.364-1.242.641-1.87.938-1.269.534-2.566.939-3.855 1.149-.325.054-.642.108-.959.121-.318.041-.628.047-.939.054-3.024.243-4.807 2.749-5.698 4.519-.399.79.209 1.722 1.094 1.688 1.978-.074 3.355-.344 3.355-.344.257-.02.486-.054.723-.088.472-.074.918-.162 1.357-.277.439-.108.871-.23 1.289-.371.426-.129.831-.291 1.236-.46 1.614-.662 3.086-1.526 4.443-2.492.661-.507 1.323-1.006 1.917-1.567.621-.534 1.175-1.128 1.735-1.709.561-.581 1.04-1.229 1.553-1.83.48-.635.925-1.29 1.384-1.925.297-.412.25-1-.162-1.364a.952.952 0 0 0-.641-.237c-.27 0-.54.102-.75.284m-96.334-9.584a49.487 49.487 0 0 0-.087 2.235c-.014.743 0 1.493.02 2.243.054 1.499.175 3.019.527 4.579a.972.972 0 0 0 .06.203c.25.675.898.959 1.445.635.547-.318.79-1.128.54-1.804-.432-1.162-.736-2.512-.965-3.883a34.371 34.371 0 0 1-.284-2.094 45.298 45.298 0 0 1-.189-2.114v-.014c-.02-.317-.223-.581-.493-.601h-.033c-.277 0-.514.27-.541.615zm37.864-9.706v10.726s0 2.708 1.769 4.68a34.437 34.437 0 0 0 11.552 7.376c3.788 1.465 7.792 2.222 11.782 2.438h.162l2.964.142a1.577 1.577 0 0 0 1.621-1.256c.243-1.182.452-2.351.628-3.506a1.172 1.172 0 0 0-1.162-1.344h-2.37-.02c-3.983.041-7.933-.52-11.613-1.844a28.89 28.89 0 0 1-9.952-6.079 31.193 31.193 0 0 1-2.883-3.086c-1.006-1.338-1.614-7.004-1.971-8.321a.25.25 0 0 0-.25-.196.26.26 0 0 0-.264.263m-57.754-27.942c-.27.142-.533.277-.79.405a.856.856 0 0 0-.101 1.48c.148.101.297.202.439.304a21.298 21.298 0 0 1 3.794 3.606c1.12 1.351 2.066 2.857 2.883 4.438.203.398.405.79.587 1.202.19.405.372.811.534 1.229.365.831.614 1.628.884 2.486.98 3.431 1.513 7.125 1.972 10.82.452 3.708.79 7.457 1.141 11.212.695 7.517 1.404 15.089 2.586 22.653 1.188 7.552 2.788 15.136 5.496 22.492 1.357 3.674 2.998 7.288 5.05 10.725a53.273 53.273 0 0 0 3.403 4.992 44.13 44.13 0 0 0 4.105 4.532 37.954 37.954 0 0 0 8.548 6.133.738.738 0 0 0 1.08-.73l-.493-4.559a4.537 4.537 0 0 0-1.917-3.215c-1-.709-1.965-1.472-2.89-2.296-5.158-4.607-8.865-10.902-11.573-17.622-2.714-6.754-4.489-13.974-5.853-21.289-1.364-7.328-2.296-14.778-3.207-22.275-.466-3.749-.919-7.511-1.493-11.287-.587-3.775-1.228-7.571-2.437-11.374-.317-.938-.675-1.931-1.094-2.816a24.968 24.968 0 0 0-.634-1.344 27.644 27.644 0 0 0-.696-1.324c-.965-1.743-2.208-3.323-3.423-4.937-1.087-1.439-2.687-2.729-3.74-3.499a2.003 2.003 0 0 0-2.14-.142m7.116-5.498c-.257.271-.513.527-.77.777a1.823 1.823 0 0 0-.398 2.06c.391.871.79 1.736 1.201 2.607a83.98 83.98 0 0 0 1.35 2.715 26.957 26.957 0 0 0 1.641 2.756 19.14 19.14 0 0 0 2.093 2.553c.784.79 1.648 1.513 2.512 2.134.864.622 1.702 1.155 2.377 1.682.682.527 1.195 1.04 1.613 1.662.844 1.243 1.31 2.911 1.648 4.768.371 1.952.749 3.911 1.154 5.87.432 2.093.892 4.18 1.378 6.267a1.28 1.28 0 0 0 1.586.946l1.999-.54a1.281 1.281 0 0 0 .905-1.567 226.684 226.684 0 0 1-1.513-6.066 308.393 308.393 0 0 1-1.296-5.768c-.432-2.006-1.033-4.261-2.478-6.288-.716-1.006-1.654-1.871-2.566-2.526-.911-.662-1.769-1.161-2.518-1.682-1.506-1.013-2.728-2.174-3.788-3.64a24.065 24.065 0 0 1-1.465-2.31 93.251 93.251 0 0 1-1.364-2.573 163.646 163.646 0 0 1-1.769-3.6.92.92 0 0 0-.844-.527.946.946 0 0 0-.682.29m-59.246-3.08a.812.812 0 0 0-.21 1.162c.358.48.69.831 1.06 1.202.365.365.757.696 1.155 1.02.803.642 1.66 1.209 2.566 1.709a22.515 22.515 0 0 0 5.759 2.188c4.024.939 9.992.926 14.017.372 1.005-.149 2.018-.318 2.957-.473.959-.148 1.917-.29 2.876-.392a51.692 51.692 0 0 1 5.76-.344c2.335 0 4.658.189 6.906.635.919-.007 2.39-.142 4.22-.703.23-.081.635-.277.635-.648 0-.311-.135-.486-.385-.561-3.727-1.141-7.623-1.513-11.417-1.404-2.04.06-4.065.249-6.07.533-1 .135-1.999.311-2.984.493l-2.883.547c-3.775.628-9.446.743-13.153-.013a20.35 20.35 0 0 1-5.293-1.837 16.702 16.702 0 0 1-2.343-1.466 13.294 13.294 0 0 1-1.047-.871 8.578 8.578 0 0 1-.884-.932l-.04-.048a.883.883 0 0 0-.696-.33.876.876 0 0 0-.506.155m65.242-4.87c-.203.33-.398.655-.601.966a1.441 1.441 0 0 0 .243 1.844 20.528 20.528 0 0 0 2.795 2.134c1.884 1.236 3.984 2.067 5.604 2.938 1.634.871 2.64 1.898 3.369 3.492.365.777.655 1.648.885 2.567.236.925.445 1.931.655 2.924.405 1.999.783 4.032 1.175 6.065.776 4.073 1.586 8.159 2.518 12.232 1.87 8.139 4.179 16.251 7.494 24.079 1.661 3.91 3.586 7.747 5.901 11.401a57.411 57.411 0 0 0 2.526 3.654v.02s1.688 1.938 2.167 6.302l.189 1.735c.02.21.115.406.263.561l.149.155a.539.539 0 0 0 .925-.432l-.655-6.011c-.115-1.081-.311-2.871-.588-5.424-.351-3.242-1.033-4.815-1.397-5.45a4.94 4.94 0 0 1-.196-.311c-.027-.04-.047-.061-.047-.061a77.237 77.237 0 0 1-4.362-8.28c-3.328-7.329-5.786-15.123-7.818-23.039-1.02-3.964-1.918-7.97-2.796-12.002-.438-2.019-.871-4.039-1.343-6.085-.243-1.027-.48-2.04-.783-3.107a17.795 17.795 0 0 0-1.229-3.256c-.534-1.074-1.256-2.148-2.181-3.046-.918-.912-1.992-1.587-3.011-2.107-2.046-1.02-3.842-1.669-5.449-2.668a17.943 17.943 0 0 1-2.755-2.053 1.062 1.062 0 0 0-.715-.277c-.372 0-.73.189-.939.533m-75.754-4.694c-.257.351-.129.817.276 1.04 2.012 1.08 4.031 1.79 6.158 2.398 2.113.608 4.274 1.026 6.455 1.35 4.368.595 12.754.744 17.156.474 1.107-.034 2.194-.176 3.288-.277 1.107-.102 2.167-.23 3.227-.311a52.66 52.66 0 0 1 6.354-.176c2.1.088 4.179.338 6.15.824 1.965.487 3.815 1.216 5.388 2.209.048.034.102.06.156.088.817.405 1.856.162 2.322-.54.466-.703.19-1.601-.628-2.007-2.086-1.033-4.328-1.702-6.576-2.107-2.255-.425-4.524-.54-6.765-.534-2.242 0-4.463.163-6.65.433-1.101.128-2.188.304-3.235.412-1.06.115-2.12.277-3.187.33-4.26.345-12.51.318-16.73-.256-2.1-.304-4.2-.675-6.205-1.276a38.944 38.944 0 0 1-2.957-.993c-.946-.372-1.918-.81-2.708-1.27l-.06-.034-.028-.013a1.005 1.005 0 0 0-.459-.115.935.935 0 0 0-.742.351zm74.39-4.025c-.277.31-.25.79.061 1.067a55.657 55.657 0 0 0 3.025 2.505 49.977 49.977 0 0 0 3.2 2.297c1.107.723 2.242 1.425 3.464 2.02 1.222.6 2.505 1.148 3.956 1.485a1.647 1.647 0 0 0 2.006-1.418 1.647 1.647 0 0 0-1.459-1.817c-1.08-.122-2.235-.446-3.369-.85-1.141-.406-2.275-.933-3.389-1.494a48.04 48.04 0 0 1-3.302-1.837 53.712 53.712 0 0 1-3.18-2.066h-.013a.706.706 0 0 0-.439-.15.77.77 0 0 0-.567.25m7.109-3.464c-.142.385-.29.77-.432 1.148-.257.662.128 1.392.817 1.58.344.095.682.183 1.026.264 2.1.527 4.166.946 5.868 1.682 1.714.73 2.943 1.81 3.787 3.384.419.77.756 1.654 1.006 2.56.25.918.453 1.945.642 2.965.371 2.053.695 4.16 1.026 6.267.655 4.222 1.33 8.47 2.127 12.705 1.586 8.47 3.612 16.933 6.684 25.146 1.539 4.1 3.369 8.132 5.604 11.995a58.582 58.582 0 0 0 1.722 2.756v.02s.02.027.06.068c.223.337.439.675.669 1.013.013.02.034.034.054.054.58 1.013 1.303 2.688 1.526 5.018l.702 7.47v.014l.148 1.567.034.047c.324 2.479.77 4.161 1.121 5.201.108.378.257.743.432 1.094a3.14 3.14 0 0 0 .155.304 6.17 6.17 0 0 0 1.736 1.911 35.08 35.08 0 0 0 7.319 4.08c3.504 1.438 7.258 2.256 11.012 2.519l.189.014c.688.047 1.384.081 2.072.087h.176l1.134.041a2.11 2.11 0 0 0 1.985-1.202c.601-1.27 1.182-2.547 1.736-3.816a1.16 1.16 0 0 0-1.067-1.615h-3.93-.02c-3.768.041-7.488-.547-10.965-1.864-3.484-1.31-6.704-3.343-9.56-5.883-.21-.182-.405-.378-.608-.567-1.769-1.83-2.086-4.107-2.086-4.107l-1.216-12.839c-.398-4.039-1.066-6.059-1.485-6.991a30.404 30.404 0 0 1-.385-.689c-1.323-2.404-2.869-5.437-3.497-7.551-2.377-7.983-5.314-15.886-7.083-24.16-.884-4.14-1.661-8.314-2.424-12.515-.385-2.1-.763-4.208-1.208-6.349-.23-1.074-.466-2.141-.804-3.276-.351-1.148-.796-2.262-1.424-3.35a11.055 11.055 0 0 0-2.445-2.945c-.992-.837-2.126-1.465-3.247-1.911-2.255-.891-4.423-1.236-6.468-1.709-.351-.074-.689-.155-1.033-.236a.99.99 0 0 0-1.162.615m-87.968-2.337c-.263.344-.149.803.256 1.026 8.217 4.532 19 5.336 28.25 3.519 4.503-.756 11.964-2.31 16.494-2.209 4.51.115 9.014.784 12.97 2.358 1.979.783 3.802 1.803 5.368 3.032.783.622 1.52 1.284 2.167 2.006.642.703 1.263 1.513 1.864 2.33 1.499 2.033 2.802 4.168 4.03 6.37.493.884 1.884 1.053 2.654.324.182-.176.365-.351.547-.534.418-.412.493-1 .203-1.479-1.304-2.168-2.715-4.323-4.328-6.383-.669-.85-1.344-1.688-2.161-2.532-.797-.838-1.695-1.601-2.64-2.31-1.897-1.412-4.064-2.547-6.347-3.384-4.577-1.682-9.492-2.27-14.286-2.276-4.814 0-12.437 1.695-17.055 2.58-1.182.223-2.7.445-3.822.608-1.114.168-2.234.29-3.362.371a42.073 42.073 0 0 1-6.779-.06 39.015 39.015 0 0 1-6.637-1.183c-1.08-.29-2.14-.635-3.166-1.026-1.02-.385-2.066-.845-2.937-1.33l-.068-.041a.986.986 0 0 0-.473-.122.94.94 0 0 0-.735.338m87.833-6.464c-.121.486-.25.966-.378 1.439-.128.48.149.966.641 1.128 1.277.418 3.788 1.168 6.556 1.567 2.195.317 4.301.783 6.003 1.52.844.364 1.566.823 2.154 1.39.29.284.553.602.783.94.114.168.223.35.331.533l.317.615c.81 1.702 1.404 3.633 1.951 5.585 1.074 3.924 1.958 7.99 2.944 12.036 1.938 8.105 4.206 16.203 7.069 24.133a191.52 191.52 0 0 0 2.248 5.917c.385.986.797 1.958 1.202 2.931.115.277.25.554.378.831v.02s.014.02.034.061c.331.716.675 1.432 1.046 2.127.028.047.055.088.075.135.891 2.141 1.978 5.681 1.978 10.294v10.138c.014.83.203 4.761 2.789 7.389.371.324.742.641 1.127.952.23.162.425.311.574.446 2.505 1.938 5.28 3.58 8.271 4.762 3.983 1.593 8.264 2.35 12.497 2.431l.804.007h2.376c.858 0 1.628-.541 1.904-1.351.392-1.148.757-2.29 1.101-3.424a1.258 1.258 0 0 0-1.202-1.628H171.3a4.058 4.058 0 0 0-.412-.02h-.013c-3.903.141-7.778-.372-11.377-1.709-3.605-1.317-6.914-3.445-9.81-6.133a38.678 38.678 0 0 1-1.188-1.175 3.831 3.831 0 0 0-.466-.473c-.257-.27-.5-.554-.743-.831-1.209-1.749-1.539-4.606-1.539-4.606v-10.516c0-10.064-1.83-14.164-1.83-14.164v-.013a202.627 202.627 0 0 1-1.6-3.952c-2.998-7.679-5.415-15.548-7.542-23.538-1.08-3.998-2.059-8.024-3.281-12.083-.628-2.033-1.297-4.08-2.336-6.14l-.426-.77a10.07 10.07 0 0 0-.52-.796 9.82 9.82 0 0 0-1.296-1.473c-.972-.912-2.154-1.594-3.335-2.067-2.384-.952-4.693-1.25-6.874-1.627-2.181-.359-4.267-.737-6.252-1.345a1.508 1.508 0 0 1-.162-.054.978.978 0 0 0-.277-.04c-.378 0-.722.236-.817.601m67.349-3.782a.49.49 0 0 0-.459.425c-.074.48-.101.925-.101 1.385 0 .46 0 .925.047 1.384.034.46.094.919.162 1.378.074.46.169.912.277 1.371a18.26 18.26 0 0 0 2.181 5.221 19.063 19.063 0 0 0 3.747 4.39c.857.723 1.776 1.264 2.694 1.71.918.438 1.85.776 2.782 1.053 3.72 1.074 7.426 1.337 11.099 1.283a50.178 50.178 0 0 0 5.78-.486 1.338 1.338 0 0 0 1.141-1.432l-.236-3.04a1.337 1.337 0 0 0-1.533-1.215 57.57 57.57 0 0 1-5.388.588 47.87 47.87 0 0 1-4.915.094c-1.627-.047-3.228-.21-4.747-.513-1.505-.304-2.964-.77-4.01-1.466a19.231 19.231 0 0 1-3.498-3.093 19.927 19.927 0 0 1-2.721-3.978 23.73 23.73 0 0 1-1.033-2.263c-.148-.392-.297-.784-.425-1.189-.128-.398-.25-.817-.344-1.202v-.034a.5.5 0 0 0-.48-.371h-.013M18.292 67.108c-.21.365.398.81.79 1.007 2.086 1.026 4.193 1.776 6.38 2.431a50.766 50.766 0 0 0 6.678 1.486c2.262.345 5.246.54 7.548.574a53.767 53.767 0 0 0 3.457-.074l5.847-.56c4.49-.304 11.971-1.014 16.373-1.203 2.201-.088 4.375-.067 6.489.19 2.113.242 4.172.77 6.164 1.478 3.876 1.419 7.285 3.999 10.344 6.836 3.065 2.863 5.8 6.065 8.453 9.36l1.985 2.493v.007c.317.405.986.385 1.262-.047.331-.507.655-1.02.973-1.54.31-.514.25-1.149-.135-1.608l-1.148-1.364c-2.789-3.283-5.712-6.538-9.04-9.49-1.668-1.472-3.43-2.877-5.355-4.127-1.924-1.235-3.997-2.343-6.279-3.1-2.215-.736-4.537-1.263-6.887-1.479-2.35-.23-4.686-.189-6.974-.04-4.564.31-11.978 1.114-16.434 1.526l-5.807.642a48.07 48.07 0 0 1-3.28.148c-2.195.02-5.078-.114-7.26-.391a49.717 49.717 0 0 1-6.447-1.277c-2.1-.567-4.679-1.276-6.576-2.161l-.04-.02a.845.845 0 0 0-.365-.082.826.826 0 0 0-.716.392m88.488-6.045l-.121.088-.203.169-.162.203-.081.128c-.04.067-.047.108-.027.115l.081.087.156.176c.108.115.209.23.324.338.216.223.439.439.661.655.453.425.925.83 1.412 1.23a21.72 21.72 0 0 0 3.139 2.1c.56.297 1.134.567 1.722.824l.898.344c.31.108.634.216.945.297.635.162 1.263.297 1.884.399.614.094 1.222.175 1.809.257 1.182.148 2.296.29 3.336.533 1.039.243 1.991.588 2.856 1.108 1.735 1.02 3.072 2.83 4.233 4.876a.629.629 0 0 0 1.168-.412 12.17 12.17 0 0 0-1.215-3.634 9.617 9.617 0 0 0-2.586-3.127c-1.094-.87-2.397-1.445-3.666-1.817-1.277-.364-2.546-.54-3.741-.689-.601-.067-1.188-.128-1.755-.202a24.348 24.348 0 0 1-2.445-.392l-.81-.21-.81-.229c-.27-.074-.533-.175-.81-.257a24.817 24.817 0 0 1-3.187-1.29 22.377 22.377 0 0 1-2.275-1.283l-.365-.243-.175-.122-.088-.06s0-.007-.014-.007c-.02 0-.047.013-.094.047m-33.746-3.397c-1.195.121-2.41.412-3.456.635-.54.121-1.088.23-1.634.324-.547.101-1.094.21-1.641.29-4.395.73-14.645 1.054-19.134 1.149-4.49.094-10.661-.075-15.151-.433-4.484-.364-8.987-.898-13.39-1.688h-.02c-.323-.061-.64.135-.715.439-.074.31.135.621.466.689 4.476.918 8.966 1.56 13.496 2.04 3.849.398 10.06.75 15.32.77 4.571.006 14.922-.21 19.48-.852.573-.067 1.133-.169 1.707-.256.567-.088 1.135-.19 1.702-.297 1.168-.217 2.16-.426 3.227-.514 2.1-.189 4.2.04 6.144.696 1.938.682 3.727 1.756 5.32 3.1 1.607 1.33 3.039 2.898 4.41 4.539 1.377 1.641 2.68 3.377 4.111 5.1.716.857 1.472 1.722 2.31 2.546.823.81 1.721 1.56 2.633 2.303 1.323 1.08 3.585 2.296 5.043 3.026.743.371 1.661.06 1.965-.676.088-.216.175-.432.263-.655.236-.594-.054-1.256-.662-1.526-1.201-.54-3.153-1.5-4.543-2.614-.81-.649-1.641-1.284-2.404-2-.75-.695-1.459-1.465-2.167-2.269-1.405-1.607-2.769-3.33-4.247-5.005-1.472-1.675-3.059-3.33-4.895-4.782-1.817-1.459-3.943-2.688-6.28-3.438a17.31 17.31 0 0 0-5.178-.776c-.702 0-1.398.04-2.086.121m10.897-8.307h-.803l-65.924.398a.62.62 0 0 0-.615.608c0 .345.27.621.608.628l65.93.804.804.014c.277 0 .533.006.77.02.243 0 .486.02.722.054.243.02.48.054.716.101.952.162 1.87.446 2.748.851 1.755.81 3.322 2.074 4.753 3.532 2.856 2.939 5.226 6.525 7.913 9.943.655.844 1.391 1.756 2.181 2.566.79.824 1.641 1.601 2.545 2.31l.183.142c.715.547 1.762.182 2.005-.689.067-.236.128-.466.189-.702a1.201 1.201 0 0 0-.446-1.277 21.362 21.362 0 0 1-2.261-1.959c-.723-.709-1.358-1.459-2.033-2.29-2.694-3.255-5.151-6.828-8.352-9.989-1.607-1.56-3.457-3.012-5.63-3.95a13.569 13.569 0 0 0-3.41-.967 9.67 9.67 0 0 0-.878-.101 9.658 9.658 0 0 0-.878-.04h-.837m-11.35-8.612l-12.355.175-37.682.359a.608.608 0 0 0 .007 1.215H60.22l12.356-.013h1.094c.668 0 1.337 0 1.978.007 1 .026 1.978.1 2.93.27 1.884.337 3.72 1.1 4.619 2.512 0 0 0 .014.006.014.29.439.885.56 1.324.27a.951.951 0 0 0 .27-1.324c-.682-1.04-1.681-1.797-2.714-2.296-1.04-.507-2.127-.797-3.2-.98a21.687 21.687 0 0 0-3.215-.256h-.276c-.96 0-1.884.027-2.83.033m4.578-8.692l-12.524.196-33.806.391a.686.686 0 0 0-.682.69c0 .384.304.695.689.702l33.799.196 12.524.1c1.06 0 1.999.035 2.971.176a11.18 11.18 0 0 1 2.734.73c1.736.702 3.221 1.918 4.53 3.384 1.31 1.472 2.472 3.147 3.58 4.876 1.1 1.73 2.16 3.52 3.207 5.316 1.113 1.925 2.62 3.735 4.415 5.14.898.716 1.87 1.303 2.87 1.844 1.006.513 2.045.945 3.099 1.31 4.233 1.418 8.554 1.75 12.679 2.175 2.06.21 4.092.432 5.996.85 1.911.406 3.659 1.055 5.003 2.081a8.143 8.143 0 0 1 1.749 1.844c.499.723.938 1.547 1.33 2.418.77 1.763 1.391 3.688 1.958 5.653 1.127 3.945 2.127 8.017 3.193 12.063a453.547 453.547 0 0 0 8.96 30.171 31.261 31.261 0 0 0 1.209 3.161c.465 1.04.992 2.053 1.573 3.026.216.365.439.723.668 1.074.628 1.128 1.492 3.026 1.614 5.133v1.58c.047 1.304.364 5.836 2.39 9.071a18.013 18.013 0 0 0 1.998 2.52 22.036 22.036 0 0 0 3.781 3.133 28.17 28.17 0 0 0 4.274 2.27c2.951 1.249 6.023 2.067 9.102 2.566 1.985.331 3.983.541 5.968.669a1.406 1.406 0 0 0 1.479-1.357c.027-.743.04-1.473.04-2.189 0-.371 0-.736.007-1.101.014-.743-.581-1.364-1.323-1.351a54.38 54.38 0 0 1-5.456-.175c-2.775-.23-5.489-.743-8.061-1.594a24.106 24.106 0 0 1-3.68-1.594 18.008 18.008 0 0 1-3.214-2.256c-3.396-2.546-4.814-4.741-5.408-6.153h-.02c-.014-.054-.034-.108-.047-.169-.372-.946-.358-1.499-.358-1.499-.135-.703-.21-1.29-.243-1.648v-4.917c0-5.093-.52-7.261-.811-8.072-.06-.141-.128-.277-.189-.418a23.977 23.977 0 0 1-.513-1.365 454.786 454.786 0 0 1-9.567-29.657c-1.161-4.005-2.242-8.024-3.504-12.084-.642-2.026-1.337-4.072-2.289-6.119-.493-1.02-1.053-2.04-1.769-3.019a11.957 11.957 0 0 0-2.606-2.614c-2.032-1.465-4.341-2.181-6.509-2.593-2.187-.426-4.321-.602-6.414-.77-4.173-.325-8.264-.568-12.005-1.736a21.717 21.717 0 0 1-2.694-1.06c-.85-.433-1.674-.906-2.43-1.48-1.52-1.134-2.775-2.56-3.795-4.221-1.1-1.783-2.207-3.573-3.389-5.336-1.188-1.756-2.444-3.505-3.957-5.12-1.492-1.607-3.348-3.08-5.523-3.897-1.87-.736-3.888-.945-5.759-.945-.283 0-.56 0-.83.013m2.046-7.517l-1.526.02-3.045.04-6.097.075-32.138.297c-.331 0-.595.27-.601.601a.61.61 0 0 0 .6.615l32.125.297 6.09.074 3.045.04 1.52.021h.763c.141.014.384.047.594.081 1.782.338 3.558 1.182 5.151 2.236 1.6 1.06 3.059 2.364 4.369 3.802 1.316 1.44 2.491 3.02 3.551 4.681.27.412.52.838.776 1.256.25.42.56.926.865 1.365a17.595 17.595 0 0 0 2.126 2.512c1.567 1.54 3.417 2.77 5.355 3.708 1.937.946 3.97 1.621 6.009 2.141 4.085 1.04 8.21 1.46 12.22 1.939 1.999.243 3.984.493 5.834.918.459.108.911.23 1.344.365.216.068.425.142.627.216.203.081.392.156.628.257.892.392 1.722.79 2.451 1.263 2.876 1.797 4.524 5.437 6.023 9.07 1.465 3.675 2.7 7.518 3.896 11.368 2.369 7.72 4.53 15.548 6.691 23.37l1.613 5.889.405 1.479c.183.669.405 1.189.628 1.723a27.743 27.743 0 0 0 1.513 2.998c.209.365.438.716.661 1.068v.02s.014.02.041.047c.142.216.283.432.432.648.486.872 1.195 2.621 1.404 5.674v5.822l-.02.02c-.013 1.689.203 6.241 2.795 8.369 3.558 2.458 7.562 4.194 11.661 5.295 3.011.824 6.069 1.29 9.135 1.526a1.6 1.6 0 0 0 1.688-1.229 30.61 30.61 0 0 1 .837-3.012 1.298 1.298 0 0 0-1.182-1.716c-3.065-.108-6.103-.459-9.02-1.188-3.768-.912-7.36-2.405-10.506-4.56a28.688 28.688 0 0 1-1.789-1.344c-1.728-1.702-2.188-3.728-2.296-4.876v-8.922c0-4.674-.587-6.248-.736-6.572a.284.284 0 0 1-.033-.068c-.176-.398-.365-.817-.446-1.128l-.432-1.452-1.749-5.829c-2.356-7.787-4.712-15.575-7.305-23.328-1.31-3.877-2.654-7.748-4.294-11.584-.831-1.918-1.742-3.83-2.904-5.694-.6-.925-1.269-1.844-2.066-2.688a12.804 12.804 0 0 0-2.721-2.215c-.992-.608-2.012-1.06-2.991-1.46-.236-.094-.513-.209-.789-.303a22.751 22.751 0 0 0-.817-.263 21.514 21.514 0 0 0-1.607-.392c-2.12-.433-4.18-.635-6.219-.838-4.058-.385-8.048-.709-11.869-1.587-3.802-.864-7.468-2.323-10.196-4.89a14.668 14.668 0 0 1-1.85-2.087c-.283-.392-.513-.75-.79-1.189-.283-.439-.553-.885-.857-1.317-1.168-1.736-2.464-3.397-3.93-4.917-1.458-1.526-3.085-2.918-4.901-4.052-1.816-1.135-3.801-2.047-6.023-2.418-.29-.04-.553-.081-.918-.081h-.763l-.04-.007zm-1.189-6.585h-.5l-.999.02-3.997.047-7.987.095-23.192.182a.682.682 0 0 0-.675.675.68.68 0 0 0 .675.69l23.192.182 7.994.094 3.997.048 1 .013h.499l.223.007.223.013c.614.04 1.242.122 1.863.23a21.076 21.076 0 0 1 7.076 2.634c1.08.648 2.1 1.391 3.031 2.236.46.425.912.864 1.33 1.33.21.23.42.466.615.71l.614.756c1.675 2.114 3.45 4.16 5.402 6.092.986.96 2.005 1.891 3.139 2.75.574.425 1.155.837 1.817 1.208.324.19.675.358 1.046.52.189.075.385.156.608.216.101.034.223.061.358.088.067.014.121.027.216.04.027 0 .054 0 .074.008 1.35.337 2.647.547 3.936.742 1.33.196 2.654.372 3.97.547 2.633.345 5.253.676 7.846 1.081 2.592.399 5.165.858 7.67 1.466 2.484.614 4.969 1.357 7.028 2.499 1.033.574 1.81 1.202 2.627 2.12.796.879 1.526 1.885 2.208 2.939 1.357 2.107 2.518 4.417 3.592 6.767 2.12 4.728 3.862 9.68 5.428 14.684 1.566 5.012 2.95 10.09 4.206 15.197l.919 3.836.438 1.925c.135.628.324 1.358.5 2.04a32.561 32.561 0 0 0 1.438 4.08c.23.52.48 1.033.743 1.539v.007c.169.331.358.655.547.979.391.791.864 1.939.938 3.02v7.314l-.034.034c-.04 1.695.061 5.869 1.871 7.538 3.47 2.573 7.379 4.532 11.444 5.815a21.3 21.3 0 0 0 1.553.473c.52.142 1.04.29 1.566.419 1.053.236 2.1.493 3.167.662 1.154.216 2.309.378 3.463.506a2.123 2.123 0 0 0 2.039-.979c.075-.115.142-.223.196-.311l.264-.405c.216-.338.432-.669.661-1 .102-.142.203-.283.297-.425.081-.122.324-.446.608-.838.527-.716.047-1.729-.837-1.783-1.918-.108-3.842-.236-5.726-.547-.952-.122-1.877-.331-2.815-.513-.466-.102-.918-.223-1.384-.338a18.478 18.478 0 0 1-1.371-.378 33.318 33.318 0 0 1-10.107-4.829c-.655-.467-1.506-1.196-2.296-1.912-1.222-1.33-1.424-2.708-1.458-3.127v-7.835a4.855 4.855 0 0 1-.014-.736c0-.162.007-.311.014-.473v-1.31s.02-.04.027-.061c.04-4.519-.392-6.842-.554-7.53l-.061-.23-.493-1.946-1.019-3.877a262.835 262.835 0 0 0-4.645-15.365c-1.729-5.073-3.619-10.111-5.962-15.008-1.182-2.445-2.464-4.863-4.031-7.18-.79-1.155-1.641-2.29-2.653-3.35a14.073 14.073 0 0 0-1.668-1.526l-.473-.358-.486-.311c-.324-.216-.648-.385-.979-.567-2.633-1.365-5.307-2.054-7.967-2.662-2.667-.58-5.327-.992-7.98-1.337-2.654-.344-5.307-.621-7.94-.905a230.525 230.525 0 0 1-3.923-.446c-1.29-.162-2.586-.35-3.768-.621l-.398-.04h.088-.027c-.034 0-.068-.014-.129-.028-.094-.02-.216-.067-.33-.108a6.67 6.67 0 0 1-.75-.35c-.513-.264-1.026-.616-1.532-.967-1.013-.73-1.979-1.573-2.924-2.451-1.877-1.777-3.646-3.722-5.327-5.748l-.668-.777c-.223-.27-.466-.527-.71-.784-.486-.513-.999-.992-1.532-1.458a21.871 21.871 0 0 0-3.45-2.425 23.167 23.167 0 0 0-7.886-2.729 19.538 19.538 0 0 0-2.107-.21h-.277l-.276-.006.033-.013zm1.08-6.343l-2.248.027-4.503.055-24.644.216a.693.693 0 0 0 0 1.385l24.684.215 4.517.054 2.255.027c.736-.02 1.418 0 2.14.075 2.836.277 5.645 1.141 7.86 2.776.553.412 1.06.857 1.532 1.357l.365.399.405.425.797.824 3.173 3.229 3.194 3.195 1.6 1.593.432.42c.155.148.324.29.486.425.338.27.682.526 1.04.75 1.438.918 2.991 1.479 4.523 1.904 1.54.412 3.079.682 4.605.892l8.973 1.087c2.971.365 5.928.757 8.845 1.263 1.458.25 2.91.54 4.341.865.716.155 1.432.337 2.141.513l1.06.277.979.297c2.579.871 4.949 2.37 6.995 4.255 2.059 1.885 3.808 4.147 5.306 6.579 2.998 4.89 5.017 10.428 6.469 16.088.371 1.419.682 2.85.985 4.29.345 1.593.716 3.005 1.074 4.477l1.08 4.37.52 2.168c.162.703.338 1.459.439 2.053l.013.068.027.101c.426 1.75.851 3.431 1.398 5.214.068.223.142.453.223.69.081.229.189.526.263.715.135.338.27.676.412 1.007.439 1.222 1.067 3.485 1.067 6.403v7.152c-.007.183-.27 5.66 1.776 7.403 2.275 1.709 4.766 3.066 7.339 4.1 4.49 1.81 9.148 2.762 13.78 3.323l3.511.459a1.95 1.95 0 0 0 1.762-.696 183.4 183.4 0 0 0 2.566-3.194 1.066 1.066 0 0 0-.756-1.716l-4.065-.324s-.04-.007-.067-.007c-5.098-.351-10.155-1.135-14.753-2.87-2.296-.858-4.449-1.986-6.367-3.384a23.979 23.979 0 0 1-1.296-1.047c-2.127-1.932-2.201-5.06-2.201-5.06V84.414s.452-4.235-.703-8.497l-.236-.885-1.195-4.363c-.392-1.432-.817-2.925-1.134-4.269a87.083 87.083 0 0 0-1.148-4.478c-1.688-5.923-3.957-11.78-7.386-17.081-1.722-2.641-3.741-5.133-6.172-7.26-2.423-2.122-5.286-3.85-8.432-4.83-.392-.115-.797-.223-1.182-.331l-1.121-.27a63.584 63.584 0 0 0-2.255-.48 86.759 86.759 0 0 0-4.524-.783c-3.018-.453-6.036-.777-9.04-1.067l-8.953-.865c-1.458-.162-2.89-.378-4.267-.716-1.371-.337-2.681-.797-3.801-1.472-.284-.162-.54-.351-.797-.54a5.234 5.234 0 0 1-.371-.311l-.385-.358-1.634-1.547-3.261-3.107-3.228-3.127-.79-.784-.384-.384-.406-.426a14.015 14.015 0 0 0-1.876-1.58c-2.695-1.885-5.881-2.743-9.007-2.972a18.862 18.862 0 0 0-2.37-.02m2.194-5.992l-24.576.244a.757.757 0 0 0-.75.75c0 .418.331.763.75.77 0 0 28.195.27 29.707.324 1.655.067 3.309.216 4.821.614.736.182 1.37.466 2.046.885.662.398 1.29.858 1.864 1.384 1.16 1.04 2.126 2.324 2.977 3.702.844 1.378 1.573 2.89 2.248 4.397.817 1.844 2.174 3.282 3.68 4.404 3.052 2.228 6.826 3.18 10.425 3.201 3.335.128 6.778.304 10.154.493 3.39.196 6.786.419 10.141.723.838.074 1.668.162 2.499.263l1.195.162 1.175.223c1.552.331 3.078.817 4.537 1.439 2.923 1.242 5.597 3.06 7.913 5.261 2.316 2.209 4.274 4.796 5.887 7.605 1.614 2.81 2.856 5.836 3.815 8.956.473 1.58.851 3.12 1.215 4.79l1.162 5.01 2.342 9.963 1.189 5.005.061.223c.276 1.459.54 3.276.627 5.228v9.753s0 .013-.006.02c.02 1.824.25 5.984 1.917 7.787.331.298.662.581 1.013.858 3.059 2.486 6.691 4.107 10.296 5.127 2.748.776 5.51 1.249 8.251 1.56h.027c.864.094 1.729.182 2.586.25h.236l4.342.398a2.555 2.555 0 0 0 2.437-1.276 49.87 49.87 0 0 0 1.499-2.83 1.182 1.182 0 0 0-.972-1.696l-7.015-.499c-.034 0-.075-.014-.108-.014h-.007c-.385-.02-.777-.047-1.161-.074l-.149-.014c-2.91-.216-5.766-.594-8.473-1.29-3.12-.797-6.016-2.04-8.433-3.91-1.58-1.196-2.944-2.668-4.132-4.323-1.04-1.77-1.061-3.424-1.061-3.478V77.01a21.31 21.31 0 0 1 .298-2.445 115.914 115.914 0 0 0 .641-2.965c.054-.21.081-.385.101-.54.061-.318.129-.642.189-.96a5.082 5.082 0 0 0-.081-2.188l-2.018-7.787-1.263-4.924c-.398-1.655-.864-3.418-1.418-5.093-1.121-3.37-2.559-6.653-4.409-9.726-1.85-3.066-4.105-5.916-6.785-8.355-2.674-2.438-5.773-4.437-9.156-5.788a28.232 28.232 0 0 0-5.226-1.527L139 24.49l-1.344-.156c-.864-.08-1.728-.155-2.592-.216-3.437-.236-6.853-.378-10.27-.5-3.43-.114-6.799-.216-10.276-.27a16.905 16.905 0 0 1-4.686-.554c-1.505-.398-2.943-1.04-4.193-1.904-1.242-.872-2.309-1.993-2.903-3.27-.756-1.587-1.546-3.133-2.511-4.646-1.918-2.986-4.625-5.822-8.427-6.835-1.802-.42-3.565-.527-5.313-.561h-1.209c-1.316 0-2.613.02-3.977.04m.466-5.876l-15.522.19a.786.786 0 0 0-.776.776c0 .432.344.79.776.797l15.522.19 7.738.1c2.417.068 4.773.77 6.86 1.986 2.08 1.216 3.909 2.905 5.374 4.843.365.48.709.986.999 1.48v.006l.837 1.662c.601 1.168 1.229 2.357 2.006 3.505.776 1.148 1.728 2.29 2.997 3.168 1.256.891 2.802 1.391 4.274 1.54.372.033.736.054 1.101.06l.972.014 1.938.02 3.875.047 15.502.19a31.757 31.757 0 0 1 14.186 3.41c4.368 2.196 8.183 5.424 11.289 9.227 2.667 3.255 4.8 6.956 6.448 10.853a22.017 22.017 0 0 1 1.127 3.438l2.282 9.335c.257 1.33.52 3.33.52 5.91l.034-.075.094 15.643s-.074 1.85-.411 3.438c-.014.054-.034.115-.048.175-.121.406-.243.81-.371 1.21a1.356 1.356 0 0 0-.088.283c0 .014 0 .02-.007.034a3.94 3.94 0 0 0 .352 3.12v.014c.945 1.627 2.079 3.208 3.47 4.606a19.303 19.303 0 0 0 4.74 3.512c1.735.912 3.558 1.56 5.354 2.026 2.133.54 4.247.879 6.333 1.115.013 0 .027 0 .04.007 1.695.243 6.232.54 10.27.77a1.685 1.685 0 0 0 1.681-1.101 68.706 68.706 0 0 0 1.094-3.337 1.046 1.046 0 0 0-.959-1.35c-3.781-.163-7.751-.332-8.392-.359-3.025-.162-5.996-.425-8.744-1.06-3.011-.703-5.671-1.925-7.724-3.944-1.269-1.216-2.329-2.709-3.241-4.357a9.002 9.002 0 0 0-.189-.351 33.735 33.735 0 0 1-1.08-2.276c-.797-2.189-1.02-4.323-1.02-4.323l-.087-14.744c0-.534 0-1.06-.007-1.574l-.014-1.81-.02-.027c-.175-7.599-.918-12.536-1.37-14.9-.027-.216-.048-.432-.075-.642a12.237 12.237 0 0 0-.587-2.357l-.014-.067h-.013a11.617 11.617 0 0 0-.716-1.594c-1.546-2.81-3.355-5.478-5.462-7.923-3.531-4.12-7.872-7.625-12.822-9.962-4.922-2.344-10.444-3.526-15.812-3.418l-15.543.19-3.882.047-1.944.02-.966.013c-.283 0-.56 0-.837-.027-1.101-.087-2.1-.391-2.978-.979-.884-.574-1.654-1.425-2.349-2.398-.696-.972-1.317-2.066-1.918-3.181l-.452-.844-.23-.44-.114-.222-.081-.149-.075-.121a17.867 17.867 0 0 0-1.208-1.702c-1.709-2.141-3.795-3.992-6.219-5.33-1.215-.655-2.505-1.195-3.848-1.546a16.917 16.917 0 0 0-4.105-.547l-7.785.08.02-.013z" fill="#fff"/></mask><g mask="url(#a)"><path d="M95.868-94.91L-94.404 131.928l223.608 187.695L319.475 92.785 95.868-94.91z" fill="#000"/></g></g><defs><clipPath id="clip0_7464_1754"><path fill="#fff" d="M0 0h225v225H0z"/></clipPath></defs></svg>