<svg xmlns="http://www.w3.org/2000/svg" width="242.238" height="41.317"><g data-name="Group 2913" fill="currentColor"><g data-name="Group 2896"><path data-name="Path 8858" d="M25.678 19.152v.04c.04-.04 0-.04 0-.04"/><path data-name="Path 8859" d="M25.678 19.071"/><path data-name="Path 8861" d="M25.476 18.87"/><path data-name="Path 8862" d="M24.427 16.609"/><path data-name="Path 8863" d="M25.638 19.031"/><path data-name="Path 8864" d="M25.557 18.91"/><path data-name="Path 8865" d="M25.597 18.991"/><path data-name="Path 8866" d="M35.005 22.422c-.686 0-.606-.323-.484-.565.081-.2.444-.283.484-.4a.684.684 0 0 0-.4-.807c-1.211-.525-.323.565-.848.686-.242.081-.242-.121-.444-.081-.283.04-.727.363-.444.727.242.363.4.161.807.444a.593.593 0 0 1 .2.767c-.323.484-.969-.363-1.09-.04-.2.565-.444.525-.606.525-.2 0-.4.04-.606-.525-.121-.323-.767.525-1.09.04a.593.593 0 0 1 .2-.767c.4-.242.565-.081.807-.444.283-.363-.161-.686-.444-.727-.2 0-.2.161-.444.081-.525-.161.363-1.252-.848-.686a.629.629 0 0 0-.4.807c.04.161.4.2.484.4.121.242.2.565-.484.565a.306.306 0 0 0-.2.565c.323.242.686.2.686.444.04.4-.363.363-.323.686.04.242.242.283.363.363a.889.889 0 0 1 .2.646 2.251 2.251 0 0 1 .363.767 2.7 2.7 0 0 0 .565-.646c.081-.2-.081-.2-.2-.323-.2-.161-.727-.686-.525-1.009.323-.484.969.444 1.171.081.2-.323.565.121.525.444-.283 1.857-1.211 1.9-.565 2.382.242.161.848.121.525.727-.4.727-1.453 1.453-.484 1.7.969.283-.04 1.413.767 1.413s-.161-1.171.727-1.413c.929-.283-.121-.969-.484-1.7-.323-.606.242-.525.484-.727.646-.444-.242-.525-.565-2.382-.04-.323.323-.767.525-.444.2.363.848-.565 1.171-.081.2.323-.283.888-.525 1.009-.161.121-.283.121-.2.323a2.026 2.026 0 0 0 .565.646 4.475 4.475 0 0 1 .363-.767.646.646 0 0 1 .2-.646c.121-.081.323-.161.363-.363.081-.363-.323-.283-.323-.686 0-.242.4-.2.686-.444a.306.306 0 0 0-.2-.565"/><path data-name="Path 8868" d="M25.517 18.87l.04.04a.04.04 0 0 1-.04-.04"/><path data-name="Path 8869" d="M24.427 16.609"/><path data-name="Path 8870" d="M25.436 18.789a.04.04 0 0 0 .04.04l-.04-.04"/><path data-name="Path 8871" d="M25.719 19.193"/><path data-name="Path 8872" d="M25.557 18.95l.04.04a.04.04 0 0 0-.04-.04"/><path data-name="Path 8873" d="M25.678 19.112"/><path data-name="Path 8874" d="M25.638 19.071"/><path data-name="Path 8875" d="M25.597 18.991"/><path data-name="Path 8876" d="M35.005 22.422c-.686 0-.606-.323-.484-.565.081-.2.444-.283.484-.4a.684.684 0 0 0-.4-.807c-1.211-.525-.323.565-.848.686-.242.081-.242-.121-.444-.081-.283.04-.727.363-.444.727.242.363.4.161.807.444a.593.593 0 0 1 .2.767c-.323.484-.969-.363-1.09-.04-.2.565-.444.525-.606.525-.2 0-.4.04-.606-.525-.121-.323-.767.525-1.09.04a.593.593 0 0 1 .2-.767c.4-.242.565-.081.807-.444.283-.363-.161-.686-.444-.727-.2 0-.2.161-.444.081-.525-.161.363-1.252-.848-.686a.629.629 0 0 0-.4.807c.04.161.4.2.484.4.121.242.2.565-.484.565a.306.306 0 0 0-.2.565c.323.242.686.2.686.444.04.4-.363.363-.323.686.04.242.242.283.363.363a.889.889 0 0 1 .2.646 2.251 2.251 0 0 1 .363.767 2.7 2.7 0 0 0 .565-.646c.081-.2-.081-.2-.2-.323-.2-.161-.727-.686-.525-1.009.323-.484.969.444 1.171.081.2-.323.565.121.525.444-.283 1.857-1.211 1.9-.565 2.382.242.161.848.121.525.727-.4.727-1.453 1.453-.484 1.7.969.283-.04 1.413.767 1.413s-.161-1.171.727-1.413c.929-.283-.121-.969-.484-1.7-.323-.606.242-.525.484-.727.646-.444-.242-.525-.565-2.382-.04-.323.323-.767.525-.444.2.363.848-.565 1.171-.081.2.323-.283.888-.525 1.009-.161.121-.283.121-.2.323a2.026 2.026 0 0 0 .565.646 4.475 4.475 0 0 1 .363-.767.646.646 0 0 1 .2-.646c.121-.081.323-.161.363-.363.081-.363-.323-.283-.323-.686 0-.242.4-.2.686-.444a.306.306 0 0 0-.2-.565"/><path data-name="Path 8877" d="M35.005 22.422c-.686 0-.606-.323-.484-.565.081-.2.444-.283.484-.4a.684.684 0 0 0-.4-.807c-1.211-.525-.323.565-.848.686-.242.081-.242-.121-.444-.081-.283.04-.727.363-.444.727.242.363.4.161.807.444a.593.593 0 0 1 .2.767c-.323.484-.969-.363-1.09-.04-.2.565-.444.525-.606.525-.2 0-.4.04-.606-.525-.121-.323-.767.525-1.09.04a.593.593 0 0 1 .2-.767c.4-.242.565-.081.807-.444.283-.363-.161-.686-.444-.727-.2 0-.2.161-.444.081-.525-.161.363-1.252-.848-.686a.629.629 0 0 0-.4.807c.04.161.4.2.484.4.121.242.2.565-.484.565a.306.306 0 0 0-.2.565c.323.242.686.2.686.444.04.4-.363.363-.323.686.04.242.242.283.363.363a.889.889 0 0 1 .2.646 2.251 2.251 0 0 1 .363.767 2.7 2.7 0 0 0 .565-.646c.081-.2-.081-.2-.2-.323-.2-.161-.727-.686-.525-1.009.323-.484.969.444 1.171.081.2-.323.565.121.525.444-.283 1.857-1.211 1.9-.565 2.382.242.161.848.121.525.727-.4.727-1.453 1.453-.484 1.7.969.283-.04 1.413.767 1.413s-.161-1.171.727-1.413c.929-.283-.121-.969-.484-1.7-.323-.606.242-.525.484-.727.646-.444-.242-.525-.565-2.382-.04-.323.323-.767.525-.444.2.363.848-.565 1.171-.081.2.323-.283.888-.525 1.009-.161.121-.283.121-.2.323a2.026 2.026 0 0 0 .565.646 4.475 4.475 0 0 1 .363-.767.646.646 0 0 1 .2-.646c.121-.081.323-.161.363-.363.081-.363-.323-.283-.323-.686 0-.242.4-.2.686-.444a.306.306 0 0 0-.2-.565"/><path data-name="Path 8878" d="M35.005 22.422c-.686 0-.606-.323-.484-.565.081-.2.444-.283.484-.4a.684.684 0 0 0-.4-.807c-1.211-.525-.323.565-.848.686-.242.081-.242-.121-.444-.081-.283.04-.727.363-.444.727.242.363.4.161.807.444a.593.593 0 0 1 .2.767c-.323.484-.969-.363-1.09-.04-.2.565-.444.525-.606.525-.2 0-.4.04-.606-.525-.121-.323-.767.525-1.09.04a.593.593 0 0 1 .2-.767c.4-.242.565-.081.807-.444.283-.363-.161-.686-.444-.727-.2 0-.2.161-.444.081-.525-.161.363-1.252-.848-.686a.629.629 0 0 0-.4.807c.04.161.4.2.484.4.121.242.2.565-.484.565a.306.306 0 0 0-.2.565c.323.242.686.2.686.444.04.4-.363.363-.323.686.04.242.242.283.363.363a.889.889 0 0 1 .2.646 2.251 2.251 0 0 1 .363.767 2.7 2.7 0 0 0 .565-.646c.081-.2-.081-.2-.2-.323-.2-.161-.727-.686-.525-1.009.323-.484.969.444 1.171.081.2-.323.565.121.525.444-.283 1.857-1.211 1.9-.565 2.382.242.161.848.121.525.727-.4.727-1.453 1.453-.484 1.7.969.283-.04 1.413.767 1.413s-.161-1.171.727-1.413c.929-.283-.121-.969-.484-1.7-.323-.606.242-.525.484-.727.646-.444-.242-.525-.565-2.382-.04-.323.323-.767.525-.444.2.363.848-.565 1.171-.081.2.323-.283.888-.525 1.009-.161.121-.283.121-.2.323a2.026 2.026 0 0 0 .565.646 4.475 4.475 0 0 1 .363-.767.646.646 0 0 1 .2-.646c.121-.081.323-.161.363-.363.081-.363-.323-.283-.323-.686 0-.242.4-.2.686-.444a.306.306 0 0 0-.2-.565"/><path data-name="Path 8879" d="M25.315 24.728h-.283a5.407 5.407 0 0 1-1.655-.484c-.161.2.242.525-.161.727a1.612 1.612 0 0 1-1.332-.121c-.525-.2-.929-.848-1.13-1.009-.2-.121-.283-.081-.323.242-.04.363-.081 1.05-1.453.807-.283-.04-.606-.484-.646-.646a.3.3 0 0 0-.363-.242c-.2.04-.161.323-.161.565 0 .2-.283.242-.4.242a5.27 5.27 0 0 0-.848-.2c-.323 0-.363.161-.363.242s-.04.161.2.323c.323.2 1.171-.081 1.332.242a1.066 1.066 0 0 1 0 .767c-.04.161-.04.363.161.4.727.081-.04-1.575 2.221-1.09a.789.789 0 0 1 .606.686c.04.2.161.242.283.04a3.9 3.9 0 0 1 .444-.525 1.909 1.909 0 0 1 1.817-.2 1.15 1.15 0 0 1 .525.444c.121.283.081.444.242.4.161 0 .242-.121.363-.4a1.2 1.2 0 0 1 .646-.686 5.319 5.319 0 0 1 .767-.323c.04-.04.081-.121 0-.161a1.394 1.394 0 0 0-.484-.04"/><path data-name="Path 8880" d="M23.417 20.892c.04-.283-.444-.242-.525-.565-.161-.848-.323-1.009-.929-.323-.363.444-1.978-.04-2.18-.565s.04-.888-.444-.848-.2 1.13-1.332.283c-.807-.606-1.292.323-.565.444 1.453.242 1.13.727.969 1.09-.081.161.121.484.444.2a1.667 1.667 0 0 1 1.615-.323c.807.2 1.009.323 1.09.565.161.323 0 .929.242 1.009.444.121.444-.484.727-.646.444-.2.807 0 .888-.323"/><path data-name="Path 8881" d="M25.072 29.291a2.982 2.982 0 0 1-.767.121 1.367 1.367 0 0 1-1.09-.444c-.2-.242-.363-.242-.444-.2-.242.121.283.848-.323 1.05-.283.081-1.373.323-1.857-.2s-.606-.484-.727-.444c-.4.2.04.686-.242.929-.363.283-1.494-.2-1.494.323s.727.242.969.121c.444-.2.929.04.929.242s.04.767.242.727c.2 0 .484-.444.565-.606.2-.323.565-.686 1.655-.686 0 0 .565 0 .606.283.04.323 0 .807.242.767s.283-.525.363-.686a1.809 1.809 0 0 1 1.09-.848c.484-.161.565-.242.484-.4a.211.211 0 0 0-.2-.04"/><path data-name="Path 8882" d="M39.082 29.327c-.161.121-.04.242.04.242.081.04.242.081.444.161.767.283 1.05.686 1.09.848.081.161.121.646.363.686s.2-.484.242-.767c.04-.323.606-.283.606-.283a1.755 1.755 0 0 1 1.655.686c.081.121.363.565.565.606.2 0 .242-.525.283-.727 0-.2.484-.444.929-.242.242.121.969.4.969-.121s-1.13-.04-1.494-.323c-.283-.242.161-.727-.242-.929-.121-.04-.242-.081-.727.444s-1.575.283-1.857.2c-.606-.2-.081-.888-.323-1.05-.081-.04-.242-.04-.444.2a1.312 1.312 0 0 1-1.09.444 2.982 2.982 0 0 1-.767-.121.3.3 0 0 0-.242.04"/><path data-name="Path 8883" d="M38.436 24.928a6.642 6.642 0 0 1 .807.283 1.2 1.2 0 0 1 .646.686c.121.283.2.4.363.4s.121-.121.242-.4a.836.836 0 0 1 .525-.444 1.909 1.909 0 0 1 1.817.2 3.9 3.9 0 0 1 .444.525c.121.2.283.161.283-.04a.919.919 0 0 1 .606-.686c2.261-.484 1.494 1.171 2.221 1.09.242-.04.2-.2.161-.4a1.066 1.066 0 0 1 0-.767c.161-.363 1.009-.04 1.332-.242.242-.121.2-.2.2-.323 0-.081-.081-.242-.363-.242a5.27 5.27 0 0 0-.848.2c-.121 0-.363 0-.4-.242 0-.2 0-.525-.161-.565-.2-.04-.283.081-.363.242-.04.161-.363.606-.646.646-1.373.242-1.453-.444-1.453-.807-.04-.363-.121-.4-.323-.242-.2.121-.606.767-1.13 1.009a1.61 1.61 0 0 1-1.332.121c-.4-.2 0-.525-.121-.727a6.954 6.954 0 0 1-1.655.484h-.283c-.121 0-.525-.04-.606-.04a.173.173 0 0 0 .04.283"/><path data-name="Path 8884" d="M41.746 21.251a1.041 1.041 0 0 1 .323.525.35.35 0 0 0 .484.121c.242-.121.04-.686.2-1.009.121-.242.323-.363 1.09-.565a1.567 1.567 0 0 1 1.615.323c.323.283.525-.04.444-.2-.161-.363-.444-.888 1.009-1.09.727-.121.283-1.05-.565-.444-1.13.807-.848-.242-1.332-.283s-.242.283-.444.848c-.2.525-1.817 1.009-2.18.565-.888-1.009-.807-.04-1.009.4-.081.2-.525.242-.525.484.121.283.606.081.888.323"/><path data-name="Path 8885" d="M31.976 13.217a.215.215 0 0 0 .2.161c.161 0 .2-.081.2-.161.04-.484.2-.686.686-.767.242-.081.444-.121.363-.283-.081-.242-.686-.121-.888-.363-.686-1.009 1.575-1.494 1.171-2.1-.121-.2-.767-.081-1.09-.2-.323-.161-.2-.686-.121-.929.04-.283-.04-.484-.363-.484-.283 0-.4.2-.363.484.04.242.2.807-.121.929-.323.161-.969 0-1.09.2-.4.606 1.857 1.09 1.171 2.1-.161.283-.807.121-.888.363-.04.2.121.242.363.283.525.081.727.283.767.767"/></g><g data-name="Group 2897"><path data-name="Path 8886" d="M37.102 15.033c.121-.4-.525-.646-.121-1.009.484-.484.929.121 1.211-.363.2-.363-.363-.525-.242-1.13.121-.646.565-1.09 1.252-.848.646.242 1.009-.2.888-.363-.2-.242-.565-.161-.686-.363-.161-.283.04-.565.323-.767.727-.525-.606-1.05-.565-.161a.622.622 0 0 1-.848.484c-.727-.4-1.171-.04-.525.565.484.484.081.848-.283 1.009s-.727-.081-.888.081c-.2.161-.283.444.04 1.05.283.484-.283 1.373-1.211 1.413-.242 0-.565-.121-.848.161-.242.242.2.4.283.888.121.565-.565 1.252-.323 1.413.2.121.606-.929.929-1.211.727-.727 1.453-.363 1.615-.848"/><path data-name="Path 8887" d="M55.311 25.975v-9.124c0-.121.565-12.273-10.981-15.705a25.8 25.8 0 0 0-19.9 1.938V1.226H0v11.587h9.165v13.123H0v11.708h26.929a4.1 4.1 0 0 0 2.786-1.09 2.792 2.792 0 0 0 .646-.888h3.512a4.57 4.57 0 0 0 .4.525 5.123 5.123 0 0 0 3.957 1.453h25.92V25.936h-8.839zM30.6 30.86v4.239h-.969v-4.926a2.26 2.26 0 0 0 .969.323v.363m1.332 4.239h-.969v-3.391a1.474 1.474 0 0 0 .969.484zm1.453 0h-.965v-2.907a1.38 1.38 0 0 0 .969-.484zm1.373 0h-.969v-4.6a1.968 1.968 0 0 0 .969-.323zm-.929-7.832c-.565.283 1.09 1.7.727 2.3-.525.565-1.373.161-1.413.606-.04.363.121 1.453-.969 1.453-1.13 0-.969-1.09-.969-1.453-.04-.444-.848-.04-1.413-.606-.363-.606.606-1.292.807-2.059a.209.209 0 0 0-.121-.283c-.242-.081-.606.242-.807.525a1.511 1.511 0 0 0-.323.727 4.824 4.824 0 0 1-2.624 3.27s-.727.121-.807-.565-.4-.606-.525-.565a1.3 1.3 0 0 0-.565.525c-.161.323-.888 1.534-1.776 1.575s-.686-1.05-.686-1.05a.3.3 0 0 0-.2-.4.52.52 0 0 0-.646.2c-.121.2-.888 1.332-1.776 1.332s-.686-.929-.565-1.09c.2-.283.444-1.09-1.13-.4-.929.4-1.171-.283-1.171-.848s.2-1.332.807-1.332c0 0 .484 0 .606.242a.329.329 0 0 0 .484.121c.081-.04.161-.242.081-.565-.081-.283-.04-.969.363-1.05a1 1 0 0 1 1.009.565 1.125 1.125 0 0 0 1.05.444.541.541 0 0 0 .444-.606c-.081-.363.121-1.05.565-1.05.484 0 .565.363.727.646a.968.968 0 0 0 1.13.444c.161-.04.606-.2.565-.444 0-.4-.646-.081-.969-.081a.72.72 0 0 1-.606-.888c.04-.242.121-.686-.283-.888-.444-.2-1.09.929-1.252 1.13a1.219 1.219 0 0 1-1.13.646c-.444-.081-.444-.686-.4-.888a.628.628 0 0 0-.363-.767c-.686-.161-1.05.807-1.252 1.171a.929.929 0 0 1-1.292.363c-.525-.323-.283-1.09-.242-1.292a2.31 2.31 0 0 0-.04-.565c-.161-.242-.484-.04-.929.04-.606.081-.807-.807-.807-1.252-.04-1.494 1.009-1.13 1.171-1.05a.747.747 0 0 0 .565.081c.161-.081.121-.283.121-.565.04-.323.121-.807.606-.848a.968.968 0 0 1 1.13.767c.081.283.2.4.484.4.2 0 .283-.121.283-.363 0-.323-.444-1.05.323-1.171.484-.081.767.767 1.494 1.373.283.242.969.767 1.211.283a.566.566 0 0 0 0-.444.318.318 0 0 0-.4-.2c-.565.161-1.211-.444-1.413-.969-.121-.444-.121-.525-.363-.686a.761.761 0 0 0-.848.161 2.477 2.477 0 0 1-1.857.444.652.652 0 0 1-.4-1.009c.2-.283.444-.646.121-.888a.507.507 0 0 0-.606-.081c-.323.081-1.171-.161-.969-1.292.2-1.09.929-1.13 1.211-1.09.323.04 1.252 1.009 1.453.04a.83.83 0 0 1 .807-.686 1.092 1.092 0 0 1 .929.686c.081.283.242 1.453 1.09 1.494.646.04 1.009-.444 1.736-.323.363.04.565.4.646.767a.826.826 0 0 0 .686.606.969.969 0 0 0 .484 0 1.016 1.016 0 0 0 .848-.929v-.202a.04.04 0 0 0-.04-.04v-.04l-.04-.04-.04-.04-.04-.04a2.237 2.237 0 0 0-.565-.525 1.858 1.858 0 0 1-.525-.888 1.351 1.351 0 0 1 .04-.727v-.04c.04-.2-.081-.444-.444-.283a.769.769 0 0 1-.727-.04c-.848-.727-.525-1.171-.2-1.534.161-.2.121-.727-.283-.484a.726.726 0 0 1-1.13-.525c-.081-.242-.161-.525-.525-.323-.2.121-.161.363.081.646a.639.639 0 0 1-.04 1.05c-.323.161-.121.606.363.525a1.016 1.016 0 0 1 1.009.4c.363.4.484.565.363.888-.081.283-.525.363-.363.646.121.242 1.05-.2 1.453.161a3.824 3.824 0 0 1 .888 1.494s.04.283-.081.363-.4.04-.525-.283a1.606 1.606 0 0 0-.888-.969 5.163 5.163 0 0 0-1.373.04c-1.13 0-.929-.888-.525-1.09.525-.283 0-.888-.484-.727s-1.373.04-1.615-.484a.858.858 0 0 1 .565-1.13c.484-.2.888-.686.363-1.13-.283-.242-1.09-.969.121-1.575 1.05-.525 1.615.2 1.615.686 0 .363.363.848 1.05.283.2-.161.888-.444 1.171-.121.444.444-.121 1.05-.242 1.413-.323.767.363.767.606.565.081-.081.525-.363.848-.121a.4.4 0 0 1 .161.2 1.62 1.62 0 0 1 .121.606c0 .444.283.444.4.323a2.979 2.979 0 0 0 .121-.969.515.515 0 0 0-.444-.646c-.242-.04-.686.04-.929-.4a.569.569 0 0 1 .2-.807.374.374 0 0 0 .161-.484c-.081-.242-.484-.323-1.211-.283a1.194 1.194 0 0 1-1.05-.323c-.606-.686.484-1.211.686-1.332.606-.4 0-.606-.2-.929-.484-.807 1.534-1.736 2.14-1.13.283.283.2.767.484.807a.689.689 0 0 0 .686-.2 1.113 1.113 0 0 1 1.13-.2c.606.242.242.807.081 1.05-.2.323-.121.525.081.565.161.081.767-.363 1.009.121.081.161-.081.444-.283.848a1.5 1.5 0 0 0 .081 1.534c.444.484 1.009.081 1.413.323.121.081.565.363.767.161.283-.323-.04-.807-.484-.767-.767.081-1.211-.283-1.252-.686-.04-.283.081-1.09.767-1.09a.525.525 0 0 0 .484-.242s.081-.283-.4-.444-1.252-.565-1.171-1.171a1.194 1.194 0 0 1 1.575-.686c.363.121.767-.081.565-.484s-.363-1.211 1.009-1.211c1.413 0 1.211.807 1.009 1.211s.2.606.565.484a1.179 1.179 0 0 1 1.575.686c.121.606-.686 1.009-1.171 1.171s-.4.444-.4.444a.525.525 0 0 0 .484.242c.686 0 .807.807.767 1.09-.081.444-.484.727-1.252.686-.646-.04-.767.606-.525.727.2.161.646-.04.767-.161.4-.283.969.121 1.413-.323a1.5 1.5 0 0 0 .081-1.534c-.2-.4-.363-.686-.283-.848.242-.484.848-.081 1.009-.121.2-.081.283-.283.081-.565-.161-.242-.525-.807.081-1.05a1.064 1.064 0 0 1 1.13.2.689.689 0 0 0 .686.2c.283-.081.2-.525.484-.807.606-.606 2.624.323 2.14 1.13-.2.323-.807.565-.2.929.2.161 1.292.646.686 1.332a1.092 1.092 0 0 1-1.05.323c-.727-.081-1.13 0-1.211.283-.081.242-.04.363.161.484a.588.588 0 0 1 .2.807c-.242.444-.686.363-.929.4-.565.081-.484.565-.4.969a.3.3 0 0 0 .242.2.224.224 0 0 0 .283-.121c.081-.283.081-.4.283-.565.323-.242.767.04.848.121.2.2.888.2.606-.565-.161-.363-.686-.969-.242-1.413.283-.283.969-.04 1.171.121.646.525 1.009.081 1.05-.283 0-.484.565-1.171 1.615-.686 1.252.606.4 1.292.121 1.575-.525.484-.121.929.363 1.13a.9.9 0 0 1 .565 1.13c-.242.525-1.13.646-1.615.484-.525-.161-1.05.444-.484.727.4.2.606 1.09-.525 1.09a3.862 3.862 0 0 0-1.373-.04 1.871 1.871 0 0 0-.888.969.394.394 0 0 1-.525.283c-.121-.081-.081-.363-.081-.363a3.665 3.665 0 0 1 .888-1.494c.4-.4 1.292.04 1.453-.161.161-.242-.242-.363-.363-.646-.121-.323 0-.484.363-.888a.971.971 0 0 1 1.009-.4c.484.081.686-.363.363-.525a.639.639 0 0 1-.04-1.05c.283-.283.283-.525.081-.646-.323-.2-.444.081-.525.323a.726.726 0 0 1-1.13.525c-.4-.242-.444.323-.283.484.323.363.646.807-.2 1.534a.775.775 0 0 1-.727.04c-.444-.2-.525.121-.4.363a1.27 1.27 0 0 1 .04.686 3.6 3.6 0 0 1-.525.888 4.6 4.6 0 0 0-.807.929c-.121.323.323.888.807 1.009a.918.918 0 0 0 1.171-.606.821.821 0 0 1 .646-.767c.727-.121 1.09.363 1.736.323.848-.04 1.009-1.211 1.09-1.494a1.092 1.092 0 0 1 .929-.686.8.8 0 0 1 .807.686c.2.969 1.13.04 1.453-.04.323-.04 1.009 0 1.211 1.09s-.646 1.373-.969 1.292a.506.506 0 0 0-.606.081c-.323.242-.04.565.121.888a.645.645 0 0 1-.4 1.009 2.764 2.764 0 0 1-1.857-.444c-.242-.2-.606-.363-.848-.161-.242.161-.2.242-.363.686-.161.565-.606.888-1.413.969a.449.449 0 0 0-.4.242.566.566 0 0 0 0 .444c.2.484.929-.081 1.211-.283.727-.565 1.009-1.413 1.494-1.373.767.121.323.807.323 1.171 0 .242.081.363.283.363.283 0 .4-.121.484-.4a1 1 0 0 1 1.13-.767c.484 0 .565.525.606.848s-.04.525.121.565a.51.51 0 0 0 .565-.081c.161-.081 1.171-.444 1.171 1.05 0 .484-.2 1.332-.807 1.252-.444-.081-.807-.283-.929-.04a.834.834 0 0 0-.04.565c0 .2.283.969-.242 1.292a.929.929 0 0 1-1.292-.363c-.2-.363-.565-1.373-1.252-1.171a.628.628 0 0 0-.363.767c.04.2.04.848-.4.888a1.219 1.219 0 0 1-1.13-.646c-.121-.2-.807-1.332-1.252-1.13s-.323.646-.283.888-.04.848-.606.888a1.176 1.176 0 0 1-.727-.121c-.121-.04-.242 0-.242.161 0 .242.444.484.606.484a.969.969 0 0 0 1.13-.444c.161-.283.242-.646.727-.646.444 0 .646.646.565 1.05a.5.5 0 0 0 .444.606.979.979 0 0 0 1.05-.444.977.977 0 0 1 1.009-.565c.444.081.444.767.363 1.05a.557.557 0 0 0 .081.565.372.372 0 0 0 .525-.121c.161-.283.606-.242.606-.242.606.04.807.767.807 1.332s-.242 1.252-1.171.848c-1.575-.646-1.332.121-1.13.4.121.161.323 1.09-.565 1.09s-1.615-1.13-1.776-1.332a.48.48 0 0 0-.646-.2.3.3 0 0 0-.2.4s.2 1.09-.686 1.05-1.615-1.292-1.776-1.575a1.258 1.258 0 0 0-.565-.525c-.121-.04-.4-.121-.525.565-.081.686-.807.565-.807.565a4.844 4.844 0 0 1-2.624-3.27c-.161-.727-.888-1.413-1.252-1.292m28.786 8.842h-24.3a3.671 3.671 0 0 1-2.786-.929.709.709 0 0 1-.161-.2v-4.32a4.482 4.482 0 0 0 2.059 1.655l.081.04h.323a1.241 1.241 0 0 0 1.252-.848c.484.848 1.252 1.817 2.261 1.857a1.176 1.176 0 0 0 1.05-.444 1.107 1.107 0 0 0 .283-.727 2.813 2.813 0 0 0 2.019 1.211 1.152 1.152 0 0 0 1.13-.646 1.66 1.66 0 0 0 .121-.969c.04.04.121.04.2.081a1.37 1.37 0 0 0 1.615-.2 1.708 1.708 0 0 0 .444-1.252c-.04-1.09-.565-1.857-1.332-1.938a1.22 1.22 0 0 0 .646-.2 1.6 1.6 0 0 0 .565-1.817.6.6 0 0 0 .283.04h.161c.807 0 1.332-.929 1.373-1.776v-.121c-.081-1.575-.969-1.736-1.373-1.736a1.792 1.792 0 0 0-.525.081 1.446 1.446 0 0 0-.4-.969.879.879 0 0 0 .2-.323 1.385 1.385 0 0 0-.121-1.13h.081a1.419 1.419 0 0 0 1.09-.525 1.729 1.729 0 0 0 .323-1.494c-.283-1.494-1.332-1.615-1.655-1.615a.688.688 0 0 0-.283.04 1.252 1.252 0 0 0-.525.242.882.882 0 0 1-.2.121 1.508 1.508 0 0 0-.888-.969.04.04 0 0 1 .04-.04 1.479 1.479 0 0 0-.888-1.938.884.884 0 0 1-.2-.121l.04-.04a1.386 1.386 0 0 0-.323-2.543 2.15 2.15 0 0 0-.969-.242 1.64 1.64 0 0 0-1.09.4v-.283a1.669 1.669 0 0 0-.929-1.13.515.515 0 0 0 .161-.242 1.034 1.034 0 0 0 0-1.171 2.547 2.547 0 0 0-2.1-1.09 1.313 1.313 0 0 0-1.05.4 1.656 1.656 0 0 0-.323.565 1.8 1.8 0 0 0-1.13-.4 1.475 1.475 0 0 0-.606.121 1.2 1.2 0 0 0-.444.283 1.837 1.837 0 0 0-1.575-.848.687.687 0 0 0-.283.04 1.321 1.321 0 0 0-.161-.969 1.73 1.73 0 0 0-1.575-.686h-.04a1.808 1.808 0 0 0-1.615.686 1.477 1.477 0 0 0-.161.929c-.081 0-.2-.04-.283-.04a1.751 1.751 0 0 0-1.575.848 1.2 1.2 0 0 0-.444-.283 1.62 1.62 0 0 0-.606-.121 1.9 1.9 0 0 0-1.13.4 1.656 1.656 0 0 0-.323-.565 1.462 1.462 0 0 0-1.05-.4 2.6 2.6 0 0 0-2.1 1.09 1.207 1.207 0 0 0 0 1.171c.04.081.121.161.161.242a1.779 1.779 0 0 0-.929 1.13v.283a1.64 1.64 0 0 0-1.09-.4 2.15 2.15 0 0 0-.969.242 1.61 1.61 0 0 0-1.009 1.13 1.7 1.7 0 0 0 .686 1.413l.04.04a.881.881 0 0 1-.2.121 1.465 1.465 0 0 0-.888 1.938.04.04 0 0 0 .04.04 1.508 1.508 0 0 0-.888.969.883.883 0 0 1-.2-.121 1.968 1.968 0 0 0-.525-.242c-.081 0-.2-.04-.283-.04-.323 0-1.373.121-1.655 1.615a1.826 1.826 0 0 0 .323 1.494 1.484 1.484 0 0 0 1.09.525h.081a1.26 1.26 0 0 0-.121 1.13.879.879 0 0 0 .2.323 1.67 1.67 0 0 0-.4.969 1.791 1.791 0 0 0-.525-.081c-.363 0-1.373.242-1.373 1.736 0 1.09.565 1.9 1.373 1.9h.161c.081 0 .2-.04.283-.04a1.611 1.611 0 0 0 .565 1.817 1.34 1.34 0 0 0 .646.2c-.767.081-1.292.848-1.332 1.938a1.761 1.761 0 0 0 .444 1.252 1.37 1.37 0 0 0 1.615.2c.081-.04.121-.04.2-.081a1.367 1.367 0 0 0 .121.969 1.2 1.2 0 0 0 1.13.646 2.9 2.9 0 0 0 2.019-1.211 1.813 1.813 0 0 0 .283.727 1.163 1.163 0 0 0 .969.444h.081c1.05-.04 1.817-1.05 2.261-1.857a1.209 1.209 0 0 0 1.252.848h.323l.081-.04a4.482 4.482 0 0 0 2.059-1.655v4.36a1.581 1.581 0 0 1-.323.4 2.515 2.515 0 0 1-1.736.646H1.615v-8.519h9.165V11.198H1.615V2.76h21.2v3.23l1.252-.888a24.225 24.225 0 0 1 19.778-2.466c10.336 3.068 9.891 13.646 9.851 14.131v10.739h8.922z"/></g><g data-name="Group 2898"><path data-name="Path 8888" d="M35.003 22.422c-.686 0-.606-.323-.484-.565.081-.2.444-.283.484-.4a.684.684 0 0 0-.4-.807c-1.211-.525-.323.565-.848.686-.242.081-.242-.121-.444-.081-.283.04-.727.363-.444.727.242.363.4.161.807.444a.593.593 0 0 1 .2.767c-.323.484-.969-.363-1.09-.04-.2.565-.444.525-.606.525-.2 0-.4.04-.606-.525-.121-.323-.767.525-1.09.04a.593.593 0 0 1 .2-.767c.4-.242.565-.081.807-.444.283-.363-.161-.686-.444-.727-.2 0-.2.161-.444.081-.525-.161.363-1.252-.848-.686a.629.629 0 0 0-.4.807c.04.161.4.2.484.4.121.242.2.565-.484.565a.306.306 0 0 0-.2.565c.323.242.686.2.686.444.04.4-.363.363-.323.686.04.242.242.283.363.363a.889.889 0 0 1 .2.646 2.251 2.251 0 0 1 .363.767 2.7 2.7 0 0 0 .565-.646c.081-.2-.081-.2-.2-.323-.2-.161-.727-.686-.525-1.009.323-.484.969.444 1.171.081.2-.323.565.121.525.444-.283 1.857-1.211 1.9-.565 2.382.242.161.848.121.525.727-.4.727-1.453 1.453-.484 1.7.969.283-.04 1.413.767 1.413s-.161-1.171.727-1.413c.929-.283-.121-.969-.484-1.7-.323-.606.242-.525.484-.727.646-.444-.242-.525-.565-2.382-.04-.323.323-.767.525-.444.2.363.848-.565 1.171-.081.2.323-.283.888-.525 1.009-.161.121-.283.121-.2.323a2.026 2.026 0 0 0 .565.646 4.475 4.475 0 0 1 .363-.767.646.646 0 0 1 .2-.646c.121-.081.323-.161.363-.363.081-.363-.323-.283-.323-.686 0-.242.4-.2.686-.444a.306.306 0 0 0-.2-.565"/><path data-name="Path 8889" d="M29.836 17.094c.283-.081-.363-.888-.283-1.373.081-.525.525-.646.283-.929-.283-.283-.606-.161-.848-.161-.969-.04-1.494-.929-1.211-1.413.363-.646.242-.929.04-1.05-.161-.121-.525.121-.888-.081-.363-.161-.767-.565-.283-1.009.646-.606.161-.969-.525-.565-.283.161-.888-.081-.888-.484 0-.888-1.292-.363-.565.161.283.2.484.484.323.767-.081.2-.484.121-.686.363-.161.161.242.606.888.363.686-.242 1.13.2 1.252.848.121.606-.484.767-.242 1.13.283.484.727-.121 1.211.363.363.363-.283.606-.121 1.009.161.484.848.161 1.655.888.283.242.646 1.211.888 1.171"/><path data-name="Path 8890" d="M27.494 19.153a4.13 4.13 0 0 0 1.171-1.009.333.333 0 0 1 .606.04 1.239 1.239 0 0 1-.161 1.373 1.387 1.387 0 0 1-1.736.081s-.363-.242.121-.484"/><path data-name="Path 8891" d="M27.292 18.91a2.456 2.456 0 0 0 1.09-1.009.549.549 0 0 0-.2-.646c-.363-.323-1.373-.969-2.1-.484s.4 1.817.484 1.938a.574.574 0 0 0 .727.2"/><path data-name="Path 8892" d="M26.202 23.27a3.345 3.345 0 0 0 .081-1.453s-.121-.525.484-.323a1.341 1.341 0 0 1 .929 1.09 1.254 1.254 0 0 1-1.171 1.13c-.04-.04-.484 0-.323-.444"/><path data-name="Path 8893" d="M25.838 23.23a2 2 0 0 0 0-1.413s-.121-.323-.646-.323-1.736.161-1.9.969c-.121.807 1.7 1.09 1.857 1.09.2 0 .525.04.686-.323"/><path data-name="Path 8894" d="M28.543 27.186a4.115 4.115 0 0 0-1.129-1.009s-.484-.283.04-.525a1.673 1.673 0 0 1 1.494.081 1.075 1.075 0 0 1 .121 1.534c.04 0-.242.323-.525-.081"/><path data-name="Path 8895" d="M28.301 27.348a2.485 2.485 0 0 0-1.13-.969.607.607 0 0 0-.686.2c-.363.363-1.05 1.252-.484 1.9s2.019-.4 2.14-.484a.479.479 0 0 0 .161-.646"/><path data-name="Path 8896" d="M36.901 19.153a4.13 4.13 0 0 1-1.171-1.009.333.333 0 0 0-.606.04 1.239 1.239 0 0 0 .161 1.373 1.387 1.387 0 0 0 1.736.081c-.04 0 .323-.242-.121-.484"/><path data-name="Path 8897" d="M37.102 18.91a2.456 2.456 0 0 1-1.09-1.009.549.549 0 0 1 .2-.646c.363-.323 1.373-.969 2.1-.484s-.4 1.817-.484 1.938a.615.615 0 0 1-.727.2"/><path data-name="Path 8898" d="M38.193 23.27a3.345 3.345 0 0 1-.081-1.453s.121-.525-.484-.323a1.341 1.341 0 0 0-.929 1.09 1.264 1.264 0 0 0 1.211 1.13c0-.04.444 0 .283-.444"/><path data-name="Path 8899" d="M38.515 23.23a2 2 0 0 1 0-1.413s.121-.323.646-.323 1.736.161 1.9.969c.121.807-1.7 1.09-1.857 1.09a.634.634 0 0 1-.686-.323"/><path data-name="Path 8900" d="M35.81 27.186a4.115 4.115 0 0 1 1.13-1.009s.484-.283-.04-.525a1.673 1.673 0 0 0-1.494.081 1.075 1.075 0 0 0-.121 1.534c-.04 0 .242.323.525-.081"/><path data-name="Path 8901" d="M36.053 27.348a2.485 2.485 0 0 1 1.13-.969.607.607 0 0 1 .686.2c.363.363 1.05 1.252.484 1.9s-2.019-.4-2.14-.484a.521.521 0 0 1-.161-.646"/><path data-name="Path 8902" d="M32.177 14.389c-.727 0-1.13 1.413-1.13 1.575a.573.573 0 0 0 .444.727 2.234 2.234 0 0 0 .646.081h.04a2.234 2.234 0 0 0 .646-.081.589.589 0 0 0 .444-.727c.04-.161-.363-1.534-1.09-1.575"/><path data-name="Path 8903" d="M32.177 18.306a1.046 1.046 0 0 1-1.171-1.05s-.04-.4.444-.283a3.31 3.31 0 0 0 1.453 0c.484-.121.444.283.444.283a1.014 1.014 0 0 1-1.13 1.05"/><path data-name="Path 8904" d="M31.894 19.031c.04 0 .081-.04.121-.04h.242c.081 0 .2.04.2.081.04.121.04.283.081.4v.242c.081 1.009.2 1.575-.363 1.575-.525 0-.484-.484-.4-1.292a2.891 2.891 0 0 1 .121-.969"/><path data-name="Path 8905" d="M87.246 2.317h-6.339v2.1h1.817v8.6h-.04l-5.568-10.7h-6.1v2.1h1.817v10.174h-1.817v2.1h6.339v-2.1h-1.776v-9h.04l5.854 11.1h4V4.417h1.776z"/><path data-name="Path 8906" d="M92.172 17.012a5.451 5.451 0 1 0-5.491-5.45 5.118 5.118 0 0 0 5.491 5.45m0-8.842c1.857 0 2.463 1.736 2.463 3.351s-.606 3.351-2.463 3.351-2.463-1.736-2.463-3.351.606-3.351 2.463-3.351"/><path data-name="Path 8907" d="M99.277 14.065a3 3 0 0 0 3.189 2.947c2.463 0 3.311-1.252 3.23-3.593h-1.774c0 .444-.04 1.534-.888 1.534s-.848-.807-.848-1.575V8.412h2.745V6.434h-2.745V3.407l-2.907 1.05v2.019h-1.657v1.978h1.655v5.612z"/><path data-name="Path 8908" d="M107.432 14.065a3.024 3.024 0 0 0 3.189 2.947c2.463 0 3.311-1.252 3.23-3.593h-1.774c0 .444-.04 1.534-.888 1.534s-.848-.807-.848-1.575V8.412h2.745V6.434h-2.745V3.407l-2.907 1.05v2.019h-1.657v1.978h1.655v5.612z"/><path data-name="Path 8909" d="M120.472 14.712h-1.413V6.395h-4.36v1.978h1.413v6.339h-1.413v1.983h5.773z"/><path data-name="Rectangle 1853" d="M115.991 1.994h3.028v2.907h-3.028z"/><path data-name="Path 8910" d="M127.134 14.712h-1.332v-3.755c0-1.332.646-2.786 2.221-2.786a1.893 1.893 0 0 1 1.817 2.059v4.482h-1.332v1.978h5.693v-1.978h-1.419V10.15c0-2.584-.929-4.037-3.674-4.037a3.927 3.927 0 0 0-3.512 2.059h-.04V6.436h-4.074v1.976h1.413v6.3h-1.413v1.978h5.652z"/><path data-name="Path 8911" d="M142.678 7.969h-.04a3.693 3.693 0 0 0-3.351-1.857c-3.311 0-4.724 2.382-4.724 5.41 0 2.624 1.615 5.006 4.4 5.006a3.938 3.938 0 0 0 3.472-1.494v1.171a2.425 2.425 0 0 1-2.221 2.543c-.929 0-1.817-.161-1.9-1.413h-3.23c.161 2.422 1.736 3.391 4.8 3.391 4.118 0 5.45-2.382 5.45-5.006V8.372h1.413V6.394h-4.078zm-2.584 6.5c-1.655 0-2.5-1.413-2.5-3.028s.686-3.189 2.543-3.189c1.817 0 2.463 1.534 2.463 3.109 0 1.655-.727 3.109-2.5 3.109"/><path data-name="Path 8912" d="M152.529 14.711h-1.333v-4a2.546 2.546 0 0 1 2.382-2.543c.686 0 1.615.363 1.615 2.14v4.4h-1.332v1.978h5.693v-1.978h-1.418V9.863c0-2.5-1.252-3.755-3.674-3.755a3.329 3.329 0 0 0-3.23 1.817h-.04V2.034h-4.356v1.978h1.413v10.7h-1.413v1.978h5.693v-1.978z"/><path data-name="Path 8913" d="M166.135 10.23c-2.584 0-5.975.081-5.975 3.472a3.275 3.275 0 0 0 3.593 3.311 3.437 3.437 0 0 0 3.391-1.817h.04v1.494h4.037v-1.978h-1.331v-4.118c0-3.109-1.09-4.522-4.4-4.522-2.422 0-4.845.484-5.006 3.432h2.745c.081-1.171.807-1.655 1.938-1.655 1.09 0 1.978.363 1.978 1.575v.807h-1.009zm-1.655 4.8a1.382 1.382 0 0 1-1.575-1.413c0-1.373 1.332-1.615 2.826-1.615h1.413a2.63 2.63 0 0 1-2.665 3.028"/><path data-name="Path 8914" d="M177.924 14.712h-1.333v-3.755c0-1.332.646-2.786 2.221-2.786a1.893 1.893 0 0 1 1.817 2.059v4.481h-1.332v1.978h5.572v-1.977h-1.338v-3.876c0-1.373.686-2.665 2.261-2.665 1.332 0 1.776.929 1.776 2.059v4.481h-1.332v1.978h5.652v-1.977h-1.413V9.423c-.081-2.382-1.615-3.351-3.876-3.351a3.512 3.512 0 0 0-3.311 1.9 3.4 3.4 0 0 0-3.432-1.9 3.883 3.883 0 0 0-3.512 2.059h-.04V6.395h-4.073v1.977h1.413v6.339h-1.413v1.978h5.652v-1.977z"/><path data-name="Path 8915" d="M198.918 13.823c0 .969-.888 1.171-1.534 1.171a1.954 1.954 0 0 1-2.18-1.938h-2.3v3.634h2.18V15.6h.04a3.467 3.467 0 0 0 3.068 1.413 3.4 3.4 0 0 0 3.674-3.311c0-4.522-6.1-2.422-6.1-4.522 0-.969.969-1.09 1.575-1.09 1.09 0 1.9.525 1.9 1.736h2.3V6.435h-2.22v1.09h-.04a2.959 2.959 0 0 0-2.786-1.373c-1.857 0-3.714 1.009-3.714 3.149.081 4.522 6.137 2.382 6.137 4.522"/><path data-name="Path 8916" d="M208.284 14.711h-1.333v-4a2.546 2.546 0 0 1 2.382-2.543c.686 0 1.615.363 1.615 2.14v4.4h-1.332v1.978h5.652v-1.978h-1.417V9.863c0-2.5-1.252-3.755-3.674-3.755a3.329 3.329 0 0 0-3.23 1.817h-.04V2.034h-4.356v1.978h1.413v10.7h-1.413v1.978h5.652v-1.978z"/><path data-name="Path 8917" d="M222.091 14.712h-1.413V6.395h-4.36v1.978h1.413v6.339h-1.413v1.983h5.773z"/><path data-name="Rectangle 1854" d="M217.61 1.994h3.028v2.907h-3.028z"/><path data-name="Path 8918" d="M227.301 8.412h-.04V6.393h-4.16v1.978h1.413v6.341h-1.413v1.978h6.1v-1.978h-1.78v-2.988c.121-1.776 1.009-3.23 2.947-3.23a4.969 4.969 0 0 1 1.332.121V6.233a6.572 6.572 0 0 0-1.252-.121 3.428 3.428 0 0 0-3.147 2.3"/><path data-name="Path 8919" d="M237.353 15.034a2.408 2.408 0 0 1-2.584-2.622h7.472a15.7 15.7 0 0 0-.121-2.342 4.679 4.679 0 0 0-4.925-3.957 5.076 5.076 0 0 0-5.45 5.329c0 3.432 1.9 5.571 5.531 5.571 2.342 0 4.36-1.009 4.845-3.512h-2.75a1.883 1.883 0 0 1-2.019 1.534m-.283-6.944a2.128 2.128 0 0 1 2.261 2.422h-4.562a2.215 2.215 0 0 1 2.3-2.422"/><path data-name="Path 8920" d="M78.808 35.503c-3.068 0-4.4-2.3-4.4-5.047 0-2.867.929-5.773 4.2-5.773a3.412 3.412 0 0 1 3.634 3.553h2.745v-5.329h-2.745v1.655l-.04-.04a4.513 4.513 0 0 0-4.118-1.938c-4.6 0-6.863 3.189-6.863 7.59 0 4.158 2.422 7.388 7.509 7.388 2.826 0 6.258-1.252 6.3-5.289h-2.912a3.281 3.281 0 0 1-3.311 3.23"/><path data-name="Path 8921" d="M91.364 26.662a5.451 5.451 0 1 0 5.491 5.45 5.118 5.118 0 0 0-5.491-5.45m0 8.842c-1.857 0-2.463-1.736-2.463-3.351s.606-3.351 2.463-3.351 2.463 1.736 2.463 3.351-.606 3.351-2.463 3.351"/><path data-name="Path 8922" d="M108.155 26.985h-4.239v1.978h1.339v3.755c0 1.332-.646 2.786-2.221 2.786a1.893 1.893 0 0 1-1.817-2.059v-6.46h-4.362v1.978h1.413v4.562c0 2.584.929 4.037 3.674 4.037a3.927 3.927 0 0 0 3.512-2.059h.04v1.736h4.078v-1.938h-1.417z"/><path data-name="Path 8923" d="M121.922 30.699c0-2.584-.929-4.037-3.674-4.037a3.927 3.927 0 0 0-3.512 2.059h-.04v-1.736h-4.074v1.977h1.413v6.339h-1.413v1.978h5.652v-1.977h-1.332v-3.755c0-1.332.646-2.786 2.221-2.786a1.893 1.893 0 0 1 1.817 2.059v4.481h-1.332v1.978h5.693v-1.977h-1.419z"/><path data-name="Path 8924" d="M128.872 33.97c0 .444-.04 1.534-.888 1.534s-.848-.807-.848-1.575v-4.966h2.745v-1.978h-2.745v-3.028l-2.907 1.05v2.019h-1.657v1.978h1.655v5.693a3 3 0 0 0 3.189 2.947c2.463 0 3.311-1.252 3.23-3.593h-1.774z"/><path data-name="Path 8925" d="M138.197 28.963h1.534l-2.342 5.249-2.261-5.249h1.534v-1.978h-5.773v1.978h1.009l4 8.357c-.323 1.05-.848 1.9-1.7 1.9a7.771 7.771 0 0 1-1.534-.161v2.1a11.488 11.488 0 0 0 1.655.161c1.9 0 2.7-.646 3.472-2.342l4.926-10.013h1.009v-1.98h-5.491v1.978z"/><path data-name="Path 8926" d="M156.001 35.503c-3.068 0-4.4-2.3-4.4-5.047 0-2.867.929-5.773 4.158-5.773a3.412 3.412 0 0 1 3.634 3.553h2.745v-5.329h-2.745v1.655l-.04-.04a4.513 4.513 0 0 0-4.118-1.938c-4.6 0-6.863 3.189-6.863 7.59 0 4.158 2.422 7.388 7.509 7.388 2.826 0 6.258-1.252 6.3-5.289h-2.91a3.246 3.246 0 0 1-3.27 3.23"/><path data-name="Path 8927" d="M168.557 26.662a5.451 5.451 0 1 0 5.491 5.45 5.118 5.118 0 0 0-5.491-5.45m0 8.842c-1.857 0-2.463-1.736-2.463-3.351s.606-3.351 2.463-3.351 2.463 1.736 2.463 3.351-.606 3.351-2.463 3.351"/><path data-name="Path 8928" d="M185.348 26.985h-4.239v1.978h1.339v3.755c0 1.332-.646 2.786-2.221 2.786a1.893 1.893 0 0 1-1.817-2.059v-6.46h-4.362v1.978h1.413v4.562c0 2.584.929 4.037 3.674 4.037a3.883 3.883 0 0 0 3.512-2.059h.04v1.736h4.078v-1.938h-1.417z"/><path data-name="Path 8929" d="M199.075 30.699c0-2.584-.929-4.037-3.674-4.037a3.927 3.927 0 0 0-3.512 2.059h-.04v-1.736h-4.074v1.977h1.413v6.339h-1.413v1.978h5.693v-1.977h-1.333v-3.755c0-1.332.646-2.786 2.221-2.786a1.893 1.893 0 0 1 1.817 2.059v4.481h-1.332v1.978h5.652v-1.977h-1.418z"/><path data-name="Path 8930" d="M205.983 35.504c-1.9 0-2.342-1.736-2.342-3.391 0-1.615.444-3.432 2.3-3.432 1.534 0 2.059.848 2.1 2.3h2.3v-4h-2.18v1.171h-.04a3.181 3.181 0 0 0-2.786-1.494c-3.351 0-4.724 2.463-4.724 5.693a5 5 0 0 0 5.37 5.248c2.382 0 4.36-1.292 4.562-3.876h-2.624a1.9 1.9 0 0 1-1.938 1.776"/><path data-name="Path 8931" d="M215.551 26.985h-4.32v1.978h1.413v6.339h-1.413v1.983h5.773v-1.978h-1.453z"/><path data-name="Rectangle 1855" d="M212.523 22.584h3.028v2.907h-3.028z"/><path data-name="Path 8932" d="M222.132 22.584h-4.36v1.978h1.413v10.739h-1.413v1.983h5.773v-1.978h-1.413z"/></g></g></svg>