<svg width="96" height="96" viewBox="0 0 96 96" fill="none" xmlns="http://www.w3.org/2000/svg">
<path d="M73.1276 64.3465C81.2893 65.6575 88.2772 62.9756 88.3461 62.9756L88.4391 58.173L88.342 62.9756L88.5362 43.2249C87.5556 43.2094 66.1428 47.1897 55.6364 58.9911C55.2114 59.4684 54.826 59.9717 54.4594 60.4873V60.4832C47.8653 66.6215 41.6147 60.5878 41.6147 60.5878V60.5888C41.2262 60.0369 40.8178 59.4995 40.3646 58.99C29.8572 47.1887 8.44441 43.2094 7.46375 43.2249L7.658 62.9756L7.56087 58.173L7.65382 62.9756C7.72275 62.9756 14.7106 65.6575 22.8724 64.3465C30.7741 63.077 37.126 62.6121 38.7991 74.3047V96H56.8771V85.8089L56.8845 85.8151C56.8813 85.7612 56.8803 85.7094 56.8771 85.6556V77.5654C57.8045 62.5417 64.5522 62.9694 73.1265 64.3465H73.1276Z" fill="currentColor"/>
<path d="M48.2559 32.5699C55.4444 32.5699 61.2719 27.1462 61.2719 20.4558C61.2719 13.7654 55.4444 8.3418 48.2559 8.3418C41.0673 8.3418 35.2399 13.7654 35.2399 20.4558C35.2399 27.1462 41.0673 32.5699 48.2559 32.5699Z" fill="currentColor"/>
<path d="M63.2091 96H88.5362V67.481C65.9579 71.9428 63.2091 96 63.2091 96Z" fill="currentColor"/>
<path d="M7.46375 67.481V96H32.7898C32.7898 96 30.041 71.9428 7.46375 67.481Z" fill="currentColor"/>
<path d="M48.167 49.1716L48.1389 49.1302C80.599 52.219 87.6015 21.8899 88.225 20.8917C88.225 20.8917 71.28 21.0046 61.1632 31.0787C56.5325 35.6897 52.7184 39.9414 48.4584 48.627L48.1295 49.1167L47.8297 48.6704C43.5687 39.9838 39.7546 35.7332 35.1249 31.1222C25.0071 21.046 8.06213 20.9342 8.06213 20.9342C8.68667 21.9334 15.6913 52.2739 48.166 49.1716H48.167Z" fill="currentColor"/>
<path d="M63.2091 0H88.5362V16.6826C65.9579 14.0721 63.2091 0 63.2091 0Z" fill="currentColor"/>
<path d="M7.46375 16.6826V0H32.7898C32.7898 0 30.041 14.0721 7.46375 16.6826Z" fill="currentColor"/>
</svg>
