<svg xmlns="http://www.w3.org/2000/svg" viewBox="0 0 300 300"><defs><clipPath id="b"><path data-name="Path 42463" d="M0 0h282.486v300H0z"/></clipPath><clipPath id="a"><path d="M0 0h300v300H0z"/></clipPath></defs><g clip-path="url(#a)"><g fill="currentColor" data-name="Artboard – 1" transform="translate(8.757)" clip-path="url(#b)"><path data-name="Path 1" d="M282.486 150.737a141.206 141.206 0 0 0-1.153-18.258l-1.274-9.22-15.832 37-31.481-67.875-30.754 69.153-30.026-29.237-30.693 66.9-30.754-66.845-30.147 28.936L49.74 92.384l-31.481 67.88-15.832-37-1.274 9.22a143.205 143.205 0 0 0 31.421 109.058l.242 23.535 43.672 34.7 17.834-14.563a140.794 140.794 0 0 0 45.372 8.371v.06h3.154v-.06a143.182 143.182 0 0 0 45.436-8.433l17.833 14.619 43.672-34.7.243-23.535a142.565 142.565 0 0 0 32.454-90.8zm-18.135 21.412l12.981-30.268c.182 2.972.3 5.884.3 8.856a137.179 137.179 0 0 1-27.6 82.859l.847-90.562zm-152.373 72.122l-57.264 12.738a142.236 142.236 0 0 1-9.523-8.674c-2.608-2.608-5.034-5.277-7.4-8.007l72.244-.364zm3.4-4.367l16.377-.062-14.922 3.333zm-1.395 8.856l4.549 10.251-25.237 20.622a137.936 137.936 0 0 1-33.666-18.743zm4.853-1.092l18.622-4.124-14.985 12.253zm44.766 0l-3.579 8.067-14.859-12.192zm-12.741-7.826l16.2.06-1.456 3.215zm17.531 8.917l54.409 12.131a135.954 135.954 0 0 1-33.666 18.743l-25.234-20.683zm2.062-4.549l1.88-4.246 72.246.366c-2.366 2.729-4.792 5.4-7.4 8.007a142.73 142.73 0 0 1-9.523 8.674zm62.3-140.056l13.284 28.627-.971 102.694-70.606-.364zm-123.8 36.454l32.331 70.242 32.147-70.242 26.316 25.656-30.572 68.846-27.9-.121h-.121l-27.9.121-30.759-69.088zm-1.033 94.5l-70.606.364-.969-102.7 13.284-28.63zM4.793 150.737c0-2.972.121-5.884.3-8.856l12.981 30.268 13.527-29.176.847 90.562a136.536 136.536 0 0 1-27.658-82.8zm37 101c2.305 2.305 4.61 4.489 7.036 6.554l-11.282 2.547-.121-13.708c1.4 1.575 2.851 3.091 4.368 4.607zm34.578 41.788l-35.728-28.387 12.92-2.851a141.708 141.708 0 0 0 35.485 20.866zm22.26-11.95l21.958-17.955 10.979 24.689a139.349 139.349 0 0 1-32.937-6.734zm42.582 7.158c-1.395 0-2.79-.06-4.185-.121l-12.557-28.205 16.8-13.708 16.681 13.648-12.551 28.266c-1.394.06-2.789.06-4.185.12zm9.584-.425l11.04-24.746 21.958 18.015a139.844 139.844 0 0 1-33 6.731zm42.643-5.156a141.2 141.2 0 0 0 35.544-20.927l12.92 2.851-35.788 28.388zm51.438-22.322l-11.282-2.486a232.958 232.958 0 0 0 7.036-6.554 103.578 103.578 0 0 0 4.367-4.61z"/><path data-name="Path 2" d="M56.898 43.068h3.819a1.152 1.152 0 0 0 1.153-1.153V12.373h.06l26.328 31.3h1.577a1.141 1.141 0 0 0 1.153-1.092V1.759A1.193 1.193 0 0 0 89.835.607h-3.882A1.152 1.152 0 0 0 84.8 1.76v28.692h-.06L58.414 0h-1.516a1.141 1.141 0 0 0-1.153 1.092v40.824a1.193 1.193 0 0 0 1.153 1.153z"/><path data-name="Path 3" d="M117.253 43.069h24.264a1.152 1.152 0 0 0 1.153-1.153V38.58a1.152 1.152 0 0 0-1.153-1.153h-19.169V24.386h16.2a1.152 1.152 0 0 0 1.153-1.153v-3.4a1.193 1.193 0 0 0-1.153-1.153h-16.2V6.31h19.168a1.152 1.152 0 0 0 1.153-1.153v-3.4a1.152 1.152 0 0 0-1.153-1.153h-24.263a1.152 1.152 0 0 0-1.15 1.156v40.156a1.152 1.152 0 0 0 1.153 1.153z"/><path data-name="Path 4" d="M162.806 38.882a19.645 19.645 0 0 0 13.042 4.793c7.886 0 13.527-5.156 13.527-11.464 0-7.4-6.005-10.734-13.042-13.588-5.034-2.062-7.7-4.185-7.7-7.643 0-2.245 1.759-5.459 6.854-5.459 3.518 0 7.764 2.79 8.189 3.033a1.435 1.435 0 0 0 2.123-.607c.485-.728 1.031-1.577 1.516-2.305a1.441 1.441 0 0 0-.364-2.062A20.551 20.551 0 0 0 175.726 0c-9.645 0-13.284 6.49-13.284 11.222 0 7.037 4.853 10.251 11.04 12.86 6.005 2.486 9.159 4.792 9.159 8.432 0 3.094-2.669 5.641-6.854 5.641-4.671 0-9.342-3.882-9.706-4.185a1.373 1.373 0 0 0-2.062.485c-.546.789-1.031 1.7-1.577 2.486a1.276 1.276 0 0 0 .364 1.942z"/><path data-name="Path 5" d="M207.027 6.309h9.887v35.608a1.193 1.193 0 0 0 1.153 1.153h4a1.193 1.193 0 0 0 1.153-1.153V6.309h9.887a1.152 1.152 0 0 0 1.153-1.153v-3.4a1.152 1.152 0 0 0-1.153-1.153h-26.08a1.152 1.152 0 0 0-1.15 1.157v3.4a1.152 1.152 0 0 0 1.15 1.149z"/><path data-name="Path 6" d="M101.299 104.937h3.7a1.088 1.088 0 0 0 1.092-1.092V87.53h20.621v16.32a1.086 1.086 0 0 0 1.092 1.092h3.7a1.13 1.13 0 0 0 1.092-1.092V66.481a1.13 1.13 0 0 0-1.092-1.092h-3.7a1.088 1.088 0 0 0-1.092 1.092v15.711h-20.619V66.481a1.086 1.086 0 0 0-1.092-1.092h-3.7a1.13 1.13 0 0 0-1.092 1.092v37.369a1.173 1.173 0 0 0 1.09 1.09z"/><path data-name="Path 7" d="M171.601 104.636a20.237 20.237 0 0 0 9.16-2.245l2 3.336a1.037 1.037 0 0 0 .791.425h3.518a.92.92 0 0 0 .791-1.395l-3.154-5.156a19.717 19.717 0 1 0-13.1 5.034zm0-34.576a14.886 14.886 0 0 1 14.859 14.859 14.717 14.717 0 0 1-4.307 10.433l-1.82-3.033a.957.957 0 0 0-1.274-.3l-2.608 1.577a.957.957 0 0 0-.3 1.274l2.063 3.4a14.431 14.431 0 0 1-6.672 1.577 14.892 14.892 0 1 1 .06-29.784z"/></g></g></svg>