<svg xmlns="http://www.w3.org/2000/svg" viewBox="0 0 102.421 102.327"><g id="Group_1" data-name="Group 1" transform="translate(103 -298.006)" fill="currentColor"><path id="Subtraction_1" data-name="Subtraction 1" d="M63.766 102.327H0V0h25.555v35.325a20.434 20.434 0 0 0 0 31.62v9.671H38.5v-5.048h.007A20.433 20.433 0 1 0 38.5 30.7V0h31.972a32.31 32.31 0 0 1 6.438.651 31.611 31.611 0 0 1 11.443 4.826 32.174 32.174 0 0 1 4.732 3.915 31.855 31.855 0 0 1 9.327 22.56h.009a31.912 31.912 0 0 1-13.774 26.275l7.374 23.588v.01l6.382 20.417H76.836l-6.385-20.427-5.762-18.434-.21-.036a15.008 15.008 0 0 1-.41-.074v38.972h-.3v.085Zm.3-80.214v19.109H67.8c.1 0 .208.005.311.005a9.29 9.29 0 0 0 4.089-.954 7.756 7.756 0 0 0 2.76-2.408 10.277 10.277 0 0 0 1.44-3.053 11.321 11.321 0 0 0 .44-2.97 15.92 15.92 0 0 0-.279-2.625 10.8 10.8 0 0 0-1.162-3.23 7.465 7.465 0 0 0-2.682-2.756 7 7 0 0 0-2.112-.838 12.232 12.232 0 0 0-2.6-.281h-3.939Z" transform="translate(-103 298.006)"/><path id="Path_828" data-name="Path 828" d="m641.061 138.108 3.661-9.209h-4.987l-1.891 4.873-5.025-6.763c-.074-.127-.214-.36-.415-.7a12.037 12.037 0 0 1-.586-1.134 2.8 2.8 0 0 1-.282-1.153 2.7 2.7 0 0 1 .567-1.661 2.16 2.16 0 0 1 1.85-.756 3.662 3.662 0 0 1 2.1.756 14.074 14.074 0 0 1 2.247 2.04l2.759-3.667a10.087 10.087 0 0 0-3.252-2.644 9.824 9.824 0 0 0-4.724-1.1 7.578 7.578 0 0 0-4.064 1 6.5 6.5 0 0 0-3.155 5.5 6.838 6.838 0 0 0 .415 2.325 11.223 11.223 0 0 0 .983 2.08c.378.617.691 1.1.945 1.454l.09.121c-.155.053-.313.1-.468.161a12 12 0 0 0-3.211 1.869 9.069 9.069 0 0 0-2.288 2.759 7.238 7.238 0 0 0-.849 3.478 7.958 7.958 0 0 0 1.246 4.42 8.665 8.665 0 0 0 3.363 3.022 10.1 10.1 0 0 0 4.724 1.1 9.121 9.121 0 0 0 7.594-3.205l2.046 2.753h6.346l-5.737-7.724Zm-6.069 1.94a3.967 3.967 0 0 1-1.361.964 5.126 5.126 0 0 1-2.058.36 5.014 5.014 0 0 1-2.229-.49 3.923 3.923 0 0 1-1.606-1.379 3.649 3.649 0 0 1-.586-2.058 4.024 4.024 0 0 1 .322-1.587 4.215 4.215 0 0 1 .927-1.361 4.673 4.673 0 0 1 1.4-.964 4.022 4.022 0 0 1 1.265-.338l4.516 6.078a5.376 5.376 0 0 1-.586.778Z" transform="translate(-698.462 216.659)"/></g></svg>