<svg width="960" height="952" viewBox="0 0 960 952" fill="none" xmlns="http://www.w3.org/2000/svg">
<g clip-path="url(#clip0_1841_2)">
<path d="M158.988 825.74L174.258 824.96L189.358 824.19V626.59L179.348 625.83L160.168 624.38V720.56L160.618 721.61C160.618 721.61 133.018 622.32 133.278 622.35L110.198 620.61L101.008 619.92V828.69L124.348 827.5L130.658 827.18V724.72L130.718 723.56C130.718 723.56 158.318 824.79 159.008 825.74H158.988Z" fill="currentColor"/>
<path d="M121.529 141.94L122.119 249.47L155.309 245.6L154.799 142.46L178.669 142.83L178.599 127.11L97.5586 123.31L97.6586 141.57L121.529 141.94Z" fill="currentColor"/>
<path d="M256.048 233.84L288.998 229.99L288.758 132.27L255.698 130.73L255.838 170.46L229.938 170.76L229.788 129.51L196.738 127.96L197.228 240.71L230.188 236.86L229.998 184.54L255.878 183.45L256.048 233.84Z" fill="currentColor"/>
<path d="M379.98 137.4L313.52 133.44L313.72 227.11L382.6 218.76V209.43L347.58 212.48L347.54 182.43L350.88 182.24L378.38 181.12V172.25L347.53 172.36L347.5 145.56L379.98 146.68V137.4Z" fill="currentColor"/>
<path d="M209.809 546.06L212.989 554.13C216.769 563.74 218.819 568.96 222.309 577.95L239.089 579.25L238.259 408.13L173.749 409.87L173.989 452.61L189.899 452.67L190.159 499.55C190.209 508.38 189.079 515.63 186.799 521.09C184.879 525.71 180.439 531.12 170.239 530.64C160.549 530.19 156.229 524.64 154.309 520.06C151.979 514.51 150.779 507.43 150.729 499L149.899 356.77C149.859 350.71 151.079 344.97 153.519 339.68C155.489 335.42 160.049 330.18 170.589 329.44C180.359 328.75 184.219 334.36 185.649 337.77C187.639 342.52 188.669 348.48 188.699 355.49L188.819 377.56L238.769 375.51C238.439 354.63 236.359 336.81 232.569 322.48C228.709 307.88 221.769 297.14 211.929 290.56C202.299 284.12 187.599 281.8 168.229 283.66C124.719 287.85 98.2986 319.44 99.2886 366.12L100.089 488.18C99.8286 528.45 115.579 572.56 160.549 575.79C181.539 577.31 196.249 570.02 205.569 553.55L209.829 546.02L209.809 546.06Z" fill="currentColor"/>
<path d="M268.197 581.52L317.387 585.34L316.117 271.32L266.777 276.35L268.197 581.52Z" fill="currentColor"/>
<path d="M424.387 442C429.247 445.25 431.627 452.5 431.667 464.14L432.067 594.26L482.447 598.17L482.117 469.21C482.087 455.94 480.267 445.11 476.727 437C473.467 429.55 467.957 425.05 459.857 423.24L446.337 420.22L459.237 415.08C469.547 410.97 476.357 403.88 480.057 393.39C483.967 382.31 485.917 367.19 485.867 348.46C485.817 328.82 484.457 311.64 481.827 297.4C479.317 283.8 474.437 273.49 467.327 266.75C460.497 260.28 449.937 257.72 435.927 259.14L348.137 268.08L349.357 587.84L401.267 591.87L400.757 437.82L404.907 437.8C413.717 437.76 420.097 439.14 424.387 442.01V442ZM400.707 316.71L418.487 315.49C425.127 315.04 430.187 317.87 432.717 323.49C434.837 328.2 435.847 337.08 435.897 351.43C435.927 360.13 436.007 386.59 419.617 387.17L400.947 387.83L400.717 316.71H400.707Z" fill="currentColor"/>
<path d="M513.59 251.21L514.43 600.65L626.88 609.39L626.8 553.49L565.56 550.61L564.97 245.98L513.59 251.21Z" fill="currentColor"/>
<path d="M663.32 591.2C677.93 614.24 707.12 619.11 718.99 620.13C736.52 621.65 758.78 615.71 768.75 594.52C781.69 567.02 783.27 536.42 783.77 507.43C784.07 490.36 782.29 474.08 778.65 460.37C775.26 447.63 770.73 436.39 765.2 426.99C759.57 417.42 753.3 408.28 746.56 399.84C732.74 382.35 725.99 373.95 712.17 357.02C705.12 348.5 700.5 341.06 698.05 334.31C695.62 327.6 694.39 321.18 694.38 315.22C694.38 308.95 695.69 303.59 698.3 299.28C701.2 294.49 705.92 291.74 711.95 291.31C717.2 290.94 721.66 292.79 724.82 296.65C727.77 300.27 729.27 305.35 729.28 311.76L729.3 334.5L781.7 331.86C781.96 295.79 776.48 268.68 765 249.08C751.4 225.87 719.96 226.75 710.66 227.57C692.8 229.14 671.23 242.17 662.59 256.61C648.37 280.37 645.5 309.75 645.6 330.2C645.74 359.33 656.06 387.52 674.67 409.57C685.51 422.7 690.78 429.16 701.52 442.51C709.44 452.28 715.8 461.14 720.42 468.83C725.1 476.63 728.44 484.97 730.35 493.63C732.22 502.12 733.18 512.73 733.19 525.16C733.19 535.58 732.03 542.97 729.61 547.74C727.63 551.65 723.42 556.23 714.5 555.81C707.69 555.49 702.65 551.75 699.93 544.98C697.61 539.19 696.47 531.67 696.46 521.97L696.41 477.26L645.81 476.73L645.86 509.63C645.96 534.94 648.04 567.1 663.31 591.18L663.32 591.2Z" fill="currentColor"/>
<path d="M846.248 211.41L807.008 215.48L807.028 258.88L823.078 257.7L822.298 261.63C819.388 276.32 817.808 284.26 815.118 297.7L834.678 296.74C838.558 283.46 842.418 270.16 846.258 256.87V211.42L846.248 211.41Z" fill="currentColor"/>
<path d="M283.21 634.16L213.75 628.73L214.92 823.77L286.79 819.89L286.62 790.67L245.89 791.82L245.58 737.51L282.24 737.59L282.08 709.58L245.41 708.59L245.13 661.08L283.37 663.1L283.21 634.16Z" fill="currentColor"/>
<path d="M323.777 665.01L324.597 817.85L355.087 816.2L354.317 666.62L377.417 667.84L377.287 641.51L300.527 635.51L300.677 663.79L323.777 665.01Z" fill="currentColor"/>
<path d="M507.138 651.66C503.928 685.08 496.578 762.74 496.578 762.74C496.578 762.74 482.268 683.63 478.798 649.45L450.088 647.21C446.708 682.22 432.648 761.1 432.648 761.1C432.648 761.1 424.478 680.72 420.878 644.93L391.418 642.63C398.318 700.22 405.248 757.53 412.058 813.15L451.968 811C454.788 784.67 466.168 718.78 466.168 718.78C466.168 718.78 475.148 783.71 478.358 809.58L517.568 807.46C524.068 755.63 530.638 704.06 537.118 654.02L507.128 651.68L507.138 651.66Z" fill="currentColor"/>
<path d="M600.181 804.37C614.561 803.58 625.671 799.67 633.181 792.77C640.491 786.04 644.031 776.89 644.001 764.79L643.801 695.27C643.771 684.03 640.231 675.49 632.981 669.15C625.451 662.57 614.211 658.65 599.571 657.49C597.091 657.29 594.701 657.19 592.431 657.19C581.281 657.19 572.651 659.55 566.711 664.24C559.721 669.75 556.201 678.73 556.251 690.93L556.531 766.47C556.581 779.69 560.271 789.6 567.491 795.94C574.751 802.32 585.751 805.16 600.181 804.36V804.37ZM590.011 780.27C587.961 777.46 586.951 773.28 586.931 767.48L586.681 692.45C586.661 687.08 588.031 683 590.751 680.33C593.211 677.92 596.581 676.81 600.771 677.04C604.551 677.25 613.341 679.22 613.381 692.99L613.621 766.93C613.671 782.18 605.591 784.71 600.781 784.86C600.581 784.86 600.381 784.86 600.181 784.86C594.581 784.86 591.571 782.38 590.021 780.26L590.011 780.27Z" fill="currentColor"/>
<path d="M716.279 736.4C720.299 738.09 722.339 741.77 722.339 747.34V796.76L728.489 796.44L751.859 795.24V749.01C751.859 744.61 751.719 742.63 750.779 739.59C748.169 731.08 732.649 727.93 732.649 727.93C738.909 726.62 748.939 722.58 751.019 719.32C753.339 715.68 754.519 710.56 754.519 704.1C754.519 697.08 753.689 690.84 752.059 685.55C750.569 680.73 747.719 676.94 743.349 673.98C738.929 670.98 732.109 669.11 723.069 668.42L691.279 665.99L667.949 664.21V799.57L682.919 798.8L698.479 798V734.48L703.049 734.51C708.959 734.55 713.289 735.17 716.279 736.42V736.4ZM698.709 714.36V684.55L703.519 684.8L709.809 685.13L712.629 685.28C718.659 685.6 721.559 688.03 722.929 690.01C724.589 692.41 725.339 696.28 725.339 702.55C725.339 708.82 723.739 718.53 712.999 718.53C712.849 718.53 712.699 718.53 712.539 718.53L707.859 718.39L703.079 718.25L698.699 718.12V714.36H698.709Z" fill="currentColor"/>
<path d="M798.07 729.01L833.09 790.73L862.44 789.13L831.54 729.27L858.21 678.85L829.86 676.56L798.07 729.01Z" fill="currentColor"/>
<path d="M804.609 674.77L788.65 673.48L776.52 672.51V793.97L804.82 792.43V745.89L804.609 746.47V721.24V674.77Z" fill="currentColor"/>
<path d="M23.2895 24.65L936.7 76.68V855.3L23.2895 926.82V24.65ZM0.269531 0.280029V951.71L959.719 876.58V54.93L0.269531 0.29003V0.280029Z" fill="currentColor"/>
</g>
<defs>
<clipPath id="clip0_1841_2">
<rect width="960" height="952" fill="white"/>
</clipPath>
</defs>
</svg>
