<svg xmlns="http://www.w3.org/2000/svg" width="94.825" height="90.485"><g data-name="Group 3"><path fill="currentColor" data-name="Exclusion 1" d="M63.253 57.2a48.231 48.231 0 0 1-9.6-7.959A32.544 32.544 0 0 1 48.597 42a19.993 19.993 0 0 1-2.325-7.908v-.054a33.634 33.634 0 0 1-16.5 4.085 34.492 34.492 0 0 1-12.136-1.983 30.737 30.737 0 0 1 5.919-7.557 39.778 39.778 0 0 1 6.69-5.047 40.225 40.225 0 0 1 7.866-3.736 15.467 15.467 0 0 1-6.094-8.657 18.94 18.94 0 0 1-.7-5.821 1.392 1.392 0 0 0 0-.151 28.979 28.979 0 0 1 4.6-.363A34.652 34.652 0 0 1 52.556 9.22a26.856 26.856 0 0 1 5.469-5.214 23.2 23.2 0 0 1 5.123-2.745A18.3 18.3 0 0 1 68.863 0h.035a9.265 9.265 0 0 1 2.338 4.808 12.825 12.825 0 0 1-.184 4.813 16.977 16.977 0 0 1-2.139 5.391c.354-.007.663-.01.944-.01a41.23 41.23 0 0 1 10.459 1.333 39.8 39.8 0 0 1 7.765 2.931 38.9 38.9 0 0 1 6.171 3.868 3.1 3.1 0 0 0 .57.4h.006c-6.712 6.169-16.757 7.09-22.148 7.09a29.116 29.116 0 0 1-3.778-.187 37.875 37.875 0 0 1-.024 16.809 21.6 21.6 0 0 1-4.057 8.387 8.016 8.016 0 0 1-1.568 1.567zm-7.222-41.324a12.212 12.212 0 0 0-2.533.269 11.177 11.177 0 0 0-6.4 3.782 7.353 7.353 0 0 0-1.667 6.2c.764 3.595 4.422 6.105 8.9 6.106a12.2 12.2 0 0 0 2.533-.269 11.174 11.174 0 0 0 6.4-3.782 7.355 7.355 0 0 0 1.667-6.2c-.767-3.596-4.426-6.106-8.9-6.106z"/><path data-name="Path 4" fill="currentColor" d="M0 63.739v-4.042h3.87v4.042zm0 26.23V67.953h3.87v22.016zm12.169-3.225h12.513l-.344 3.225H7.305V87.69l12-16.555H6.966l.3-3.182h16.939v2.279zm33.153-8.858a17.481 17.481 0 0 1-.172 2.283H30.143q.6 6.923 7.31 6.923a10.5 10.5 0 0 0 7.352-2.713l-.344 3.827a12.062 12.062 0 0 1-7.356 2.279q-5.289 0-8.084-3.032t-2.8-8.535q0-5.461 2.752-8.471a9.377 9.377 0 0 1 7.267-3.01q4.558 0 6.815 2.73t2.267 7.719zm-9.2-7.052q-5.289 0-5.934 6.063h11.436a7.274 7.274 0 0 0-1.44-4.558 5.11 5.11 0 0 0-4.064-1.505zm13.672 19.135V59.697h3.87v30.272zM76.97 77.886a17.482 17.482 0 0 1-.172 2.283H61.791q.6 6.923 7.31 6.923a10.5 10.5 0 0 0 7.353-2.713l-.349 3.827a12.062 12.062 0 0 1-7.348 2.279q-5.289 0-8.084-3.032t-2.8-8.535q0-5.461 2.752-8.471a9.377 9.377 0 0 1 7.267-3.01q4.558 0 6.815 2.73t2.263 7.719zm-9.2-7.052q-5.289 0-5.934 6.063h11.436a7.274 7.274 0 0 0-1.441-4.558 5.11 5.11 0 0 0-4.063-1.505z"/><g data-name="Path 1" fill="none"><path d="M53.35 15.455c5.852-1.244 11.415 1.595 12.425 6.343s-2.916 9.606-8.769 10.85-11.415-1.595-12.425-6.342 2.916-9.606 8.769-10.85z"/><path d="M53.766 17.411c-2.383.507-4.45 1.719-5.818 3.413-1.27 1.571-1.771 3.37-1.41 5.066.36 1.695 1.55 3.134 3.35 4.053 1.939.99 4.32 1.256 6.703.75 2.383-.508 4.45-1.72 5.818-3.413 1.27-1.572 1.77-3.37 1.41-5.066-.36-1.695-1.55-3.135-3.35-4.053-1.94-.99-4.32-1.257-6.703-.75m-.416-1.956c5.852-1.244 11.415 1.595 12.425 6.343 1.01 4.748-2.916 9.606-8.768 10.85-5.853 1.245-11.416-1.595-12.426-6.342-1.01-4.748 2.916-9.606 8.769-10.85z" fill="currentColor"/></g></g></svg>