<svg width="64" height="64" viewBox="0 0 64 64" fill="none" xmlns="http://www.w3.org/2000/svg">
<path d="M0.5 0.5H63V63H0.5V0.5Z" stroke="currentcolor" stroke-miterlimit="10"/>
<path d="M11.4002 51.6996C11.9002 51.6996 12.6002 51.6996 12.9002 51.6996C13.2002 51.6996 14.0002 51.6996 14.8002 51.6996C14.9002 51.4996 14.8002 51.4996 14.8002 51.4996C14.6002 51.4996 14.4002 51.4996 14.3002 51.4996C13.9002 51.4996 13.8002 51.1996 13.8002 50.7996C13.8002 50.1996 13.8002 49.1996 13.8002 48.0996V42.7996H15.4002C16.5002 42.7996 16.9002 43.1996 16.9002 43.5996C16.9002 43.6996 16.9002 43.7996 17.0002 43.7996V43.5996C17.1002 43.1996 17.2002 42.4996 17.2002 42.2996C17.2002 42.0996 17.2002 41.9996 17.1002 41.9996C17.0002 41.9996 16.9002 41.9996 16.8002 41.9996C16.6002 41.9996 16.3002 41.9996 15.9002 41.9996H10.8002C10.4002 41.9996 9.90019 41.9996 9.50019 41.9996C9.20019 41.9996 9.1002 41.7996 8.9002 41.7996C8.7002 41.7996 8.8002 41.7996 8.7002 41.9996C8.7002 41.9996 8.50019 42.8996 8.50019 43.2996C8.50019 43.3996 8.5002 43.4996 8.7002 43.4996C8.9002 43.4996 8.80019 43.4996 8.80019 43.4996C8.80019 43.4996 8.80019 43.2996 9.00019 43.1996C9.20019 42.8996 9.5002 42.8996 10.2002 42.7996H12.1002V47.9996C12.1002 49.1996 12.1002 50.1996 12.1002 50.6996C12.1002 51.0996 12.0002 51.3996 11.7002 51.3996C11.7002 51.3996 11.5002 51.3996 11.4002 51.3996C11.3002 51.5996 11.4002 51.5996 11.4002 51.5996V51.6996ZM28.0002 51.4996H27.8002C27.6002 51.4996 27.1002 51.2996 26.4002 50.5996C25.6002 49.7996 24.8002 48.6996 23.6002 47.1996C24.9002 46.0996 25.3002 45.2996 25.3002 44.2996C25.3002 43.2996 24.8002 42.7996 24.4002 42.4996C23.7002 41.9996 22.8002 41.8996 22.0002 41.8996C21.2002 41.8996 20.6002 41.8996 20.2002 41.8996C19.8002 41.8996 19.2002 41.8996 18.5002 41.8996C18.4002 42.0996 18.5002 42.0996 18.5002 42.0996C18.6002 42.0996 18.8002 42.0996 18.9002 42.0996C19.3002 42.0996 19.4002 42.3996 19.5002 42.7996C19.5002 43.1996 19.5002 43.5996 19.5002 45.4996V47.7996C19.5002 48.9996 19.5002 49.9996 19.5002 50.4996C19.5002 50.8996 19.4002 51.1996 19.1002 51.1996C19.1002 51.1996 18.9002 51.1996 18.8002 51.1996C18.7002 51.3996 18.8002 51.3996 18.8002 51.3996C19.3002 51.3996 20.0002 51.3996 20.3002 51.3996C20.6002 51.3996 21.4002 51.3996 22.1002 51.3996C22.2002 51.1996 22.1002 51.1996 22.1002 51.1996C22.0002 51.1996 21.8002 51.1996 21.7002 51.1996C21.3002 51.1996 21.2002 50.8996 21.2002 50.4996C21.2002 49.9996 21.2002 48.9996 21.2002 47.7996V47.5996H22.4002H22.6002C22.8002 47.7996 23.4002 48.6996 23.9002 49.3996C24.6002 50.3996 25.1002 50.9996 25.7002 51.2996C26.0002 51.4996 26.4002 51.4996 27.1002 51.4996H28.2002C28.3002 51.2996 28.2002 51.2996 28.2002 51.2996L28.0002 51.4996ZM37.2002 42.2996C37.3002 42.0996 37.2002 42.0996 37.2002 42.0996C36.7002 42.0996 36.0002 42.0996 35.8002 42.0996C35.6002 42.0996 35.0002 42.0996 34.4002 42.0996C34.3002 42.2996 34.4002 42.2996 34.4002 42.2996C34.5002 42.2996 34.7002 42.2996 34.7002 42.2996C35.1002 42.2996 35.2002 42.5996 35.3002 42.9996C35.3002 43.3996 35.3002 43.7996 35.3002 45.6996V47.2996C35.3002 48.5996 35.3002 49.7996 34.6002 50.4996C34.1002 50.9996 33.4002 51.1996 32.8002 51.1996C32.2002 51.1996 31.8002 51.1996 31.2002 50.6996C30.6002 50.1996 30.2002 49.3996 30.2002 47.4996V45.6996C30.2002 43.7996 30.2002 43.3996 30.2002 42.9996C30.2002 42.5996 30.3002 42.2996 30.7002 42.2996H30.9002C31.0002 42.0996 30.9002 41.9996 30.9002 41.9996C30.4002 41.9996 29.7002 41.9996 29.4002 41.9996C29.1002 41.9996 28.3002 41.9996 27.6002 41.9996C27.5002 42.1996 27.6002 42.1996 27.6002 42.1996C27.7002 42.1996 27.9002 42.1996 28.0002 42.1996C28.4002 42.1996 28.5002 42.4996 28.6002 42.8996C28.6002 43.2996 28.6002 43.6996 28.6002 45.5996V47.4996C28.6002 49.3996 29.1002 50.2996 29.7002 50.8996C30.6002 51.6996 31.9002 51.7996 32.5002 51.7996C33.1002 51.7996 34.3002 51.6996 35.2002 50.8996C36.3002 49.9996 36.4002 48.4996 36.4002 46.9996V45.5996C36.4002 43.6996 36.4002 43.2996 36.4002 42.8996C36.4002 42.4996 36.5002 42.1996 36.9002 42.1996C37.0002 42.1996 37.1002 42.1996 37.2002 42.1996V42.2996ZM39.4002 49.4996C39.4002 49.4996 39.4002 49.3996 39.3002 49.3996C39.2002 49.3996 39.2002 49.3996 39.2002 49.4996C39.2002 49.7996 39.2002 50.4996 39.2002 51.0996C39.2002 51.6996 39.2002 51.3996 39.4002 51.4996C40.0002 51.6996 40.5002 51.7996 41.3002 51.7996C42.1002 51.7996 42.7002 51.6996 43.3002 51.2996C44.2002 50.6996 44.5002 49.7996 44.5002 49.0996C44.5002 47.8996 43.9002 46.9996 42.4002 45.7996L42.0002 45.4996C40.9002 44.6996 40.6002 44.1996 40.6002 43.6996C40.6002 43.1996 41.2002 42.3996 42.1002 42.3996C43.0002 42.3996 43.3002 42.7996 43.5002 42.9996C43.7002 43.2996 43.8002 43.4996 43.8002 43.6996C43.8002 43.6996 43.8002 43.7996 43.9002 43.7996C44.0002 43.7996 44.0002 43.7996 44.0002 43.6996C44.0002 42.6996 44.0002 42.2996 44.0002 42.1996C44.0002 42.0996 44.0002 42.0996 43.8002 41.9996C43.5002 41.9996 42.9002 41.7996 42.1002 41.7996C40.3002 41.7996 39.1002 42.7996 39.1002 44.1996C39.1002 45.5996 39.6002 46.0996 41.0002 47.1996L41.6002 47.6996C42.7002 48.4996 42.9002 49.0996 42.9002 49.6996C42.9002 50.2996 42.3002 51.1996 41.2002 51.1996C40.1002 51.1996 39.6002 50.8996 39.4002 49.8996C39.4002 49.6996 39.4002 49.4996 39.3002 49.3996L39.4002 49.4996ZM48.4002 51.6996C48.9002 51.6996 49.6002 51.6996 49.9002 51.6996C50.2002 51.6996 51.0002 51.6996 51.8002 51.6996C51.9002 51.4996 51.8002 51.4996 51.8002 51.4996C51.6002 51.4996 51.4002 51.4996 51.3002 51.4996C50.9002 51.4996 50.8002 51.1996 50.8002 50.7996C50.8002 50.1996 50.8002 49.1996 50.8002 48.0996V42.7996H52.4002C53.5002 42.7996 53.9002 43.1996 53.9002 43.5996C53.9002 43.6996 53.9002 43.7996 54.0002 43.7996C54.1002 43.7996 54.1002 43.7996 54.1002 43.6996C54.1002 43.2996 54.1002 42.5996 54.1002 42.3996C54.1002 42.1996 54.1002 42.0996 54.0002 42.0996C53.9002 42.0996 53.8002 42.0996 53.7002 42.0996C53.5002 42.0996 53.2002 42.0996 52.8002 42.0996H47.7002C47.3002 42.0996 46.8002 42.0996 46.4002 42.0996C46.1002 42.0996 46.0002 41.8996 45.8002 41.8996C45.6002 41.8996 45.7002 41.8996 45.6002 42.0996C45.6002 42.0996 45.4002 42.9996 45.4002 43.3996C45.4002 43.4996 45.4002 43.5996 45.6002 43.5996C45.8002 43.3996 45.8002 43.2996 45.9002 43.1996C46.1002 42.8996 46.4002 42.8996 47.1002 42.7996H49.0002V47.9996C49.0002 49.1996 49.0002 50.1996 49.0002 50.6996C49.0002 51.0996 48.9002 51.3996 48.6002 51.3996C48.6002 51.3996 48.4002 51.3996 48.3002 51.3996C48.2002 51.5996 48.3002 51.5996 48.3002 51.5996L48.4002 51.6996ZM54.8002 37.0996H54.6002C54.4002 37.0996 53.8002 36.8996 52.9002 36.0996C52.0002 35.1996 51.0002 33.8996 49.7002 32.1996C51.2002 30.9996 51.7002 29.9996 51.7002 28.8996C51.7002 27.7996 51.1002 27.0996 50.7002 26.8996C49.9002 26.3996 48.9002 26.2996 48.0002 26.2996C47.1002 26.2996 46.4002 26.2996 45.9002 26.2996C45.4002 26.2996 44.7002 26.2996 43.9002 26.2996C43.8002 26.4996 43.9002 26.5996 43.9002 26.5996C44.1002 26.5996 44.2002 26.5996 44.3002 26.5996C44.8002 26.6996 44.9002 26.8996 44.9002 27.3996C44.9002 27.8996 44.9002 28.2996 44.9002 30.4996V33.0996C44.9002 34.4996 44.9002 35.5996 44.9002 36.2996C44.9002 36.6996 44.8002 37.0996 44.5002 37.0996C44.4002 37.0996 44.3002 37.0996 44.1002 37.0996C44.0002 37.2996 44.1002 37.3996 44.1002 37.3996C44.7002 37.3996 45.5002 37.3996 45.8002 37.3996C46.1002 37.3996 47.0002 37.3996 47.9002 37.3996C47.9002 37.3996 48.0002 37.3996 48.0002 37.2996C47.7002 37.1996 47.5002 37.0996 47.4002 37.0996C47.0002 37.0996 46.9002 36.6996 46.8002 36.2996C46.8002 35.6996 46.8002 34.4996 46.8002 33.0996V32.8996H48.2002C48.3002 32.8996 48.4002 32.8996 48.5002 32.8996C48.7002 33.0996 49.4002 34.0996 50.0002 34.8996C50.8002 35.9996 51.4002 36.6996 52.0002 37.0996C52.4002 37.2996 52.8002 37.3996 53.6002 37.3996H54.9002C54.9002 37.3996 55.0002 37.3996 55.0002 37.2996H54.9002L54.8002 37.0996ZM37.4002 37.3996C38.0002 37.3996 38.8002 37.3996 39.2002 37.3996C39.6002 37.3996 40.5002 37.3996 41.4002 37.3996C41.5002 37.1996 41.4002 37.0996 41.4002 37.0996C41.2002 37.0996 41.0002 37.0996 40.8002 37.0996C40.4002 37.0996 40.3002 36.7996 40.2002 36.3996C40.2002 35.7996 40.2002 34.5996 40.2002 33.0996V30.4996C40.2002 28.1996 40.2002 27.7996 40.2002 27.3996C40.2002 26.8996 40.3002 26.5996 40.7002 26.5996H41.0002C41.1002 26.3996 41.0002 26.2996 41.0002 26.2996C40.4002 26.2996 39.6002 26.2996 39.3002 26.2996C39.0002 26.2996 38.0002 26.2996 37.4002 26.2996C37.3002 26.4996 37.4002 26.5996 37.4002 26.5996C37.5002 26.5996 37.7002 26.5996 37.8002 26.5996C38.1002 26.5996 38.3002 26.8996 38.3002 27.3996C38.3002 27.8996 38.3002 28.2996 38.3002 30.4996V33.0996C38.3002 34.4996 38.3002 35.6996 38.3002 36.2996C38.3002 36.6996 38.2002 36.9996 37.9002 36.9996C37.8002 36.9996 37.7002 36.9996 37.5002 36.9996C37.4002 37.1996 37.5002 37.2996 37.5002 37.2996L37.4002 37.3996ZM34.9002 26.3996C35.0002 26.1996 34.9002 26.0996 34.9002 26.0996C34.3002 26.0996 33.5002 26.0996 33.3002 26.0996C33.1002 26.0996 32.4002 26.0996 31.7002 26.0996C31.6002 26.2996 31.7002 26.3996 31.7002 26.3996C31.8002 26.3996 32.0002 26.3996 32.1002 26.3996C32.6002 26.4996 32.7002 26.6996 32.7002 27.1996C32.7002 27.6996 32.7002 28.0996 32.7002 30.2996V32.1996C32.7002 33.6996 32.7002 35.0996 31.8002 35.8996C31.2002 36.4996 30.4002 36.6996 29.8002 36.6996C29.2002 36.6996 28.6002 36.6996 27.9002 36.0996C27.2002 35.4996 26.7002 34.5996 26.7002 32.4996V30.3996C26.7002 28.0996 26.7002 27.6996 26.7002 27.2996C26.7002 26.7996 26.8002 26.4996 27.2002 26.4996H27.5002C27.6002 26.2996 27.5002 26.1996 27.5002 26.1996C27.0002 26.1996 26.1002 26.1996 25.8002 26.1996C25.5002 26.1996 24.5002 26.1996 23.7002 26.1996C23.6002 26.3996 23.7002 26.4996 23.7002 26.4996C23.9002 26.4996 24.0002 26.4996 24.1002 26.4996C24.6002 26.5996 24.7002 26.7996 24.7002 27.2996C24.7002 27.7996 24.7002 28.1996 24.7002 30.3996V32.5996C24.7002 34.7996 25.3002 35.7996 26.0002 36.4996C27.1002 37.4996 28.5002 37.4996 29.3002 37.4996C30.1002 37.4996 31.3002 37.2996 32.4002 36.3996C33.6002 35.2996 33.8002 33.5996 33.8002 31.8996V30.2996C33.8002 27.9996 33.8002 27.5996 33.8002 27.1996C33.8002 26.6996 33.9002 26.3996 34.3002 26.3996C34.4002 26.3996 34.5002 26.3996 34.6002 26.3996H34.9002ZM20.2002 26.2996C20.2002 26.1996 20.0002 25.9996 19.9002 25.9996C19.8002 25.9996 19.7002 25.9996 19.6002 26.1996L15.6002 34.6996L11.5002 26.2996V26.0996C11.4002 26.0996 11.3002 25.8996 11.1002 25.8996C10.9002 25.8996 10.8002 25.9996 10.8002 26.1996L9.30019 35.8996C9.30019 36.3996 9.1002 36.9996 8.7002 37.0996C8.6002 37.0996 8.5002 37.0996 8.4002 37.0996C8.3002 37.2996 8.4002 37.3996 8.4002 37.3996C8.9002 37.3996 9.5002 37.3996 9.7002 37.3996C9.9002 37.3996 10.6002 37.3996 11.2002 37.3996C11.3002 37.1996 11.2002 37.0996 11.2002 37.0996C11.1002 37.0996 10.9002 37.0996 10.8002 37.0996C10.5002 37.0996 10.4002 36.8996 10.4002 36.5996C10.4002 36.2996 10.4002 36.1996 10.4002 35.8996L11.2002 29.9996C11.8002 31.0996 12.7002 32.9996 12.8002 33.2996C13.0002 33.6996 14.2002 35.9996 14.5002 36.6996C14.5002 36.8996 14.7002 37.0996 14.8002 37.1996C14.8002 37.1996 15.0002 37.2996 15.1002 37.2996C15.2002 37.2996 15.3002 37.2996 15.4002 37.0996L15.7002 36.5996L18.9002 29.8996L19.8002 36.3996C19.8002 36.7996 19.8002 36.9996 19.8002 36.9996C19.8002 36.9996 19.8002 36.9996 19.8002 37.0996C19.8002 37.1996 19.8002 37.1996 19.9002 37.2996H20.1002C20.7002 37.2996 22.7002 37.3996 23.1002 37.3996C23.2002 37.1996 23.1002 37.0996 23.1002 37.0996C22.9002 37.0996 22.7002 37.0996 22.3002 36.9996C21.9002 36.8996 21.7002 36.3996 21.6002 35.4996L20.2002 26.2996ZM8.4002 25.1996C8.7002 25.0996 8.9002 24.9996 9.1002 24.7996C10.5002 23.8996 11.3002 22.8996 11.6002 21.9996C11.9002 21.1996 12.0002 20.1996 12.0002 19.3996C12.0002 18.5996 12.0002 17.8996 12.0002 17.2996V14.5996C12.0002 12.2996 12.0002 11.8996 12.0002 11.4996C12.0002 10.9996 12.1002 10.6996 12.5002 10.6996C12.6002 10.6996 12.7002 10.6996 12.8002 10.6996C12.9002 10.4996 12.8002 10.3996 12.8002 10.3996C12.2002 10.3996 11.4002 10.3996 11.0002 10.3996C10.6002 10.3996 9.70019 10.3996 9.00019 10.3996C8.90019 10.5996 9.00019 10.6996 9.00019 10.6996C9.20019 10.6996 9.3002 10.6996 9.4002 10.6996C9.9002 10.7996 10.0002 10.9996 10.0002 11.4996C10.0002 11.9996 10.0002 12.3996 10.0002 14.5996V18.8996C10.0002 21.7996 10.0002 23.2996 8.9002 24.3996C8.6002 24.6996 8.4002 24.8996 8.2002 24.9996C8.2002 25.1996 8.2002 25.2996 8.2002 25.2996L8.4002 25.1996ZM14.5002 15.8996C14.5002 18.4996 16.2002 21.6996 20.5002 21.6996C24.8002 21.6996 26.6002 18.9996 26.6002 15.5996C26.6002 12.1996 24.3002 10.0996 20.6002 10.0996C16.9002 10.0996 14.5002 13.3996 14.5002 15.8996ZM40.5002 21.4996C40.6002 21.2996 40.5002 21.1996 40.5002 21.1996C40.3002 21.1996 40.1002 21.1996 39.9002 21.1996C39.5002 21.1996 39.4002 20.7996 39.3002 20.3996C39.3002 19.7996 39.3002 18.5996 39.3002 17.1996V14.5996C39.3002 12.2996 39.3002 11.8996 39.3002 11.4996C39.3002 10.9996 39.4002 10.6996 39.8002 10.6996C39.9002 10.6996 40.0002 10.6996 40.1002 10.6996C40.2002 10.4996 40.1002 10.3996 40.1002 10.3996C39.5002 10.3996 38.7002 10.3996 38.3002 10.3996C37.9002 10.3996 37.0002 10.3996 36.3002 10.3996C36.2002 10.5996 36.3002 10.6996 36.3002 10.6996C36.5002 10.6996 36.6002 10.6996 36.7002 10.6996C37.2002 10.7996 37.3002 10.9996 37.3002 11.4996C37.3002 11.9996 37.3002 12.3996 37.3002 14.5996V14.8996H31.5002C31.5002 14.9996 31.5002 14.5996 31.5002 14.5996C31.5002 12.2996 31.5002 11.8996 31.5002 11.4996C31.5002 10.9996 31.6002 10.6996 32.0002 10.6996C32.1002 10.6996 32.2002 10.6996 32.3002 10.6996C32.4002 10.4996 32.3002 10.3996 32.3002 10.3996C31.7002 10.3996 30.9002 10.3996 30.5002 10.3996C30.1002 10.3996 29.2002 10.3996 28.5002 10.3996C28.4002 10.5996 28.5002 10.6996 28.5002 10.6996C28.7002 10.6996 28.8002 10.6996 28.9002 10.6996C29.4002 10.7996 29.5002 10.9996 29.5002 11.4996C29.5002 11.9996 29.5002 12.3996 29.5002 14.5996V17.1996C29.5002 18.5996 29.5002 19.6996 29.5002 20.3996C29.5002 20.7996 29.4002 21.1996 29.1002 21.1996C29.1002 21.1996 28.9002 21.1996 28.7002 21.1996C28.6002 21.3996 28.7002 21.4996 28.7002 21.4996C29.3002 21.4996 30.1002 21.4996 30.5002 21.4996C30.9002 21.4996 31.8002 21.4996 32.7002 21.4996C32.8002 21.2996 32.7002 21.1996 32.7002 21.1996C32.5002 21.1996 32.3002 21.1996 32.1002 21.1996C31.7002 21.1996 31.6002 20.7996 31.5002 20.3996C31.5002 19.7996 31.5002 18.5996 31.5002 17.1996V15.8996H37.3002V17.1996C37.3002 18.5996 37.3002 19.6996 37.3002 20.3996C37.3002 20.7996 37.2002 21.1996 36.9002 21.1996C36.9002 21.1996 36.7002 21.1996 36.5002 21.1996C36.4002 21.3996 36.5002 21.4996 36.5002 21.4996C37.1002 21.4996 37.9002 21.4996 38.3002 21.4996C38.7002 21.4996 39.6002 21.4996 40.5002 21.4996ZM42.8002 21.4996C43.5002 21.4996 44.2002 21.4996 44.3002 21.4996C44.6002 21.4996 45.2002 21.4996 46.1002 21.4996C46.2002 21.2996 46.1002 21.1996 46.1002 21.1996C45.9002 21.1996 45.7002 21.1996 45.5002 21.0996C45.2002 20.9996 45.0002 20.5996 45.0002 19.4996L44.8002 13.2996C45.1002 13.5996 46.8002 15.3996 48.4002 16.9996C49.9002 18.4996 51.8002 20.4996 52.8002 21.3996L53.0002 21.5996C53.0002 21.5996 53.1002 21.5996 53.2002 21.5996C53.4002 21.5996 53.5002 21.4996 53.5002 21.2996L53.7002 11.8996C53.7002 11.0996 53.8002 10.7996 54.2002 10.5996C54.3002 10.5996 54.4002 10.5996 54.5002 10.5996C54.6002 10.3996 54.5002 10.2996 54.5002 10.2996C53.8002 10.2996 53.3002 10.2996 53.1002 10.2996C52.8002 10.2996 52.1002 10.2996 51.3002 10.2996C51.2002 10.4996 51.3002 10.5996 51.3002 10.5996C51.5002 10.5996 51.7002 10.5996 51.9002 10.5996C52.3002 10.6996 52.4002 10.9996 52.4002 11.8996V18.5996C52.2002 18.3996 50.2002 16.1996 49.2002 15.1996C47.0002 12.9996 44.8002 10.5996 44.6002 10.3996L44.4002 10.1996C44.4002 10.1996 44.3002 10.1996 44.2002 10.1996C44.0002 10.1996 43.9002 10.2996 43.9002 10.4996V19.2996C43.8002 20.5996 43.7002 20.9996 43.3002 21.0996C43.1002 21.0996 43.0002 21.0996 42.8002 21.0996C42.7002 21.2996 42.8002 21.3996 42.8002 21.3996V21.4996ZM23.0002 46.8996C22.8002 47.0996 22.6002 47.0996 22.1002 47.0996C21.6002 47.0996 21.4002 47.0996 21.1002 46.9996C21.1002 46.9996 21.0002 46.9996 21.0002 46.7996V42.8996C21.0002 42.7996 21.0002 42.6996 21.1002 42.6996C21.2002 42.6996 21.5002 42.6996 21.8002 42.6996C22.6002 42.6996 23.8002 43.1996 23.8002 44.9996C23.8002 46.7996 23.4002 46.5996 23.0002 46.8996ZM49.0002 31.7996C48.7002 31.9996 48.5002 32.0996 47.9002 32.0996C47.3002 32.0996 47.1002 32.0996 46.8002 31.9996C46.7002 31.9996 46.7002 31.8996 46.7002 31.6996V27.1996C46.7002 27.0996 46.7002 26.9996 46.8002 26.9996C46.9002 26.9996 47.2002 26.9996 47.6002 26.9996C48.5002 26.9996 49.9002 27.5996 49.9002 29.6996C49.9002 31.7996 49.5002 31.5996 49.0002 31.8996V31.7996ZM24.6002 16.1996C24.6002 20.4996 22.2002 20.9996 21.2002 20.9996C18.4002 20.9996 16.6002 18.5996 16.6002 15.4996C16.6002 12.3996 18.5002 10.8996 20.3002 10.8996C22.7002 10.8996 24.6002 12.9996 24.6002 16.2996V16.1996Z" fill="currentColor"/>
</svg>
