<svg xmlns="http://www.w3.org/2000/svg" width="166.749" height="54.996"><g data-name="Group 2914"><g data-name="Group 2912" fill="currentColor"><path data-name="Exclusion 7" d="M166.749 53.41H62.071V30.08h104.678v23.33zm-75.778-5.067v2a6.37 6.37 0 0 0 1.338.139 2.92 2.92 0 0 0 1.868-.494 3.392 3.392 0 0 0 1.054-1.789l.724-2.45 2.338-7.739h-2.341l-1.7 6.792-2.058-6.787h-2.423l2.7 7.739.64 1.866a1.453 1.453 0 0 1-.459.622 1.357 1.357 0 0 1-.794.184 3.593 3.593 0 0 1-.891-.083zm18.737-14.5a6.235 6.235 0 0 0-2.639.558 5.8 5.8 0 0 0-1.979 1.505 7.409 7.409 0 0 0-1.674 4.84 8.606 8.606 0 0 0 .418 2.718 6.5 6.5 0 0 0 1.253 2.238 5.562 5.562 0 0 0 1.945 1.423 6.616 6.616 0 0 0 2.676.526 5.976 5.976 0 0 0 2.471-.484 4.915 4.915 0 0 0 1.844-1.465 7.882 7.882 0 0 0 1.113-1.977l-2.255-1.03a4.1 4.1 0 0 1-1.092 1.946 2.919 2.919 0 0 1-2.054.755 3.486 3.486 0 0 1-1.682-.4 3.316 3.316 0 0 1-1.15-1.054 5.637 5.637 0 0 1-.87-3.167 5.635 5.635 0 0 1 .87-3.166 3.315 3.315 0 0 1 1.15-1.054 3.488 3.488 0 0 1 1.682-.4 2.822 2.822 0 0 1 2.9 2.45l2.366-.612a5.038 5.038 0 0 0-5.296-4.154zm-36.025 0a6.238 6.238 0 0 0-2.639.558 5.8 5.8 0 0 0-1.982 1.501 7.406 7.406 0 0 0-1.674 4.84 8.616 8.616 0 0 0 .418 2.718 6.514 6.514 0 0 0 1.253 2.238 5.562 5.562 0 0 0 1.945 1.423 6.616 6.616 0 0 0 2.676.526 5.978 5.978 0 0 0 2.471-.484 4.917 4.917 0 0 0 1.844-1.465 7.843 7.843 0 0 0 1.114-1.977l-2.255-1.03a4.1 4.1 0 0 1-1.092 1.946 2.919 2.919 0 0 1-2.054.755 3.484 3.484 0 0 1-1.682-.4 3.314 3.314 0 0 1-1.155-1.055 5.638 5.638 0 0 1-.87-3.167 5.635 5.635 0 0 1 .87-3.166 3.315 3.315 0 0 1 1.155-1.054 3.486 3.486 0 0 1 1.682-.4 2.822 2.822 0 0 1 2.9 2.45l2.363-.613a5.038 5.038 0 0 0-5.291-4.148zm46.8 3.952a4.675 4.675 0 0 0-3.531 1.406 4.477 4.477 0 0 0-.935 1.554 5.726 5.726 0 0 0-.322 1.94 5.3 5.3 0 0 0 .891 3.062 4.56 4.56 0 0 0 3.869 1.838 5.169 5.169 0 0 0 2.29-.491 4.152 4.152 0 0 0 1.58-1.347 5.3 5.3 0 0 0 .891-3.062 5.594 5.594 0 0 0-.308-2.007 4.311 4.311 0 0 0-.976-1.578 4.692 4.692 0 0 0-3.453-1.319zm29.588.024a4.676 4.676 0 0 0-3.53 1.406 4.477 4.477 0 0 0-.935 1.554 5.727 5.727 0 0 0-.322 1.94 5.306 5.306 0 0 0 .887 3.061h.04a4.215 4.215 0 0 0 1.543 1.307 4.8 4.8 0 0 0 2.148.476 4.608 4.608 0 0 0 2.25-.525 3.986 3.986 0 0 0 1.362-1.258h.037a7.434 7.434 0 0 0 .585-1.03l-1.921-1a3.65 3.65 0 0 1-.765 1.18 2.1 2.1 0 0 1-1.517.574 2.041 2.041 0 0 1-1.726-.863 3.358 3.358 0 0 1-.557-1.949 3.189 3.189 0 0 1 .606-1.949 2.209 2.209 0 0 1 1.815-.863 2.1 2.1 0 0 1 1.977 1.5l1.977-.919a4.407 4.407 0 0 0-1.34-1.844 4.161 4.161 0 0 0-2.614-.798zm-23.969.2v6.179a4.105 4.105 0 0 0 .25 1.532 2.63 2.63 0 0 0 1.319 1.458 4.1 4.1 0 0 0 1.824.376 3.354 3.354 0 0 0 2.676-1.141l.028.918h2.256v-9.354h-2.256v5.038h.056a2.652 2.652 0 0 1-.477 1.6 2.07 2.07 0 0 1-1.751.766c-1.155 0-1.67-.567-1.67-1.838v-5.538zm-41.4 1.614v5.568c0 .1.008.195.015.285s.014.162.014.244a1.775 1.775 0 0 0 .671 1.27 2.9 2.9 0 0 0 1.778.456 8.243 8.243 0 0 0 1.781-.224v-1.84a5.657 5.657 0 0 0-.4.051 4.069 4.069 0 0 1-.6.06.944.944 0 0 1-.825-.3 1.387 1.387 0 0 1-.177-.842v-4.732h2v-1.614h-2v-3.314h-2.255v3.314h-1.363v1.614zm51.5-1.614v9.353h2.255v-4.959a2.7 2.7 0 0 1 .585-1.872 1.86 1.86 0 0 1 1.42-.577 1.455 1.455 0 0 1 1.218.522 1.883 1.883 0 0 1 .341 1.148v5.706h2.255v-6.375a4.584 4.584 0 0 0-.223-1.365 2.593 2.593 0 0 0-.6-.994 2.539 2.539 0 0 0-1-.608 4.488 4.488 0 0 0-1.429-.206 3.563 3.563 0 0 0-1.361.268 2.9 2.9 0 0 0-1.173.873l-.028-.918zm-56.153 0v9.353h2.255v-9.357zm79.128-3.819v13.14h2.254V34.2zm-4.093 3.787v9.353h2.255v-9.353zm0-3.759v2.283h2.255v-2.283zM80.055 34.2v2.28h2.255V34.2zm40.423 11.3a2.21 2.21 0 0 1-1.817-.863 3.19 3.19 0 0 1-.605-1.949 3.191 3.191 0 0 1 .605-1.949 2.343 2.343 0 0 1 3.634 0 3.188 3.188 0 0 1 .606 1.949 3.17 3.17 0 0 1-.616 1.949 2.21 2.21 0 0 1-1.806.867z"/><path data-name="Exclusion 6" d="M166.749 27.908H62.071V4.578h104.678v23.33zm-50.251-5.568a2.677 2.677 0 0 0 .8 1.886 3.2 3.2 0 0 0 1.172.721 5.406 5.406 0 0 0 1.841.288 7.03 7.03 0 0 0 3.488-.657 2.8 2.8 0 0 0 1.358-2.658v-1.418h-.056v-7.739h-2.256v.886a3.024 3.024 0 0 0-1.037-.784 3.878 3.878 0 0 0-1.608-.3 4.174 4.174 0 0 0-1.622.314 3.682 3.682 0 0 0-1.288.9 4.786 4.786 0 0 0-1.155 3.323 5.568 5.568 0 0 0 .331 1.948 4.153 4.153 0 0 0 .894 1.448h.056a3.618 3.618 0 0 0 1.239.842 4.108 4.108 0 0 0 1.573.3 4.415 4.415 0 0 0 1.368-.223 3.091 3.091 0 0 0 1.305-.807v1c0 1.221-.752 1.893-2.116 1.893a2.379 2.379 0 0 1-1.316-.344 1.413 1.413 0 0 1-.605-.825zm-36.193-1.81a4.152 4.152 0 0 0 1.59 1.347 5.564 5.564 0 0 0 4.57 0 4.155 4.155 0 0 0 1.58-1.347 5.306 5.306 0 0 0 .89-3.063 5.664 5.664 0 0 0-.327-2.012 4.355 4.355 0 0 0-.99-1.581 4.709 4.709 0 0 0-3.447-1.306 4.676 4.676 0 0 0-3.527 1.41 4.473 4.473 0 0 0-.935 1.554 5.724 5.724 0 0 0-.321 1.94 5.306 5.306 0 0 0 .89 3.063zm56.432-.028a3.057 3.057 0 0 0 2.979 1.838 4.908 4.908 0 0 0 1.631-.268 4.724 4.724 0 0 0 1.4-.79 1.979 1.979 0 0 0 .222.863h2.367a2.716 2.716 0 0 1-.363-1.56v-.083h.057v-4.871a3.432 3.432 0 0 0-.359-1.606 2.344 2.344 0 0 0-.916-.927 5.727 5.727 0 0 0-2.76-.529 5.018 5.018 0 0 0-2.763.7 2.664 2.664 0 0 0-.886.941 2.848 2.848 0 0 0-.333 1.391l2.255.083c0-1.028.452-1.393 1.726-1.393 1.2 0 1.781.382 1.781 1.169v.279a20.584 20.584 0 0 1-2.016.473l-.406.083-.946.195a4.218 4.218 0 0 0-1.942.877 2.593 2.593 0 0 0-.9 2.046 3.271 3.271 0 0 0 .2 1.086zm-40.98-7.711v1.614h1.364v5.573a3.185 3.185 0 0 0 .028.528 1.776 1.776 0 0 0 .672 1.27 2.9 2.9 0 0 0 1.779.456 8.158 8.158 0 0 0 1.781-.222v-1.841c-.135.011-.276.033-.4.051a4.088 4.088 0 0 1-.6.06.945.945 0 0 1-.825-.3 1.457 1.457 0 0 1-.177-.842v-4.733h2v-1.614h-2V9.478h-2.258v3.313zm-6.542 0v1.614h1.364v5.573a3.146 3.146 0 0 0 .028.528 1.773 1.773 0 0 0 .672 1.27 2.9 2.9 0 0 0 1.778.456 8.153 8.153 0 0 0 1.782-.222v-1.841a6.431 6.431 0 0 0-.409.051h-.006a4.271 4.271 0 0 1-.587.059.943.943 0 0 1-.825-.3 1.385 1.385 0 0 1-.178-.842v-4.732h2v-1.614h-2V9.478h-2.255v3.313zm67.567 1.893a1.386 1.386 0 0 1 1.162.511 2.126 2.126 0 0 1 .369 1.325v5.68h2.258v-6.57a2.972 2.972 0 0 0-.751-2.215 3.848 3.848 0 0 0-5.373.544 2.174 2.174 0 0 0-1.141-1.081 4.008 4.008 0 0 0-1.618-.31 3.57 3.57 0 0 0-2.7 1.141v-.918h-2.256v9.355h2.255v-4.929a3.061 3.061 0 0 1 .529-1.781 1.743 1.743 0 0 1 1.448-.779c1.006 0 1.56.652 1.56 1.837v5.684h2.255v-4.933a3.04 3.04 0 0 1 .532-1.781 1.773 1.773 0 0 1 1.471-.78zm-45.63.083a1.455 1.455 0 0 1 1.219.522 1.883 1.883 0 0 1 .341 1.148v5.708h2.259V15.77c-.057-2.154-1.123-3.2-3.257-3.2a3.562 3.562 0 0 0-1.361.268 2.892 2.892 0 0 0-1.172.874l-.029-.919h-2.259v9.355h2.255v-4.931a2.679 2.679 0 0 1 .6-1.872 1.857 1.857 0 0 1 1.404-.577zm20.319-.027c1.155 0 1.67.567 1.67 1.838v5.54h2.26v-6.181a3.289 3.289 0 0 0-1.152-2.7 3.744 3.744 0 0 0-2.3-.671 3.352 3.352 0 0 0-2.672 1.141l-.028-4.729h-2.255v13.14h2.255v-4.789a3.142 3.142 0 0 1 .476-1.722 1.928 1.928 0 0 1 .686-.622 2.244 2.244 0 0 1 1.06-.245zm-28.7-1.977v9.355h2.255v-9.355zm-32.267 0l4.592 7.738.946 1.615h2.284V8.978h-2.255v9.308l-5.537-9.308h-2.282v13.14h2.254v-9.354zm32.267-3.785v2.281h2.255V8.978zm37.585 11.524a1.662 1.662 0 0 1-1.026-.323 1.062 1.062 0 0 1-.421-.846 1.015 1.015 0 0 1 .456-.912 3.044 3.044 0 0 1 1.1-.369l1.225-.25a4.275 4.275 0 0 0 1.058-.335v1.311a1.514 1.514 0 0 1-.8 1.312 3.166 3.166 0 0 1-1.592.412zm-56.185-.224a2.21 2.21 0 0 1-1.817-.863 3.191 3.191 0 0 1-.605-1.949 3.189 3.189 0 0 1 .605-1.948 2.344 2.344 0 0 1 3.633 0 3.188 3.188 0 0 1 .605 1.948 3.19 3.19 0 0 1-.605 1.949 2.209 2.209 0 0 1-1.816.863zm36.554-.7a1.99 1.99 0 0 1-1.741-.863 2.918 2.918 0 0 1 0-3.229 2.186 2.186 0 0 1 3.48 0 2.918 2.918 0 0 1 0 3.229 1.989 1.989 0 0 1-1.734.868z"/></g><g data-name="Group 2895"><path data-name="Path 8854" d="M14.226 45.531l-.056-.167-.835.167-.473.084.084.251.473-.083.251 1.392.334-.083-.251-1.392.473-.084zm-2.311.167l.334 1.615.334-.083-.251-1.615zm19.711-.39l.807-.084v-.251h-.863v-.306h.891v-.334l-1.2.084.056 1.114.028.5 1.281-.084v-.251l-.974.083v-.473zm14.338 1.921a.763.763 0 0 0 .557.167.555.555 0 0 0 .5-.724l-.251-1.058-.334.084.251 1.058c0 .167 0 .334-.251.334-.167.084-.334 0-.39-.251l-.223-.974-.334.084.223.947c.111.195.195.334.251.334m2.032-.947h.167c.167 0 .334 0 .334.084.084.167-.167.223-.223.334-.334.084-.39-.084-.39-.167l-.334.083c0 .167.251.5.807.334a.485.485 0 0 0 .418-.64c-.084-.334-.251-.334-.473-.334h-.39c-.084 0-.167.084-.251-.084a.267.267 0 0 1 .251-.251c.306-.084.306.084.39.167l.306-.167c-.028-.028-.028-.056-.056-.084-.084-.139-.278-.306-.752-.223a.735.735 0 0 0-.362.223.463.463 0 0 0-.056.418c.056.306.278.306.612.306m-37.305.724l-.306-1.281h-.418l.557 1.615h.334l.557-1.615h-.332zm-3.536-.251l.306.084 1.2-1.281H8.63l-.278-.083-.056.083-.835.891.167-.891.056-.251c-.139.028-.278.028-.418.056l-.028.195zm35.916-1.109l-.418-.084-.334-.083-.028.083-.39 1.448.334.084.167-.585.334.083c.167 0 .251.083.167.334a.631.631 0 0 0-.084.334l.334.084a.631.631 0 0 1 .084-.334c.084-.306 0-.418-.084-.473.167 0 .251-.084.334-.334a.55.55 0 0 0-.418-.557m-.223.724l-.39-.167.167-.418.39.083a.3.3 0 0 1 .167.306c-.111.195-.167.195-.334.195m1.03-.251h.473v1.281h.334v-1.283h.473v-.223h-1.277v.223zM8.851 47.232l.334.083.39-1.615-.334-.084zm21.576-2.9h-.306l.084 1.2-.724-1.114h-.418l.111 1.114.056.557.334-.084-.028-.5-.056-.64.418.64.306.5h.334l-.028-.5zm9.438 1.2l-.278.5-.028-.5-.056-.724-.334-.084.084.807.084.807.306.084.529-.891.278-.473-.306-.083zm-18.848-1.2c.334.084.334.251.334.334l.334.084a.592.592 0 0 0-.557-.64c-.64-.084-.807.251-.807.39-.084.39.251.473.473.64l.251.084a.221.221 0 0 1 .251.251.1.1 0 0 1-.028.084c-.056.084-.251.084-.306.084a.4.4 0 0 1-.306-.084.313.313 0 0 1-.084-.223l-.39-.083a.653.653 0 0 0 .056.306.733.733 0 0 0 .668.418c.139 0 .668 0 .78-.418a.1.1 0 0 1 .028-.083.512.512 0 0 0-.5-.557l-.306-.167c-.084 0-.251-.084-.251-.167-.056-.167.195-.251.362-.251m1.114.251l.557.084-.084.863-.056.557h.334l.056-.557.084-.863.557.084.084-.334-1.448-.167zm6.292-.167h-.306v1.141c.084.167 0 .334-.251.334a.306.306 0 0 1-.334-.334l-.084-1.03h-.334v1.141c.084.167.084.334.167.418a.732.732 0 0 0 .557.167.574.574 0 0 0 .64-.64zm-2.9 1.865h.39v-.724h.724v-.334h-.724v-.334h.807v-.334h-1.2zm10.523-1.949h-.418l-.473 1.2-.167.418h.39l.084-.334h.64l.084.418h.334l-.139-.5zm-.473 1.058l.251-.724.167.724zm-1.03-.557a.454.454 0 0 0-.5-.473h-.891v1.7h.334v-.64h.418c.167 0 .223.056.251.167v.167c0 .167 0 .251.084.334h.334c-.084-.084-.084-.167-.084-.418v-.084a.315.315 0 0 0-.139-.306.487.487 0 0 0 .195-.445m-.64.223h-.418v-.39h.473c.167 0 .251.084.251.223 0 .167-.084.167-.306.167M18.9 44.111a.85.85 0 0 0-.891.974 1.109 1.109 0 0 0 .084.473.913.913 0 0 0 .78.5.885.885 0 0 0 .78-.5 1.109 1.109 0 0 0 .084-.473c.056-.919-.585-.974-.835-.974m.334 1.42a.418.418 0 0 1-.668 0 .684.684 0 0 1-.139-.473c0-.5.306-.64.473-.64s.473.167.473.64a.57.57 0 0 1-.139.473m-2.339-1.03l-.724.167.167.863.167.891.334-.083-.084-.64.418-.083a2.637 2.637 0 0 0 .251-.084.579.579 0 0 0 .251-.557.608.608 0 0 0-.78-.473m.167.891l-.39.083-.084-.557.251-.084c.223-.083.39 0 .39.167 0 .056.084.306-.167.39m24.026.139l-.362 1.141.334.083.418-1.225.084-.251-.334-.167zm-29.008-3.285a1.709 1.709 0 0 1-.64.306c-.223 0-.39-.139-.557-.139-.7.278-1.336.529-1.949.78h3.146l.835-.362c.167-.167 0-.334.084-.473a15.14 15.14 0 0 1 2.673-1.141c.167.139.39.473.64.334a.971.971 0 0 0 .473-.167 6.418 6.418 0 0 0-.585 1.837h.78a4.381 4.381 0 0 1 1.253-2.366h-3.758l-2.255.919a.63.63 0 0 0-.139.473m6.9.167a3.477 3.477 0 0 1 3.7-.807 4.936 4.936 0 0 1 2.172 1.2.641.641 0 0 1 .306.362h1.086a6.154 6.154 0 0 0-3.591-2.366h-.028a5.776 5.776 0 0 0-1.67-.167l-.752.195-.529.139c0-.056-.028-.084-.028-.139h-.891a2.006 2.006 0 0 0 .223 1.587m31.487-1.587h1a22.439 22.439 0 0 0 .111-2.366h-1.05a3.463 3.463 0 0 1-.056 2.366m-7.155-5.819a6.5 6.5 0 0 1-1.587 1.114 24.6 24.6 0 0 0-2.923 1.615l-1.837.084a5.45 5.45 0 0 0 1.03-1.7h-.751a4.058 4.058 0 0 1-.668.919 7.332 7.332 0 0 1-2.227 1.448h1.587a1.954 1.954 0 0 1 .251-.167c.084 0 .139.056.195.167a.861.861 0 0 1 .056.223l-.167.167c-.084-.084-.334-.084-.585-.167v-.169a.665.665 0 0 0 .251-.056h-1.589a28.076 28.076 0 0 1-4.454 1.364h-.167a3.741 3.741 0 0 1 0-1.364h-.78c0 .585-.056 1.2 0 1.782-.278.139-.557.445-.835.585h1.364a5.105 5.105 0 0 1 1.392-.445 4.069 4.069 0 0 0-.529.445 6.038 6.038 0 0 0-1.81 2.366h.891a4.524 4.524 0 0 1 2.394-2.366c.195-.084.39-.195.585-.278 1.281-.418 2.589-1.03 3.7-.473a2.311 2.311 0 0 1 .39.724l-.028.028-.056.139a1.57 1.57 0 0 0-.334-.111 5.279 5.279 0 0 0-2.868 0 8.079 8.079 0 0 0-1.7.7 4.5 4.5 0 0 0-1.643 1.67h.919a5.772 5.772 0 0 1 3.48-1.837 3.34 3.34 0 0 1 2.812 1.058h.167a2.378 2.378 0 0 0 .084-1.587 3.972 3.972 0 0 0-.251-.752c.223.084.223.167.39.167a5.543 5.543 0 0 1 .529.585 4.72 4.72 0 0 1 1.141 2.366v.028c-.056 0-.084-.028-.139-.028a18.727 18.727 0 0 0-7.043 0 1.206 1.206 0 0 0-.139.028c-.334 0-.724.083-1.114.083a.384.384 0 0 0 .084-.111h-.919a1.209 1.209 0 0 0-.111.195c0 .084-.251 0-.39 0a.4.4 0 0 0 .056-.195h-.891a1.356 1.356 0 0 0-.084.195c-.223.167-.557 0-.807.084a.833.833 0 0 0-.111-.278 6.58 6.58 0 0 0-1.754-2.366h-1.61c.251.111.5.251.752.362a5.207 5.207 0 0 1 1.726 1.977c.028.028.028.084.056.111 0 .251-.251.084-.251.084a1.211 1.211 0 0 1-.111-.195h-1.086v.028c-.139 0-.278-.028-.418-.028-2.394-.167-4.872-.612-7.461 0a2.317 2.317 0 0 0-.418.111v-.111h-.78c-.028.139-.084.278-.111.445a22.269 22.269 0 0 1-6.431.891 7.5 7.5 0 0 1-1.058-.334c.891-.251 1.921-1.2 2.9-.724l.612-.278H8.909c-.7.278-1.364.557-2.06.835a5.586 5.586 0 0 1 .334-.807c.028 0 .028-.028.056-.028.195-.139.362-.139.445-.445.084-.083 0-.251.167-.39.084-.167.39-.251.64-.334l.167.084c.084.167.084.334.334.334l3.536-1.587H9.1a1.577 1.577 0 0 0 .223.362v.139c-.167-.084-.251-.139-.251-.306l-.167-.083a4.21 4.21 0 0 0-1.921.974.616.616 0 0 1-.167.473 4.82 4.82 0 0 1-.919-1.587 4.535 4.535 0 0 1-.111-2.366H4.7a22.406 22.406 0 0 1 .084 2.366 2.913 2.913 0 0 0 .807 2.144l-.445.223-2.756 1.308c.64.251 1.141.334 1.531.473l.084.167c-.056.139-.139.251-.195.39a4.329 4.329 0 0 0-.223.64h.167c.251-.083.557-.306.807-.223 3.313 3.452 8.213 2.561 12.417 1.448.084.251.167.251.167.334a5.806 5.806 0 0 0 3.118 2.533h3.4a1.086 1.086 0 0 0 0-.668 5.33 5.33 0 0 1-4.677-.891 5.477 5.477 0 0 1-1.281-1.448v-.148c.167-.083.334 0 .473 0l.891 1.2a2.846 2.846 0 0 0 2.172 1.03c.167-.084.084-.39.167-.557a3.441 3.441 0 0 0 3.146-.251 6.916 6.916 0 0 0 .974-1.141c.167-.084.334 0 .473 0-.111 1-1.2 1.865-1.281 2.867a1.4 1.4 0 0 0 .251.947 3.388 3.388 0 0 1 .473.223c.39-.223.807-.64 1.448-.223l1.03.807c.557-.334 1.058-1.141 1.921-.974.167.084.251.251.557.39h.167a1.545 1.545 0 0 0 .64-1.114v-.056a14.123 14.123 0 0 0-1.364-2.756v-.167h.473a3.737 3.737 0 0 0 1.782 1.531 3.028 3.028 0 0 0 2.422-.084c.084.084 0 .223.084.473l.167.167a4.976 4.976 0 0 0 1.921-.891c.39-.39.64-.974 1.141-1.448h.334l.167.084a5.168 5.168 0 0 1-2.673 2.339 6.011 6.011 0 0 1-3.285.084l-.167.167a1.169 1.169 0 0 0 .028.529 4.7 4.7 0 0 0 .223.668 1.008 1.008 0 0 0-.807.807c-.084.084 0 .251-.167.39-.084.084-.334.334-.557.334a.54.54 0 0 1-.418-.167 4.08 4.08 0 0 1-.5-.807c-.167-.167-.306 0-.473.083 0 0-.084 0-.223.167a3.083 3.083 0 0 0-.724 1.364c-.167.167-.39.306-.557.473-.418-.084-.418-.251-.724-.418-.167-.334-.084-1.058-.5-1.364a1.314 1.314 0 0 0-.891-.39c-.334.39-.334.807-.891 1.141-.251-.083-.64-.334-.64-.557a3.023 3.023 0 0 0-.473-.891c-.084-.084-.167-.084-.334-.167a6.731 6.731 0 0 1 .084-.7h-3.4a5.582 5.582 0 0 0 2.506.278c0 .39-.39.724-.473 1.2.084.084.084.251.251.334.334-.167.64-.418.891-.334a7.233 7.233 0 0 0 .557 1.141 5.047 5.047 0 0 0 .974.39 1.827 1.827 0 0 0 1.2-.807l.167.167a6.277 6.277 0 0 1 .167 1.141 2.246 2.246 0 0 1 1.448 1.2v-.167c.167-.083.167-.167.167-.251a2.018 2.018 0 0 1 1.28-.809 2.781 2.781 0 0 1 .167-1.2l.167-.084c0 .167.167.167.084.251a1.865 1.865 0 0 0 1.2.473 1.588 1.588 0 0 0 1.141-.64c.167-.223.167-.64.473-.891l.167.083a2.093 2.093 0 0 0 .585.334l.167-.251c.167-.473-.334-.807-.334-1.281.251-.167.557 0 .807 0a6.332 6.332 0 0 0 1.615-.278 6.142 6.142 0 0 0 3.48-2.923 9.754 9.754 0 0 1 1.364.39c3.619 1.058 8.38 1.281 11.359-1.837.334.084.557.306.891.223a5.019 5.019 0 0 1-.223-.585 1.8 1.8 0 0 1-.084-.557c.557-.306 1.141-.223 1.531-.473L51 43.22h-1.81a5.281 5.281 0 0 0 .306.835 11.066 11.066 0 0 1-1.977-.835 3.706 3.706 0 0 0-2.7-.529c-.167-.083-.418-.167-.724-.334-.084-.167 0-.334 0-.473-.7-.334-1.42-.724-2.172-1.03a9.924 9.924 0 0 0-1.448-.5 2.82 2.82 0 0 1-.557.39l-.167-.167c-.167-.167 0-.418-.084-.64l-2.255-.974c0-.083-.167-.139 0-.306.167-.083.39 0 .557 0v.251a3.588 3.588 0 0 0 1.2.473c.167-.083.167-.167.334-.167l2.9 1.2.167-.084c.167 0 .084-.251.251-.39a.971.971 0 0 1 .473.167c.084.084 0 .334.084.585a1.689 1.689 0 0 1 .278.195 18.447 18.447 0 0 0 3.814 1.5 1.948 1.948 0 0 1 .223-.334 1.286 1.286 0 0 1 .807.334c.084.223.084.39.167.64 0 .084.223.167.473.167 0 .028 0 .028.028.056h1.81l-.278-.111v-.251a2.048 2.048 0 0 1 .223-.334c.251-.139.418-.223.418-.306.084-.445.139-.891.195-1.336h-1a3.326 3.326 0 0 1-.334.612 3.464 3.464 0 0 0-.64.974c-.167-.891-1.448-1.2-2.255-1.448-.167.167-.167.334-.334.5a.515.515 0 0 1 .111-.612c.028 0 .028-.028.056-.028a1.551 1.551 0 0 0 .084-1.448.4.4 0 0 0-.557-.167c-.251-.251-.64-.557-.974-.473a1.021 1.021 0 0 0-1.03.724.575.575 0 0 0 0 .64 1.362 1.362 0 0 1 .64.585h-.139a4.893 4.893 0 0 1-.974-.418c-.167-.167 0-.5-.084-.64a6.128 6.128 0 0 0-1.7-.724c-.084 0-.251.251-.251.39a4.728 4.728 0 0 1-1.977-.807c-.028-.028-.084-.056-.111-.084.084-.083.334 0 .473-.083a10.8 10.8 0 0 1 3.257-2.2 29.93 29.93 0 0 1 1.42-.612 21.908 21.908 0 0 1 .084-2.255 21.4 21.4 0 0 1 2.979.473 9.887 9.887 0 0 0 1.141 2.394 12.914 12.914 0 0 1 1.141 2.339h1.058c.028-.78.028-1.587.056-2.366a12.741 12.741 0 0 1 .78-4.176l.334-.083a.9.9 0 0 0 .64.167 1.19 1.19 0 0 0 1.114-.612H42.9a7.332 7.332 0 0 0 .612 3.118c.056.084-.028.251-.195.418M4.982 44.503c0-.167-.334 0-.223-.251l1.2-.5c.223 0 .306.251.39.418a4.364 4.364 0 0 1-1.448.64c-.084.028 0-.139.084-.306M24.3 47.563a2.2 2.2 0 0 1-1.615.724 2.687 2.687 0 0 1-1.7-.807 2.377 2.377 0 0 0-.557.891 3.81 3.81 0 0 1-1.364-1.448c1.782-.334 3.7.167 5.484.39 0 .083 0 .167-.251.251m6.125 2.645v.167h-.167a.588.588 0 0 0-.278-.111h-.306a.933.933 0 0 0-.278 0c-.251.056-.529.139-.807.195-.167.167-.473.334-.64.473a3.2 3.2 0 0 0-1.281-.7 1.587 1.587 0 0 0-.724 0h-.028a1.931 1.931 0 0 0-.362.139c0-.056.028-.084.028-.139.278-.919 1.114-1.865 1.336-2.756a17.456 17.456 0 0 1 2.088-.083zm5.067-1.837c-.167-.251-.251-.557-.418-.807h-.251a3.478 3.478 0 0 1-2.255.724 3.772 3.772 0 0 1-1.281-1.058 20.267 20.267 0 0 1 5.54-.39l.084.167a3.066 3.066 0 0 1-1.42 1.364m14.755-4.677l1.364.557a.309.309 0 0 1-.251.167c-.167.167.167.334-.084.473l-1.364-.724c.084-.306.084-.306.334-.473m.418 1.837c.056.028.084.056.139.084-1.865 2-5.067 2.255-7.489 1.921-7.656-2.979-15.7.084-23.358-1.615-3.619.334-6.988 2.172-10.3 1.615h-.167a6.09 6.09 0 0 1-4.037-1.921l.5-.084c.445-.083.891-.139 1.336-.195l.028-.39.39.167-.028.167c3.981-.445 8.018-.251 12.027-1.615 7.238 1.7 14.56-1.615 21.743 1.364a11.938 11.938 0 0 0 7.238-.39 12.619 12.619 0 0 1 1.977.891m-10.8-3.925c.334 0 .473-.251.807-.39l2.506 1.141c.084 0 0 .223.084.473a5.816 5.816 0 0 0 .724.362 2.016 2.016 0 0 0 1.225.195c.807-.084 1.615.5 2.506.807a9.626 9.626 0 0 1-3.953.5 14.652 14.652 0 0 1-3.619-.891c-.028-.195-.084-.39-.111-.585a7.423 7.423 0 0 0-.585-1.726c.084-.139.251.028.418.111m5.624-2.088a.864.864 0 0 1 .334-.083l.167.223c.084.167.167.251.557.334l-.084.251a5.612 5.612 0 0 0-.306.585 1.642 1.642 0 0 1-.111.223l.056-.223.028-.111c0-.473-.306-.724-.807-1.058zm-18.625-3.4h2.561a15.739 15.739 0 0 0-2.561 0m-4.427-9.438c.056.084.111.195.167.278a5.861 5.861 0 0 0 2.088-.083.353.353 0 0 0-.028-.167zm23.942-8.992a5.4 5.4 0 0 0 1.2.167c-.084.473-.64.724-.807 1.2-.084 0-.251.167-.334.167l-3.452-1.364.084-.585h-1a4.254 4.254 0 0 1-.195 1c.084.167.084.251.223.251v.167a2.793 2.793 0 0 1-.891.473 9.091 9.091 0 0 1-2.116-1.865 6.691 6.691 0 0 0-1.253-1.03c-1.7.084-3.4-.167-5.15.724H23.97a10.8 10.8 0 0 0-3.925-.724 2.51 2.51 0 0 0-2.533 1.03c-.251.251-.473.5-.7.752l-.167.084-1.2 1.03h-.167c-.251-.167-.557-.334-.724-.473-.167-.167.084-.251.167-.334a3.571 3.571 0 0 1-.139-1.058c0-1.03.278-2.06.223-2.951l-2.255 1.141c-.418-.473.251-1.2.473-1.865a2.141 2.141 0 0 0 .084-1.03c.334-.251.585-.557.891-.807.306-.418.724-.585.807-.974-.334-.084-.557.083-.807 0l.084-.167c1.448-.473 3.452-.807 4.427-1.865l.5-.919.056-.139v-.167l-.167-.251c-.418-.056-.612.223-.807.529a2.62 2.62 0 0 1-.418.612h-.167v-.167a3.462 3.462 0 0 1 .111-.445c.223-.724.668-1.448.863-2.06-.39-.724 0-1.531-.473-2.088l-.167-.167c-.084.167-.223.167-.223.251-.167.557-.084.974-.251 1.448l-.334-.084c-.334-.64-.39-1.615-.974-1.837l-.251.167c-.167.167-.084.334-.084.473l.64 1.615-.251.167c-.473-.334-.807-.724-1.281-1.058-.084 0-.251-.084-.334.084-.167.167-.084.39-.084.724a3.148 3.148 0 0 0 1.364.891 1.339 1.339 0 0 1 .891 1.114 1.629 1.629 0 0 1-.056.362 1.914 1.914 0 0 1-.418.668 5.6 5.6 0 0 1-2 .974v-.223c.5-.445 1.253-.724 1.587-1.42a1 1 0 0 0 .111-.306l-.167-.251h-.167a6.475 6.475 0 0 1-.863.529 11.421 11.421 0 0 0-1.086.668c-.418.334-.473.974-.807 1.364h-.334c0-.724.724-1.281.891-2v-.028a1.713 1.713 0 0 0 .056-.529.434.434 0 0 0-.167-.334H13.2a9.889 9.889 0 0 0-.64.863 4.453 4.453 0 0 0-.974 2.784 1.177 1.177 0 0 1-.807.557c-1.141-.724-.807-2.088-1.058-3.062l-.084-.167-.251-.084c-.167.167-.223.167-.223.167-.334.64.084 1.281-.084 1.921l-.39.084c-.167 0-.167-.167-.306-.251l-.64-1.977-.167-.529c-.084-.334-.251-.724-.585-.807-.167.167-.223.167-.223.167a1.7 1.7 0 0 0-.056 1.169 4.156 4.156 0 0 1 .362 1.977l-.084.167a5.255 5.255 0 0 1-1.7-.473 1.928 1.928 0 0 1-.863-1.643 32.218 32.218 0 0 0-.084-.612c.167-.557.807-.64.891-1.2.167-.334.557-.5.473-.891l-.084-.167h-.251c-.418.251-.557.557-.974.64h-.39l-.167.167c-.167.167-.306.39-.557.39L3.2 5.885c.334-.473.807-.807 1.2-1.281l.167-.167a1.342 1.342 0 0 0 .334-1.058c-.084 0-.084-.167-.334-.167l-.223.083a2.581 2.581 0 0 1-.557.807A10 10 0 0 0 1.95 5.856l-.251-.084C1.142 5.438.975 4.742.558 4.324l-.223-.167a.631.631 0 0 1-.334.084 9.847 9.847 0 0 0 1.2 2.9 1.527 1.527 0 0 0 .557.223c.167.139.278.251.418.39a4.184 4.184 0 0 1 .39.5c.891 2.255 3.536 2.673 5.484 2.728-.251.167-.557 0-.724.167v.167c.084.251.167.334.251.557.39.167.557.334.891.5v.084a8.617 8.617 0 0 0 .807 4.259c-.891.167-1.7.167-2.506.39l-.028.056h3.87a5.692 5.692 0 0 1 .362-.863c.557 0 1.141.64 1.754.5a5.4 5.4 0 0 1 .724-.64c.056.334.028.668.084 1.03l.084.418a16.077 16.077 0 0 1-3.48 1.448c-.334-.39-.64-.807-.974-1.141.306-.167.64-.084 1.03-.167a2.145 2.145 0 0 0 .39-.585h-3.87l-.056.111 2.088 1.837c.223.5.306 1.058.473 1.364a5.61 5.61 0 0 1-.167 1.392 11.765 11.765 0 0 1-2.728 4.7h.028a13.873 13.873 0 0 0-2.255 3.4c-.807.334-1.2 1.308-2.088 1.114a.544.544 0 0 0 .028.195 1.492 1.492 0 0 0 .139.306c.473.5 1.281.251 1.865.334l.084.167a37.739 37.739 0 0 1 .807 3.925 3.378 3.378 0 0 1-.334 1.7 2.64 2.64 0 0 1 .139.64h1.086a3.759 3.759 0 0 1 .306-.891c.251-.473.585-.974.891-1.475a9.639 9.639 0 0 0 1.2-2.394l2.812-.39a4.666 4.666 0 0 1 0 1.865.394.394 0 0 0 .167.39c.39.167.807.362 1.2.557a9.27 9.27 0 0 1 3.118 2.255c.167 0 .5-.167.64.084h-.028a9.85 9.85 0 0 1-1.977.807c-.084-.084-.084-.167-.084-.334l-.167-.084-1.782.64c-.167.167 0 .334-.084.557l-.084.251a5.135 5.135 0 0 0-.891.334h-.167l.167-.167.084-.167.139-.083c.251-.167.473-.39.334-.64 0-.39-.39-.724-.807-.891-.167-.167-.39 0-.557 0a1.246 1.246 0 0 0-.557.334.587.587 0 0 1-.473.167q0 .125-.251.251a1.454 1.454 0 0 0 .111 1.392h3.369l.418-.195c0-.251-.084-.5.084-.585s.251-.223.418-.167c.084 0 .167.223.167.334l.167.167 2.9-1.281c.084.083.251.083.334.167a1.488 1.488 0 0 0 1.2-.39v-.167a.584.584 0 0 1 .724 0l-.084.251-2.255.891a2.57 2.57 0 0 0-.084.807l-.167.083c-.223-.083-.334-.251-.64-.39l-1.225.5h3.758a2.981 2.981 0 0 1 .529-.5c.167-.167.251-.167.39-.39v.167a2.851 2.851 0 0 0-.306.752h.947a.9.9 0 0 1 .585-.835 6.084 6.084 0 0 1 3.87.835h1.597a4.619 4.619 0 0 1-.39-.362 3.007 3.007 0 0 1 1.169.362 8.371 8.371 0 0 1 1.42 1.03 9.555 9.555 0 0 1 1.5-1.03h-1.361c-.056.028-.084.028-.139.056 0-.028-.028-.028-.028-.056-.223-.278-.529-.362-.78-.668l.056-1.67.028-1.309.167-.083a7.445 7.445 0 0 1 1.364 0 4.474 4.474 0 0 1 .167 1.364h.78v-.251c.418-.334 1.281-.251 1.7-.724a2.976 2.976 0 0 1 .195-1.392 25.416 25.416 0 0 1 2.227-3.619h-.167c-1.2.334-2.339 1.114-3.536 1.448a.834.834 0 0 1-.334-.418c-.084-.557.39-.947.724-1.531l-.028-.612-.056-1.615c-.084 0-.223.167-.39.306-.084 0 0 .251-.223.251.084-.39-.084-.807.084-1.141.473.167.64.724 1.141.974h1.949l.167-.083c0-.418-.473-.557-.473-.891.167 0 .39-.084.557 0l.807.974h1.949c0-.39-.334-.557-.39-.891a1.373 1.373 0 0 0 1.141-.974 2.473 2.473 0 0 0-.167-1.643c-.028-.056-.056-.083-.084-.139-.64-.64-1.7-.083-2.422-.334l-.167-.084.891-1.141-.084-.167h-1.865c-.64.334-1.03.974-1.7 1.308-.39.084-.724 0-1.2.084a3.254 3.254 0 0 1 .64-.807 11.013 11.013 0 0 0-.084-1.7l-.084-.167c-.167 0-.223.167-.418.167a9.113 9.113 0 0 1-.028-1.754 2.388 2.388 0 0 0-.056-.64c.167-.167.251-.334.473-.418a1.921 1.921 0 0 1 .752 1.058h.947a2.924 2.924 0 0 1-.334-.585h.167a9.114 9.114 0 0 0 .891.334 3.638 3.638 0 0 0 .807-.891h.167l.974.974a11.34 11.34 0 0 0 1.058-.473l-.362.668-.306.557a5.09 5.09 0 0 0-2.728.084 1.708 1.708 0 0 0-.306-.64h-.947c.418 1.086.445 2.422 2.06 2.311.891.084 2.088.167 2.673-.724a2.924 2.924 0 0 1 .529-1.587c.418-.668 1-1.281 1.392-1.865.028.612.028 1.253.028 1.865h.752a24.642 24.642 0 0 1 .139-3.229 27.761 27.761 0 0 1 1.531 2.673l.056.585.111 1.2-.084.167c-.084.223-.251.306-.39.64a2.47 2.47 0 0 0-1.281 1.531c0-1.169-.056-2.366-.056-3.536h-.752c0 1.559-.056 3.146-.084 4.7-.028 1.587-.056 3.146-.028 4.7v.028c-.111 1.448.278 3.257-.445 4.7h.752a13.834 13.834 0 0 0 .585-4.7 10.769 10.769 0 0 1 .807-4.7 6.483 6.483 0 0 1 .557-.947c1.364-.807 2.728-1.309 3.786-2.589-.64.974-1.837 1.448-2.728 2.255a11.185 11.185 0 0 0 .668 1.281 17.588 17.588 0 0 0 2.784 2.979l-.084.167c-.39.083-.724-.084-1.2.083-.084.083-.167.251-.251.251-.028.418-.028.807-.028 1.225H54.65v-.028c-.334-.251-.557-.167-.807-.251l-.084-.167c-1.281-.724-1.531-2.339-2.506-3.313a7.549 7.549 0 0 1-1.114-.974 10.666 10.666 0 0 1-2.394-4.7c-.111-.473-.195-.974-.278-1.448a3.67 3.67 0 0 1 1.782-2.339v-.163h.167l.167-.167.167-.167c.251-.167.251-.334.39-.39v-.028h-3.815a.513.513 0 0 0 .056.5M3.7 8.253a1.468 1.468 0 0 1-.473-.445 7.265 7.265 0 0 1-.195-.306c.084-.251.167-.251.418-.306a1.413 1.413 0 0 1 .223.612q.042.251.084.418H3.7zm5.707 5.317l-.223-.084v-.167c.084-.083.223 0 .39 0l.167.167c-.167.084-.167.167-.334.084m1.782 1.949h-.251l-.251-.167.167-.084c.084-.083.334-.083.39-.083l.084.167s-.056 0-.139.167m.891-2.088l.084-.167a.626.626 0 0 1 .418-.084s.251.167.139.251l-.306.083c-.111-.028-.278-.028-.334-.083M10.05 40.715a4.9 4.9 0 0 1-.334-.557v-.167c.39-.083.473-.334.724-.473.084-.083.334.084.334.167a2.086 2.086 0 0 0-.724 1.03m6.292-18.736a7.534 7.534 0 0 1 1.615-3.229c0 1.086-.028 2.171-.028 3.229a146.584 146.584 0 0 0-.056 3.536c-.167-.891-.807-1.281-1.531-1.949l-.084-.167a4.113 4.113 0 0 1 .084-1.42m1.114 15.924a12.629 12.629 0 0 0-2.9-1.782 5.478 5.478 0 0 1-1.754-1.42 12.1 12.1 0 0 0 .668-3.285 9.1 9.1 0 0 0-.028-1.225l-.084-.167c-.334-.223-.891-.084-1.281-.084v-.167c.167-.334.557-.585.807-.891l.167-.167c.445-.668 1.2-1.308 1.726-2.032a2.609 2.609 0 0 0 .529-1.42 1.732 1.732 0 0 1 1.531 1.225c.028.083.084.139.111.223a11.068 11.068 0 0 1 .752 4.7 13.1 13.1 0 0 0 .5 4.7 5.44 5.44 0 0 0 .974 1.615c-.585.167-1.058-.084-1.726.167m2.255.974c-.111-.056-.028-.251.028-.39a.4.4 0 0 0 .056-.167.969.969 0 0 1 .39.167l.251.167c-.167.139-.473.139-.724.223m10.718-12.194h-1.42c0 .056.028.111.028.167.807.139 2 .39 2.784-.167a1.627 1.627 0 0 0 .362-.39c.167-.251.39-.334.724-.64 0-.084.167 0 .223 0l-.7 1.03-.111.167a12.369 12.369 0 0 0 2.506.083c.084.39-.167.891 0 1.281-.167.334-.473 0-.807.167-.084.334.334.64.5.974l-.251-.084c-.084-.084-.084-.223-.334-.306l-.167-.251c-.084-.083-.167-.083-.167-.167a7.206 7.206 0 0 0-2.339-.167c-.084.473.223.557.418 1.058l-.334-.083-1.058-.974a5.719 5.719 0 0 0-1.2 0l-.167.084v3.7l.167.084c.167-.084.251-.334.39-.473l.084.167a6.812 6.812 0 0 0-.64.807c-.39-.167-.557-.473-.891-.64a2.714 2.714 0 0 0-.724.64l-.084-1.058a.94.94 0 0 0-.195-.306h-1.1c.111.167.278.362.418.529a10.463 10.463 0 0 1 .084 1.615c-.084.251-.334.251-.39.473l-3.4-1.531h-.167c.473 1.336 1.559 2.394 1.977 3.619h.974c-.111-.64-.752-1.169-1.114-1.837a4.857 4.857 0 0 1 1.7.64l.306-.167 1.7-1.615a19.546 19.546 0 0 1 1.7 1.7 6.428 6.428 0 0 0 1.949-.724v.167a12.422 12.422 0 0 0-1.114 1.837c0 .028-.028.056-.028.111-.39-.028-.752-.084-1.169-.111h-2.563a11.4 11.4 0 0 0-1.364.167.353.353 0 0 0-.028-.167h-.974a3.4 3.4 0 0 1 .195 1.308c.334.557 1.2.64 1.615.807v.251a4.453 4.453 0 0 1-.084 1.364 29.339 29.339 0 0 1-4.4-1.364 6.5 6.5 0 0 1-2.951-2.339 9.3 9.3 0 0 1-.139-4.7l.084-.5a35.685 35.685 0 0 1-.195-4.2c.028-1.559.084-3.146.111-4.7v-1.863h.167l1.141 1.865h1a.926.926 0 0 1-.306-.585 2.148 2.148 0 0 0 .974.334l.891-.974c.251 0 .167.251.39.334l.724.724c.334-.084.557-.39.974-.39 0 .195-.167.362-.306.585a1.793 1.793 0 0 0-.306.557 7.638 7.638 0 0 0-2.756 0 .892.892 0 0 0-.278-.557h-1l.39.64a2.715 2.715 0 0 0 .167 1.114 3.581 3.581 0 0 0 2.9.473 1.609 1.609 0 0 0 1.364-.64 2.466 2.466 0 0 1 .39-1.587c.362-.612.863-1.169 1.225-1.7a5.712 5.712 0 0 1 .084 1.7c-.028.223-.056.445-.084.64-.167 0-.5-.251-.724-.334-.334.473-.167 1.058-.251 1.531a3.483 3.483 0 0 0 .974 2.339c-.39-.084-.5-.418-.807-.724a4.523 4.523 0 0 0-2.116 0c0 .223.251.39.167.724-.167.083-.334 0-.557.083a4.67 4.67 0 0 0-.557-.807 4.821 4.821 0 0 0-1.615-.084c-.084.251 0 .473-.084.807-.334.083-1.2-.084-1.448.473 0 .028-.028.028-.028.056a2.356 2.356 0 0 0-.056 2.032c.557.891 1.865.251 2.812.39.084.418-.418.807-.418 1.2a6.354 6.354 0 0 0 1.782 0c.334-.251.64-.891 1.058-1.2a3.967 3.967 0 0 1 1.058.084l.084 1.949a2.276 2.276 0 0 1 .223.251H27c-.251-.278-.612-.445-.612-.835.306 0 .306.223.64.39l.084-.167.084-2.255-.251-.167h-2.724a7.184 7.184 0 0 0-.947 1.2c-.084 0-.334 0-.334-.083 0-.334.418-.724.418-1.141h-2.339a7.441 7.441 0 0 1 0-1.364c.167-.083.39.084.64-.083a.47.47 0 0 0 .084-.278 3.334 3.334 0 0 0 0-.529l.167-.084c.251.111.334.362.473.612h2.255a3.709 3.709 0 0 0-.139-.529c.084-.167.334 0 .557-.084a3.4 3.4 0 0 1 .585.64c.028.028.028.056.056.111.418.334.891.167 1.364.251l.251-.251v-.111c.028-.891-.585-1.476-1.058-2.311v-.807h.167a4.844 4.844 0 0 1 .64.334h.167c.028-.64.056-1.281.056-1.921v-2.255a5.78 5.78 0 0 0 1.7 0c.167.083 0 .306.084.473.167 0 .251-.083.39-.083v.418c-.167.083-.223.223-.39.306v4.12c.167.084.167-.084.39-.084-.084.668-.64 1.058-.529 1.837zm7.238-7.155l-2.728 1.2a5.714 5.714 0 0 1-.64-.557 1.607 1.607 0 0 0-.557-.473c-.5.223-.724.807-1.2 1.03l-2.088-.974c-.223-.251.084-.64-.167-.974-.084 0-.167.167-.334.084 0-.39-.334-.64-.807-.807a2.238 2.238 0 0 0-2.255.251c-.334.167-.251.724-.334 1.2-.334.334-.807.334-1.281.64l-1.2.64-.251-.083c-.084 0 0-.084-.251-.167a4.039 4.039 0 0 0-.807-.891l-.167.083-1.058 1.141-2.728-1.448a4.305 4.305 0 0 1 .084-1.782h18.776a3.638 3.638 0 0 1 0 1.893m-15.7-3.452h.64c4.037 0 7.962.083 12 0a1.187 1.187 0 0 0 .64-1.058 1.262 1.262 0 0 0-.418-.807 4.218 4.218 0 0 1-.139-1.67 2.782 2.782 0 0 0-.334-2.032c-.028-.891 0-1.81.028-2.7h-.754v2.868a4.328 4.328 0 0 1-1.448 1.281c0-1.364-.028-2.784 0-4.148 0-.64.028-1.281.084-1.893l.167.084v.473l.167.223a2.079 2.079 0 0 0 .724 0c.167-.223.084-.557.167-.724h.167v1.81h.752a14.421 14.421 0 0 0-.111-2.7c-.167 0-.39.084-.557-.084l-.557-.974V3.77c.167-.167.334-.334.167-.557a.353.353 0 0 0-.028-.167c-.056-.111-.139-.139-.139-.251v-.334c.39-.083.64.167 1.058 0v-.167a1.243 1.243 0 0 1-.334-.724 1.21 1.21 0 0 0 .39-.585l-.084-.167c-.167.084-.418 0-.473.167-.334-.167-.39-.473-.5-.64l-.223-.167c-.084.64-.807.557-1.2.724a.882.882 0 0 1 .251.64 3 3 0 0 1-.39.724c.334.083.557-.084.807.083a1.228 1.228 0 0 1 .334.473.738.738 0 0 0-.139.167.976.976 0 0 0-.167.39 1.924 1.924 0 0 1 .334.39l-.724 1.141c-.084.167-.251 0-.306 0-.084.167-.251.167-.251.251-.084.223 0 .557-.084.807a3.055 3.055 0 0 1-1.531-.083v-.5c-.056-.724.028-1.615.028-2.394a6.055 6.055 0 0 0-.028-.724 2.179 2.179 0 0 1-.39-.084 4.624 4.624 0 0 1-.891-1.2c.334-.167.334-.306.334-.473 0-.084 0-.334-.084-.334-.223-.084-.306-.223-.39-.167-.167.083-.306.083-.306.334-.251.251.084.473.167.64-.251.5-.473 1.058-.807 1.2-.167 0-.334.084-.473.084a6.293 6.293 0 0 0-.028.724h2.035l.167-.084v.084a13.663 13.663 0 0 1-.167 2.979 6.05 6.05 0 0 1-1.2-.083 10.563 10.563 0 0 1 0-2.812c.167.083.084.39.167.64.334.083.557 0 .807.083.334-.139.084-.557.251-.807h-2.029c-.028 1 .028 2-.056 2.979-.5.084-.974 0-1.364.084l-.167-.167c0-.251.084-.724-.084-.891-.251 0-.5.084-.557-.167l-.64-1.058a.874.874 0 0 0 .251-.807.1.1 0 0 0-.028-.084 1.548 1.548 0 0 0 .974-1.281 1.936 1.936 0 0 0-.64-1.141 1.332 1.332 0 0 0-1.364 0 1.363 1.363 0 0 1 .807.473.935.935 0 0 1-.084.974 1.093 1.093 0 0 1-1.281.167c.084.473.557.724.724.891a.945.945 0 0 0 .334.891c-.334.306-.473.807-.807 1.114H22.8l-.251.167v5.15c-.167.223-.306.223-.306.39a16.835 16.835 0 0 0-.111 1.7 4.882 4.882 0 0 1-.612 2.645c-.111.668.056.974.445 1.058m2.756-.724a3.473 3.473 0 0 0-.334-.251l-.084-.167c.251-.167.585 0 .807 0 .251 0 .334.167.557.39-.223.111-.64-.056-.947.028m2.979 0a2.589 2.589 0 0 1-.807 0c-.167-.084-.334-.167-.39-.39.223-.084.557.083.891 0 .084.167.167.167.334.334v.056zm1.281-1.531c0 .084-.167.084-.334.167-.334 0-.64-.084-1.058-.084l.056-1.364.028-.724a.351.351 0 0 0 .306.39c.251-.084.5.083.724-.084a.333.333 0 0 0 .167-.334 3.035 3.035 0 0 1 .084.724c.028.445-.028.863.028 1.308m0 1.531a1.667 1.667 0 0 1-.39-.39c.223-.167.557 0 1.03-.084a.776.776 0 0 1 .334.473 3.8 3.8 0 0 1-.974 0m2.339.084a1.232 1.232 0 0 1-.5-.557 5.213 5.213 0 0 0 1.141 0c.084.251.251.251.39.39-.306.251-.78 0-1.03.167m3.062-.557c0 .084.084.167.167.306l-.084.167h-.891c-.167-.083-.223-.334-.39-.39a2.775 2.775 0 0 1 1.2-.084m-1.754-2.339a4.46 4.46 0 0 0 1.281-.974l.084.167v2.255l-.167.167-3.619-.084a2.616 2.616 0 0 1 0-.807 8.031 8.031 0 0 0 2.422-.724zm-7.266-4.7c.028-.306.028-.612.056-.919h.251c.084.223 0 .473.167.724h2.088l.167-.084c.084-.084 0-.306.084-.557h.334c.167.167 0 .39.167.557l2.255.084c.167-.167.084-.39.084-.724h.334c.028.306.056.612.056.919.056 1.364-.056 2.868-.056 4.315-.39.334-.891.167-1.364.167l-.084-.251c-.084-.64.167-1.531-.473-2.088a2.375 2.375 0 0 0-1.782-.223 1.82 1.82 0 0 0-.891.974c0 .557.084 1.058.084 1.531a.466.466 0 0 1-.306.084h-.974a31.4 31.4 0 0 1-.195-4.51m-2.2 0l.111-1.977.084.167c.084.167 0 .418.084.64.167.084.473 0 .807.084.251-.167.084-.473.084-.807h.163c.056.612.084 1.253.084 1.893.028 1.309-.028 2.673-.084 3.981a2.435 2.435 0 0 1-1.448-1.141zm-.306 3.9a4.846 4.846 0 0 0 3.508 1.364c.167.251-.084.64 0 .891-1.2.167-2.311.083-3.619.167l-.056-1.615-.028-.807zm-.724 3.229a3.225 3.225 0 0 1 .891-.084c.167.167.418.251.418.473a5.728 5.728 0 0 1-1.2 0l-.084-.167v-.223zm34.716-10.8l-.334.167a8.085 8.085 0 0 1-1.03 1.531l-.251.084-.251-.167c-.557-1.058-1.782-1.281-2.255-2.422-.167-.084-.251-.084-.418-.167-.084.167-.167.223-.167.39-.084.807.724 1.2 1.141 1.7l.084.167.167.083.084.167c0 .167.251.167.251.39-.251.084-.5-.167-.557-.167-.167-.223-.167-.223-.223-.306l-.251-.084c0 .084-.167.084-.251.167-.39-.251-.557-.724-1.03-.724-.084 0-.251.251-.251.334.251.473.64.557.724 1.2.251.167.557.334.557.557a7.037 7.037 0 0 0-.028.78 1.558 1.558 0 0 1-.362 1.169 2.722 2.722 0 0 1-2.339.807 3.264 3.264 0 0 1 .362-1.949h-1c-.278.835-.39 1.754-1.03 2.2-.167 0-.223.083-.39 0l.084-1.865c0-.084-.084-.167-.167-.251l-.167-.083c-.084.167-.334.167-.334.167l-.084.167a10.55 10.55 0 0 1-.39 2.255c-.251.306-.557.724-.891.64-.418-.223-.585-.39-.64-.724a3.481 3.481 0 0 0-.863-2.533H43.4a10.405 10.405 0 0 0 .919 1.643v.251l-.167.084h-.167a4.376 4.376 0 0 0-1.782-1.977h-1.2a8.658 8.658 0 0 0 .807.919c.39 0 .473.251.724.418v.251a4.932 4.932 0 0 1-2.255-1.281c-.056-.056-.056-.167-.084-.278-.028-.083-.028-.139-.084-.195-.167-1.364 1.615-1.308 2.172-2.255.167-.251.223-.557 0-.724l-.167-.083c-.557.334-.974.891-1.531 1.058l-.251-.251c.334-.64.974-1.281.64-2l-.167-.084c-.223.167-.223.223-.39.223a4.406 4.406 0 0 1-.807 1.615l-.223-.083c-.251-.473.167-1.141-.334-1.531h-.167c-.863 1.587-.251 2.9.111 4.315a3.238 3.238 0 0 1 .111.5.5.5 0 0 1-.334-.084 2.9 2.9 0 0 0-.167-.445.914.914 0 0 0-.724-.612l-.167.167v.334c.028.056.056.084.056.139l.418.835c1.141 1.281 2.979 1.448 4.427 1.865l.084.167c-.251.083-.557-.084-.724 0l-.084.167 1.615 1.531a.353.353 0 0 1-.028.167c-.056.974.752 1.726.752 2.645a1.8 1.8 0 0 0-.084.278l-.167-.028-2.088-1.2a1.949 1.949 0 0 0 0 1.2 10.811 10.811 0 0 1 .139 1.837h1a6.174 6.174 0 0 0 .084-1.03 9.747 9.747 0 0 1 .974.64l1.531-.64a3.993 3.993 0 0 1 .529 1.03h3.814v-.139l-2.561-.39a6.376 6.376 0 0 0 .891-4.176v-.167a1.668 1.668 0 0 0 .974-.557l.334-.557c-.251-.167-.724 0-.891-.167v-.167c2.867.64 4.594-1.392 6.347-3.09.223-.195.445-.418.64-.612a10.875 10.875 0 0 0 1.364-2.812v-.167zm-12.556 9.326h-.167l-.084-.167v-.251h.473l.251.251a.887.887 0 0 1-.473.167m1.281 2.032c-.167-.084-.167-.167-.251-.251.084-.167.39-.083.557-.083l.084.167a.513.513 0 0 1-.39.167m2-1.949c0 .083-.251-.084-.39 0a.2.2 0 0 1-.167-.306 2.5 2.5 0 0 1 .724.084zm6.208-5.735a2.393 2.393 0 0 1-.557.5 3.068 3.068 0 0 1 .056-.5 4.05 4.05 0 0 1 .251-.7.38.38 0 0 1 .39.334.656.656 0 0 1-.139.362m-12.305-.445l-.251-.083-.223.083-.084.334a.489.489 0 0 0 .111.139h1.2a2.543 2.543 0 0 0-.39-.195.69.69 0 0 1-.362-.278m2.088-.418c-.084 0-.167.083-.251.334a1.151 1.151 0 0 0 .056.529h.947a5.355 5.355 0 0 1-.5-.863h-.251zm6.765.418a1.287 1.287 0 0 0-.167-.807H50a2.154 2.154 0 0 0-.807 1.253h1a3.962 3.962 0 0 0 .139-.445" fill="currentColor" fill-rule="evenodd"/></g></g></svg>