<svg width="601" height="155" viewBox="0 0 601 155" fill="none" xmlns="http://www.w3.org/2000/svg">
<path d="M50.3131 87.1107C50.3131 87.1107 46.0801 94.94 46.0801 105.84C46.0801 116.74 54.1801 122.44 57.4801 130.04C60.7801 137.64 61.2801 144.24 62.6801 144.74C66.4801 146.14 66.9801 143.74 71.2801 144.24C77.5801 144.94 80.7801 146.74 85.4801 146.34C90.0801 146.04 94.9801 143.74 101.08 145.64C104.48 146.74 108.171 147.932 108.171 147.932L121.48 125.24L124.28 93.0399L100.705 68.2316L88.4322 73.6588L76.2827 78.5926L50.3131 87.1107Z" stroke="currentColor" stroke-width="1.5"/>
<path d="M114.18 56.14C114.18 56.14 120.98 48.44 71.9801 18.24C43.5801 0.739971 15.5801 -0.760019 8.98011 1.63998C6.18011 2.63998 1.98011 4.73998 0.880114 7.83998C-0.0198855 10.44 3.98011 9.83997 5.78011 18.54C7.58011 27.34 4.68011 33.44 4.68011 33.44C4.68011 33.44 18.3801 39.64 23.1801 50.94C27.8801 62.34 27.8801 76.04 27.8801 77.44C27.8801 78.84 30.2801 81.74 33.0801 83.64C35.8801 85.54 38.7801 87.44 38.7801 87.44C38.7801 87.44 43.9801 87.94 48.2801 87.44C52.5801 86.94 83.3801 77.04 98.4801 68.94C113.78 60.84 114.18 56.14 114.18 56.14Z" stroke="currentColor" stroke-width="1.5"/>
<path d="M189.89 87.4225C189.89 87.4225 193.68 94.9403 193.68 105.84C193.68 116.74 185.58 122.44 182.28 130.04C178.98 137.64 178.48 144.24 177.08 144.74C173.28 146.14 172.78 143.74 168.48 144.24C162.18 144.94 158.98 146.74 154.28 146.34C149.68 146.04 144.78 143.74 138.68 145.64C135.28 146.74 131.876 147.62 131.876 147.62L118.38 125.24L115.58 93.0403L139.583 68.5506C139.583 68.5506 144.779 70.9783 159.506 77.227C171.673 81.629 189.89 87.4225 189.89 87.4225Z" stroke="currentColor" stroke-width="1.5"/>
<path d="M125.48 56.14C125.48 56.14 118.68 48.44 167.68 18.24C196.08 0.739971 224.08 -0.760019 230.68 1.63998C233.48 2.63998 237.68 4.73998 238.78 7.83998C239.68 10.44 235.68 9.83997 233.88 18.54C232.08 27.34 234.98 33.44 234.98 33.44C234.98 33.44 221.28 39.64 216.48 50.94C211.78 62.34 211.78 76.04 211.78 77.44C211.78 78.84 209.38 81.74 206.58 83.64C203.78 85.54 200.88 87.44 200.88 87.44C200.88 87.44 195.68 87.94 191.38 87.44C187.08 86.94 156.28 77.04 141.18 68.94C125.88 60.84 125.48 56.14 125.48 56.14Z" stroke="currentColor" stroke-width="1.5"/>
<path d="M99.6802 154.64C99.6802 154.64 114.88 138.04 113.88 125.24C112.98 112.44 114.38 111.04 114.38 111.04L127.18 111.94C127.18 111.94 125.78 129.44 129.08 137.54C132.38 145.64 137.58 150.84 137.58 150.84C137.58 150.84 132.38 150.84 126.68 148.44C120.98 146.04 116.28 145.14 113.88 147.04C111.48 148.94 110.78 148.54 109.38 149.94C107.98 151.34 105.68 152.24 105.68 152.24C102.28 154.14 99.6802 154.64 99.6802 154.64Z" fill="currentColor"/>
<path d="M114.18 123.84C114.18 123.84 98.9799 113.44 96.6799 107.74C94.2799 102.04 94.2799 95.4401 97.5799 92.5401C100.88 89.7401 99.9799 88.7401 99.9799 86.3401C99.9799 83.9401 100.88 80.1401 99.4799 79.2401C98.0799 78.2401 96.1799 74.9401 97.0799 72.1401C97.9799 69.3401 97.5799 67.4401 100.38 65.5401C103.18 63.6401 103.18 64.1401 103.18 60.8401C103.18 57.5401 102.28 53.2401 104.58 51.3401L106.98 49.4401C106.98 49.4401 105.58 44.7401 108.88 42.8401C112.18 40.9401 112.18 39.5401 112.68 37.1401C113.18 34.7401 114.58 30.0401 118.38 30.9401C122.18 31.8401 123.58 30.9401 123.58 30.9401C123.58 30.9401 124.98 30.9401 125.98 34.7401C126.98 38.5401 128.78 41.3401 130.28 43.2401C131.68 45.1401 133.08 47.0401 133.58 48.9401C134.08 50.8401 134.48 57.4401 135.98 58.8401C137.38 60.2401 139.78 62.1401 140.28 65.0401C140.78 67.8401 141.68 69.7401 142.68 71.6401C143.58 73.5401 143.58 76.8401 143.58 78.2401C143.58 79.6401 144.08 85.3401 143.58 87.7401C143.08 90.1401 143.58 92.4401 142.18 93.4401C140.78 94.3401 139.78 95.8401 141.68 99.1401C143.58 102.44 145.48 107.24 144.08 109.54C142.68 111.94 141.28 116.14 139.38 116.64C137.48 117.14 135.58 116.14 134.18 118.04C132.78 119.94 131.38 121.34 129.88 122.34C128.38 123.34 126.58 123.74 126.58 123.74H114.18V123.84Z" fill="currentColor"/>
<path d="M255.48 78.4402H268.38C272.78 78.4402 275.38 80.7402 275.38 84.8402C275.38 89.0402 272.78 91.4402 268.38 91.4402H255.48V78.4402ZM248.18 97.4402H267.38C278.18 97.4402 282.78 92.3402 282.78 85.8402C282.78 80.1402 280.08 76.2403 274.98 75.0403V74.9402C278.78 73.3402 280.98 70.2403 280.98 66.0403C280.98 59.0403 276.08 55.7402 268.58 55.7402H248.28V97.4402H248.18ZM255.48 61.6402H267.38C271.38 61.6402 273.48 63.1402 273.48 67.3402C273.48 71.0402 270.88 73.1402 267.38 73.1402H255.48V61.6402Z" fill="currentColor"/>
<path d="M314.98 97.4397H308.38V93.2397H308.28C306.68 96.2397 302.98 98.2397 299.68 98.2397C291.78 98.2397 288.38 94.2397 288.38 86.3397V67.1396H295.08V85.6396C295.08 90.9396 297.28 92.8397 300.88 92.8397C306.38 92.8397 308.28 89.2396 308.28 84.6396V67.1396H314.98V97.4397Z" fill="currentColor"/>
<path d="M318.88 67.2397H323.88V58.1396H330.58V67.2397H336.58V72.2397H330.58V88.3397C330.58 91.0397 330.78 92.4397 333.78 92.4397C334.68 92.4397 335.68 92.4397 336.58 92.2397V97.3397C335.08 97.4397 333.68 97.7397 332.28 97.7397C325.28 97.7397 324.08 95.0397 323.88 90.0397V72.2397H318.88V67.2397Z" fill="currentColor"/>
<path d="M338.38 67.2397H343.38V58.1396H350.08V67.2397H356.08V72.2397H350.08V88.3397C350.08 91.0397 350.28 92.4397 353.28 92.4397C354.18 92.4397 355.18 92.4397 356.08 92.2397V97.3397C354.58 97.4397 353.18 97.7397 351.78 97.7397C344.78 97.7397 343.58 95.0397 343.38 90.0397V72.2397H338.38V67.2397Z" fill="currentColor"/>
<path d="M366.08 79.6404C366.28 75.1404 369.38 71.6404 373.98 71.6404C378.48 71.6404 381.38 75.4404 381.58 79.6404H366.08ZM388.28 84.0404C389.38 74.9404 383.58 66.4404 373.98 66.4404C364.98 66.4404 359.38 73.8404 359.38 82.3404C359.38 91.6404 364.68 98.2404 374.18 98.2404C380.78 98.2404 386.38 94.5404 387.88 87.9404H381.58C380.38 91.2404 378.08 92.9404 374.18 92.9404C368.58 92.9404 366.08 88.7404 366.08 84.0404H388.28Z" fill="currentColor"/>
<path d="M393.38 67.2398H399.68V73.0399H399.78C400.58 69.8399 404.48 66.3398 408.58 66.3398C410.08 66.3398 410.48 66.4399 411.08 66.5399V72.9398C410.18 72.8398 409.18 72.6398 408.18 72.6398C403.58 72.6398 399.98 76.3398 399.98 82.9398V97.3398H393.38V67.2398Z" fill="currentColor"/>
<path d="M413.28 67.2402H418.28V64.7402C418.28 57.0402 422.28 55.7402 426.68 55.7402C428.78 55.7402 430.28 55.8402 431.38 56.1402V61.3402C430.48 61.1402 429.58 61.0403 428.28 61.0403C426.48 61.0403 424.98 61.6402 424.98 64.2402V67.3402H430.68V72.3402H424.98V97.5403H418.28V72.3402H413.28V67.2402Z" fill="currentColor"/>
<path d="M441.48 55.7402H434.78V97.4402H441.48V55.7402Z" fill="currentColor"/>
<path d="M445.38 67.2402H452.68L460.58 89.8402H460.68L468.38 67.2402H475.38L463.68 99.0403C461.48 104.44 459.98 109.34 452.98 109.34C451.38 109.34 449.88 109.24 448.38 108.94V103.34C449.38 103.54 450.48 103.74 451.58 103.74C454.68 103.74 455.48 102.14 456.28 99.5403L457.08 97.2402L445.38 67.2402Z" fill="currentColor"/>
<path d="M276.38 123.94C275.18 119.14 272.08 115.64 265.98 115.64C257.08 115.64 253.28 123.54 253.28 131.54C253.28 139.54 256.98 147.44 265.98 147.44C272.48 147.44 276.08 142.54 276.58 136.54H283.68C283.08 146.54 275.98 153.44 265.88 153.44C253.38 153.44 245.88 143.54 245.88 131.54C245.88 119.64 253.38 109.64 265.88 109.64C275.28 109.74 282.68 114.94 283.58 123.94H276.38Z" fill="currentColor"/>
<path d="M303.28 148.04C297.28 148.04 294.68 142.64 294.68 137.34C294.68 132.14 297.28 126.74 303.28 126.74C309.28 126.74 311.88 132.14 311.88 137.34C311.88 142.54 309.28 148.04 303.28 148.04ZM303.28 153.24C312.98 153.24 318.48 146.54 318.48 137.34C318.48 128.14 312.98 121.44 303.28 121.44C293.58 121.44 288.08 128.14 288.08 137.34C288.08 146.54 293.58 153.24 303.28 153.24Z" fill="currentColor"/>
<path d="M324.08 122.24H330.38V126.64L330.48 126.74C332.48 123.44 335.88 121.34 339.88 121.34C346.38 121.34 350.58 124.84 350.58 131.64V152.34H343.88V133.34C343.78 128.64 341.88 126.54 337.98 126.54C333.58 126.54 330.68 130.04 330.68 134.44V152.24H323.98V122.24H324.08Z" fill="currentColor"/>
<path d="M362.68 142.74C363.08 146.64 365.98 148.04 369.48 148.04C371.98 148.04 376.38 147.54 376.18 144.04C375.98 140.54 371.18 140.14 366.28 139.04C361.38 137.94 356.58 136.24 356.58 130.14C356.58 123.54 363.68 121.54 369.18 121.54C375.38 121.54 380.98 124.14 381.78 130.84H374.78C374.18 127.64 371.58 126.84 368.68 126.84C366.78 126.84 363.18 127.34 363.18 129.94C363.18 133.24 368.08 133.64 372.98 134.74C377.88 135.84 382.78 137.64 382.78 143.54C382.78 150.74 375.58 153.34 369.28 153.34C361.68 153.34 355.98 149.94 355.88 142.84H362.68V142.74Z" fill="currentColor"/>
<path d="M393.18 134.64C393.38 130.14 396.48 126.64 401.08 126.64C405.58 126.64 408.48 130.44 408.68 134.64H393.18ZM415.38 139.04C416.48 129.94 410.68 121.44 401.08 121.44C392.08 121.44 386.48 128.84 386.48 137.34C386.48 146.64 391.78 153.24 401.28 153.24C407.88 153.24 413.48 149.54 414.98 142.94H408.68C407.48 146.24 405.18 147.94 401.28 147.94C395.78 147.94 393.18 143.74 393.18 139.04H415.38Z" fill="currentColor"/>
<path d="M420.48 122.24H426.78V128.04H426.88C427.68 124.84 431.58 121.34 435.68 121.34C437.18 121.34 437.58 121.44 438.18 121.54V127.94C437.28 127.84 436.28 127.64 435.28 127.64C430.68 127.64 427.08 131.34 427.08 137.94V152.34H420.38V122.24H420.48Z" fill="currentColor"/>
<path d="M440.38 122.24H447.58L455.28 145.44H455.38L462.78 122.24H469.68L458.88 152.44H451.38L440.38 122.24Z" fill="currentColor"/>
<path d="M492.28 142.24C492.28 146.44 487.68 147.94 484.78 147.94C482.48 147.94 478.68 147.04 478.68 144.04C478.68 140.54 481.28 139.44 484.08 139.04C486.98 138.54 490.18 138.54 492.28 137.24V142.24ZM498.98 130.14C498.98 123.74 492.78 121.34 486.88 121.34C480.18 121.34 473.58 123.64 473.18 131.34H479.88C480.18 128.04 482.78 126.54 486.58 126.54C489.28 126.54 492.88 127.14 492.88 130.64C492.88 134.54 488.58 134.04 483.78 134.94C478.18 135.54 472.18 136.84 472.18 144.34C472.18 150.24 477.08 153.14 482.48 153.14C486.08 153.14 490.28 152.04 492.98 149.44C493.48 152.14 495.48 153.14 498.08 153.14C499.18 153.14 501.28 152.74 502.28 152.34V147.74C501.58 147.84 501.08 147.84 500.68 147.84C499.48 147.84 499.08 147.24 499.08 145.54V130.14H498.98Z" fill="currentColor"/>
<path d="M503.18 122.24H508.18V113.14H514.88V122.24H520.88V127.24H514.88V143.34C514.88 146.04 515.08 147.44 518.08 147.44C518.98 147.44 519.98 147.44 520.88 147.24V152.34C519.38 152.44 517.98 152.64 516.58 152.64C509.58 152.64 508.38 149.94 508.18 144.94V127.14H503.18V122.24Z" fill="currentColor"/>
<path d="M525.78 122.24H532.48V152.44H525.78V122.24ZM525.78 110.74H532.48V117.04H525.78V110.74Z" fill="currentColor"/>
<path d="M553.58 148.04C547.58 148.04 544.98 142.64 544.98 137.34C544.98 132.14 547.58 126.74 553.58 126.74C559.58 126.74 562.18 132.14 562.18 137.34C562.18 142.54 559.48 148.04 553.58 148.04ZM553.58 153.24C563.28 153.24 568.78 146.54 568.78 137.34C568.78 128.14 563.28 121.44 553.58 121.44C543.88 121.44 538.38 128.14 538.38 137.34C538.28 146.54 543.88 153.24 553.58 153.24Z" fill="currentColor"/>
<path d="M574.38 122.24H580.68V126.64L580.78 126.74C582.78 123.44 586.18 121.34 590.18 121.34C596.68 121.34 600.88 124.84 600.88 131.64V152.34H594.18V133.34C594.08 128.64 592.18 126.54 588.28 126.54C583.88 126.54 580.98 130.04 580.98 134.44V152.24H574.38V122.24Z" fill="currentColor"/>
</svg>
