<?xml version="1.0" encoding="UTF-8"?>
<svg version="1.1" xmlns="http://www.w3.org/2000/svg" width="1624" height="484">
<path d="M0 0 C2.95015394 -1.39534308 5.57108337 -3.01517659 8.25 -4.875 C20.98123646 -13.41095136 34.75939855 -17.80813 50.125 -14.875 C63.17610585 -11.68409086 72.64477095 -5.53922928 79.67578125 5.984375 C83.30972928 14.25991446 84.53353572 22.32706299 84.4375 31.3125 C84.42614014 32.81744019 84.42614014 32.81744019 84.41455078 34.3527832 C83.88146331 58.49931093 69.92322563 77.38617938 53.1875 93.75 C50.18829472 96.58007168 47.15858909 99.34858598 44 102 C43.18854019 102.72872818 42.37708038 103.45745636 41.54103088 104.20826721 C33.81893083 110.66756239 27.73853545 112.38130446 17.609375 112.3359375 C16.25235504 112.35222865 14.89535816 112.37055351 13.53839111 112.39077759 C10.71046786 112.42185664 7.88508075 112.41901999 5.05712891 112.39306641 C2.18983198 112.36998041 -0.66931152 112.39756952 -3.53564453 112.47509766 C-30.93524305 113.21145832 -30.93524305 113.21145832 -40.58984375 104.75390625 C-42.3026488 103.10125771 -43.92176894 101.41423933 -45.50193787 99.63476562 C-47.89582804 97.02242447 -50.60076395 94.83964562 -53.3125 92.5625 C-68.85492391 78.01124831 -82.33881232 58.33132193 -83.23828125 36.49609375 C-83.54683017 22.40569299 -82.10713417 9.43277572 -73 -2 C-51.44447992 -23.51822679 -21.94032118 -16.88931199 0 0 Z " fill="#FFFFFF" transform="translate(272,223)"/>
<path d="M0 0 C0.26464844 2.08447266 0.26464844 2.08447266 0.109375 4.6640625 C0.05982666 5.61450439 0.01027832 6.56494629 -0.04077148 7.54418945 C-0.10981689 8.56085693 -0.1788623 9.57752441 -0.25 10.625 C-0.30937744 11.6564917 -0.36875488 12.6879834 -0.42993164 13.75073242 C-0.55194473 15.8428263 -0.68025971 17.93456238 -0.81494141 20.02587891 C-0.98055528 22.68749925 -1.11468259 25.34754996 -1.23046875 28.01171875 C-1.29902068 29.4453345 -1.36799767 30.87893001 -1.4375 32.3125 C-1.49808594 33.56675781 -1.55867188 34.82101563 -1.62109375 36.11328125 C-2 39 -2 39 -4 41 C-4.35449219 40.52691406 -4.70898438 40.05382812 -5.07421875 39.56640625 C-14.8684569 27.40068187 -30.35916441 18.51364847 -45.83056641 16.23144531 C-65.76190491 14.10507699 -85.29022553 16.01250301 -101.90625 28.1171875 C-114.25975615 38.46833963 -120.95467664 53.09617726 -123 69 C-124.24025422 91.01875982 -120.93971508 112.23913983 -105.890625 129.40625 C-92.52517833 142.50259372 -74.37131962 147.78337734 -56.03027344 148.02734375 C-46.47697871 147.89867985 -37.52303338 145.84171113 -28.51171875 142.8046875 C-26 142 -26 142 -24 142 C-24 129.79 -24 117.58 -24 105 C-37.53 105 -51.06 105 -65 105 C-65 94.77 -65 84.54 -65 74 C-39.92 74 -14.84 74 11 74 C11 103.7 11 133.4 11 164 C-9.97302348 173.32134377 -9.97302348 173.32134377 -17.0625 175.3125 C-17.89281738 175.55121826 -18.72313477 175.78993652 -19.57861328 176.03588867 C-50.77778219 184.74533409 -83.41981064 184.6890765 -112.40234375 169.109375 C-117.39823762 166.27553114 -121.71370289 162.80486519 -126 159 C-126.6703125 158.47148437 -127.340625 157.94296875 -128.03125 157.3984375 C-146.17453848 142.78301067 -156.0718845 118.61459352 -159 96 C-159.288605 91.43351296 -159.33435562 86.88719388 -159.3125 82.3125 C-159.30686035 81.07661133 -159.3012207 79.84072266 -159.29541016 78.56738281 C-158.94364321 52.03509957 -149.89429703 28.68170297 -131 10 C-130.19691406 9.18660156 -129.39382813 8.37320313 -128.56640625 7.53515625 C-95.14479152 -24.56935051 -37.34708679 -24.89805786 0 0 Z " fill="#FFFFFF" transform="translate(1171,103)"/>
<path d="M0 0 C11.88 0 23.76 0 36 0 C36.029729 4.94782471 36.029729 4.94782471 36.06005859 9.99560547 C36.12729276 20.95591608 36.2049253 31.91613585 36.28752708 42.87634087 C36.33724138 49.51438544 36.38357142 56.15240414 36.421875 62.79052734 C36.4590446 69.20970432 36.5054857 75.62875626 36.55806351 82.04782486 C36.57644069 84.48349922 36.59160846 86.91920021 36.60334396 89.35491562 C35.91822103 121.60898562 35.91822103 121.60898562 47 151 C47.33 151.99 47.66 152.98 48 154 C49.80660519 155.09933664 49.80660519 155.09933664 52 156 C52.74636719 156.4021875 53.49273438 156.804375 54.26171875 157.21875 C55.06222656 157.6415625 55.86273437 158.064375 56.6875 158.5 C57.47511719 158.9228125 58.26273438 159.345625 59.07421875 159.78125 C66.14299106 162.72578533 73.21699575 163.36402988 80.8125 163.3125 C81.6876123 163.30686035 82.56272461 163.3012207 83.46435547 163.29541016 C96.40430408 163.0537879 107.43262492 159.78435252 116.875 150.5625 C135.48426764 127.44322161 127.26917901 74.28733316 127.53222656 46.63146973 C127.58317821 41.36105554 127.63847285 36.09068691 127.69335938 30.8203125 C127.79972951 20.54691309 127.90102075 10.27347328 128 0 C137.9 0 147.8 0 158 0 C158.06810401 15.54412823 158.12320469 31.08818088 158.15543652 46.63241863 C158.17080981 53.85225001 158.19171312 61.07198111 158.22631836 68.29174805 C158.25651684 74.59520651 158.27564398 80.89859227 158.28226548 87.20212108 C158.28612715 90.53013869 158.29664801 93.85778588 158.31719017 97.18576622 C158.47930046 124.56802081 158.15082797 153.60399145 138.3125 174.71484375 C122.58717723 190.2542252 100.42097965 194.86052764 79 195.25 C56.51004221 194.81652009 36.21556545 189.65424336 19.5390625 173.72265625 C4.80720201 157.92556892 1.36315161 137.76940529 0.44360352 117.00732422 C0.38033166 115.58406987 0.38033166 115.58406987 0.31578159 114.13206291 C-0.14799845 102.71693502 -0.12522214 91.30532925 -0.09765625 79.8828125 C-0.09578489 77.56013012 -0.09436439 75.23744733 -0.09336853 72.9147644 C-0.08959982 66.88162087 -0.07981971 60.84850245 -0.06866455 54.81536865 C-0.05832709 48.62691589 -0.05384483 42.43845896 -0.04882812 36.25 C-0.03819075 24.16665401 -0.0206417 12.08333305 0 0 Z " fill="#FFFFFF" transform="translate(1230,92)"/>
<path d="M0 0 C1.2065625 0.0309375 1.2065625 0.0309375 2.4375 0.0625 C7.48766379 9.03378795 11.95768339 18.2079145 16.25 27.5625 C21.64312833 39.31437731 27.24752148 50.95161031 32.9375 62.5625 C38.93711296 74.81085191 44.82411459 87.09311038 50.515625 99.48828125 C55.38635577 110.05175529 60.49115583 120.49631306 65.60296631 130.94467163 C71.27863954 142.55098524 76.81556796 154.20915939 82.2097168 165.94897461 C85.43316646 172.9531234 88.77332276 179.8678774 92.36328125 186.69140625 C93.4375 189.0625 93.4375 189.0625 93.4375 192.0625 C81.2275 192.0625 69.0175 192.0625 56.4375 192.0625 C54.1275 186.98875 51.8175 181.915 49.4375 176.6875 C48.70660156 175.08729004 47.97570312 173.48708008 47.22265625 171.83837891 C46.64813977 170.57207514 46.0739018 169.30564496 45.5 168.0390625 C45.19771484 167.37994873 44.89542969 166.72083496 44.58398438 166.04174805 C42.4375 161.2906436 42.4375 161.2906436 42.4375 159.0625 C-1.6175 159.5575 -1.6175 159.5575 -46.5625 160.0625 C-53.9875 175.9025 -53.9875 175.9025 -61.5625 192.0625 C-73.4425 192.0625 -85.3225 192.0625 -97.5625 192.0625 C-96.02296476 187.44389428 -94.43396978 183.58304684 -92.25390625 179.28515625 C-91.92768784 178.63792099 -91.60146942 177.99068573 -91.2653656 177.32383728 C-90.22240664 175.25559611 -89.17417849 173.19009213 -88.125 171.125 C-84.0087137 163.00724013 -79.93064865 154.87757262 -76.03297997 146.65208626 C-69.00989128 131.83761623 -61.69184976 117.17294485 -54.35470724 102.51258898 C-52.56428502 98.93432441 -50.77585814 95.35506262 -48.98709106 91.77597046 C-45.9983598 85.7967074 -43.00797569 79.81827327 -40.01660156 73.84033203 C-36.55858005 66.9297817 -33.10350077 60.01776611 -29.64986122 53.10502493 C-26.66682922 47.13443304 -23.68224956 41.16461674 -20.69635689 35.19545496 C-18.91999199 31.64428282 -17.14416657 28.09284371 -15.36974716 24.54069901 C-13.71179129 21.22191149 -12.0519013 17.90409871 -10.39047432 14.58704758 C-9.48888543 12.78583146 -8.58927562 10.98362517 -7.68971252 9.18139648 C-7.15731461 8.11942047 -6.62491669 7.05744446 -6.0763855 5.96328735 C-5.61226194 5.03541727 -5.14813839 4.10754719 -4.66995049 3.15155983 C-3.03853593 0.07411063 -3.03853593 0.07411063 0 0 Z M-2.5625 62.0625 C-15.81088198 90.46043723 -15.81088198 90.46043723 -28.75 119 C-29.24790039 120.11028564 -29.74580078 121.22057129 -30.25878906 122.36450195 C-30.70319336 123.36698975 -31.14759766 124.36947754 -31.60546875 125.40234375 C-32.17817505 126.69192993 -32.17817505 126.69192993 -32.76245117 128.00756836 C-33.68343473 130.00559167 -33.68343473 130.00559167 -33.5625 132.0625 C-12.7725 132.0625 8.0175 132.0625 29.4375 132.0625 C27.18572659 125.12162425 27.18572659 125.12162425 24.47973633 118.47094727 C24.12539017 117.68885391 23.77104401 116.90676056 23.40596008 116.10096741 C23.03093857 115.28518723 22.65591705 114.46940704 22.26953125 113.62890625 C21.87102463 112.75209702 21.47251801 111.87528778 21.06193542 110.97190857 C19.79551606 108.18765754 18.52301027 105.40624281 17.25 102.625 C16.00073273 99.88535324 14.75276043 97.14512095 13.50534058 94.40463257 C12.68500689 92.60358536 11.86334244 90.80314366 11.04031372 89.00332642 C9.02831526 84.59631502 7.04298255 80.18045915 5.11083984 75.73779297 C4.74560715 74.90102524 4.38037445 74.06425751 4.0040741 73.20213318 C3.31651194 71.62163833 2.63436262 70.03877431 1.95845032 68.45326233 C0.50532418 64.56712808 0.50532418 64.56712808 -2.5625 62.0625 Z " fill="#FFFFFF" transform="translate(905.5625,85.9375)"/>
<path d="M0 0 C0.9262619 -0.00100708 1.8525238 -0.00201416 2.80685425 -0.00305176 C51.50191474 0.03231857 103.18833491 6.05033396 148.6875 24.25 C148.6875 43.39 148.6875 62.53 148.6875 82.25 C140.4375 79.94 132.1875 77.63 123.6875 75.25 C95.03135545 67.69138077 66.20403376 62.85196829 36.6875 60.25 C35.89649902 60.17797363 35.10549805 60.10594727 34.29052734 60.03173828 C-24.31825739 54.9488048 -83.34790426 63.77693239 -139.46044922 80.42138672 C-141.73053411 81.08092003 -144.01912958 81.6766574 -146.3125 82.25 C-146.3125 63.11 -146.3125 43.97 -146.3125 24.25 C-121.59683358 16.01144453 -121.59683358 16.01144453 -109.8125 13.125 C-108.81133652 12.87769638 -108.81133652 12.87769638 -107.78994751 12.62539673 C-72.43035883 3.93104593 -36.36969719 0.02784597 0 0 Z M-5.3125 16.25 C-5.3125 17.9 -5.3125 19.55 -5.3125 21.25 C-4.3225 21.25 -3.3325 21.25 -2.3125 21.25 C-2.3125 27.85 -2.3125 34.45 -2.3125 41.25 C-3.3025 41.25 -4.2925 41.25 -5.3125 41.25 C-5.3125 42.9 -5.3125 44.55 -5.3125 46.25 C2.9375 46.25 11.1875 46.25 19.6875 46.25 C19.6875 43.28 19.6875 40.31 19.6875 37.25 C17.7075 37.25 15.7275 37.25 13.6875 37.25 C13.6875 38.57 13.6875 39.89 13.6875 41.25 C11.0475 41.25 8.4075 41.25 5.6875 41.25 C5.6875 38.61 5.6875 35.97 5.6875 33.25 C8.3275 33.25 10.9675 33.25 13.6875 33.25 C13.6875 31.6 13.6875 29.95 13.6875 28.25 C11.0475 28.25 8.4075 28.25 5.6875 28.25 C5.6875 25.94 5.6875 23.63 5.6875 21.25 C8.3275 21.25 10.9675 21.25 13.6875 21.25 C13.6875 22.57 13.6875 23.89 13.6875 25.25 C15.6675 25.25 17.6475 25.25 19.6875 25.25 C20.0175 22.61 20.3475 19.97 20.6875 17.25 C7.8175 16.755 7.8175 16.755 -5.3125 16.25 Z M-14.375 16.75 C-15.75365234 16.88921875 -15.75365234 16.88921875 -17.16015625 17.03125 C-18.22556641 17.13953125 -18.22556641 17.13953125 -19.3125 17.25 C-18.93345792 20.54075996 -18.93345792 20.54075996 -17.3125 23.25 C-18.3025 25.56 -19.2925 27.87 -20.3125 30.25 C-22.7875 26.29 -22.7875 26.29 -25.3125 22.25 C-24.6525 22.25 -23.9925 22.25 -23.3125 22.25 C-23.3125 20.6 -23.3125 18.95 -23.3125 17.25 C-27.9325 17.58 -32.5525 17.91 -37.3125 18.25 C-37.3125 19.9 -37.3125 21.55 -37.3125 23.25 C-36.3225 23.58 -35.3325 23.91 -34.3125 24.25 C-32.3046875 26.76171875 -32.3046875 26.76171875 -30.1875 29.9375 C-29.48367187 30.97261719 -28.77984375 32.00773437 -28.0546875 33.07421875 C-26.30813726 36.25795272 -25.66741224 38.6632354 -25.3125 42.25 C-26.3025 42.58 -27.2925 42.91 -28.3125 43.25 C-27.9825 44.57 -27.6525 45.89 -27.3125 47.25 C-22.79632401 47.32654536 -18.72164783 47.35228696 -14.3125 46.25 C-14.6425 44.93 -14.9725 43.61 -15.3125 42.25 C-15.9725 42.25 -16.6325 42.25 -17.3125 42.25 C-16.2696978 34.9348204 -14.27841468 28.54207617 -10.3125 22.25 C-9.6525 21.92 -8.9925 21.59 -8.3125 21.25 C-8.3125 19.6 -8.3125 17.95 -8.3125 16.25 C-10.3377836 16.25 -12.36247401 16.5461999 -14.375 16.75 Z M31.6875 18.25 C31.749375 19.24386719 31.81125 20.23773438 31.875 21.26171875 C31.66111036 25.81132974 30.50275545 28.95364476 28.6875 33.0625 C26.54413294 37.50434073 26.54413294 37.50434073 25.6875 42.25 C24.6975 42.25 23.7075 42.25 22.6875 42.25 C22.3575 43.57 22.0275 44.89 21.6875 46.25 C24.68230917 47.1223412 27.32325911 47.35829766 30.4375 47.3125 C31.63632812 47.29896484 31.63632812 47.29896484 32.859375 47.28515625 C33.46265625 47.27355469 34.0659375 47.26195312 34.6875 47.25 C35.0175 45.93 35.3475 44.61 35.6875 43.25 C34.6975 42.59 33.7075 41.93 32.6875 41.25 C32.6875 40.59 32.6875 39.93 32.6875 39.25 C35.9875 39.58 39.2875 39.91 42.6875 40.25 C43.0175 41.24 43.3475 42.23 43.6875 43.25 C42.3675 43.25 41.0475 43.25 39.6875 43.25 C39.3575 44.9 39.0275 46.55 38.6875 48.25 C44.2975 48.58 49.9075 48.91 55.6875 49.25 C55.3575 47.6 55.0275 45.95 54.6875 44.25 C54.0275 44.25 53.3675 44.25 52.6875 44.25 C52.52314453 43.05117188 52.52314453 43.05117188 52.35546875 41.828125 C51.24797845 34.15672875 49.7095049 26.73141811 47.6875 19.25 C44.01362505 18.39701624 40.6427607 18.14210529 36.875 18.1875 C35.89917969 18.19652344 34.92335938 18.20554687 33.91796875 18.21484375 C33.18191406 18.22644531 32.44585937 18.23804688 31.6875 18.25 Z M-69.3125 23.25 C-72.85017969 27.86662012 -74.03569728 32.46442172 -73.3125 38.25 C-72.06245039 43.02536938 -70.56674724 47.45115313 -66.3125 50.25 C-61.54927442 51.64078915 -58.37492237 51.7715528 -53.875 49.5625 C-50.76615531 46.75695723 -49.50380929 44.87240217 -49.01171875 40.69921875 C-48.98108434 33.47971032 -49.65193028 28.73626377 -54.125 22.875 C-59.36836139 18.97993154 -63.96358977 19.98122153 -69.3125 23.25 Z M62.6875 21.25 C62.3575 22.57 62.0275 23.89 61.6875 25.25 C62.3475 25.25 63.0075 25.25 63.6875 25.25 C63.24368504 28.39806222 62.78003461 31.54288019 62.3125 34.6875 C62.18617188 35.58533203 62.05984375 36.48316406 61.9296875 37.40820312 C61.80078125 38.26220703 61.671875 39.11621094 61.5390625 39.99609375 C61.42385254 40.78685303 61.30864258 41.5776123 61.18994141 42.39233398 C61.02413574 43.00536377 60.85833008 43.61839355 60.6875 44.25 C60.0275 44.58 59.3675 44.91 58.6875 45.25 C58.3575 46.9 58.0275 48.55 57.6875 50.25 C61.9775 50.91 66.2675 51.57 70.6875 52.25 C71.0175 50.6 71.3475 48.95 71.6875 47.25 C70.6975 47.25 69.7075 47.25 68.6875 47.25 C69.0175 44.61 69.3475 41.97 69.6875 39.25 C71.3375 39.58 72.9875 39.91 74.6875 40.25 C74.62949219 40.92546875 74.57148438 41.6009375 74.51171875 42.296875 C74.09863079 48.05332435 74.09863079 48.05332435 76.875 52.875 C79.87695885 54.34262433 81.40994939 54.85375932 84.6875 54.25 C86.60416667 53.16666667 86.60416667 53.16666667 87.6875 51.25 C87.93819913 48.62429296 87.93819913 48.62429296 87.6875 46.25 C86.3675 47.24 85.0475 48.23 83.6875 49.25 C83.749375 48.363125 83.81125 47.47625 83.875 46.5625 C83.66798018 42.90514983 82.771426 41.20222849 80.6875 38.25 C81.491875 37.858125 82.29625 37.46625 83.125 37.0625 C85.83514212 35.48411046 85.83514212 35.48411046 86.6875 32.875 C86.6875 29.26025401 86.11461676 27.96265991 83.6875 25.25 C77.21186248 21.82088779 69.86435094 21.60216358 62.6875 21.25 Z M-97.3125 29.25 C-99.96679475 33.47274164 -99.965519 38.41282222 -99.3125 43.25 C-97.62974677 48.41650721 -95.15268844 52.54849947 -90.3125 55.25 C-86.48264487 55.72873189 -84.10821651 55.59360486 -80.5625 54.0625 C-77.26336535 51.40486375 -75.6071159 49.30153269 -74.9921875 45.01953125 C-74.69995292 38.73648779 -75.88272824 33.56278371 -79.3125 28.25 C-82.21760236 25.65896276 -83.89071964 25.30368114 -87.75 24.8125 C-92.02218693 25.33715454 -94.06281771 26.45376175 -97.3125 29.25 Z M96.6875 30.25 C94.62553782 32.4640989 94.62553782 32.4640989 93.6875 35.25 C94.30864362 39.05450468 95.19594221 40.7850129 98 43.4375 C102.47813145 46.86216456 102.47813145 46.86216456 107.6875 48.25 C107.6875 49.57 107.6875 50.89 107.6875 52.25 C104.375 52.0625 104.375 52.0625 100.6875 51.25 C99.65736723 49.60178756 98.65635372 47.93496298 97.6875 46.25 C94.5917893 45.35792821 94.5917893 45.35792821 91.6875 45.25 C90.08394899 48.75776784 89.46713136 51.39354879 89.6875 55.25 C92.58823181 55.92801034 92.58823181 55.92801034 95.6875 56.25 C96.3475 55.59 97.0075 54.93 97.6875 54.25 C98.491875 55.075 99.29625 55.9 100.125 56.75 C103.5066681 59.56271446 106.23518579 59.94182929 110.5625 59.6640625 C113.9427671 59.00540751 115.55239016 57.93610593 117.6875 55.25 C118.77223618 51.88142498 118.77223618 51.88142498 117.6875 48.25 C114.19592495 44.08696821 109.97638495 40.73749889 104.6875 39.25 C104.6875 37.93 104.6875 36.61 104.6875 35.25 C106.6675 35.25 108.6475 35.25 110.6875 35.25 C111.3475 36.9 112.0075 38.55 112.6875 40.25 C114.9975 40.58 117.3075 40.91 119.6875 41.25 C120.04866046 39.7725254 120.40125048 38.29295325 120.75 36.8125 C120.94722656 35.98878906 121.14445312 35.16507812 121.34765625 34.31640625 C121.45980469 33.63449219 121.57195312 32.95257813 121.6875 32.25 C120.63439723 30.97996677 120.63439723 30.97996677 118.25 31.0625 C115.52015325 30.98160017 115.52015325 30.98160017 113.6875 33.25 C113.006875 32.445625 112.32625 31.64125 111.625 30.8125 C106.64822915 26.4710616 101.84211135 25.95449054 96.6875 30.25 Z M-116.3125 31.25 C-119.13904873 33.99185309 -119.13904873 33.99185309 -121.3125 37.25 C-121.27874167 39.57171592 -121.27874167 39.57171592 -120.3125 41.25 C-118.6625 40.59 -117.0125 39.93 -115.3125 39.25 C-114.3225 44.53 -113.3325 49.81 -112.3125 55.25 C-113.3025 55.58 -114.2925 55.91 -115.3125 56.25 C-114.9825 57.9 -114.6525 59.55 -114.3125 61.25 C-109.6925 60.26 -105.0725 59.27 -100.3125 58.25 C-99.9825 56.6 -99.6525 54.95 -99.3125 53.25 C-100.9625 53.25 -102.6125 53.25 -104.3125 53.25 C-104.395 52.239375 -104.4775 51.22875 -104.5625 50.1875 C-105.38478298 43.40059716 -107.47351459 36.81902694 -109.3125 30.25 C-113.20709074 30.03918149 -113.20709074 30.03918149 -116.3125 31.25 Z " fill="#FFFFFF" transform="translate(271.3125,335.75)"/>
<path d="M0 0 C35.97 0 71.94 0 109 0 C109 10.23 109 20.46 109 31 C84.58 31 60.16 31 35 31 C35 45.19 35 59.38 35 74 C55.79 74 76.58 74 98 74 C98 83.9 98 93.8 98 104 C77.21 104 56.42 104 35 104 C35 121.16 35 138.32 35 156 C60.08 156 85.16 156 111 156 C111 165.9 111 175.8 111 186 C74.37 186 37.74 186 0 186 C0 124.62 0 63.24 0 0 Z " fill="#FFFFFF" transform="translate(1444,92)"/>
<path d="M0 0 C35.97 0 71.94 0 109 0 C109 10.23 109 20.46 109 31 C84.58 31 60.16 31 35 31 C35 45.19 35 59.38 35 74 C55.79 74 76.58 74 98 74 C98 83.9 98 93.8 98 104 C77.21 104 56.42 104 35 104 C35 121.16 35 138.32 35 156 C60.08 156 85.16 156 111 156 C111 165.9 111 175.8 111 186 C74.37 186 37.74 186 0 186 C0 124.62 0 63.24 0 0 Z " fill="#FFFFFF" transform="translate(662,92)"/>
<path d="M0 0 C0.8855658 0.1235083 1.77113159 0.2470166 2.68353271 0.37426758 C23.34005695 3.27703678 43.91666269 6.60901711 64.375 10.6875 C65.07176849 10.82580231 65.76853699 10.96410461 66.48641968 11.1065979 C73.71206059 12.55298014 80.85910251 14.17760649 87.97119141 16.10473633 C88.65260696 16.28795692 89.33402252 16.47117752 90.03608704 16.65995026 C91.69111664 17.10517909 93.34561602 17.55237811 95 18 C95.44515788 109.69798186 95.44515788 109.69798186 93 144 C92.92362305 145.09858337 92.92362305 145.09858337 92.84570312 146.21936035 C90.08904004 185.44728676 81.43081662 223.085284 63 258 C62.73574219 258.77730469 62.47148437 259.55460937 62.19921875 260.35546875 C61 262 61 262 57.91796875 262.828125 C56.68691406 262.96734375 55.45585937 263.1065625 54.1875 263.25 C52.35251953 263.47429687 52.35251953 263.47429687 50.48046875 263.703125 C47.62537874 263.94665681 44.86164188 264.06540896 42 264 C42.76174647 260.41493563 44.26921039 257.67297387 46.13574219 254.52026367 C56.84593083 236.35592835 63.95357199 216.41824753 69 196 C69.28931396 194.84636963 69.28931396 194.84636963 69.58447266 193.66943359 C82.4473366 141.24232902 79.08133449 83.56623272 80 30 C78.21263428 29.78960083 78.21263428 29.78960083 76.38916016 29.57495117 C72.81392463 29.12715113 69.30476261 28.52425721 65.7734375 27.80078125 C38.82185611 22.37909374 11.74669365 17.88671527 -15.5625 14.6875 C-16.25566315 14.60618835 -16.94882629 14.52487671 -17.66299438 14.44110107 C-76.309967 7.63322788 -135.98977301 15.93911247 -193.24609375 29.203125 C-197 30 -197 30 -201 30 C-200.67063135 41.47920264 -200.33168482 52.95808442 -199.98198223 64.43668652 C-199.81969714 69.77237279 -199.66016919 75.10810506 -199.50805664 80.4440918 C-198.85551066 103.2595222 -198.01710519 126.03766777 -196.4765625 148.8125 C-196.41328451 149.74982153 -196.35000652 150.68714306 -196.28481102 151.65286827 C-193.64987285 190.18828197 -185.80623765 223.66622266 -167.20166016 257.76782227 C-166.09320559 259.82686333 -165.03357488 261.90255683 -164 264 C-167.07065947 263.87946381 -170.12234789 263.7056849 -173.1875 263.5 C-174.05181641 263.47164063 -174.91613281 263.44328125 -175.80664062 263.4140625 C-182.07822989 262.93348095 -182.07822989 262.93348095 -184.5949707 260.38476562 C-185.91520698 258.31187128 -186.97507774 256.23257294 -188 254 C-188.65187206 252.78099764 -189.30419867 251.56223823 -189.95703125 250.34375 C-223.95251386 181.30704732 -216.54005577 93.03040119 -216 18 C-200.5745277 14.03611429 -185.18982377 10.15278935 -169.5 7.375 C-168.32689774 7.16321106 -168.32689774 7.16321106 -167.13009644 6.94714355 C-150.17592561 3.89125418 -133.15980231 1.36917287 -116.06347656 -0.74285889 C-114.08966425 -0.98882645 -112.1170598 -1.24442929 -110.14453125 -1.50048828 C-73.49059481 -6.16913377 -36.53262525 -5.1120168 0 0 Z " fill="#FFFFFF" transform="translate(333,63)"/>
<path d="M0 0 C11.88 0 23.76 0 36 0 C36 51.15 36 102.3 36 155 C63.06 155 90.12 155 118 155 C118 165.23 118 175.46 118 186 C79.06 186 40.12 186 0 186 C0 124.62 0 63.24 0 0 Z " fill="#FFFFFF" transform="translate(502,92)"/>
<path d="M0 0 C-2.20465603 3.4509991 -4.41008818 6.90150084 -6.61621094 10.3515625 C-7.36511742 11.52297867 -8.11381927 12.69452569 -8.86230469 13.86621094 C-9.94411016 15.55959711 -11.02673614 17.25245902 -12.109375 18.9453125 C-12.75874023 19.96125488 -13.40810547 20.97719727 -14.07714844 22.02392578 C-16.02326271 25.03600463 -18.00368219 28.02105883 -20 31 C-18.34090117 35.16797999 -15.2997944 38.06750532 -12.25 41.25 C-7.81208941 45.95781938 -3.73793645 50.70459004 0 56 C-7.73134478 59.31754228 -15.59595725 61.78189747 -23.6875 64.0625 C-24.91887695 64.41248047 -26.15025391 64.76246094 -27.41894531 65.12304688 C-35.90718795 67.50091912 -44.31828764 69.49013698 -53 71 C-53 63.74 -53 56.48 -53 49 C-55.97 48.34 -58.94 47.68 -62 47 C-73.19058521 43.85102137 -83.19104043 38.40002029 -93.3125 32.8125 C-94.29240906 32.27335968 -94.29240906 32.27335968 -95.29211426 31.72332764 C-97.1742619 30.68364768 -99.05108699 29.63508218 -100.92578125 28.58203125 C-102.02317627 27.96561768 -103.12057129 27.3492041 -104.2512207 26.71411133 C-106.54329757 25.28479508 -108.23213802 24.01364449 -110 22 C-107.60463718 20.80231859 -105.73558534 20.68269911 -103.06640625 20.421875 C-80.40319471 18.08476466 -58.40583128 13.99943839 -36.3125 8.5 C-35.56526672 8.31467712 -34.81803345 8.12935425 -34.04815674 7.93841553 C-25.28130089 5.75159635 -16.62536589 3.38453894 -8.07136536 0.46105957 C-3.32203045 -1.10734348 -3.32203045 -1.10734348 0 0 Z " fill="#FFFFFF" transform="translate(476,309)"/>
<path d="M0 0 C6.58899035 1.35213809 12.98671291 3.1260679 19.43920898 5.02075195 C45.20755628 12.56965278 71.09451697 18.0258819 97.82006836 20.7590332 C99.78085327 20.96532349 99.78085327 20.96532349 101.78125 21.17578125 C102.93689453 21.28833252 104.09253906 21.40088379 105.28320312 21.5168457 C108 22 108 22 110 24 C106.37644325 26.02984133 102.75086044 28.05600577 99.12353516 30.07910156 C97.8954631 30.76467111 96.66790475 31.45116187 95.44091797 32.13867188 C72.61305108 44.92676438 72.61305108 44.92676438 62.375 47.875 C61.68277344 48.08640625 60.99054688 48.2978125 60.27734375 48.515625 C55.33264002 50 55.33264002 50 53 50 C53 57.26 53 64.52 53 72 C43.61195212 70.32003354 34.49748234 68.13604679 25.3125 65.5625 C24.28068604 65.27431396 23.24887207 64.98612793 22.18579102 64.68920898 C15.05210925 62.66275588 8.01646914 60.39977467 1 58 C1 53.83048082 2.72957836 52.80585535 5.5625 49.8125 C6.48094455 48.82856892 7.39891033 47.84419072 8.31640625 46.859375 C9.20199219 45.91578125 10.08757812 44.9721875 11 44 C12.34211098 42.52879304 13.67680591 41.05074367 15 39.5625 C15.53625 38.96566406 16.0725 38.36882812 16.625 37.75390625 C18.05804282 35.92596242 19.03641012 34.10785287 20 32 C19.39414063 31.1028125 18.78828125 30.205625 18.1640625 29.28125 C13.46434147 22.29313362 8.84730841 15.26121335 4.375 8.125 C3.93752441 7.42955078 3.50004883 6.73410156 3.04931641 6.01757812 C0 1.12394681 0 1.12394681 0 0 Z " fill="#FFFFFF" transform="translate(69,308)"/>
<path d="M0 0 C5.55900967 4.01959161 8.10914209 9.45731685 9.56640625 16.01953125 C11.6138748 30.09357184 9.30567958 44.2528467 1 56 C-3.16012289 60.3941298 -6.6041723 63.13289164 -12.75 63.375 C-16.9357732 63.30865489 -19.64546848 62.78223248 -22.75390625 59.69140625 C-29.28810239 50.82210553 -29.61679788 40.62013811 -29 30 C-27.2610779 18.6764679 -23.10753272 8.28602617 -14 1 C-9.6378378 -1.75504981 -4.80231547 -1.64462859 0 0 Z " fill="#FFFFFF" transform="translate(314,120)"/>
<path d="M0 0 C7.6580934 6.24739199 11.90726029 14.13410646 13.375 23.9375 C14.34738796 37.77415791 13.72707772 49.94880868 4.375 60.9375 C-0.07512589 63.68610716 -4.55316476 63.89847931 -9.625 62.9375 C-16.82599097 59.16852379 -20.14593894 52.37468318 -22.625 44.9375 C-25.8460192 32.84603002 -25.96208762 19.62413814 -20.265625 8.21484375 C-15.32503931 0.38376076 -9.17258093 -3.71271133 0 0 Z " fill="#FFFFFF" transform="translate(254.625,121.0625)"/>
<path d="M0 0 C5.92923986 4.46914867 9.75591291 11.45271113 11.07421875 18.75 C11.93805286 30.78703269 10.52850428 40.34229122 2.8515625 49.9921875 C-2.88279749 55.66353255 -9.72728149 57.87629804 -17.61328125 58 C-26.39371861 57.882643 -32.6578405 55.91686968 -39.1328125 49.85546875 C-46.69540078 40.9747823 -47.58894637 30.96835491 -47.10058594 19.80859375 C-46.40536804 11.62133495 -41.88639588 5.1494689 -35.92578125 -0.25 C-24.98516047 -8.14647316 -10.96150476 -7.11497267 0 0 Z M-29.92578125 9.75 C-34.85508291 15.99804989 -36.65938139 21.76504465 -35.92578125 29.75 C-34.77002862 36.47648028 -32.10567771 40.14826653 -26.86328125 44.4375 C-22.84362515 47.16049284 -18.62127982 47.23204738 -13.92578125 46.75 C-8.12947678 44.70424548 -4.59907701 41.12243393 -1.9140625 35.7109375 C0.33209192 29.95834292 0.65453236 24.73399241 -0.92578125 18.75 C-3.51395885 12.96641853 -7.18479753 8.62049186 -12.92578125 5.75 C-19.36177943 5.03227443 -24.98806508 5.22690122 -29.92578125 9.75 Z " fill="#FFFFFF" transform="translate(1378.92578125,353.25)"/>
<path d="M0 0 C8.17609074 4.87758203 12.35834462 11.29325783 15.8203125 20.0859375 C17.87187511 28.2673205 17.50369835 36.44145019 13.8203125 44.0859375 C11.45900835 47.76170096 8.93057015 50.46249642 4.8203125 52.0859375 C-1.43064741 52.8130129 -6.82734627 52.65416499 -12.1796875 49.0859375 C-13.0046875 48.5703125 -13.8296875 48.0546875 -14.6796875 47.5234375 C-22.11286927 40.27608528 -25.94283828 30.47760686 -26.2734375 20.16015625 C-25.90215962 13.44930856 -24.41644345 7.48368393 -19.6875 2.51953125 C-13.76050429 -2.65553217 -7.16292806 -3.50116215 0 0 Z " fill="#FFFFFF" transform="translate(197.1796875,146.9140625)"/>
<path d="M0 0 C-0.33 4.29 -0.66 8.58 -1 13 C-5 11 -5 11 -6.875 9.5 C-11.73987126 6.06597323 -17.16171308 5.19684942 -23 6 C-28.39402482 7.30115408 -32.80177373 8.9695122 -36.0625 13.625 C-39.37263947 19.98612212 -39.65853367 26.34635362 -38 33.25 C-36.27902824 38.27081671 -33.51447738 41.27288713 -29 44 C-25.34243208 45.75971658 -22.48427777 46.24941176 -18.4375 46.1875 C-17.04337891 46.17783203 -17.04337891 46.17783203 -15.62109375 46.16796875 C-12.73889749 46.06222177 -12.73889749 46.06222177 -9 45 C-8.67 41.37 -8.34 37.74 -8 34 C-12.29 34 -16.58 34 -21 34 C-21 30.7 -21 27.4 -21 24 C-13.08 24 -5.16 24 3 24 C3 33.57 3 43.14 3 53 C-9.88457663 57.68530059 -21.41757372 60.85114903 -34.53125 55.31640625 C-43.02877245 50.78529064 -47.67074338 44.21173685 -50.609375 35.11328125 C-52.49787917 24.89647367 -51.34697519 15.38532366 -45.4921875 6.78515625 C-34.68333659 -6.71333895 -14.43016006 -9.62010671 0 0 Z " fill="#FFFFFF" transform="translate(616,353)"/>
<path d="M0 0 C4.03508571 2.01754286 6.17538418 3.93907474 9.3125 7.125 C9.80177979 7.6207251 10.29105957 8.1164502 10.79516602 8.62719727 C14.01278966 11.91284004 17.05105625 15.30978785 20.03125 18.80859375 C24.46672967 23.74570505 29.28302667 28.33602637 34 33 C34.33 22.11 34.66 11.22 35 0 C38.63 0 42.26 0 46 0 C46 19.47 46 38.94 46 59 C42.0825564 58.0206391 41.33848473 57.71149889 38.70019531 55.04077148 C38.07985413 54.4202037 37.45951294 53.79963593 36.82037354 53.16026306 C36.16293152 52.48733719 35.5054895 51.81441132 34.828125 51.12109375 C34.1457074 50.4344313 33.46328979 49.74776886 32.76019287 49.04029846 C30.58298804 46.84630585 28.41644719 44.64211084 26.25 42.4375 C24.77543029 40.94788366 23.30017787 39.4589428 21.82421875 37.97070312 C18.20683034 34.32279681 14.60404468 30.66128539 11 27 C10.67 37.56 10.34 48.12 10 59 C6.7 59 3.4 59 0 59 C0 39.53 0 20.06 0 0 Z " fill="#FFFFFF" transform="translate(731,350)"/>
<path d="M0 0 C28.31180401 0 28.31180401 0 34.15625 4.75390625 C34.5996875 5.35074219 35.043125 5.94757813 35.5 6.5625 C35.9640625 7.16191406 36.428125 7.76132812 36.90625 8.37890625 C40.09144283 13.09981705 39.51902981 18.49251697 39 24 C36.79253037 28.57845553 33.94278794 30.91377129 30 34 C30.39380859 34.68626465 30.78761719 35.3725293 31.19335938 36.07958984 C32.96667367 39.17554477 34.73340991 42.27520366 36.5 45.375 C37.12003906 46.45523438 37.74007812 47.53546875 38.37890625 48.6484375 C39.25869141 50.1953125 39.25869141 50.1953125 40.15625 51.7734375 C40.70087891 52.72653809 41.24550781 53.67963867 41.80664062 54.66162109 C43 57 43 57 43 59 C38.76342904 59.82613134 35.20207611 60.10201506 31 59 C27.41942668 55.10956938 25.28501106 50.7128353 23 46 C22.1794242 44.59662888 21.34937389 43.198631 20.5 41.8125 C19 39 19 39 19 37 C16.36 37 13.72 37 11 37 C11 44.26 11 51.52 11 59 C7.37 59 3.74 59 0 59 C0 39.53 0 20.06 0 0 Z M11 9 C11 14.94 11 20.88 11 27 C19.58655741 26.79498206 19.58655741 26.79498206 27 23 C28.52491998 19.95016004 28.23562548 17.3576631 28 14 C25.92200331 10.65211645 22.70348631 9.9084023 19 9 C16.36 9 13.72 9 11 9 Z " fill="#FFFFFF" transform="translate(982,350)"/>
<path d="M0 0 C26.07142857 0 26.07142857 0 33.875 4.75 C37.62373393 8.71924769 38.8406773 12.56609573 39.4375 17.9375 C39.21109256 23.47909159 36.88871453 28.22238632 32.875 32 C31 33 31 33 29 33 C29.42410156 33.7520874 29.84820313 34.5041748 30.28515625 35.27905273 C31.85228453 38.06049017 33.41751371 40.8429848 34.98144531 43.6262207 C35.659717 44.83238025 36.338752 46.03811088 37.01855469 47.2434082 C37.99352676 48.9723492 38.9655604 50.7029462 39.9375 52.43359375 C40.52402344 53.47572021 41.11054687 54.51784668 41.71484375 55.59155273 C43 58 43 58 43 59 C38.71 59 34.42 59 30 59 C29.14535156 57.49566406 28.29070312 55.99132812 27.41015625 54.44140625 C26.29435552 52.48172261 25.1784655 50.52208981 24.0625 48.5625 C23.49853516 47.56927734 22.93457031 46.57605469 22.35351562 45.55273438 C21.81533203 44.60849609 21.27714844 43.66425781 20.72265625 42.69140625 C20.22515869 41.81685791 19.72766113 40.94230957 19.21508789 40.04125977 C18.15939808 38.07742483 18.15939808 38.07742483 17 37 C15.02 37 13.04 37 11 37 C11 44.26 11 51.52 11 59 C7.37 59 3.74 59 0 59 C0 39.53 0 20.06 0 0 Z M11 9 C11 14.94 11 20.88 11 27 C18.34751486 26.77342019 18.34751486 26.77342019 25.125 24.375 C27.67863346 21.14039762 28.14428834 19.1122176 28 15 C25.94884956 12.30420228 24.29495967 10.58049916 21.1875 9.1875 C17.80349983 8.89744284 14.39640844 9 11 9 Z " fill="#FFFFFF" transform="translate(1404,350)"/>
<path d="M0 0 C3.96 0 7.92 0 12 0 C12.01458252 1.13429443 12.02916504 2.26858887 12.04418945 3.43725586 C12.1025494 7.68121475 12.17977728 11.9246638 12.26245117 16.16821289 C12.29552431 17.99820628 12.32360999 19.82829737 12.34643555 21.65844727 C12.38030807 24.30266613 12.43263641 26.94600379 12.48828125 29.58984375 C12.49467117 30.39646957 12.5010611 31.2030954 12.50764465 32.03416443 C12.64942289 37.62194392 13.44107472 42.96192188 16 48 C20.84363168 51.36088729 24.81254832 51.23911301 30.5703125 50.71484375 C33.82527736 49.75719332 35.55867512 48.35564282 38 46 C41.02378286 36.43203878 40.40697361 25.11106289 40.625 15.125 C40.66331912 13.64711595 40.70237804 12.1692509 40.7421875 10.69140625 C40.83661282 7.12778129 40.92117011 3.5640082 41 0 C44.3 0 47.6 0 51 0 C51.04990393 5.21035408 51.08595515 10.42056518 51.10986328 15.63110352 C51.11984339 17.39903186 51.13343228 19.16694403 51.15087891 20.93481445 C51.41485862 48.39646906 51.41485862 48.39646906 42.875 57.1875 C35.39863976 61.90085754 27.06641327 63.11995322 18.4609375 61.53125 C12.50892574 60.02076967 7.99308913 57.73831747 4 53 C-0.19117351 45.45588768 -0.15259771 37.31481293 -0.09765625 28.90625 C-0.0962413 28.07411987 -0.09482635 27.24198975 -0.09336853 26.38464355 C-0.08782167 23.7563907 -0.07527945 21.12822662 -0.0625 18.5 C-0.05747812 16.70573041 -0.05291642 14.91145946 -0.04882812 13.1171875 C-0.03786972 8.74475805 -0.02064248 4.37239402 0 0 Z " fill="#FFFFFF" transform="translate(1037,350)"/>
<path d="M0 0 C0.99 0 1.98 0 3 0 C9.9075102 14.19955253 16.78293935 28.41378435 23.45571899 42.72546387 C24.30124303 44.53836377 25.14998989 46.34975944 25.9987793 48.16113281 C26.51093994 49.26424805 27.02310059 50.36736328 27.55078125 51.50390625 C28.22620972 52.95518921 28.22620972 52.95518921 28.9152832 54.43579102 C30 57 30 57 31 61 C27.04 61 23.08 61 19 61 C15 53.25 15 53.25 15 51 C5.43 51 -4.14 51 -14 51 C-14.99 53.97 -15.98 56.94 -17 60 C-18 61 -18 61 -20.72265625 61.09765625 C-25.36132812 61.04882812 -25.36132812 61.04882812 -30 61 C-26.75246583 52.94379639 -23.20339544 45.11973175 -19.296875 37.36328125 C-18.77361633 36.31722214 -18.25035767 35.27116302 -17.71124268 34.19340515 C-16.61734164 32.00859775 -15.52151811 29.82475192 -14.42382812 27.6418457 C-12.73619656 24.28504412 -11.05515293 20.92500319 -9.375 17.56445312 C-8.3076718 15.43470529 -7.23997701 13.30514112 -6.171875 11.17578125 C-5.66775085 10.16864578 -5.16362671 9.16151031 -4.64422607 8.12385559 C-4.17994202 7.20166733 -3.71565796 6.27947906 -3.23730469 5.3293457 C-2.8282489 4.51504593 -2.41919312 3.70074615 -1.9977417 2.86177063 C-1 1 -1 1 0 0 Z M0 21 C-1.50626117 24.12202006 -3.00393243 27.24808399 -4.5 30.375 C-4.92925781 31.26445312 -5.35851562 32.15390625 -5.80078125 33.0703125 C-6.20683594 33.92109375 -6.61289062 34.771875 -7.03125 35.6484375 C-7.40830078 36.43395996 -7.78535156 37.21948242 -8.17382812 38.02880859 C-9.12884831 39.9512028 -9.12884831 39.9512028 -9 42 C-2.73 42 3.54 42 10 42 C8.09362405 36.28087215 6.50377148 31.64062487 3.8125 26.4375 C3.28269531 25.40496094 2.75289062 24.37242187 2.20703125 23.30859375 C1.60955078 22.16583984 1.60955078 22.16583984 1 21 C0.67 21 0.34 21 0 21 Z " fill="#FFFFFF" transform="translate(659,348)"/>
<path d="M0 0 C0.99 0 1.98 0 3 0 C9.52838012 13.45398544 16.01534657 26.9266099 22.33340454 40.48083496 C23.1736311 42.28275722 24.01684461 44.08328571 24.86010742 45.88378906 C25.37420166 46.99077148 25.8882959 48.09775391 26.41796875 49.23828125 C26.86938232 50.20805908 27.3207959 51.17783691 27.78588867 52.17700195 C29.0324558 55.07546479 30.04511215 57.99411868 31 61 C27.04 61 23.08 61 19 61 C15 53.25 15 53.25 15 51 C5.43 51 -4.14 51 -14 51 C-14.99 53.97 -15.98 56.94 -17 60 C-18 61 -18 61 -20.72265625 61.09765625 C-21.82480469 61.08605469 -22.92695313 61.07445312 -24.0625 61.0625 C-25.16722656 61.05347656 -26.27195312 61.04445313 -27.41015625 61.03515625 C-28.69212891 61.01775391 -28.69212891 61.01775391 -30 61 C-28.72339323 56.93550639 -27.21707583 53.18547737 -25.31030273 49.37768555 C-24.77312119 48.30024582 -24.23593964 47.22280609 -23.68247986 46.11271667 C-23.10534744 44.96563736 -22.52821503 43.81855804 -21.93359375 42.63671875 C-21.33320898 41.43714266 -20.73312105 40.23741796 -20.13331604 39.03755188 C-18.88082136 36.53412053 -17.62566478 34.032049 -16.3684082 31.53100586 C-14.75464693 28.32055313 -13.14622942 25.10745994 -11.5395956 21.89343548 C-10.30332564 19.42116686 -9.06497756 16.9499442 -7.82591438 14.47907448 C-6.94266073 12.71730409 -6.06061086 10.95493036 -5.17857361 9.19255066 C-4.64454422 8.13087173 -4.11051483 7.06919281 -3.56030273 5.9753418 C-3.08890366 5.03635544 -2.61750458 4.09736908 -2.13182068 3.12992859 C-1 1 -1 1 0 0 Z M0 20 C-1.50605402 23.28893003 -3.00380532 26.58157446 -4.5 29.875 C-4.92925781 30.81214844 -5.35851562 31.74929688 -5.80078125 32.71484375 C-6.20683594 33.61074219 -6.61289062 34.50664062 -7.03125 35.4296875 C-7.40830078 36.25710449 -7.78535156 37.08452148 -8.17382812 37.93701172 C-9.12392316 39.93906349 -9.12392316 39.93906349 -9 42 C-2.73 42 3.54 42 10 42 C8.09788915 36.29366744 6.34492182 31.28372385 3.8125 25.9375 C3.28269531 24.81214844 2.75289062 23.68679688 2.20703125 22.52734375 C1.80871094 21.69332031 1.41039062 20.85929687 1 20 C0.67 20 0.34 20 0 20 Z " fill="#FFFFFF" transform="translate(528,348)"/>
<path d="M0 0 C11.55 0 23.1 0 35 0 C35 3.3 35 6.6 35 10 C27.41 10 19.82 10 12 10 C12 14.29 12 18.58 12 23 C18.6 23 25.2 23 32 23 C32 26.3 32 29.6 32 33 C25.4 33 18.8 33 12 33 C12 38.28 12 43.56 12 49 C19.92 49 27.84 49 36 49 C36 52.3 36 55.6 36 59 C24.12 59 12.24 59 0 59 C0 39.53 0 20.06 0 0 Z " fill="#FFFFFF" transform="translate(1105,350)"/>
<path d="M0 0 C-0.33 4.29 -0.66 8.58 -1 13 C-3.53379174 11.47972495 -6.06707549 9.95746432 -8.5625 8.375 C-13.13832553 5.79376509 -17.78647047 5.31997441 -23 6 C-28.28444113 7.76148038 -31.9767327 10.23254002 -35 15 C-37.85743729 21.08758378 -38.20902245 27.95467622 -36.27734375 34.41796875 C-33.88506898 39.58024589 -30.72516237 42.48602091 -25.75 45.25 C-18.82712322 47.1380573 -12.3408395 46.30886603 -6 43 C-4.30140333 41.70758949 -2.62390477 40.38509525 -1 39 C-0.34 39 0.32 39 1 39 C0.67 43.62 0.34 48.24 0 53 C-10.28853 57.69035926 -20.11014752 60.50160927 -31.3125 56.4375 C-40.24713272 52.27477339 -45.55231847 46.20368203 -49 37 C-51.389338 27.33611699 -50.64112793 17.25060294 -45.59375 8.5859375 C-41.17677283 2.35633291 -35.40062621 -2.16244254 -28.1171875 -4.640625 C-18.27745186 -6.31083843 -8.38667136 -5.59111424 0 0 Z " fill="#FFFFFF" transform="translate(966,353)"/>
<path d="M0 0 C9.16597637 -0.68771687 15.26400076 1.89724596 23.25976562 6.17333984 C29.20407973 9.39739648 29.20407973 9.39739648 35.83203125 9.375 C38.90736471 8.05024097 41.82168124 6.45914171 44.76953125 4.875 C53.60063147 0.41000937 59.89346996 -0.74323078 69.83203125 0.375 C70.94449219 0.46007812 72.05695313 0.54515625 73.203125 0.6328125 C75.75420218 0.83429885 78.29051066 1.07910571 80.83203125 1.375 C80.83203125 2.365 80.83203125 3.355 80.83203125 4.375 C69.00373031 11.20766915 57.15772255 18.03602394 44.76953125 23.8125 C43.98094727 24.195271 43.19236328 24.57804199 42.37988281 24.97241211 C36.40170844 27.66773309 31.77273879 27.78248815 25.60571289 25.57983398 C23.1646838 24.58047622 20.78132685 23.49759109 18.39453125 22.375 C17.52924805 21.97635742 16.66396484 21.57771484 15.77246094 21.16699219 C4.42473872 15.87692059 -6.61587206 10.11913582 -17.16796875 3.375 C-11.97883127 -0.08442499 -6.05429919 0.7166618 0 0 Z " fill="#FFFFFF" transform="translate(239.16796875,397.625)"/>
<path d="M0 0 C28.38461538 0 28.38461538 0 34.9375 5.4375 C39.10104109 10.61038439 39.43618937 14.52182259 39.31640625 21.0859375 C38.88922865 25.02019046 37.67361731 27.10960291 35 30 C34.34 30.721875 33.68 31.44375 33 32.1875 C26.55054063 36.08404837 19.42460258 37 12 37 C12 44.26 12 51.52 12 59 C8.04 59 4.08 59 0 59 C0 39.53 0 20.06 0 0 Z M12 9 C12 14.94 12 20.88 12 27 C20.07456057 26.69914974 20.07456057 26.69914974 27 23 C28.94663632 20.4339794 29.00770736 19.18883026 28.875 15.9375 C27.85819413 12.52393742 27.08671292 11.67564416 24 10 C19.97091163 8.41714385 16.58205924 9 12 9 Z " fill="#FFFFFF" transform="translate(1283,350)"/>
<path d="M0 0 C4.71541073 3.09354972 7.04953847 6.80122149 8.27734375 12.3359375 C9.37813913 19.66310677 8.38783182 26.08708908 4.296875 32.34765625 C-0.37175444 38.11667203 -5.36069598 41.60775543 -12.78515625 42.51953125 C-18.02257561 41.8529506 -21.81401409 40.52874482 -25.53515625 36.70703125 C-29.92369371 29.88041742 -30.40314146 22.62477823 -28.72265625 14.734375 C-26.54724991 8.31939834 -22.48476883 2.94977344 -16.375 -0.21875 C-11.1183795 -1.92643615 -5.1466116 -2.12557773 0 0 Z " fill="#FFFFFF" transform="translate(367.22265625,152.91796875)"/>
<path d="M0 0 C0 3.96 0 7.92 0 12 C-5 10 -5 10 -7.2109375 9.11328125 C-12.18122896 7.27409398 -15.71394346 6.59757684 -21 8 C-23.33818182 9.86741823 -23.33818182 9.86741823 -23.00390625 12.875 C-21.64054868 17.11891461 -19.79353125 17.87497704 -15.9375 20 C-14.74838201 20.68077534 -13.56087665 21.36437522 -12.375 22.05078125 C-10.704375 23.01564453 -10.704375 23.01564453 -9 24 C-3.42201401 27.72156253 1.80109005 31.40327016 4 38 C4.56384129 43.69262838 4.30719906 48.14944138 1 53 C-4.893541 58.893541 -10.25752369 60.08570206 -18.375 60.3125 C-24.18231797 60.23864971 -28.640049 59.18031905 -34 57 C-35.10228696 52.59085217 -35.07654536 48.51617599 -35 44 C-31.74031816 45.03355766 -28.71171068 46.13880597 -25.625 47.625 C-21.21088527 49.29931938 -18.68885303 49.45375997 -14 49 C-11.63706998 47.84367254 -9.85016245 46.85016245 -8 45 C-7.69857084 41.66042692 -7.69857084 41.66042692 -9 38 C-11.70640477 35.50838926 -14.80045317 33.79136304 -18 32 C-24.99650559 28.08279477 -31.29565967 24.40868065 -35 17 C-35.6611841 11.67800994 -35.41738391 7.03051752 -32.3671875 2.5078125 C-24.23037992 -6.46592386 -10.06840044 -4.16623466 0 0 Z " fill="#FFFFFF" transform="translate(1550,351)"/>
<path d="M0 0 C0 3.96 0 7.92 0 12 C-1.2684375 11.44119141 -1.2684375 11.44119141 -2.5625 10.87109375 C-11.5771941 7.00893994 -11.5771941 7.00893994 -21 8 C-23.23399388 10.68029535 -23.23399388 10.68029535 -22.83984375 13.0078125 C-21.80343703 15.46626566 -20.72801562 16.3325603 -18.5625 17.875 C-17.84320312 18.390625 -17.12390625 18.90625 -16.3828125 19.4375 C-13.95395562 21.03019303 -11.4682772 22.45095411 -8.9375 23.875 C-3.49628836 27.04904012 1.14921392 31.29842785 4 37 C4.71910796 44.10855901 4.51392888 49.32865346 0 55 C-7.60161059 60.76734725 -15.81514524 60.60228556 -25 60 C-28.21337445 59.26010655 -30.94085372 58.26585363 -34 57 C-34.33 52.71 -34.66 48.42 -35 44 C-31.77419689 44.80645078 -29.19754201 45.73997761 -26.1875 47.0625 C-20.85508676 49.21899065 -16.72097596 49.82812312 -11.125 48.125 C-8.8498468 47.18405876 -8.8498468 47.18405876 -8 45 C-7.33112827 42.17123097 -7.33112827 42.17123097 -8 39 C-12.01672361 34.60962768 -16.35827005 32.22004782 -21.625 29.5 C-27.84151855 26.25970216 -30.81212645 23.67960551 -34.375 17.6875 C-35.5000676 12.84970932 -35.35722106 8.27205678 -32.765625 3.93359375 C-24.59357169 -6.15510092 -11.05093491 -4.57280065 0 0 Z " fill="#FFFFFF" transform="translate(1265,351)"/>
<path d="M0 0 C0 3.96 0 7.92 0 12 C-1.2684375 11.44119141 -1.2684375 11.44119141 -2.5625 10.87109375 C-11.5771941 7.00893994 -11.5771941 7.00893994 -21 8 C-23.23399388 10.68029535 -23.23399388 10.68029535 -22.83984375 13.0078125 C-21.80343703 15.46626566 -20.72801562 16.3325603 -18.5625 17.875 C-17.84320312 18.390625 -17.12390625 18.90625 -16.3828125 19.4375 C-13.95395562 21.03019303 -11.4682772 22.45095411 -8.9375 23.875 C-3.49628836 27.04904012 1.14921392 31.29842785 4 37 C4.71910796 44.10855901 4.51392888 49.32865346 0 55 C-7.60161059 60.76734725 -15.81514524 60.60228556 -25 60 C-28.21337445 59.26010655 -30.94085372 58.26585363 -34 57 C-34.33 52.71 -34.66 48.42 -35 44 C-31.77419689 44.80645078 -29.19754201 45.73997761 -26.1875 47.0625 C-20.85508676 49.21899065 -16.72097596 49.82812312 -11.125 48.125 C-8.8498468 47.18405876 -8.8498468 47.18405876 -8 45 C-7.33112827 42.17123097 -7.33112827 42.17123097 -8 39 C-12.01672361 34.60962768 -16.35827005 32.22004782 -21.625 29.5 C-27.84151855 26.25970216 -30.81212645 23.67960551 -34.375 17.6875 C-35.5000676 12.84970932 -35.35722106 8.27205678 -32.765625 3.93359375 C-24.59357169 -6.15510092 -11.05093491 -4.57280065 0 0 Z " fill="#FFFFFF" transform="translate(827,351)"/>
<path d="M0 0 C17.49 0 34.98 0 53 0 C53 3.3 53 6.6 53 10 C46.07 10 39.14 10 32 10 C32 26.17 32 42.34 32 59 C28.37 59 24.74 59 21 59 C21 42.83 21 26.66 21 10 C14.07 10 7.14 10 0 10 C0 6.7 0 3.4 0 0 Z " fill="#FFFFFF" transform="translate(1454,350)"/>
<path d="M0 0 C17.16 0 34.32 0 52 0 C52 3.3 52 6.6 52 10 C45.07 10 38.14 10 31 10 C31 26.17 31 42.34 31 59 C27.37 59 23.74 59 20 59 C20 42.83 20 26.66 20 10 C13.4 10 6.8 10 0 10 C0 6.7 0 3.4 0 0 Z " fill="#FFFFFF" transform="translate(840,350)"/>
<path d="M0 0 C3.63 0 7.26 0 11 0 C11 16.17 11 32.34 11 49 C19.58 49 28.16 49 37 49 C37 52.3 37 55.6 37 59 C24.79 59 12.58 59 0 59 C0 39.53 0 20.06 0 0 Z " fill="#FFFFFF" transform="translate(1155,350)"/>
<path d="M0 0 C3.63 0 7.26 0 11 0 C11 19.47 11 38.94 11 59 C7.37 59 3.74 59 0 59 C0 39.53 0 20.06 0 0 Z " fill="#FFFFFF" transform="translate(702,350)"/>
<path d="M0 0 C2.375 0.25 2.375 0.25 5 1 C6.75703992 3.76718482 7.34971815 6.26615407 7.6875 9.5 C7.77386719 10.2528125 7.86023438 11.005625 7.94921875 11.78125 C8.00118497 14.05177422 7.65440463 15.83505236 7 18 C4.6875 18.3125 4.6875 18.3125 2 18 C-1.25801942 14.27654923 -2.0390125 9.83755013 -2 5 C-1.0625 2 -1.0625 2 0 0 Z " fill="#FFFFFF" transform="translate(181,367)"/>
<path d="M0 0 C3 1 3 1 3.984375 2.78515625 C5.85904015 8.36132862 6.15536322 12.22318388 5 18 C3.35 18.33 1.7 18.66 0 19 C-3.42758881 13.71580059 -4.02490999 8.14945991 -3 2 C-2.01 1.34 -1.02 0.68 0 0 Z " fill="#FFFFFF" transform="translate(209,362)"/>
<path d="M0 0 C0 2.64 0 5.28 0 8 C-2.74755487 8.69888677 -5.49731197 9.3843988 -8.25 10.0625 C-9.02730469 10.26166016 -9.80460938 10.46082031 -10.60546875 10.66601562 C-11.35957031 10.84970703 -12.11367187 11.03339844 -12.890625 11.22265625 C-13.58188477 11.39547119 -14.27314453 11.56828613 -14.98535156 11.74633789 C-17.25070809 12.03156637 -18.8368312 11.68076195 -21 11 C-17.87907566 9.15966024 -14.75261783 7.32893744 -11.625 5.5 C-10.73554688 4.97535156 -9.84609375 4.45070313 -8.9296875 3.91015625 C-7.65351563 3.16572266 -7.65351563 3.16572266 -6.3515625 2.40625 C-5.56604004 1.94541016 -4.78051758 1.48457031 -3.97119141 1.00976562 C-2 0 -2 0 0 0 Z " fill="#FFFFFF" transform="translate(179,335)"/>
<path d="M0 0 C2.58852107 1.24008219 5.17046417 2.49147214 7.75 3.75 C8.47960937 4.09804688 9.20921875 4.44609375 9.9609375 4.8046875 C13.94680779 6.76138746 17.06107184 8.56609446 20 12 C13.29225357 10.82144268 6.63818061 9.52351686 0 8 C0 5.36 0 2.72 0 0 Z " fill="#FFFFFF" transform="translate(366,335)"/>
<path d="M0 0 C2.375 -0.125 2.375 -0.125 5 0 C7 2 7 2 7.3125 4.5 C7.1578125 5.7375 7.1578125 5.7375 7 7 C4 9 4 9 1.3125 8.625 C0.549375 8.41875 -0.21375 8.2125 -1 8 C-0.67 5.36 -0.34 2.72 0 0 Z " fill="#FFFFFF" transform="translate(343,363)"/>
<path d="M0 0 C2.39763185 2.39763185 2.34280586 3.33273498 2.625 6.625 C2.69976562 7.44226563 2.77453125 8.25953125 2.8515625 9.1015625 C2.92503906 10.04128906 2.92503906 10.04128906 3 11 C1.02 11 -0.96 11 -3 11 C-2.44894091 7.0507432 -1.61064629 3.65079826 0 0 Z " fill="#FFFFFF" transform="translate(310,360)"/>
</svg>
