<svg id="Layer_1" data-name="Layer 1" xmlns="http://www.w3.org/2000/svg" viewBox="0 0 1920 1046.5"><defs/><path fill="currentColor" class="cls-1" d="M972.13 100.75l.01-.02M370.53 371.82l-.27-.12c.06-.03.12-.07.18-.1l.09.21z"/><path fill="currentColor" class="cls-1" d="M370.53 371.82l-.27-.12c.06-.03.12-.07.18-.1l.09.21z"/><path fill="currentColor" class="cls-1" d="M1599.11 421.14c-.36-1.67-.95-3.47-1.53-5.4-.6-1.93-1.38-3.93-2.18-6-1.73-4.11-3.79-8.44-6.3-12.5-3.16-5.25-6.96-10.05-10.71-13.82l15.93-6.92 3.52-7.97-19.51 8.79 1.41-3.16a2.914 2.914 0 1 0-5.29-2.45l-2.7 6.06c-.41-.3-.84-.58-1.26-.86l3.63-8.11c.67-1.46.04-3.19-1.42-3.87a2.922 2.922 0 0 0-3.87 1.42l-3.03 6.78-.9-1.67 3.66-8.18a2.92 2.92 0 0 0-1.42-3.87 2.918 2.918 0 0 0-3.87 1.43l-2.08 4.65c-.33-.45-.67-.91-1.04-1.38l10.21-22.87-7.02 1.46-7.37 16.52c-.05-.06-.11-.13-.17-.19-.77-.78-1.58-1.56-2.4-2.34-.82-.79-1.67-1.58-2.58-2.32-.91-.76-1.83-1.51-2.74-2.27-.98-.71-1.95-1.42-2.92-2.13-7.86-5.65-17.26-9.49-24.31-11.02-1.75-.41-3.74-.66-5.85-.98-1.07-.11-2.17-.17-3.3-.24-1.13-.07-2.29-.16-3.48-.1-1.19.03-2.4.07-3.63.1h-.46l-.52.07-1.05.11c-.7.07-1.41.14-2.07.27-2.75.44-5.3 1.22-7.76 2.08-2.19.82-4.27 1.76-6.23 2.79l.06-.09c1.06-1.67 2.13-3.42 3.19-5.24l.79-1.38.74-1.41c.48-.96.97-1.9 1.45-2.86 3.82-7.68 6.8-15.81 8.28-21.77.81-2.96 1.47-6.6 2.13-10.54.26-1.99.51-4.04.74-6.14.21-2.1.32-4.26.44-6.41.19-4.3.09-8.6-.25-12.57l13.76 5.07 8.05-3.33-20.17-7.13 3.2-1.3a2.91 2.91 0 0 0 1.64-3.79 2.918 2.918 0 0 0-3.79-1.64l-4.39 1.79c-.01-.08-.04-.16-.06-.23l-.35-1.22 6.57-2.68a2.91 2.91 0 0 0 1.64-3.79 2.91 2.91 0 0 0-3.78-1.64l-5.72 2.33.48-1.82 7.17-2.93a2.91 2.91 0 0 0 1.64-3.78 2.91 2.91 0 0 0-3.79-1.64l-3.55 1.45c.08-.56.15-1.13.21-1.71l22.01-9.01-6.09-3.8-15.6 6.38c0-3.96-.41-8.28-1.36-12.71-.24-1.16-.61-2.33-.93-3.48-.17-.57-.33-1.19-.52-1.72-.19-.52-.37-1.04-.55-1.55-.75-2.06-1.48-4.1-2.36-5.97-.84-1.89-1.66-3.72-2.57-5.35-.9-1.63-1.69-3.21-2.57-4.53-3.3-5.42-8.89-12.44-15.4-18.32-6.49-5.93-13.79-10.74-19.49-13.06-1.13-.5-2.32-.91-3.46-1.36l-2.68-1.01.04-.05c-.65-.87-1.34-1.71-2.02-2.58l-1.93-2.42c-3.93-4.73-10.65-10.32-18.2-14.77-7.51-4.5-15.79-7.81-21.88-9.47-6.06-1.72-14.9-3.15-23.71-3.07-2.21.06-4.41.13-6.55.28-1.48.15-2.94.31-4.36.5l3.41-13.47-4.16-7.65-4.96 20.8-1.64-3.04a2.912 2.912 0 0 0-3.93-1.23c-1.43.74-1.99 2.5-1.24 3.93l1.7 3.15c-.5.17-.96.34-1.42.51l-2.78-5.17a2.916 2.916 0 0 0-3.93-1.24c-1.43.75-1.99 2.5-1.24 3.93l2.54 4.73-.81.36v-.06l-.8-.12-3.53-6.57a2.904 2.904 0 0 0-3.93-1.24c-1.43.74-1.98 2.5-1.24 3.93l1.64 3.06c-.3-.02-.61-.04-.93-.07-.27-.01-.55-.03-.83-.03l-11.06-20.56-3.14 6.45 7.72 14.35c-.36.03-.73.07-1.1.13-2 .25-4.11.54-6.22.92-2.08.44-4.21.93-6.33 1.44-8.45 2.21-16.62 5.78-22.08 8.96-5.47 3.14-12.71 8.45-18.82 14.85-6.17 6.35-11.11 13.71-13.45 19.45l-1.37 3.47c-.37.88-.64 1.82-.96 2.73l-.04-.03-2.59 2.05c-.81.65-1.56 1.36-2.35 2.04-1.16 1.04-2.43 2.2-3.61 3.59-1.19 1.38-2.52 2.84-3.67 4.52-1.19 1.65-2.44 3.39-3.51 5.27-.56.95-1.11 1.9-1.67 2.84-.54.96-1.02 1.96-1.51 2.96s-.99 1.99-1.45 3.01c-.42 1.03-.84 2.05-1.26 3.07-.87 2.02-1.52 4.08-2.16 6.06-.67 1.97-1.1 3.93-1.56 5.76-.48 1.82-.74 3.57-1.01 5.15-.11.79-.24 1.62-.36 2.49-.1.87-.16 1.78-.24 2.71-.07.94-.13 1.9-.21 2.9-.06.99-.04 2.02-.05 3.05v3.17c.03 1.07.12 2.16.19 3.24.07 1.09.15 2.19.25 3.29.15 1.1.3 2.19.45 3.3.55 3.81 1.38 7.53 2.4 10.97l-13.37-.81-6.82 5.42 21.09 1.5-2.46 1.94a2.925 2.925 0 0 0-.54 4.09 2.914 2.914 0 0 0 4.09.53l2.35-1.85c.13.25.27.49.41.73l.34.59-4.3 3.38a2.925 2.925 0 0 0-.54 4.09c.99 1.27 2.82 1.52 4.09.54l3.81-2.99.03.04h-.06v1.87l-4.97 3.91a2.914 2.914 0 0 0-.53 4.09 2.905 2.905 0 0 0 4.08.54l1.76-1.39c.06.57.13 1.16.2 1.76l-17.22 13.56 6.9 1.98 11.59-9.12c.87 3.93 2.44 7.99 4.04 12.08.95 2.02 1.93 4.02 2.93 5.99.25.49.49.99.76 1.46.28.47.56.93.84 1.39.57.93 1.13 1.83 1.69 2.72.56.89 1.1 1.76 1.67 2.59.61.81 1.21 1.59 1.79 2.34 1.19 1.5 2.24 2.94 3.36 4.13 4.33 4.84 11.45 10.82 19.49 15.05.99.52 2 1.04 3 1.56 1.03.44 2.06.87 3.08 1.3 1.02.41 2.02.81 3.03 1.21 1.01.35 2.03.64 3.02.94.99.29 1.96.56 2.91.81.93.27 1.9.39 2.81.56 1.83.3 3.51.59 5.08.64l3.77.1c.97.01 1.92.08 2.9.01l-.02.07 2.84 1.69c.9.51 1.79 1.1 2.73 1.55 5.47 3.02 14.05 5.46 22.9 6.33 8.85.93 17.86.24 24.11-1.05 6.25-1.27 14.89-3.99 22.75-8.42 7.87-4.36 14.93-10.32 18.45-15.81.69-1.12 1.4-2.19 2.02-3.3l1.4-2.62.04.04c.95-.59 1.88-1.21 2.84-1.82.9-.59 1.72-1.23 2.59-1.86 5.17-3.76 10.89-10.96 14.9-19.1 2-4.07 3.62-8.33 4.79-12.39 1.21-4.06 1.87-7.93 2.27-11.17.36-3.24.51-7.19.27-11.48-.27-4.29-.99-8.91-2.26-13.42-1.27-4.51-3.13-8.91-5.45-12.65-2.31-3.76-5.05-6.85-7.73-8.88-1.07-.82-2.21-1.57-3.31-2.29l-2.7-1.49-3.9 4.36c.47.95.96 1.83 1.36 2.77.32.85.67 1.64.93 2.49.82 2.47 1.64 5.4 2.29 8.59.65 3.19 1.1 6.69 1.29 10.24.2 3.54.18 7.13-.01 10.47-.21 3.35-.53 6.43-.81 9.01-.32 2.57-.64 5.68-1.22 9.04-.56 3.36-1.27 6.99-2.16 10.59-1.78 7.2-4.3 14.25-6.18 19.48-.38 1.04-.73 2.15-1.19 3.17-.33.75-.64 1.52-.99 2.27l.04.04-2.85 1.5-2.56 1.13c-5.01 2.13-11.94 4.86-19.1 7-7.16 2.19-14.53 3.64-19.74 4.7-5.22 1.09-12.61 2.49-20.16 3.33-7.54.89-15.22 1.26-20.89 1.77-1.16.17-2.29.17-3.45.26l-2.53.15v.05c-.96-.55-1.84-1.26-2.74-1.87l-2.33-1.67c-1.14-.83-2.36-1.82-3.69-2.74-.65-.49-1.37-.9-2.04-1.44-.68-.53-1.38-1.04-2.09-1.57-.72-.52-1.44-1.04-2.18-1.56-.71-.57-1.43-1.15-2.15-1.72-.73-.56-1.46-1.13-2.19-1.69-.7-.61-1.41-1.22-2.11-1.83-5.67-4.79-10.68-10.07-14.17-13.95-.9-.94-1.78-2.09-2.82-3.22-.52-.58-1.05-1.16-1.6-1.77-.53-.63-1.03-1.3-1.58-1.97-.54-.67-1.1-1.35-1.67-2.04-.29-.34-.58-.69-.87-1.04-.29-.35-.54-.73-.81-1.1-1.08-1.48-2.22-2.99-3.39-4.48-1.86-2.82-3.9-5.56-5.67-8.3l14.08 1.05 6.82-5.42-21.35-1.3 2.71-2.13a2.918 2.918 0 0 0-3.55-4.63l-4.65 3.66c-.1-.14-.2-.27-.3-.41-.19-.27-.4-.53-.6-.79l6.61-5.19c1.28-.98 1.52-2.81.54-4.08a2.916 2.916 0 0 0-4.09-.54l-5.99 4.7c.01-.64.01-1.29.06-1.94l7.13-5.61c1.28-.98 1.52-2.81.54-4.08a2.907 2.907 0 0 0-4.09-.54l-3.11 2.44c.02-.64.04-1.3.07-1.97l18.45-14.53-6.9-1.98-11.28 8.88c.1-2.31.22-4.67.4-7.02.5-7.6 1.56-15.01 2.42-20.25.77-5.26 2.02-12.62 3.87-19.97 1.8-7.36 4.22-14.68 5.7-20.21.3-1.11.56-2.27.93-3.36l.76-2.42-.04-.04c.88-.67 1.74-1.35 2.67-1.96l2.4-1.64c4.77-3.19 10.9-7.9 17.27-12.11 6.33-4.26 12.89-8.05 17.58-10.72 4.65-2.73 11.25-6.54 18.15-10.06 1.74-.84 3.47-1.71 5.18-2.6 1.1-.54 2.2-1.05 3.27-1.58l-2.84 11.91 4.16 7.65 5.12-20.52 1.49 2.76a2.91 2.91 0 0 0 3.93 1.23c1.43-.74 1.99-2.5 1.24-3.93l-2.39-4.44 1.32-.7 3.66 6.81c.75 1.43 2.5 1.98 3.93 1.24 1.43-.75 1.99-2.5 1.24-3.93l-3.12-5.8 1.47.27c.13.02.27.04.41.07l3.83 7.13c.74 1.43 2.5 1.99 3.93 1.24 1.43-.74 1.98-2.5 1.24-3.93l-1.55-2.88c.62.13 1.26.25 1.9.37l10.74 19.95 3.13-6.45-6.53-12.14c.3.05.59.1.9.16 1.86.39 3.74.8 5.62 1.15 7.5 1.58 14.82 3.61 20.02 5.1 5.22 1.42 12.56 3.43 19.88 5.89 7.33 2.41 14.63 5.23 20.2 6.85l3.34 1.06c.81.26 1.63.5 2.43.79l.04-.04 1.93 2.73c.56.81 1.13 1.57 1.65 2.4 3.22 4.81 8.05 10.97 12.49 17.26 4.47 6.27 8.51 12.68 11.28 17.27.76 1.11 1.45 2.42 2.31 3.74.87 1.33 1.67 2.79 2.57 4.29.93 1.48 1.76 3.09 2.68 4.7.23.41.46.81.69 1.21.22.4.39.76.59 1.14.37.76.8 1.48 1.16 2.28.9 1.94 1.73 3.99 2.51 6.04l-10.23-3.62-8.05 3.33 19.88 7.25-2.9 1.19c-1.5.59-2.23 2.27-1.64 3.78.59 1.5 2.28 2.23 3.79 1.64l3.53-1.44c.14.39.28.76.42 1.13.04.09.07.19.11.27l-5.99 2.44c-1.5.59-2.24 2.28-1.64 3.78.59 1.5 2.28 2.24 3.78 1.64l5.86-2.39v-.06h.16l-.15.06-.44 1.54-.1.3-7.26 2.96c-1.5.59-2.24 2.28-1.64 3.78.59 1.5 2.28 2.24 3.78 1.64l2.8-1.14c-.18.6-.36 1.22-.53 1.84l-20.77 8.5 6.09 3.79 12.77-5.22c-.74 2.83-1.5 5.78-2.27 8.72-1.02 3.84-2.03 7.63-2.96 11.12-1.02 3.5-1.81 6.75-2.57 9.44-1.33 5.36-3.2 12.91-5.12 20.68-.24.96-.47 1.92-.71 2.88l-.34 1.44-.38 1.41c-.5 1.87-.95 3.74-1.36 5.56-.44 1.79-.88 3.52-1.22 5.18-.18.83-.33 1.64-.47 2.42-.15.78-.31 1.52-.43 2.24l-.6 3.48-.45 2.54.05.03-2.45 2.31-2.15 2.02c-1.04 1-2.21 2.1-3.4 3.29-1.2 1.19-2.42 2.5-3.66 3.85-2.62 2.62-5.19 5.6-7.94 8.41-2.63 2.91-5.44 5.64-7.88 8.29-1.27 1.28-2.5 2.51-3.64 3.66-1.13 1.16-2.15 2.3-3.15 3.25-.97.97-2.02 2.07-3.13 3.26-.56.59-1.1 1.23-1.71 1.83-.61.61-1.22 1.24-1.86 1.88-1.26 1.27-2.52 2.67-3.87 4.02-1.36 1.33-2.74 2.7-4.1 4.11-1.33 1.44-2.8 2.72-4.16 4.08l-2.03 2.03-.99 1.01-1.01.95c-1.33 1.26-2.59 2.51-3.75 3.73l-1.67 1.79c-.55.56-1.07 1.13-1.56 1.67l-2.38 2.64c-.56.64-1.17 1.24-1.76 1.87l.03.05-3.29.69c-.96.21-1.93.4-2.9.56-5.74 1.1-13.42 3.31-21.04 5.45-7.72 2.17-15.22 4.28-20.56 5.78-5.37 1.58-12.85 3.98-20.43 6.3-7.57 2.35-15.24 4.58-20.65 6.85l-3.3 1.32-1.33.53-1.35-1.7-1.88-2.37c-3.73-4.7-9.7-10.48-15.89-15.94-6.19-5.47-12.58-10.67-17.3-14.14-2.35-1.74-5.24-3.75-8.43-5.84-3.16-2.12-6.62-4.33-10.13-6.47-3.47-2.18-7.05-4.23-10.39-6.08-3.33-1.86-6.53-3.42-9.28-4.58l-3.32-1.41-2.41-1.02-.04.04-1.87-2.86-1.6-2.56c-3.19-5.06-8.39-11.39-13.68-17.61-1.32-1.56-2.68-3.07-3.99-4.58a231.3 231.3 0 0 0-3.87-4.39c-2.56-2.77-4.86-5.37-6.89-7.43-4.04-4.13-9.89-9.77-15.94-15.25-2.92-2.67-5.9-5.31-8.75-7.69l13.31-3.76 4.56-7.42-20.5 6.09 1.82-2.93c.86-1.36.46-3.16-.9-4.03a2.913 2.913 0 0 0-4.02.9l-2.84 4.6-1.24-.83 4.15-6.7c.87-1.36.47-3.16-.9-4.02a2.901 2.901 0 0 0-4.02.89l-3.67 5.92-.69-1.73 4.5-7.27c.87-1.36.47-3.16-.89-4.02a2.895 2.895 0 0 0-4.02.9l-2.34 3.77c-.24-.53-.5-1.07-.76-1.63l12.76-20.62-7.16.5-8.69 14.05c-1.48-2.77-3.12-5.62-4.75-8.47-4.15-7.08-8.48-14.02-11.77-18.82-3.32-4.79-8.25-11.33-13.43-17.71-3.67-4.52-7.46-8.96-10.96-12.59 5.98 1.39 13.45 2.27 21.04 2.28 9.76.07 19.59-1.43 26.37-3.19 6.79-1.77 16.07-5.26 24.55-9.96 2.12-1.19 4.19-2.44 6.2-3.67 1.98-1.3 3.89-2.61 5.7-3.89 1.78-1.33 3.44-2.67 4.96-3.94.77-.61 1.5-1.31 2.18-1.98.68-.67 1.33-1.32 1.92-1.94.96-1.02 1.93-2 2.84-3.04l1.9-2.33-.04-.05 3.66-1.44c1.1-.41 2.09-.98 3.16-1.47 1.54-.78 3.28-1.64 5.02-2.76 1.7-1.16 3.49-2.45 5.34-3.86 1.78-1.47 3.52-3.14 5.33-4.85l.67-.64.62-.7 1.25-1.41 2.49-2.88c.43-.48.81-.99 1.17-1.52l1.11-1.56c.73-1.05 1.46-2.1 2.19-3.13 1.35-2.13 2.51-4.34 3.68-6.45 1.07-2.15 1.94-4.3 2.81-6.3.45-.99.73-2.02 1.05-2.98.3-.97.59-1.9.86-2.79.24-.89.58-1.82.76-2.81.19-1 .39-2.04.6-3.1.19-1.07.39-2.18.59-3.32.13-1.14.22-2.33.33-3.52.09-1.2.18-2.42.27-3.66.03-1.24 0-2.5-.03-3.76-.03-1.27-.05-2.54-.11-3.82-.15-1.27-.29-2.54-.44-3.82-.17-1.27-.28-2.53-.53-3.78-.27-1.23-.55-2.46-.81-3.68l-.42-1.8c-.14-.6-.29-1.19-.49-1.76-.38-1.16-.76-2.28-1.15-3.37-.12-.33-.24-.67-.36-.99l14.69-.51 6.19-6.13-21.37 1.03 2.47-2.42a2.93 2.93 0 0 0 .09-4.13 2.919 2.919 0 0 0-4.12-.09l-2.7 2.64-.33-.48-.53-.77 4.31-4.22c1.16-1.11 1.2-2.96.09-4.12a2.92 2.92 0 0 0-4.12-.1l-3.75 3.67c-.08-.1-.16-.19-.24-.29l-.05.02-.23-1.32 5.15-5.05c1.16-1.11 1.2-2.96.09-4.12a2.91 2.91 0 0 0-4.12-.09l-2.52 2.47c-.13-.55-.28-1.1-.44-1.67l16.74-16.44-7.08-1.22-11.9 11.68c-2.21-5-5.39-10.37-9.2-15.31-6.07-7.96-13.65-14.71-19.48-18.77-5.88-3.96-14.62-8.91-23.95-11.93-2.27-.89-4.65-1.47-6.95-2.1-2.31-.59-4.53-1.26-6.76-1.58-4.42-.74-8.45-1.36-11.89-1.27h-4.1l-2.9.01-.38-.5c-.33-.41-.64-.83-.96-1.23-.33-.39-.67-.74-.99-1.1-.66-.7-1.36-1.44-2.1-2.19-.78-.7-1.59-1.42-2.45-2.15-.83-.76-1.79-1.41-2.74-2.11-.48-.34-.97-.69-1.46-1.04-.51-.32-1.03-.63-1.56-.96-4.17-2.56-8.99-4.63-13.91-5.93-4.44-1.19-8.93-1.71-13.11-1.73l3.92-14.99-4.1-7.69-5.13 20.77-1.62-3.06c-.73-1.43-2.49-2-3.92-1.27-1.44.73-2 2.49-1.27 3.93l1.79 3.39c-.51.12-1.01.25-1.49.39l-2.8-5.31a2.918 2.918 0 0 0-5.2 2.65l2.44 4.64-1.27.51-.12.06-3.64-6.9c-.73-1.43-2.49-2-3.92-1.27a2.91 2.91 0 0 0-1.27 3.93l2.38 4.51c-.57-.02-1.13-.03-1.7 0L1068.3 4.65l-3.19 6.43 8.62 16.33c-1.79.3-3.66.72-5.58 1.24-4.3 1.19-8.8 3.02-13.06 5.28-8.56 4.51-16.08 10.74-20.7 15.77-4.7 4.95-10.26 12.68-14.54 20.85-4.32 8.16-7.45 16.66-8.77 22.94l-.79 3.79-.54 2.76.34.39-.38-.19.04-.2-.35-.41c-4.56-5.27-14.54-10.61-20.38-12.64-1.46-.5-3.25-1-5.23-1.45-.99-.22-2.02-.43-3.07-.62-.53-.09-1.06-.18-1.61-.27-.3-.05-.59-.1-.9-.15-.24-.04-.47-.07-.7-.1l6.05-15.42-3.88-6.03-8.3 21.14c-.57.02-1.13.07-1.67.13l.97-2.47a2.918 2.918 0 0 0-5.46-2.06l-2.53 6.45c-.4.19-.8.38-1.19.58-.27.13-.53.27-.8.42l2.15-5.48c.57-1.51-.19-3.19-1.7-3.76-1.5-.56-3.19.19-3.76 1.7l-2.21 5.64c-.46-.16-.93-.3-1.44-.43l1.33-3.4c.57-1.51-.19-3.19-1.69-3.76-1.51-.57-3.19.19-3.76 1.7l-1.27 3.22-7.4-20.07-3.22 8.09 5.28 13.73c-.07 0-.16.02-.23.03-.62.07-1.32.21-1.87.29-.54.1-1.07.19-1.6.27-1.06.19-2.1.4-3.08.62-1.97.44-3.77.94-5.23 1.44-5.84 2.04-15.82 7.37-20.38 12.64l-.44.5.03.13-.26.13.23-.27-.67-3.44-.66-3.16c-1.32-6.27-4.45-14.77-8.77-22.94-4.28-8.17-9.83-15.9-14.54-20.85-4.62-5.02-12.14-11.25-20.7-15.77-4.26-2.27-8.76-4.1-13.06-5.28-1.63-.45-3.24-.82-4.78-1.1l8.7-16.47-3.19-6.43-11.73 22.19h-.75c-.31 0-.62-.01-.94-.01l2.37-4.49c.73-1.44.17-3.19-1.27-3.93a2.933 2.933 0 0 0-3.93 1.27l-3.81 7.22c-.37-.18-.74-.36-1.13-.51l-.24-.1 2.59-4.93a2.91 2.91 0 0 0-1.27-3.92 2.91 2.91 0 0 0-3.92 1.27l-2.92 5.53c-.47-.15-.96-.28-1.47-.41l1.9-3.59a2.916 2.916 0 1 0-5.19-2.66l-1.62 3.06-5.13-20.77-4.1 7.69 3.92 15c-4.42-.06-9.23.46-13.99 1.73-4.92 1.3-9.73 3.37-13.91 5.93-.53.33-1.04.64-1.56.96-.49.35-.98.7-1.46 1.04-.95.7-1.9 1.35-2.74 2.1-.85.73-1.67 1.46-2.45 2.16-.74.76-1.44 1.49-2.09 2.19-.33.36-.67.71-1 1.1-.31.4-.63.81-.96 1.23-.13.16-.25.33-.38.5h-3.58l-3.42-.01c-3.44-.09-7.47.53-11.89 1.27-2.22.32-4.45.99-6.76 1.58-2.3.63-4.67 1.22-6.95 2.1-9.33 3.02-18.06 7.96-23.94 11.93-5.84 4.06-13.42 10.81-19.49 18.77-3.96 5.13-7.23 10.72-9.45 15.88l-12.48-12.25L668.3 82l17.39 17.07c-.16.58-.3 1.15-.42 1.7l-3.19-3.13c-1.16-1.12-3.01-1.07-4.13.09a2.91 2.91 0 0 0 .1 4.12l5.85 5.73-.11.63-.05-.02-.6.74-4.21-4.13a2.922 2.922 0 0 0-4.13.1 2.91 2.91 0 0 0 .1 4.12l4.8 4.7-.19.28c-.21.32-.44.64-.66.98l-3.19-3.13a2.931 2.931 0 0 0-4.13.09 2.922 2.922 0 0 0 .1 4.13l2.47 2.42-21.37-1.04 6.19 6.13 15.51.54c-.11.32-.22.64-.34.96-.39 1.1-.76 2.22-1.14 3.38-.21.57-.36 1.16-.49 1.76-.14.6-.28 1.2-.43 1.8-.27 1.22-.54 2.45-.81 3.68-.25 1.24-.36 2.51-.53 3.78-.14 1.27-.29 2.55-.44 3.82-.06 1.27-.08 2.55-.11 3.82-.01 1.27-.05 2.52-.03 3.76.09 1.24.19 2.46.27 3.65.1 1.2.19 2.38.32 3.53.21 1.13.4 2.24.59 3.31.21 1.07.41 2.11.6 3.1.19 1 .52 1.92.76 2.82.27.88.56 1.82.86 2.79.32.96.6 1.98 1.05 2.98.87 2 1.73 4.15 2.81 6.3 1.17 2.1 2.33 4.31 3.68 6.45.73 1.03 1.45 2.07 2.19 3.13l1.11 1.56c.37.53.74 1.04 1.17 1.52l2.49 2.88 1.25 1.41.62.7c.22.22.45.43.67.64 1.82 1.7 3.56 3.38 5.33 4.85 1.85 1.41 3.64 2.7 5.34 3.86 1.74 1.12 3.48 1.99 5.02 2.76 1.27.61 2.48 1.25 3.8 1.73l3.02 1.19-.04.05c.78.94 1.54 1.93 2.36 2.85l2.38 2.52c.59.62 1.24 1.27 1.92 1.94.68.67 1.42 1.36 2.18 1.98 1.53 1.27 3.19 2.61 4.96 3.94 1.81 1.28 3.72 2.59 5.7 3.89 2.02 1.23 4.08 2.48 6.2 3.67 8.49 4.7 17.76 8.19 24.55 9.96 6.79 1.76 16.62 3.26 26.37 3.19 7.59-.01 15.05-.9 21.03-2.28-3.49 3.62-7.28 8.07-10.95 12.58-5.19 6.38-10.11 12.93-13.42 17.71-3.3 4.8-7.63 11.75-11.77 18.82-1.96 3.42-3.93 6.83-5.62 10.11l-8.66-13.99-7.16-.5 12.77 20.65c-.26.57-.51 1.13-.74 1.67l-2.38-3.84a2.916 2.916 0 0 0-4.02-.9 2.916 2.916 0 0 0-.9 4.02l4.6 7.42-.49 1.24-.04-.04-.33.23-3.57-5.77a2.915 2.915 0 0 0-4.03-.89 2.903 2.903 0 0 0-.89 4.02l3.64 5.88c-.4.27-.81.56-1.23.85l-2.36-3.81a2.916 2.916 0 0 0-4.02-.9 2.926 2.926 0 0 0-.9 4.03l1.82 2.93-20.5-6.09 4.55 7.42 12.43 3.51c-2.33 1.98-4.7 4.1-7.05 6.24-6.05 5.48-11.88 11.13-15.94 15.25-2.03 2.05-4.33 4.66-6.89 7.43a231.3 231.3 0 0 0-3.87 4.39c-1.31 1.5-2.67 3.02-3.99 4.57-5.28 6.22-10.5 12.56-13.68 17.62l-1.93 3.06-1.58 2.31-2.96 1.25-2.77 1.18c-2.75 1.16-5.95 2.72-9.28 4.58-3.34 1.85-6.91 3.9-10.39 6.08a295.17 295.17 0 0 0-10.13 6.47c-3.19 2.09-6.08 4.1-8.43 5.84-4.72 3.47-11.11 8.66-17.3 14.13-6.19 5.47-12.15 11.25-15.89 15.95l-2.26 2.84-.97 1.22-1.87-.75-2.74-1.1c-5.42-2.27-13.08-4.5-20.65-6.85-7.57-2.33-15.05-4.73-20.42-6.3-5.33-1.5-12.84-3.61-20.57-5.78-7.62-2.14-15.3-4.35-21.04-5.45-1.17-.19-2.32-.44-3.47-.68l-2.72-.57.03-.05c-.73-.76-1.45-1.51-2.16-2.31l-1.97-2.2c-.49-.54-1.01-1.1-1.56-1.67-.55-.59-1.1-1.19-1.67-1.79-1.16-1.22-2.42-2.47-3.75-3.73l-1.01-.95-.99-1.01-2.03-2.03c-1.36-1.36-2.83-2.64-4.16-4.08-1.36-1.41-2.74-2.78-4.1-4.1-1.35-1.36-2.6-2.76-3.87-4.03-.64-.64-1.25-1.27-1.86-1.88-.61-.6-1.15-1.24-1.71-1.83-1.1-1.19-2.16-2.29-3.13-3.26-1-.95-2.01-2.09-3.15-3.25-1.14-1.15-2.36-2.38-3.64-3.66-2.44-2.65-5.25-5.38-7.87-8.29-2.76-2.81-5.33-5.79-7.94-8.41-1.25-1.36-2.47-2.66-3.66-3.85-1.2-1.19-2.36-2.28-3.41-3.29l-2.58-2.42-2.02-1.9.05-.03-.55-3.12-.5-2.9c-.12-.72-.28-1.46-.42-2.24-.14-.79-.3-1.59-.47-2.42-.34-1.65-.78-3.39-1.22-5.18-.41-1.82-.86-3.67-1.36-5.56l-.38-1.41-.33-1.44c-.24-.96-.48-1.92-.72-2.87-1.92-7.78-3.79-15.33-5.12-20.69-.76-2.69-1.55-5.94-2.57-9.44-.93-3.49-1.93-7.28-2.95-11.11-.81-3.08-1.6-6.18-2.38-9.13l13.75 5.62 6.08-3.79-21.75-8.9c-.18-.64-.36-1.25-.55-1.85l3.79 1.55c1.5.59 3.19-.15 3.78-1.64a2.91 2.91 0 0 0-1.64-3.78l-8.25-3.37c-.15-.5-.29-.99-.43-1.49h.07l.08-.24 6.6 2.7c1.5.59 3.19-.14 3.78-1.64.59-1.5-.15-3.19-1.64-3.78l-6.74-2.75c.17-.45.35-.93.52-1.41l4.29 1.76c1.5.59 3.19-.15 3.78-1.64a2.91 2.91 0 0 0-1.64-3.78l-2.9-1.19 19.87-7.25-8.05-3.33-11.24 3.97c.82-2.17 1.7-4.34 2.64-6.39.36-.8.79-1.53 1.16-2.28.2-.39.36-.74.59-1.14.23-.41.46-.81.69-1.21.92-1.61 1.75-3.22 2.68-4.7.9-1.5 1.7-2.96 2.58-4.29.85-1.33 1.54-2.63 2.3-3.74 2.77-4.59 6.81-11 11.29-17.27 4.44-6.29 9.26-12.45 12.48-17.26.63-.99 1.32-1.91 1.99-2.88l1.59-2.25.04.04c.99-.34 2-.64 2.99-.96l2.79-.88c5.56-1.62 12.86-4.45 20.2-6.85 7.33-2.46 14.67-4.47 19.88-5.89 5.2-1.49 12.51-3.52 20.02-5.1 1.88-.35 3.76-.76 5.62-1.15.62-.1 1.24-.21 1.87-.33l-6.63 12.32 3.14 6.45 10.84-20.13c.47-.1.93-.19 1.39-.28.18-.04.35-.07.53-.1l-1.65 3.07a2.904 2.904 0 0 0 1.24 3.93c1.43.75 3.19.19 3.93-1.24l3.93-7.3 1.86-.33-3.21 5.97a2.913 2.913 0 0 0 1.24 3.93c1.42.74 3.19.19 3.93-1.24l3.47-6.45.78.41c.19.09.36.19.55.28l-2.2 4.09a2.916 2.916 0 0 0 1.24 3.93c1.43.75 3.19.19 3.93-1.23l1.49-2.76 5.11 20.52 4.16-7.65-2.73-11.44c.76.36 1.52.73 2.28 1.1 1.7.89 3.44 1.76 5.18 2.6 6.9 3.52 13.5 7.33 18.15 10.06 4.69 2.67 11.25 6.46 17.58 10.72 6.37 4.21 12.5 8.91 17.27 12.11l2.88 1.97c.77.51 1.45 1.08 2.19 1.63l-.04.04.93 2.96c.28.93.5 1.88.76 2.81 1.48 5.53 3.91 12.85 5.7 20.21 1.86 7.34 3.1 14.71 3.87 19.97.85 5.24 1.91 12.65 2.42 20.25.16 2.11.27 4.22.36 6.3l-10.36-8.16-6.9 1.98 17.54 13.82c.02.67.04 1.33.07 1.98l-2.22-1.74c-1.27-.99-3.1-.74-4.08.54-.99 1.27-.74 3.1.54 4.08l6.21 4.88.06.91.02 1.06-5.1-4.01c-1.27-.98-3.1-.74-4.08.54-.99 1.27-.74 3.1.53 4.08l6.07 4.77c-.31.4-.61.8-.91 1.19l-4.1-3.23c-1.27-.98-3.1-.74-4.08.54-.99 1.27-.74 3.1.53 4.09l2.71 2.13-21.34 1.3 6.82 5.42 13.17-.99c-1.76 2.72-3.79 5.45-5.64 8.24-1.16 1.5-2.3 3-3.39 4.48-.27.37-.53.76-.81 1.1-.29.35-.58.7-.87 1.04-.56.69-1.13 1.37-1.67 2.04-.54.67-1.07 1.33-1.58 1.96-.55.61-1.08 1.2-1.6 1.77-1.04 1.14-1.92 2.29-2.82 3.23-3.48 3.88-8.5 9.16-14.16 13.95-.7.61-1.41 1.22-2.11 1.83-.73.56-1.46 1.13-2.19 1.69-.72.57-1.44 1.15-2.15 1.72-.73.53-1.46 1.04-2.18 1.56-.71.53-1.41 1.04-2.09 1.57-.67.54-1.38.96-2.04 1.44-1.33.92-2.55 1.9-3.69 2.74l-2.81 2.02c-.74.51-1.47 1.08-2.25 1.53v-.06l-3.12-.18c-.96-.07-1.9-.07-2.87-.22-5.67-.51-13.36-.88-20.9-1.77-7.54-.84-14.94-2.24-20.16-3.33-5.22-1.05-12.59-2.5-19.74-4.7-7.16-2.14-14.1-4.87-19.11-7-1-.45-2.05-.87-3.05-1.39l-2.36-1.24.04-.04c-.42-.93-.81-1.87-1.2-2.79-.37-.87-.65-1.79-.98-2.65-1.87-5.22-4.4-12.28-6.18-19.48-.88-3.61-1.6-7.23-2.16-10.59-.59-3.36-.9-6.47-1.22-9.05-.29-2.58-.61-5.66-.81-9.01-.19-3.34-.21-6.93-.01-10.47.19-3.55.64-7.05 1.29-10.24.65-3.19 1.47-6.12 2.29-8.59.33-1 .73-1.98 1.15-2.99l1.14-2.28-3.9-4.36c-1.06.59-2.2 1.16-3.25 1.84-.9.62-1.87 1.24-2.76 1.93-2.69 2.03-5.42 5.12-7.73 8.87-2.32 3.76-4.17 8.15-5.44 12.65-1.27 4.51-2 9.13-2.26 13.42-.25 4.28-.1 8.24.26 11.48.4 3.24 1.07 7.11 2.27 11.17 1.17 4.06 2.79 8.33 4.79 12.39 4.01 8.13 9.73 15.34 14.9 19.09 1.04.76 2.04 1.53 3.13 2.22.77.5 1.53 1 2.3 1.47l.04-.04 1.7 3.17 1.71 2.75c3.52 5.49 10.58 11.45 18.45 15.8 7.86 4.43 16.51 7.16 22.75 8.42 6.25 1.29 15.25 1.98 24.11 1.05 8.85-.87 17.43-3.32 22.9-6.33 1.12-.55 2.19-1.25 3.27-1.87l2.3-1.38v-.05c1.16.07 2.31-.02 3.5-.04l3.15-.09c1.57-.06 3.25-.35 5.08-.64.9-.17 1.87-.3 2.81-.56.95-.25 1.92-.53 2.91-.81.99-.3 2.01-.59 3.02-.94 1.01-.4 2.02-.8 3.03-1.21 1.03-.43 2.05-.87 3.08-1.3 1-.52 2.01-1.04 3-1.56 8.04-4.22 15.16-10.21 19.49-15.05 1.12-1.19 2.17-2.63 3.36-4.12.58-.76 1.17-1.54 1.79-2.35.57-.83 1.1-1.7 1.67-2.59.55-.89 1.11-1.79 1.68-2.72.28-.46.56-.93.84-1.39.27-.47.51-.97.76-1.46.99-1.96 1.98-3.97 2.93-5.99 1.62-4.13 3.21-8.25 4.07-12.22.04-.15.07-.29.1-.44l12.32 9.7 6.9-1.98-18-14.18c.07-.61.13-1.2.18-1.77l2.56 2.02c1.28.98 3.11.74 4.09-.54s.74-3.11-.54-4.09l-5.85-4.59v-1.18h-.05c.1-.19.21-.35.32-.51l4.39 3.44c1.27.98 3.1.73 4.08-.54.99-1.28.74-3.11-.54-4.09l-4.89-3.85.07-.12c.22-.39.44-.79.67-1.22l2.96 2.33c1.27.99 3.1.74 4.08-.53.99-1.28.74-3.11-.53-4.09l-2.46-1.94 21.09-1.5-6.82-5.42-14.25.87c1.03-3.45 1.87-7.2 2.42-11.03.16-1.1.3-2.2.45-3.3.1-1.1.18-2.19.26-3.29.07-1.09.16-2.18.19-3.24v-3.16c-.01-1.04 0-2.07-.05-3.05-.07-1-.14-1.96-.21-2.9-.07-.93-.14-1.84-.23-2.71-.13-.87-.25-1.7-.37-2.49-.26-1.58-.53-3.33-1.01-5.15-.46-1.82-.88-3.79-1.56-5.76-.64-1.98-1.3-4.04-2.16-6.06-.42-1.01-.84-2.04-1.27-3.07-.45-1.01-.96-2.01-1.44-3.01-.5-.99-.98-1.99-1.52-2.96-.56-.95-1.11-1.9-1.67-2.84-1.07-1.88-2.33-3.62-3.51-5.27-1.15-1.67-2.47-3.14-3.66-4.52-1.19-1.39-2.45-2.56-3.62-3.59-.95-.82-1.84-1.67-2.84-2.43l-2.1-1.67-.04.03c-.37-1.11-.73-2.23-1.19-3.3l-1.15-2.9c-2.33-5.74-7.28-13.1-13.45-19.45-6.11-6.4-13.34-11.71-18.82-14.85-5.45-3.19-13.62-6.76-22.08-8.97-2.13-.51-4.25-1-6.33-1.44-2.11-.38-4.22-.67-6.22-.92-.1-.01-.19-.03-.28-.04l7.77-14.44-3.14-6.45-11.07 20.57c-.58 0-1.14-.01-1.7.02h-.03l1.61-2.99c.75-1.43.19-3.19-1.24-3.93a2.907 2.907 0 0 0-3.93 1.24l-3.45 6.42c-.59.08-1.16.18-1.74.27v.06l-.1-.04 2.7-5.04c.74-1.43.19-3.19-1.24-3.93a2.913 2.913 0 0 0-3.93 1.24l-2.93 5.45c-.2-.07-.4-.15-.6-.23-.27-.1-.53-.2-.81-.3l1.84-3.41c.74-1.42.19-3.19-1.24-3.93a2.91 2.91 0 0 0-3.93 1.23l-1.64 3.05-4.96-20.81-4.16 7.65 3.43 13.59c-1.7-.24-3.45-.44-5.25-.62-2.14-.16-4.33-.22-6.54-.28-8.82-.08-17.66 1.35-23.72 3.07-6.08 1.66-14.36 4.96-21.88 9.47-7.55 4.45-14.28 10.03-18.2 14.76l-2.32 2.91c-.55.7-1.1 1.38-1.63 2.1l.03.04-3.25 1.24c-.96.38-1.95.72-2.89 1.14-5.7 2.32-13 7.13-19.48 13.06-6.52 5.88-12.11 12.89-15.41 18.32-.88 1.32-1.67 2.89-2.57 4.53-.91 1.63-1.73 3.46-2.56 5.35-.88 1.87-1.61 3.91-2.36 5.97-.19.51-.37 1.03-.56 1.55-.19.53-.35 1.15-.51 1.72-.33 1.16-.69 2.33-.93 3.48-.92 4.29-1.33 8.48-1.36 12.35l-14.74-6.02-6.08 3.8 21.1 8.63c.06.59.13 1.16.2 1.71l-2.63-1.07c-1.5-.59-3.19.15-3.78 1.64-.59 1.5.15 3.19 1.64 3.78l6.19 2.53c.03.11.06.21.09.33l.4 1.49-4.74-1.93c-1.5-.59-3.19.14-3.79 1.64-.59 1.5.15 3.19 1.64 3.79l5.79 2.36-.41 1.44-3.61-1.47a2.91 2.91 0 0 0-3.78 1.64c-.59 1.5.14 3.19 1.64 3.79l3.2 1.3-20.17 7.13 8.05 3.33 12.86-4.74c-.32 3.87-.4 8.06-.22 12.24.13 2.14.22 4.3.44 6.41.23 2.1.48 4.16.75 6.14.65 3.94 1.3 7.59 2.12 10.54 1.47 5.96 4.46 14.09 8.28 21.77.48.96.97 1.9 1.45 2.86l.74 1.41.79 1.38c1.07 1.82 2.13 3.57 3.19 5.24l.06.09a58.122 58.122 0 0 0-6.23-2.79c-2.46-.87-5.02-1.64-7.76-2.07-.67-.14-1.39-.2-2.08-.28l-1.04-.11-.53-.05h-.46c-1.23-.05-2.44-.09-3.63-.12-1.19-.06-2.35.04-3.48.1-1.13.07-2.24.13-3.3.24-2.1.32-4.1.56-5.85.98-7.05 1.53-16.45 5.37-24.31 11.02-.97.7-1.94 1.41-2.92 2.13-.91.76-1.83 1.51-2.73 2.27-.91.73-1.76 1.53-2.59 2.32-.67.64-1.33 1.27-1.97 1.91l-7.1-15.91-7.02-1.46 9.89 22.17c-.37.45-.72.9-1.05 1.36l-1.75-3.92a2.915 2.915 0 0 0-3.87-1.43c-1.47.68-2.1 2.41-1.42 3.87l3.27 7.32c-.2.36-.4.7-.59 1.07l-.3.57-2.64-5.89a2.91 2.91 0 0 0-3.87-1.42c-1.47.67-2.1 2.41-1.42 3.87l3.43 7.68c-.41.27-.84.55-1.27.84l-2.5-5.6a2.914 2.914 0 0 0-3.87-1.42 2.91 2.91 0 0 0-1.42 3.87l1.41 3.16-19.5-8.79 3.51 7.97 15.33 6.65c-3.85 3.82-7.74 8.72-10.97 14.09-2.51 4.06-4.59 8.39-6.31 12.5-.79 2.07-1.58 4.07-2.18 6-.58 1.93-1.17 3.73-1.53 5.4-1.61 6.65-2.82 16.34-1.95 25.92.11 1.2.19 2.39.35 3.58.18 1.19.36 2.37.53 3.55.24 1.15.47 2.29.71 3.43.24 1.12.57 2.21.87 3.27 1.24 4.26 2.79 8.02 4.5 10.91.64 1.18 1.36 2.32 2.09 3.44.51.81 1.02 1.62 1.59 2.41l.06-.02c.1 1.24.15 2.52.33 3.76.14 1.1.27 2.23.43 3.35.53 3.3 1.62 7.25 3.36 11.38 1.76 4.1 4.18 8.39 7.11 12.37 1.44 2.02 3.07 3.87 4.69 5.71 1.68 1.75 3.36 3.48 5.1 4.97 1.7 1.56 3.48 2.87 5.13 4.13 1.69 1.19 3.29 2.28 4.79 3.19 1.53.86 3.18 1.86 5.04 2.72.92.44 1.87.91 2.86 1.35.99.41 2.02.83 3.06 1.26 4.2 1.62 8.79 3.07 13.46 4.01 4.35.93 8.72 1.47 12.8 1.69l-6.74 13.51 3.33 6.35 9.89-19.8c.59-.02 1.17-.05 1.73-.09l-.99 1.97c-.7 1.45-.1 3.19 1.36 3.89 1.45.7 3.19.1 3.9-1.36l2.71-5.44c.36-.06.7-.13 1.05-.19l.79-.15-2.01 4.03a2.916 2.916 0 1 0 5.25 2.54l2.76-5.54c.47.17.95.33 1.42.5l-1.73 3.45c-.7 1.45-.1 3.19 1.36 3.9 1.45.7 3.19.09 3.89-1.36l1.55-3.1 5.59 20.65 3.93-7.78-3.71-12.99c4.52.81 9.54 1.36 14.6 1.57 9.16.47 18.44-.24 24.98-1.33 3.27-.59 7.17-1.4 11.37-2.67 4.22-1.2 8.62-2.86 12.88-4.73 4.27-1.87 8.36-4.07 11.99-6.29 3.62-2.25 6.77-4.56 9.2-6.72l2.91-2.63 2.05-1.93-.03-.05c1.21-.24 2.42-.5 3.61-.79l3.18-.74c6.3-1.5 14.66-5.04 22.63-9.22 1.98-1.05 3.95-2.13 5.86-3.21 1.89-1.07 3.73-2.16 5.48-3.21 3.51-2.12 6.71-4.14 9.31-5.9 10.41-7.08 28.26-21.32 36.43-31.09l2.47-2.95 1.09-1.3 2.53.76 3.31 1c1.64.5 3.48.97 5.47 1.43.5.1 1 .23 1.51.33.51.08 1.04.16 1.56.24 1.07.15 2.16.3 3.25.44 4.45.53 9.31 1.14 14.16 1.08 9.74.32 19.49-.7 26.36-1.72 3.41-.66 7.49-1.56 11.88-2.64 2.21-.49 4.43-1.24 6.7-1.98 2.27-.74 4.56-1.51 6.85-2.31 1.13-.41 2.27-.81 3.41-1.22 1.13-.42 2.22-.93 3.3-1.4 2.18-.96 4.29-1.93 6.3-2.89.53-.25 1.05-.5 1.56-.76l-.41 15.5 5.71 4.36.62-23.07c.53-.33 1.04-.66 1.53-.99l-.09 3.49a2.928 2.928 0 0 0 2.87 2.96c1.61.02 2.93-1.27 2.96-2.87l.2-7.69 1.3-.91-.02-.06.24-.02-.16 6.02a2.928 2.928 0 0 0 2.87 2.96c1.61.02 2.93-1.27 2.96-2.87l.18-6.74c.41-.05.81-.12 1.22-.17.1-.01.19-.03.29-.04l-.12 4.3a2.928 2.928 0 0 0 2.87 2.96c1.61.02 2.93-1.27 2.96-2.87l.08-3.13 13.81 16.02.27-8.7-9.15-10.83.7-.18c2.19-.52 4.36-1.27 6.59-2.04 2.23-.78 4.49-1.6 6.74-2.44 2.24-.87 4.52-1.7 6.69-2.64 2.15-.98 4.25-1.97 6.26-2.94 2.02-.97 3.94-1.93 5.75-2.84.9-.47 1.76-.92 2.6-1.35.84-.43 1.62-.87 2.35-1.33 2.93-1.79 6.4-4.02 10.1-6.53 1.84-1.27 3.78-2.53 5.65-3.98 1.87-1.44 3.75-2.94 5.61-4.45 1.86-1.51 3.7-3.04 5.48-4.57 1.78-1.53 3.53-3.03 5.07-4.63 3.15-3.13 5.93-6.13 8.06-8.78l2.58-3.2c.61-.78 1.24-1.51 1.83-2.33l-.04-.05 3.54-1.56 3.13-1.39c3.11-1.38 6.72-3.29 10.56-5.52.97-.54 1.92-1.15 2.87-1.79.96-.64 1.91-1.28 2.88-1.93 1.93-1.32 3.89-2.69 5.82-4.08 3.87-2.81 7.74-5.59 11.13-8.59 1.71-1.47 3.34-2.89 4.85-4.25.76-.69 1.49-1.35 2.19-1.99.7-.64 1.32-1.3 1.93-1.92 2.39-2.49 5.22-5.55 8.16-8.95 2.81-3.51 5.8-7.32 8.61-11.24 2.69-4.02 5.35-8.02 7.54-11.9.46-.84.9-1.67 1.32-2.47l8.85 13.89 7.16.41-13-20.43c.26-.57.5-1.13.72-1.67l2.49 3.9a2.909 2.909 0 0 0 4.04.84c1.35-.88 1.72-2.69.84-4.04l-4.8-7.53.12-.32-.05-.04.96-.81 3.58 5.62a2.929 2.929 0 0 0 4.04.84c1.35-.88 1.73-2.69.84-4.04l-3.98-6.24c.05-.04.1-.08.15-.13.32-.29.65-.59.98-.9l2.66 4.19a2.909 2.909 0 0 0 4.04.84c1.35-.88 1.72-2.69.84-4.03l-1.69-2.64 20.42 5.56-4.65-7.36-14.34-4.06s.07-.07.1-.11c1.43-1.69 2.89-3.47 4.35-5.31 1.47-1.84 2.95-3.72 4.32-5.67 2.79-3.87 5.53-7.82 7.85-11.59 1.18-1.87 2.29-3.69 3.32-5.41 1.01-1.73 1.91-3.36 2.72-4.85 1.62-2.99 3.44-6.63 5.27-10.63 1.85-4 3.71-8.35 5.46-12.73 2.07-5.18 3.97-10.39 5.48-15.15 1.51 4.76 3.42 9.97 5.48 15.15 1.76 4.38 3.61 8.73 5.47 12.72 1.82 4.01 3.65 7.65 5.26 10.63.81 1.5 1.71 3.13 2.73 4.85 1.02 1.72 2.14 3.53 3.32 5.41 2.32 3.77 5.07 7.7 7.85 11.59 1.37 1.95 2.86 3.84 4.32 5.67 1.47 1.84 2.93 3.62 4.36 5.3.1.12.21.24.33.36l-13.47 3.82-4.65 7.36 20.41-5.56-1.69 2.64c-.88 1.34-.5 3.15.84 4.03 1.35.89 3.15.51 4.04-.84l2.25-3.53c.1.08.19.16.27.24.28.26.57.51.86.76l-3.58 5.61c-.88 1.35-.5 3.16.84 4.04 1.35.88 3.16.5 4.04-.84l3.19-5.02.24.21-.05.04.53 1.42-4.1 6.43c-.88 1.35-.5 3.16.84 4.04 1.35.88 3.16.5 4.04-.84l1.82-2.85c.23.53.47 1.08.73 1.64l-12.36 19.42 7.16-.41 8.25-12.95c.27.5.54 1.01.82 1.53 2.19 3.87 4.85 7.88 7.54 11.9 2.81 3.92 5.8 7.73 8.61 11.24 2.94 3.4 5.76 6.46 8.16 8.95.61.61 1.22 1.28 1.92 1.92a278.857 278.857 0 0 0 7.05 6.23c3.38 3.01 7.25 5.79 11.12 8.59 1.94 1.39 3.9 2.76 5.83 4.08.96.64 1.93 1.29 2.88 1.93.95.64 1.89 1.24 2.86 1.79 3.84 2.23 7.45 4.14 10.56 5.52l3.76 1.66 2.92 1.28-.04.05c.72.99 1.5 1.9 2.25 2.86l2.15 2.67c2.13 2.65 4.92 5.65 8.07 8.78 1.55 1.6 3.29 3.1 5.07 4.62a288.293 288.293 0 0 0 11.08 9.03c1.87 1.44 3.82 2.71 5.65 3.98 3.69 2.51 7.16 4.75 10.09 6.53.73.45 1.51.9 2.36 1.32.83.44 1.7.89 2.6 1.35 1.8.93 3.73 1.88 5.74 2.85 2.02.97 4.12 1.96 6.27 2.94 2.16.95 4.44 1.78 6.68 2.64 2.26.84 4.52 1.67 6.74 2.44 2.23.77 4.41 1.53 6.59 2.04 1.44.38 2.85.73 4.21 1.04l-9.85 11.67.27 8.7 13.81-16.02.08 3.13c.02 1.61 1.34 2.9 2.96 2.87 1.61-.02 2.9-1.34 2.87-2.96l-.15-5.59c.5.07.99.13 1.5.16l.21 8.09c.02 1.61 1.34 2.9 2.96 2.87 1.61-.02 2.9-1.35 2.87-2.96l-.16-5.83.41.29 1.11.78.19 7.42c.02 1.61 1.34 2.9 2.96 2.87 1.61-.02 2.9-1.35 2.87-2.96l-.09-3.42c.17.1.34.21.52.31.33.18.67.36 1.01.53l.62 23.14 5.7-4.36-.42-15.86c1.64.77 3.34 1.55 5.07 2.31 1.09.47 2.18.98 3.3 1.4 1.14.41 2.27.81 3.41 1.21 2.28.81 4.59 1.58 6.85 2.32 2.27.73 4.5 1.49 6.7 1.97 4.39 1.08 8.47 1.99 11.88 2.64 6.88 1.01 16.62 2.04 26.36 1.72 4.85.06 9.71-.56 14.16-1.08 1.1-.15 2.19-.3 3.26-.44.53-.08 1.04-.16 1.56-.24.51-.1 1.01-.21 1.51-.33 1.98-.45 3.82-.93 5.47-1.43l3.96-1.2 2.06-.62 1.55 1.85 2.06 2.45c8.17 9.76 26.02 24.01 36.43 31.09 2.6 1.76 5.8 3.79 9.31 5.9 1.76 1.05 3.59 2.13 5.48 3.21 1.91 1.08 3.88 2.16 5.86 3.21 7.97 4.19 16.33 7.72 22.63 9.22l3.82.89c.98.24 1.98.44 2.97.64l-.03.05c.84.79 1.67 1.6 2.53 2.37l2.43 2.19c2.43 2.16 5.59 4.47 9.2 6.72 3.64 2.22 7.72 4.41 11.99 6.29 4.27 1.87 8.67 3.53 12.88 4.73 4.2 1.27 8.1 2.08 11.37 2.67 6.54 1.1 15.82 1.8 24.98 1.33 4.74-.2 9.45-.7 13.74-1.42l-3.67 12.84 3.92 7.78 5.6-20.64 1.54 3.09c.7 1.44 2.44 2.05 3.9 1.36 1.44-.7 2.05-2.44 1.36-3.9l-1.61-3.22c.48-.16.96-.32 1.43-.49l2.64 5.3a2.93 2.93 0 0 0 3.89 1.36c1.45-.7 2.06-2.44 1.36-3.9l-2.09-4.19 1.84.34 2.79 5.6a2.913 2.913 0 1 0 5.25-2.53l-1.01-2.04c.56.06 1.15.1 1.74.13l9.91 19.84 3.33-6.35-6.72-13.47c4.31-.19 8.97-.74 13.6-1.73 4.67-.94 9.26-2.39 13.46-4.01 1.04-.43 2.07-.85 3.06-1.26.99-.44 1.94-.9 2.86-1.35 1.86-.86 3.51-1.86 5.04-2.72 1.5-.9 3.1-2 4.79-3.19 1.64-1.27 3.42-2.57 5.13-4.13 1.75-1.49 3.42-3.22 5.11-4.97 1.61-1.84 3.24-3.69 4.68-5.71 2.93-3.99 5.35-8.27 7.11-12.37 1.74-4.13 2.83-8.08 3.36-11.38.19-1.34.35-2.69.51-4.01.1-1.04.16-2.07.24-3.1l.06.02c.7-.96 1.3-1.96 1.95-2.97l.9-1.42.83-1.46c1.71-2.89 3.25-6.65 4.5-10.91.29-1.06.61-2.16.86-3.27.24-1.14.47-2.28.71-3.43.18-1.18.36-2.36.53-3.55.16-1.19.24-2.38.36-3.58.86-9.59-.35-19.26-1.96-25.92zm-169.74-106.51c.71-3.13 1.22-6.51 1.64-9.5.16-1.5.36-2.9.47-4.14.1-1.24.24-2.3.33-3.14l.02-.24c.42-3.31 1.38-10.44 1.24-16.85-.02-3.21-.3-6.2-.56-8.4-.28-2.2-.5-3.62-.38-3.65.1-.04.76 1.24 1.59 3.35.79 2.12 1.73 5.1 2.37 8.38 1.38 6.55 1.5 14.24 1.04 17.77l-.02.25c-.1.88-.3 2.01-.54 3.3-.24 1.3-.63 2.74-1.01 4.28-.87 3.06-1.97 6.45-3.3 9.5-.62 1.54-1.35 2.99-1.97 4.31-.69 1.3-1.3 2.49-1.87 3.46-1.17 1.94-1.96 3.13-2.08 3.07-.24-.11 1.72-5.45 3.02-11.76zm-87.38 52.83c.33-.02.71-.05 1.15-.09.45-.04.96-.1 1.51-.16 1.11-.1 2.42-.21 3.85-.35 1.43-.18 2.98-.38 4.58-.58 6.41-.85 13.45-2.49 16.76-3.16l.23-.04c.83-.16 1.89-.36 3.13-.59 1.23-.22 2.64-.43 4.11-.77 2.99-.57 6.31-1.34 9.42-2.18 1.54-.45 3.07-.83 4.43-1.27s2.62-.84 3.67-1.19c2.1-.75 3.44-1.22 3.5-1.1.05.1-1.07.97-2.96 2.22-.98.58-2.13 1.27-3.38 2.01-1.27.74-2.72 1.42-4.2 2.18-2.99 1.44-6.27 2.81-9.27 3.82-1.48.56-2.92.95-4.18 1.3-1.26.35-2.36.67-3.23.81l-.24.04c-3.47.72-11.05 1.31-17.66.95-1.66-.11-3.25-.19-4.71-.33-1.44-.19-2.77-.37-3.9-.53-.56-.08-1.06-.16-1.5-.23-.44-.09-.83-.18-1.14-.25-.61-.16-.96-.27-.96-.33 0-.07.36-.13.99-.19zm-79.93-54.04c.11-.05.96 1.11 2.22 2.96.61.93 1.35 2.02 2.14 3.22.87 1.15 1.8 2.41 2.77 3.7.47.64.96 1.3 1.44 1.96.51.64 1.06 1.26 1.59 1.89 1.04 1.26 2.07 2.5 3.03 3.66 2.1 2.19 3.82 4.17 4.95 5.42l.17.17c2.29 2.43 6.83 8.05 11.73 12.23 1.14 1.15 2.39 2.07 3.48 3 1.12.9 2.09 1.81 2.99 2.45 1.79 1.33 2.9 2.22 2.84 2.33-.06.1-1.39-.39-3.49-1.26-1.05-.42-2.2-1.09-3.51-1.76-1.3-.7-2.76-1.39-4.13-2.33-5.8-3.33-11.45-8.5-13.88-11.08l-.18-.19c-1.19-1.32-2.82-3.6-4.67-6.16-.81-1.36-1.68-2.8-2.56-4.27-.42-.73-.87-1.46-1.27-2.2-.38-.76-.75-1.53-1.11-2.27-.71-1.49-1.4-2.93-2.03-4.26-.56-1.36-1.02-2.62-1.41-3.67-.77-2.12-1.21-3.47-1.1-3.53zm-3.13-93.96c-.34 1.05-.63 2.35-1 3.73-.19.7-.37 1.42-.57 2.17-.19.74-.34 1.53-.52 2.31-1.45 6.29-2.42 13.45-2.84 16.8l-.04.24c-.28 1.65-.73 4.25-1.24 7.25-.21 1.5-.43 3.1-.65 4.73-.24 1.62-.33 3.27-.52 4.88-.2 1.61-.24 3.16-.34 4.6-.09 1.44-.21 2.76-.21 3.87-.07 2.23-.16 3.66-.28 3.67-.13 0-.47-1.39-.96-3.58-.27-1.1-.45-2.42-.67-3.87-.21-1.45-.47-3.04-.58-4.68-.12-1.65-.33-3.36-.35-5.06-.04-1.69-.09-3.37-.07-4.96.12-3.16.26-5.93.59-7.68l.04-.24c.44-3.52 2.57-10.84 5.24-16.91.33-.76.63-1.52.98-2.23.35-.7.69-1.39 1.02-2.05.67-1.31 1.23-2.51 1.83-3.47 1.15-1.95 1.92-3.15 2.03-3.1.1.05-.25 1.44-.88 3.58zm74.68-66.25c-.56.3-1.38.73-2.38 1.22-1.01.49-2.19 1.07-3.48 1.69-1.28.67-2.67 1.4-4.1 2.15-5.71 3.04-11.92 6.79-14.79 8.58l-.21.12c-1.47.81-3.8 2.09-6.47 3.57-1.34.72-2.7 1.59-4.12 2.41-1.44.8-2.82 1.72-4.18 2.59-.69.43-1.36.86-2.01 1.27s-1.26.86-1.85 1.27c-1.19.81-2.27 1.55-3.2 2.18-1.79 1.33-2.97 2.13-3.06 2.04-.08-.09.79-1.22 2.22-2.96.76-.84 1.66-1.81 2.67-2.87.51-.53 1.02-1.1 1.59-1.65l1.76-1.67c1.21-1.13 2.45-2.32 3.77-3.38 1.31-1.07 2.57-2.19 3.85-3.11 1.27-.93 2.47-1.8 3.54-2.56 1.06-.77 2.05-1.31 2.81-1.76l.21-.13c3.01-1.87 10-4.78 16.31-6.75 1.58-.46 3.11-.9 4.52-1.32 1.42-.36 2.73-.64 3.82-.89 1.1-.24 2-.42 2.63-.53.64-.09 1-.1 1.02-.04.01.07-.3.24-.87.53zm94.94 8.27c-1.06-.36-2.3-.79-3.67-1.25-1.36-.5-2.85-.96-4.4-1.44-3.07-1.01-6.39-1.89-9.33-2.7-2.96-.72-5.51-1.43-7.16-1.82l-.23-.06c-3.24-.99-10.17-3.09-16.48-4.56-1.58-.36-3.1-.7-4.51-1.01-1.42-.27-2.7-.51-3.8-.72-2.19-.47-3.59-.68-3.59-.81 0-.11 1.42-.36 3.67-.43 1.13-.04 2.47-.09 3.93-.15 1.46 0 3.05.06 4.71.11 6.61.27 14.11 1.37 17.48 2.4l.24.07c1.72.41 4.3 1.42 7.23 2.58 2.9 1.25 6.12 2.7 9.02 4.31 1.46.76 2.86 1.53 4.1 2.31 1.24.76 2.37 1.46 3.33 2.06 1.87 1.27 3 2.14 2.95 2.24-.06.11-1.42-.36-3.5-1.13zM493.64 326.4c-.13.06-.91-1.13-2.07-3.07-.58-.97-1.19-2.16-1.87-3.46-.62-1.33-1.35-2.77-1.97-4.31-1.33-3.05-2.42-6.44-3.3-9.5-.38-1.54-.76-2.99-1.01-4.28-.24-1.3-.44-2.42-.54-3.31l-.02-.24c-.46-3.53-.33-11.22 1.04-17.78.64-3.27 1.59-6.25 2.38-8.37.81-2.11 1.48-3.39 1.58-3.35.13.04-.1 1.45-.37 3.65-.25 2.2-.54 5.2-.56 8.4-.13 6.41.82 13.54 1.24 16.85l.02.23c.09.84.23 1.9.33 3.14.1 1.24.3 2.64.46 4.14.43 2.99.93 6.36 1.64 9.5 1.3 6.3 3.26 11.65 3.02 11.76zm84.39 41.58c-.31.07-.7.16-1.14.25-.44.07-.95.15-1.5.23-1.13.16-2.45.33-3.9.53-1.46.14-3.05.22-4.71.33-6.62.36-14.19-.24-17.66-.95l-.24-.04c-.87-.15-1.96-.47-3.23-.81-1.26-.36-2.7-.74-4.18-1.3-2.99-1.02-6.27-2.39-9.27-3.82-1.48-.76-2.93-1.44-4.2-2.18-1.25-.74-2.4-1.43-3.38-2.01-1.88-1.25-3.02-2.13-2.96-2.22.06-.12 1.41.36 3.5 1.1 1.07.34 2.31.74 3.67 1.19 1.36.44 2.89.82 4.43 1.27 3.11.84 6.45 1.61 9.42 2.18 1.47.34 2.88.55 4.12.77 1.23.24 2.29.44 3.12.59l.24.04c3.3.67 10.34 2.31 16.75 3.16 1.6.2 3.15.4 4.58.58l3.85.35c.56.07 1.06.12 1.51.16.44.04.83.07 1.15.09.63.06.99.12.99.19 0 .06-.35.17-.96.33zm78.8-51.03c-.39 1.05-.85 2.32-1.41 3.67-.63 1.33-1.32 2.77-2.03 4.26-.36.75-.73 1.51-1.1 2.27-.41.74-.86 1.47-1.28 2.2-.88 1.47-1.75 2.91-2.56 4.27-1.86 2.56-3.48 4.85-4.67 6.16l-.17.19c-2.44 2.59-8.09 7.75-13.89 11.08-1.36.93-2.83 1.63-4.12 2.33-1.32.67-2.47 1.33-3.52 1.76-2.1.87-3.43 1.36-3.49 1.26-.06-.1 1.06-1 2.84-2.33.9-.64 1.87-1.56 2.99-2.45 1.1-.93 2.34-1.85 3.48-3 4.9-4.19 9.44-9.8 11.73-12.23l.16-.17c1.13-1.24 2.85-3.23 4.95-5.42.96-1.16 1.99-2.4 3.04-3.66.52-.63 1.07-1.24 1.58-1.89.49-.66.97-1.32 1.44-1.96.97-1.3 1.9-2.55 2.77-3.7.79-1.19 1.53-2.29 2.15-3.22 1.24-1.84 2.1-3.01 2.21-2.96.1.05-.33 1.41-1.1 3.53zm3.36-101.07c.1-.05.87 1.15 2.02 3.1.6.96 1.17 2.16 1.84 3.47.33.66.67 1.35 1.01 2.05.35.71.64 1.47.98 2.23 2.67 6.07 4.79 13.39 5.24 16.91l.04.24c.33 1.75.47 4.53.59 7.68.01 1.59-.04 3.27-.07 4.96-.03 1.7-.24 3.41-.36 5.06-.1 1.64-.37 3.23-.58 4.68-.21 1.45-.4 2.77-.67 3.87-.47 2.19-.82 3.58-.96 3.58-.12-.01-.21-1.44-.28-3.67 0-1.11-.13-2.43-.21-3.87-.1-1.44-.14-2.99-.34-4.6-.19-1.61-.27-3.26-.52-4.88-.22-1.62-.44-3.22-.65-4.73-.52-3-.96-5.6-1.24-7.26l-.04-.23c-.42-3.35-1.39-10.51-2.84-16.8-.18-.79-.32-1.57-.52-2.31-.2-.75-.39-1.47-.57-2.17-.37-1.39-.65-2.68-1-3.73-.63-2.13-.99-3.53-.87-3.58zm-73.65-63.16c.63.11 1.53.3 2.63.53 1.1.24 2.4.53 3.82.89 1.41.41 2.94.86 4.52 1.32 6.3 1.97 13.3 4.88 16.31 6.75l.21.13c.76.45 1.76.99 2.82 1.76 1.07.76 2.27 1.62 3.54 2.56 1.27.93 2.53 2.04 3.84 3.11 1.32 1.06 2.56 2.24 3.77 3.38.6.56 1.19 1.13 1.76 1.67.57.55 1.08 1.12 1.59 1.65 1.01 1.07 1.91 2.04 2.67 2.87 1.44 1.74 2.3 2.87 2.22 2.96-.08.09-1.27-.72-3.06-2.04-.93-.63-2.01-1.37-3.2-2.18-.59-.41-1.2-.85-1.84-1.27-.66-.41-1.33-.84-2.02-1.27-1.36-.87-2.74-1.79-4.18-2.59-1.42-.81-2.78-1.69-4.12-2.42-2.67-1.47-5-2.76-6.47-3.56l-.21-.13c-2.87-1.78-9.08-5.53-14.79-8.57-1.43-.75-2.82-1.47-4.1-2.15-1.29-.62-2.47-1.2-3.48-1.69-1-.5-1.82-.92-2.38-1.22-.57-.3-.88-.47-.87-.53.02-.05.39-.04 1.02.04zm-95.65 7.65c.97-.6 2.1-1.3 3.34-2.06 1.24-.79 2.64-1.55 4.1-2.31 2.89-1.61 6.12-3.06 9.01-4.31 2.93-1.16 5.51-2.16 7.23-2.58l.24-.07c3.38-1.03 10.88-2.13 17.48-2.4 1.66-.05 3.25-.1 4.71-.11 1.46.06 2.79.1 3.93.15 2.25.07 3.67.32 3.67.43 0 .13-1.41.34-3.59.81-1.1.21-2.39.45-3.8.72-1.41.31-2.93.65-4.51 1.01-6.3 1.47-13.23 3.56-16.48 4.56l-.23.06c-1.65.39-4.21 1.1-7.16 1.82-2.93.81-6.26 1.69-9.33 2.7-1.55.47-3.04.94-4.39 1.44-1.36.47-2.62.89-3.67 1.25-2.09.77-3.44 1.24-3.5 1.13-.06-.1 1.08-.97 2.94-2.24zm47.62 275.62c1.08.3 2.36.67 3.74 1.06 1.39.39 2.89.87 4.47 1.27 6.24 1.81 13.37 3.42 16.65 4.41l.23.07c1.63.52 4.19 1.3 7.08 2.32 1.45.47 3 .98 4.58 1.49.79.26 1.58.52 2.36.79.79.24 1.58.47 2.36.71 1.55.48 3.05.95 4.44 1.39 1.38.4 2.64.77 3.73 1.09 2.12.66 3.48 1.1 3.48 1.22-.02.13-1.45.13-3.7.01-1.13-.07-2.46-.16-3.9-.24-1.46-.13-3.04-.3-4.67-.49-.81-.09-1.65-.19-2.48-.28-.84-.13-1.67-.25-2.5-.38-1.66-.26-3.3-.5-4.84-.79-3.07-.62-5.76-1.16-7.44-1.69l-.24-.07c-3.35-1-10.33-3.73-16.22-6.7-1.49-.69-2.88-1.46-4.17-2.15s-2.46-1.32-3.44-1.87c-1.93-1.16-3.13-1.93-3.07-2.04.04-.11 1.43.25 3.56.9zm-80.63-63.69c.1-.07 1.07.98 2.56 2.63 1.56 1.61 3.6 3.87 5.82 6.22 1.13 1.16 2.31 2.36 3.47 3.53.57.59 1.14 1.19 1.7 1.76l1.7 1.64c1.1 1.06 2.13 2.06 3.02 2.96.44.45.85.87 1.23 1.25.39.38.73.72 1.04 1.01l.17.17c1.21 1.19 2.96 3.21 5.02 5.47 1.04 1.1 2.16 2.29 3.3 3.48 1.12 1.21 2.25 2.45 3.42 3.56 1.15 1.14 2.25 2.25 3.28 3.27l1.44 1.47c.47.44.92.85 1.33 1.23 1.63 1.53 2.63 2.56 2.56 2.65-.07.1-1.34-.56-3.31-1.66-.49-.27-1.03-.59-1.6-.9-.55-.36-1.13-.74-1.74-1.13-1.22-.81-2.55-1.7-3.92-2.61-1.39-.9-2.74-1.94-4.07-2.97-1.33-1.04-2.65-2.06-3.88-3.02-2.41-2.02-4.42-3.9-5.67-5.13l-.18-.18c-.31-.31-.66-.67-1.03-1.08-.36-.42-.75-.89-1.16-1.39-.83-1.01-1.76-2.16-2.73-3.39-.48-.62-.99-1.24-1.47-1.91-.47-.67-.96-1.36-1.44-2.05-.96-1.39-1.92-2.79-2.85-4.15-1.78-2.79-3.32-5.45-4.45-7.39-1.06-1.99-1.65-3.3-1.56-3.36zm-33-138.63c.19-1.11.42-2.43.69-3.89.35-1.43.76-3.02 1.24-4.62.55-1.57 1.12-3.19 1.67-4.78.63-1.58 1.3-3.11 1.92-4.57.61-1.46 1.33-2.76 1.91-3.93.6-1.16 1.12-2.18 1.62-2.91l.13-.21c1.83-3.04 6.56-8.96 11.26-13.61 1.19-1.16 2.31-2.28 3.4-3.27 1.1-.95 2.11-1.82 2.97-2.56.84-.73 1.58-1.3 2.11-1.66.53-.37.84-.56.88-.51.04.04-.15.35-.52.87-.39.51-.93 1.24-1.57 2.16-.67.9-1.44 1.96-2.3 3.12-.84 1.16-1.72 2.47-2.64 3.79-3.67 5.33-7.3 11.59-9.05 14.49l-.13.2c-.9 1.41-2.33 3.64-3.98 6.21-.79 1.3-1.63 2.67-2.49 4.07-.8 1.42-1.62 2.87-2.41 4.28-.74 1.41-1.41 2.79-2.02 4.08-.56 1.32-1.07 2.52-1.5 3.55-.77 2.07-1.29 3.42-1.41 3.39-.11-.02-.04-1.45.21-3.7zm7.52 91.35c-.66-1.51-1.35-3.07-2.02-4.61-.67-1.55-1.22-3.11-1.79-4.57a70.898 70.898 0 0 1-2.38-7.25l-.07-.24c-.95-3.37-2.02-10.8-2.55-17.37-.19-3.3-.4-6.35-.35-8.61 0-2.25.06-3.67.19-3.69.27 0 1.48 5.53 3.16 11.79 1.72 6.28 3.82 13.26 4.74 16.54l.06.24c.44 1.65.95 4.28 1.66 7.26.34 1.49.65 3.1 1.04 4.7.39 1.61.79 3.23 1.16 4.82.36 1.59.78 3.1 1.14 4.5.36 1.39.68 2.67.96 3.76.55 2.17.93 3.54.8 3.59-.1.04-.9-1.16-1.96-3.14-.52-1-1.13-2.19-1.79-3.47-.66-1.31-1.39-2.73-2.03-4.25zm-56.95 34.09a77.15 77.15 0 0 1 7.61-5.32c1.5-.96 3.16-1.79 4.76-2.68 1.64-.81 3.29-1.57 4.86-2.26 1.6-.61 3.1-1.19 4.45-1.64 1.36-.4 2.56-.73 3.5-.96l.26-.07c3.79-.8 12.02-1.63 19.28-.02 3.56.82 6.65 2.13 8.82 3.19 2.18 1.06 3.47 1.9 3.43 1.99-.05.13-1.53-.29-3.85-.81-2.31-.53-5.49-1.19-8.85-1.36-.84-.01-1.69-.1-2.53-.04l-1.26.04c-.42.01-.87.09-1.29.13-1.73.19-3.42.29-4.99.61-.79.13-1.55.25-2.28.37-.73.1-1.41.31-2.05.44-1.29.3-2.42.47-3.28.7l-.24.06c-.87.21-1.99.45-3.28.7-1.29.32-2.75.68-4.31 1.07-1.54.44-3.19.95-4.85 1.46-1.63.61-3.33 1.13-4.92 1.8-3.21 1.26-6.14 2.63-8.3 3.65-2.13 1.07-3.52 1.72-3.59 1.62-.07-.1 1.07-1.12 2.93-2.67zm-41.36 61.61c-.3 1.3-.59 2.43-.77 3.32l-.06.25c-.2.88-.51 2-.85 3.3-.32 1.3-.68 2.78-1.07 4.36-.33 1.59-.73 3.27-1.06 5-.16.86-.31 1.73-.47 2.6l-.24 1.3-.18 1.29c-.24 1.7-.52 3.36-.64 4.9-.16 1.53-.35 2.93-.41 4.12-.1 1.19-.19 2.16-.24 2.85-.05.67-.1 1.06-.16 1.07-.29 0-1.41-6.02-1.56-13.13-.01-.44-.03-.9-.04-1.35 0-.44.01-.9.02-1.36.01-.91.04-1.82.05-2.73.07-1.82.24-3.61.36-5.3.2-1.68.41-3.26.61-4.66.24-1.39.5-2.58.71-3.5l.06-.26c.19-.93.56-2.1.99-3.43.22-.67.46-1.38.7-2.13.27-.74.58-1.5.89-2.29.31-.79.64-1.6.96-2.42.37-.81.75-1.63 1.13-2.46.73-1.67 1.59-3.3 2.42-4.87 1.67-3.13 3.43-5.94 4.82-7.92 1.33-2.02 2.37-3.16 2.45-3.11.13.07-.52 1.45-1.36 3.7-.9 2.22-2.04 5.25-3.12 8.54-.53 1.64-1.1 3.33-1.56 5.03-.24.84-.48 1.68-.72 2.5-.21.83-.41 1.64-.61 2.43-.19.79-.41 1.55-.58 2.28-.16.73-.32 1.43-.47 2.09zm57.15 108.48c-2.39-.37-5.64-.99-9.06-1.93-3.45-.87-7.05-2.16-10.21-3.41-1.57-.65-3.02-1.33-4.3-1.92a83.09 83.09 0 0 1-3.16-1.72l-.24-.13c-1.62-1.01-4.1-2.72-6.7-4.93-1.32-1.08-2.62-2.36-3.96-3.6-.63-.67-1.27-1.33-1.9-2l-.94-.99c-.29-.34-.59-.69-.87-1.03-.57-.69-1.13-1.36-1.67-2.02s-1.01-1.35-1.48-1.98c-.96-1.26-1.72-2.47-2.36-3.5-.67-1.01-1.13-1.89-1.44-2.5-.31-.61-.46-.97-.41-1 .05-.04.35.22.82.7.48.49 1.14 1.21 2.01 2.03.84.84 1.82 1.85 2.97 2.87.57.51 1.13 1.07 1.76 1.6.63.53 1.28 1.07 1.94 1.63 5.23 4.47 11.94 8.29 15.02 10.13l.21.13c.78.44 1.76 1.06 2.89 1.78 1.15.67 2.45 1.44 3.85 2.26 2.83 1.57 6.06 3.33 9.21 4.74 3.13 1.47 6.14 2.69 8.36 3.59 2.22.9 3.65 1.42 3.62 1.56-.02.1-1.56.03-3.95-.36zm106.93-4.85c-1.08.53-2.38 1.13-3.8 1.78-1.43.64-3.02 1.27-4.66 1.95-1.64.64-3.37 1.26-5.08 1.87-1.72.55-3.43 1.12-5.05 1.58-3.24.93-6.13 1.57-7.98 1.9l-.26.04c-3.72.65-11.75 1.22-18.8 1.08-3.53-.04-6.82-.21-9.22-.41-2.4-.19-3.92-.39-3.92-.52 0-.11 1.51-.37 3.88-.73 2.37-.34 5.6-.81 9.03-1.38 6.89-1.07 14.54-2.7 18.14-3.33l.25-.04c3.61-.61 11.35-1.54 18.14-2.99 1.69-.37 3.34-.7 4.85-1.04 1.5-.35 2.87-.67 4.05-.94 2.32-.59 3.82-.9 3.87-.79.04.11-1.3.86-3.44 1.96zm27-18.52l-2.68 2.67c-.7.71-1.41 1.38-2.13 2.07l-.03-.06c-1.1.22-2.2.46-3.3.66l-3.1.56c-3.07.53-6.66 1.35-10.5 2.27-3.85.88-7.93 1.89-12.01 2.78-8.14 1.82-16.18 3.12-22.08 4.09-5.85.99-14.11 2.48-22.51 3.76-4.25.68-8.52 1.31-12.5 1.96l7.08-14.16-3.33-6.36-10.88 21.77c-.64.13-1.27.25-1.87.39l2.19-4.39c.7-1.45.1-3.19-1.36-3.89-1.44-.7-3.19-.1-3.89 1.36l-4.25 8.53c-.24.05-.47.1-.71.14v-.06l-.84-.33 3.26-6.54c.7-1.45.1-3.19-1.36-3.9-1.45-.7-3.19-.09-3.9 1.36l-3.43 6.89a37.1 37.1 0 0 0-1.4-.56l2.29-4.58c.7-1.45.1-3.19-1.36-3.89-1.44-.7-3.19-.1-3.89 1.36l-1.4 2.81-5.74-20.37-3.92 7.78 3.48 12.83c-2.93-1.13-5.97-2.34-8.94-3.64-3.76-1.59-7.36-3.38-10.64-5.07-.81-.44-1.62-.86-2.39-1.27-.76-.44-1.5-.86-2.22-1.27-1.46-.78-2.73-1.63-3.95-2.31-1.19-.7-2.47-1.53-3.87-2.37-1.33-.92-2.84-1.81-4.27-2.87-1.5-1-2.93-2.16-4.47-3.3-1.44-1.22-2.99-2.41-4.39-3.73-2.88-2.6-5.63-5.44-8.13-8.22-2.47-2.79-4.68-5.53-6.66-7.81-.78-.93-1.53-1.88-2.31-2.84-.59-.76-1.14-1.53-1.72-2.32l.06-.02c-.08-1.1-.07-2.21-.07-3.29v-1.53l.04-1.53c.19-6.05.16-14.13 1.25-22.08.9-8.01 2.73-15.84 4.06-21.38.65-2.78 1.51-6.1 2.5-9.71 1.07-3.58 2.23-7.45 3.64-11.26 1.19-3.36 2.53-6.68 3.85-9.82l4.93 11.02 7.02 1.46-8.81-19.74c.28-.64.56-1.27.81-1.87l.97 2.18c.68 1.47 2.41 2.1 3.87 1.42a2.91 2.91 0 0 0 1.42-3.87l-3.07-6.85c.1-.21.21-.41.32-.61l.04.04.81-.47 2.16 4.83a2.91 2.91 0 0 0 3.87 1.42c1.46-.68 2.1-2.41 1.42-3.87l-2.3-5.16c.43-.22.87-.46 1.33-.69l1.24 2.78a2.91 2.91 0 0 0 3.87 1.42c1.47-.67 2.1-2.41 1.43-3.87l-1.28-2.86-.27-.12c.06-.03.12-.07.18-.1l.09.21 19.37 8.48-3.52-7.96-9.28-4.18c.33-.17.65-.33.99-.48.9-.43 1.8-.87 2.7-1.3.92-.4 1.84-.81 2.76-1.21 7.31-3.27 14.74-5.36 19.94-6.5 1.3-.32 2.75-.52 4.28-.87.76-.11 1.56-.23 2.37-.35.81-.12 1.65-.29 2.5-.33.86-.08 1.73-.17 2.62-.25l.33-.04h.27l.55-.03c.37-.01.73-.07 1.14-.04 1.56-.02 3.3.17 5.1.4 3.61.54 7.45 1.53 11.05 2.59 3.61 1.07 6.99 2.22 9.91 3.09.86.26 1.73.53 2.58.81.3 1.09.67 2.22 1.09 3.4.6 1.68 1.27 3.47 2.05 5.3 1.67 3.59 3.54 7.48 5.82 11.14 2.16 3.75 4.72 7.24 7.09 10.5 1.24 1.59 2.5 3.07 3.67 4.46 1.19 1.39 2.28 2.7 3.4 3.77 1.1 1.1 2.33 2.29 3.65 3.54.67.61 1.33 1.28 2.08 1.9.75.61 1.51 1.24 2.3 1.88 1.58 1.27 3.19 2.6 4.92 3.85 1.76 1.22 3.55 2.44 5.36 3.63 1.78 1.23 3.71 2.24 5.56 3.28.93.5 1.85.99 2.76 1.49.46.24.91.47 1.36.7.46.22.93.42 1.39.62 1.83.81 3.6 1.54 5.27 2.18.84.32 1.65.63 2.44.87.8.24 1.57.45 2.31.64l3.56.9c.85.22 1.73.39 2.59.58l.03-.05 2.41 2.49c.71.73 1.43 1.46 2.17 2.16 4.32 4.3 11.37 9.14 18.93 13.16 7.56 4.03 15.59 7.22 21.47 8.93 5.87 1.71 14.34 3.44 22.87 4.14 2.57.22 5.14.35 7.64.38-10.3 5.06-21.55 11.71-28.54 16.44-2.59 1.76-5.65 3.98-8.9 6.45-1.63 1.24-3.3 2.54-5 3.89-1.67 1.32-3.37 2.68-5.05 4.07-6.71 5.47-13.31 11.02-17.71 15.47zm65.76-36.66c-1.82 1.57-4.34 3.66-7.06 5.87-5.45 4.42-11.68 9.32-14.76 11.4l-.21.15c-3.08 2.08-9.93 6.07-16.07 9.48-3.07 1.69-5.98 3.22-8.14 4.29-2.16 1.06-3.56 1.67-3.62 1.57-.07-.11 1.1-1.1 2.96-2.62 1.87-1.52 4.42-3.57 7.12-5.76 5.45-4.4 11.68-9.31 14.76-11.39l.21-.15c3.07-2.08 9.93-6.07 16.05-9.48a377.8 377.8 0 0 1 8.07-4.39c2.13-1.12 3.51-1.78 3.59-1.68.07.1-1.06 1.14-2.88 2.7zm587.35-124.34c2.39 2.26 4.99 4.61 7.27 6.72 1.13 1.06 2.19 2.06 3.11 2.96.94.88 1.75 1.65 2.35 2.27l.17.18c1.22 1.24 3 3.29 5.05 5.64 2.07 2.32 4.34 4.98 6.48 7.47 2.17 2.47 4.19 4.79 5.63 6.53 1.45 1.73 2.38 2.83 2.29 2.93-.07.08-1.3-.68-3.13-2.02-1.82-1.34-4.27-3.22-6.89-5.25-2.58-2.07-5.27-4.33-7.67-6.37-2.36-2.07-4.36-3.96-5.59-5.2l-.17-.18c-.61-.63-1.38-1.45-2.24-2.43-.84-.99-1.79-2.13-2.78-3.34-1.99-2.42-4.18-5.19-6.13-7.86-1.96-2.66-3.79-5.14-5.05-7.04-1.26-1.87-2.02-3.1-1.93-3.18.19-.17 4.38 3.75 9.23 8.18zm-66.91-87.16c1.44 1.74 3.36 4.15 5.42 6.71 4.08 5.16 8.71 10.98 10.68 13.84l.14.21c1.96 2.87 5.77 9.24 9.12 14.91 1.7 2.82 3.25 5.47 4.36 7.45 1.13 1.95 1.81 3.22 1.71 3.3-.1.07-1.13-.93-2.7-2.56-1.56-1.64-3.63-3.93-5.83-6.4-4.35-4.97-9.09-10.77-11.07-13.66l-.14-.2c-1.99-2.89-5.73-9.36-8.82-15.21-1.56-2.91-2.94-5.67-3.93-7.71-.99-2.03-1.56-3.36-1.45-3.42.1-.07 1.06 1.01 2.5 2.76zm72.96-35.49c-.59.4-1.47.93-2.55 1.59-1.08.64-2.36 1.43-3.8 2.22-1.45.76-3.04 1.59-4.67 2.44-3.33 1.62-6.93 3.27-10.23 4.52-.82.33-1.61.64-2.38.93-.78.26-1.52.5-2.21.74-1.39.45-2.6.83-3.55 1.1l-.27.07c-.96.23-2.2.5-3.64.77-.72.14-1.48.28-2.29.44-.81.11-1.65.22-2.53.35-3.49.51-7.45.81-11.14.99-1.85.05-3.64.1-5.27.12-1.63-.04-3.13-.09-4.39-.13-.62-.03-1.2-.05-1.7-.07-.5-.05-.93-.1-1.3-.13-.71-.08-1.11-.16-1.11-.21 0-.07.39-.16 1.09-.29l1.27-.21c.5-.1 1.06-.2 1.67-.32 1.24-.21 2.69-.47 4.28-.74 1.59-.32 3.31-.66 5.09-1.01 3.55-.77 7.3-1.63 10.61-2.54.83-.21 1.63-.41 2.39-.61.76-.22 1.49-.43 2.16-.63 1.36-.39 2.54-.7 3.47-.93l.27-.06c.91-.27 2.1-.56 3.47-.89.69-.16 1.42-.33 2.19-.5.77-.2 1.57-.41 2.4-.62 3.33-.81 7.03-1.89 10.52-2.91 1.73-.55 3.41-1.08 4.95-1.57 1.54-.5 2.93-1.01 4.12-1.4 1.19-.4 2.17-.7 2.85-.92.68-.22 1.07-.33 1.1-.27.03.05-.29.31-.87.73zm50.66-58.15l.07-.26c.14-.44.3-.96.48-1.52.19-.56.31-1.2.49-1.87.36-1.35.78-2.87 1.22-4.5.33-1.65.68-3.41 1.04-5.2.22-.89.29-1.8.41-2.71.12-.9.23-1.82.35-2.7.3-1.79.32-3.53.43-5.13.07-1.61.24-3.08.19-4.33-.01-2.48.03-4.09.15-4.11.13 0 .53 1.54 1.09 4 .33 1.24.47 2.72.69 4.36.19 1.64.49 3.43.5 5.3l.09 2.84c.02.96.09 1.93 0 2.87l-.35 5.59c-.25 1.77-.53 3.43-.77 4.89-.13.73-.23 1.42-.39 2.04-.17.61-.33 1.16-.47 1.64l-.08.27c-.94 3.92-4.57 11.77-8.84 17.9-1.1 1.5-2.1 3-3.15 4.27-1.08 1.24-2.07 2.36-2.91 3.32-.42.47-.81.9-1.15 1.27-.35.37-.7.65-.96.89-.55.48-.87.73-.92.69-.04-.04.15-.4.52-1.01.18-.3.43-.65.68-1.09.24-.44.52-.94.82-1.49.62-1.08 1.35-2.36 2.15-3.75.77-1.41 1.47-3.02 2.28-4.62 3.08-6.53 5.45-14.21 6.33-17.85zm-62.95-111.72c.61.17 1.27.36 1.98.56.7.24 1.43.5 2.2.78 1.55.57 3.23 1.19 4.96 1.82.44.16.87.33 1.32.5.42.19.86.39 1.29.58.86.39 1.73.79 2.59 1.18.86.4 1.72.79 2.56 1.18.84.4 1.68.76 2.44 1.21 1.54.86 2.99 1.67 4.26 2.41 1.26.76 2.39 1.36 3.16 1.98l.22.16c.8.59 1.81 1.37 2.96 2.29 1.13.94 2.47 1.92 3.73 3.19 1.27 1.23 2.62 2.53 3.99 3.86.7.64 1.31 1.38 1.94 2.1.63.71 1.25 1.42 1.87 2.13.61.7 1.2 1.39 1.78 2.06.58.67 1.06 1.39 1.56 2.04.96 1.33 1.84 2.54 2.59 3.57.76 1 1.23 1.94 1.59 2.56.36.63.53 1 .47 1.04-.04.04-.36-.23-.87-.72-.53-.49-1.19-1.26-2.15-2.07-.93-.85-2.01-1.84-3.19-2.93-.6-.54-1.18-1.15-1.85-1.7-.67-.55-1.36-1.11-2.07-1.69-.7-.57-1.4-1.16-2.11-1.74-.71-.59-1.4-1.2-2.16-1.72-1.48-1.09-2.94-2.16-4.31-3.17-1.33-1.05-2.73-1.85-3.88-2.66a67.99 67.99 0 0 1-2.93-2.04l-.22-.16c-.74-.59-1.78-1.23-2.93-2.05-1.16-.8-2.45-1.73-3.84-2.74-.67-.53-1.43-.97-2.19-1.46s-1.52-.99-2.3-1.48c-.77-.5-1.55-1.01-2.32-1.52-.39-.25-.78-.5-1.16-.76-.39-.23-.79-.46-1.19-.68-1.56-.91-3.08-1.79-4.48-2.61-.7-.41-1.36-.81-1.99-1.19-.64-.33-1.24-.65-1.8-.94-2.21-1.17-3.6-1.96-3.56-2.07.04-.11 1.6.26 4.04.93zm-22.62 43.21l.93-1.55c.6-.97 1.08-1.99 1.64-3 1.53-3.05 2.9-7.02 3.66-11.54.77-4.52.93-9.6.27-14.71-.56-4.49-1.77-8.99-3.5-13.08 2.5 1.42 5.33 3.08 8.39 4.65 1.84.89 3.65 2.04 5.54 3.06 1.87 1.05 3.84 2 5.67 3.18 1.86 1.12 3.73 2.2 5.57 3.25 1.76 1.16 3.51 2.27 5.19 3.33 1.73 1 3.23 2.16 4.71 3.16.74.5 1.46.97 2.15 1.44.7.44 1.36.88 1.96 1.35 4.96 3.44 11.77 8.4 18.11 14.02 3.04 2.68 5.98 5.5 8.67 8.24l-12.35.59-6.19 6.13 21.14-.81-2.24 2.2c-1.17 1.11-1.21 2.96-.1 4.12s2.96 1.21 4.13.09l3.8-3.73 1 1.01.05.06-5.73 5.62a2.931 2.931 0 0 0-.1 4.13 2.93 2.93 0 0 0 4.13.09l4.98-4.88.07.47c.06.47.09.96.13 1.43l-6.06 5.94a2.92 2.92 0 0 0-.1 4.12 2.931 2.931 0 0 0 4.13.1l2.53-2.49c.01.29.03.59.05.89.02.36.04.73.07 1.1l-16.31 16.01 7.07 1.22 9.57-9.39c.02.41 0 .83 0 1.24 0 .5-.02 1.02-.04 1.53 0 1.02-.02 2.05-.03 3.08-.01 1.03-.16 2.07-.21 3.09-.07 1.03-.13 2.05-.19 3.07-.14 1.01-.27 2.02-.41 3.02-.13.99-.25 1.97-.38 2.93-.19.96-.37 1.9-.56 2.82-.17.93-.33 1.83-.5 2.71-.22.87-.44 1.71-.65 2.53-.2.82-.39 1.62-.57 2.38-.16.77-.44 1.47-.64 2.16-.2.69-.41 1.42-.62 2.16-.22.76-.39 1.56-.7 2.35-.59 1.58-1.11 3.31-1.76 5.07-.76 1.72-1.44 3.56-2.24 5.4-.44.9-.88 1.82-1.33 2.73l-.66 1.39c-.21.47-.43.94-.7 1.38l-1.51 2.71-.74 1.36-.36.69-.41.64c-1.12 1.72-2.15 3.48-3.22 5.15-1.13 1.61-2.21 3.19-3.19 4.73-1.03 1.5-2.07 2.85-2.93 4.19-.71 1.06-1.39 2.19-2.21 3.16l-1.86 2.39-.04-.05c-1.08.4-2.13.82-3.22 1.18l-3.11.9c-.76.21-1.56.46-2.36.73-.81.27-1.64.56-2.56.83-1.81.55-3.7 1.2-5.65 1.87-1.98.63-4 1.33-6.05 2.04-2.07.64-4.16 1.36-6.24 2.04-8.35 2.71-16.69 4.93-22.63 6.47-5.93 1.55-14.27 3.68-22.84 5.29-8.56 1.64-17.34 2.86-23.69 4.25-1.27.27-2.56.52-3.85.78l-1.11.21-.18-.99-.44-2.44c-1.76-9.68-8.73-25.32-13.38-33.58-4.68-8.2-14.69-22.34-22.4-28.63l-.32-.26 1.79-1.49.02.06c1.15-.16 2.29-.36 3.43-.56 1.07-.19 2.15-.36 3.22-.58 6.39-1.21 14.96-4.45 23.06-8.67 4.05-2.09 7.98-4.43 11.55-6.73 3.54-2.33 6.73-4.61 9.27-6.65 5.1-4.06 11.79-10.36 17.66-17.44 5.89-7.05 10.96-14.94 13.13-21.48l.62-1.99c.2-.67.37-1.37.55-2.04.14-.51.24-1.1.36-1.64.11-.54.21-1.09.27-1.68l.05.02.56-.84c.19-.28.32-.51.48-.78zm-89.21 126.2c-11.01-3.6-22.03-7.39-29.96-9.91-7.93-2.53-19.17-5.87-30.51-9.05-5.13-1.43-10.28-2.82-15.16-4.05 2.73-.33 5.53-.76 8.3-1.27 8.85-1.58 17.48-3.87 23.48-5.84 6.02-1.97 14.27-5.23 22.28-8.96 4.01-1.86 7.96-3.84 11.55-5.82 1.8-.99 3.48-1.95 5.1-2.95.07-.04.14-.09.21-.13 1.81 9.73 8.45 24.99 13.05 33.09 3.59 6.33 10.4 16.06 16.88 23.06-7.24-2.42-16.25-5.22-25.23-8.19zm8.26 10.89c-.03.13-2.06-.1-5.26-.55-3.22-.41-7.55-1.2-12.2-2.07-9.29-1.79-19.68-4.47-24.46-5.96l-.34-.1c-2.39-.78-6.08-2.11-10.26-3.73-4.17-1.64-8.83-3.54-13.16-5.42a371.26 371.26 0 0 1-11.28-5.03c-2.9-1.33-4.71-2.28-4.71-2.41.04-.12 2.02.41 5.14 1.24 3.12.87 7.35 2.07 11.87 3.33 4.53 1.29 9.35 2.66 13.63 3.87 4.28 1.22 8.04 2.27 10.4 3.04l.33.1c4.74 1.48 14.7 5.18 23.62 8.12 4.46 1.45 8.62 2.87 11.7 3.81 3.05.96 4.99 1.64 4.99 1.76zm-85.55-41.5c0-.13 1.39-.72 3.59-1.6 2.24-.89 5.26-2.08 8.48-3.36 6.47-2.55 13.78-5.47 17.28-6.62l.24-.08c3.5-1.13 11.13-3.12 17.9-4.81 3.39-.84 6.56-1.62 8.89-2.14 2.33-.52 3.83-.81 3.87-.7.04.11-1.3.84-3.47 1.87-2.16 1.04-5.11 2.42-8.3 3.84-6.39 2.84-13.7 5.87-17.22 7.02l-.25.08c-3.52 1.16-11.22 3.06-18.08 4.45-3.43.7-6.65 1.28-9.02 1.64-2.37.36-3.89.53-3.92.4zm59.82-45.15c-3.2-3.84-6.83-8.11-8.36-10.24l-.1-.15c-1.51-2.13-4.37-6.95-7.04-11.14-2.63-4.22-5.08-7.82-4.9-7.99.17-.16 3.62 2.55 7.25 6.07 3.66 3.5 7.49 7.77 9.03 9.96l.11.15c1.56 2.18 4.35 7.17 6.55 11.7 2.22 4.52 3.91 8.55 3.7 8.68-.21.13-3.04-3.19-6.25-7.02zm32.32 57.32l-.1-.17c-1.39-2.44-3.85-7.91-5.93-12.8-2.07-4.88-3.75-9.19-3.54-9.31.43-.24 11.36 14.6 14.12 19.47l.1.17c1.39 2.44 3.87 7.9 5.97 12.76 2.1 4.87 3.84 9.16 3.62 9.28-.44.26-11.5-14.51-14.24-19.4zm8.42-49.7c-.07-.12 1.13-1.05 2.99-2.56 1.87-1.48 4.42-3.5 7.1-5.7 5.39-4.38 11.25-9.54 14.09-11.84l.2-.16c2.87-2.27 9.2-6.84 14.64-11.14 2.71-2.16 5.25-4.19 7.07-5.72 1.86-1.5 3.02-2.49 3.12-2.39.07.07-.75 1.36-2.22 3.25-1.44 1.93-3.55 4.44-5.88 7.08-4.67 5.25-10.45 10.79-13.38 13.11l-.21.16c-2.9 2.35-9.58 6.75-15.72 10.16-3.06 1.72-5.98 3.22-8.15 4.24-2.16 1.05-3.59 1.59-3.64 1.5zm27.14-123.08c.68.07 1.66.19 2.86.35 1.19.19 2.59.52 4.13.86 1.5.47 3.2.87 4.86 1.56.83.33 1.71.61 2.54 1.01.84.39 1.67.79 2.51 1.18.83.41 1.61.9 2.41 1.34.39.22.78.45 1.16.67.37.25.73.5 1.09.74.71.5 1.42.96 2.07 1.44.62.52 1.22 1.01 1.77 1.47 1.14.9 1.97 1.85 2.65 2.56l.19.2c1.33 1.44 3.16 3.95 4.8 7.02 1.66 3.07 2.99 6.76 3.8 10.25.81 3.51 1.18 6.82 1.2 9.25.04 2.42-.1 3.94-.21 3.95-.14 0-.44-1.5-1.02-3.78-.56-2.3-1.54-5.36-2.86-8.47-1.33-3.11-3.05-6.25-4.89-8.79a59.093 59.093 0 0 0-4.8-5.85l-.16-.18c-.61-.61-1.28-1.51-2.23-2.39l-1.44-1.47c-.53-.5-1.1-.99-1.69-1.51-.29-.27-.59-.53-.89-.8-.32-.25-.64-.5-.97-.76-.66-.5-1.31-1.05-2.01-1.54-.7-.48-1.42-.97-2.13-1.45-.7-.5-1.47-.89-2.19-1.34-1.44-.91-2.94-1.58-4.28-2.3-1.39-.61-2.66-1.21-3.76-1.65-1.1-.42-2.01-.79-2.63-1.05-.63-.27-.99-.39-.97-.46 0-.05.4-.1 1.08-.04zm-86.09 47.99c1.03-2.16 2.53-5.08 4.31-8.13 1.75-3.06 3.81-6.22 5.77-8.96.98-1.37 1.93-2.64 2.82-3.72.86-1.1 1.67-2.01 2.32-2.7l.18-.19c.64-.7 1.51-1.55 2.55-2.49 1.01-.96 2.25-1.97 3.55-3.05 2.65-2.1 5.72-4.34 8.77-6.16 3.03-1.84 5.96-3.36 8.17-4.33 2.2-.99 3.65-1.46 3.71-1.36.05.11-1.19.99-3.08 2.43-1.9 1.41-4.43 3.43-7.01 5.7-2.59 2.25-5.17 4.84-7.42 7.15-1.1 1.19-2.16 2.27-3.04 3.27-.9.99-1.68 1.84-2.29 2.5l-.18.19c-.62.65-1.42 1.49-2.35 2.45-.94.96-1.99 2.06-3.1 3.25-2.21 2.38-4.67 5.1-6.88 7.76-2.23 2.64-4.25 5.18-5.74 7.05-1.49 1.86-2.46 3.04-2.56 2.98-.11-.07.47-1.47 1.5-3.64zm-9.56 24.51l2.47-2.63 2.18-2.29c4.35-4.53 9.58-11.33 14.89-17.8 5.3-6.47 10.72-12.55 14.64-16.66 3.84-4.19 9.42-9.85 15.54-14.9 2.75-2.31 5.62-4.44 8.41-6.36l-2.43 9.84 4.1 7.68 5.27-20.48 1.47 2.77c.73 1.43 2.49 2 3.93 1.27 1.43-.73 2-2.49 1.27-3.93l-2.33-4.42c.41-.24.83-.47 1.25-.73.01 0 .02-.01.04-.02l3.62 6.86a2.91 2.91 0 0 0 3.93 1.27c1.43-.73 2-2.49 1.27-3.93l-2.56-4.85.87.16 1.03.25 3.23 6.13c.73 1.44 2.49 2 3.92 1.27a2.91 2.91 0 0 0 1.27-3.93l-.8-1.51c.67.19 1.35.39 2.03.61l9.73 18.43 3.19-6.43-4.73-8.97c.84.38 1.68.77 2.5 1.19 3.31 1.67 6.36 3.62 8.92 5.62.32.24.64.49.96.73.3.27.59.53.88.78.56.52 1.17.96 1.66 1.49.5.5 1 .99 1.49 1.44.44.5.86.96 1.27 1.4.21.22.43.44.64.67.19.24.4.49.6.74.41.52.89 1 1.3 1.58.41.57.87 1.14 1.3 1.76.4.64.86 1.27 1.27 1.95 1.67 2.71 3.2 5.92 4.39 9.37 1.2 3.45 2.07 7.13 2.64 10.67.58 3.54.86 6.93 1.14 9.85.08 1.17.2 2.37.19 3.56.01.86.04 1.78 0 2.49l.05.02c-.3.39-.68.78-1.04 1.16-.35.38-.75.76-1.16 1.13-.67.65-1.44 1.29-2.18 1.91-4.47 3.7-10.83 9.07-17.4 14.31-6.54 5.25-13.24 10.38-17.94 14.11-4.62 3.76-11.1 9.04-17.75 14.46-6.57 5.33-13.25 10.55-17.8 14.74-.91.85-1.84 1.67-2.79 2.51-.67.61-1.36 1.21-2.04 1.79l.02.05c-1.19.16-2.35.33-3.53.47h-.06l-.24-1.5c-.74-4.67-2.87-10.75-5.56-16.62-2.68-5.87-5.96-11.51-8.67-15.3-2.71-3.78-7.02-8.81-11.99-13.26-4.95-4.46-10.56-8.28-15.13-10.02-.92-.35-1.82-.7-2.74-1.01l.17-.9-.06-.03zm-2.39 11.86c1.88 3.5 4.35 7.48 6.82 11.45 3.17 5.07 6.39 10.13 8.89 13.64 2.5 3.49 6.29 8.26 10.32 12.96 3.17 3.68 6.51 7.31 9.59 10.07-.9.15-1.83.3-2.76.47-4.01.73-8.3 1.65-12.55 2.66-8.51 2.04-16.92 4.4-22.8 6.31-5.88 1.94-13.99 5.01-21.98 8.18-4 1.61-7.98 3.22-11.68 4.82l-1.5.66c7.83-9.78 16.61-23.31 21.37-31.99 3.01-5.51 6.85-13.49 10.19-21.7 2.46-6.04 4.65-12.21 6.09-17.54zm-10.18 6.5c.1.05-.38 1.5-1.25 3.73-.86 2.23-2.09 5.26-3.47 8.47-2.75 6.43-6.04 13.62-7.82 16.87l-.13.23c-1.77 3.24-6.06 9.88-9.95 15.68-1.95 2.9-3.8 5.59-5.19 7.53-1.39 1.96-2.31 3.16-2.42 3.1-.11-.06.41-1.49 1.33-3.7.91-2.22 2.2-5.21 3.62-8.4 2.83-6.39 6.16-13.54 7.92-16.78l.13-.23c1.78-3.24 6.02-9.88 9.83-15.73 1.91-2.92 3.7-5.64 5.05-7.62s2.24-3.22 2.35-3.16zm-24.86-29.15c3.44.55 7.3 1.3 9.03 1.9l.12.04c3.45 1.19 14 7.16 13.85 7.61-.16.46-12.14-1.36-15.59-2.56l-.12-.04c-1.61-.56-4.79-2.16-7.7-3.76l-1.27-3.44c.55.07 1.12.16 1.69.26zm-44.14 1.9l.13-.04c1.72-.59 5.58-1.35 9.02-1.9.76-.13 1.52-.24 2.24-.33l-1.24 3.19c-3.04 1.7-6.54 3.48-8.27 4.08l-.12.04c-3.45 1.19-15.43 3.02-15.59 2.56-.16-.46 10.39-6.42 13.84-7.62zm-15.8 27.25c.11-.06.99 1.18 2.34 3.16 1.35 1.98 3.14 4.7 5.05 7.62 3.81 5.85 8.05 12.49 9.83 15.73l.13.23c1.77 3.24 5.09 10.39 7.93 16.78 1.42 3.19 2.7 6.19 3.61 8.4.91 2.22 1.44 3.64 1.33 3.7-.11.06-1.04-1.15-2.42-3.1-1.39-1.95-3.23-4.64-5.18-7.53-3.9-5.79-8.19-12.43-9.96-15.68l-.13-.22c-1.79-3.24-5.07-10.44-7.82-16.87-1.38-3.21-2.61-6.24-3.47-8.47-.87-2.23-1.35-3.68-1.24-3.73zm-4.09 11.05c3.33 8.21 7.17 16.19 10.18 21.7 4.76 8.68 13.54 22.22 21.37 31.99-.5-.22-.99-.44-1.5-.66-3.7-1.61-7.68-3.22-11.68-4.82-7.99-3.17-16.11-6.24-21.99-8.18-5.88-1.91-14.28-4.27-22.8-6.31-4.26-1.01-8.54-1.93-12.55-2.67-.96-.17-1.9-.33-2.83-.47 3.13-2.77 6.52-6.45 9.73-10.19 4.03-4.7 7.82-9.48 10.33-12.96 2.5-3.5 5.72-8.56 8.89-13.62 2.44-3.91 4.88-7.83 6.76-11.29 1.44 5.33 3.62 11.47 6.07 17.48zm6.75 70.36c-11.33 3.18-22.57 6.51-30.51 9.05-7.93 2.52-18.95 6.3-29.95 9.91-8.99 2.98-18 5.78-25.24 8.19 6.49-6.99 13.3-16.73 16.88-23.06 4.59-8.1 11.25-23.35 13.05-33.09.07.04.14.09.21.13 1.62 1 3.3 1.96 5.11 2.95 3.59 1.98 7.53 3.96 11.54 5.81 8.01 3.73 16.26 6.99 22.28 8.96 6 1.96 14.64 4.26 23.48 5.84 2.78.51 5.58.93 8.3 1.27-4.87 1.22-10.02 2.62-15.16 4.05zm12.95 4.56c0 .13-1.81 1.07-4.71 2.41-2.93 1.36-6.93 3.19-11.28 5.03-4.33 1.88-8.99 3.78-13.16 5.42-4.18 1.62-7.88 2.96-10.26 3.73l-.34.11c-4.79 1.49-15.17 4.17-24.46 5.96-4.65.87-8.99 1.67-12.19 2.07-3.21.44-5.24.68-5.27.55 0-.11 1.93-.79 4.99-1.76 3.07-.94 7.24-2.36 11.7-3.81 8.92-2.94 18.88-6.64 23.63-8.12l.33-.1c2.36-.78 6.11-1.83 10.4-3.04 4.27-1.22 9.1-2.59 13.63-3.87 4.51-1.27 8.75-2.46 11.86-3.33 3.12-.84 5.1-1.36 5.14-1.24zm-102.5 15.36c-.21-.13 1.53-4.41 3.62-9.28 2.1-4.87 4.59-10.33 5.97-12.76l.1-.17c2.76-4.87 13.69-19.71 14.12-19.47.21.12-1.47 4.43-3.54 9.32-2.07 4.88-4.54 10.36-5.93 12.79l-.1.17c-2.74 4.9-13.8 19.66-14.24 19.4zm44.09-78.5c2.21-4.53 4.99-9.52 6.56-11.69l.11-.16c1.54-2.18 5.38-6.45 9.04-9.95 3.64-3.52 7.09-6.22 7.26-6.06.19.17-2.27 3.76-4.9 7.99-2.67 4.2-5.53 9-7.05 11.13l-.11.16c-1.52 2.12-5.16 6.4-8.36 10.23-3.22 3.82-6.05 7.15-6.25 7.02-.21-.13 1.49-4.16 3.7-8.68zm58.36 46.53c-2.36-.36-5.59-.94-9.02-1.64-6.87-1.39-14.57-3.3-18.08-4.45l-.25-.08c-3.53-1.14-10.84-4.18-17.22-7.02-3.19-1.42-6.15-2.8-8.3-3.84-2.16-1.04-3.5-1.76-3.46-1.87.04-.12 1.53.18 3.87.7 2.34.53 5.5 1.3 8.89 2.14 6.77 1.69 14.39 3.67 17.9 4.81l.24.08c3.5 1.15 10.81 4.07 17.28 6.62 3.22 1.27 6.25 2.47 8.49 3.36 2.19.88 3.59 1.47 3.59 1.6-.03.13-1.55-.04-3.92-.4zM857.04 38.79c2.21.96 5.14 2.48 8.18 4.33 3.04 1.82 6.11 4.07 8.76 6.16 1.3 1.08 2.53 2.09 3.55 3.05 1.04.94 1.91 1.79 2.55 2.49l.18.19c.65.7 1.46 1.6 2.32 2.7.89 1.08 1.84 2.35 2.82 3.72 1.96 2.73 4.02 5.9 5.76 8.96 1.78 3.04 3.28 5.96 4.31 8.13 1.04 2.17 1.62 3.58 1.5 3.64-.1.06-1.07-1.12-2.56-2.98-1.49-1.87-3.51-4.41-5.74-7.05-2.22-2.66-4.67-5.39-6.88-7.76-1.11-1.19-2.16-2.3-3.1-3.25-.93-.96-1.73-1.8-2.35-2.45l-.18-.19c-.61-.66-1.39-1.51-2.29-2.5-.88-1.01-1.94-2.09-3.04-3.27-2.25-2.31-4.83-4.9-7.42-7.15-2.58-2.27-5.1-4.28-7.01-5.7-1.9-1.44-3.13-2.32-3.08-2.43.06-.1 1.51.37 3.71 1.36zm-39.45-2.41c.68-.21 1.35-.4 2.01-.58l-.95 1.79a2.93 2.93 0 0 0 1.27 3.93c1.44.73 3.19.17 3.93-1.27l3.36-6.37c.11-.03.21-.04.32-.07l1.56-.28-2.65 5.03a2.93 2.93 0 0 0 1.27 3.93c1.44.73 3.19.16 3.93-1.27l3.42-6.47c.43.26.87.5 1.29.76l-2.13 4.03a2.921 2.921 0 0 0 1.27 3.93c1.43.73 3.19.16 3.92-1.27l1.47-2.77 5.27 20.48 4.1-7.68-2.24-9.1c2.45 1.73 4.95 3.6 7.35 5.62 6.12 5.05 11.7 10.71 15.54 14.9 3.93 4.11 9.35 10.19 14.64 16.66 5.31 6.46 10.55 13.27 14.89 17.8l2.62 2.75 2.03 2.17-.06.03.16.84-.31.11-2.3.86c-4.57 1.73-10.19 5.55-15.14 10-4.96 4.45-9.28 9.47-11.99 13.25-2.72 3.79-6 9.42-8.68 15.3-2.7 5.86-4.83 11.95-5.57 16.62l-.26 1.64-.74-.08-2.9-.39.02-.05c-.86-.71-1.69-1.46-2.52-2.2-.78-.7-1.56-1.39-2.32-2.09-4.55-4.2-11.23-9.42-17.8-14.75l-17.74-14.46c-4.7-3.73-11.4-8.85-17.94-14.11-6.57-5.24-12.93-10.6-17.4-14.31l-1.33-1.13c-.44-.39-.84-.77-1.27-1.17-.35-.31-.61-.61-.93-.93l-.45-.48c-.15-.16-.27-.31-.4-.47l.05-.02c-.04-.87 0-2.06.02-3.09 0-.99.13-1.99.18-2.96.28-2.92.56-6.31 1.14-9.85.57-3.54 1.44-7.22 2.64-10.67 1.19-3.45 2.72-6.66 4.39-9.37.42-.68.87-1.31 1.27-1.95.43-.62.89-1.19 1.3-1.76.41-.58.89-1.06 1.3-1.58.2-.25.41-.5.6-.74.21-.24.43-.45.64-.67.41-.44.83-.9 1.27-1.4.49-.45.99-.93 1.49-1.44.49-.53 1.1-.97 1.67-1.49.28-.25.58-.51.87-.78.31-.24.64-.48.96-.73 2.56-2.01 5.61-3.96 8.93-5.62 1.19-.6 2.39-1.15 3.62-1.67l-4.99 9.45 3.19 6.43 9.91-18.74zm18.94 117.22c-.05.09-1.49-.45-3.64-1.5-2.17-1.02-5.08-2.52-8.15-4.24-6.14-3.42-12.82-7.82-15.72-10.16l-.21-.16c-2.93-2.32-8.7-7.85-13.38-13.11-2.33-2.64-4.44-5.15-5.88-7.08-1.47-1.89-2.3-3.19-2.22-3.25.1-.1 1.25.89 3.11 2.39 1.82 1.53 4.36 3.56 7.07 5.72 5.44 4.3 11.77 8.88 14.64 11.14l.2.16c2.84 2.3 8.7 7.45 14.1 11.83 2.68 2.2 5.23 4.22 7.1 5.7 1.85 1.5 3.06 2.44 2.99 2.56zm-65.19-83.19c.02-2.42.39-5.73 1.2-9.25.82-3.5 2.14-7.19 3.8-10.25 1.64-3.07 3.47-5.58 4.8-7.02l.19-.2c.68-.7 1.51-1.66 2.65-2.56.56-.46 1.15-.95 1.78-1.47.64-.48 1.35-.95 2.06-1.44.36-.24.72-.49 1.09-.74.39-.22.78-.45 1.17-.67.79-.44 1.58-.93 2.4-1.34.84-.39 1.67-.79 2.51-1.18.83-.4 1.71-.68 2.54-1.01 1.66-.68 3.36-1.08 4.86-1.55 1.55-.34 2.94-.67 4.13-.86 1.21-.16 2.18-.28 2.86-.35.68-.06 1.07-.01 1.09.04.01.07-.35.19-.98.46-.62.27-1.53.63-2.63 1.05-1.1.44-2.36 1.04-3.75 1.65-1.35.73-2.85 1.39-4.29 2.3-.72.45-1.48.84-2.19 1.34-.71.48-1.43.97-2.13 1.45-.7.49-1.35 1.04-2.01 1.54-.33.26-.65.51-.97.76-.3.27-.6.53-.89.8-.59.53-1.16 1.01-1.69 1.51l-1.44 1.47c-.95.88-1.62 1.78-2.23 2.39l-.16.18c-1.18 1.27-2.98 3.3-4.8 5.85-1.84 2.54-3.56 5.67-4.89 8.79-1.32 3.11-2.3 6.17-2.86 8.47-.58 2.27-.88 3.78-1.02 3.78-.1 0-.25-1.53-.21-3.95zM699 88.45c.36-.61.83-1.56 1.59-2.56.75-1.03 1.62-2.24 2.59-3.57.5-.65.98-1.38 1.56-2.04a836.312 836.312 0 0 1 3.65-4.19c.63-.72 1.25-1.45 1.95-2.1 1.37-1.33 2.72-2.64 3.99-3.86 1.25-1.27 2.6-2.24 3.73-3.19 1.15-.92 2.16-1.7 2.96-2.29l.22-.16c.79-.61 1.9-1.23 3.16-1.98 1.27-.73 2.72-1.55 4.27-2.41.76-.45 1.6-.81 2.44-1.21.84-.39 1.7-.79 2.56-1.18.87-.39 1.73-.79 2.59-1.18.44-.19.87-.39 1.3-.58.44-.17.87-.33 1.31-.5 1.73-.63 3.42-1.24 4.96-1.82.77-.27 1.5-.53 2.2-.78.7-.2 1.37-.39 1.98-.56 2.44-.67 3.99-1.04 4.04-.93.04.11-1.35.9-3.56 2.07-.56.29-1.16.61-1.8.94-.63.38-1.3.77-1.99 1.19-1.39.81-2.91 1.7-4.48 2.61-.39.22-.79.45-1.19.68-.39.25-.77.5-1.16.76-.78.5-1.56 1.01-2.33 1.52-.78.5-1.54.99-2.3 1.48-.76.49-1.51.93-2.19 1.46-1.39 1.01-2.68 1.94-3.84 2.74-1.15.82-2.19 1.46-2.93 2.05l-.22.16c-.76.56-1.76 1.26-2.93 2.04-1.15.8-2.55 1.6-3.88 2.65-1.37 1.01-2.83 2.08-4.31 3.17-.76.52-1.45 1.13-2.16 1.72-.71.59-1.41 1.17-2.11 1.74-.7.58-1.39 1.14-2.07 1.69-.67.55-1.25 1.16-1.85 1.7-1.19 1.09-2.27 2.08-3.19 2.93-.96.81-1.62 1.59-2.15 2.07-.51.49-.82.76-.87.72-.05-.04.13-.41.47-1.04zm-2.1 104.7c-.27-.24-.61-.52-.96-.89-.34-.37-.72-.8-1.14-1.27-.84-.96-1.84-2.08-2.92-3.32-1.04-1.27-2.04-2.77-3.15-4.27-4.27-6.13-7.9-13.99-8.84-17.9l-.08-.27a78.9 78.9 0 0 0-.47-1.64c-.16-.61-.24-1.3-.39-2.04-.24-1.47-.52-3.12-.77-4.89-.11-1.78-.22-3.67-.34-5.59-.09-.95-.02-1.92 0-2.87l.09-2.84c0-1.87.3-3.66.5-5.3.23-1.64.36-3.12.69-4.36.56-2.46.96-4 1.09-4 .12.02.16 1.63.15 4.11-.06 1.24.11 2.72.19 4.33.11 1.6.13 3.34.42 5.13.12.89.23 1.8.35 2.7.13.91.2 1.82.41 2.71.36 1.79.71 3.55 1.04 5.21.44 1.63.85 3.15 1.22 4.5.18.67.31 1.3.49 1.87s.34 1.07.48 1.52l.07.26c.88 3.64 3.24 11.33 6.33 17.85.81 1.6 1.51 3.22 2.28 4.62.8 1.39 1.53 2.67 2.15 3.75.3.55.58 1.04.82 1.49.25.44.5.79.68 1.09.38.61.56.97.52 1.01-.05.04-.37-.21-.91-.69zm100.72 44.95c-.36.04-.79.08-1.3.13-.5.02-1.07.04-1.7.07-1.27.04-2.76.08-4.39.13-1.64-.01-3.42-.07-5.27-.12-3.7-.17-7.65-.47-11.14-.99-.88-.13-1.73-.24-2.53-.36-.81-.15-1.57-.29-2.29-.43-1.44-.28-2.67-.54-3.64-.77l-.27-.07c-.95-.27-2.16-.64-3.55-1.1-.69-.23-1.43-.47-2.21-.73-.77-.28-1.56-.6-2.38-.93-3.3-1.24-6.9-2.9-10.22-4.52-1.64-.85-3.22-1.68-4.67-2.44-1.44-.79-2.71-1.57-3.8-2.22-1.07-.65-1.96-1.19-2.55-1.59-.59-.41-.9-.67-.87-.73.03-.06.42.04 1.1.27.68.21 1.67.52 2.85.92 1.19.39 2.58.9 4.12 1.4 1.54.49 3.22 1.02 4.96 1.57 3.48 1.02 7.19 2.1 10.51 2.91.83.21 1.64.42 2.4.62.77.18 1.5.35 2.19.5 1.38.33 2.56.63 3.48.89l.26.06c.93.22 2.11.54 3.47.93.68.2 1.4.41 2.16.63.76.2 1.57.4 2.39.61 3.3.91 7.06 1.77 10.61 2.54 1.78.36 3.5.7 5.09 1.01 1.59.27 3.04.53 4.28.74.61.12 1.18.22 1.67.32.49.08.92.16 1.27.21.7.13 1.1.22 1.1.29 0 .06-.41.13-1.12.21zm-6.35-9.42c-8.58-1.61-16.91-3.74-22.85-5.29-5.93-1.53-14.28-3.76-22.62-6.47-2.08-.69-4.16-1.4-6.24-2.04-2.05-.72-4.07-1.42-6.05-2.04-1.96-.67-3.85-1.33-5.65-1.87-.93-.27-1.75-.56-2.56-.83-.81-.27-1.61-.51-2.37-.73-1.23-.36-2.5-.69-3.72-1.1l-2.62-.98-.04.05-2.25-2.89c-.67-.82-1.22-1.78-1.82-2.65-.85-1.33-1.9-2.68-2.93-4.18-.99-1.54-2.06-3.13-3.19-4.73-1.07-1.67-2.09-3.43-3.22-5.14l-.41-.65-.37-.69-.74-1.36-1.5-2.71c-.27-.44-.49-.9-.7-1.38l-.65-1.39c-.45-.92-.89-1.83-1.33-2.73-.8-1.84-1.48-3.68-2.23-5.4-.66-1.76-1.18-3.5-1.76-5.07-.32-.79-.49-1.59-.7-2.34l-.63-2.17c-.19-.69-.48-1.39-.64-2.16-.19-.76-.37-1.56-.56-2.38-.21-.82-.43-1.67-.66-2.53-.16-.88-.33-1.79-.5-2.71-.19-.92-.37-1.86-.56-2.82-.13-.96-.24-1.94-.37-2.93-.13-.99-.27-2-.41-3.02-.07-1.01-.13-2.04-.2-3.07-.06-1.02-.2-2.06-.21-3.09 0-1.03-.02-2.06-.03-3.08-.01-.51-.03-1.02-.04-1.53 0-.14-.01-.29-.01-.43l8.75 8.58 7.08-1.22-15.54-15.26c.05-.63.09-1.24.13-1.85v-.12l1.76 1.72a2.91 2.91 0 0 0 4.12-.1 2.91 2.91 0 0 0-.09-4.12l-5.29-5.19.08-1.11c0-.28.04-.56.07-.83l4.26 4.17a2.919 2.919 0 0 0 4.12-.09 2.922 2.922 0 0 0-.09-4.13l-5.28-5.18c.21-.24.41-.49.65-.73l.37-.37 3.38 3.32a2.91 2.91 0 0 0 4.12-.09 2.91 2.91 0 0 0-.09-4.12l-2.24-2.2 21.14.81-6.19-6.13-11.56-.56c2.7-2.74 5.65-5.58 8.7-8.28 6.33-5.62 13.15-10.58 18.11-14.02.59-.47 1.26-.9 1.96-1.35.69-.47 1.41-.94 2.15-1.44 1.48-.99 2.99-2.16 4.71-3.16 1.68-1.05 3.43-2.16 5.19-3.33 1.84-1.05 3.71-2.13 5.58-3.25 1.83-1.18 3.79-2.12 5.67-3.18 1.9-1.01 3.7-2.17 5.54-3.05 3.07-1.57 5.9-3.24 8.4-4.66-1.73 4.09-2.93 8.59-3.5 13.09-.65 5.1-.5 10.19.27 14.71.76 4.53 2.13 8.49 3.66 11.54.65 1.23 1.27 2.44 1.99 3.59.5.84.97 1.64 1.62 2.58l.05-.02c.07.72.21 1.36.35 2.04.13.68.29 1.33.46 1.96.28 1.16.64 2.24.99 3.35 2.17 6.56 7.25 14.44 13.13 21.48 5.87 7.08 12.57 13.39 17.66 17.45 2.53 2.04 5.73 4.32 9.27 6.65 3.57 2.3 7.5 4.64 11.55 6.73 8.1 4.22 16.67 7.46 23.06 8.67 1.29.25 2.59.46 3.87.69.92.17 1.85.31 2.79.44l.02-.05c.59.49 1.19.99 1.79 1.48l-.32.26c-7.7 6.29-17.71 20.43-22.4 28.63-4.65 8.26-11.62 23.9-13.37 33.58l-.53 2.93-.09.5-1.76-.35c-1.07-.21-2.14-.41-3.21-.64-6.35-1.39-15.13-2.6-23.68-4.25zm-12.34 72.11c1.12-1.97 2.67-4.62 4.36-7.45 3.35-5.67 7.16-12.04 9.13-14.91l.13-.21c1.97-2.86 6.6-8.68 10.68-13.84 2.06-2.56 3.98-4.97 5.42-6.71 1.44-1.74 2.39-2.82 2.5-2.76.1.07-.47 1.39-1.45 3.42-.99 2.04-2.37 4.8-3.93 7.71-3.08 5.85-6.83 12.33-8.82 15.21l-.14.2c-1.98 2.9-6.72 8.69-11.07 13.66-2.2 2.47-4.27 4.76-5.82 6.4-1.58 1.63-2.62 2.63-2.71 2.56-.1-.07.58-1.35 1.71-3.3zm-67.25 75.8c1.44-1.73 3.46-4.06 5.63-6.53 2.14-2.49 4.42-5.15 6.49-7.47 2.04-2.35 3.82-4.4 5.04-5.64l.17-.18c.61-.62 1.41-1.39 2.35-2.27.92-.9 1.98-1.9 3.11-2.96 2.28-2.11 4.88-4.46 7.27-6.72 4.85-4.44 9.04-8.35 9.23-8.18.1.07-.67 1.3-1.93 3.18-1.24 1.9-3.08 4.38-5.05 7.04-1.96 2.67-4.14 5.44-6.13 7.86-.99 1.22-1.93 2.35-2.78 3.34-.86.98-1.62 1.8-2.24 2.43l-.17.18c-1.23 1.24-3.23 3.13-5.59 5.2-2.39 2.04-5.09 4.3-7.67 6.38-2.62 2.03-5.07 3.9-6.89 5.25-1.83 1.33-3.06 2.1-3.13 2.02-.09-.1.84-1.2 2.29-2.93zm-82.29 65.45c-.07-.1.97-1.1 2.64-2.62 1.68-1.51 3.99-3.56 6.48-5.71 5-4.28 10.65-9.13 13.47-11.17l.2-.15c2.79-2.07 9.09-6.03 14.65-9.55 2.78-1.73 5.39-3.34 7.33-4.54 1.93-1.17 3.19-1.87 3.27-1.77s-.9 1.15-2.5 2.75c-1.59 1.61-3.82 3.76-6.25 5.98-4.85 4.5-10.53 9.36-13.34 11.45l-.19.15c-2.83 2.05-9.16 6.04-14.88 9.33-2.85 1.66-5.53 3.19-7.53 4.25-1.99 1.07-3.29 1.7-3.36 1.6zm69.39 3.02c-2.39.91-5.7 2.04-9.25 3.26-1.79.59-3.63 1.21-5.45 1.82-1.84.52-3.68.99-5.41 1.44-3.45.88-6.5 1.61-8.46 1.99l-.27.06c-1.97.36-5.1.58-8.66.87-1.77.13-3.66.26-5.58.39l-1.44.08h-4.3c-3.76 0-7.25-.05-9.81-.13-2.56-.19-4.19-.4-4.19-.52 0-.13 1.61-.37 4.13-.72 2.52-.47 5.95-1.07 9.61-1.66.91-.15 1.84-.3 2.78-.44l1.4-.22 1.39-.29c1.86-.38 3.68-.76 5.4-1.11 3.44-.7 6.46-1.19 8.39-1.53l.27-.06c1.92-.37 4.96-.81 8.43-1.27 1.74-.22 3.59-.45 5.47-.69 1.86-.32 3.75-.64 5.58-.95 3.66-.61 7.1-1.13 9.64-1.51 2.5-.48 4.1-.74 4.14-.62 0 .13-1.47.81-3.81 1.82zm103.56-49.67c-1.96 1.64-4.67 3.85-7.62 6.19-.73.58-1.47 1.19-2.24 1.76-.79.56-1.56 1.11-2.34 1.67-1.57 1.1-3.11 2.19-4.56 3.21-2.93 2.02-5.52 3.76-7.22 4.79l-.24.15c-1.7 1.04-4.54 2.36-7.75 3.89-3.23 1.5-6.85 3.21-10.3 4.66-3.5 1.36-6.78 2.6-9.19 3.47-2.42.86-3.96 1.36-4.02 1.25-.04-.11 1.31-1.02 3.47-2.38 2.17-1.36 5.15-3.16 8.34-5.05 3.15-1.98 6.45-4.17 9.44-6.03 2.97-1.89 5.64-3.42 7.31-4.45l.23-.14c1.68-1.02 4.38-2.5 7.49-4.14 1.56-.81 3.22-1.67 4.9-2.55.84-.43 1.7-.87 2.55-1.3.84-.44 1.65-.93 2.47-1.37 3.24-1.81 6.3-3.47 8.56-4.67 2.26-1.19 3.73-1.9 3.8-1.8.07.1-1.14 1.19-3.1 2.83zm86.12-76.16c-.72 1.07-1.56 2.34-2.47 3.72-.96 1.36-2.06 2.8-3.18 4.3-1.14 1.5-2.31 3.04-3.47 4.56-.59.76-1.17 1.51-1.74 2.25-.61.71-1.2 1.41-1.78 2.09-2.32 2.7-4.39 5.05-5.78 6.48l-.2.2c-1.34 1.47-3.76 3.47-6.48 5.78-2.74 2.28-5.79 4.87-8.85 7.04-3.02 2.22-5.85 4.27-7.96 5.73-2.1 1.47-3.46 2.35-3.54 2.26-.07-.1.99-1.33 2.73-3.2s4.15-4.39 6.75-7.05c2.65-2.61 5.26-5.59 7.67-8.15 2.39-2.58 4.58-4.73 5.9-6.18l.19-.2c1.36-1.41 3.59-3.52 6.19-5.89.65-.59 1.32-1.2 2.01-1.82.65-.64 1.33-1.3 2-1.96 1.36-1.32 2.74-2.64 4.08-3.94 1.33-1.29 2.67-2.5 3.85-3.67 1.16-1.16 2.22-2.23 3.13-3.14 1.82-1.79 3.02-2.9 3.11-2.82.09.07-.76 1.47-2.16 3.61zm26.3-54.02c-.98 2.08-1.96 4.17-2.93 6.24-.68 1.48-1.34 2.95-1.97 4.39l-7.39-11.6-7.16-.41 11.76 18.48c-.24.58-.47 1.15-.7 1.7l-1.17-1.84a2.91 2.91 0 0 0-4.04-.84c-1.35.89-1.73 2.7-.84 4.04l3.57 5.6c-.15.39-.28.76-.42 1.14l-.23.61-2.73-4.27a2.909 2.909 0 0 0-4.04-.84 2.918 2.918 0 0 0-.84 4.04l3.73 5.85-1.16.96-2.47-3.89a2.909 2.909 0 0 0-4.04-.84 2.91 2.91 0 0 0-.84 4.04l1.86 2.92-20.58-5.83 4.65 7.36 13.02 3.5c-.5.47-.99.94-1.5 1.43-3.12 2.93-6.49 6.06-9.7 9.32-3.32 3.16-6.62 6.31-9.58 9.33-3.08 2.9-5.88 5.61-8.13 7.93-.57.58-1.13 1.22-1.76 1.84-.63.62-1.29 1.27-1.96 1.94-1.35 1.35-2.76 2.81-4.22 4.33-2.84 3.11-6.19 6.33-9.36 9.7-1.59 1.67-3.17 3.37-4.7 5.06-.76.85-1.5 1.7-2.25 2.53-.73.84-1.45 1.67-2.19 2.45-2.9 3.16-5.47 6.21-7.46 8.91l-2.4 3.28-1.88 2.56-.04-.04c-1.09.49-2.24.89-3.35 1.34l-3.16 1.23c-3.13 1.22-6.73 2.91-10.53 4.89-1.88 1.03-3.9 1.99-5.93 3.02-2.02 1.02-4.07 2.1-6.09 3.19a241.29 241.29 0 0 0-6 3.33c-1.97 1.1-3.96 2.07-5.83 3.1a233.22 233.22 0 0 0-9.96 5.65c-.69.44-1.43.87-2.22 1.3-.77.44-1.57.91-2.41 1.39-1.65.97-3.41 2.02-5.22 3.14-1.81 1.11-3.68 2.29-5.58 3.52-1.91 1.19-3.9 2.31-5.85 3.52-1.96 1.19-3.9 2.42-5.8 3.64-1.69 1.09-3.33 2.21-4.95 3.2l.39-14.84-5.7-4.35-.62 23.03c-.53.36-1.04.71-1.53 1.07l.09-3.36a2.922 2.922 0 0 0-2.87-2.96 2.922 2.922 0 0 0-2.96 2.87l-.21 7.93-1.52 1.08.16-6.36a2.922 2.922 0 0 0-2.87-2.96 2.915 2.915 0 0 0-2.96 2.87l-.2 7.51-1.5.13.14-5.16a2.915 2.915 0 0 0-5.83-.08l-.1 3.47-13.79-16.36-.27 8.7 9.28 10.69c-.48.07-.97.13-1.47.21-2.11.31-4.3.67-6.5 1.06-1.1.19-2.21.43-3.33.59-1.13.16-2.26.33-3.39.48-2.26.34-4.5.7-6.7 1.08-2.2.38-4.34.82-6.44 1.06-4.17.58-7.99 1.2-11.16 1.82-6.36.94-15.23 2.76-24.2 4.16-1.82.37-3.65.67-5.45.96.74-.4 1.47-.81 2.21-1.22 7.29-4.07 14.32-8.63 19.13-12.15 2.39-1.78 5.21-4.01 8.19-6.5 2.96-2.53 6.09-5.33 9.13-8.22 3.01-2.94 5.96-5.91 8.55-8.84 2.58-2.94 4.85-5.73 6.53-8.26l2.02-3.07 1.44-2.21 3.15-1.41 2.78-1.25c5.53-2.47 12.68-6.99 19.39-12.13 1.68-1.29 3.36-2.57 4.96-3.9 1.59-1.33 3.14-2.65 4.62-3.95 2.99-2.56 5.56-5.12 7.68-7.26 4.22-4.32 9.66-10.85 14.58-17.72 2.11-2.98 4.13-6.02 5.91-8.96l8.13 13.14 7.16.5-12.01-19.41c.28-.53.55-1.05.8-1.56l1.64 2.65a2.905 2.905 0 0 0 4.02.89c1.36-.86 1.76-2.67.9-4.02l-3.72-6 .11-.28.59-1.42 2.87 4.62a2.926 2.926 0 0 0 4.03.9c1.36-.87 1.76-2.67.89-4.03l-3.33-5.37 1.24-.86 1.95 3.16a2.903 2.903 0 0 0 4.02.89c1.36-.87 1.76-2.67.89-4.02l-1.65-2.67 20.34 5.82-4.56-7.42-11.76-3.5c2.51-2.4 5.1-5.02 7.56-7.74 5.7-6.2 10.9-12.84 14.31-17.76 3.39-4.93 7.71-12.17 11.51-19.66 3.8-7.48 7.05-15.23 8.58-21.07l.92-3.54.24-.93 2.7.27c1.44.13 2.88.3 4.31.37 8.58.69 20.77-.21 32.72-2.27 11.98-2.02 23.72-5.09 31.92-7.68 8.19-2.62 19.45-6.91 30.35-11.82 7.42-3.32 14.68-6.91 20.78-10.32-2.71 3.72-5.5 7.88-8.18 12.08-2.53 3.95-4.96 7.95-7.16 11.66-2.19 3.74-4.17 7.19-5.74 10.09-.79 1.45-1.62 3.07-2.5 4.8-.9 1.72-1.83 3.56-2.78 5.49-1.87 3.87-3.95 7.99-5.89 12.19zm34.35-43.73c-.91 2.39-2.22 5.62-3.65 9.08-2.87 6.9-6.33 14.64-8.24 18.12l-.13.24c-.94 1.75-2.53 4.43-4.46 7.41-1.93 2.99-4.08 6.34-6.27 9.39-2.17 3.05-4.16 5.92-5.75 7.93-1.57 2.02-2.62 3.27-2.72 3.22-.1-.07.56-1.56 1.66-3.86 1.1-2.33 2.59-5.47 4.19-8.82 1.64-3.33 3.28-6.95 4.82-10.12 1.56-3.16 2.88-5.96 3.82-7.69l.13-.24c1.89-3.45 6.3-10.64 10.25-16.97 1.97-3.17 3.85-6.1 5.25-8.25 1.4-2.14 2.33-3.47 2.44-3.42.1.05-.42 1.59-1.34 3.99zm11.33-33l-.43 1.96-.43-1.96c-2.74-12.45-12.22-33.14-18.18-44.07-3-5.46-7.57-12.92-12.41-20.18-3.61-5.41-7.36-10.71-10.79-14.99 6.57.13 14.74-1.46 19.45-3.08.57-.2 1.17-.42 1.81-.68l-2.58 6.58 3.88 6.03 6.44-16.38c.32-.19.58-.36.9-.55.47-.29.94-.59 1.42-.87-.08 1.24.65 2.45 1.88 2.92 1.5.57 3.19-.19 3.76-1.7l2.5-6.38c.37-.27.76-.53 1.14-.79.34-.24.69-.44 1.04-.67l-2.3 5.87a2.918 2.918 0 0 0 5.46 2.06l1.88-4.8c.42.27.85.55 1.29.82l-.79 2.01c-.57 1.51.19 3.19 1.69 3.76 1.51.57 3.19-.19 3.76-1.7l.4-1.01c.27.16.53.33.8.49l.59.36c.16.1.31.2.52.31l6.36 16.71 3.22-8.09-1.79-4.86c.55.22 1.07.42 1.57.59 4.68 1.61 12.77 3.19 19.32 3.07-3.42 4.27-7.16 9.57-10.76 14.97-4.84 7.26-9.41 14.72-12.41 20.18-5.96 10.93-15.44 31.62-18.18 44.07zm41.45 88.39c-.1.06-1.15-1.19-2.73-3.22-1.59-2.02-3.58-4.88-5.74-7.94-2.19-3.04-4.34-6.4-6.27-9.39-1.94-2.98-3.52-5.66-4.46-7.41l-.13-.24c-1.9-3.48-5.36-11.22-8.24-18.12-1.43-3.45-2.74-6.68-3.65-9.08s-1.44-3.93-1.33-3.99c.1-.06 1.04 1.27 2.44 3.42s3.27 5.09 5.25 8.25c3.95 6.33 8.35 13.52 10.25 16.97l.13.24c.93 1.73 2.27 4.53 3.82 7.69 1.54 3.17 3.19 6.79 4.83 10.12 1.59 3.36 3.08 6.5 4.19 8.82 1.1 2.3 1.76 3.79 1.66 3.86zm13.25 19.79v-.01h-.01zm58.1 64.72c-2.1-1.46-4.93-3.5-7.96-5.73-3.06-2.16-6.1-4.76-8.85-7.04-2.72-2.3-5.13-4.3-6.48-5.78l-.19-.2c-1.39-1.44-3.46-3.78-5.78-6.48-.58-.67-1.17-1.38-1.78-2.09-.57-.74-1.16-1.5-1.74-2.25-1.16-1.53-2.33-3.07-3.47-4.56-1.12-1.5-2.22-2.94-3.18-4.3-.92-1.38-1.76-2.64-2.47-3.72-1.41-2.14-2.25-3.53-2.16-3.61.1-.08 1.3 1.03 3.11 2.82.9.91 1.97 1.98 3.13 3.14 1.18 1.16 2.51 2.38 3.85 3.67 1.34 1.3 2.72 2.62 4.08 3.94.67.66 1.34 1.32 2 1.96.68.62 1.36 1.23 2.01 1.82 2.59 2.37 4.82 4.48 6.19 5.89l.19.2c1.32 1.45 3.5 3.61 5.89 6.19 2.42 2.55 5.02 5.53 7.68 8.14 2.6 2.66 5.01 5.18 6.75 7.05 1.74 1.87 2.81 3.1 2.73 3.2-.08.09-1.44-.79-3.55-2.26zm95.67 63.79c-2.42-.87-5.69-2.1-9.19-3.47-3.45-1.45-7.07-3.16-10.3-4.66-3.22-1.53-6.05-2.85-7.75-3.89l-.24-.15c-1.7-1.03-4.29-2.77-7.22-4.79-1.45-1.02-3-2.1-4.57-3.21-.77-.56-1.56-1.11-2.33-1.67-.77-.58-1.5-1.19-2.24-1.76-2.93-2.33-5.65-4.54-7.61-6.19-1.96-1.64-3.18-2.73-3.1-2.83.07-.1 1.53.61 3.8 1.8 2.26 1.19 5.32 2.86 8.56 4.67.82.45 1.63.93 2.47 1.37l2.54 1.3c1.69.87 3.35 1.74 4.9 2.55 3.12 1.64 5.82 3.12 7.49 4.14l.24.15c1.67 1.02 4.34 2.55 7.31 4.44 2.99 1.86 6.29 4.05 9.44 6.03 3.19 1.89 6.17 3.69 8.33 5.05 2.17 1.36 3.53 2.27 3.47 2.38-.05.11-1.6-.39-4.01-1.25zm55.75-8.17l-13.8 16.35-.09-3.46a2.915 2.915 0 0 0-2.96-2.87c-1.61.01-2.9 1.34-2.87 2.96l.1 3.74c-.51-.07-1.01-.12-1.5-.16l-.16-6.06a2.909 2.909 0 0 0-2.96-2.87c-1.61.02-2.9 1.34-2.87 2.96l.14 5.46-1.5-.13-.21-7.99a2.909 2.909 0 0 0-2.96-2.87c-1.61.02-2.9 1.34-2.87 2.96l.1 3.77s-.08-.07-.12-.1c-.45-.36-.93-.72-1.42-1.08l-.63-23.34-5.71 4.35.4 14.9c-.71-.46-1.44-.92-2.18-1.39-1.83-1.08-3.67-2.34-5.57-3.57-1.9-1.23-3.85-2.45-5.8-3.64-1.95-1.21-3.94-2.33-5.85-3.52-1.9-1.22-3.76-2.41-5.57-3.52-1.82-1.12-3.56-2.17-5.22-3.14-.83-.47-1.63-.94-2.41-1.39-.78-.43-1.52-.86-2.21-1.3-2.79-1.69-6.2-3.63-9.96-5.65-1.87-1.03-3.87-2-5.83-3.1a260.74 260.74 0 0 0-6-3.33c-2.02-1.1-4.07-2.17-6.1-3.19-2.02-1.03-4.04-1.99-5.93-3.02-3.81-1.98-7.41-3.67-10.53-4.89l-3.79-1.47c-.9-.37-1.84-.69-2.73-1.1l-.04.04-2.27-3.1-2.01-2.73c-1.98-2.71-4.55-5.76-7.45-8.92-.73-.78-1.46-1.61-2.19-2.45-.75-.84-1.5-1.68-2.25-2.53-1.53-1.7-3.1-3.39-4.7-5.07-3.16-3.37-6.52-6.59-9.36-9.7a199.66 199.66 0 0 0-4.22-4.33 342.6 342.6 0 0 0-1.96-1.94c-.63-.61-1.2-1.26-1.76-1.84-2.25-2.33-5.05-5.04-8.13-7.93-2.96-3.02-6.26-6.17-9.58-9.33-3.21-3.26-6.58-6.39-9.7-9.32-.41-.41-.84-.81-1.25-1.19l13.88-3.73 4.65-7.36-20.59 5.83 1.86-2.92a2.92 2.92 0 0 0-.84-4.04c-1.35-.88-3.16-.5-4.04.84l-2.86 4.49-1.16-.96 4.12-6.45c.88-1.35.5-3.16-.84-4.04-1.34-.88-3.15-.5-4.03.84l-3.43 5.38-.65-1.77 4.27-6.69c.88-1.34.51-3.15-.84-4.04-1.35-.88-3.16-.5-4.04.84l-1.86 2.92c-.21-.57-.44-1.15-.68-1.73l12.43-19.54-7.16.41-8.05 12.63c-.76-1.78-1.56-3.59-2.42-5.42-.97-2.07-1.95-4.16-2.92-6.24-1.95-4.2-4.02-8.31-5.89-12.19-.96-1.93-1.89-3.77-2.79-5.48-.88-1.73-1.71-3.36-2.5-4.81-1.58-2.9-3.56-6.35-5.75-10.08-2.21-3.71-4.64-7.72-7.16-11.67-2.73-4.28-5.58-8.52-8.34-12.3 6.19 3.47 13.59 7.16 21.17 10.54 10.9 4.9 22.16 9.19 30.35 11.82 8.19 2.59 19.94 5.66 31.92 7.68 11.96 2.06 24.14 2.96 32.72 2.27 1.72-.09 3.45-.3 5.17-.46l1.84-.18.39 1.53.77 2.94c1.53 5.85 4.78 13.59 8.58 21.08 3.8 7.49 8.11 14.73 11.51 19.65 3.41 4.93 8.61 11.56 14.31 17.77 1.96 2.18 4.01 4.27 6.03 6.25l-11.06 3.29-4.55 7.42 20.34-5.82.19-.31c.07.07.15.13.22.19l-.41.12-1.65 2.67c-.87 1.36-.47 3.16.9 4.02 1.36.87 3.16.47 4.02-.89l1.48-2.39c.41.31.81.6 1.21.87l-2.84 4.59c-.86 1.36-.46 3.16.9 4.03 1.36.87 3.16.47 4.02-.9l2.73-4.4.6.41-.05.04.37.9-3.79 6.13c-.87 1.36-.47 3.16.9 4.02 1.36.87 3.16.47 4.02-.89l1.65-2.66c.24.53.5 1.07.76 1.62L1145.33 351l7.16-.5 8.04-12.98c2.01 3.42 4.36 7 6.85 10.5 4.91 6.88 10.36 13.4 14.57 17.71 2.12 2.15 4.69 4.7 7.68 7.27 1.48 1.3 3.03 2.62 4.62 3.95 1.6 1.33 3.28 2.61 4.96 3.9 6.71 5.13 13.85 9.66 19.39 12.13l3.34 1.49 2.62 1.13-.04.04 1.78 2.72 1.68 2.55c1.67 2.53 3.95 5.32 6.53 8.27 2.59 2.93 5.54 5.9 8.56 8.84 3.04 2.89 6.16 5.68 9.13 8.22 2.98 2.49 5.79 4.73 8.19 6.5 4.81 3.52 11.85 8.08 19.13 12.15.76.43 1.53.85 2.3 1.26-1.91-.29-3.84-.61-5.76-1-8.96-1.4-17.83-3.22-24.2-4.16-3.16-.61-6.99-1.24-11.16-1.82-2.1-.24-4.24-.68-6.44-1.06s-4.45-.74-6.7-1.08l-3.39-.48c-1.13-.16-2.23-.41-3.34-.59-1.41-.25-2.81-.49-4.18-.7l8.29-9.56-.27-8.7zm54.99 37.84c-2.56.07-6.05.12-9.82.13h-4.3l-1.44-.09c-1.91-.13-3.8-.27-5.58-.39-3.56-.29-6.69-.51-8.65-.87l-.27-.06c-1.96-.38-5.01-1.1-8.47-1.99-1.73-.45-3.56-.92-5.4-1.44-1.82-.61-3.66-1.22-5.45-1.82-3.56-1.22-6.86-2.35-9.25-3.26-2.36-1.01-3.84-1.7-3.81-1.82.04-.12 1.64.14 4.14.62 2.53.39 5.98.9 9.64 1.51 1.83.31 3.72.63 5.58.95 1.87.24 3.73.47 5.47.69 3.48.46 6.52.9 8.44 1.27l.27.06c1.92.35 4.95.83 8.39 1.53 1.71.36 3.54.73 5.4 1.11l1.39.29 1.4.22c.93.15 1.86.3 2.78.44 3.66.59 7.09 1.19 9.61 1.66 2.51.35 4.12.59 4.12.72 0 .12-1.62.33-4.19.52zm7.62-14.4c-2-1.07-4.67-2.59-7.53-4.25-5.72-3.3-12.04-7.28-14.88-9.33l-.19-.15c-2.81-2.09-8.49-6.95-13.34-11.45a177.16 177.16 0 0 1-6.25-5.98c-1.6-1.6-2.58-2.65-2.5-2.75.07-.1 1.33.6 3.27 1.77l7.34 4.54c5.56 3.52 11.86 7.48 14.65 9.55l.19.15c2.82 2.04 8.47 6.89 13.48 11.17 2.49 2.15 4.79 4.2 6.47 5.71 1.68 1.51 2.71 2.52 2.64 2.62-.07.1-1.37-.53-3.36-1.6zm203.76-91.09c2.18-1.06 5.27-2.36 8.83-3.19 7.25-1.61 15.48-.78 19.27.03l.27.06c.93.23 2.13.56 3.5.96 1.35.45 2.85 1.04 4.45 1.64 1.57.69 3.22 1.45 4.86 2.26 1.6.9 3.25 1.72 4.76 2.68 3.04 1.86 5.72 3.82 7.61 5.32 1.87 1.55 3 2.57 2.93 2.67-.07.1-1.47-.54-3.59-1.62-2.16-1.02-5.1-2.39-8.3-3.65-1.59-.67-3.29-1.19-4.92-1.8-1.67-.51-3.31-1.01-4.85-1.46-1.56-.39-3.02-.76-4.31-1.07-1.3-.25-2.42-.49-3.28-.7l-.24-.06c-.87-.23-1.99-.4-3.28-.7-.64-.13-1.33-.33-2.05-.44-.73-.12-1.5-.24-2.28-.37-1.58-.33-3.27-.42-4.99-.61-.42-.04-.87-.11-1.29-.13l-1.26-.04c-.84-.06-1.7.03-2.53.04-3.36.17-6.54.82-8.85 1.36-2.32.53-3.79.94-3.84.81-.04-.1 1.25-.93 3.43-1.99zm2.9-115.36c-.43-1.03-.94-2.23-1.49-3.55-.62-1.29-1.29-2.67-2.03-4.08-.79-1.41-1.61-2.86-2.41-4.28-.86-1.4-1.7-2.78-2.49-4.07l-3.98-6.21-.13-.2c-1.75-2.9-5.38-9.16-9.05-14.49-.93-1.32-1.8-2.63-2.64-3.79-.85-1.16-1.63-2.22-2.29-3.12-.64-.92-1.19-1.65-1.57-2.16-.38-.52-.56-.83-.52-.87.04-.04.35.14.87.51.53.36 1.27.93 2.11 1.66.86.74 1.87 1.62 2.98 2.56 1.08.99 2.21 2.11 3.4 3.27 4.7 4.65 9.42 10.57 11.25 13.61l.13.21c.5.73 1.02 1.75 1.62 2.91.58 1.17 1.3 2.47 1.91 3.93.62 1.46 1.28 3 1.91 4.57.56 1.59 1.13 3.21 1.67 4.78.49 1.6.9 3.19 1.24 4.62.27 1.46.5 2.78.69 3.89.25 2.25.32 3.68.21 3.7-.13.03-.64-1.31-1.41-3.39zm-11.28 98.3c.28-1.09.61-2.37.96-3.76.36-1.4.79-2.91 1.14-4.5.39-1.58.78-3.2 1.16-4.81.39-1.6.7-3.21 1.05-4.7.71-2.98 1.22-5.61 1.65-7.26l.07-.24c.93-3.28 3.02-10.28 4.73-16.54 1.67-6.25 2.89-11.79 3.16-11.79.12.01.18 1.44.18 3.69.05 2.26-.16 5.31-.35 8.61-.53 6.56-1.6 13.99-2.55 17.37l-.07.24c-.44 1.7-1.24 4.32-2.38 7.25-.56 1.46-1.12 3.02-1.78 4.57-.67 1.54-1.36 3.1-2.02 4.61-.64 1.51-1.37 2.93-2.03 4.25-.66 1.29-1.27 2.47-1.78 3.48-1.07 1.98-1.87 3.17-1.96 3.13-.13-.05.26-1.42.8-3.59zm-59.01 79.68c.41-.38.85-.79 1.33-1.23.46-.47.94-.96 1.45-1.47l3.27-3.27c1.18-1.11 2.3-2.35 3.42-3.56 1.13-1.19 2.25-2.38 3.3-3.48 2.06-2.27 3.81-4.28 5.02-5.47l.17-.17c.3-.3.65-.64 1.04-1.01.37-.39.79-.8 1.23-1.25.89-.9 1.91-1.9 3.02-2.96.55-.53 1.12-1.07 1.7-1.64.56-.57 1.13-1.16 1.7-1.76 1.16-1.17 2.33-2.36 3.47-3.53 2.22-2.36 4.25-4.62 5.82-6.22 1.5-1.65 2.46-2.7 2.56-2.63.1.06-.5 1.37-1.56 3.36-1.13 1.94-2.67 4.6-4.45 7.39-.93 1.36-1.9 2.76-2.85 4.15-.48.7-.96 1.38-1.43 2.05-.5.67-1 1.29-1.48 1.91-.97 1.23-1.9 2.38-2.72 3.39-.42.5-.81.96-1.16 1.39-.38.41-.73.77-1.04 1.08l-.18.18a91.902 91.902 0 0 1-5.66 5.13c-1.24.96-2.56 1.99-3.89 3.02-1.33 1.04-2.68 2.07-4.07 2.97-1.37.91-2.7 1.79-3.92 2.61-.61.39-1.19.77-1.74 1.13-.57.32-1.1.63-1.6.9-1.96 1.1-3.24 1.76-3.31 1.66-.07-.1.94-1.12 2.56-2.65zm-91.75 38.61c1.07-.32 2.34-.69 3.72-1.09 1.39-.44 2.89-.9 4.44-1.39.78-.24 1.56-.47 2.36-.71.79-.27 1.58-.53 2.36-.79 1.58-.51 3.13-1.02 4.58-1.49 2.9-1.02 5.45-1.8 7.08-2.32l.24-.07c3.27-.99 10.4-2.6 16.64-4.41 1.58-.4 3.07-.87 4.47-1.27 1.39-.39 2.66-.76 3.74-1.06 2.13-.65 3.52-1.01 3.57-.9.04.11-1.15.89-3.08 2.04-.98.56-2.15 1.19-3.43 1.87-1.3.69-2.69 1.46-4.18 2.15-5.89 2.97-12.87 5.7-16.22 6.7l-.24.07c-1.67.53-4.37 1.07-7.43 1.69-1.54.29-3.19.53-4.85.79-.83.13-1.67.25-2.5.38-.84.1-1.67.19-2.49.28-1.64.19-3.22.36-4.67.49l-3.91.24c-2.24.12-3.67.12-3.69-.01 0-.11 1.36-.56 3.48-1.22zm43.45 49.81c-2.16-1.07-5.07-2.6-8.14-4.29-6.14-3.41-12.99-7.4-16.07-9.48l-.21-.15c-3.07-2.08-9.31-6.98-14.76-11.4-2.72-2.22-5.24-4.3-7.06-5.87-1.82-1.56-2.95-2.6-2.88-2.7.07-.1 1.45.56 3.59 1.68 2.13 1.11 5.01 2.67 8.07 4.39 6.13 3.42 12.98 7.4 16.05 9.48l.21.15c3.07 2.07 9.31 6.99 14.76 11.39 2.7 2.19 5.25 4.25 7.13 5.76 1.85 1.53 3.02 2.51 2.96 2.62-.07.1-1.47-.51-3.63-1.57zm101.37 33.78c-2.4.2-5.69.36-9.22.41-7.05.13-15.08-.43-18.8-1.08l-.26-.04c-1.85-.33-4.73-.98-7.98-1.9-1.62-.46-3.33-1.03-5.05-1.58-1.71-.61-3.43-1.23-5.08-1.87-1.64-.67-3.23-1.3-4.66-1.95-1.42-.65-2.72-1.25-3.8-1.78-2.15-1.1-3.48-1.85-3.44-1.96.04-.11 1.54.21 3.86.79 1.17.27 2.55.59 4.05.94s3.16.67 4.85 1.04c6.79 1.44 14.54 2.38 18.14 2.99l.26.04c3.59.63 11.25 2.25 18.14 3.33 3.44.56 6.66 1.04 9.03 1.38 2.38.36 3.88.61 3.88.73 0 .13-1.52.33-3.92.52zm100.38-36.61c-.31.61-.77 1.5-1.44 2.5-.64 1.03-1.41 2.24-2.36 3.5-.47.63-.93 1.33-1.48 1.98-.54.65-1.1 1.33-1.67 2.02-.29.34-.59.69-.87 1.03l-.94 1c-.64.66-1.27 1.33-1.9 1.99-1.33 1.24-2.64 2.52-3.96 3.6-2.61 2.21-5.08 3.92-6.7 4.93l-.24.13c-.82.48-1.9 1.07-3.16 1.72-1.29.59-2.73 1.27-4.3 1.92-3.16 1.25-6.76 2.53-10.2 3.41-3.43.94-6.68 1.56-9.07 1.93-2.39.39-3.92.46-3.94.36-.04-.13 1.4-.65 3.62-1.56 2.22-.9 5.23-2.11 8.36-3.59 3.16-1.42 6.38-3.17 9.21-4.74 1.4-.81 2.7-1.59 3.86-2.26 1.13-.72 2.1-1.33 2.88-1.78l.22-.13c3.07-1.84 9.78-5.65 15.01-10.13.66-.56 1.31-1.1 1.94-1.63.64-.53 1.19-1.09 1.77-1.61 1.15-1.01 2.12-2.02 2.97-2.87.86-.82 1.52-1.54 2-2.03.48-.48.77-.74.82-.7.05.03-.1.39-.41 1zm7.79-24.51c0 .9 0 1.79-.07 2.68l.06.02c-.71.95-1.35 1.9-2.1 2.79-.64.8-1.27 1.59-1.93 2.37-1.98 2.27-4.19 5.02-6.66 7.81-2.5 2.79-5.25 5.62-8.13 8.22-1.41 1.33-2.96 2.51-4.39 3.73-1.53 1.14-2.97 2.3-4.47 3.3-1.43 1.07-2.93 1.96-4.27 2.87-1.39.84-2.67 1.67-3.87 2.37-1.22.68-2.49 1.53-3.95 2.31-.71.41-1.46.83-2.22 1.27-.78.41-1.58.83-2.39 1.27-3.28 1.69-6.88 3.48-10.64 5.07-3.28 1.43-6.65 2.76-9.86 3.99l3.58-13.19-3.92-7.78-5.74 20.36-1.4-2.8a2.921 2.921 0 0 0-3.9-1.36c-1.45.7-2.05 2.44-1.36 3.89l2.42 4.86c-.31.13-.62.24-.92.37-.16.07-.31.13-.47.19l-3.58-7.17a2.93 2.93 0 0 0-3.89-1.36c-1.45.7-2.06 2.44-1.36 3.9l3.39 6.81-.16.06v.06c-.53-.1-1.08-.21-1.62-.33l-4.16-8.34a2.921 2.921 0 0 0-3.9-1.36c-1.45.7-2.06 2.44-1.36 3.89l2.1 4.2c-.61-.13-1.23-.25-1.87-.37l-10.79-21.6-3.33 6.36 6.99 14.02c-3.71-.59-7.66-1.19-11.59-1.81-8.39-1.27-16.65-2.76-22.51-3.76-5.89-.97-13.94-2.27-22.08-4.1-4.07-.88-8.16-1.89-12.01-2.77-3.83-.93-7.43-1.73-10.5-2.27l-3.73-.67-2.68-.55-.03.05c-.87-.82-1.73-1.65-2.57-2.5l-2.24-2.22c-4.4-4.45-11-10-17.71-15.47-1.68-1.39-3.38-2.74-5.05-4.07-1.7-1.35-3.37-2.65-5-3.89-3.25-2.47-6.31-4.69-8.91-6.45-6.99-4.73-18.25-11.38-28.54-16.44 2.5-.03 5.07-.16 7.64-.38 8.53-.7 17-2.43 22.87-4.14 5.88-1.7 13.91-4.89 21.47-8.93 7.56-4.02 14.61-8.86 18.93-13.16.89-.84 1.74-1.73 2.59-2.6l1.99-2.05.04.06c1.06-.24 2.12-.46 3.16-.73l2.97-.75c.74-.19 1.51-.4 2.31-.64.79-.24 1.6-.56 2.44-.87 1.67-.64 3.44-1.37 5.28-2.18.45-.2.92-.4 1.38-.62.45-.24.9-.47 1.36-.7.91-.5 1.84-.99 2.76-1.49 1.84-1.04 3.78-2.05 5.56-3.28 1.81-1.19 3.6-2.41 5.36-3.63 1.73-1.25 3.34-2.59 4.92-3.85.79-.64 1.55-1.27 2.3-1.88.75-.61 1.41-1.28 2.08-1.9 1.33-1.25 2.56-2.44 3.65-3.53 1.12-1.08 2.22-2.39 3.4-3.78 1.17-1.39 2.43-2.87 3.67-4.46 2.37-3.26 4.93-6.75 7.09-10.5 2.29-3.66 4.15-7.56 5.82-11.14.78-1.83 1.45-3.62 2.05-5.3.42-1.18.8-2.31 1.09-3.4.85-.3 1.73-.56 2.58-.81 2.91-.87 6.3-2.02 9.91-3.09 3.61-1.06 7.45-2.05 11.05-2.59 1.79-.23 3.54-.42 5.1-.4.41-.03.77.02 1.14.03l.55.03h.27l.33.04c.89.08 1.76.17 2.62.25.85.04 1.69.21 2.5.33.81.12 1.61.24 2.38.35 1.53.36 2.97.56 4.27.87 5.21 1.14 12.63 3.23 19.94 6.5.92.4 1.84.81 2.76 1.21.9.44 1.8.87 2.7 1.3.48.22.96.45 1.42.68l-8.83 3.98-3.52 7.96 19.17-8.39.21-.1-.07.17-1.21 2.7a2.922 2.922 0 0 0 1.42 3.87c1.46.67 3.19.04 3.87-1.42l1.08-2.42c.33.17.64.33.96.5.12.07.24.13.37.19l-2.14 4.79a2.92 2.92 0 0 0 1.42 3.87c1.46.67 3.19.04 3.87-1.42l1.98-4.43.12.07.04-.04c.27.5.53 1.02.77 1.55l-2.64 5.92a2.914 2.914 0 1 0 5.29 2.45l.53-1.19c.26.61.53 1.24.81 1.87l-8.37 18.76 7.03-1.46 4.47-10.02c1.19 2.84 2.36 5.8 3.43 8.81 1.4 3.81 2.56 7.69 3.63 11.26.99 3.61 1.85 6.93 2.5 9.71 1.34 5.54 3.16 13.37 4.06 21.37 1.09 7.96 1.07 16.04 1.26 22.08.06 1.22.06 2.44.04 3.67zm8.79-31.09c-.16 7.11-1.28 13.13-1.56 13.13-.07 0-.12-.39-.17-1.07-.06-.7-.14-1.67-.24-2.85-.07-1.19-.26-2.59-.41-4.12-.13-1.53-.41-3.19-.64-4.9l-.18-1.29-.24-1.3c-.16-.87-.32-1.74-.47-2.6-.33-1.73-.73-3.41-1.05-5-.39-1.58-.76-3.06-1.07-4.36-.34-1.3-.65-2.42-.85-3.3l-.06-.24c-.19-.89-.47-2.02-.77-3.32-.15-.66-.3-1.36-.47-2.09-.17-.73-.39-1.49-.58-2.28-.19-.79-.4-1.6-.61-2.44-.24-.81-.47-1.65-.72-2.5-.45-1.7-1.02-3.39-1.55-5.03-1.08-3.29-2.23-6.33-3.13-8.54-.84-2.24-1.48-3.62-1.36-3.7.08-.05 1.13 1.1 2.45 3.11 1.39 1.98 3.14 4.79 4.82 7.92.83 1.57 1.7 3.2 2.42 4.87.38.83.76 1.65 1.13 2.46.33.82.65 1.64.96 2.42.31.79.62 1.55.89 2.29.24.75.48 1.46.7 2.13.44 1.33.8 2.5.99 3.43l.07.26c.21.93.47 2.12.7 3.5.2 1.4.41 2.98.61 4.66.12 1.7.29 3.48.36 5.3.01.91.04 1.82.05 2.73 0 .46.01.91.02 1.36-.01.44-.03.9-.04 1.34z"/><path fill="currentColor" class="cls-1" d="M1494.71 257.92v.01h-.01l-.15.06.02-.06.14-.01zM1142.49 314.35l-.41.12.19-.31c.07.07.15.13.22.19z"/><path fill="currentColor" class="cls-1" d="M1142.49 314.35l-.41.12.19-.31c.07.07.15.13.22.19zM1015.14 296.64l-.01.02v-.02h.01zM1015.13 296.64h.01zM1015.13 296.64h.01zM910.22 100.23l-.23.26.26-.13-.03-.13zM1550.13 371.91c.05.03.1.05.14.07l.07-.17-.21.1zM1494.57 257.93v.06l.13-.06h-.13zM1009.78 100.17l-.04.2.38.19-.34-.39z"/><path fill="currentColor" class="cls-1" d="M910.22 100.23l-.23.26.26-.13-.03-.13zM1009.78 100.17l-.04.2.38.19-.34-.39z"/><g><path fill="currentColor" class="cls-1" d="M55.09 869.85V693.74H.54v-39.8h152.05v39.8H98.33v176.11H55.09zM372.11 869.85h-51.54l-54.12-83.9h-6.3v83.9H217.2V653.94h51.83c49.25 0 84.47 19.47 84.47 66.15 0 27.49-14.89 48.68-44.96 61.28l63.57 88.48zM260.15 691.17v60.99h9.45c26.06 0 41.52-9.74 41.52-31.21s-14.03-29.78-40.37-29.78h-10.6zM427.99 869.85V653.94h126.96v37.23h-84.01v44.38h80.86v36.65h-80.86v60.42h84.58v37.23H427.99zM760.45 653.94h42.38v215.91h-28.92L666.68 730.44l.86 139.41h-42.38V653.94h29.21l107.23 139.7-1.14-139.7zM918.67 869.85V693.74h-54.55v-39.8h152.05v39.8h-54.26v176.11h-43.24zM1126.78 869.85V653.94h51.83c50.4 0 85.05 18.04 85.05 66.72 0 42.95-31.5 67.58-76.74 67.58h-17.18v81.61h-42.95zm42.95-118.26h11.74c26.06 0 40.09-9.74 40.09-30.92s-14.6-29.78-41.23-29.78h-10.6v60.71zM1443.56 869.85l-18.04-46.68h-86.48l-19.18 46.68h-45.53l94.5-215.91h30.35l91.63 215.91h-47.25zm-89.91-82.18h57.84l-12.03-31.21c-5.44-14.32-10.88-28.63-16.04-42.95-5.44 14.32-11.17 28.63-16.9 42.95l-12.89 31.21zM1689.69 869.85h-51.54l-54.12-83.9h-6.3v83.9h-42.95V653.94h51.83c49.25 0 84.47 19.47 84.47 66.15 0 27.49-14.89 48.68-44.96 61.28l63.57 88.48zm-111.96-178.68v60.99h9.45c26.06 0 41.52-9.74 41.52-31.21s-14.03-29.78-40.37-29.78h-10.59zM1865.34 869.85l-71.87-96.79-5.73 2.86.57 93.92h-43.24V653.93h43.24l-.57 87.91 77.03-87.91h52.4l-89.91 98.79 92.2 117.12h-54.12z"/></g><g><path fill="currentColor" class="cls-1" d="M372.5 1044.38v-76.66h15.25v28.98h29.28v-28.98h15.15v76.66h-15.15v-33.65h-29.28v33.65H372.5zM460.65 1005.84c0-22.06 18.5-39.55 40.77-39.55s40.47 17.28 40.47 39.86-18.61 39.65-40.97 39.65-40.26-16.57-40.26-39.96zm65.68.2c0-14.54-10.98-25.62-25.11-25.62s-25.11 11.29-25.11 25.52c0 15.05 11.79 25.72 24.91 25.72 14.23 0 25.32-11.08 25.32-25.62zM569.35 1016.11v-48.4h15.46v46.77c0 12.3 5.9 17.29 14.64 17.29s14.64-4.98 14.64-17.59v-46.46h15.35v48.4c0 19.42-13.22 29.69-29.99 29.69s-30.1-10.27-30.1-29.69zM654.66 1029.33l10.47-7.83c3.86 7.52 9.46 11.08 16.06 11.08s10.17-3.86 10.17-9.46-2.85-8.74-13.22-13.22c-12.51-5.39-19.93-10.67-19.93-22.37s10.07-21.25 24-21.25c10.67 0 18.3 4.68 23.18 11.9l-9.76 8.74c-3.15-4.68-7.12-7.42-12.81-7.42-5.39 0-9.15 3.35-9.15 7.52s3.25 6.71 13.62 11.18c13.62 5.69 19.62 12.2 19.62 24.71 0 13.83-10.78 22.88-25.01 22.88-13.42 0-22.88-6.81-27.25-16.47zM734.86 1044.38v-76.66h44.53v13.22h-29.28v15.76h28.16v13.01h-28.16v21.45h29.49v13.22h-44.74zM828.92 1005.84c0-22.06 18.5-39.55 40.77-39.55s40.47 17.28 40.47 39.86-18.61 39.65-40.97 39.65-40.26-16.57-40.26-39.96zm65.68.2c0-14.54-10.98-25.62-25.11-25.62s-25.11 11.29-25.11 25.52c0 15.05 11.79 25.72 24.91 25.72 14.23 0 25.32-11.08 25.32-25.62zM938.64 1044.38v-76.66h41.48v13.52h-26.23v15.86h24.81v13.12h-24.81v34.16h-15.25zM1025.48 1029.33l10.47-7.83c3.86 7.52 9.46 11.08 16.06 11.08s10.17-3.86 10.17-9.46-2.85-8.74-13.22-13.22c-12.51-5.39-19.93-10.67-19.93-22.37s10.07-21.25 24-21.25c10.67 0 18.3 4.68 23.18 11.9l-9.76 8.74c-3.15-4.68-7.12-7.42-12.81-7.42-5.39 0-9.15 3.35-9.15 7.52s3.25 6.71 13.62 11.18c13.62 5.69 19.62 12.2 19.62 24.71 0 13.83-10.78 22.88-25.01 22.88-13.42 0-22.88-6.81-27.25-16.47zM1105.68 1044.38v-76.66h44.53v13.22h-29.28v15.76h28.16v13.01h-28.16v21.45h29.49v13.22h-44.74zM1176.21 1006.46c0-21.96 17.28-40.16 40.36-40.16 6.71 0 13.22 1.73 19.62 5.08l.2 17.28c-6.41-5.49-12.91-8.24-19.73-8.24-13.62 0-25.01 11.08-25.01 25.82s11.08 25.42 25.22 25.42c7.52 0 12.71-2.44 19.52-8.44l-.2 17.49c-6.1 3.35-13.83 5.08-20.64 5.08-22.16 0-39.35-17.39-39.35-39.35zM1321.32 1044.38h-18.3l-19.22-29.79h-2.24v29.79h-15.25v-76.66h18.4c17.49 0 29.99 6.91 29.99 23.49 0 9.76-5.29 17.29-15.96 21.76l22.57 31.42zm-39.76-63.44v21.66h3.36c9.25 0 14.74-3.46 14.74-11.08s-4.98-10.57-14.34-10.57h-3.76zM1344.94 1044.38v-76.66h44.53v13.22h-29.28v15.76h28.16v13.01h-28.16v21.45h29.49v13.22h-44.74zM1430.45 1044.38v-62.53h-17.18v-14.13h49.62v14.13h-17.08v62.53h-15.35zM1482.62 1029.33l10.47-7.83c3.86 7.52 9.46 11.08 16.06 11.08s10.17-3.86 10.17-9.46-2.85-8.74-13.22-13.22c-12.51-5.39-19.93-10.67-19.93-22.37s10.07-21.25 24-21.25c10.67 0 18.3 4.68 23.18 11.9l-9.76 8.74c-3.15-4.68-7.12-7.42-12.81-7.42-5.39 0-9.15 3.35-9.15 7.52s3.25 6.71 13.62 11.18c13.62 5.69 19.62 12.2 19.62 24.71 0 13.83-10.78 22.88-25.01 22.88-13.42 0-22.88-6.81-27.25-16.47z"/></g></svg>