<?xml version="1.0" encoding="UTF-8"?>
<svg xmlns="http://www.w3.org/2000/svg" xmlns:xlink="http://www.w3.org/1999/xlink" width="990" height="990" viewBox="0 0 990 990">
  <defs>
    <clipPath id="clip-Artboard_1">
      <rect width="990" height="990"></rect>
    </clipPath>
  </defs>
  <g id="Artboard_1" data-name="Artboard – 1" clip-path="url(#clip-Artboard_1)">
    <g id="Group_1" data-name="Group 1" transform="translate(-286.42 -189.707)">
      <rect id="Rectangle_1" data-name="Rectangle 1" width="328" height="82" transform="translate(866 383)" fill="currentColor"></rect>
      <path id="Path_1" data-name="Path 1" d="M1645.009,2270.444v298.473s6.593,87.316-66.7,90.745-68.124-99.75-68.124-99.75a6.943,6.943,0,0,0-5.494-7.515c-17.8-.145-63.569,0-63.569,0s-5.879-1.168-5.678,7.515c-1.283,31.422.686,162.546,142.865,162.191s148.81-126.741,148.522-153.186,0-298.473,0-298.473,1.41-6.55-7.294-6.6c-19.467-.044-49.3-.2-68.411,0C1643.593,2263.92,1645.009,2270.444,1645.009,2270.444Z" transform="translate(-1108 -2070)" fill="currentColor"></path>
      <path id="Path_2" data-name="Path 2" d="M2343.57,3078.946c-.042-3.725-.942-6.517-10.791-6.3-16.9-.132-48.356-.2-60.887,0-7.856-.432-8.448,7.948-8.448,7.948s-7.127,102.832-117.892,104.966-136.359-105.066-133.641-179.24,30.228-161.53,133.641-160.92,117.361,93.722,117.361,93.722-.823,5.068,6.653,7.852c20.906-.1,46.2.236,64.18,0,8.543-2.949,6.113-7.852,6.113-7.852s-18.6-160.623-194.307-158.835-214.661,131.962-216.546,226.034,37.479,245.939,216.546,243.353S2333.694,3134.292,2343.57,3078.946Z" transform="translate(-1108 -2070)" fill="currentColor"></path>
    </g>
  </g>
</svg>
