<svg xmlns="http://www.w3.org/2000/svg" viewBox="0 0 1190.55 194.95"><path fill="currentColor" d="M551.61 68.09c-2.91.28-9.76 2.53-9.77 3.44 14.44 7.17 19.23 27.74 12.27 42.32-5.56 11.64-20.17 15.15-31.5 16.11-2.87.24-17.47-1.18-17.48 3.44 1.29 3.46 7.18 3.86 10.36 4.09 16.18 1.18 44.72-2.48 47.07 22.17 3.76 39.45-58.61 39.94-81.29 29.59-14.16-6.46-17.94-23.1-2.87-30.98 7.92-4.14 16.72-3.67 25.02-5.57l-.03-2.74c-6.13.14-24.66.05-27.37-7.03-5.37-14 19.44-16.19 27.37-16.09v-3.76c-18.06.55-31.93-7.29-30.18-28.43 2.5-30.12 42.39-31.84 63.34-25.59 3.26-12.32 11.16-26.4 24.83-25.99l2.96 25c-6.22-.43-7.62-.49-12.72 0zm-40.68 14.54c-8.77 1.34-12.91 8.05-12.31 17.05 1.2 17.9 30.61 17.42 33.02 1.08 2.02-13.7-9.22-19.88-20.71-18.13zm-.07 75.83c-5.84.51-17.58 2.18-17.57 7.46.02 10.04 18.15 10.65 24.61 10.32 7.67-.4 22.4-2.33 18.93-13.79-1.9-6.27-19.98-4.51-25.97-3.99zM782.15 37.76c19.01 1.77 30.53 15.22 26.67 35.66-2.68 14.19-14.05 20.66-26.62 23.02l-.34 3.2c9.23-.08 18.47 2.45 23.46 11.16 2.13 3.72 3.23 8.02 4.52 12.11 3.55 11.22 6.32 22.83 9.31 34.23h-27.52l-10.07-38.74c-.51-2.79-5.9-7.51-8.28-7.51h-25.75v46.25h-26.04V37.76h60.66zm-34.62 53.75h21.6c1.91 0 7.12-3.1 8.61-4.66 6.5-6.85 7.13-22.68-1.99-27.33-.64-.33-4.49-1.76-4.84-1.76h-23.38v33.75zM134.65 73.08l-21.56 4.3c-2.43-5.51-2.75-10.81-7.43-15.25-9.86-9.34-43.17-9.93-40.21 9.97.98 6.57 10.15 9.31 15.34 10.67 18.93 4.97 49.87 3.18 55.35 29.05 5.16 24.38-9.47 41.51-31.19 46.46-27.87 6.36-61.79-4.36-66.14-37.93l23.04-6.65c1.72 20.99 23.59 29.8 40.83 22.81 12.13-4.92 13.34-19.6.81-25.22-18.38-8.24-58.53-2.81-62.68-33.19-5.48-40.13 40.4-48.35 68.1-39.42 15.57 5.02 24.53 17.25 25.74 34.38zM324.45 66.4c26.1-2.46 48.62 11.49 50.45 40.72 2.34 37.43-20.43 57.88-55.2 52.05-48.61-8.15-46.56-87.93 4.75-92.77zm1.75 18.73c-24.41 3.75-19.69 68.62 11.98 53.9 16.63-7.73 17.57-58.45-11.98-53.9z"/><path fill="currentColor" d="M856.04 66.4c26.1-2.46 48.62 11.49 50.45 40.72 2.34 37.43-20.43 57.88-55.2 52.05-48.61-8.15-46.56-87.93 4.75-92.77zm1.75 18.73c-24.41 3.75-19.69 68.62 11.98 53.9 16.63-7.73 17.57-58.45-11.98-53.9z"/><path fill="currentColor" d="M951.84 66.4c26.1-2.46 48.62 11.49 50.45 40.72 2.34 37.43-20.43 57.88-55.2 52.05-48.61-8.15-46.56-87.93 4.75-92.77zm1.76 18.73c-24.41 3.75-19.69 68.62 11.98 53.9 16.63-7.73 17.57-58.45-11.98-53.9zM622.68 131.24c-3.12 5.1-6.93 8.77-13.58 9.37-13.95 1.26-19.38-7.13-21.03-20.65h57.41c3.24-27.46-8.53-52.33-36.96-53.78-24.71-1.26-42.65 13.87-45.82 39.8-3.09 25.28 6.09 48.73 31.76 53.19 18.34 3.18 39.75-1.61 47.79-19.57-6.17-3.63-12.83-5.88-19.56-8.35zm-18.37-46.3c8.73-.81 14.87 3.59 17.2 12.51.49 1.88 1.4 6.86 1.35 8.6-.02.77-.22.96-.77 1.41h-34.03c1.31-10.31 4.86-21.47 16.25-22.53zM465.85 157.47h-24.86v-55.94c0-2.37-2.05-7.44-3.57-9.36-4.82-6.1-15.48-5.23-20.72-.04-12.86 12.74-6.8 48.29-8.26 65.34h-25.45V68.71h20.71l2.43 22.43 2.8-.04c5.2-19.83 23.77-30.15 42.28-22.88 8.31 3.26 14.63 13.99 14.63 23.3v65.94zM1149.34 93.07l-20.1 4.4c-.78-13.2-17.31-15.43-26.63-11.56-6.61 2.75-6.65 10.85-.24 13.99 7.78 3.8 21.18 2.87 30.27 5.53 25.66 7.51 23.72 40.48 1.31 50.47-19.4 8.64-58 5.74-61.55-22.17l20.72-5.01c-.63 14.2 27.08 15.74 32.24 7.48 5.14-8.24-2.4-12.58-8.94-14.28-14.43-3.74-38.53-1.32-42.69-21.79-3.96-19.47 10.37-30.59 26.87-33.21 19.19-3.04 46.57.96 48.73 26.14zM1038.57 44.34v24.38h20.61v17.5h-20.61v47.19c0 .18 1.45 2.7 1.78 3.12 3.81 4.93 12.2 4 17.08 1.17l8.95-6.48 5.04 14.96c-10.61 16.03-46.59 20.35-55.45 1.08-.41-.89-2.26-6.44-2.26-6.99V87.14l-.89-.94h-10.36V68.7h11.18l.13-24.38h24.79zM180.36 44.34v24.38h20.61v17.5h-20.61v47.19c0 .18 1.45 2.7 1.78 3.12 3.81 4.93 12.2 4 17.08 1.17l8.95-6.48 5.04 14.96c-10.61 16.03-46.59 20.35-55.45 1.08-.41-.89-2.26-6.44-2.26-6.99V87.14l-.89-.94h-10.36V68.7h11.18l.13-24.38h24.79zM673.1 68.34l2.37 27.51 3.27-.62c1.94-19.59 17.91-34.41 35.08-27.04l.12 28.9c-13.86-11.52-28.85-3.88-33.9 12.64-.55 1.81-2.2 8.07-2.2 9.55v37.81h-25.45V68.33h20.71zM238.83 68.34l2.37 27.51 3.27-.62c1.94-19.59 17.91-34.41 35.08-27.04l.12 28.9c-13.86-11.52-28.85-3.88-33.9 12.64-.55 1.81-2.2 8.07-2.2 9.55v37.81h-25.45V68.33h20.71z"/></svg>