<?xml version="1.0" encoding="UTF-8"?>
<svg xmlns="http://www.w3.org/2000/svg" width="300" height="300">
  <defs>
    <clipPath id="a">
      <path d="M0 0h300v300H0z"></path>
    </clipPath>
  </defs>
  <g fill-rule="evenodd" clip-path="url(#a)">
    <path data-name="Path 42464" d="M43.04 177.297v-5.668H23.656v5.668h1.894c2.309 0 2.939.77 2.939 2.869V200.6a9.512 9.512 0 01-1.19 5.319 5.318 5.318 0 01-4.758 2.309 5.8 5.8 0 01-4.618-2.239c-1.26-1.889-1.33-3.849-1.33-8.748v-19.944h3.919v-5.668H.283v5.668h1.89c2.31 0 2.939.839 2.939 2.869v18.615c0 5.318 1.119 9.866 4.688 12.946 2.87 2.449 7.418 3.779 12.457 3.779 5.948 0 10.636-2.03 13.3-5.108s3.569-7.418 3.569-12.036v-21.065zm37.81 37.437v-4.828h-1.331c-1.61 0-2.38-.279-2.38-2.029v-15.465c0-3.569-.979-6.228-2.729-7.908a10.437 10.437 0 00-7.418-2.729 15.588 15.588 0 00-9.587 3.569v-1.053c0-1.61-.77-2.1-2.659-2.1-2.519 0-6.717.489-13.3.489l.979 4.9h4.2v22.323h-3.634v4.828h17.844v-4.828h-1.05c-1.609 0-2.38-.35-2.38-2.029v-16.652a8.138 8.138 0 015.319-2.31c2.239 0 3.638 1.19 3.638 3.919v17.075h-3.147v4.828zm19.776 0v-4.828h-1.33c-1.61 0-2.38-.35-2.38-2.029v-23.586c0-1.61-.77-2.1-2.659-2.1-2.519 0-6.718.489-13.3.489l.98 4.9h4.2v22.323h-3.638v4.828zm35.876-27.151l-.979-4.9h-14.488v4.9h3.289l-5.528 16.375-4.969-13.436c-.63-1.68-.21-2.939 1.679-2.939h1.4v-4.9H98.712v4.9h3.569l10.777 27.151h8.747l9.307-24.632c.839-2.24 1.889-2.519 3.568-2.519zm28.341 10.426c0-9.027-5.039-16.234-14.625-16.234-10.006 0-16.165 7.347-16.165 17.075 0 10.076 5.668 16.794 16.025 16.794 5.178 0 10.637-2.1 13.575-4.829l-2.8-4.548a14.68 14.68 0 01-8.467 2.87c-4.479 0-6.928-3.36-7.068-8.678h19.384a14.4 14.4 0 00.14-2.449zm-10.217-3.849c0 .49-.07.98-.07 1.47h-9.1c.14-3.009 1.049-7.838 4.969-7.838 3.638 0 4.2 3.849 4.2 6.368zm36.731-4.479v-5.878c0-1.33-.7-2.029-2.38-2.029a10.922 10.922 0 00-8.4 4.269v-1.752c0-1.61-.839-2.1-2.659-2.1-2.519 0-6.718.489-13.3.489l.979 4.9h4.2v22.323h-3.639v4.828h18.125v-4.828h-1.329c-1.61 0-2.38-.35-2.38-2.029v-15.812a14.42 14.42 0 018.4-2.449c.7 0 1.82 0 2.38.07zm27.311 16.31c0-5.108-2.8-7.837-7.278-9.8l-4.969-2.169c-2.869-1.26-3.919-2.029-3.919-3.639s1.61-2.869 3.849-2.869c2.73 0 4.759 1.4 5.178 4.339l.211 1.539c.21 1.33.77 1.889 2.38 1.889h2.659v-12.6h-3.849l-.35 1.82c-1.75-1.679-4.409-2.729-8.047-2.729-6.3 0-11.966 3.849-11.966 10.077 0 5.388 3.289 8.257 7.767 10.006l4.409 1.75c3.079 1.19 3.989 1.959 3.989 3.569 0 1.469-1.609 2.659-3.989 2.659-3.5 0-5.948-1.75-6.438-4.829l-.211-1.26c-.279-1.609-.7-1.82-2.448-1.82h-2.659v12.806h3.849l.489-2.029a14 14 0 009.027 2.939c7 0 12.317-3.989 12.317-9.657zm19.635 8.747v-4.828h-1.329c-1.609 0-2.38-.35-2.38-2.029v-23.59c0-1.61-.77-2.1-2.659-2.1-2.519 0-6.717.489-13.3.489l.979 4.9h4.2v22.323h-3.639v4.828zm22.175-.559v-6.019a14.975 14.975 0 01-4.268.77 3.744 3.744 0 01-3.639-2.1 10.643 10.643 0 01-.77-4.758v-14.489h7.488l-.98-4.9h-6.648v-8.327l-7.628 1.19c-2.1.35-3.009 1.54-3.009 3.709v3.429h-3.989v4.9h3.989v14.275c0 5.879 1.05 8.957 3.079 10.987 1.82 1.819 4.618 2.729 8.118 2.729a27.285 27.285 0 008.257-1.4zm39.523-26.592l-.979-4.9h-17.636v4.9h3.429v18.614a8.134 8.134 0 01-5.318 2.31c-2.239 0-3.638-1.19-3.638-3.919v-20.301c0-1.61-.771-2.1-2.66-2.1-2.519 0-6.717.489-13.3.489l.979 4.9h4.2v17.494c0 3.5.979 6.158 2.729 7.838a10.756 10.756 0 007.418 2.729 15.584 15.584 0 009.586-3.569v4.269a9.139 9.139 0 01-1.185 5.25c-1.12 1.469-3.149 2.31-6.019 2.31a26.117 26.117 0 01-8.817-1.61v6.788a37.073 37.073 0 009.728 1.329c9.027 0 14.135-3.919 16.095-9.167.979-2.659.979-6.158.979-9.238v-21.761c0-1.959.98-2.659 2.589-2.659zM97.05 174.526c0-3.429-2.8-5.459-6.018-5.459s-6.019 2.03-6.019 5.459 2.8 5.459 6.019 5.459 6.018-2.03 6.018-5.459m137.679 0c0-3.429-2.8-5.459-6.019-5.459s-6.018 2.03-6.018 5.459 2.8 5.459 6.018 5.459 6.019-2.03 6.019-5.459" fill="currentColor"></path>
    <path data-name="Path 42465" d="M37.464 103.671a11.213 11.213 0 00-3.569-8.327 24.251 24.251 0 00-5.738-3.569l-5.318-2.448c-4.339-2.03-6.717-3.5-6.717-6.089 0-2.31 2.309-3.919 5.178-3.919a7.143 7.143 0 014.968 1.959 9.263 9.263 0 012.17 4.128l.56 2.17c.28.979.7 1.679 2.029 1.679h3.709V72.811h-5.879l-.28 2.169c-1.959-1.82-5.178-3.008-9.237-3.008-8.048 0-14.7 4.968-14.7 13.3 0 5.459 3.219 9.867 9.936 12.666l5.178 2.169c4.059 1.68 5.808 3.009 5.808 5.529a3.3 3.3 0 01-.909 2.24 6.455 6.455 0 01-4.548 1.609c-4.409 0-7.207-2.38-7.978-6.717l-.28-1.54c-.28-1.679-.909-2.029-2.659-2.029H5.55v16.718h5.878l.42-2.449a14.851 14.851 0 009.587 3.289c10.707 0 16.025-5.6 16.025-13.085zm39.186 12.246v-4.826h-1.33c-1.609 0-2.379-.28-2.379-2.03v-15.47c0-3.568-.98-6.227-2.73-7.907a10.436 10.436 0 00-7.417-2.729 15.588 15.588 0 00-9.587 3.568V74.42c0-1.609-.77-2.1-2.659-2.1-2.519 0-6.718.49-13.3.49l.979 4.9h4.2v33.381h-3.635v4.828h17.984v-4.828h-1.19c-1.609 0-2.379-.35-2.379-2.03V92.404a8.133 8.133 0 015.319-2.313c2.239 0 3.639 1.19 3.639 3.919v17.081h-3.009v4.828zm30.6-16.726c0-9.027-5.039-16.234-14.625-16.234-10.007 0-16.166 7.347-16.166 17.074 0 10.077 5.668 16.8 16.025 16.8 5.179 0 10.637-2.1 13.576-4.829l-2.8-4.548a14.675 14.675 0 01-8.467 2.869c-4.479 0-6.928-3.359-7.068-8.677h19.384a14.311 14.311 0 00.141-2.455zm-10.215-3.847c0 .49-.071.98-.071 1.469h-9.1c.14-3.008 1.05-7.837 4.969-7.837 3.639 0 4.2 3.849 4.2 6.368zm24.239-14.7c0-3.219 1.959-4.2 4.688-4.2a16.108 16.108 0 015.178.909V71.13a26.36 26.36 0 00-8.606-1.539c-7.347 0-11.966 3.569-11.966 10.707a9.193 9.193 0 00.91 3.569h-4.059v4.9h4.831v22.324h-3.639v4.828h18.125v-4.828h-1.33c-1.61 0-2.38-.56-2.38-2.03V88.766h7.347l-.979-4.9h-7a5.8 5.8 0 01-1.12-3.22zm49.432-4.968c0-3.43-2.8-5.459-6.018-5.459s-6.019 2.029-6.019 5.459 2.8 5.458 6.019 5.458 6.018-2.029 6.018-5.458zm-24.982 4.968c0-3.008 1.68-4.2 4.2-4.2a20.448 20.448 0 015.668.979l.909-6.227a31.756 31.756 0 00-9.517-1.605c-7.837 0-11.966 3.989-11.966 10.426a12.6 12.6 0 00.77 3.85h-4.8l.982 4.9h4.237v22.324h-3.638v4.828h18.124v-4.828h-1.329c-1.61 0-2.38-.56-2.38-2.03V88.766h12.806v22.325h-3.64v4.828h18.125v-4.828h-1.325c-1.61 0-2.38-.35-2.38-2.03V85.477c0-1.61-.77-2.1-2.659-2.1-2.519 0-8.048.49-14.556.49h-6.928a9.185 9.185 0 01-.7-3.22zm59.859 18.547c0-9.027-5.039-16.234-14.625-16.234-10.007 0-16.165 7.347-16.165 17.074 0 10.077 5.667 16.8 16.025 16.8 5.178 0 10.636-2.1 13.575-4.829l-2.8-4.548a14.675 14.675 0 01-8.467 2.869c-4.479 0-6.928-3.359-7.068-8.677h19.384a14.311 14.311 0 00.141-2.449zm-10.217-3.849c0 .49-.07.98-.07 1.469h-9.1c.141-3.008 1.05-7.837 4.969-7.837 3.639 0 4.2 3.849 4.2 6.368zm29.565 20.573v-4.824h-1.33c-1.61 0-2.38-.35-2.38-2.03V74.42c0-1.609-.77-2.1-2.659-2.1-2.519 0-6.717.49-13.3.49l.98 4.9h4.2v33.381h-3.638v4.828zm35.647 0v-4.824h-2.17a1.9 1.9 0 01-2.169-2.17V74.42c0-1.609-.77-2.1-2.659-2.1-2.519 0-6.718.49-13.3.49l.979 4.9h4.2v6.228a17.468 17.468 0 00-5.6-.979c-7.558 0-14.765 5.6-14.765 16.655 0 10.5 5.389 17.215 14.276 17.215a12.456 12.456 0 008.607-3.29c.909 1.68 3.079 2.38 5.388 2.38zm-15.116-6.858a5.686 5.686 0 01-3.639 1.33c-2.8 0-5.528-2.38-5.528-10.637 0-8.678 2.869-10.986 5.668-10.986a7.7 7.7 0 013.5.839zM45.175 165.96v-5.669h-1.959c-2.31 0-2.87-.979-2.87-2.869v-28.9h3.92v-5.667H24.042v5.668h1.959c2.31 0 2.87.979 2.87 2.869v9.307H16.55v-12.176h3.919v-5.668H.25v5.668h1.959c2.309 0 2.869.979 2.869 2.869v28.899H1.159v5.668h20.224v-5.668h-1.959c-2.31 0-2.87-.979-2.87-2.869v-10.215h12.317v13.084H24.95v5.668zm33.518 0v-4.828H76.25c-1.33 0-2.03-.559-2.03-1.959v-14.206c0-8.957-5.738-11.966-13.925-11.966a35.611 35.611 0 00-11.411 2.03v5.948a26.8 26.8 0 019.936-2.169c2.939 0 4.619 1.26 4.619 4.128v1.959c-10.288.21-17.565 4.339-17.565 11.686 0 7.208 4.9 10.287 10.357 10.287a14.084 14.084 0 009.168-3.429c.839 1.82 2.869 2.519 5.248 2.519zm-15.254-7.557a6.241 6.241 0 01-3.499 1.188 3.6 3.6 0 01-3.849-3.849c0-3.079 2.729-5.6 7.348-5.878zm34.47 7.558v-4.829H96.58c-1.61 0-2.38-.349-2.38-2.029v-34.7c0-1.609-.77-2.1-2.659-2.1-2.519 0-6.718.49-13.3.49l.98 4.9h4.2v33.44h-3.637v4.829zm19.6 0v-4.829h-1.33c-1.61 0-2.38-.349-2.38-2.029v-34.7c0-1.609-.77-2.1-2.659-2.1-2.519 0-6.718.49-13.3.49l.98 4.9h4.2v33.44h-3.635v4.829zm33.008 0v-4.829h-2.447c-1.33 0-2.03-.559-2.03-1.959v-14.206c0-8.957-5.738-11.966-13.925-11.966a35.611 35.611 0 00-11.407 2.029v5.948a26.8 26.8 0 019.936-2.169c2.939 0 4.618 1.26 4.618 4.128v1.959c-10.287.21-17.564 4.339-17.564 11.686 0 7.208 4.9 10.287 10.357 10.287a14.084 14.084 0 009.168-3.429c.839 1.82 2.869 2.519 5.248 2.519zm-15.255-7.558a6.235 6.235 0 01-3.5 1.19 3.6 3.6 0 01-3.849-3.849c0-3.079 2.729-5.6 7.347-5.878zm73.511 7.558v-4.829h-1.33c-1.609 0-2.38-.28-2.38-2.029v-15.466c0-3.568-.979-6.228-2.729-7.907a10.437 10.437 0 00-7.418-2.729 16.271 16.271 0 00-10.776 4.2 6.375 6.375 0 00-1.26-1.469 10.437 10.437 0 00-7.418-2.729 15.488 15.488 0 00-9.307 3.568v-1.05c0-1.609-.77-2.1-2.66-2.1-2.518 0-6.717.49-13.3.49l.979 4.9h4.2v22.321h-3.639v4.829h17.775v-4.829h-.98c-1.609 0-2.379-.349-2.379-2.029v-16.655a7.78 7.78 0 015.108-2.309c2.239 0 3.568 1.26 3.568 3.919v17.074h-2.939v4.829h17.082v-4.829h-.979c-1.61 0-2.38-.28-2.38-2.029v-15.466c0-.42-.07-.839-.07-1.26a7.533 7.533 0 015.178-2.239c2.239 0 3.569 1.26 3.569 3.919v17.075h-2.938v4.829z" fill="currentColor"></path>
  </g>
</svg>
