<svg xmlns="http://www.w3.org/2000/svg" width="224" height="29" fill="none"><path fill="currentColor" d="M80.738 20.273 69.53.727h-5.384v26.99h4.95l-.292-19.361 11.162 19.282.044.08h5.387V.727h-4.952l.294 19.546zM53.227.727h-5.704l-9.47 26.99h5.362s1.569-4.186 1.85-5.08l9.852-.019c.172.596 1.553 5.1 1.553 5.1h5.464zm1.01 17.249c-.431-.004-7.85.051-8.016.034.213-1.217 3.483-11.268 4.18-12.88.637 1.578 3.43 11.103 3.833 12.846h.002zM10.325.726C7.836.496 5.26.58 2.532.671q-.89.03-1.785.055L.591.73v26.987h5.152l-.198-10.94c3.533.857 6.851.3 9.135-1.543 2.116-1.709 3.163-4.408 2.943-7.602-.273-3.984-2.933-6.5-7.296-6.906zM5.369 8.352c-.033-1.726-.072-3.854.045-4.256 1.177.002 3.95.067 4.3.166.919.26 1.646.9 2.105 1.848.696 1.436.72 3.497.059 5.013-.973 2.231-4.632 1.913-5.835 1.808-.185-.015-.321-.028-.397-.028a1.4 1.4 0 0 1-.265-.02c.055-1.152.021-2.87-.01-4.533zM25.271 23.494c.03-.438.03-22.438.03-22.611V.727h-5.352v26.99h16.42l-.012-4.245s-9.619-.07-11.086.022M210.226.547c-5.524.4-8.944 3.675-10.032 8.883-1.496 7.159-.173 16.94 8.629 18.42 8.278 1.393 13.82-3.059 14.416-11.12.671-9.06-2.26-16.962-13.011-16.183zm6.976 20.02c-1.601 3.735-6.855 4.977-9.856 2.209-3.95-3.642-4.051-17.954 3.611-18.405 8.081-.477 8.453 11.048 6.245 16.195zM148.658 22.36c-.706-3.117-6.162-21.633-6.162-21.633h-5.493l.588 1.783 8.145 25.208h5.585L159.919.727h-5.39s-5.164 17.636-5.871 21.632zM188.693 22.36c-.705-3.117-6.162-21.633-6.162-21.633h-5.493l.589 1.783 8.145 25.208h5.585L199.955.727h-5.39s-5.164 17.636-5.872 21.632zM162.092 4.963s2.925.021 4.182-.028c-.01 1.143.004 17.418.002 18.647-1.423-.072-4.184-.099-4.184-.099v4.236h12.773v-4.236s-2.566.013-4.183.105c.005-1.223.011-17.482 0-18.62 1.163.043 4.181-.005 4.181-.005V.727H162.09v4.236z"/><path fill="currentColor" d="M118.743 18.818c2.327.37 4.321-.385 4.34-.385l.055-5.553c-.279-.004-6.386 1.114-9.383 4.433a5 5 0 0 0-.335.42c-1.881 1.725-3.664.03-3.664.03a5 5 0 0 0-.357-.45c-2.997-3.319-9.102-4.437-9.382-4.433l.054 5.553c.02 0 2.013.754 4.34.385 2.253-.357 4.065-.488 4.542 2.8v6.1h5.154v-2.866h.002q0-.02-.002-.043v-2.275c.266-4.223 2.189-4.103 4.634-3.716zM111.652 9.883c2.05 0 3.712-1.525 3.712-3.406 0-1.88-1.662-3.406-3.712-3.406s-3.712 1.525-3.712 3.406 1.662 3.406 3.712 3.406"/><path fill="currentColor" d="M115.916 27.718h7.222V19.7c-6.439 1.255-7.222 8.018-7.222 8.018M100.019 19.7v8.018h7.221s-.783-6.765-7.221-8.018M111.627 14.55l-.008-.011c9.256.869 11.254-7.658 11.431-7.94 0 0-4.833.033-7.717 2.865-1.321 1.297-2.408 2.492-3.622 4.934l-.094.137-.086-.126c-1.216-2.442-2.303-3.636-3.622-4.933-2.884-2.833-7.717-2.865-7.717-2.865.177.28 2.175 8.812 11.437 7.94h-.002zM115.916.727h7.222v4.69c-6.439-.734-7.222-4.69-7.222-4.69M100.019 5.417V.727h7.221s-.783 3.956-7.221 4.69"/></svg>