<svg xmlns="http://www.w3.org/2000/svg" xmlns:xlink="http://www.w3.org/1999/xlink" width="437" height="437" viewBox="0 0 437 437">
  <defs>
    <clipPath id="clip-Artboard_1">
      <rect width="437" height="437"/>
    </clipPath>
  </defs>
  <g id="Artboard_1" data-name="Artboard – 1" clip-path="url(#clip-Artboard_1)">
    <g id="layer1" transform="translate(-382.982 -425.928)">
      <path id="path1106" d="M601.554,430.928c-125.956,0-179.571,15.519-179.571,15.519V660.411c0,165.718,179.571,197.249,179.571,197.249s179.6-31.531,179.6-197.249V446.447s-53.973-15.519-179.6-15.519" transform="translate(0 0)" fill-rule="evenodd" fill="currentColor" />
      <path id="path1108" d="M447.081,546.227V471.589l35.753,74.638h24.205V441.912h-20.3v1.207l.245,75.261-35.935-76.467H426.99V546.227H447.07" transform="translate(49.127 107.765)" fill="#fff"/>
      <path id="path1110" d="M481.673,546.227V459.215h23.985v-17.3H435.547v17.3h24.195v87.012h21.932" transform="translate(133.084 107.765)" fill="#fff"/>
      <path id="path1112" d="M443.123,509.217c0,24.4,13.9,38.434,38.007,38.434,23.988,0,37.786-14.035,37.786-38.434v-67.3h-22v67.3c0,17.772-6.416,21.5-15.785,21.5-10.005,0-16.1-3.729-16.1-21.5v-67.3h-21.9v67.3" transform="translate(207.412 107.765)" fill="#fff"/>
    </g>
  </g>
</svg>
