<svg width="46" height="42" viewBox="0 0 46 42" fill="none" xmlns="http://www.w3.org/2000/svg">
<path d="M38.0073 22.8448C40.1929 22.7684 40.5081 26.9997 37.6973 26.8469C34.8866 26.6941 35.8218 22.9211 38.0073 22.8448Z" fill="currentColor"/>
<path d="M5.04284 9.91676C9.15049 10.5176 7.07341 16.6124 3.63745 15.6908C0.439168 14.8303 1.37437 9.37703 5.04284 9.91676Z" fill="currentColor"/>
<path d="M29.7302 7.8342C31.6781 7.05007 32.6184 10.1459 30.5879 10.6041C28.5573 11.0675 28.0096 8.52668 29.7302 7.8342Z" fill="currentColor"/>
<path d="M13.4803 32.7024C15.2835 31.3277 17.4639 34.2402 15.9035 35.5538C14.3432 36.8624 11.7649 34.0161 13.4803 32.7024Z" fill="currentColor"/>
<path d="M7.3111 29.851C8.53565 27.8092 12.4676 30.238 11.2172 32.1627C9.8842 34.2147 5.51304 32.8552 7.3111 29.851Z" fill="currentColor"/>
<path d="M38.7929 33.3186C41.6036 33.1658 41.1386 37.3207 38.9479 37.2443C36.9173 37.173 36.7623 33.4306 38.7929 33.3186Z" fill="currentColor"/>
<path d="M29.7302 7.8342C31.6781 7.05007 32.6184 10.1459 30.5879 10.6041C28.5573 11.0675 28.0096 8.52668 29.7302 7.8342Z" fill="currentColor"/>
<path d="M13.4803 32.7024C15.2835 31.3277 17.4639 34.2402 15.9035 35.5538C14.3432 36.8624 11.7649 34.0161 13.4803 32.7024Z" fill="currentColor"/>
<path d="M7.3111 29.851C8.53565 27.8092 12.4676 30.238 11.2172 32.1627C9.8842 34.2147 5.51304 32.8552 7.3111 29.851Z" fill="currentColor"/>
<path d="M38.7929 33.3186C41.6036 33.1658 41.1386 37.3207 38.9479 37.2443C36.9173 37.173 36.7623 33.4306 38.7929 33.3186Z" fill="currentColor"/>
<path d="M20.9826 35.1617C22.7032 35.1617 23.7934 36.6231 23.6384 37.7789C23.4989 38.7973 22.6877 39.892 20.4349 39.5509C18.4044 39.2453 18.2494 37.8553 18.4044 37.0864C18.5594 36.3176 19.1071 35.1617 20.9826 35.1617Z" fill="currentColor"/>
<path d="M32.0706 32.7024C36.0542 33.1658 33.9462 38.4001 30.8202 37.8604C27.6943 37.3206 28.9446 32.3409 32.0706 32.7024Z" fill="currentColor"/>
<path d="M17.779 4.29544C21.3493 3.29236 24.0309 8.22119 19.7321 10.0695C16.3065 11.541 13.9504 5.37489 17.779 4.29544Z" fill="currentColor"/>
<path d="M12.8551 8.37393C15.4231 9.45848 13.6663 14.7132 10.5094 13.3028C7.93112 12.1469 10.1167 7.22319 12.8551 8.37393Z" fill="currentColor"/>
<path d="M20.9826 35.1617C22.7032 35.1617 23.7934 36.6231 23.6384 37.7789C23.4989 38.7973 22.6877 39.892 20.4349 39.5509C18.4044 39.2453 18.2494 37.8553 18.4044 37.0864C18.5594 36.3176 19.1071 35.1617 20.9826 35.1617Z" fill="currentColor"/>
<path d="M32.0706 32.7024C36.0542 33.1658 33.9462 38.4001 30.8202 37.8604C27.6943 37.3206 28.9446 32.3409 32.0706 32.7024Z" fill="currentColor"/>
<path d="M17.779 4.29544C21.3493 3.29236 24.0309 8.22119 19.7321 10.0695C16.3065 11.541 13.9504 5.37489 17.779 4.29544Z" fill="currentColor"/>
<path d="M35.9769 36.8573C37.9352 36.9337 38.0075 40.2433 35.9769 40.0906C33.9463 39.9378 34.0238 36.7809 35.9769 36.8573Z" fill="currentColor"/>
<path d="M35.9767 27.7736C39.485 28.0944 39.1026 33.0843 35.6667 33.0079C32.2307 32.9315 32.6182 27.4681 35.9767 27.7736Z" fill="currentColor"/>
<path d="M37.5371 15.7723C41.6292 15.3242 42.0684 20.9811 38.2915 21.4547C35.2017 21.8417 33.8325 16.1796 37.5371 15.7723Z" fill="currentColor"/>
<path d="M42.6988 14.2244C44.6467 14.1226 44.8844 16.9179 42.8538 16.9943C40.8233 17.0707 41.2159 14.3008 42.6988 14.2244Z" fill="currentColor"/>
<path d="M24.1034 5.75675C26.4492 5.36978 27.6169 8.83728 25.1161 9.29553C22.6153 9.75889 22.5843 6.00116 24.1034 5.75675Z" fill="currentColor"/>
<path d="M9.49676 14.148C11.8218 14.5554 10.9797 17.9974 8.94908 17.921C6.9185 17.8447 7.30602 13.7661 9.49676 14.148Z" fill="currentColor"/>
<path d="M5.20291 18.2265C8.7267 17.1827 11.0673 22.2948 6.92347 23.69C3.95253 24.688 2.08213 19.1481 5.20291 18.2265Z" fill="currentColor"/>
<path d="M1.68448 16.6125C4.10257 16.5106 3.71506 19.9221 1.45197 19.693C-0.811109 19.4639 -0.185919 16.6888 1.68448 16.6125Z" fill="currentColor"/>
<path d="M15.7486 36.5467C19.0348 37.2952 17.278 43.4003 13.4029 41.7047C10.5921 40.4725 12.7002 35.8542 15.7486 36.5467Z" fill="currentColor"/>
<path d="M2.38709 27.3102C5.12036 26.3886 6.68075 30.3908 3.79248 31.236C0.904204 32.0812 0.165344 28.0587 2.38709 27.3102Z" fill="currentColor"/>
<path d="M6.68589 24.8458C9.34166 23.6136 10.8297 27.1575 8.71647 28.2319C6.29321 29.4641 4.85166 25.6962 6.68589 24.8458Z" fill="currentColor"/>
<path d="M42.6162 20.6909C45.3598 20.3039 46.3674 24.6167 43.3189 25.0036C40.2705 25.3855 40.4306 21.0015 42.6162 20.6909Z" fill="currentColor"/>
<path d="M25.3538 36.7046C26.6765 35.4724 29.0791 37.7687 27.6169 39.0162C25.8963 40.4776 23.8658 38.0946 25.3538 36.7046Z" fill="currentColor"/>
<path d="M9.49676 14.148C11.8218 14.5554 10.9797 17.9974 8.94908 17.921C6.9185 17.8447 7.30602 13.7661 9.49676 14.148Z" fill="currentColor"/>
<path d="M6.68589 24.8458C9.34166 23.6136 10.8297 27.1575 8.71647 28.2319C6.29321 29.4641 4.85166 25.6962 6.68589 24.8458Z" fill="currentColor"/>
<path d="M42.6162 20.6909C45.3598 20.3039 46.3674 24.6167 43.3189 25.0036C40.2705 25.3855 40.4306 21.0015 42.6162 20.6909Z" fill="currentColor"/>
<path d="M12.6897 2.18744C15.4333 1.80046 16.4408 6.11319 13.3924 6.50017C10.344 6.88205 10.5041 2.49804 12.6897 2.18744Z" fill="currentColor"/>
<path d="M25.3538 36.7046C26.6765 35.4724 29.0791 37.7687 27.6169 39.0162C25.8963 40.4776 23.8658 38.0946 25.3538 36.7046Z" fill="currentColor"/>
<path d="M33.5164 6.35252C34.8391 5.12031 37.2417 7.41669 35.7795 8.66418C34.0589 10.1255 32.0284 7.74257 33.5164 6.35252Z" fill="currentColor"/>
<path d="M34.8091 10.1459C37.9919 9.80473 38.3226 14.9932 35.2018 14.9932C32.081 14.9932 31.9209 10.4514 34.8091 10.1459Z" fill="currentColor"/>
<path d="M29.9058 4.93192C27.9476 6.95335 24.1654 3.7048 25.9893 1.74447C28.2317 -0.66394 31.9829 2.78828 29.9058 4.93192Z" fill="currentColor"/>
<path d="M20.3006 11.317C24.0156 10.543 27.3741 11.76 29.5803 13.1449C31.7866 14.535 33.3986 17.5188 33.7861 20.5229C34.1375 23.2419 33.3728 26.2104 31.5902 28.9141C29.7198 31.7553 26.7747 33.1709 22.9822 33.2931C19.7581 33.3949 17.371 32.7431 15.4076 30.9305C12.5814 28.3133 11.1811 25.0851 11.548 21.5412C11.827 18.8222 13.0515 17.0503 14.4311 15.2987C16.0535 13.2315 17.9652 11.7956 20.3006 11.3068" fill="currentColor"/>
<path d="M34.8091 10.1459C37.9919 9.80473 38.3226 14.9932 35.2018 14.9932C32.081 14.9932 31.9209 10.4514 34.8091 10.1459Z" fill="currentColor"/>
</svg>
