<svg width="3599" height="1105" viewBox="0 0 3599 1105" fill="none" xmlns="http://www.w3.org/2000/svg">
<mask id="path-1-inside-1_4363_830" fill="white">
<path d="M526.363 76.0001C527.29 76.7349 528.216 77.4697 529.171 78.2267C539.748 86.7178 549.468 96.0059 559.087 105.55C560.508 106.959 561.933 108.364 563.358 109.768C569.465 115.868 574.992 122.249 580.363 129C581.339 130.174 582.319 131.345 583.304 132.512C597.256 149.295 608.767 167.964 619.363 187C619.744 186.348 620.125 185.695 620.518 185.023C632.305 164.913 644.791 145.677 659.836 127.819C661.275 126.104 662.692 124.373 664.105 122.637C670.314 115.097 677.043 108.115 683.925 101.188C684.788 100.316 685.65 99.4443 686.539 98.5463C692.506 92.608 698.793 87.2565 705.363 82.0001C706.402 81.1249 707.437 80.2448 708.464 79.3556C762.267 33.1322 835.531 5.44636 906.363 4.00013C907.074 3.97967 907.785 3.9592 908.518 3.93812C986.034 1.86438 1062.09 30.5478 1118.72 83.5158C1123.56 88.112 1128.31 92.8003 1133.05 97.5001C1133.93 98.3661 1134.81 99.232 1135.71 100.124C1141.7 106.101 1147.13 112.36 1152.36 119C1152.93 119.716 1153.5 120.433 1154.09 121.171C1172.01 143.841 1186.34 168.259 1199.36 194C1199.96 195.178 1199.96 195.178 1200.58 196.38C1221.28 237.253 1234.16 282.406 1238.36 328C1238.43 328.722 1238.5 329.445 1238.57 330.189C1246.99 422.876 1215.43 517.358 1168.88 596.404C1167.42 598.898 1166 601.408 1164.58 603.926C1157.39 616.562 1149.42 628.655 1141.36 640.75C1140.82 641.569 1140.27 642.388 1139.71 643.232C1127.9 660.97 1115.43 678.169 1102.36 695C1101.87 695.635 1101.38 696.269 1100.87 696.923C1092.62 707.525 1084.15 717.933 1075.45 728.164C1072.55 731.57 1069.72 735.017 1066.93 738.5C1062.55 743.882 1057.87 748.94 1053.14 754.008C1050.98 756.323 1048.87 758.669 1046.8 761.063C1042.63 765.878 1038.31 770.561 1033.99 775.241C1032.95 776.361 1031.92 777.482 1030.89 778.605C1019.24 791.288 1007.07 803.449 994.881 815.612C991.981 818.506 989.085 821.405 986.191 824.305C983.929 826.571 981.664 828.835 979.399 831.098C978.33 832.166 977.262 833.235 976.195 834.304C970.959 839.549 965.712 844.73 960.053 849.524C958.239 851.108 956.549 852.78 954.863 854.5C951.941 857.467 948.883 860.201 945.73 862.918C942.726 865.561 939.795 868.279 936.863 871C931.05 876.384 925.141 881.627 919.117 886.774C917.907 887.807 916.697 888.841 915.488 889.875C914.879 890.395 914.27 890.915 913.643 891.451C910.106 894.479 906.619 897.552 903.175 900.688C899.017 904.461 894.715 908.016 890.351 911.547C886.955 914.335 883.626 917.192 880.3 920.063C875.64 924.078 870.932 928.006 866.105 931.82C863.278 934.067 860.477 936.344 857.679 938.627C850.263 944.677 842.792 950.649 835.244 956.533C833.224 958.109 831.207 959.689 829.191 961.27C818.863 969.35 808.414 977.258 797.904 985.1C795.36 987.002 792.821 988.912 790.285 990.824C776.005 1001.58 761.558 1012.09 746.931 1022.38C743.446 1024.83 739.965 1027.28 736.497 1029.75C725.84 1037.34 715.014 1044.65 704.113 1051.88C702.378 1053.03 700.644 1054.18 698.91 1055.33C696.354 1057.03 693.798 1058.73 691.242 1060.43C685.907 1063.97 680.582 1067.53 675.264 1071.1C664.982 1077.99 654.596 1084.71 644.104 1091.28C642.248 1092.44 640.395 1093.62 638.547 1094.8C635.829 1096.53 633.098 1098.23 630.363 1099.94C629.544 1100.46 628.725 1100.99 627.882 1101.53C626.728 1102.24 626.728 1102.24 625.55 1102.96C624.884 1103.38 624.217 1103.8 623.531 1104.23C620.461 1105.32 618.486 1104.83 615.363 1104C612.828 1102.73 612.828 1102.73 610.3 1101.11C609.351 1100.51 608.402 1099.91 607.424 1099.29C606.413 1098.64 605.403 1097.99 604.363 1097.31C602.762 1096.29 602.762 1096.29 601.128 1095.25C598.922 1093.85 596.719 1092.44 594.518 1091.02C591.707 1089.22 588.884 1087.44 586.054 1085.66C549.385 1062.64 513.595 1038.03 478.567 1012.6C476.376 1011.01 474.177 1009.43 471.976 1007.86C461.037 1000.03 450.323 991.926 439.645 983.743C436.732 981.518 433.8 979.319 430.863 977.125C416.442 966.34 402.272 955.229 388.327 943.837C384.028 940.332 379.682 936.899 375.3 933.5C369.62 929.082 364.17 924.435 358.757 919.695C355.177 916.562 351.562 913.493 347.863 910.5C338.165 902.638 328.805 894.359 319.554 885.977C317.507 884.131 315.441 882.31 313.363 880.5C305.611 873.74 298.025 866.796 290.453 859.836C288.366 857.919 286.275 856.008 284.179 854.102C279.384 849.734 274.643 845.345 270.104 840.709C268.388 839.025 266.612 837.468 264.781 835.91C259.776 831.554 255.106 826.887 250.421 822.192C249.495 821.266 248.568 820.34 247.614 819.387C245.665 817.439 243.718 815.49 241.772 813.54C239.299 811.061 236.822 808.587 234.343 806.114C231.95 803.726 229.561 801.333 227.171 798.942C226.292 798.064 225.413 797.187 224.507 796.283C220.096 791.856 215.824 787.371 211.763 782.62C210.056 780.645 208.24 778.813 206.363 777C203.192 773.872 200.237 770.632 197.335 767.254C195.398 765.04 193.411 762.878 191.411 760.722C186.602 755.537 182.045 750.226 177.609 744.715C175.274 741.893 172.843 739.194 170.363 736.5C165.469 731.17 160.901 725.633 156.363 720C155.33 718.735 154.296 717.471 153.261 716.207C146.478 707.915 139.825 699.546 133.363 691C132.906 690.398 132.449 689.795 131.978 689.174C128.933 685.156 125.909 681.121 122.903 677.073C121.905 675.73 120.904 674.388 119.901 673.048C96.4293 641.645 75.4297 607.768 57.3627 573C56.7999 571.924 56.237 570.847 55.6571 569.738C31.0857 522.506 12.7011 471.78 4.11271 419.125C3.96156 418.201 3.81042 417.276 3.6547 416.324C3.17788 413.22 2.75965 410.115 2.36271 407C2.2755 406.326 2.18827 405.651 2.09842 404.957C0.360962 391.114 0.0210714 377.363 0.0470316 363.421C0.050183 359.9 0.0266585 356.38 0.00137727 352.859C-0.0549487 332.73 1.61309 312.751 5.61271 293C5.82323 291.943 6.03375 290.886 6.25064 289.797C12.4373 259.667 22.5533 230.926 35.3627 203C35.7863 202.064 36.2099 201.128 36.6464 200.163C58.5117 152.025 91.3319 104.782 133.363 72.0001C134.467 71.0866 135.568 70.1697 136.667 69.2501C219.852 0.180038 337.578 -12.5335 526.363 76.0001Z"/>
</mask>
<path d="M526.363 76.0001C527.29 76.7349 528.216 77.4697 529.171 78.2267C539.748 86.7178 549.468 96.0059 559.087 105.55C560.508 106.959 561.933 108.364 563.358 109.768C569.465 115.868 574.992 122.249 580.363 129C581.339 130.174 582.319 131.345 583.304 132.512C597.256 149.295 608.767 167.964 619.363 187C619.744 186.348 620.125 185.695 620.518 185.023C632.305 164.913 644.791 145.677 659.836 127.819C661.275 126.104 662.692 124.373 664.105 122.637C670.314 115.097 677.043 108.115 683.925 101.188C684.788 100.316 685.65 99.4443 686.539 98.5463C692.506 92.608 698.793 87.2565 705.363 82.0001C706.402 81.1249 707.437 80.2448 708.464 79.3556C762.267 33.1322 835.531 5.44636 906.363 4.00013C907.074 3.97967 907.785 3.9592 908.518 3.93812C986.034 1.86438 1062.09 30.5478 1118.72 83.5158C1123.56 88.112 1128.31 92.8003 1133.05 97.5001C1133.93 98.3661 1134.81 99.232 1135.71 100.124C1141.7 106.101 1147.13 112.36 1152.36 119C1152.93 119.716 1153.5 120.433 1154.09 121.171C1172.01 143.841 1186.34 168.259 1199.36 194C1199.96 195.178 1199.96 195.178 1200.58 196.38C1221.28 237.253 1234.16 282.406 1238.36 328C1238.43 328.722 1238.5 329.445 1238.57 330.189C1246.99 422.876 1215.43 517.358 1168.88 596.404C1167.42 598.898 1166 601.408 1164.58 603.926C1157.39 616.562 1149.42 628.655 1141.36 640.75C1140.82 641.569 1140.27 642.388 1139.71 643.232C1127.9 660.97 1115.43 678.169 1102.36 695C1101.87 695.635 1101.38 696.269 1100.87 696.923C1092.62 707.525 1084.15 717.933 1075.45 728.164C1072.55 731.57 1069.72 735.017 1066.93 738.5C1062.55 743.882 1057.87 748.94 1053.14 754.008C1050.98 756.323 1048.87 758.669 1046.8 761.063C1042.63 765.878 1038.31 770.561 1033.99 775.241C1032.95 776.361 1031.92 777.482 1030.89 778.605C1019.24 791.288 1007.07 803.449 994.881 815.612C991.981 818.506 989.085 821.405 986.191 824.305C983.929 826.571 981.664 828.835 979.399 831.098C978.33 832.166 977.262 833.235 976.195 834.304C970.959 839.549 965.712 844.73 960.053 849.524C958.239 851.108 956.549 852.78 954.863 854.5C951.941 857.467 948.883 860.201 945.73 862.918C942.726 865.561 939.795 868.279 936.863 871C931.05 876.384 925.141 881.627 919.117 886.774C917.907 887.807 916.697 888.841 915.488 889.875C914.879 890.395 914.27 890.915 913.643 891.451C910.106 894.479 906.619 897.552 903.175 900.688C899.017 904.461 894.715 908.016 890.351 911.547C886.955 914.335 883.626 917.192 880.3 920.063C875.64 924.078 870.932 928.006 866.105 931.82C863.278 934.067 860.477 936.344 857.679 938.627C850.263 944.677 842.792 950.649 835.244 956.533C833.224 958.109 831.207 959.689 829.191 961.27C818.863 969.35 808.414 977.258 797.904 985.1C795.36 987.002 792.821 988.912 790.285 990.824C776.005 1001.58 761.558 1012.09 746.931 1022.38C743.446 1024.83 739.965 1027.28 736.497 1029.75C725.84 1037.34 715.014 1044.65 704.113 1051.88C702.378 1053.03 700.644 1054.18 698.91 1055.33C696.354 1057.03 693.798 1058.73 691.242 1060.43C685.907 1063.97 680.582 1067.53 675.264 1071.1C664.982 1077.99 654.596 1084.71 644.104 1091.28C642.248 1092.44 640.395 1093.62 638.547 1094.8C635.829 1096.53 633.098 1098.23 630.363 1099.94C629.544 1100.46 628.725 1100.99 627.882 1101.53C626.728 1102.24 626.728 1102.24 625.55 1102.96C624.884 1103.38 624.217 1103.8 623.531 1104.23C620.461 1105.32 618.486 1104.83 615.363 1104C612.828 1102.73 612.828 1102.73 610.3 1101.11C609.351 1100.51 608.402 1099.91 607.424 1099.29C606.413 1098.64 605.403 1097.99 604.363 1097.31C602.762 1096.29 602.762 1096.29 601.128 1095.25C598.922 1093.85 596.719 1092.44 594.518 1091.02C591.707 1089.22 588.884 1087.44 586.054 1085.66C549.385 1062.64 513.595 1038.03 478.567 1012.6C476.376 1011.01 474.177 1009.43 471.976 1007.86C461.037 1000.03 450.323 991.926 439.645 983.743C436.732 981.518 433.8 979.319 430.863 977.125C416.442 966.34 402.272 955.229 388.327 943.837C384.028 940.332 379.682 936.899 375.3 933.5C369.62 929.082 364.17 924.435 358.757 919.695C355.177 916.562 351.562 913.493 347.863 910.5C338.165 902.638 328.805 894.359 319.554 885.977C317.507 884.131 315.441 882.31 313.363 880.5C305.611 873.74 298.025 866.796 290.453 859.836C288.366 857.919 286.275 856.008 284.179 854.102C279.384 849.734 274.643 845.345 270.104 840.709C268.388 839.025 266.612 837.468 264.781 835.91C259.776 831.554 255.106 826.887 250.421 822.192C249.495 821.266 248.568 820.34 247.614 819.387C245.665 817.439 243.718 815.49 241.772 813.54C239.299 811.061 236.822 808.587 234.343 806.114C231.95 803.726 229.561 801.333 227.171 798.942C226.292 798.064 225.413 797.187 224.507 796.283C220.096 791.856 215.824 787.371 211.763 782.62C210.056 780.645 208.24 778.813 206.363 777C203.192 773.872 200.237 770.632 197.335 767.254C195.398 765.04 193.411 762.878 191.411 760.722C186.602 755.537 182.045 750.226 177.609 744.715C175.274 741.893 172.843 739.194 170.363 736.5C165.469 731.17 160.901 725.633 156.363 720C155.33 718.735 154.296 717.471 153.261 716.207C146.478 707.915 139.825 699.546 133.363 691C132.906 690.398 132.449 689.795 131.978 689.174C128.933 685.156 125.909 681.121 122.903 677.073C121.905 675.73 120.904 674.388 119.901 673.048C96.4293 641.645 75.4297 607.768 57.3627 573C56.7999 571.924 56.237 570.847 55.6571 569.738C31.0857 522.506 12.7011 471.78 4.11271 419.125C3.96156 418.201 3.81042 417.276 3.6547 416.324C3.17788 413.22 2.75965 410.115 2.36271 407C2.2755 406.326 2.18827 405.651 2.09842 404.957C0.360962 391.114 0.0210714 377.363 0.0470316 363.421C0.050183 359.9 0.0266585 356.38 0.00137727 352.859C-0.0549487 332.73 1.61309 312.751 5.61271 293C5.82323 291.943 6.03375 290.886 6.25064 289.797C12.4373 259.667 22.5533 230.926 35.3627 203C35.7863 202.064 36.2099 201.128 36.6464 200.163C58.5117 152.025 91.3319 104.782 133.363 72.0001C134.467 71.0866 135.568 70.1697 136.667 69.2501C219.852 0.180038 337.578 -12.5335 526.363 76.0001Z" fill="#99CA96" stroke="white" stroke-width="20" mask="url(#path-1-inside-1_4363_830)"/>
<path d="M291.974 18.5234C354.267 17.7913 429.959 36.3763 523.716 80.2822L526.065 82.1455C536.422 90.4628 545.985 99.5951 555.565 109.1L555.566 109.101C556.993 110.515 558.423 111.925 559.848 113.329C565.778 119.254 571.171 125.477 576.449 132.113L576.484 132.156L576.519 132.198C577.501 133.379 578.489 134.56 579.483 135.737C585.502 142.98 590.951 150.596 596.271 158.534L596.278 158.544C597.214 159.933 597.214 159.933 598.169 161.351C599.407 163.223 600.613 165.119 601.79 167.034L601.799 167.048L601.808 167.062C603.478 169.74 605.267 172.161 607.15 174.524C617.076 187.926 615.906 202.866 615.708 221.344V221.357C615.689 223.734 615.685 226.11 615.689 228.48L615.714 235.564C615.737 243.797 615.719 252.031 615.674 260.269C615.624 269.481 615.61 278.692 615.61 287.898L615.614 297.104C615.629 317.735 615.591 338.368 615.525 359.003C615.46 379.435 615.418 399.869 615.406 420.303C615.405 421.723 615.405 422.697 615.404 424.156C615.401 430.613 615.397 437.07 615.394 443.527C615.37 489.229 615.297 534.932 615.192 580.635C615.167 591.704 615.142 602.774 615.118 613.844C615.117 614.187 615.117 614.53 615.116 614.876C615.115 615.222 615.114 615.571 615.113 615.925C615.043 647.868 615.002 679.811 614.969 711.752C614.967 713.827 614.965 715.901 614.963 717.976C614.948 731.725 614.934 745.474 614.92 759.223C614.892 787.229 614.861 815.235 614.828 843.241C614.827 844.529 614.826 845.817 614.824 847.144C614.726 930.517 614.557 1013.89 614.378 1097.27C613.897 1097.01 613.42 1096.74 612.945 1096.45L612.942 1096.45L610.65 1095.08H610.649C609.842 1094.59 609.035 1094.1 608.203 1093.6L608.198 1093.6L605.554 1092C563.055 1066.17 521.813 1037.82 481.506 1008.55L481.499 1008.55L478.191 1006.16C477.089 1005.37 475.986 1004.58 474.884 1003.79C464.013 996.009 453.351 987.946 442.687 979.774L442.68 979.771L440.477 978.094C439.741 977.537 439.005 976.982 438.27 976.428L433.854 973.119C419.496 962.38 405.383 951.314 391.49 939.965L391.486 939.962C387.15 936.426 382.773 932.969 378.369 929.554H378.37C372.803 925.224 367.436 920.649 362.051 915.934L362.05 915.933L359.327 913.569C356.596 911.217 353.83 908.897 351.011 906.616H351.012C341.419 898.839 332.138 890.632 322.911 882.271L322.903 882.264L321.345 880.866C319.784 879.473 318.215 878.096 316.646 876.729C308.949 870.018 301.408 863.115 293.836 856.155V856.154C292.789 855.193 291.741 854.233 290.692 853.274L287.544 850.403C282.76 846.047 278.109 841.739 273.677 837.212L273.642 837.176L273.606 837.141L272.913 836.47C271.306 834.934 269.675 833.51 268.06 832.135C263.209 827.912 258.659 823.369 253.961 818.66L253.955 818.654L251.147 815.85H251.146L245.312 810.009L237.874 802.574C235.485 800.189 233.099 797.801 230.709 795.408L230.703 795.402L228.038 792.744C223.681 788.37 219.509 783.986 215.563 779.371L215.546 779.352L214.849 778.558C213.68 777.249 212.482 776.009 211.279 774.815L209.836 773.403C206.803 770.408 203.955 767.287 201.128 763.996L201.113 763.979L201.098 763.961C199.608 762.258 198.095 760.592 196.585 758.952L195.076 757.321C190.355 752.231 185.874 747.01 181.504 741.58L181.482 741.554L181.461 741.528L180.551 740.438C179.027 738.633 177.475 736.882 175.915 735.163L174.041 733.114C169.261 727.908 164.776 722.473 160.257 716.863L160.235 716.838C159.201 715.571 158.166 714.305 157.13 713.04H157.129C150.375 704.784 143.765 696.466 137.351 687.984L137.347 687.979L135.962 686.153H135.961C132.927 682.149 129.913 678.128 126.917 674.093L126.916 674.091C125.914 672.743 124.91 671.396 123.902 670.051H123.901C100.605 638.881 79.7496 605.238 61.7998 570.695L61.7939 570.684L60.0879 567.422C35.7198 520.579 17.536 470.361 9.04785 418.32L9.04688 418.318C8.89825 417.409 8.74966 416.5 8.59668 415.564C8.12896 412.52 7.71647 409.461 7.32227 406.368L7.32129 406.359L7.19043 405.345L7.05762 404.315C5.46758 391.638 5.06918 378.983 5.04688 366.027V363.426C5.04846 361.654 5.04384 359.884 5.03516 358.116L5.00098 352.824C4.9467 332.987 6.59229 313.358 10.5137 293.993L10.5146 293.984L10.5166 293.977C10.7252 292.929 10.9336 291.881 11.1484 290.803C17.2446 261.114 27.2238 232.736 39.9072 205.085L39.9131 205.073L39.918 205.062C40.3406 204.127 40.7638 203.194 41.1992 202.231C62.825 154.621 95.202 108.105 136.438 75.9434L136.494 75.8984L136.55 75.8525C137.657 74.9367 138.76 74.0174 139.86 73.0967L139.861 73.0977C180.586 39.283 229.711 19.2553 291.974 18.5234Z" fill="#18A47F" stroke="white" stroke-width="10"/>
<path d="M2035.36 389C2057.47 389 2079.58 389 2102.36 389C2106.82 394.445 2106.82 394.445 2111.36 400C2114.73 403.741 2114.73 403.741 2118.11 407.469C2121.23 410.978 2124.16 414.632 2127.11 418.281C2129.3 420.921 2131.55 423.467 2133.86 426C2137.78 430.3 2141.45 434.759 2145.11 439.281C2147.3 441.921 2149.55 444.467 2151.86 447C2155.78 451.3 2159.45 455.759 2163.11 460.281C2166.01 463.779 2169.06 467.118 2172.12 470.473C2174.42 473.07 2176.62 475.734 2178.8 478.438C2183.44 484.17 2188.35 489.594 2193.36 495C2208.4 477.792 2208.4 477.792 2223.05 460.25C2226.61 455.868 2230.33 451.683 2234.13 447.512C2236.36 444.998 2238.5 442.427 2240.61 439.812C2244.22 435.361 2247.92 431.008 2251.68 426.688C2252.23 426.054 2252.78 425.421 2253.35 424.768C2254.46 423.482 2255.58 422.196 2256.7 420.91C2265.8 410.439 2274.7 399.833 2283.36 389C2305.47 389 2327.58 389 2350.36 389C2350.36 489.65 2350.36 590.3 2350.36 694C2326.6 694 2302.84 694 2278.36 694C2278.03 627.67 2277.7 561.34 2277.36 493C2273.73 497.62 2270.1 502.24 2266.36 507C2264.38 509.357 2262.4 511.692 2260.36 514C2255.89 519.148 2251.62 524.422 2247.44 529.812C2243.84 534.439 2240.09 538.923 2236.28 543.383C2232.87 547.379 2229.57 551.447 2226.3 555.562C2224.28 558.101 2222.23 560.615 2220.18 563.125C2211.51 573.698 2202.88 584.301 2194.36 595C2191.41 593.689 2189.54 592.366 2187.44 589.91C2186.92 589.296 2186.39 588.683 2185.85 588.05C2185.3 587.394 2184.74 586.738 2184.18 586.062C2183.6 585.386 2183.02 584.709 2182.43 584.012C2178.42 579.306 2174.49 574.542 2170.6 569.742C2168.06 566.63 2165.47 563.563 2162.86 560.5C2158.74 555.651 2154.69 550.748 2150.68 545.812C2148.1 542.682 2145.49 539.588 2142.86 536.5C2138.74 531.65 2134.69 526.748 2130.68 521.812C2127.28 517.678 2123.8 513.605 2120.33 509.531C2116.29 504.728 2112.34 499.857 2108.36 495C2108.03 560.67 2107.7 626.34 2107.36 694C2083.6 694 2059.84 694 2035.36 694C2035.36 593.35 2035.36 492.7 2035.36 389Z" fill="white"/>
<path d="M3351.36 778C3375.45 778 3399.54 778 3424.36 778C3428.32 784.93 3432.28 791.86 3436.36 799C3438.91 803.342 3441.47 807.677 3444.05 812C3445.42 814.299 3446.79 816.598 3448.15 818.898C3448.5 819.479 3448.84 820.06 3449.2 820.658C3452.78 826.686 3456.32 832.738 3459.85 838.791C3466.13 849.535 3472.48 860.232 3478.91 870.892C3483.75 878.952 3488.51 887.062 3493.23 895.193C3497.08 901.812 3500.96 908.412 3504.86 915C3511.74 926.64 3518.55 938.321 3525.36 950C3525.69 893.24 3526.02 836.48 3526.36 778C3550.12 778 3573.88 778 3598.36 778C3598.36 878.65 3598.36 979.3 3598.36 1083C3574.6 1083 3550.84 1083 3526.36 1083C3519.41 1071.98 3512.5 1061.03 3505.91 1049.81C3503.87 1046.34 3501.83 1042.88 3499.78 1039.42C3499.19 1038.43 3499.19 1038.43 3498.59 1037.41C3495.47 1032.15 3492.26 1026.96 3488.99 1021.79C3485.33 1016 3481.82 1010.13 3478.3 1004.25C3472.89 995.211 3467.46 986.189 3461.99 977.188C3461.64 976.608 3461.28 976.029 3460.92 975.433C3458.77 971.887 3456.61 968.342 3454.46 964.797C3451.51 959.948 3448.56 955.097 3445.61 950.246C3444.61 948.594 3443.6 946.942 3442.6 945.29C3436.48 935.218 3430.43 925.107 3424.36 915C3424.03 970.44 3423.7 1025.88 3423.36 1083C3399.6 1083 3375.84 1083 3351.36 1083C3351.36 982.35 3351.36 881.7 3351.36 778Z" fill="white"/>
<path d="M3162.74 772.75C3163.45 772.749 3164.17 772.748 3164.9 772.747C3175.99 772.758 3186.54 773.431 3197.36 776C3198.63 776.279 3199.9 776.557 3201.21 776.844C3223.82 782.269 3243.55 794.122 3260.36 810C3261.1 810.674 3261.84 811.348 3262.6 812.043C3288.88 836.924 3300.86 872.989 3305.36 908C3305.5 909.018 3305.63 910.037 3305.77 911.086C3310.33 954.738 3300.94 1002.07 3273.49 1037.06C3272.12 1038.72 3270.75 1040.36 3269.36 1042C3268.67 1042.82 3267.99 1043.65 3267.28 1044.5C3246.42 1068.63 3215.87 1083.33 3184.36 1087C3183.56 1087.11 3182.76 1087.22 3181.94 1087.33C3143.83 1091.78 3103.72 1083.21 3073.23 1059.37C3040.15 1032.02 3022.53 993.429 3018.36 951C3018.22 948.214 3018.18 945.434 3018.16 942.645C3018.15 941.869 3018.15 941.094 3018.14 940.294C3018.12 937.8 3018.11 935.307 3018.11 932.813C3018.11 931.96 3018.11 931.108 3018.11 930.23C3018.13 917.28 3018.55 904.691 3021.36 892C3021.54 891.197 3021.72 890.393 3021.9 889.566C3030.6 851.412 3050.87 815.47 3084.55 794.118C3101.43 783.705 3119.74 776.997 3139.36 774C3140.5 773.817 3141.64 773.634 3142.82 773.445C3149.42 772.654 3156.1 772.757 3162.74 772.75ZM3120.8 853.063C3099.81 874.964 3095.58 908.313 3096.11 937.332C3097.03 964.23 3103.47 992.572 3123.64 1011.71C3137.84 1023.66 3154.39 1026.45 3172.36 1025C3185.07 1023.47 3197.75 1017.66 3206.36 1008C3218.78 992.163 3225.15 973.911 3227.36 954C3227.47 953.076 3227.58 952.152 3227.7 951.199C3230.86 920.266 3227.9 883.521 3208.2 858.195C3206.05 855.621 3203.86 853.245 3201.36 851C3200.89 850.533 3200.41 850.067 3199.93 849.586C3177.6 828.654 3142.01 833.265 3120.8 853.063Z" fill="white"/>
<path d="M1909.58 804.539C1942.91 834.031 1958.32 875.744 1961.22 919.505C1963.51 960.08 1954.76 1004.96 1928.36 1037C1927.93 1037.54 1927.51 1038.07 1927.06 1038.63C1904.41 1066.91 1872.68 1082.72 1836.93 1087.31C1799.45 1091.41 1759.24 1083.94 1729.15 1060.26C1696.63 1033.96 1679 997.426 1673.76 956.207C1672.93 948.291 1673.02 940.325 1673.05 932.375C1673.05 931.492 1673.05 930.609 1673.06 929.699C1673.11 916.603 1673.44 903.82 1676.36 891C1676.56 890.129 1676.75 889.258 1676.95 888.36C1682.69 863.342 1693.2 839.295 1710.36 820C1711.06 819.174 1711.75 818.347 1712.47 817.496C1734.27 792.123 1766.55 776.637 1799.66 773.196C1839.9 770.269 1878.13 778.057 1909.58 804.539ZM1779.36 850C1778.69 850.584 1778.01 851.168 1777.32 851.769C1758.8 868.814 1752.33 897.561 1751.24 921.782C1750.28 951.469 1753.53 984.301 1773.96 1007.6C1785.1 1018.71 1799.54 1025.13 1815.3 1025.33C1831.91 1025.21 1846.72 1021.37 1859.36 1010C1879.42 989.368 1883.79 957.532 1883.52 929.984C1882.4 900.724 1877.16 870.024 1854.89 849.117C1833.73 831.365 1799.93 831.276 1779.36 850Z" fill="white"/>
<path d="M1693.36 0C1717.12 0 1740.88 0 1765.36 0C1765.36 35.64 1765.36 71.28 1765.36 108C1799.68 108 1834 108 1869.36 108C1869.36 72.36 1869.36 36.72 1869.36 0C1893.12 0 1916.88 0 1941.36 0C1941.36 100.65 1941.36 201.3 1941.36 305C1917.6 305 1893.84 305 1869.36 305C1869.36 262.43 1869.36 219.86 1869.36 176C1835.04 176 1800.72 176 1765.36 176C1765.36 218.57 1765.36 261.14 1765.36 305C1741.6 305 1717.84 305 1693.36 305C1693.36 204.35 1693.36 103.7 1693.36 0Z" fill="white"/>
<path d="M2931.36 389C3003.63 389 3075.9 389 3150.36 389C3150.36 411.44 3150.36 433.88 3150.36 457C3101.52 457 3052.68 457 3002.36 457C3002.36 473.17 3002.36 489.34 3002.36 506C3040.97 506 3079.58 506 3119.36 506C3119.36 526.13 3119.36 546.26 3119.36 567C3080.75 567 3042.14 567 3002.36 567C3002.36 586.14 3002.36 605.28 3002.36 625C3051.2 625 3100.04 625 3150.36 625C3150.36 647.77 3150.36 670.54 3150.36 694C3078.09 694 3005.82 694 2931.36 694C2931.36 593.35 2931.36 492.7 2931.36 389Z" fill="white"/>
<path d="M1991.36 0C2063.63 0 2135.9 0 2210.36 0C2210.36 22.44 2210.36 44.88 2210.36 68C2161.52 68 2112.68 68 2062.36 68C2062.36 84.17 2062.36 100.34 2062.36 117C2100.97 117 2139.58 117 2179.36 117C2179.36 137.13 2179.36 157.26 2179.36 178C2140.75 178 2102.14 178 2062.36 178C2062.36 197.14 2062.36 216.28 2062.36 236C2111.2 236 2160.04 236 2210.36 236C2210.36 258.77 2210.36 281.54 2210.36 305C2138.09 305 2065.82 305 1991.36 305C1991.36 204.35 1991.36 103.7 1991.36 0Z" fill="white"/>
<path d="M2476.36 389C2510.02 389 2543.68 389 2578.36 389C2593.49 439.875 2608.61 490.75 2623.74 541.625C2623.96 542.388 2624.19 543.151 2624.43 543.938C2624.88 545.479 2625.34 547.02 2625.8 548.562C2626.95 552.419 2628.09 556.277 2629.24 560.134C2631.29 567.034 2633.34 573.933 2635.39 580.833C2636.52 584.638 2637.65 588.442 2638.78 592.246C2639.01 593.001 2639.23 593.757 2639.46 594.535C2642.64 605.206 2645.82 615.875 2649 626.542C2650.8 632.56 2652.59 638.579 2654.39 644.598C2655.85 649.505 2657.32 654.412 2658.78 659.317C2659.69 662.345 2660.59 665.374 2661.49 668.403C2661.91 669.801 2662.33 671.199 2662.75 672.596C2663.32 674.516 2663.89 676.438 2664.47 678.36C2664.79 679.431 2665.11 680.502 2665.44 681.606C2666.55 685.701 2667.44 689.856 2668.36 694C2644.6 694 2620.84 694 2596.36 694C2591.86 682.748 2591.86 682.748 2590.26 677.756C2589.9 676.642 2589.54 675.528 2589.17 674.38C2588.79 673.213 2588.42 672.046 2588.03 670.844C2587.44 669.008 2587.44 669.008 2586.84 667.134C2586.02 664.567 2585.19 661.999 2584.37 659.43C2583.32 656.135 2582.26 652.843 2581.2 649.551C2580.18 646.399 2579.17 643.246 2578.16 640.094C2577.78 638.911 2577.4 637.727 2577 636.508C2576.66 635.419 2576.31 634.331 2575.95 633.209C2575.64 632.249 2575.34 631.289 2575.02 630.299C2574.36 628 2574.36 628 2574.36 626C2543.34 626 2512.32 626 2480.36 626C2479.7 628.97 2479.04 631.94 2478.36 635C2477.74 637.156 2477.08 639.303 2476.39 641.438C2476.01 642.635 2475.62 643.831 2475.22 645.064C2474.62 646.906 2474.62 646.906 2474.01 648.785C2473.64 649.936 2473.27 651.087 2472.89 652.272C2471.51 656.537 2470.12 660.8 2468.74 665.062C2465.64 674.612 2462.55 684.161 2459.36 694C2435.6 694 2411.84 694 2387.36 694C2388.02 688.725 2388.6 684.625 2390.08 679.695C2390.44 678.495 2390.8 677.294 2391.17 676.057C2391.56 674.747 2391.96 673.436 2392.36 672.125C2392.78 670.721 2393.2 669.317 2393.62 667.913C2394.53 664.878 2395.44 661.844 2396.35 658.811C2397.83 653.9 2399.3 648.986 2400.77 644.071C2401.28 642.359 2401.8 640.648 2402.31 638.936C2402.69 637.646 2402.69 637.646 2403.09 636.33C2403.88 633.666 2404.68 631.002 2405.48 628.339C2411.14 609.446 2416.72 590.533 2422.3 571.617C2423.66 567.018 2425.02 562.419 2426.38 557.821C2428.58 550.349 2430.79 542.877 2433 535.406C2437.87 518.905 2442.74 502.404 2447.61 485.904C2449.19 480.549 2450.78 475.194 2452.36 469.838C2460.31 442.879 2468.34 415.94 2476.36 389ZM2527.36 459C2525.38 464.153 2523.6 469.303 2522.08 474.615C2521.88 475.33 2521.67 476.045 2521.45 476.782C2520.78 479.123 2520.11 481.466 2519.43 483.809C2518.96 485.46 2518.48 487.112 2518 488.764C2516.75 493.105 2515.5 497.447 2514.25 501.789C2512.75 507.014 2511.24 512.237 2509.73 517.461C2508.56 521.538 2507.38 525.614 2506.21 529.692C2505.77 531.201 2505.34 532.711 2504.9 534.22C2504.69 534.944 2504.49 535.668 2504.27 536.414C2503.17 540.224 2502.06 544.03 2500.93 547.83C2500.69 548.613 2500.46 549.396 2500.22 550.203C2499.78 551.702 2499.33 553.199 2498.88 554.696C2497.75 558.286 2497.75 558.286 2497.36 562C2517.16 562 2536.96 562 2557.36 562C2556.09 555.655 2554.79 549.577 2552.98 543.404C2552.75 542.609 2552.52 541.814 2552.28 540.995C2551.53 538.402 2550.78 535.81 2550.02 533.219C2549.49 531.396 2548.97 529.574 2548.44 527.751C2547.05 522.973 2545.67 518.197 2544.27 513.421C2542.87 508.58 2541.46 503.737 2540.06 498.895C2534.29 478.925 2534.29 478.925 2528.36 459C2528.03 459 2527.7 459 2527.36 459Z" fill="white"/>
<path d="M2063.36 778C2096.69 778 2130.02 778 2164.36 778C2171.24 798.641 2171.24 798.641 2174.01 808.148C2174.49 809.796 2174.49 809.796 2174.98 811.476C2175.68 813.856 2176.38 816.237 2177.08 818.618C2178.83 824.616 2180.59 830.611 2182.36 836.607C2182.78 838.052 2183.21 839.497 2183.63 840.942C2188.98 859.144 2194.4 877.327 2199.82 895.51C2201.15 899.999 2202.49 904.487 2203.83 908.975C2205.43 914.372 2207.04 919.769 2208.65 925.166C2212.16 936.965 2215.67 948.766 2219.18 960.566C2219.42 961.351 2219.65 962.135 2219.89 962.944C2222.4 971.397 2224.92 979.85 2227.43 988.304C2228.31 991.283 2229.2 994.263 2230.08 997.242C2230.3 997.972 2230.52 998.702 2230.74 999.454C2233.67 1009.32 2236.61 1019.18 2239.56 1029.04C2241.15 1034.33 2242.73 1039.62 2244.31 1044.91C2245.57 1049.16 2246.85 1053.4 2248.12 1057.65C2249.08 1060.83 2250.03 1064.02 2250.98 1067.21C2251.5 1068.93 2251.5 1068.93 2252.03 1070.68C2252.34 1071.72 2252.65 1072.77 2252.97 1073.85C2253.24 1074.75 2253.51 1075.65 2253.79 1076.59C2254.36 1079 2254.36 1079 2254.36 1083C2230.6 1083 2206.84 1083 2182.36 1083C2177.17 1067.28 2177.17 1067.28 2171.86 1051.25C2170.77 1047.95 2169.67 1044.64 2168.54 1041.24C2167.21 1037.19 2167.21 1037.19 2166.58 1035.3C2166.15 1033.98 2165.71 1032.66 2165.27 1031.34C2164.61 1029.34 2163.95 1027.33 2163.29 1025.33C2162.92 1024.2 2162.54 1023.07 2162.16 1021.91C2161.36 1019 2161.36 1019 2161.36 1015C2130.34 1015 2099.32 1015 2067.36 1015C2066.37 1018.63 2065.38 1022.26 2064.36 1026C2063.72 1028.13 2063.06 1030.26 2062.39 1032.37C2062.03 1033.49 2061.67 1034.61 2061.3 1035.76C2060.93 1036.92 2060.55 1038.09 2060.17 1039.29C2059.77 1040.51 2059.38 1041.74 2058.98 1043C2058.15 1045.57 2057.33 1048.13 2056.5 1050.7C2055.44 1053.99 2054.38 1057.29 2053.33 1060.58C2052.32 1063.74 2051.31 1066.89 2050.29 1070.04C2049.91 1071.22 2049.53 1072.41 2049.14 1073.63C2048.79 1074.72 2048.44 1075.8 2048.08 1076.92C2047.77 1077.88 2047.46 1078.84 2047.15 1079.83C2046.36 1082 2046.36 1082 2045.36 1083C2043.12 1083.09 2040.88 1083.12 2038.64 1083.11C2037.94 1083.11 2037.24 1083.11 2036.51 1083.11C2034.18 1083.11 2031.85 1083.11 2029.52 1083.1C2027.9 1083.1 2026.29 1083.09 2024.68 1083.09C2020.42 1083.09 2016.17 1083.08 2011.92 1083.07C2007.58 1083.06 2003.24 1083.05 1998.91 1083.05C1990.39 1083.04 1981.88 1083.02 1973.36 1083C1976.03 1071.97 1979.02 1061.08 1982.27 1050.21C1982.74 1048.62 1983.21 1047.02 1983.69 1045.42C1984.7 1042.03 1985.71 1038.63 1986.72 1035.24C1988.33 1029.84 1989.94 1024.43 1991.54 1019.03C1993.2 1013.45 1994.86 1007.88 1996.52 1002.3C2001.28 986.276 2006.03 970.242 2010.77 954.206C2012.06 949.853 2013.34 945.499 2014.63 941.146C2018.09 929.45 2021.55 917.753 2025.01 906.056C2030.47 887.59 2035.93 869.124 2041.39 850.66C2042.74 846.121 2044.08 841.582 2045.42 837.043C2047.68 829.418 2049.93 821.794 2052.19 814.17C2053.25 810.592 2054.31 807.015 2055.37 803.437C2056.53 799.523 2057.69 795.611 2058.85 791.699C2059.19 790.535 2059.53 789.371 2059.89 788.172C2060.2 787.117 2060.52 786.062 2060.84 784.975C2061.11 784.057 2061.38 783.139 2061.66 782.192C2062.36 780 2062.36 780 2063.36 778ZM2113.36 847C2113.04 848.118 2112.72 849.236 2112.4 850.387C2109.38 860.951 2106.36 871.514 2103.35 882.077C2101.8 887.506 2100.25 892.936 2098.7 898.366C2097.2 903.612 2095.7 908.857 2094.2 914.103C2093.63 916.098 2093.06 918.094 2092.5 920.09C2091.69 922.897 2090.89 925.704 2090.09 928.511C2089.74 929.734 2089.74 929.734 2089.39 930.981C2087.96 935.959 2086.48 940.913 2084.92 945.853C2084.24 948.114 2084.24 948.114 2084.36 951C2104.16 951 2123.96 951 2144.36 951C2138.42 928.912 2138.42 928.912 2132.16 906.922C2131.7 905.359 2131.24 903.796 2130.79 902.234C2129.85 899.024 2128.91 895.815 2127.97 892.606C2126.77 888.508 2125.57 884.408 2124.38 880.309C2123.45 877.11 2122.51 873.912 2121.58 870.714C2121.13 869.201 2120.69 867.687 2120.25 866.174C2119.64 864.075 2119.02 861.976 2118.41 859.878C2117.89 858.097 2117.89 858.097 2117.35 856.28C2116.41 853.165 2115.41 850.081 2114.36 847C2114.03 847 2113.7 847 2113.36 847Z" fill="white"/>
<path d="M1660.36 415C1659.74 419.079 1658.4 422.325 1656.59 426.023C1655.73 427.787 1655.73 427.787 1654.85 429.586C1654.23 430.849 1653.61 432.112 1652.99 433.375C1652.35 434.67 1651.72 435.967 1651.09 437.263C1650.13 439.24 1649.16 441.216 1648.2 443.191C1645.13 449.463 1642.12 455.76 1639.11 462.062C1638.23 463.907 1637.35 465.752 1636.47 467.597C1635.93 468.734 1635.93 468.734 1635.38 469.894C1634.39 471.94 1633.38 473.972 1632.36 476C1629.23 474.54 1626.36 472.764 1623.44 470.928C1601.25 457.092 1574.78 450.032 1548.74 455.187C1533.68 459.032 1521.4 466.153 1510.36 477C1509.81 477.541 1509.25 478.082 1508.68 478.64C1500.13 487.791 1494.84 500.159 1491.36 512C1491.04 513.077 1490.72 514.155 1490.39 515.265C1484.08 540.878 1488.02 569.18 1500.55 592.25C1511.76 610.394 1528.76 621.175 1549.34 626.246C1573.36 631.146 1600.62 625.323 1621.12 611.841C1623.57 610.099 1625.94 608.275 1628.26 606.371C1628.95 605.918 1629.65 605.466 1630.36 605C1633.36 606 1633.36 606 1635 608.869C1635.6 610.15 1636.19 611.436 1636.77 612.726C1637.09 613.418 1637.41 614.11 1637.74 614.822C1638.79 617.085 1639.83 619.355 1640.86 621.625C1641.94 623.956 1643.01 626.286 1644.09 628.616C1644.81 630.176 1645.53 631.736 1646.25 633.297C1648.41 637.974 1650.62 642.615 1652.9 647.234C1653.41 648.285 1653.93 649.336 1654.46 650.419C1655.42 652.348 1656.38 654.273 1657.35 656.194C1657.98 657.47 1657.98 657.47 1658.62 658.773C1659.16 659.862 1659.16 659.862 1659.72 660.974C1660.5 663.443 1660.34 664.616 1659.36 667C1657.39 668.766 1655.52 670.251 1653.36 671.75C1652.74 672.186 1652.11 672.622 1651.47 673.071C1617.78 695.861 1571.31 702.568 1531.79 695.543C1495.76 688.508 1463.04 669.178 1442.02 638.656C1426.86 615.971 1417.51 591.191 1414.36 564C1414.25 563.126 1414.14 562.252 1414.03 561.351C1409.58 519.376 1418.28 473.088 1444.3 439.062C1445.96 437.02 1447.65 434.999 1449.36 433C1449.81 432.468 1450.26 431.937 1450.72 431.389C1475.36 402.488 1510.11 386.733 1547.62 383.206C1586.45 380.28 1629.79 390.018 1660.36 415Z" fill="white"/>
<path d="M1656.87 801.43C1658.64 803.291 1659.54 804.546 1660.36 807C1659.51 809.672 1659.51 809.672 1657.95 812.75C1657.38 813.903 1656.81 815.057 1656.22 816.245C1655.58 817.497 1654.94 818.748 1654.3 820C1653.33 821.94 1652.37 823.883 1651.4 825.826C1650.74 827.168 1650.07 828.509 1649.4 829.849C1645.79 837.104 1642.38 844.452 1638.99 851.812C1638.42 853.046 1637.85 854.28 1637.28 855.514C1635.97 858.341 1634.67 861.17 1633.36 864C1628.88 864 1627.94 863.336 1624.36 860.875C1602.05 846.263 1576.11 839.515 1549.61 844.062C1536.87 847.027 1525.38 852.546 1515.36 861C1514.66 861.592 1513.96 862.183 1513.23 862.793C1498.38 876.448 1489.31 898.957 1488.2 918.906C1487.81 946.898 1490.94 973.361 1510.9 994.699C1526.18 1010.22 1546.08 1016.67 1567.43 1017.37C1587.62 1016.71 1612.3 1009.85 1627.66 996.16C1628.55 995.447 1629.45 994.734 1630.36 994C1633.36 995 1633.36 995 1634.67 997.224C1635.33 998.698 1635.33 998.698 1636.01 1000.2C1636.77 1001.87 1636.77 1001.87 1637.54 1003.57C1638.09 1004.8 1638.63 1006.02 1639.18 1007.25C1640.33 1009.8 1641.48 1012.35 1642.64 1014.89C1642.94 1015.55 1643.24 1016.21 1643.55 1016.89C1645.73 1021.69 1648.02 1026.44 1650.37 1031.17C1650.85 1032.16 1650.85 1032.16 1651.35 1033.17C1652.63 1035.75 1653.9 1038.33 1655.2 1040.9C1656.09 1042.68 1656.97 1044.46 1657.86 1046.25C1658.62 1047.77 1658.62 1047.77 1659.4 1049.33C1660.43 1052.17 1660.57 1053.27 1659.36 1056C1633.86 1080.4 1590.31 1087.53 1556.55 1087.15C1515.99 1086.23 1481.3 1069.9 1452.9 1041.54C1430.51 1017.85 1418.07 984.996 1414.36 953C1414.25 952.126 1414.14 951.252 1414.03 950.352C1409.4 906.704 1419.4 859.89 1446.92 825.033C1456.96 812.713 1467.96 802.605 1481.36 794C1482.42 793.319 1483.48 792.639 1484.57 791.937C1534.02 761.94 1611.05 764.736 1656.87 801.43Z" fill="white"/>
<path d="M2612.36 778C2695.52 778 2778.68 778 2864.36 778C2864.36 799.78 2864.36 821.56 2864.36 844C2834.66 844 2804.96 844 2774.36 844C2774.36 922.87 2774.36 1001.74 2774.36 1083C2750.6 1083 2726.84 1083 2702.36 1083C2702.36 1004.13 2702.36 925.26 2702.36 844C2672.66 844 2642.96 844 2612.36 844C2612.36 822.22 2612.36 800.44 2612.36 778Z" fill="white"/>
<path d="M2642.36 389C2725.52 389 2808.68 389 2894.36 389C2894.36 410.78 2894.36 432.56 2894.36 455C2864.66 455 2834.96 455 2804.36 455C2804.36 533.87 2804.36 612.74 2804.36 694C2780.6 694 2756.84 694 2732.36 694C2732.36 615.13 2732.36 536.26 2732.36 455C2702.66 455 2672.96 455 2642.36 455C2642.36 433.22 2642.36 411.44 2642.36 389Z" fill="white"/>
<path d="M1405.36 0C1488.52 0 1571.68 0 1657.36 0C1657.36 21.78 1657.36 43.56 1657.36 66C1627.66 66 1597.96 66 1567.36 66C1567.36 144.87 1567.36 223.74 1567.36 305C1543.6 305 1519.84 305 1495.36 305C1495.36 226.13 1495.36 147.26 1495.36 66C1465.66 66 1435.96 66 1405.36 66C1405.36 44.22 1405.36 22.44 1405.36 0Z" fill="white"/>
<path d="M2291.36 778C2315.12 778 2338.88 778 2363.36 778C2363.36 855.88 2363.36 933.76 2363.36 1014C2393.06 1014 2422.76 1014 2453.36 1014C2453.36 1036.77 2453.36 1059.54 2453.36 1083C2399.9 1083 2346.44 1083 2291.36 1083C2291.36 982.35 2291.36 881.7 2291.36 778Z" fill="white"/>
<path d="M1702.36 389C1726.12 389 1749.88 389 1774.36 389C1774.36 466.88 1774.36 544.76 1774.36 625C1804.06 625 1833.76 625 1864.36 625C1864.36 647.77 1864.36 670.54 1864.36 694C1810.9 694 1757.44 694 1702.36 694C1702.36 593.35 1702.36 492.7 1702.36 389Z" fill="white"/>
<path d="M2900.36 778C2924.12 778 2947.88 778 2972.36 778C2972.36 878.65 2972.36 979.3 2972.36 1083C2948.6 1083 2924.84 1083 2900.36 1083C2900.36 982.35 2900.36 881.7 2900.36 778Z" fill="white"/>
<path d="M2503.36 778C2527.12 778 2550.88 778 2575.36 778C2575.36 878.65 2575.36 979.3 2575.36 1083C2551.6 1083 2527.84 1083 2503.36 1083C2503.36 982.35 2503.36 881.7 2503.36 778Z" fill="white"/>
<path d="M1914.36 389C1938.12 389 1961.88 389 1986.36 389C1986.36 489.65 1986.36 590.3 1986.36 694C1962.6 694 1938.84 694 1914.36 694C1914.36 593.35 1914.36 492.7 1914.36 389Z" fill="white"/>
</svg>
