<?xml version="1.0" encoding="UTF-8"?>
<svg version="1.1" xmlns="http://www.w3.org/2000/svg" width="4001" height="685">
<path d="M0 0 C120.45 0 240.9 0 365 0 C365 37.29 365 74.58 365 113 C288.77 113 212.54 113 134 113 C134 139.73 134 166.46 134 194 C205.61 194 277.22 194 351 194 C351 231.29 351 268.58 351 307 C279.39 307 207.78 307 134 307 C134 336.37 134 365.74 134 396 C215.18 396 296.36 396 380 396 C378.85109142 415.53144585 378.85109142 415.53144585 378.07617188 422.88110352 C377.98985001 423.72904984 377.90352814 424.57699615 377.81459045 425.45063782 C377.53615089 428.17710068 377.25256733 430.90299845 376.96875 433.62890625 C376.77049644 435.55839549 376.5725451 437.48791581 376.37487793 439.41746521 C375.96356126 443.42543356 375.54991055 447.43315085 375.13427734 451.44067383 C374.60324695 456.56093662 374.07621727 461.68160071 373.55068207 466.80243015 C373.04548021 471.72388701 372.53850322 476.64516046 372.03125 481.56640625 C371.93577377 482.49374636 371.84029755 483.42108646 371.7419281 484.37652779 C371.47019162 487.01226836 371.19721675 489.6478776 370.92382812 492.28344727 C370.80534264 493.43453979 370.80534264 493.43453979 370.6844635 494.60888672 C370.60880661 495.33576187 370.53314972 496.06263702 370.4552002 496.8115387 C370.35897747 497.7407707 370.35897747 497.7407707 370.26081085 498.68877506 C369.87252877 502.12961051 369.42949186 505.56406515 369 509 C247.23 509 125.46 509 0 509 C0 341.03 0 173.06 0 0 Z " fill="currentColor" transform="translate(1944,163)"/>
<path d="M0 0 C1.06863281 0.57621094 2.13726562 1.15242188 3.23828125 1.74609375 C14.57494507 8.11285826 24.59430856 16.05912471 34 25 C34.79277344 25.7439502 34.79277344 25.7439502 35.6015625 26.50292969 C67.18532288 56.30199128 85.40024354 97.5099217 94.4375 139.5 C94.6015332 140.25869385 94.76556641 141.0173877 94.93457031 141.79907227 C95.83574582 146.27823709 96.02182662 150.41262248 96 155 C79.17156315 156.96062527 62.34260039 158.91666428 45.51299953 160.86727142 C37.69843517 161.77311352 29.88404922 162.68044561 22.07006836 163.59130859 C15.25802612 164.38537337 8.4456633 165.17661895 1.63290364 165.96450567 C-1.97311382 166.38163594 -5.57895707 166.80015931 -9.18441963 167.22206116 C-13.21302462 167.69342443 -17.24233284 168.15849111 -21.27172852 168.62304688 C-22.46215759 168.76330795 -23.65258667 168.90356903 -24.87908936 169.04808044 C-30.28901896 169.66685961 -35.55410544 170.17329425 -41 170 C-41.2333606 169.1478894 -41.2333606 169.1478894 -41.47143555 168.27856445 C-47.07174123 147.94688586 -52.58085186 128.25684132 -68 113 C-68.88558594 112.06414062 -68.88558594 112.06414062 -69.7890625 111.109375 C-84.87020607 96.36041521 -106.116167 93.36739323 -126.20654297 93.53125 C-148.33423893 94.08207557 -168.0709959 100.77655003 -184.390625 116.26953125 C-190.33630563 122.52867463 -194.77033259 129.50358946 -199 137 C-199.52335938 137.89847656 -200.04671875 138.79695312 -200.5859375 139.72265625 C-212.1067935 160.90518249 -216.03481843 186.24111543 -218 210 C-218.05784668 210.69561035 -218.11569336 211.3912207 -218.17529297 212.10791016 C-221.95345489 260.30469972 -221.07038537 321.37649022 -188.77734375 360.70703125 C-172.98125006 378.77906296 -153.48945563 387.64118809 -129.52148438 389.66040039 C-106.45486442 391.20495158 -82.27117135 386.61471978 -64.30078125 371.203125 C-48.4078012 355.98471966 -41.11554918 335.47321553 -37.578125 314.16796875 C-37 311 -37 311 -36 309 C10.2 309 56.4 309 104 309 C104 361.53431682 82.07615373 412.41198433 46 450 C45.46866455 450.5554248 44.9373291 451.11084961 44.38989258 451.68310547 C4.06675578 493.03637462 -57.8548866 508.45654654 -113.75540161 509.25854492 C-178.52388529 509.94784385 -243.30560416 496.52663867 -291.47314453 450.45947266 C-292.50315775 449.47491573 -293.53812459 448.4955186 -294.57763672 447.52099609 C-309.07128124 433.89987867 -320.10750776 418.18359571 -330 401 C-330.53850586 400.08565186 -330.53850586 400.08565186 -331.08789062 399.15283203 C-351.25924734 364.74003465 -360.20517434 323.30603825 -364 284 C-364.0942627 283.11489746 -364.18852539 282.22979492 -364.28564453 281.31787109 C-365.39460638 269.45654211 -365.24390219 257.52699772 -365.25 245.625 C-365.25067474 244.44326202 -365.25134949 243.26152405 -365.25204468 242.04397583 C-365.23526032 223.51765688 -364.70190628 205.35714669 -362 187 C-361.82839355 185.82373047 -361.65678711 184.64746094 -361.47998047 183.43554688 C-354.62325624 138.16523532 -339.52864871 94.26262709 -311 58 C-310.37480469 57.16984375 -309.74960937 56.3396875 -309.10546875 55.484375 C-298.08760618 41.3154472 -284.75565607 28.22814421 -270 18 C-269.44489746 17.60586914 -268.88979492 17.21173828 -268.31787109 16.80566406 C-198.79026592 -32.45360255 -91.86285193 -41.96264364 0 0 Z " fill="currentColor" transform="translate(365,176)"/>
<path d="M0 0 C42.9 0 85.8 0 130 0 C130.33 56.43 130.66 112.86 131 171 C134.63 167.04 138.26 163.08 142 159 C169.32532601 132.72442458 205.04114299 122.42781149 242.3215332 122.64428711 C252.70750434 122.85457934 262.81127311 124.00478987 273 126 C273.67530762 126.12858398 274.35061523 126.25716797 275.04638672 126.38964844 C300.43841604 131.46934685 323.79112757 147.43500787 338.3347168 168.73681641 C354.03636529 192.49489423 360.20031847 221.30828695 360.12025452 249.49075317 C360.12153615 251.16353358 360.12153615 251.16353358 360.12284368 252.87010753 C360.12448281 256.58415736 360.11900288 260.29816141 360.11352539 264.01220703 C360.11324315 266.68359987 360.113358 269.35498995 360.1139679 272.02638245 C360.11449064 277.76605828 360.11136994 283.5057227 360.10573006 289.24539566 C360.0975812 297.54385968 360.09499637 305.84231821 360.09374207 314.1407858 C360.09155686 327.60655564 360.08491119 341.0723194 360.07543945 354.53808594 C360.06625158 367.61393199 360.05918895 380.68977638 360.05493164 393.765625 C360.05466364 394.58068835 360.05439565 395.39575169 360.05411953 396.23551393 C360.05203994 402.61044213 360.05008307 408.98537038 360.04816496 415.36029863 C360.03874204 446.573538 360.01862118 477.78676214 360 509 C317.1 509 274.2 509 230 509 C229.97421875 491.571875 229.9484375 474.14375 229.921875 456.1875 C229.89670604 445.14061379 229.87053531 434.09374496 229.83984375 423.046875 C229.82375351 417.24153725 229.80791029 411.43619892 229.79248047 405.63085938 C229.79053653 404.90333922 229.78859259 404.17581906 229.78658974 403.42625284 C229.75564023 391.70881482 229.73861445 379.99139635 229.72680578 368.27392519 C229.71435779 356.23238035 229.68677462 344.19093743 229.64538693 332.14945698 C229.62259126 325.39277032 229.60659154 318.63621493 229.60811615 311.87948608 C229.60886502 305.51008132 229.59082256 299.14099693 229.55883217 292.77167511 C229.55036595 290.44342766 229.54856074 288.11514414 229.55419731 285.78688812 C230.11730869 262.81831983 230.11730869 262.81831983 220.69140625 242.60546875 C210.49210295 232.92437486 199.64543992 230.63277328 185.78125 230.79296875 C169.57644717 231.68021519 155.01577949 237.95949684 144 250 C134.64536286 261.44546163 130.68900372 273.18342427 130.7215271 287.85194397 C130.7128385 289.2784296 130.7128385 289.2784296 130.70397437 290.73373312 C130.68706358 293.89812603 130.68410556 297.06237231 130.68115234 300.22680664 C130.67184802 302.50397088 130.66167859 304.78113173 130.65071106 307.05828857 C130.623454 313.22490713 130.60827432 319.39150289 130.59528303 325.55816579 C130.57963375 332.00840313 130.55284923 338.45859406 130.5272522 344.90879822 C130.48580571 355.73012045 130.45120232 366.55144159 130.421875 377.37280273 C130.39165826 388.51539947 130.3572712 399.65797063 130.31738281 410.80053711 C130.3149013 411.49516833 130.3124198 412.18979955 130.30986309 412.90548021 C130.28823913 418.94843265 130.26630069 424.99138394 130.24433136 431.03433514 C130.15025651 457.02286125 130.07682354 483.0114039 130 509 C87.1 509 44.2 509 0 509 C0 341.03 0 173.06 0 0 Z " fill="currentColor" transform="translate(3323,163)"/>
<path d="M0 0 C26.14299501 22.68268114 37.22775898 55.19237988 40 89 C40.13286237 92.80352313 40.13099446 96.60292309 40.12025452 100.40846252 C40.12153615 102.08608662 40.12153615 102.08608662 40.12284368 103.79760212 C40.12448497 107.52857744 40.11899927 111.25950736 40.11352539 114.99047852 C40.1132432 117.67157594 40.11335789 120.35267061 40.1139679 123.0337677 C40.11449095 128.79747038 40.11136701 134.5611617 40.10573006 140.32486153 C40.09758541 148.65809063 40.0949968 156.99131427 40.09374207 165.32454693 C40.0915562 178.84633192 40.08490874 192.36811087 40.07543945 205.88989258 C40.06625329 219.02107717 40.05918982 232.15226011 40.05493164 245.28344727 C40.05466364 246.10179611 40.05439565 246.92014496 40.05411953 247.76329225 C40.05203997 254.16380228 40.05008309 260.56431234 40.04816496 266.96482241 C40.03873997 298.30988716 40.0186196 329.65493676 40 361 C-2.9 361 -45.8 361 -90 361 C-90.02578125 343.48808594 -90.0515625 325.97617187 -90.078125 307.93359375 C-90.10329263 296.83657737 -90.12946218 285.73957832 -90.16015625 274.64257812 C-90.17624672 268.81128009 -90.19208996 262.97998146 -90.20751953 257.14868164 C-90.20946347 256.4178988 -90.21140741 255.68711596 -90.21341026 254.93418819 C-90.24436762 243.16111897 -90.26138776 231.38806921 -90.27319422 219.61496698 C-90.28563811 207.51805658 -90.31321217 195.4212477 -90.35461307 183.32440144 C-90.37741817 176.53588868 -90.39340762 169.74750673 -90.39188385 162.95895195 C-90.39113552 156.56082358 -90.40915636 150.16301457 -90.44116783 143.76496887 C-90.44964084 141.42501343 -90.45143457 139.08502206 -90.44580269 136.74505806 C-89.95763329 113.37831457 -89.95763329 113.37831457 -100 93 C-110.94380738 83.69883037 -124.0949421 82.23866935 -138 83 C-153.99903831 84.92908758 -167.79426532 91.96022828 -178.02734375 104.48046875 C-186.30320147 115.76572928 -189.30949218 127.05317173 -189.2784729 140.93423462 C-189.2871615 142.35587656 -189.2871615 142.35587656 -189.29602563 143.80623853 C-189.31290999 146.95370613 -189.31589212 150.10102608 -189.31884766 153.24853516 C-189.32815382 155.51599482 -189.33832351 157.78345108 -189.34928894 160.05090332 C-189.37652535 166.1864719 -189.39171952 172.32201759 -189.40471697 178.45763063 C-189.42037534 184.8771657 -189.44715693 191.29665424 -189.4727478 197.71615601 C-189.51418141 208.48442431 -189.54878931 219.2526895 -189.578125 230.02099609 C-189.60834841 241.10825434 -189.64273844 252.19548695 -189.68261719 263.28271484 C-189.6850987 263.97406057 -189.6875802 264.66540629 -189.69013691 265.37770188 C-189.71176129 271.39220771 -189.73369955 277.40671238 -189.75566864 283.42121696 C-189.84971915 309.28078237 -189.92316918 335.14036442 -190 361 C-232.9 361 -275.8 361 -320 361 C-320 237.25 -320 113.5 -320 -14 C-278.42 -14 -236.84 -14 -194 -14 C-193.505 6.295 -193.505 6.295 -193 27 C-190.9375 24.751875 -188.875 22.50375 -186.75 20.1875 C-141.09453617 -28.84689385 -54.79255001 -45.25845074 0 0 Z " fill="currentColor" transform="translate(1573,311)"/>
<path d="M0 0 C1.27349808 -0.00101212 1.27349808 -0.00101212 2.57272339 -0.00204468 C25.95781695 0.02722738 48.81615872 2.02925069 71.4375 8.25 C72.45142822 8.52384521 72.45142822 8.52384521 73.48583984 8.80322266 C104.41829061 17.40837143 131.03396964 36.11984818 147.49609375 63.79296875 C165.57378162 95.98362019 167.61140823 132.14656074 167.55102539 168.28125 C167.55074279 170.66781615 167.55090267 173.05438239 167.5514679 175.44094849 C167.55175304 181.87368787 167.54590217 188.30640835 167.53889394 194.73914337 C167.53276604 200.79464271 167.53226826 206.85014369 167.53124207 212.90564561 C167.52906189 224.88729592 167.52243007 236.86893935 167.51293945 248.85058594 C167.50373843 260.47884081 167.49668229 272.10709379 167.49243164 283.73535156 C167.49216364 284.46129934 167.49189565 285.18724711 167.49161953 285.9351933 C167.48930619 292.25144144 167.48715362 298.56768963 167.48501682 304.88393784 C167.47563358 332.00596503 167.45570542 359.12797397 167.4375 386.25 C127.1775 386.25 86.9175 386.25 45.4375 386.25 C45.1075 374.04 44.7775 361.83 44.4375 349.25 C42.436875 351.168125 40.43625 353.08625 38.375 355.0625 C8.82494544 382.76611245 -26.18784537 396.7781116 -66.75 396.5625 C-67.82692108 396.55976578 -67.82692108 396.55976578 -68.92559814 396.55697632 C-80.68181181 396.50695334 -92.05989209 395.79647367 -103.5625 393.25 C-104.3575293 393.07839355 -105.15255859 392.90678711 -105.97167969 392.72998047 C-136.60263855 385.92107245 -161.38530177 370.43583051 -178.6796875 344.015625 C-195.55211965 316.38303801 -197.40735603 281.08859887 -190.05859375 250.12695312 C-186.33976039 235.45822152 -179.58131116 222.62632183 -169.5625 211.25 C-168.88703125 210.43144531 -168.2115625 209.61289062 -167.515625 208.76953125 C-134.18829316 169.54301841 -74.81428385 161.87336842 -26.74853516 157.95288086 C-16.5916502 157.19091248 -6.42119641 156.65344889 3.75 156.125 C4.5851413 156.08043671 5.42028259 156.03587341 6.2807312 155.98995972 C18.34282786 155.35433216 30.3593192 155.14274432 42.4375 155.25 C42.56990004 127.79845717 42.56990004 127.79845717 30.46875 104.19921875 C18.33037094 93.92997414 2.79768165 91.40932785 -12.65771484 92.52124023 C-24.46091764 93.65798299 -36.62414166 97.59996245 -44.875 106.5 C-49.933433 112.99141686 -52.93065761 120.23913738 -54.5625 128.25 C-66.99794668 128.57632107 -79.27928908 127.56620271 -91.6640625 126.5703125 C-93.87647626 126.39549991 -96.08890949 126.22093344 -98.30136108 126.04660034 C-102.90906199 125.68213764 -107.51639938 125.31342993 -112.12353516 124.94189453 C-118.02969216 124.46613612 -123.93677316 124.00313429 -129.84420204 123.5434742 C-134.39991969 123.18725241 -138.95499968 122.82335421 -143.50992966 122.45721054 C-145.68904367 122.28316889 -147.8683694 122.11175729 -150.04790115 121.9430275 C-153.0829287 121.70711648 -156.11691944 121.46064789 -159.15087891 121.21142578 C-160.49892609 121.11000275 -160.49892609 121.11000275 -161.87420654 121.00653076 C-163.11422928 120.90143692 -163.11422928 120.90143692 -164.37930298 120.79421997 C-165.45264861 120.70849322 -165.45264861 120.70849322 -166.54767799 120.62103462 C-168.82444701 120.20176179 -170.54710343 119.36980971 -172.5625 118.25 C-167.58448987 93.44029619 -159.76659827 71.03017513 -143.5625 51.25 C-142.87671875 50.39921875 -142.1909375 49.5484375 -141.484375 48.671875 C-115.27582499 17.80402721 -71.61085951 4.5769323 -32.5625 1.25 C-31.59723389 1.16459961 -30.63196777 1.07919922 -29.63745117 0.99121094 C-19.75602689 0.19458669 -9.90977405 0.00714912 0 0 Z M27.41796875 228.58203125 C26.65027664 228.61813004 25.88258453 228.65422882 25.09162903 228.69142151 C-20.46995348 228.79260435 -20.46995348 228.79260435 -59.5625 248.25 C-67.38735294 257.94895352 -69.68331468 267.90589237 -68.5625 280.25 C-66.88930618 289.06457902 -63.35068591 295.60196848 -55.9765625 300.86328125 C-40.04594181 310.01436595 -19.74843273 308.74506014 -2.5625 304.25 C12.75786655 299.27088087 26.21525122 290.08686277 34.16015625 275.84765625 C40.00589766 263.9595277 41.78177985 252.2108573 41.5625 239.0625 C41.55347656 238.01513672 41.54445313 236.96777344 41.53515625 235.88867188 C41.51190075 233.34219486 41.47922569 230.79622969 41.4375 228.25 C36.75540287 228.21111595 32.09370725 228.36018261 27.41796875 228.58203125 Z " fill="currentColor" transform="translate(2536.5625,285.75)"/>
<path d="M0 0 C38.29702728 35.09340944 52.2937404 81.94757069 55.91064453 132.58422852 C55.91064453 151.39422852 55.91064453 170.20422852 55.91064453 189.58422852 C-25.26935547 189.58422852 -106.44935547 189.58422852 -190.08935547 189.58422852 C-185.74620074 223.04677963 -185.74620074 223.04677963 -167.19873047 251.09985352 C-151.18927581 262.50227086 -131.99235984 264.70049695 -112.88623047 262.08422852 C-99.46766367 259.65452918 -86.70693278 255.10177432 -78.08935547 244.01000977 C-73.94807996 237.75347069 -71.2515816 231.54112599 -68.08935547 224.58422852 C-28.15935547 224.58422852 11.77064453 224.58422852 52.91064453 224.58422852 C51.78286358 234.73425704 51.78286358 234.73425704 50.93017578 238.05688477 C50.7392334 238.80244629 50.54829102 239.54800781 50.3515625 240.31616211 C44.23422686 263.0030642 35.40452416 284.59215006 19.91064453 302.58422852 C19.16041016 303.47239258 18.41017578 304.36055664 17.63720703 305.27563477 C-12.62995922 340.05632581 -58.50132899 353.67586762 -103.15185547 356.98266602 C-107.79550727 357.28409277 -112.4379783 357.45874172 -117.08935547 357.58422852 C-119.03841797 357.64610352 -119.03841797 357.64610352 -121.02685547 357.70922852 C-167.87382401 358.45283119 -221.06402114 350.10060171 -257.08935547 317.58422852 C-257.92466797 316.86750977 -258.75998047 316.15079102 -259.62060547 315.41235352 C-288.61579979 290.17579549 -304.04372399 255.05577754 -311.33935547 217.95922852 C-311.49049805 217.19819824 -311.64164063 216.43716797 -311.79736328 215.65307617 C-314.9125001 198.67452571 -315.46222087 181.68007185 -315.40185547 164.45922852 C-315.40003265 163.37917542 -315.39820984 162.29912231 -315.39633179 161.18634033 C-315.3516488 145.46229403 -314.99275421 130.08140506 -312.08935547 114.58422852 C-311.92306641 113.64724121 -311.75677734 112.71025391 -311.58544922 111.74487305 C-304.98423177 75.35871797 -290.35454276 40.91117879 -265.08935547 13.58422852 C-264.34564697 12.77477783 -264.34564697 12.77477783 -263.58691406 11.94897461 C-206.18266081 -49.79997142 -96.75726254 -56.50431252 0 0 Z M-173.92529297 69.92407227 C-184.67065796 83.1327249 -188.68833219 97.77194915 -190.08935547 114.58422852 C-148.50935547 114.58422852 -106.92935547 114.58422852 -64.08935547 114.58422852 C-65.41759994 95.98880593 -68.04578923 76.75623808 -82.57763672 63.48266602 C-107.73869952 44.46512866 -152.16254129 46.89246758 -173.92529297 69.92407227 Z " fill="currentColor" transform="translate(1160.08935546875,326.415771484375)"/>
<path d="M0 0 C0 38.61 0 77.22 0 117 C26.73 117 53.46 117 81 117 C81 150.66 81 184.32 81 219 C54.27 219 27.54 219 0 219 C0.09067133 244.300864 0.09067133 244.300864 0.20898438 269.6015625 C0.26339294 279.9247882 0.31480926 290.24796506 0.34643555 300.57128906 C0.36948679 308.09100076 0.40296372 315.61058336 0.44870156 323.13019252 C0.47253817 327.10782296 0.49132932 331.08532631 0.49761391 335.06302643 C0.50370841 338.81579947 0.5238633 342.56824772 0.55427551 346.32089996 C0.56710381 348.33673815 0.56549781 350.35265249 0.5632782 352.36853027 C0.67503262 363.31507766 1.93003967 375.13616914 9 384 C21.46802907 395.06113084 38.28770915 394.85891382 54 394 C60.0568785 393.3686238 66.05565964 392.3767446 72.04321289 391.27539062 C74 391 74 391 78 391 C78 423.67 78 456.34 78 490 C67.40125271 492.49382289 57.28084623 494.78534785 46.5625 496.1875 C45.31114258 496.35475586 44.05978516 496.52201172 42.77050781 496.69433594 C33.17811857 497.93517947 23.66777339 498.79364664 14 499 C12.69546875 499.03996094 11.3909375 499.07992188 10.046875 499.12109375 C-28.10360762 499.9374445 -69.22527718 493.94249212 -97.8125 466.5625 C-113.76093347 449.86961542 -121.60749835 428.262419 -126.25 406.0625 C-126.40122314 405.34989014 -126.55244629 404.63728027 -126.70825195 403.90307617 C-130.63518786 383.53223476 -130.27325363 362.91100351 -130.20278788 342.26925373 C-130.19012534 337.92248997 -130.18909798 333.57572223 -130.18673706 329.22894287 C-130.18056723 321.03078638 -130.16421856 312.83268444 -130.14403808 304.63455176 C-130.12153748 295.28723603 -130.11065036 285.93991743 -130.10064721 276.59258127 C-130.07984731 257.39501716 -130.04322869 238.19752762 -130 219 C-149.8 219 -169.6 219 -190 219 C-190 185.34 -190 151.68 -190 117 C-170.2 117 -150.4 117 -130 117 C-130 84.66 -130 52.32 -130 19 C-111.86888939 16.07562732 -93.74869165 13.15636969 -75.5859375 10.44921875 C-73.53471103 10.14253363 -71.48349256 9.83579506 -69.43228149 9.52900696 C-65.21334676 8.89849825 -60.99419832 8.26944394 -56.77490234 7.64135742 C-51.37359818 6.83706854 -45.97307694 6.02763939 -40.57271385 5.21705914 C-36.37298255 4.5874804 -32.17276514 3.96119462 -27.97240067 3.33585548 C-25.97793763 3.03839655 -23.98364897 2.73976595 -21.98954391 2.43991661 C-19.2283943 2.02509225 -16.46659864 1.61486941 -13.70458984 1.20581055 C-12.89229919 1.08275543 -12.08000854 0.95970032 -11.24310303 0.83291626 C-7.41570512 0.27089468 -3.88819711 0 0 0 Z " fill="currentColor" transform="translate(1823,180)"/>
<path d="M0 0 C0 38.61 0 77.22 0 117 C26.73 117 53.46 117 81 117 C81 150.66 81 184.32 81 219 C54.27 219 27.54 219 0 219 C0.090747 243.6944201 0.090747 243.6944201 0.20898438 268.38867188 C0.26334131 278.46800066 0.31475955 288.54727998 0.34643555 298.62670898 C0.36952548 305.96955988 0.40304444 313.31227942 0.44870156 320.6550259 C0.47248675 324.5371779 0.49131118 328.41920101 0.49761391 332.30142403 C0.50373221 335.96802707 0.52396944 339.63430094 0.55427551 343.30078125 C0.56703258 345.26236621 0.56550442 347.22402851 0.5632782 349.18565369 C0.70295424 362.6319131 1.86303354 375.86303354 11.75 385.75 C21.24890484 392.32616489 31.40757123 394.38189019 42.8125 394.3125 C43.70960693 394.31121094 44.60671387 394.30992187 45.53100586 394.30859375 C54.50647621 394.18324896 63.22893571 392.89669382 72.04321289 391.27539062 C74 391 74 391 78 391 C78 423.67 78 456.34 78 490 C57.83027888 494.74581673 57.83027888 494.74581673 52.125 495.625 C51.36582275 495.74270752 50.60664551 495.86041504 49.82446289 495.98168945 C5.31052803 502.43891703 -48.79244045 502.80226806 -87.06640625 475.83984375 C-109.02273685 458.52518527 -120.05877938 433.84780505 -125.6875 407.0625 C-125.89004395 406.13010498 -126.09258789 405.19770996 -126.30126953 404.23706055 C-130.68189638 382.14942115 -130.28301294 359.48660739 -130.20278788 337.07525253 C-130.1900722 332.9073531 -130.18909395 328.73944904 -130.18673706 324.5715332 C-130.18058228 316.72058508 -130.16425504 308.86969432 -130.14403808 301.01877117 C-130.12148927 292.06313315 -130.11063851 283.10749203 -130.10064721 274.15183258 C-130.07988161 255.7678495 -130.04328298 237.3839448 -130 219 C-149.8 219 -169.6 219 -190 219 C-190 185.34 -190 151.68 -190 117 C-170.2 117 -150.4 117 -130 117 C-130 84.66 -130 52.32 -130 19 C-100.56306751 14.32886999 -71.11338826 9.77509869 -41.63503265 5.3751564 C-39.12324666 4.99973794 -36.61167571 4.62291039 -34.10015869 4.24569702 C-30.11028076 3.64666451 -26.11985346 3.051435 -22.12896729 2.45915794 C-20.6458134 2.23851079 -19.16283762 2.01666276 -17.68005371 1.79354286 C-15.63762026 1.48652034 -13.5945578 1.18408583 -11.55126953 0.8828125 C-10.40159698 0.71152832 -9.25192444 0.54024414 -8.06741333 0.36376953 C-5 0 -5 0 0 0 Z " fill="currentColor" transform="translate(3206,180)"/>
<path d="M0 0 C42.9 0 85.8 0 130 0 C130 167.97 130 335.94 130 509 C87.1 509 44.2 509 0 509 C0 341.03 0 173.06 0 0 Z " fill="currentColor" transform="translate(504,163)"/>
<path d="M0 0 C1.22332031 -0.00386719 2.44664062 -0.00773437 3.70703125 -0.01171875 C4.89941406 -0.01042969 6.09179688 -0.00914062 7.3203125 -0.0078125 C8.38781738 -0.00668457 9.45532227 -0.00555664 10.55517578 -0.00439453 C14.34430718 0.14329187 18.11227391 0.65465924 21.875 1.125 C21.875 38.745 21.875 76.365 21.875 115.125 C14.615 114.135 7.355 113.145 -0.125 112.125 C-5.90747622 111.86766467 -11.60034411 111.68411206 -17.375 111.75 C-18.10003723 111.75398804 -18.82507446 111.75797607 -19.57208252 111.76208496 C-41.8043096 111.90465001 -65.42890016 114.82496202 -82.4375 130.6875 C-100.89483761 150.52538644 -101.415547 176.85021591 -101.44384766 202.43603516 C-101.45317291 204.39926046 -101.46334531 206.3624819 -101.47428894 208.32569885 C-101.50131071 213.59511789 -101.51665461 218.86451064 -101.52971697 224.13398027 C-101.5454709 229.6632742 -101.57222122 235.19251535 -101.5977478 240.72177124 C-101.64432042 251.16532049 -101.68116788 261.60887991 -101.71442068 272.05247915 C-101.75998689 286.18391519 -101.82078036 300.31528548 -101.88066864 314.44666672 C-101.97446492 336.67274466 -102.04809288 358.89884233 -102.125 381.125 C-145.025 381.125 -187.925 381.125 -232.125 381.125 C-232.125 257.375 -232.125 133.625 -232.125 6.125 C-190.215 6.125 -148.305 6.125 -105.125 6.125 C-104.795 19.985 -104.465 33.845 -104.125 48.125 C-100.165 43.835 -96.205 39.545 -92.125 35.125 C-68.18945939 9.25917386 -34.35083069 -0.10928154 0 0 Z " fill="currentColor" transform="translate(2972.125,290.875)"/>
<path d="M0 0 C42.9 0 85.8 0 130 0 C130 123.75 130 247.5 130 375 C87.1 375 44.2 375 0 375 C0 251.25 0 127.5 0 0 Z " fill="currentColor" transform="translate(677,297)"/>
<path d="M0 0 C0.89041992 0.71325439 0.89041992 0.71325439 1.79882812 1.44091797 C36.65603787 29.57674018 57.66964132 69.9096622 63.40234375 114.1015625 C64.01760413 120.22045338 64.12199874 126.35451246 64.1875 132.5 C64.20719849 133.66776978 64.20719849 133.66776978 64.22729492 134.85913086 C64.23783651 142.28122023 64.23783651 142.28122023 62 145 C59.04323089 145.74831332 56.3697079 146.21564652 53.359375 146.5625 C52.46668915 146.67926086 51.5740033 146.79602173 50.65426636 146.9163208 C47.6883092 147.29749692 44.71977262 147.64987919 41.75 148 C39.66710182 148.25705682 37.58425747 148.51455022 35.50146484 148.77246094 C13.71744082 151.42327818 -8.11513897 153.40852138 -30 155 C-30.80928955 155.06058594 -31.6185791 155.12117187 -32.45239258 155.18359375 C-56.61907384 156.98801255 -80.77819516 157.17884449 -105 157.1875 C-105.73313667 157.18808914 -106.46627335 157.18867828 -107.22162628 157.18928528 C-122.0075594 157.19946478 -136.78618148 157.15013507 -151.5625 156.55078125 C-152.51342529 156.51228561 -153.46435059 156.47378998 -154.4440918 156.43412781 C-159.67670129 156.19184543 -164.81145994 155.72159757 -170 155 C-165.73117917 189.53798298 -159.99508883 229.56841181 -135 256 C-134.154375 256.9075 -133.30875 257.815 -132.4375 258.75 C-131.2309375 259.86375 -131.2309375 259.86375 -130 261 C-129.47921875 261.49113281 -128.9584375 261.98226563 -128.421875 262.48828125 C-121.61796905 268.66389859 -114.01157519 272.29275586 -104.8125 273.375 C-94.90207679 272.40020427 -87.27844808 268.65533868 -80 262 C-79.26136719 261.35289062 -78.52273437 260.70578125 -77.76171875 260.0390625 C-56.12637983 239.93575967 -47.71436405 207.88609657 -42 180 C-32.76 179.34 -23.52 178.68 -14 178 C-17.08559292 205.15321768 -25.40700999 233.66923201 -40 257 C-10.0292481 241.95345925 13.67026139 216.24530441 26 185 C26.61851016 182.85825696 27.22499046 180.71295358 27.8125 178.5625 C29.30758073 174.35082576 29.30758073 174.35082576 32.05078125 172.9609375 C35.05334659 172.35040069 37.93857262 172.16723516 41 172 C43.40355226 171.74304894 45.80251204 171.45529219 48.20263672 171.16821289 C51.79830596 170.74392533 55.39862248 170.37241968 59 170 C56.28655767 197.47360361 39.75909621 223.64201167 22 244 C21.32324219 244.79792969 20.64648438 245.59585937 19.94921875 246.41796875 C15.63702446 251.41676485 11.10669584 255.82333155 6 260 C5.01515625 260.82242187 4.0303125 261.64484375 3.015625 262.4921875 C-24.82279076 285.33670467 -59.75422989 299.89728477 -96 301 C-97.26328125 301.03996094 -98.5265625 301.07992188 -99.828125 301.12109375 C-142.56770018 302.00836853 -185.53530881 287.59662141 -216.875 258.00390625 C-218.87505666 256.11782341 -220.94398998 254.37525339 -223.0625 252.625 C-228.02483529 248.28917197 -231.94801254 243.17117201 -236 238 C-237.20849609 236.53240234 -237.20849609 236.53240234 -238.44140625 235.03515625 C-265.74038067 201.15708627 -276.4400144 156.46251122 -272.3125 113.625 C-268.86981329 82.43735877 -256.76679215 52.38928552 -237 28 C-236.28674561 27.10958008 -236.28674561 27.10958008 -235.55908203 26.20117188 C-208.13679556 -7.77204505 -169.14827562 -28.94568698 -126 -35 C-125.08863281 -35.13148437 -124.17726563 -35.26296875 -123.23828125 -35.3984375 C-79.69358629 -40.45700489 -34.03359045 -27.58321511 0 0 Z M-127 0 C-127.96679688 0.70189453 -127.96679688 0.70189453 -128.953125 1.41796875 C-154.935197 21.96070454 -164.57627027 61.91938114 -169 93 C-169.17354004 94.19810303 -169.17354004 94.19810303 -169.35058594 95.42041016 C-170.87593151 106.30829966 -171.25026935 117.01595613 -171 128 C-150.37036533 130.24021829 -129.62883464 130.16282301 -108.90283203 130.13037109 C-105.23587586 130.12467438 -101.56899228 130.12806657 -97.90203857 130.13380814 C-77.90534425 130.16041878 -57.90205579 130.16120887 -38 128 C-36.39773924 88.71493988 -45.82214081 38.95239701 -73 9 C-73.763125 7.96875 -74.52625 6.9375 -75.3125 5.875 C-83.18330907 -2.54493528 -92.62853365 -8.3434144 -104.1875 -9.25 C-113.1528144 -8.66211053 -119.93615105 -5.4010086 -127 0 Z M-177 11 C-177.67699951 11.40863281 -178.35399902 11.81726562 -179.05151367 12.23828125 C-184.74880327 15.73805454 -189.94958061 19.612767 -195 24 C-195.80695312 24.68578125 -196.61390625 25.3715625 -197.4453125 26.078125 C-223.60609649 48.87655117 -240.09644238 79.63586822 -245 114 C-245.13019531 114.86109375 -245.26039063 115.7221875 -245.39453125 116.609375 C-249.75032243 151.22339561 -239.53372614 188.13846788 -218.74609375 216.0234375 C-216.5572012 218.74147103 -214.30615408 221.38101111 -212 224 C-211.26910156 224.85207031 -210.53820313 225.70414063 -209.78515625 226.58203125 C-198.62591316 239.34946051 -185.12687756 250.21992474 -170 258 C-169.34 257.67 -168.68 257.34 -168 257 C-168.54527344 256.05125 -169.09054688 255.1025 -169.65234375 254.125 C-186.24680283 224.4912413 -194.23715686 190.88616436 -196.74291992 157.1730957 C-196.88068051 154.95610775 -196.88068051 154.95610775 -198 153 C-200.74864701 152.51757225 -203.41727547 152.15593715 -206.1875 151.875 C-207.32155273 151.74544922 -207.32155273 151.74544922 -208.47851562 151.61328125 C-212.67253931 151.15495776 -216.77446106 150.90564985 -221 151 C-221.16905897 147.62511542 -221.33481769 144.25007637 -221.5 140.875 C-221.54769531 139.92367187 -221.59539063 138.97234375 -221.64453125 137.9921875 C-221.68964844 137.0640625 -221.73476562 136.1359375 -221.78125 135.1796875 C-221.82314453 134.33132324 -221.86503906 133.48295898 -221.90820312 132.60888672 C-222.00911782 129.74086953 -222 126.86979204 -222 124 C-214.08 124.66 -206.16 125.32 -198 126 C-197.7525 122.08125 -197.505 118.1625 -197.25 114.125 C-194.51670706 75.73955125 -185.22026373 41.28108058 -168 7 C-171.42011401 7 -174.13828099 9.27185309 -177 11 Z M-41 7 C-40.5153125 7.92296875 -40.030625 8.8459375 -39.53125 9.796875 C-20.39718572 46.77782916 -14.05426087 84.95397115 -11 126 C4.74628051 124.83508059 20.36456762 123.20149006 36 121 C34.69560719 83.49870668 15.29319072 51.11553821 -11.3125 25.8125 C-24.85897819 13.57848555 -24.85897819 13.57848555 -41 7 Z " fill="currentColor" transform="translate(3937,36)"/>
<path d="M0 0 C43.23 0 86.46 0 131 0 C131 31.02 131 62.04 131 94 C87.77 94 44.54 94 0 94 C0 62.98 0 31.96 0 0 Z " fill="currentColor" transform="translate(677,163)"/>
</svg>
