<svg xmlns="http://www.w3.org/2000/svg" viewBox="0 0 577.293 301.5"><defs><clipPath id="a"><path data-name="Rectangle 1861" d="M0 0h577.294v301.5H0z"/></clipPath></defs><g data-name="Group 2929" clip-path="url(#a)"><path data-name="Exclusion 8" d="M97.261 301.503c-.327 0-.563-.464-1.079-1.485l-.005-.01-.005-.005c-.713-1.409-2.835-10.518-4.539-19.494-1.009-5.306-3.237-17.839-2.163-19.61l-43.478 7.027c-1 0-3.35.165-6.32.375l-.185.013h-.016c-5.982.425-14.171 1-20.924 1a42.221 42.221 0 0 1-9.124-.7l-.118-.031h-.009a14.7 14.7 0 0 1-5.835-2.657C1.162 264.003 0 261.103 0 257.309c.022-54.336 3.655-84.6 8.685-126.49l.01-.092c1.815-15.119 3.873-32.258 5.949-52.345.06-.393.135-.973.23-1.708l.028-.215c.628-4.887 2.1-16.336 5.5-26.841 4.232-13.081 9.978-20.292 17.078-21.435 21.476-3.468 54.191-7.874 54.508-7.916l14.8-1.676c.407-.031 41.243-3.085 62.1-3.253 3.212-.026 6.551-.039 10.207-.039 8.82 0 18.063.073 28.767.157h.209l5.268.042c11.4.084 27 .2 44.488.2 18.375 0 68.659-4.27 113.022-8.034l.151-.018c30.468-2.586 59.245-5.031 72.011-5.587 6.526-.281 12.505-.561 17.78-.805h.035C476.419.528 487.686.003 497.563.003c20.545 0 34.114 2.329 60.489 10.385 22.179 8.244 19.168 61.743 19.029 64.018-1.65 27.2-2.1 49.42-2.493 69.028-.459 22.757-.856 42.409-2.926 63.76-2.26 23.29-6.377 46.546-12.955 73.18-3.283 13.28-6.169 14.364-9.331 14.364-.235 0-.477-.005-.691-.013-.231-.005-.468-.011-.7-.011a8.1 8.1 0 0 0-1.276.084c-9.5-.139-33.706-1.658-71.954-4.514-33.441-2.494-75.858-5.881-122.657-9.8-93.284-7.8-178.25-15.536-202.034-18.393a.6.6 0 0 0-.07 0c-1.63 0-10.274 5.807-23.122 15.536-11.582 8.769-23.274 18.24-28.433 23.03-.589.546-.911.846-1.178.846zm367.113-135.045a.256.256 0 0 0-.066.008c-2.173.732-3.087 13-2.716 15.442.607 3.969 11.452 6.925 11.912 7.051a62.306 62.306 0 0 0 15.754 2.017 45.8 45.8 0 0 0 13.5-1.847 23.691 23.691 0 0 0 10.892-6.586c4.047-4.522 5.663-10.752 4.8-18.516a21.026 21.026 0 0 0-7.653-14.592c-3.954-3.276-8.9-5.33-13.674-7.313a57.027 57.027 0 0 1-10.407-5.139 18.463 18.463 0 0 1-4.472-4.446c-1.5-2.2-1.906-4.265-1.183-5.978 1.552-3.691 4.7-5.561 9.375-5.561 5.072 0 10.786 2.143 14.564 3.559.859.323 1.6.6 2.213.805l.452.152.046.016a42.008 42.008 0 0 0 6.449 1.862c.034 0 .066 0 .093-.005 1.478-.17 1.532-12.124 1.481-14.316-.029-1.2-2.55-2.988-6.419-4.54a46.054 46.054 0 0 0-14.554-3.119 42.766 42.766 0 0 0-1.923-.042 41.331 41.331 0 0 0-16.013 3.072c-5.891 2.547-9.987 6.453-12.171 11.612-3.643 8.606-2.774 15.578 2.657 21.317 4.719 4.986 12.169 8.312 18.741 11.248a67.916 67.916 0 0 1 10.682 5.469 10.324 10.324 0 0 1 3.55 5.083 9.741 9.741 0 0 1-.159 6.9c-1.06 2.468-3.7 3.667-8.063 3.667a53.755 53.755 0 0 1-10.079-1.325l-.219-.042c-.807-.16-1.5-.3-2.1-.4a75.99 75.99 0 0 1-8.537-3.079 52.694 52.694 0 0 0-6.753-2.434zm-113.533-10.755a25.1 25.1 0 0 1 3.416.291c4.047.564 5.1 5.112 6.439 10.87 1.171 5.041 2.5 10.747 6.181 15.269 4.277 5.254 10.9 7.806 20.25 7.806h.132c.134.008.481.024.973.024a23.87 23.87 0 0 0 3.186-.2c.407-.055.327-4.942.017-9.435-.207-2.988-.543-6.182-.87-6.182-.776.073-1.52.11-2.207.11-3.51 0-5.807-.915-7.232-2.883-1.264-1.747-1.671-4.084-2.1-6.56v-.026c-.489-2.812-1-5.721-2.814-8-2.026-2.544-5.437-3.9-10.428-4.126.237 0 .477.005.711.005a18.152 18.152 0 0 0 11.418-3.628 18.829 18.829 0 0 0 6.156-8.976 27.581 27.581 0 0 0 .374-15.57 23.791 23.791 0 0 0-8.242-13.029c-8.539-5.744-19.547-6.951-27.278-6.951-9.964 0-17.736 1.954-17.848 2.552a79.189 79.189 0 0 0-.466 8.756c.169 12.318-.29 25.923-.734 39.08-.372 10.954-.754 22.283-.754 32.625 0 1.38.485 1.448 3.17 1.823l.439.063a61.979 61.979 0 0 0 6.965.3c3.344 0 7.476-.157 9.04-.6.43-.115.635-.333 1.077-1.479l-.269-31.849.214-.018a9.753 9.753 0 0 1 1.084-.062zm-73.725-49.583c-.3 0-.606.008-.946.018a26.64 26.64 0 0 1-.77.016c-2.188 0-13.876.5-15.251.653l-.088.01c-.473.05-.633.066-.682.375-.315 1.886 5.02 15 6.134 17.538 5.041 11.436 11.255 22.283 17.262 32.772l.016.026.363.635c.774 5.3.477 10.749.19 16.021-.184 3.352-.355 6.523-.269 9.655.025.963.039 1.755.052 2.39v.233c.046 2.725.046 2.725.769 2.9l.094.024c.042.013.087.024.132.037a33.456 33.456 0 0 0 6.5.435 90.554 90.554 0 0 0 9.575-.451l.207-.026h.016a7.814 7.814 0 0 0 1.672-.328c.226-.089.262-.622.247-1.511-.025-2.678-.223-5.878-.414-8.973-.42-6.783-.893-14.474.038-20.407q1.1-1.936 2.2-3.866c5.716-10.028 11.625-20.4 16.385-31.314 1.339-3.066 4.59-12.386 5.436-15.581a.5.5 0 0 0-.064-.412c-.132-.22-.5-.517-1.489-.7-.956-.173-5.739-.289-9.608-.289-2.826 0-4.858.058-5.579.16q-.386.055-.71.094c-1.256.168-1.827.241-1.933.687a124.689 124.689 0 0 1-6.4 18.587c-.669 1.605-6.91 14.621-7.642 14.621-.321-.585-.647-1.18-.971-1.765l-.4-.721-.021-.037c-1.84-3.336-3.744-6.781-5.3-10.348-.816-1.857-2.742-7.72-4.443-12.89l-.01-.037c-1.237-3.761-2.306-7.011-2.677-7.9-.128-.294-.937-.334-1.621-.334zm-116.867 61.6a45.435 45.435 0 0 1 7.868.64c.5 1.658 1.225 4.4 1.925 7.053 1.3 4.9 2.766 10.445 3.679 12.722.556 1.406.825 1.437 1.166 1.474l.052.008a53.372 53.372 0 0 0 5.417.2c3.588 0 7.8-.168 10.012-.4.14-.016.329-.029.547-.045l.126-.008a14.363 14.363 0 0 0 2.913-.391.056.056 0 0 0 .051-.026c.066-.1.079-.519-.582-2.224-2.681-8.533-5.521-17.06-8.272-25.31-5.671-17.023-11.536-34.621-16.105-52.516-.713-2.513-1.427-2.723-2.041-2.723-.333 0-.87-.008-1.546-.016h-.029a308.75 308.75 0 0 0-4.506-.037c-5.634 0-8.879.241-9.644.713l-.13.076-.079.045a1.807 1.807 0 0 0-.96 1.107c-1.743 4.118-3.483 10.568-5.018 16.26l-.052.2c-.813 3.006-1.58 5.844-2.3 8.165-3.368 10.949-7.081 21.939-10.672 32.57l-.009.024c-2.037 6.03-4.345 12.863-6.526 19.531l-1.191 3.552c.212.3.977.467 1.59.6h.017l.047.01a4.743 4.743 0 0 1 .62.152c1.17.472 6.579.509 8.209.509 3.018 0 5.834-.1 6.846-.239.35-.05.707-.073 1.1-.1 1.035-.071 1.924-.134 2.16-.7.567-1.348 1.691-5.823 2.776-10.148 1.26-5.018 2.451-9.758 2.855-10.072a81.962 81.962 0 0 1 9.686-.662zm-69.977-62.397a106.13 106.13 0 0 0-13.834.821 16.067 16.067 0 0 1-1.924.152l-1.284 82.429a4.171 4.171 0 0 0 2.661.632h.021c.338.013.689.024 1.012.058 1.882.2 4.837.32 7.71.32a53.165 53.165 0 0 0 6.636-.328c.146-.021.287-.039.426-.06h.013c1.553-.218 2.674-.375 2.674-.894 0-2.851-.146-6.6-.286-10.238l-.01-.291c-.083-2.143-.16-4.171-.2-5.82-.041-1.781-.029-3.562-.018-5.291a81.386 81.386 0 0 0-.459-11.408 69.128 69.128 0 0 0 13.106 1.338 40.182 40.182 0 0 0 12.315-1.723 21.093 21.093 0 0 0 9.745-6.19c4.366-5.1 5.819-12.593 4.32-22.288-1.241-8.013-6.765-13.865-16.416-17.393-4.77-1.746-13.191-3.826-26.208-3.826zm311.508.876a46.969 46.969 0 0 0-5.946.294c-2.106.3-2.362 1.162-2.607 3.746-.27 2.859-.45 6.227-.626 9.482v.029c-.1 1.938-.212 3.94-.338 5.794a185.945 185.945 0 0 0-.017 28.806c.985 11.017 3.284 19.232 6.834 24.415a23.551 23.551 0 0 0 10.664 8.181 38.622 38.622 0 0 0 14.5 2.686A39.263 39.263 0 0 0 443 185.113c5.8-3.221 9.544-7.822 10.83-13.3 3.241-13.847 3.995-34.886 3.323-48.573-.043-.887-.051-2.009-.059-3.2-.034-5.558-.081-13.154-3.491-13.545-1-.118-4.171-.278-7.521-.278-2.437 0-6.638.094-7.4.734a17.191 17.191 0 0 0 .094 3.638c.257 4.165.372 9.112.481 13.9v.16c.07 3.069.148 6.547.27 9.674.374 9.59.261 22.361-2.4 28.759a14.014 14.014 0 0 1-12.983 8.674 12.7 12.7 0 0 1-6.952-2.007 12.537 12.537 0 0 1-4.834-6.175c-1.952-5.2-2.64-16.331-1.991-32.182.037-.881.169-2.615.351-4.965.536-6.969 1.432-18.634.529-19.615a.178.178 0 0 0-.131-.068c-.369-.037-.631-.068-.876-.094l-.1-.01a54.232 54.232 0 0 0-1.4-.15c-1.726-.181-4.396-.287-6.96-.287zm-185.1-.742c-6.02 0-10.954.449-12.809.619h-.031l-.682.06c-.344.024-.66.052-.964.079l-.083.008c-.748.066-1.4.123-2.076.123l-.951 81.484c0 1.107.068 1.472.866 1.574a16.07 16.07 0 0 0 2.062.081c3.108 0 8.672-.231 12.352-.386 1.983-.081 3.695-.152 4.2-.152 1.07 0 2.062-.108 2.062-.892 0-2.473-.315-11.977-.593-20.36l-.009-.252c-.165-4.934-.334-10.041-.379-12.045a61.412 61.412 0 0 0 12.6 1.372c7.048 0 16.647-1.43 22.361-8.242 4.4-5.243 5.764-12.842 4.046-22.576-1.376-7.79-6.876-13.461-16.347-16.853-6.764-2.415-15.384-3.643-25.623-3.643zm-51.382 51.7h-11.933c.936-2.93 1.645-6.311 2.328-9.582a82.336 82.336 0 0 1 2.9-11.253c.042-.113.081-.233.118-.349.16-.509.327-1.033.855-1.083l5.737 22.264zm190.735-11.848a19.783 19.783 0 0 1-6.366-1.044v-21.7a8.015 8.015 0 0 1 5.569-1.82 16.629 16.629 0 0 1 8.527 2.513c2.8 1.773 4.522 4.194 4.851 6.822.609 4.908-.261 8.732-2.59 11.366-2.195 2.493-5.744 3.865-9.989 3.865zm-257-.362a23.318 23.318 0 0 1-5.63-.682v-22.162a15.757 15.757 0 0 1 6.649-1.414 13.149 13.149 0 0 1 8.475 2.786c2.652 2.224 4 5.569 4 9.941 0 4.037-1.456 7.1-4.329 9.086a16.342 16.342 0 0 1-9.162 2.447zm125.814 0a25.009 25.009 0 0 1-5.683-.679v-23.176a11.171 11.171 0 0 1 5.372-1.175c6.274 0 13.207 3.536 13.606 11.3.218 4.315-.8 7.691-3.031 10.036-2.898 3.05-7.18 3.693-10.261 3.693z" fill="currentColor" stroke-miterlimit="10"/></g></svg>