<svg xmlns="http://www.w3.org/2000/svg" width="91.853" height="51.796"><defs><clipPath id="clip-path"><path id="Path_8687" data-name="Path 8687" d="M0 0h91.853v51.8H0Z" fill="currentColor"/></clipPath></defs><g id="Group_2488" data-name="Group 2488" clip-path="url(#clip-path)" fill="currentColor"><path id="Path_1" data-name="Path 1" d="M287.992 176.618h-6.25a1.62 1.62 0 0 0 .261.58 2.331 2.331 0 0 0 1.958 1.073 2 2 0 0 0 1.856-1.031h2.031a4.224 4.224 0 1 1-3.9-5.786 4.132 4.132 0 0 1 4.161 4.192 4.452 4.452 0 0 1-.116.97Zm-4.032-3.393a2.236 2.236 0 0 0-2.278 1.842h4.453a2.064 2.064 0 0 0-2.175-1.842Z" transform="translate(-231.408 -141.852)"/><path id="Path_2" data-name="Path 2" d="M340.146 179.791v-1a3.971 3.971 0 0 1-2.814 1.262c-2.422 0-3.915-2.045-3.915-4.335a4.074 4.074 0 0 1 4.032-4.249 3.552 3.552 0 0 1 2.378.957 2.176 2.176 0 0 1 .29.333h.03v-1.016h1.769v8.048Zm-2.407-6.555a2.524 2.524 0 0 0 0 5.046 2.53 2.53 0 0 0 0-5.047Z" transform="translate(-275.85 -141.863)"/><path id="Path_3" data-name="Path 3" d="M390.034 168.249v-10.731h1.929v10.731Z" transform="translate(-322.693 -130.322)"/><path id="Path_4" data-name="Path 4" d="M409.018 159.289v-1.769h1.929v1.769Zm0 8.962V160.2h1.929v8.048Z" transform="translate(-338.399 -130.323)"/><path id="Path_5" data-name="Path 5" d="M429.106 161.914v6.336h-1.929v-6.336h-.943V160.2h.943v-2.68h1.929v2.68h1.16v1.711Z" transform="translate(-352.643 -130.323)"/><path id="Path_6" data-name="Path 6" d="M457.83 183.791h-2.074l1.479-3.437-2.944-7.294h2.2l1.827 5.162 1.943-5.162h2.19Z" transform="translate(-375.856 -143.18)"/><path id="Path_7" data-name="Path 7" d="M506.575 173.262v1.016h-.227v-1.016h-.227v-.212h.684v.212Z" transform="translate(-418.737 -143.172)"/><path id="Path_8" data-name="Path 8" d="M511.946 174.277v-.921h-.005l-.313.922h-.193l-.316-.922v.922h-.227v-1.229h.316l.327.929.324-.929h.316v1.229Z" transform="translate(-422.68 -143.17)"/><path id="Path_9" data-name="Path 9" d="m236.123 162.617 2.455 4.513a2.041 2.041 0 0 0 1.793 1.066h1.109l-2.6-4.63.138-.059a2.74 2.74 0 0 0 1.236-1.016 3.479 3.479 0 0 0-.685-4.357 5.024 5.024 0 0 0-3.009-.688h-3.453v10.737h1.968v-8.765h1.714a2.225 2.225 0 0 1 1.11.29 1.488 1.488 0 0 1 .658 1.275 1.63 1.63 0 0 1-.628 1.341 3.03 3.03 0 0 1-1.613.292Z" transform="translate(-192.859 -130.262)"/><path id="Path_10" data-name="Path 10" d="M251.222 105.169v-1a3.971 3.971 0 0 1-2.814 1.262c-2.422 0-3.915-2.045-3.915-4.335a4.074 4.074 0 0 1 4.032-4.249 3.552 3.552 0 0 1 2.378.957 2.177 2.177 0 0 1 .29.333h.03v-1.016h1.77v8.048Zm-2.407-6.555a2.524 2.524 0 0 0 0 5.046 2.53 2.53 0 0 0 0-5.047Z" transform="translate(-202.279 -80.125)"/><path id="Path_11" data-name="Path 11" d="M302.465 109.168h-2.074l1.479-3.437-2.944-7.294h2.2l1.827 5.162 1.943-5.162h2.19Z" transform="translate(-247.316 -81.441)"/><path id="Path_12" data-name="Path 12" d="M352.951 102H346.7a1.62 1.62 0 0 0 .261.58 2.331 2.331 0 0 0 1.958 1.073 2 2 0 0 0 1.856-1.031h2.031a4.224 4.224 0 1 1-3.9-5.786 4.132 4.132 0 0 1 4.162 4.191 4.454 4.454 0 0 1-.116.973Zm-4.032-3.4a2.236 2.236 0 0 0-2.277 1.842h4.453a2.064 2.064 0 0 0-2.175-1.842Z" transform="translate(-285.161 -80.114)"/><path id="Path_13" data-name="Path 13" d="M401.464 100.64v4.524h-1.929v-8.047h1.765v.711h.03a1.865 1.865 0 0 1 1.885-.986v1.871c-1.258.042-1.751.753-1.751 1.927Z" transform="translate(-330.553 -80.121)"/><path id="Path_14" data-name="Path 14" d="M431.162 102h-6.25a1.62 1.62 0 0 0 .261.58 2.331 2.331 0 0 0 1.958 1.073 2 2 0 0 0 1.856-1.031h2.03a4.224 4.224 0 1 1-3.9-5.786 4.132 4.132 0 0 1 4.162 4.191 4.454 4.454 0 0 1-.116.97Zm-4.032-3.4a2.236 2.236 0 0 0-2.277 1.842h4.447a2.064 2.064 0 0 0-2.175-1.842Z" transform="translate(-349.867 -80.114)"/><path id="Path_15" data-name="Path 15" d="M482.976 93.629v-.986h-.03a2.99 2.99 0 0 1-2.567 1.247 4.185 4.185 0 0 1-4.1-4.278 4.24 4.24 0 0 1 2.524-3.959 3.923 3.923 0 0 1 1.581-.348 3.076 3.076 0 0 1 2.436.986V82.9h1.929v10.729Zm-2.393-6.555a2.528 2.528 0 1 0 2.378 2.523 2.486 2.486 0 0 0-2.378-2.523Z" transform="translate(-394.043 -68.585)"/><path id="Path_16" data-name="Path 16" d="M207.681 93.645h6.008v-1.762h-3.935v-6.636a2.3 2.3 0 0 0-2.072-2.288Z" transform="translate(-171.824 -68.636)"/><path id="Path_17" data-name="Path 17" d="M29.284 43.014 25.37 35.82h-6.958V14.4A8.492 8.492 0 0 0 9.92 5.906h-.041v37.408h19.583q-.092-.148-.177-.3Z" transform="translate(-9.706 -1.072)"/><path id="Path_19" data-name="Path 19" d="M62.718 72.826a9.531 9.531 0 0 0 4.33-3.563 11.042 11.042 0 0 0 1.667-6.043 11.077 11.077 0 0 0-4.057-9.11c-1.849-1.444-5.1-2.391-10.328-2.391h-5.744a8.452 8.452 0 0 1 1.226 4.4v3.089H55.1a6.985 6.985 0 0 1 3.473.9 4.542 4.542 0 0 1 1.986 3.878 4.973 4.973 0 0 1-1.894 4.1c-1.127.722-2.977.9-5.142.9h-1.4l8.566 15.74a7.27 7.27 0 0 0 6.385 3.795h4.474Z" transform="translate(-40.197 -42.79)"/></g></svg>