<svg xmlns="http://www.w3.org/2000/svg" xmlns:xlink="http://www.w3.org/1999/xlink" width="1110" height="328" viewBox="0 0 1110 328">
  <defs>
    <clipPath id="clip-Artboard_2">
      <rect width="1110" height="328"/>
    </clipPath>
  </defs>
  <g id="Artboard_2" data-name="Artboard – 2" clip-path="url(#clip-Artboard_2)">
    <g id="icons" transform="translate(0 0)">
      <path id="Path_1" data-name="Path 1" d="M362.736,19.9V88.554H350.921l-34.7-58.223h-.213V88.554H307.6V19.9h12.986l33.422,56.733h.213V19.9Z" transform="translate(19.812 1.282)"/>
      <path id="Path_2" data-name="Path 2" d="M420.773,63.533c0,14.8-8.09,25.333-23.736,25.333S373.3,78.435,373.3,63.533,381.389,38.2,397.036,38.2,420.773,48.738,420.773,63.533ZM396.93,82.267c10.751,0,14.263-8.515,14.263-18.734S407.68,44.8,396.93,44.8s-14.263,8.515-14.263,18.734S386.179,82.267,396.93,82.267Z" transform="translate(24.044 2.46)"/>
      <path id="Path_3" data-name="Path 3" d="M431.8,40.392V30.174l9.047-2.874V40.286l11.07-.319v6.706l-11.07-.106V77.327c0,3.406,2.661,5,5.854,5a25.375,25.375,0,0,0,4.79-.532v6.919c-2.129.106-4.045.532-6.174.532a37.881,37.881,0,0,1-6.067-.426,9.037,9.037,0,0,1-5.322-3.087c-1.6-2.235-2.129-2.448-2.129-8.835V46.566l-8.2.106v-6.6Z" transform="translate(27.284 1.758)"/>
      <path id="Path_4" data-name="Path 4" d="M461.5,40.392V30.174l9.047-2.874V40.286l11.07-.319v6.706l-11.07-.106V77.327c0,3.406,2.661,5,5.854,5a25.375,25.375,0,0,0,4.79-.532v6.919c-2.129.106-4.045.532-6.174.532a37.88,37.88,0,0,1-6.067-.426,9.037,9.037,0,0,1-5.322-3.087c-1.6-2.235-2.129-2.448-2.129-8.835V46.566l-8.2.106v-6.6Z" transform="translate(29.197 1.758)"/>
      <path id="Path_5" data-name="Path 5" d="M489.7,19.9h10.751v9.793H489.7Zm.852,68.654V40.869H499.6V88.554Z" transform="translate(31.541 1.282)"/>
      <path id="Path_6" data-name="Path 6" d="M523.935,46.709h.213c3.087-5.961,9.686-8.409,14.476-8.409,3.3,0,18.095.852,18.095,16.179v33h-9.047V57.459c0-7.877-3.3-12.134-10.963-12.134a12.241,12.241,0,0,0-8.728,3.513c-1.384,1.384-3.832,3.406-3.832,12.773V87.582H515.1V39.9h8.835Z" transform="translate(33.177 2.467)"/>
      <path id="Path_7" data-name="Path 7" d="M602.816,39.69h9.367a77.8,77.8,0,0,0-.532,8.515V81.735c0,17.456-7.557,24.588-25.12,24.588-10.218,0-17.563-4.364-17.669-15.434h9.473c.426,6.386,4.79,8.835,11.07,8.835,12.879,0,12.879-10.644,13.092-21.395h-.319c-2.874,5.748-9.793,8.09-15.647,8.09-14.582,0-20.33-10.218-20.33-23.63,0-13.731,7.664-24.588,22.14-24.588a15.338,15.338,0,0,1,12.773,6.28c.213.213,1.384,2.98,1.384,2.235ZM589.085,79.925c9.793,0,13.411-8.409,13.411-17.563S598.877,44.8,589.085,44.8c-10.538,0-13.412,10.112-13.412,17.563S578.547,79.925,589.085,79.925Z" transform="translate(36.468 2.46)"/>
      <path id="Path_8" data-name="Path 8" d="M624.3,88.554V19.9h9.047V47.149h.213c3.406-5.322,8.515-7.77,15.54-7.77,12.454,0,16.392,8.3,16.392,16.818V88.554h-9.047V60.348c0-8.409-2.235-13.731-10.644-13.944-3.619-.106-9.154,2.661-10.857,6.6-2.129,4.9-1.49,8.409-1.49,11.07V88.554Z" transform="translate(40.21 1.282)"/>
      <path id="Path_9" data-name="Path 9" d="M706.887,57.892c0-8.3-.426-13.092-10.112-13.092-4.577,0-8.835,2.661-8.941,7.557h-9.473c.426-10.431,8.622-14.157,18.095-14.157,9.793,0,19.479,2.98,19.479,16.285V77.264c0,2.129.106,6.067.426,10.112h-6.067c-.852,0-2.448.426-2.555-.639-.213-2.235-.426-4.258-.426-6.493H707.1c-2.98,5.961-8.3,8.515-14.8,8.515-8.3,0-16.6-4.258-16.6-13.624,0-13.412,11.921-17.35,23.2-17.35h7.983Zm-9.047,6.28c-5.535.319-12.879,2.235-12.879,9.26,0,5.854,4.045,8.835,9.367,8.835,10.644,0,12.666-9.26,12.454-18.095Z" transform="translate(43.521 2.46)"/>
      <path id="Path_10" data-name="Path 10" d="M737.135,46.5h.213a14.9,14.9,0,0,1,13.625-8.3c9.047,0,14.369,3.087,16.818,8.941,3.406-5.854,8.835-8.941,15.86-8.941,11.07,0,17.776,6.919,17.776,15.54V87.376h-9.047V59.169c0-6.6-.958-13.944-11.5-13.944-2.767,0-8.835,1.49-10.538,7.451a34.382,34.382,0,0,0-.958,10.218V87.376h-9.047V59.169c0-8.3-1.916-13.944-10.538-13.944A12.273,12.273,0,0,0,737.986,53c-1.064,2.448-.639,8.728-.639,9.9V87.376H728.3V39.69h8.835Z" transform="translate(46.909 2.46)"/>
      <path id="Path_11" data-name="Path 11" d="M853.791,28.1H830.8V19.9h55.456v8.2H863.264V88.554h-9.473Z" transform="translate(53.511 1.282)"/>
      <path id="Path_12" data-name="Path 12" d="M893.347,87.324H884.3V39.639h9.047V48.9h.213c1.384-6.6,7.451-9.9,13.944-9.9,1.171,0,2.129.106,3.087.106v8.515a12.433,12.433,0,0,0-3.938-.426c-11.389.426-13.411,6.493-13.411,16.5l.106,23.63Z" transform="translate(56.957 2.512)"/>
      <path id="Path_13" data-name="Path 13" d="M924.873,65.23c-.639,8.409,2.767,17.031,12.028,17.031,7.025,0,10.538-2.767,11.6-9.686h9.473c-1.384,10.857-9.793,16.285-21.182,16.285C921.467,88.859,915.4,78,915.4,63.952S922.425,38.3,937.54,38.3c14.263.319,20.969,9.367,20.969,22.565v4.471l-33.635-.106Zm24.056-6.28c.213-7.983-3.406-14.157-12.134-14.157-7.557,0-12.028,6.386-12.028,14.157Z" transform="translate(58.96 2.467)"/>
      <path id="Path_14" data-name="Path 14" d="M977.334,46.709h.213c3.087-5.961,9.686-8.409,14.476-8.409,3.3,0,18.095.852,18.095,16.179v33h-9.047V57.459c0-7.877-3.3-12.134-10.963-12.134a12.24,12.24,0,0,0-8.728,3.513c-1.384,1.384-3.832,3.406-3.832,12.773V87.582H968.5V39.9h8.835Z" transform="translate(62.38 2.467)"/>
      <path id="Path_15" data-name="Path 15" d="M1024,40.392V30.174l9.047-2.874V40.286l11.07-.319v6.706l-11.07-.106V77.327c0,3.406,2.661,5,5.854,5a25.375,25.375,0,0,0,4.79-.532v6.919c-2.129.106-4.045.532-6.174.532a37.882,37.882,0,0,1-6.067-.426,9.037,9.037,0,0,1-5.322-3.087c-1.6-2.235-2.129-2.448-2.129-8.835V46.566l-8.2.106v-6.6Z" transform="translate(65.427 1.758)"/>
      <path id="Path_16" data-name="Path 16" d="M137.734,0C41.086,0,0,11.921,0,11.921V176.053c0,127.09,137.734,151.359,137.734,151.359S275.575,303.25,275.575,176.053V11.921S234.063,0,137.734,0ZM102.183,158.7H80.9l-27.462-58.01-.213.213v57.8H39.17V88.985H61.416l26.61,54.923.213-.213V88.985h14.05Zm63.545-58.117H144.972V158.7h-14.9V100.587H109.315v-11.6h56.52v11.6Zm69.08,32.039c0,18.521-13.305,27.568-30.229,27.568s-30.229-8.941-30.229-27.568V88.985h15.008v37.893c0,11.815.532,22.459,15.221,22.459S219.8,138.586,219.8,126.878V88.985h15.008v43.641Z"/>
      <path id="Path_17" data-name="Path 17" d="M362.85,158.805c.319,17.669-9.047,28.633-27.675,28.633s-27.994-10.963-27.675-28.633V117.4h9.473v43.747c.319,11.815,7.344,18.2,18.2,18.2s17.882-6.386,18.2-18.2V117.4h9.473Z" transform="translate(19.805 7.562)"/>
      <path id="Path_18" data-name="Path 18" d="M385.135,144.109h.213c3.087-5.961,9.686-8.409,14.476-8.409,3.3,0,18.095.852,18.095,16.179v33h-9.047V154.859c0-7.877-3.3-12.134-10.963-12.134a12.241,12.241,0,0,0-8.728,3.513c-1.384,1.277-3.832,3.406-3.832,12.773v25.972H376.3V137.3h8.835Z" transform="translate(24.237 8.74)"/>
      <path id="Path_19" data-name="Path 19" d="M430.2,117.4h10.751v9.793H430.2Zm.852,68.548V138.262H440.1v47.686Z" transform="translate(27.709 7.562)"/>
      <path id="Path_20" data-name="Path 20" d="M469.011,184.686,449,137h10.005l15.221,37.787L489.022,137h9.9l-20.862,47.686Z" transform="translate(28.92 8.824)"/>
      <path id="Path_21" data-name="Path 21" d="M511.373,162.63c-.639,8.409,2.767,17.031,12.028,17.031,7.025,0,10.538-2.767,11.6-9.686h9.473c-1.384,10.857-9.793,16.285-21.182,16.285-15.328,0-21.395-10.857-21.395-24.907s7.025-25.652,22.14-25.652c14.263.319,20.969,9.367,20.969,22.565v4.471H511.373Zm24.056-6.28c.213-7.983-3.406-14.157-12.134-14.157-7.557,0-12.028,6.386-12.028,14.157Z" transform="translate(32.327 8.74)"/>
      <path id="Path_22" data-name="Path 22" d="M564.247,184.724H555.2V137.039h9.047v9.26h.213c1.384-6.6,7.451-9.9,13.944-9.9,1.171,0,2.129.106,3.087.106v8.515a12.432,12.432,0,0,0-3.938-.426c-11.389.426-13.412,6.493-13.412,16.5Z" transform="translate(35.76 8.785)"/>
      <path id="Path_23" data-name="Path 23" d="M605.185,135.7c9.047,0,19.159,3.832,18.521,14.689h-9.473c.426-6.067-4.258-8.09-9.473-8.09-4.9,0-8.728,2.235-8.728,7.557s8.2,5.748,11.6,6.706c8.089,2.661,17.35,3.619,17.35,14.37,0,11.709-11.389,15.327-21.182,15.327-10.005,0-18.308-4.577-18.2-15.54h9.473c.213,5.854,4.151,9.047,9.686,9.047,5.322,0,10.751-2.129,10.751-8.3,0-10.644-28.952-2.661-28.952-21.288C586.452,140.171,596.563,135.7,605.185,135.7Z" transform="translate(37.718 8.74)"/>
      <path id="Path_24" data-name="Path 24" d="M633.7,117.4h10.75v9.793H633.7Zm.852,68.548V138.262H643.6v47.686Z" transform="translate(40.816 7.562)"/>
      <path id="Path_25" data-name="Path 25" d="M660.1,137.792V127.574l9.047-2.874v12.986l11.07-.319v6.706l-11.07-.106v30.761c0,3.406,2.661,5,5.854,5a25.378,25.378,0,0,0,4.79-.532v6.919c-2.129.106-4.045.532-6.174.532a37.884,37.884,0,0,1-6.067-.426,9.037,9.037,0,0,1-5.322-3.087c-1.6-2.235-2.129-2.448-2.129-8.835V143.966l-8.2.106v-6.706Z" transform="translate(41.988 8.032)"/>
      <path id="Path_26" data-name="Path 26" d="M704.227,202.987h-9.26l7.238-18.414L682.3,137.1h10.112l14.9,37.68,15.221-37.68h9.686Z" transform="translate(43.946 8.83)"/>
    </g>
  </g>
</svg>
