<svg xmlns="http://www.w3.org/2000/svg" viewBox="0 0 188.21 89.51" fill="currentColor">
  <g>
    <path d="M120 5.22a.56.56 0 01.61.5V7.9a.58.58 0 01-.52.62h-7v18.7a.53.53 0 01-.45.61h-2.94a.55.55 0 01-.62-.47V8.51h-7.2a.56.56 0 01-.61-.5V5.83a.58.58 0 01.52-.62H120z"/>
    <path d="M122.26 5.83a.54.54 0 01.47-.61h2.8c.38 0 .58.22.58.64v8.47a4.35 4.35 0 014.2-2.26c3.94 0 5.52 2.77 5.52 6.17v5.23c0 .9.29 1.26.81 1.42a.57.57 0 01.49.58v1.72c0 .42-.39.77-1.72.77-2.23 0-3.45-1.23-3.45-3.91v-5.68a2.66 2.66 0 00-2.38-2.93 2.29 2.29 0 00-.37 0 3.23 3.23 0 00-3.1 3.37v8.39c0 .42-.19.64-.58.64h-2.65a.54.54 0 01-.61-.47.33.33 0 010-.14z"/>
    <path d="M142.11 20.5v.16a4 4 0 003.74 4.19h.26a4.73 4.73 0 003.49-1.55c.23-.26.46-.45.71-.16l1.36 1.39a.5.5 0 01.1.67 7.33 7.33 0 01-6.17 2.8c-4.14 0-7.37-2.64-7.37-8 0-5 2.46-8 7.3-8 4.46 0 6.3 2.74 6.3 7.52 0 .68-.12.9-.67.9zm6.07-2.26c0-1.84-.84-3.1-2.84-3.1-1.62 0-2.85.93-3.17 3.1z"/>
    <path d="M122.05 55.3c0 .26-.13.45-.52.61a5.12 5.12 0 01-1.65.2c-6.72 0-5-8.79-9.82-8.79h-2.75v8a.56.56 0 01-.5.62h-3a.57.57 0 01-.62-.5V34a.56.56 0 01.5-.61h7.32c5.4 0 8.33 2 8.33 7a5.85 5.85 0 01-4 5.78c2.46 1.81 2.65 6.65 5.69 6.72h.48c.33 0 .49.16.49.55zm-11.47-11c2.74 0 4.81-1.29 4.81-3.74s-1.65-3.85-4.49-3.85h-3.59v7.59z"/>
    <path d="M125.64 37.53a2.39 2.39 0 11-.1-4.78h.1a2.39 2.39 0 11.26 4.78h-.26m3.2 17.77c0 .39-.32.81-1.71.81-2.2 0-3.46-1.23-3.46-3.91V41a.54.54 0 01.62-.62h2.65a.57.57 0 01.61.51v10.73c0 1 .39 1.36.9 1.42.19 0 .39.16.39.58z"/>
    <path d="M136.14 56c-.74 0-.94-.26-1.29-1.13l-5.23-13.7a.52.52 0 01.25-.7.58.58 0 01.26-.05H133a.71.71 0 01.71.62l3.62 10.53L141 41c.13-.36.32-.62.74-.62h2.72a.54.54 0 01.56.51.52.52 0 010 .24l-5.23 13.7c-.32.87-.65 1.13-1.33 1.13z"/>
    <path d="M149.48 48.64v.17a4 4 0 003.74 4.19h.26a4.76 4.76 0 003.52-1.54c.23-.26.46-.46.71-.17l1.29 1.39a.51.51 0 01.1.68 7.33 7.33 0 01-6.1 2.81c-4.13 0-7.36-2.65-7.36-8 0-5 2.45-8 7.3-8 4.45 0 6.3 2.75 6.3 7.53 0 .68-.13.9-.68.9zm6.07-2.26c0-1.84-.84-3.1-2.84-3.1-1.62 0-2.84.94-3.17 3.1z"/>
    <path d="M162 44.77c0-1-.45-1.33-.93-1.42-.2 0-.39-.16-.39-.55V41c0-.45.48-.68 1.65-.68a2.65 2.65 0 013 2.3v.58c.45-1.42 1.74-2.94 4.68-2.94a5 5 0 011.91.35c.32.13.42.29.23.71l-1.1 2.46c-.17.32-.3.35-.55.26a4.81 4.81 0 00-1.59-.29 3.16 3.16 0 00-3 3.29.34.34 0 000 .1v8.27a.54.54 0 01-.47.61.38.38 0 01-.15 0h-2.65a.54.54 0 01-.58-.48V44.77z"/>
    <path d="M182.87 46.13c-.45 0-.61-.13-.58-.39s0-.45 0-.78c0-1-.71-1.77-2.71-1.77-1.78 0-2.65.67-2.65 1.84 0 3.39 9 .58 9 6.36 0 2.91-2.13 4.78-6.59 4.78-4.26 0-6.14-1.87-6.78-2.78a.51.51 0 010-.74l1.45-1.49c.33-.32.52-.22.68-.06a6 6 0 004.46 2.07c1.84 0 2.65-.59 2.65-1.56 0-2.77-8.82-.51-8.82-6.46 0-2.52 1.71-4.91 6.46-4.91s6.27 2.23 6.27 4.43a2.11 2.11 0 01-.23 1.13.72.72 0 01-.71.36z"/>
    <path d="M120 61.51a.57.57 0 01.61.51v2.18a.56.56 0 01-.52.61h-7v18.7a.54.54 0 01-.45.61h-2.94a.57.57 0 01-.62-.48V64.81h-7.2a.56.56 0 01-.61-.5v-2.18a.57.57 0 01.52-.62H120z"/>
    <path d="M119.41 72.92c0-1-.45-1.33-.94-1.43-.19 0-.39-.16-.39-.54V69.1c0-.45.49-.67 1.65-.67a2.64 2.64 0 013 2.29.34.34 0 010 .1v.48c.46-1.42 1.75-2.94 4.69-2.94a4.76 4.76 0 011.9.36c.33.12.42.29.23.71l-1.1 2.45c-.16.32-.29.36-.55.26a5 5 0 00-1.58-.29 3.17 3.17 0 00-3.05 3.29.38.38 0 010 .1v8.27a.54.54 0 01-.47.61H120a.53.53 0 01-.58-.48.56.56 0 010-.13z"/>
    <path d="M146 83.45c0 .39-.29.81-1.71.81a2.64 2.64 0 01-3-2.52v-.1c-.65 1.29-2.13 2.68-5.14 2.68-3.52 0-4.94-2.17-4.94-5.59v-9.56a.55.55 0 01.47-.62h2.76a.59.59 0 01.62.52.57.57 0 010 .13v8.73c0 2.22 1 3 2.43 3 2.65 0 3.36-2.74 3.36-3.55v-8.21c0-.39.16-.61.58-.61h2.68a.57.57 0 01.62.52.49.49 0 010 .12v10.57c0 .71.2 1.22.81 1.39a.62.62 0 01.49.71z"/>
    <path d="M157.9 74.27c-.46 0-.62-.13-.58-.38s0-.46 0-.78c0-1-.71-1.78-2.72-1.78-1.77 0-2.65.68-2.65 1.84 0 3.4 9.05.59 9.05 6.37 0 2.91-2.13 4.78-6.59 4.78-4.26 0-6.14-1.87-6.78-2.78a.53.53 0 010-.75l1.45-1.49c.32-.32.52-.23.68-.06a6 6 0 004.46 2.06c1.84 0 2.65-.58 2.65-1.55 0-2.78-8.82-.52-8.82-6.46 0-2.52 1.71-4.91 6.46-4.91s6.27 2.23 6.27 4.43a2.11 2.11 0 01-.23 1.13.7.7 0 01-.71.35z"/>
    <path d="M173.44 68.56a.56.56 0 01.62.5V71a.56.56 0 01-.51.61h-5v6c0 2.29.84 3.39 2.65 3.39a3.53 3.53 0 002.13-.68c.23-.13.46-.19.59.13l.8 1.87a.5.5 0 01-.15.69 6.16 6.16 0 01-3.75 1.32c-4.36 0-6.07-2.36-6.07-6.59v-6.15H163a.56.56 0 01-.61-.5v-1.92a.55.55 0 01.5-.61.2.2 0 01.11 0h1.75v-4.24a.53.53 0 01.44-.61H168a.54.54 0 01.59.48.53.53 0 010 .13v4.24z"/>
  </g>
  <g>
    <path d="M19.14 74.68A40 40 0 015.53 46.82c-.06-1.16-.07-2.33 0-3.5a40.22 40.22 0 0114.55-29.25c4.45-3.61 11.59-4.3 17-3.38 2.49.42 5.18 1.45 6.21 3.74s0 5-1.33 7.05c-3.48 5.33-9.16 8.73-14.14 12.72-5.85 4.7-11.12 10.91-12 18.36-1 8.46 4 16.8 10.83 21.83 6.42 4.7 14.26 7 22.09 8.52a.61.61 0 01.48.72.62.62 0 01-.54.49c-1.19.11-2.38.17-3.58.17a40.07 40.07 0 01-25.95-9.61m59.3-14.17c-5.78-1.09-19.81-3.92-23-6.23-4.5-3.29-2-8.27.35-12.87L56 41a30.12 30.12 0 002.63-8.34 29.26 29.26 0 00.19-8.2 23.57 23.57 0 00-2-7.18C53.85 11 47.73 8 41.13 6.72a.61.61 0 01-.48-.72.59.59 0 01.54-.49A38.27 38.27 0 0146 5.37a39.46 39.46 0 0138.27 36.17V44.59a39.72 39.72 0 01-1 9 38.7 38.7 0 01-1.49 5 3.1 3.1 0 01-3.5 2M1.37 44.84A43.56 43.56 0 1044.92 1.18 43.55 43.55 0 001.37 44.84" data-name="Group 8"/>
  </g>
</svg>
