<svg xmlns="http://www.w3.org/2000/svg" viewBox="0 0 175.598 61.301" fill="currentColor">
  <path d="M70.433,87.084H65.21L63.316,81.3H61.6v5.787H56.49V67.909h7.135c4.133,0,6.332,2.327,6.332,6.4v.346a6.146,6.146,0,0,1-2.119,5.08ZM61.644,77.3h.991q2.112,0,2.111-2.517v-.208c0-1.546-.763-2.368-2.111-2.368h-.991Zm15.293,5.478h5.986v4.3h-11.1V67.909H82.843v4.3H76.936v3.082h5.076v4.122H76.936ZM97.988,67.909l2.13,12.066h.327l1.417-12.066h5.48l-3.45,19.155h-6.41L95.739,75.25h-.292L93.7,87.065h-6.41l-3.45-19.155h5.48l1.417,12.066h.327L93.2,67.909Zm22.782,14.873h5.37v4.3H115.656V67.909h5.113V82.782Zm13.543-14.873c4.477,0,6.531,2.669,6.531,6.839v5.58c0,4.319-2.3,6.759-6.531,6.759h-6.9V67.912h6.9Zm1.358,6.332c0-1.267-.683-2.031-1.743-2.031h-1.4V82.785h1.378c1.079,0,1.765-.763,1.765-2.031V74.242Zm22.964,2.517-.169-3.558V67.909H163.4V87.084h-5.035L154.71,77.056h-.238l.158,3.112v6.916h-4.9V67.909h5.411l3.231,8.85Zm15.284,8.134c-.53,1.3-1.2,2.476-3.854,2.476-2.76,0-4.806-2.089-4.806-6.056v-6.3c0-4.905,2.368-7.412,6.936-7.412,4.5,0,6.6,2.34,6.6,5.965v1.22h-5.113V73.8c0-1.317-.545-1.972-1.624-1.972-.982,0-1.646.783-1.646,1.972v7.418c0,1.347.644,1.992,1.646,1.992.911,0,1.7-.61,1.7-2v-.986h-1.646V76.608H178.8V87.082h-4.222l-.346-2.191h-.309ZM87.3,93.581H92.29v14.895H87.3Zm0-4.28H92.29v3.073H87.3Zm21.322-17.111h4.994V87.084h-4.994Zm0-4.28h4.994v3.073h-4.994Zm34.072,4.28h4.994V87.084H142.69Zm0-4.28h4.994v3.073H142.69Zm-4,30.241-.169-3.558V89.3h4.935v19.175h-5.035l-3.657-10.029h-.238l.158,3.112v6.916h-4.905V89.3h5.411l3.231,8.85Zm-15.948-4.57h4.994v14.895h-4.994Zm0-4.28h4.994v3.073h-4.994ZM85.765,108.476H80.542l-1.895-5.787H76.934v5.787H71.822V89.3h7.135c4.133,0,6.332,2.327,6.332,6.4v.346a6.146,6.146,0,0,1-2.119,5.08ZM76.975,98.7h.991q2.112,0,2.111-2.517v-.208c0-1.546-.763-2.368-2.111-2.368h-.991Zm-9.962-.1a4.216,4.216,0,0,1,3.151,4.38v.177c0,3.229-2.106,5.322-5.986,5.322H56.49V89.3h7.868c3.7,0,5.4,2.1,5.4,4.648v.119c0,2.31-.913,3.757-2.744,4.321ZM61.6,93.414v3.212H63.27a1.376,1.376,0,0,0,1.5-1.527V94.98a1.4,1.4,0,0,0-1.546-1.566Zm0,7.025v3.915h1.436c1.339,0,2.011-.644,2.011-1.923v-.169a1.723,1.723,0,0,0-1.972-1.823ZM106.944,89.3v4.28H102.8v14.895H97.709V93.581H93.566V89.3h13.379Zm4.431,16.153-.487,3.023h-5.331l3.99-19.175h7.922l3.99,19.175h-5.331l-.487-3.023Zm3.6-4.183-1.3-7.611h-.327l-1.3,7.611Zm79.664-4.955a21.308,21.308,0,0,0,3.088-.3c2.528-.608,4.5-2.857,7.087-3.132,2.537-.27,4.946,1.551,6.071,3.839.748,1.52,1.045,3.231,1.78,4.756a15.834,15.834,0,0,0,3.677,4.531,5.706,5.706,0,0,1,1.923,2.6,5.283,5.283,0,0,1-.1,2.243,12.624,12.624,0,0,1-.632,2.377,7.278,7.278,0,0,1-3.761,3.832,8.327,8.327,0,0,1-5.385.424c-4.39-1.107-7.669-5.457-12.191-5.679-.932-.045-1.869.093-2.8.015a7.211,7.211,0,0,1-6.075-5.645,9.969,9.969,0,0,1,1.213-7.012,4.15,4.15,0,0,1,2.561-2.009A12.955,12.955,0,0,1,194.636,96.317Zm-6.27-15.695a10.7,10.7,0,0,0-.4,9.782,6.545,6.545,0,0,0,.891,1.315,6.217,6.217,0,0,0,6.6,1.5c2.76-.978,5.059-3.612,5-6.54-.041-2.323-1.542-4.706-1.76-7.02a5.112,5.112,0,0,0-.441-2.2,3.914,3.914,0,0,0-1.951-1.365,4.361,4.361,0,0,0-4.583.66A10.532,10.532,0,0,0,188.367,80.622Zm33.5,24.6a5.017,5.017,0,0,0,1.561-.184,8.731,8.731,0,0,0,5.288-4.464,14.69,14.69,0,0,0,1.492-6.89,9.255,9.255,0,0,0-.513-3.372,4.275,4.275,0,0,0-2.262-2.455,3.324,3.324,0,0,0-2.029-.141,11.316,11.316,0,0,0-2.842,1.7c-1.006.614-2.448.993-3.417,1.659a8.546,8.546,0,0,0-3.5,6.073,8.256,8.256,0,0,0,.281,3.24A7.5,7.5,0,0,0,221.867,105.225Zm-19.224-35.33a15.1,15.1,0,0,0-1.691,6.672c-.039,2.29.329,4.347,2.461,5.7a5.88,5.88,0,0,0,3.359,1.023A5.409,5.409,0,0,0,210,81.775a11.387,11.387,0,0,0,1.5-2.524,15.88,15.88,0,0,0,1.189-3.32c.357-1.711.335-3.376.785-5.065a12.053,12.053,0,0,0,.454-3.292,3.453,3.453,0,0,0-2.79-3.2,5.515,5.515,0,0,0-4.485.936,10.892,10.892,0,0,0-1.771,1.4A14.277,14.277,0,0,0,202.643,69.895Zm20.643,15.585a12.749,12.749,0,0,0,1.566-2.247,22.157,22.157,0,0,0,2-5.9,11.852,11.852,0,0,0-.632-6.309,4.222,4.222,0,0,0-3.136-2.4c-2.238-.443-4.325,2.334-4.866,3.125a31.946,31.946,0,0,0-2.409,3.307,17.434,17.434,0,0,0-1.54,3.843,9.677,9.677,0,0,0-.407,3.08,5.664,5.664,0,0,0,1.027,3.508,5.754,5.754,0,0,0,4.661,2.026A7.061,7.061,0,0,0,223.286,85.479Zm-26.251-11.3c.125.074.285.151.4.067a.3.3,0,0,0,.091-.117,3.388,3.388,0,0,0,.268-1.285,19.485,19.485,0,0,1,.588-3.549c.149-.558.1-1.161-.1-1.233a4.479,4.479,0,0,0-1.931,1.22,12.251,12.251,0,0,0-2.844,3.5c-.145.242-.314.627.019.748a5.811,5.811,0,0,0,1.2-.052A5.247,5.247,0,0,1,197.035,74.183Zm33.211,13.039c.221.236.493.517.807.435.277-.074.411-.391.5-.67a12.35,12.35,0,0,0,.331-5.93c-.048-.327-.208-.872-.45-.949-.262-.084-.753.275-1.088.822a25.333,25.333,0,0,1-2.788,3.822c-.755.887.123.893.807,1.155A4.839,4.839,0,0,1,230.246,87.223ZM212.28,62.635c.42.184.792.526,1.2.746a1.312,1.312,0,0,0,.42.138c.082-.026.132-.125.169-.214a15.912,15.912,0,0,0,.74-2.6c.268-1.192.456-2.13.725-3.322.061-.268.264-.841.007-.932-.242-.084-.779.253-.876.32a17.878,17.878,0,0,0-3.915,4.07c-.357.45-1.034,1.233-.251,1.4A7.615,7.615,0,0,1,212.28,62.635Zm13.828,5.238c.344.078.623-1.332.7-1.977a16.523,16.523,0,0,0-.08-3.56c-.2-1.151-.353-2.47-.915-2.656-.417-.136-1.029,1.4-1.654,2.79-.2.452-1.151,1.73-1.828,3.264-.117.264-.294.783.065.932a14.365,14.365,0,0,1,1.78.236C225.28,67.271,225.591,67.754,226.108,67.873Z" transform="translate(-56.49 -56.438)"/>
</svg>
