<svg xmlns="http://www.w3.org/2000/svg" width="99.452" height="66.206" fill="currentColor"><g data-name="Group 2215"><g data-name="Layer 2"><g data-name="Layer 1"><path data-name="Path 180" d="M14.92 31.967v-1.883h-.651c-.761 0-.951-.323-.951-.951v-9.585h1.3v-1.883H7.91v1.883h.651c.766 0 .955.323.955.951v3.087H5.427v-4.038h1.3v-1.883H0v1.883h.669c.766 0 .951.323.951.951v9.585H.323v1.883h6.706v-1.883h-.651c-.766 0-.951-.323-.951-.951v-3.387h4.089v4.338h-1.3v1.883Zm11.117 0v-1.6h-.812c-.438 0-.669-.185-.669-.651v-4.717c0-2.972-1.906-3.969-4.615-3.969a11.741 11.741 0 0 0-3.789.655v1.971a8.87 8.87 0 0 1 3.3-.72c.974 0 1.532.42 1.532 1.384v.651c-3.41.069-5.824 1.44-5.824 3.877a3.155 3.155 0 0 0 3.434 3.41 4.689 4.689 0 0 0 3.041-1.135 1.755 1.755 0 0 0 1.74.835Zm-5.076-2.511a2.04 2.04 0 0 1-1.158.4 1.2 1.2 0 0 1-1.278-1.274c0-1.025.923-1.846 2.437-1.952ZM32.4 31.967v-1.6h-.461c-.535 0-.789-.115-.789-.674V18.182c0-.535-.254-.7-.881-.7-.835 0-2.229.162-4.412.162l.328 1.624h1.384v11.079H26.4v1.6Zm6.5 0v-1.6h-.461c-.535 0-.789-.115-.789-.674V18.182c0-.535-.254-.7-.881-.7-.835 0-2.229.162-4.412.162l.328 1.624h1.384v11.079H32.9v1.6Zm10.947 0v-1.6h-.812c-.461 0-.674-.185-.674-.651v-4.717c0-2.972-1.9-3.969-4.615-3.969a11.736 11.736 0 0 0-3.766.655v1.971a8.852 8.852 0 0 1 3.3-.72c.974 0 1.532.42 1.532 1.384v.651c-3.415.069-5.829 1.44-5.829 3.877a3.162 3.162 0 0 0 3.434 3.415 4.7 4.7 0 0 0 3.046-1.135 1.755 1.755 0 0 0 1.74.835Zm-5.077-2.511a2.044 2.044 0 0 1-1.163.4 1.191 1.191 0 0 1-1.274-1.274c0-1.025.923-1.846 2.437-1.952Zm24.385 2.511v-1.6h-.461c-.535 0-.789-.1-.789-.674V24.56a3.526 3.526 0 0 0-.923-2.621 3.457 3.457 0 0 0-2.46-.923 5.376 5.376 0 0 0-3.577 1.383 2.031 2.031 0 0 0-.415-.489 3.47 3.47 0 0 0-2.464-.923 5.146 5.146 0 0 0-3.087 1.181v-.346c0-.535-.254-.7-.881-.7-.835 0-2.229.162-4.407.162l.323 1.624H51.4v7.391h-1.212v1.6h5.9v-1.534h-.245c-.531 0-.789-.115-.789-.674v-5.537a2.58 2.58 0 0 1 1.712-.752c.743 0 1.186.415 1.186 1.3v5.667h-.974v1.6h5.663v-1.6H62.3c-.535 0-.789-.1-.789-.674V24.56c0-.138-.023-.277-.023-.415a2.483 2.483 0 0 1 1.735-.743c.743 0 1.181.415 1.181 1.3v5.667h-1v1.6ZM12.363 11.306a3.733 3.733 0 0 0-1.181-2.769 8.118 8.118 0 0 0-1.906-1.186l-1.763-.813c-1.44-.674-2.229-1.158-2.229-2.017 0-.761.766-1.292 1.716-1.292a2.354 2.354 0 0 1 1.648.646 3.023 3.023 0 0 1 .72 1.384l.189.715a.618.618 0 0 0 .669.558h1.232V1.065H9.507l-.092.72a4.477 4.477 0 0 0-3.064-1C3.692.788 1.477 2.436 1.477 5.199c0 1.809 1.066 3.272 3.3 4.2l1.717.72c1.348.558 1.929 1 1.929 1.846a1.089 1.089 0 0 1-.3.743 2.132 2.132 0 0 1-1.509.535 2.478 2.478 0 0 1-2.654-2.228l-.092-.508c-.092-.558-.3-.674-.881-.674h-1.21v5.538h1.952l.138-.812a4.929 4.929 0 0 0 3.18 1.094c3.554 0 5.316-1.846 5.316-4.338Zm13.019 4.057v-1.6h-.461c-.535 0-.789-.1-.789-.674V7.96a3.436 3.436 0 0 0-.923-2.621 3.461 3.461 0 0 0-2.441-.909 5.178 5.178 0 0 0-3.18 1.186V1.599c0-.535-.254-.678-.881-.678-.835 0-2.229.162-4.412.162l.323 1.624H14v11.077h-1.2v1.6h5.967v-1.619h-.392c-.535 0-.789-.115-.789-.674V7.554a2.677 2.677 0 0 1 1.763-.766c.743 0 1.209.392 1.209 1.3v5.681h-1v1.6Zm10.153-5.539c0-3-1.694-5.395-4.873-5.395-3.318 0-5.362 2.442-5.362 5.67 0 3.341 1.883 5.593 5.316 5.593a7.1 7.1 0 0 0 4.5-1.6l-.916-1.513a4.878 4.878 0 0 1-2.815.928c-1.486 0-2.307-1.112-2.344-2.875h6.429a4.823 4.823 0 0 0 .046-.812Zm-3.387-1.278v.489h-3.074c.046-1 .346-2.6 1.648-2.6 1.209 0 1.384 1.278 1.384 2.114Zm8-4.883c0-1.066.651-1.384 1.555-1.384a5.349 5.349 0 0 1 1.717.3V.511a8.616 8.616 0 0 0-2.836-.512c-2.437 0-3.969 1.181-3.969 3.554a3 3 0 0 0 .3 1.181h-1.348v1.624h1.6v7.384h-1.2v1.6H42v-1.577h-.461c-.535 0-.789-.189-.789-.674V6.358h2.437l-.323-1.624h-2.312a1.934 1.934 0 0 1-.4-1.071Zm16.4-1.648a2.006 2.006 0 0 0-3.992 0 2.005 2.005 0 0 0 3.992 0ZM48.24 3.663a1.237 1.237 0 0 1 1.385-1.384 6.835 6.835 0 0 1 1.883.323l.3-2.067a10.578 10.578 0 0 0-3.116-.536c-2.6 0-3.969 1.32-3.969 3.457a4.306 4.306 0 0 0 .254 1.278h-1.6l.328 1.624h1.384v7.384h-1.178v1.6h6v-1.577h-.461c-.535 0-.789-.189-.789-.674V6.358h4.246v7.384h-1.173v1.6h6v-1.577h-.461c-.531 0-.789-.115-.789-.674V5.246c0-.535-.254-.7-.881-.7-.835 0-2.667.162-4.827.162h-2.31a3.018 3.018 0 0 1-.231-1.071ZM68.084 9.82c0-3-1.671-5.39-4.85-5.39-3.318 0-5.363 2.441-5.363 5.667.046 3.341 1.924 5.593 5.353 5.593a7.107 7.107 0 0 0 4.5-1.6l-.923-1.509A4.855 4.855 0 0 1 64 13.53c-1.486 0-2.307-1.112-2.344-2.875h6.429a4.823 4.823 0 0 0 .046-.812ZM64.7 8.541v.489h-3c.046-1 .346-2.6 1.648-2.6 1.2 0 1.384 1.278 1.384 2.114Zm9.8 6.821v-1.6h-.461c-.531 0-.789-.115-.789-.674V1.599c0-.535-.254-.7-.881-.7-.835 0-2.229.162-4.412.162l.328 1.624h1.384v11.08h-1.206v1.6Zm11.823 0v-1.6h-.674a.628.628 0 0 1-.738-.72V1.599c0-.535-.254-.7-.881-.7-.835 0-2.229.162-4.412.162l.328 1.624h1.384v2.072a5.8 5.8 0 0 0-1.846-.328c-2.506 0-4.9 1.846-4.9 5.538 0 3.48 1.786 5.709 4.735 5.709a4.153 4.153 0 0 0 2.857-1.089 1.947 1.947 0 0 0 1.786.785Zm-5.016-2.271a1.878 1.878 0 0 1-1.2.438c-.923 0-1.846-.789-1.846-3.526 0-2.88.951-3.646 1.878-3.646a2.547 2.547 0 0 1 1.158.277v6.465Z"/><path data-name="Path 181" d="M14.214 35.728v-1.883H7.785v1.883h.623c.766 0 .978.254.978.951v6.775a3.175 3.175 0 0 1-.4 1.772 1.758 1.758 0 0 1-1.578.766 1.943 1.943 0 0 1-1.532-.766c-.415-.628-.461-1.278-.461-2.9v-6.598h1.32v-1.883H.032v1.883h.623c.771 0 .978.277.978.951v6.175a5.323 5.323 0 0 0 1.555 4.292 6.469 6.469 0 0 0 4.154 1.25 5.736 5.736 0 0 0 4.412-1.694 6 6 0 0 0 1.168-3.992v-6.982Zm12.548 12.419v-1.6h-.461c-.535 0-.789-.1-.789-.674V40.74a3.521 3.521 0 0 0-.923-2.621 3.461 3.461 0 0 0-2.46-.923 5.187 5.187 0 0 0-3.184 1.186v-.351c0-.531-.254-.692-.881-.692-.835 0-2.224.162-4.407.162l.323 1.624h1.384v7.384h-1.169v1.6h5.921v-1.6h-.354c-.531 0-.789-.12-.789-.674v-5.539a2.714 2.714 0 0 1 1.791-.715c.743 0 1.2.392 1.2 1.3v5.667h-1.059v1.6Zm6.562 0v-1.6h-.461c-.531 0-.789-.12-.789-.674v-7.847c0-.531-.254-.692-.881-.692-.835 0-2.229.162-4.407.162l.323 1.624h1.384v7.384h-1.2v1.6Zm11.9-9.008-.323-1.624h-4.816v1.624h1.094l-1.846 5.432-1.648-4.458c-.208-.554-.069-.974.558-.974h.461v-1.625h-6.021v1.624h1.179l3.577 9.008h2.9l3.087-8.173a1.052 1.052 0 0 1 1.186-.835Zm9.407 3.457c0-2.99-1.675-5.386-4.855-5.386-3.318 0-5.363 2.441-5.363 5.667 0 3.341 1.883 5.57 5.316 5.57a7.089 7.089 0 0 0 4.5-1.6l-.917-1.511a4.86 4.86 0 0 1-2.811.951c-1.486 0-2.307-1.112-2.344-2.875h6.433a4.85 4.85 0 0 0 .046-.817Zm-3.406-1.274v.462h-3.018c.046-1 .351-2.6 1.652-2.6 1.2 0 1.384 1.278 1.384 2.114Zm12.188-1.486v-1.953c0-.461-.235-.674-.794-.674a3.623 3.623 0 0 0-2.769 1.417v-.581c0-.531-.282-.692-.881-.692-.835 0-2.229.162-4.412.162l.328 1.624h1.384v7.384h-1.213v1.6h6v-1.6h-.438c-.535 0-.789-.12-.789-.674v-5.238a4.767 4.767 0 0 1 2.769-.812h.794Zm9.041 5.39a3.3 3.3 0 0 0-2.418-3.23l-1.648-.72c-.951-.42-1.3-.674-1.3-1.209s.531-.951 1.274-.951a1.588 1.588 0 0 1 1.721 1.44l.069.508c.069.461.254.628.789.628h.881v-4.155h-1.274l-.115.6a3.724 3.724 0 0 0-2.667-.923c-2.091 0-3.969 1.278-3.969 3.346a3.429 3.429 0 0 0 2.575 3.318l1.468.572c1.02.392 1.32.651 1.32 1.181s-.531.881-1.32.881a1.936 1.936 0 0 1-2.137-1.6l-.069-.42c-.092-.535-.235-.6-.812-.6h-.881v4.25h1.274l.162-.674a4.643 4.643 0 0 0 3 .974c2.307 0 4.089-1.324 4.089-3.2Zm6.508 2.902v-1.6h-.461c-.531 0-.789-.12-.789-.674v-7.846c0-.531-.254-.692-.881-.692-.835 0-2.229.162-4.412.162l.328 1.624h1.384v7.384h-1.206v1.6Zm7.356-.189v-1.975a5.012 5.012 0 0 1-1.417.254 1.246 1.246 0 0 1-1.209-.7 3.544 3.544 0 0 1-.254-1.578v-4.8h2.483l-.323-1.624h-2.202v-2.771l-2.529.4a1.08 1.08 0 0 0-1 1.228v1.14h-1.32v1.624h1.315v4.74c0 1.948.351 2.972 1.025 3.646a3.72 3.72 0 0 0 2.691.923 8.935 8.935 0 0 0 2.741-.461Zm13.13-8.8-.328-1.624h-5.843v1.624h1.135v6.175a2.686 2.686 0 0 1-1.763.766c-.743 0-1.209-.4-1.209-1.3v-6.735c0-.531-.254-.692-.881-.692-.835 0-2.229.162-4.407.162l.323 1.624h1.387v5.8a3.494 3.494 0 0 0 .923 2.6 3.586 3.586 0 0 0 2.46.923 5.2 5.2 0 0 0 3.18-1.181v1.415a3.037 3.037 0 0 1-.392 1.74 2.394 2.394 0 0 1-2 .771 8.768 8.768 0 0 1-2.926-.535v2.252a12.372 12.372 0 0 0 3.23.462c3 0 4.689-1.3 5.339-3.041a9.327 9.327 0 0 0 .328-3.06V40.02c0-.651.323-.881.858-.881ZM32.129 34.81a2 2 0 1 0 .014 0Zm45.688 0a2.006 2.006 0 1 0-1.994 1.809 1.842 1.842 0 0 0 1.994-1.809Z"/><path data-name="Path 182" d="m5.958 63.514-2.266-3.3v1.846c0 .328.106.461.494.461h.318v.955H1.089v-.955h.66v-4.836c0-.328-.106-.461-.494-.461H.923v-.969h3.42v.969h-.651v2.178l1.449-1.708a7.43 7.43 0 0 0 1.015-1.426h1.9v.955h-.511a.923.923 0 0 0-.78.365l-1.449 1.684 1.994 2.82a.923.923 0 0 0 .872.461h.3v.955Zm6.235 0v-.812h.53v-2.875c0-.461-.235-.66-.614-.66a1.385 1.385 0 0 0-.9.388v2.806c0 .282.129.342.4.342h.175v.812H8.768v-.812h.614v-3.761H8.69l-.162-.826c1.108 0 1.814-.083 2.238-.083.318 0 .461.083.461.355v.175a2.635 2.635 0 0 1 1.615-.6 1.754 1.754 0 0 1 1.251.461 1.791 1.791 0 0 1 .461 1.329v2.607c0 .3.129.342.4.342h.226v.812Zm6.069.171a2.855 2.855 0 0 1 0-5.7 2.854 2.854 0 0 1 0 5.7Zm0-4.583c-.609 0-.849.591-.849 1.731s.24 1.735.849 1.735.849-.591.849-1.735-.235-1.763-.849-1.763Zm11.367-.162a.651.651 0 0 0-.711.545l-1.163 4.029h-1.45l-.8-2.571-.826 2.571H23.19l-1.5-4.573h-.6v-.826h2.986v.826h-.235c-.318 0-.378.189-.3.461l.646 2.192 1.108-3.489h.757l1.131 3.5.706-2.677h-.614v-.826h2.5l.166.826Z"/><path data-name="Path 183" d="M29.849 63.515v-.812h.609v-6.4h-.7l-.166-.826c1.108 0 1.814-.083 2.238-.083.318 0 .461.083.461.355v6.613c0 .282.129.342.4.342h.226v.812Zm8.593-2.4H35.18c0 .9.434 1.463 1.191 1.463a2.469 2.469 0 0 0 1.426-.485l.461.766a3.6 3.6 0 0 1-2.261.831 2.55 2.55 0 0 1-2.7-2.829 2.634 2.634 0 0 1 2.723-2.875 2.661 2.661 0 0 1 2.423 3.129Zm-2.4-2.132c-.66 0-.812.812-.835 1.32h1.532v-.249c.005-.43-.087-1.076-.701-1.076Zm7.735 4.536a.978.978 0 0 1-.923-.4 2.091 2.091 0 0 1-1.449.554c-1.5 0-2.4-1.131-2.4-2.9a2.544 2.544 0 0 1 2.487-2.806 2.935 2.935 0 0 1 .923.166v-1.849h-.674l-.166-.826c1.108 0 1.814-.083 2.238-.083.318 0 .461.083.461.355v6.59c0 .212.083.365.369.365h.365v.812Zm-1.315-4.444a1.274 1.274 0 0 0-.591-.143c-.461 0-.951.388-.951 1.846s.462 1.791.923 1.791a.965.965 0 0 0 .614-.222ZM48 66.21c-1.518 0-2.709-.521-2.709-1.638a1.034 1.034 0 0 1 .766-1.015 1.052 1.052 0 0 1-.365-.789 1.661 1.661 0 0 1 .5-1.085 2.067 2.067 0 0 1-.577-1.523c0-1.357.923-2.169 2.464-2.169a4.719 4.719 0 0 1 .591.046 1.914 1.914 0 0 1 1.555-1.011c.425 0 .54.235.54.577v.4a1.772 1.772 0 0 0-1.237.318 1.961 1.961 0 0 1 1.015 1.846c0 1.357-.923 2.169-2.464 2.169a3.313 3.313 0 0 1-1.061-.152.678.678 0 0 0-.069.249c0 .235.245.3.923.3h1c1.449 0 2.077.577 2.077 1.638.014.902-.789 1.834-2.954 1.834Zm.651-2.169h-.568a6.171 6.171 0 0 1-1.168-.06.563.563 0 0 0-.129.342c0 .54.577.789 1.311.789.881 0 1.306-.3 1.306-.614s-.194-.457-.734-.457Zm-.591-5.076c-.494 0-.66.462-.66 1.191s.166 1.191.66 1.191.66-.461.66-1.191-.148-1.209-.641-1.209Zm8.445 2.151h-3.267c0 .9.434 1.463 1.191 1.463a2.469 2.469 0 0 0 1.426-.485l.461.766a3.6 3.6 0 0 1-2.307.812 2.55 2.55 0 0 1-2.7-2.829 2.635 2.635 0 0 1 2.727-2.875 2.452 2.452 0 0 1 2.46 2.737 2.478 2.478 0 0 1 0 .411Zm-2.4-2.132c-.66 0-.812.812-.835 1.32h1.532v-.249c0-.431-.092-1.077-.706-1.077Zm9.456 4.536v-.955h.563l-.411-1.237h-2.062l-.3.812a.789.789 0 0 0-.046.189c0 .189.143.235.342.235h.342v.955h-2.692v-.955h.7l2.455-6.3h1.237l2.252 5.856a.632.632 0 0 0 .669.461h.226v.955Zm-.817-5.076-.752 2.017h1.44Zm9.516 4.6a2.123 2.123 0 0 1-1.509.632 1.846 1.846 0 0 1-1.237-.4v1.906c0 .591-.309.969-1.085.969h-1.5v-.867h.411c.272 0 .355-.115.355-.3v-6.036h-.724l-.162-.826c1.108 0 1.814-.083 2.238-.083.318 0 .461.083.461.355v.175a2.261 2.261 0 0 1 1.486-.6c1.154 0 2.026.978 2.026 2.852a3.152 3.152 0 0 1-.768 2.214Zm-1.924-3.858a1.384 1.384 0 0 0-.835.378v2.1c0 .577.272.872.729.872.568 0 .923-.591.923-1.712s-.282-1.647-.826-1.647Zm8.348 3.858a2.114 2.114 0 0 1-1.509.632 1.846 1.846 0 0 1-1.237-.4v1.906c0 .591-.309.969-1.085.969h-1.509v-.867h.411c.272 0 .355-.115.355-.3v-6.036h-.725l-.162-.826c1.108 0 1.814-.083 2.238-.083.318 0 .462.083.462.355v.175a2.261 2.261 0 0 1 1.486-.6c1.154 0 2.026.978 2.026 2.852a3.152 3.152 0 0 1-.752 2.22Zm-1.924-3.858a1.385 1.385 0 0 0-.835.378v2.1c0 .577.272.872.729.872.568 0 .9-.591.9-1.712s-.258-1.647-.803-1.647Zm3.161 4.338v-.812h.614v-6.4h-.688l-.162-.826c1.108 0 1.814-.083 2.238-.083.318 0 .461.083.461.355v6.613c0 .282.129.342.4.342h.226v.812Zm3.572 0v-.812h.614v-3.761h-.711l-.162-.826c1.108 0 1.814-.083 2.238-.083.318 0 .462.083.462.355v3.973c0 .282.129.342.4.342h.222v.812Zm1.431-6.2a.923.923 0 1 1 .713-.235.923.923 0 0 1-.722.228Zm7.162 3.793h-3.267c.023.9.438 1.463 1.191 1.463a2.455 2.455 0 0 0 1.426-.485l.462.766a3.6 3.6 0 0 1-2.307.812 2.55 2.55 0 0 1-2.7-2.829 2.634 2.634 0 0 1 2.723-2.875c1.684 0 2.464 1.214 2.464 2.737a2.478 2.478 0 0 1 .009.411Zm-2.4-2.132c-.66 0-.812.812-.84 1.32h1.525v-.249c.008-.432-.084-1.078-.7-1.078Zm7.73 4.536a.978.978 0 0 1-.923-.4 2.1 2.1 0 0 1-1.412.572c-1.5 0-2.409-1.131-2.409-2.9a2.546 2.546 0 0 1 2.487-2.806 2.963 2.963 0 0 1 .946.166v-1.846h-.706l-.166-.826c1.108 0 1.814-.083 2.238-.083.318 0 .461.083.461.355v6.59a.318.318 0 0 0 .365.365h.369v.812Zm-1.345-4.437a1.292 1.292 0 0 0-.591-.143c-.462 0-.955.388-.955 1.846s.462 1.791.923 1.791a.974.974 0 0 0 .614-.222Z"/><path data-name="Path 184" d="M0 50.648h86.655v1.906H0Z"/></g></g></g></svg>