<svg xmlns="http://www.w3.org/2000/svg" width="112.05" height="51"><path id="Color_Fill_1" data-name="Color Fill 1" d="M98.56 23.14 96 31.58S99 29 101.13 29h9.92v38.21s-.38 3.64-2.94 4.41h14s-3.35-2.52-3.67-4.78V29h9.55a1.838 1.838 0 0 1 1.84 1.47s1.72-5.94 3.67-7a43.221 43.221 0 0 1-4.41.37H99.66a7.241 7.241 0 0 0-1.1-.7Zm66.85 8.44v-7.71S161.88 22 154.75 22 136 24.34 136 34.89s11.24 12.68 14 14.32 12.12 4.12 12.12 10.65-9.57 7.67-11.76 7.67-12.63-1.85-15.78-5.83l2.57 9.18A71.13 71.13 0 0 0 150.34 73c5 0 18.94-2.19 19.47-16 0 0 0-7.46-11.38-11.39 0 0-10.83-5.09-11.75-6.24s-6.63-6.43 1.46-11.38c0-.08 10.21-3.74 17.27 3.59ZM175 23.5h12.85s-2.93 2.57-2.93 4v38.2s15.74 3.64 23.13-3.31l-3.67 9.19H175s2.94-2.55 2.94-3.68V27.54a13.75 13.75 0 0 0-2.94-4Z" transform="translate(-96 -22)" fill="currentColor" fill-rule="evenodd"/></svg>