<svg xmlns="http://www.w3.org/2000/svg" width="91.936" height="50"><defs><clipPath id="clip-path"><path id="Path_8676" data-name="Path 8676" d="M0 0h91.935v50H0Z" fill="currentColor"/></clipPath></defs><g id="Group_20" data-name="Group 20" clip-path="url(#clip-path)"><g id="Group_2" data-name="Group 2" transform="translate(.135)"><path id="Path_1" data-name="Path 1" d="M140.582 63.929v6.548h-2.006v-2.413h-1.853v2.413h-2.006v-6.548h2.006v2.32h1.853v-2.32Z" transform="translate(-98.638 -46.744)" fill="currentColor"/><path id="Path_2" data-name="Path 2" d="M165.83 68.812v1.665h-4.946v-6.548h4.835v1.665h-2.863v.767h2.516v1.59h-2.516v.86Z" transform="translate(-117.77 -46.744)" fill="currentColor"/><path id="Path_3" data-name="Path 3" d="M135.482 102.21a3.2 3.2 0 0 1-.765-2.282v-3.6h2.006v3.536a1.836 1.836 0 0 0 .234 1.048.86.86 0 0 0 1.352 0 1.836 1.836 0 0 0 .233-1.048v-3.537h1.972v3.6a3.2 3.2 0 0 1-.765 2.282 3.2 3.2 0 0 1-4.267 0" transform="translate(-98.637 -70.432)" fill="currentColor"/><path id="Path_4" data-name="Path 4" d="M166.747 96.327v6.548H165.1l-2.263-2.975v2.975h-1.955v-6.548h1.649l2.26 2.975v-2.975Z" transform="translate(-117.769 -70.432)" fill="currentColor"/><path id="Path_5" data-name="Path 5" d="M191.168 99.018h1.742v2.769a3.883 3.883 0 0 1-1.224.618 4.624 4.624 0 0 1-1.368.215 3.364 3.364 0 0 1-1.708-.435 3.088 3.088 0 0 1-1.186-1.216 3.876 3.876 0 0 1 0-3.545 3.065 3.065 0 0 1 1.2-1.216 3.468 3.468 0 0 1 1.738-.435 3.668 3.668 0 0 1 1.568.323 2.984 2.984 0 0 1 1.152.941L191.8 98.28a1.652 1.652 0 0 0-1.334-.72 1.34 1.34 0 0 0-1.054.44 2.024 2.024 0 0 0 0 2.386 1.294 1.294 0 0 0 1.033.449 1.74 1.74 0 0 0 .731-.159Z" transform="translate(-136.863 -70.027)" fill="currentColor"/><path id="Path_6" data-name="Path 6" d="M112.741 65.641H111v-1.712h5.49v1.712h-1.742v4.836h-2.006Z" transform="translate(-81.295 -46.744)" fill="currentColor"/><path id="Path_7" data-name="Path 7" d="M112.741 98.04H111v-1.712h5.49v1.712h-1.742v4.836h-2.006Z" transform="translate(-81.295 -70.433)" fill="currentColor"/><path id="Path_8" data-name="Path 8" d="m112.021 132.542-.578-1.647-.578 1.647Zm.552 1.59h-2.261l-.4 1.141h-2.04l2.6-6.548h1.972l2.6 6.548h-2.074Z" transform="translate(-79.01 -94.121)" fill="currentColor"/><path id="Path_9" data-name="Path 9" d="M135.482 134.608a3.2 3.2 0 0 1-.765-2.283v-3.6h2.006v3.537a1.836 1.836 0 0 0 .234 1.048.86.86 0 0 0 1.352 0 1.836 1.836 0 0 0 .233-1.048v-3.536h1.972v3.6a3.2 3.2 0 0 1-.765 2.283 3.2 3.2 0 0 1-4.267 0" transform="translate(-98.637 -94.12)" fill="currentColor"/><path id="Path_10" data-name="Path 10" d="M163.731 133.551a1.358 1.358 0 0 0 1.033-.407 1.891 1.891 0 0 0 0-2.292 1.358 1.358 0 0 0-1.033-.407h-.841v3.106Zm-2.847-4.827h2.932a3.733 3.733 0 0 1 1.755.4 2.849 2.849 0 0 1 1.181 1.137 3.809 3.809 0 0 1 0 3.48 2.85 2.85 0 0 1-1.181 1.137 3.733 3.733 0 0 1-1.755.4h-2.932Z" transform="translate(-117.77 -94.12)" fill="currentColor"/><path id="Rectangle_1" data-name="Rectangle 1" d="M187 128.726h2v6.548h-2Z" transform="translate(-136.864 -94.122)" fill="currentColor"/><path id="Path_11" data-name="Path 11" d="M201.032 130.434h-1.742v-1.712h5.49v1.712h-1.742v4.839h-2.006Z" transform="translate(-145.852 -94.119)" fill="currentColor"/><path id="Path_12" data-name="Path 12" d="M226.054 133.031a1.4 1.4 0 0 0 .48-.571 2.187 2.187 0 0 0 0-1.731 1.4 1.4 0 0 0-.48-.571 1.237 1.237 0 0 0-1.351 0 1.4 1.4 0 0 0-.48.571 2.187 2.187 0 0 0 0 1.731 1.4 1.4 0 0 0 .48.571 1.237 1.237 0 0 0 1.351 0m-2.4 1.549a3.134 3.134 0 0 1-1.2-1.221 3.8 3.8 0 0 1 0-3.527 3.138 3.138 0 0 1 1.2-1.221 3.605 3.605 0 0 1 3.451 0 3.139 3.139 0 0 1 1.2 1.221 3.8 3.8 0 0 1 0 3.527 3.136 3.136 0 0 1-1.2 1.221 3.605 3.605 0 0 1-3.451 0" transform="translate(-162.473 -93.717)" fill="currentColor"/><path id="Path_13" data-name="Path 13" d="M254.644 130.627a.838.838 0 0 0-.612-.2h-.732v1.534h.73a.837.837 0 0 0 .612-.2.887.887 0 0 0 0-1.132m-.8 3h-.542v1.648h-2v-6.549h2.864a3.235 3.235 0 0 1 1.436.3 2.18 2.18 0 0 1 .944.86 2.527 2.527 0 0 1 .331 1.31 2.5 2.5 0 0 1-.289 1.225 2.127 2.127 0 0 1-.833.833l1.247 2.016h-2.142Z" transform="translate(-183.877 -94.12)" fill="currentColor"/><path id="Rectangle_2" data-name="Rectangle 2" d="M276.431 128.726h2.006v6.548h-2.006Z" transform="translate(-202.256 -94.122)" fill="currentColor"/><g id="Group_1" data-name="Group 1" transform="translate(77.523 34.603)"><path id="Path_14" data-name="Path 14" d="M289.652 134.608a3.2 3.2 0 0 1-.765-2.283v-3.6h2.006v3.537a1.836 1.836 0 0 0 .233 1.048.86.86 0 0 0 1.352 0 1.836 1.836 0 0 0 .233-1.048v-3.536h1.972v3.6a3.2 3.2 0 0 1-.765 2.283 3.2 3.2 0 0 1-4.267 0" transform="translate(-288.887 -128.723)" fill="currentColor"/></g><path id="Path_15" data-name="Path 15" d="m320.759 135.274-.017-2.984-1.291 2.394h-.884l-1.29-2.292v2.881h-1.828v-6.547h1.651l1.938 3.489 1.887-3.489h1.648l.017 6.548Z" transform="translate(-230.785 -94.122)" fill="currentColor"/><path id="Path_16" data-name="Path 16" d="M35.7 12.927h-9.1a.684.684 0 0 0-.684.684V39.9l-5.116-.031V4.588l14.9.037Zm.686-9.669-15.6-.038V.762A.764.764 0 0 0 20.022 0H1.264A.764.764 0 0 0 .5.762V13.5a.764.764 0 0 0 .763.763h12.193v34.772a.764.764 0 0 0 .763.763h5.8a.764.764 0 0 0 .763-.763v-7.8l5.818.035a.684.684 0 0 0 .684-.684V14.3h9.1a.684.684 0 0 0 .684-.684V3.942a.684.684 0 0 0-.682-.684" transform="translate(-.501 .001)" fill="currentColor"/></g></g></svg>