<svg xmlns="http://www.w3.org/2000/svg" viewBox="0 0 48.189 39.139" fill="currentColor">
  <path d="M43.236,13.135c.031.428.031.856.031,1.284,0,13.056-9.938,28.1-28.1,28.1A27.91,27.91,0,0,1,0,38.086a20.431,20.431,0,0,0,2.385.122,19.78,19.78,0,0,0,12.261-4.22,9.894,9.894,0,0,1-9.234-6.849,12.455,12.455,0,0,0,1.865.153,10.446,10.446,0,0,0,2.6-.336,9.878,9.878,0,0,1-7.92-9.693v-.122a9.947,9.947,0,0,0,4.464,1.254A9.891,9.891,0,0,1,3.363,5.185,28.073,28.073,0,0,0,23.728,15.52a11.149,11.149,0,0,1-.245-2.263A9.886,9.886,0,0,1,40.576,6.5a19.445,19.445,0,0,0,6.268-2.385A9.85,9.85,0,0,1,42.5,9.557a19.8,19.8,0,0,0,5.687-1.529,21.23,21.23,0,0,1-4.953,5.106Z" transform="translate(0 -3.381)"/>
</svg>
