<svg xmlns="http://www.w3.org/2000/svg" width="162.239" height="34.774"><defs><clipPath id="clip-path"><path id="Rectangle_1732" data-name="Rectangle 1732" fill="currentColor" d="M0 0h162.24v34.774H0z"/></clipPath></defs><g id="UNESCO" clip-path="url(#clip-path)" fill="currentColor"><path id="Path_8679" data-name="Path 8679" d="M52.95 31v-8.471a.216.216 0 0 0-.238-.211.207.207 0 0 0-.211.211V31s0 .19.233.19.216-.19.216-.19Z" transform="translate(-19.899 -8.459)"/><path id="Path_8680" data-name="Path 8680" d="M0 34.774h162.24V0H0Zm14.428-12.043c.211 0 .211-.168.211-.168v-9.2h.591v9.181a.675.675 0 0 1-.759.71.723.723 0 0 1-.8-.71V13.36h.591v9.16a.163.163 0 0 0 .166.211Zm20.493 1.984H12.347v-.948h22.574Zm-17.534-1.464V13.36h.472l.591 5.284V13.36h.5v9.891h-.5l-.591-5.946v5.946Zm5.062-5.534v.542h-.64v4.471h.851v.52h-1.511v-9.89h1.3v.5h-.64v3.859Zm2.921 5c.152.011.152-.179.152-.179V20.26c0-.959-.921-3.051-.921-4.293v-1.891a.73.73 0 0 1 .78-.71.686.686 0 0 1 .759.71V16.3h-.612v-2.224s0-.211-.168-.211-.141.211-.141.211V16.3c0 .732.921 2.943.921 4.108v2.141a.719.719 0 0 1-.78.71.7.7 0 0 1-.759-.71v-2.484h.618v2.482c0-.006 0 .162.152.173Zm3.7-8.862a.207.207 0 0 0-.211.211v8.471s.038.19.211.19a.186.186 0 0 0 .19-.19v-2.478h.591v2.482a.719.719 0 0 1-.78.71.7.7 0 0 1-.759-.71V14.07a.712.712 0 0 1 .759-.71.737.737 0 0 1 .78.71v2.222h-.591V14.07s.002-.211-.188-.211Zm2.938 8.683V14.07a.739.739 0 0 1 .829-.71.683.683 0 0 1 .78.71v8.471a.739.739 0 0 1-.829.71.719.719 0 0 1-.778-.71Zm-19.663-10.7h22.576v.949H12.347Zm1.821-.607 9.463-2.889 9.322 2.889h-2.74l-6.58-2.011-6.721 2.01Zm-1.821-1.019 11.284-3.48 11.29 3.48v1.018L23.56 7.8l-11.213 3.43Zm-1.278 15.164h25.084v.943H11.067Zm26.314 2.558H9.886v-.948h27.5Zm123.878 5.859h-114V.981h114Z"/><path id="Path_8681" data-name="Path 8681" d="M211.666 27.537a3.819 3.819 0 1 1-.017-5.42l.1.1 1.734-3.691-.065-.049a7.741 7.741 0 1 0-.011 12.645l.065-.049-1.707-3.631Z" transform="translate(-76.266 -6.464)"/><path id="Path_8682" data-name="Path 8682" d="M231.017 28.679a3.8 3.8 0 1 1 3.8-3.8 3.81 3.81 0 0 1-3.8 3.8ZM231 17.107a7.729 7.729 0 1 0 7.729 7.729A7.74 7.74 0 0 0 231 17.107Z" transform="translate(-84.625 -6.484)"/><path id="Path_8683" data-name="Path 8683" d="M96.708 17.849v7.989a3.054 3.054 0 0 0 .813 2.341 2.761 2.761 0 0 0 1.951.683 2.9 2.9 0 0 0 1.984-.683 3.158 3.158 0 0 0 .78-2.341v-7.989h4.678v8.444a5.807 5.807 0 0 1-1.626 4.645c-1.658 1.626-4.092 1.886-5.815 1.886-1.788 0-4.19-.26-5.848-1.886a5.543 5.543 0 0 1-1.593-4.352v-8.737Z" transform="translate(-34.882 -6.765)"/><path id="Path_8684" data-name="Path 8684" d="M121.846 17.611h4.677v1.724a5.287 5.287 0 0 1 4.482-2.114 5.7 5.7 0 0 1 4.157 1.463 5.67 5.67 0 0 1 1.463 4.255V32.1h-4.677v-7.438a4.005 4.005 0 0 0-.781-2.889 2.451 2.451 0 0 0-1.783-.65 2.548 2.548 0 0 0-1.952.78 3.707 3.707 0 0 0-.91 2.759V32.1h-4.677Z" transform="translate(-46.184 -6.527)"/><path id="Path_8685" data-name="Path 8685" d="M161.593 22.811a3.691 3.691 0 0 0-.943-1.691 3.438 3.438 0 0 0-4.585.13 3.255 3.255 0 0 0-.813 1.561Zm4.319 2.791h-10.818a3.962 3.962 0 0 0 .878 2.471 3.137 3.137 0 0 0 2.4.911 3.849 3.849 0 0 0 1.887-.423 2.841 2.841 0 0 0 1.008-1.2l4.418.455a6.512 6.512 0 0 1-2.791 3.637 8.6 8.6 0 0 1-4.58 1.073 7.5 7.5 0 0 1-5.783-2.081 7.778 7.778 0 0 1-2.178-5.588 8.253 8.253 0 0 1 2.211-5.718 8.567 8.567 0 0 1 11.306.1 8.261 8.261 0 0 1 2.049 5.881v.48Z" transform="translate(-56.988 -6.464)"/><path id="Path_8686" data-name="Path 8686" d="M188.475 21.253a5.323 5.323 0 0 0-2.564-.813 1.988 1.988 0 0 0-1.333.423 1 1 0 0 0-.292.65.759.759 0 0 0 .455.65 8.421 8.421 0 0 0 1.4.488l1.236.39a6.107 6.107 0 0 1 2.4 1.268 3.458 3.458 0 0 1 1.138 2.764 5.25 5.25 0 0 1-1.5 3.8 6.255 6.255 0 0 1-4.709 1.653 8.626 8.626 0 0 1-5.946-2.076l1.983-3.149a8.068 8.068 0 0 0 1.593 1.073 4.378 4.378 0 0 0 1.951.455 2.62 2.62 0 0 0 1.464-.325 1.236 1.236 0 0 0 .488-.943.958.958 0 0 0-.52-.846 6.178 6.178 0 0 0-1.431-.52l-1.171-.358a5.794 5.794 0 0 1-2.341-1.333 3.577 3.577 0 0 1-1.041-2.634 4.48 4.48 0 0 1 1.4-3.344 6.381 6.381 0 0 1 4.385-1.463 9.15 9.15 0 0 1 4.808 1.236Z" transform="translate(-67.757 -6.468)"/></g></svg>