<svg xmlns="http://www.w3.org/2000/svg" viewBox="0 0 102 58.427" fill="currentColor">
  <path d="M51.38 1.361a.421.421 0 0 0-.421-.437h-11.35c-.266 0-.572.08-.572.436 0 .18.075.383.423.43.264.035.867.072 1.54.119 1.623.114 2.247.283 2.713.954.438.63.2 1.75-.29 3.083s-13.556 34.82-13.556 34.82h-.052c-.158-.49-10.507-33.029-10.956-34.433s-.629-2.395-.4-2.937c.423-.991 1.265-1.339 3.364-1.484.288-.02.422-.031.685-.053a.433.433 0 0 0 .374-.562c-.062-.309-.242-.373-.58-.373H.443A.434.434 0 0 0 0 1.336a.374.374 0 0 0 .218.4 5.435 5.435 0 0 0 1.233.159 6.636 6.636 0 0 1 2.708.532A5.747 5.747 0 0 1 6.59 5.765C7 6.992 23.979 58.041 24.033 58.196a.285.285 0 0 0 .531 0c.1-.246 21.152-53.073 21.453-53.809a3.82 3.82 0 0 1 1.389-1.888 7.581 7.581 0 0 1 3.5-.715.438.438 0 0 0 .471-.428M58.1 53.792a9.829 9.829 0 0 1-5.38 1.778c-6.336 0-11.288-5.88-11.288-11.672a10.1 10.1 0 0 1 4.57-8.759l.011.017.025.038c7.823 12.067 8.259 12.761 12.063 18.6m-5.572-22.635s-2.072-3.2-3.259-5.435c-1.04-1.957-2-4.983-.579-7.02a3.685 3.685 0 0 1 3.3-1.489c2 0 4.437 1.863 4.437 6.567a8.907 8.907 0 0 1-3.9 7.378m20.544 3.189h-9.458a.418.418 0 0 0-.457.445.411.411 0 0 0 .366.409 3.96 3.96 0 0 0 .6.072 5.431 5.431 0 0 1 2.591.556c.872.58.788 1.485.622 2.718a25.949 25.949 0 0 1-3.8 9.868c-3.7-5.809-10.418-16.351-10.418-16.351s2.78-1.444 4.668-2.53c1.842-1.059 4.661-3.188 4.661-6.67a5.672 5.672 0 0 0-2.8-4.738 12.933 12.933 0 0 0-6.981-1.979c-3.525 0-7.293 1.294-9.335 4.534-1.971 3.128-1.462 7.7.858 11.515.627 1.032 1.314 2.075 1.314 2.075-.825.3-1.848.739-2.711 1.131-4.69 2.178-8.669 6.244-8.669 11.823 0 6.207 4.616 11.2 13.124 11.2a19.437 19.437 0 0 0 11.51-3.649c1.406 1.905 4.006 3.335 7.742 3.335 3.545 0 6.353-2.064 7.08-3.754a.591.591 0 0 0-.3-.814c-.463-.144-.752.144-1.093.948a2.04 2.04 0 0 1-2.063 1.185c-1.529 0-3.069-1.752-4.213-3.535l-1.688-2.648a30.493 30.493 0 0 0 4.548-10.159 8.481 8.481 0 0 1 1.049-2.887 3.351 3.351 0 0 1 2.517-1.138 5.065 5.065 0 0 0 .854-.122.42.42 0 0 0 .293-.473.391.391 0 0 0-.406-.366M102 57.674a.465.465 0 0 0-.445-.512c-.094-.015-.4-.049-.889-.088-2.372-.191-4.964-.675-6.507-4.672C93.664 51.122 74.182.619 74.054.282c-.146-.386-.512-.375-.64.013-.11.332-5.274 15.64-5.274 15.64l13.44 36.984a6.652 6.652 0 0 1 .465 1.889 2.065 2.065 0 0 1-1.2 1.774 9.091 9.091 0 0 1-2.594.5c-.273.023-.507.046-.755.082a.453.453 0 0 0-.382.479.431.431 0 0 0 .464.434h24a.433.433 0 0 0 .416-.4"/>
</svg>
