<svg xmlns="http://www.w3.org/2000/svg" xmlns:xlink="http://www.w3.org/1999/xlink" width="187" height="187" viewBox="0 0 187 187"><defs><clipPath id="a"><rect width="187" height="187"/></clipPath><clipPath id="b"><rect width="101.623" height="177.891"/></clipPath></defs><g clip-path="url(#a)"><g transform="translate(43 4.729)"><g clip-path="url(#b)"><path d="M94.721,121.389l-.9-6.324a2.8,2.8,0,0,0-.309-1.026c-.467-.8-.38-2.014-.742-2.646a3.236,3.236,0,0,0-.164-.523,21.013,21.013,0,0,1-1.009-2.437,13.591,13.591,0,0,0-.758-1.746c-.344-.979-1.118-1.99-1.555-2.924-.1-.267-.2-.535-.3-.8A7.019,7.019,0,0,0,87.91,101.2a20.365,20.365,0,0,0-1.986-2.341c-2.449-3.093-9.408-7.346-13.874-8.844l-3.038-.739c-.978-.244-1.78-.388-2.555-.527a22.6,22.6,0,0,1-3.418-.813,10.571,10.571,0,0,0-4.418-.679,14.173,14.173,0,0,1-2.391-.146,28.735,28.735,0,0,1-2.856-.784,14.607,14.607,0,0,0-6.233-.991,11.726,11.726,0,0,1-4.265-.564,14.577,14.577,0,0,0-5.891-.618,5.39,5.39,0,0,1-1.48-.166c-1.491-.407-4.058-.8-6.323-1.142-1.077-.164-2.061-.313-2.713-.43a12.016,12.016,0,0,1-5.185-2.4,3.526,3.526,0,0,1-.308-2.726l.041-.132c.677-3.049,4.731-5.17,8.794-4.645,9.041,1.923,12.895,2.392,21.028,1.781a60.544,60.544,0,0,0,12.441-2.936A29.188,29.188,0,0,0,78.015,61.116l.1-.095.067-.121c3.5-6.452,7.471-13.765,5.372-22.371l-.037-.115a8.514,8.514,0,0,1-.332-3.017,12.822,12.822,0,0,0-2.233-6.639,27.069,27.069,0,0,0-3.083-5.787C76.876,21.5,74.7,19.058,74.7,19.058c-.131-.1-.339-.279-.5-.417-.293-.249-.624-.519-.962-.786a17.055,17.055,0,0,1-1.626-1,15.01,15.01,0,0,0-3.26-2.056,9.112,9.112,0,0,1,6.026-3.342,7.641,7.641,0,0,1,4.2-.049,19.232,19.232,0,0,1,3.773,3.833,13.184,13.184,0,0,0,3.429,2.838,7.758,7.758,0,0,0,1.714.77c.4.283.8.556,1.2.808,1.8,1.1,4.715,1.86,8.522.076,3.088-1.446,4.629-6.275,4.381-9.11-.093-2.585-1.939-4.366-3.919-6.059a8.769,8.769,0,0,0-3.6-2.1A11.716,11.716,0,0,0,87.99.268a6.377,6.377,0,0,1-2.021-.25,35.372,35.372,0,0,0-11.52,1.615c-3.14.664-5.51,2.578-9.307,4.9a24.042,24.042,0,0,0-5.593,4.415l-.339.092-.642-.161A56.678,56.678,0,0,0,47.558,8.871c-2.935-.418-10.142.413-12.538.776a8.811,8.811,0,0,0-3.152.437A42.74,42.74,0,0,0,11.665,24.1c-2.913,3.822-5.756,8.126-6.83,13.708-.824,4.947-1.311,11.4,2.27,17.444.347.567.683,1.133,1.017,1.7,1.728,2.912,3.513,5.923,6.432,8.327a12.055,12.055,0,0,0,1.35.853,11.957,11.957,0,0,1,2.563,1.8c-.833.421-1.87,1-2.815,1.532-.775.436-1.48.833-1.945,1.064a21.048,21.048,0,0,0-7.949,6.74c-1.12,1.623-1.844,2.622-2.275,3.367-1.2.792-1.826,5.521-1.395,9.069A18.85,18.85,0,0,1,3,91.521a4.545,4.545,0,0,0,.422,1A7.171,7.171,0,0,0,4.65,94l.125.118.032.168c.615,3.17,1.59,4.2,4.43,5.907,2.37,1.579,5.95,3.966,9.386,4.167a8.569,8.569,0,0,1,3.029.7,14.53,14.53,0,0,0,2.2.669c.743.157,1.488.321,2.231.486a55.873,55.873,0,0,0,8.986,1.481,52.96,52.96,0,0,1,11.372,2.4c2.058.6,4.187,1.224,6.391,1.677.573.118,1.272.309,1.99.506.768.211,1.562.428,2.207.558a71.006,71.006,0,0,1,7.277,1.49c.191.055.468.114.772.178a8.9,8.9,0,0,1,1.86.527c7.57,1.706,11.3,3.725,13.3,7.192l.06.1.013.031.115.2c1.533,3.169,1.753,7.329.692,13.088a38.512,38.512,0,0,1-23.323,28.237,36.99,36.99,0,0,1-14.275,3.054,23.33,23.33,0,0,1-4.382-.378c-.163.006-.329.009-.5.009-4.487,0-10.531-1.992-16.17-5.329-5.472-3.24-8.631-6.786-12.053-13.517-.293-.489-1.839-4.126-1.669-5.51-.288-3.392.421-4.54,1.112-4.89a5.006,5.006,0,0,1,1.733-.947l.469-.067.223.41a1.575,1.575,0,0,1,.077.5,12.144,12.144,0,0,0,.91,3.743c.122.336.241.667.328.937,2.075,4.578,9.97,13.858,24.995,16.209a26.969,26.969,0,0,0,4.148.318c1.421,0,2.809-.365,4.195-.309,1.839.074,3.929-.777,5.774-1.4a37.584,37.584,0,0,0,13.441-8.061c4.41-4.2,6.811-10.442,7.342-19.093.149-2.431-.344-4.38-1.387-5.489a3.861,3.861,0,0,0-2.943-1.13,10.025,10.025,0,0,0-3.382.694c-1.141.417-2.2.777-3.213,1.065a18.532,18.532,0,0,1-5.164.786c-4.706,0-9.693-2.157-16.676-7.214a22.964,22.964,0,0,0-10.564-4.314,11.317,11.317,0,0,0-2.889-.187c-.937.053-1.845.058-2.713.161a21.128,21.128,0,0,0-9.576,3.465,8.307,8.307,0,0,0-3.2,4.164,2.138,2.138,0,0,0,.377.029,6.072,6.072,0,0,0,1.265-.163,25.855,25.855,0,0,1,5.529-.741,14.576,14.576,0,0,1,4.62.749c4.823,1.191,9.676,4.35,15.735,10.241,3.99,3.88,7.085,5.97,9.751,6.58.123.031.292.079.5.137a20.26,20.26,0,0,0,3.154.7l1.82.194-1.639.816a9.787,9.787,0,0,1-4.076.731l-.324,0c-1.963,0-6.561-.015-12.666-4.069-1-.663-1.944-1.288-2.776-1.845a9.409,9.409,0,0,1-1.539-.837,82.654,82.654,0,0,0-8.6-5.193,22.5,22.5,0,0,0-5.331-1.854l-.225-.052-.283-.041-.224-.043a2.7,2.7,0,0,0-.286-.047l-.123-.008a14,14,0,0,0-1.785-.128l-1.175,0a17.232,17.232,0,0,0-4.259.4c-.865.306-1.691.643-2.526,1.032a8.239,8.239,0,0,0-3.034,2.686C.979,134.107-.744,139.849.317,145.955l.078.3a5.194,5.194,0,0,0,.479,2.217,7.778,7.778,0,0,0,.741,1.718,4.444,4.444,0,0,1,.654,1.06c.251.588.534,1.2.851,1.833.451.9.912,1.717,1.365,2.458.942,1.582,1.632,3.735,3.608,5.287a25.886,25.886,0,0,1,2.082,2.35A102.162,102.162,0,0,0,18,170.114c7.777,4.7,14.868,7.024,21.749,7.624h.189c.078,0,.2,0,.337.008,1.039.046,2-.009,2.182.039a14.315,14.315,0,0,0,3.535-.051,88.7,88.7,0,0,0,9.363-1l.2-.029.633-.289a20,20,0,0,0,2.7-.463,42.063,42.063,0,0,0,6.233-2.288,28.837,28.837,0,0,0,4.907-2.6,55.93,55.93,0,0,0,8.475-6.446c.282-.282.509-.628.8-.877a7.683,7.683,0,0,0,1.834-1.8c2.093-2.688,3.816-5.1,5.25-7.338,1.709-2.663,3.281-4.884,4.024-7.381,1.093-3.674,2.453-6.792,3.187-10.409a59.128,59.128,0,0,0,1.214-9.1c.077-1.558.06-3.048.06-3.048-.015-1.251-.076-2.353-.149-3.268M33.307,27.134a24.354,24.354,0,0,0,1.086-2.826,7.521,7.521,0,0,1,2.967-4.5,8.92,8.92,0,0,1,10.007-.554c2.435,1.566,4.879,5.5,6.33,8.605a54.737,54.737,0,0,1,3.866,19.3c0,.165-.019.346-.037.534a4.245,4.245,0,0,0,.055,1.614c.709,5.167-1.881,11.677-4.607,13.858a7.983,7.983,0,0,1-6.766,1.781c-4.342-.756-6.238-1.636-8.231-5.077l-.093-.131c-2.437-2.812-3.775-5.885-5.3-12.173-.624-3.126-2.395-13.752.724-20.432" transform="translate(0 0)"/></g></g></g></svg>