<?xml version="1.0" encoding="UTF-8"?>
<svg xmlns="http://www.w3.org/2000/svg" width="300" height="300">
  <defs>
    <clipPath id="a">
      <path d="M0 0h300v300H0z"></path>
    </clipPath>
  </defs>
  <g clip-path="url(#a)">
    <path data-name="RB symbol black RGB" d="M77.132 195.162c5.049-.455 10.182-.3 15.114-1.482 12.373-2.974 22.025-13.982 34.684-15.326 12.415-1.323 24.206 7.589 29.709 18.787 3.662 7.441 5.112 15.813 8.711 23.274 4.16 8.626 10.986 15.654 17.993 22.174 3.916 3.641 8.129 7.5 9.409 12.7.878 3.588.222 7.345-.476 10.976a61.785 61.785 0 01-3.091 11.632 35.615 35.615 0 01-18.405 18.755 40.749 40.749 0 01-26.354 2.074c-21.486-5.419-37.531-26.7-59.662-27.794-4.562-.222-9.145.455-13.7.074-14.426-1.185-26.524-13.505-29.731-27.624-2.657-11.674.138-24.015 5.938-34.314 3.186-5.662 6.541-7.483 12.532-9.833a63.4 63.4 0 0117.329-4.073zm-30.683-76.809c-7.769 14.691-9.653 33.16-1.937 47.872a32.029 32.029 0 004.361 6.435c7.79 8.764 21.263 11.272 32.313 7.356 13.505-4.784 24.756-17.675 24.492-32.006-.2-11.367-7.546-23.031-8.615-34.356-.349-3.673-.254-7.6-2.159-10.764-2.043-3.387-5.916-5.133-9.547-6.679-8.467-3.609-14.881-1.8-22.428 3.228a51.639 51.639 0 00-16.48 18.914zm163.947 120.409a24.552 24.552 0 007.642-.9c11.23-2.974 20.459-11.568 25.878-21.846s7.324-22.1 7.3-33.721c-.011-5.6-.466-11.293-2.508-16.5s-5.874-9.928-11.071-12.013a16.268 16.268 0 00-9.928-.688c-5.07 1.249-9.452 5.567-13.907 8.3-4.922 3.006-11.981 4.858-16.723 8.118-10.235 7.028-15.22 17.453-17.146 29.72-.762 4.879.032 11.113 1.376 15.855 3.219 11.393 17.307 23.004 29.087 23.675zm-94.082-172.9a73.911 73.911 0 00-8.277 32.652c-.191 11.209 1.609 21.274 12.045 27.91 5.631 3.577 11.177 5.186 16.437 5.006s12.87-3.958 15.823-7.43a55.724 55.724 0 007.356-12.352 77.711 77.711 0 005.821-16.247c1.746-8.372 1.641-16.522 3.842-24.788a58.988 58.988 0 002.223-16.109c-.254-7.906-5.98-13.738-13.653-15.664s-15.432.106-21.951 4.583a53.307 53.307 0 00-8.668 6.848 69.872 69.872 0 00-10.998 15.585zm101.036 76.263a62.4 62.4 0 007.663-11 108.433 108.433 0 009.78-28.884c2-10.214.614-20.216-3.091-30.874-2.117-6.1-9.018-10.5-15.347-11.759-10.955-2.17-21.168 11.42-23.814 15.294-3.44 5.038-8.584 10.013-11.791 16.183a85.314 85.314 0 00-7.536 18.808c-1.7 5.832-1.905 9-1.99 15.072s1.355 12.33 5.027 17.167c5.144 6.774 14.617 10.235 22.809 9.917 5.8-.187 15.453-6.495 18.29-9.924zM88.87 86.844c.614.36 1.4.741 1.969.328a1.471 1.471 0 00.445-.572c1.016-1.905 1.1-4.138 1.312-6.287a95.36 95.36 0 012.879-17.368c.73-2.731.476-5.684-.5-6.033-.91-.328-4.975 2.043-9.452 5.969-5.451 4.784-8.6 8.234-13.918 17.136-.709 1.185-1.535 3.069.1 3.662 1.4.508 4.287-.349 5.864-.254a25.637 25.637 0 0111.301 3.419zm162.529 63.811c1.08 1.154 2.413 2.53 3.948 2.127 1.355-.36 2.011-1.916 2.434-3.281 3.006-9.96 3.281-17.876 1.619-29.022-.233-1.6-1.016-4.265-2.2-4.646-1.281-.413-3.683 1.344-5.324 4.022a123.975 123.975 0 01-13.644 18.707c-3.694 4.339.6 4.371 3.948 5.652a23.679 23.679 0 019.219 6.442zm-87.912-120.33c2.053.9 3.874 2.572 5.853 3.652a6.42 6.42 0 002.053.677c.4-.127.646-.614.826-1.048a77.882 77.882 0 003.62-12.722c1.312-5.832 2.233-10.425 3.546-16.257.3-1.312 1.291-4.117.032-4.562-1.185-.413-3.81 1.238-4.287 1.566-7.621 5.133-12.775 11.854-19.157 19.919-1.746 2.2-5.059 6.033-1.228 6.837 3.471.721 5.578.552 8.742 1.938zm67.664 25.637c1.683.381 3.048-6.52 3.408-9.674a80.858 80.858 0 00-.392-17.421c-.974-5.631-1.725-12.087-4.477-13-2.043-.667-5.038 6.837-8.1 13.653-.995 2.212-5.631 8.467-8.944 15.971-.572 1.291-1.439 3.831.318 4.562 1.238.508 5.2-.011 8.711 1.154 5.423 1.811 6.957 4.171 9.476 4.755z"></path>
  </g>
</svg>
