<?xml version="1.0" encoding="UTF-8"?>
<svg xmlns="http://www.w3.org/2000/svg" width="300" height="300">
  <defs>
    <radialGradient id="b" cx=".278" cy=".776" fx=".17" r=".837" gradientUnits="objectBoundingBox">
      <stop offset="0"></stop>
      <stop offset=".14"></stop>
      <stop offset=".76" stop-color="#444"></stop>
      <stop offset="1" stop-color="#333"></stop>
    </radialGradient>
    <clipPath id="a">
      <path d="M0 0h300v300H0z"></path>
    </clipPath>
  </defs>
  <g clip-path="url(#a)">
    <path data-name="Path 42466" d="M62.562 254.279A137.741 137.741 0 0115.7 158.343a108.243 108.243 0 010-12.052A138.5 138.5 0 0165.8 45.567c15.324-12.431 39.91-14.807 58.54-11.639 8.574 1.446 17.837 4.993 21.384 12.879s0 17.218-4.58 24.277c-11.983 18.354-31.543 30.062-48.691 43.8-20.146 16.186-38.293 37.57-41.324 63.224-3.443 29.133 13.771 57.852 37.294 75.173 22.107 16.185 49.1 24.1 76.067 29.339a2.1 2.1 0 011.653 2.479 2.135 2.135 0 01-1.86 1.687c-4.1.379-8.2.585-12.328.585A137.982 137.982 0 0162.6 254.279m204.2-48.795c-19.9-3.753-68.216-13.5-79.2-21.453-15.5-11.329-6.887-28.478 1.205-44.318l.689-1.412a103.721 103.721 0 009.056-28.719 100.758 100.758 0 00.654-28.237 81.164 81.164 0 00-6.887-24.725c-10.23-21.62-31.305-31.955-54.032-36.363a2.1 2.1 0 01-1.653-2.479 2.032 2.032 0 011.86-1.687 131.783 131.783 0 0116.563-.482 135.882 135.882 0 01131.784 124.552v10.5a136.776 136.776 0 01-3.444 30.992 133.261 133.261 0 01-5.131 17.218 10.675 10.675 0 01-12.052 6.887M1.37 151.524A149.966 149.966 0 1045.16 45.238 150 150 0 001.37 151.524" transform="translate(-1.37 -1.18)" fill="url(#b)"></path>
  </g>
</svg>
