<svg height="48" viewBox="0 0 48 48" width="48" xmlns="http://www.w3.org/2000/svg" xmlns:xlink="http://www.w3.org/1999/xlink"><clipPath id="a"><path d="m0 0h36.65v32.771h-36.65z"/></clipPath><clipPath id="b"><path d="m0 0h48v48h-48z"/></clipPath><g clip-path="url(#b)"><path d="m0 0h48v48h-48z" fill="#fff"/><path d="m0 0h48v48h-48z" fill="#05425e"/><circle cx="24" cy="24" fill="#05425e" r="24"/><g clip-path="url(#a)" transform="translate(9.04 7.83)"><path d="m36.5 26.757c-.213-.187-.519-.089-1.021.433a11.136 11.136 0 0 1 -5.762 3.21 15.385 15.385 0 0 1 -13.917-4.22c-2.719-2.58-5.334-7.18-6.534-12.699a17.6 17.6 0 0 0 4.865-4.5c1.057-1.561.133-3.01-1.584-3.427a.466.466 0 0 0 -.241-.016.362.362 0 0 0 -.181.16 24.109 24.109 0 0 1 -6.651 7.102l1.308-11.9c.058-.508-.127-.864-.682-.878-.805-.022-1.616-.042-2.419.013a.937.937 0 0 0 -.953.965c-.302 2.951-2.528 23.042-2.719 24.745-.057.508.128.864.681.878.807.021 1.617.042 2.421-.013a.938.938 0 0 0 .953-.969l1.05-9.559a25.448 25.448 0 0 0 9.133 13.15 19.138 19.138 0 0 0 13.891 3.281c3.484-.655 6.628-2.425 8.175-4.647.454-.652.376-.94.183-1.109m-31.255-11.299-.054.032v-.014l.053-.019m-.06.021v.015z" fill="#f1ebe8"/></g></g></svg>